<svg width="814" height="298" viewBox="0 0 814 298" xmlns="http://www.w3.org/2000/svg">
  <path d="M328.686 211.181c8.905.251 16.463-2.247 22.671-7.494 6.209-5.247 9.94-12.302 11.195-21.166l11.226-65.976-13.547-.063-2.32 6.962c-3.805-5.31-9.428-8.049-16.87-8.216-5.603-.084-10.578 1.327-14.926 4.233-4.349 2.906-7.955 7.097-10.819 12.574-2.864 5.478-4.693 11.603-5.487 18.376-.335 3.47-.44 6.46-.314 8.968.376 7.986 2.477 14.34 6.303 19.065 3.826 4.725 8.916 7.129 15.271 7.213 6.648.167 12.585-2.28 17.811-7.338l-1.066 4.766c-1.17 5.226-3.502 9.25-6.993 12.073-3.49 2.822-7.661 4.15-12.511 3.982-6.397-.167-11.582-2.99-15.554-8.466l-7.902 8.968c2.593 3.428 6.02 6.188 10.286 8.278a31.672 31.672 0 0 0 13.546 3.261zm7.824-37.934l-.988-.008c-3.554-.125-6.293-1.484-8.216-4.076-1.923-2.593-2.927-6.105-3.01-10.536-.084-2.467 0-4.767.25-6.9l.126-1.316c1.045-7.233 3.282-12.857 6.71-16.87 3.429-4.014 7.652-5.958 12.669-5.833 5.56.167 9.428 2.739 11.602 7.714l-5.33 29.978c-4.223 5.435-9.157 8.048-14.801 7.84l.988.007zm54.181 11.155l16.745-96.33h-14.863l-16.745 96.33h14.863zm37.17-77.39c2.425-.083 4.422-.899 5.99-2.446 1.568-1.547 2.352-3.512 2.352-5.895 0-2.257-.805-4.17-2.415-5.738-1.61-1.568-3.627-2.31-6.052-2.226-2.55.083-4.578.94-6.083 2.57-1.505 1.631-2.258 3.596-2.258 5.896 0 2.258.815 4.15 2.446 5.676 1.63 1.526 3.637 2.247 6.02 2.163zm-7.525 77.39l11.79-67.857h-14.863l-11.79 67.857h14.863zm28.703 0l8.592-49.23c3.721-5.06 8.362-7.547 13.923-7.464 5.519.126 8.613 2.718 9.282 7.777.167 1.547.146 3.22-.063 5.017l-7.4 43.9h14.926l7.776-45.217.189-1.38c3.553-6.898 8.403-10.264 14.55-10.097 5.518.126 8.612 2.634 9.281 7.526.167 1.547.147 3.24-.062 5.08l-7.4 44.088h14.863l7.337-43.963c.795-7.86-.407-13.975-3.606-18.344-3.198-4.369-8.1-6.637-14.707-6.804-8.11-.168-15.302 3.303-21.573 10.41-1.004-3.094-2.917-5.581-5.739-7.463-2.822-1.881-6.365-2.864-10.63-2.947-7.777-.168-14.466 2.634-20.069 8.403l1.317-7.212-13.922.063-11.728 67.857h14.863zm104.135 0l8.592-49.23c3.721-5.06 8.362-7.547 13.923-7.464 5.519.126 8.612 2.718 9.281 7.777.168 1.547.147 3.22-.062 5.017l-7.4 43.9h14.925l7.777-45.217.188-1.38c3.554-6.898 8.404-10.264 14.55-10.097 5.519.126 8.613 2.634 9.282 7.526.167 1.547.146 3.24-.063 5.08l-7.4 44.088h14.863l7.338-43.963c.794-7.86-.408-13.975-3.606-18.344-3.199-4.369-8.101-6.637-14.707-6.804-8.111-.168-15.302 3.303-21.574 10.41-1.003-3.094-2.916-5.581-5.738-7.463-2.822-1.881-6.366-2.864-10.63-2.947-7.777-.168-14.466 2.634-20.069 8.403l1.317-7.212-13.923.063-11.727 67.857h14.863zm122.149 1.255c5.519.083 10.599-.993 15.24-3.23 4.64-2.237 8.382-5.383 11.225-9.439l-7.525-7.902c-5.394 5.77-11.289 8.55-17.686 8.341-4.474-.083-7.986-1.777-10.536-5.08s-3.637-7.65-3.261-13.044h42.709l.878-6.523c1.045-9.867-.554-17.873-4.798-24.02-4.244-6.145-10.61-9.302-19.097-9.47-5.728-.125-11.038 1.234-15.93 4.077-4.891 2.843-8.978 7.014-12.26 12.512s-5.3 11.696-6.052 18.595l-.188 2.57c-.502 6.063.282 11.561 2.352 16.495 2.07 4.933 5.268 8.822 9.595 11.665 4.327 2.843 9.439 4.327 15.334 4.453zm16.807-41.455l-28.159-.063c3.93-11.372 9.826-16.933 17.686-16.682 2.968.126 5.393 1.046 7.275 2.76 1.881 1.714 3.052 4.055 3.512 7.024.25 1.84.23 3.72-.063 5.644l-.25 1.317zm32.028 40.2l8.153-46.471c3.846-5.561 9.03-8.258 15.553-8.09 1.965 0 3.91.209 5.833.627l1.693-14.362c-2.425-.627-4.327-.94-5.707-.94-6.063-.126-11.414 2.884-16.055 9.03l1.505-7.714-14.11.063-11.728 67.857h14.863zM158.31 48c55.399 0 100.31 44.91 100.31 100.31 0 55.399-44.911 100.31-100.31 100.31-55.4 0-100.31-44.912-100.31-100.31C58 92.91 102.91 48 158.31 48zm71.134 72.934a8.957 8.957 0 0 0-12.665.2l-83.514 86.194a8.956 8.956 0 0 0 .201 12.664 8.92 8.92 0 0 0 6.231 2.525c2.34 0 4.677-.912 6.433-2.724l83.513-86.195a8.955 8.955 0 0 0-.2-12.664zm-46.955 82.775a8.957 8.957 0 1 0 .001 17.913 8.957 8.957 0 0 0-.001-17.913zm-39.996-35.316a8.957 8.957 0 0 0-12.665.201l-22.768 23.5c-3.442 3.55-3.352 9.221.2 12.663a8.924 8.924 0 0 0 6.232 2.524 8.93 8.93 0 0 0 6.433-2.724l22.768-23.499a8.957 8.957 0 0 0-.2-12.665zm86.951-4.448a8.955 8.955 0 0 0-12.664.2L206 175.269a8.956 8.956 0 0 0 .2 12.664 8.926 8.926 0 0 0 6.232 2.524c2.34 0 4.677-.91 6.433-2.724l10.778-11.124a8.956 8.956 0 0 0-.2-12.664zm-132.55-.356a8.955 8.955 0 0 0-8.955 8.956 8.957 8.957 0 1 0 8.956-8.956zm116.114-67.827a8.93 8.93 0 0 0-12.626.2l-47.747 49.28a8.929 8.929 0 1 0 12.825 12.425l47.747-49.28a8.928 8.928 0 0 0-.2-12.625zm-26.7-15.543a8.956 8.956 0 0 0-12.665.2l-60.455 62.397a8.956 8.956 0 0 0 .2 12.664 8.926 8.926 0 0 0 6.231 2.524c2.34 0 4.677-.911 6.434-2.724l60.454-62.395a8.958 8.958 0 0 0-.2-12.665zm-61.98 20.182a8.957 8.957 0 0 0-12.665.2L88.895 124.1a8.956 8.956 0 0 0 6.432 15.188c2.34 0 4.676-.912 6.433-2.724l22.768-23.499a8.957 8.957 0 0 0-.2-12.664zm15.108-24.695a8.957 8.957 0 1 0 0 17.913 8.957 8.957 0 0 0 0-17.913z" fill="#FFFFFF"/>
</svg>
