<svg width="878" height="324" viewBox="0 0 878 324" xmlns="http://www.w3.org/2000/svg">
  <g fill="none" fill-rule="evenodd">
    <g transform="translate(76.041 41.772)">
      <path d="M507.552 137.229s-12.56 9.744-23.616 8.656c-11.056-1.088-7.584-25.792-7.584-25.792s2.384-22.656-4.128-24.56c-6.496-1.888-14.512 5.904-14.512 5.904s-9.968 11.056-14.736 25.152l-1.312.432s1.52-24.72-.208-30.352c-1.296-2.816-13.216-2.592-15.168 2.384-1.952 4.992-11.488 39.664-12.144 54.192 0 0-18.64 15.824-34.88 18.416-16.256 2.608-20.16-7.584-20.16-7.584s44.208-12.352 42.688-47.68c-1.504-35.328-35.648-22.256-39.504-19.36-3.744 2.816-23.696 14.848-29.52 48.176-.192 1.12-.544 6.08-.544 6.08s-17.12 11.472-26.656 14.512c0 0 26.656-44.864-5.84-65.232-9.14-5.502-17.106-.44-21.845 4.208-2.91 2.854 39.397-43.424 29.637-84.832C302.88.237 293.024-1.875 283.984 1.325c-13.728 5.408-18.928 13.424-18.928 13.424s-17.776 25.792-21.904 64.16c-4.112 38.352-10.176 84.736-10.176 84.736s-8.464 8.24-16.256 8.672c-7.808.416-4.336-23.2-4.336-23.2s6.064-35.968 5.648-42.048c-.448-6.064-.88-9.312-8.032-11.472-7.152-2.176-14.96 6.928-14.96 6.928s-20.576 31.2-22.304 35.968l-1.104 1.968-1.072-1.312s14.512-42.48.656-43.12c-13.872-.656-22.976 15.168-22.976 15.168s-15.824 26.448-16.48 29.472l-1.072-1.296s6.496-30.768 5.2-38.368c-1.312-7.584-8.448-6.064-8.448-6.064s-9.104-1.088-11.488 4.768c-2.384 5.856-11.056 44.64-12.144 56.992 0 0-22.752 16.256-37.712 16.464-14.944.224-13.424-9.472-13.424-9.472s54.832-18.768 39.872-55.824c-6.72-9.536-14.512-12.528-25.568-12.32-11.056.224-24.768 6.96-33.648 26.896-4.256 9.504-5.792 18.544-6.672 25.36 0 0-9.584 1.968-14.784-2.368-5.216-4.336-7.888 0-7.888 0s-8.928 11.392-.048 14.848c8.896 3.472 22.752 5.088 22.752 5.088 1.28 6.064 4.976 16.384 15.808 24.592 16.256 12.352 47.44-1.136 47.44-1.136l12.784-7.168s.432 11.728 9.76 13.44c9.312 1.712 13.216-.032 29.472-39.472 9.536-20.16 10.192-19.072 10.192-19.072 1.072-.224-6.288 38.352-3.472 48.752 2.816 10.416 15.168 9.328 15.168 9.328s6.72 1.296 12.144-17.776c5.408-19.072 15.824-40.096 15.824-40.096 1.28 0-3.264 39.44 3.664 52.016 6.944 12.576 24.928 4.224 24.928 4.224s12.576-6.336 14.528-8.288c0 0 14.912 12.704 35.952 10.4 47.04-9.264 63.776-21.776 63.776-21.776s8.08 20.48 33.12 22.384c28.592 2.16 44.208-15.824 44.208-15.824s-.224 11.696 9.744 15.824c9.984 4.112 16.688-19.04 16.688-19.04l16.688-45.984c1.52 0 2.384 29.904 18.864 34.672 16.464 4.768 37.92-11.168 37.92-11.168s5.2-2.864 4.336-11.536c-.88-8.672-8.672-5.44-8.672-5.44zm-434.08-21.696c5.84 5.632 3.68 17.76-7.376 25.344-11.04 7.6-16.032 6.08-16.032 6.08.656-25.792 17.568-37.072 23.408-31.424zM289.104 26.46c3.68 19.504-32.288 77.584-32.288 77.584.432-13.008 13.216-56.992 13.216-56.992s15.376-40.096 19.072-20.592zm-35.552 148.016s-2.816-9.536 5.2-36.192c8.032-26.656 26.88-16.256 26.88-16.256s13.008 9.968 2.816 36.624c-10.176 26.656-34.896 15.824-34.896 15.824zm109.664-52.224c8.88-16.256 15.824-7.376 15.824-7.376s7.584 8.24-1.088 20.592c-8.672 12.352-21.232 11.488-21.232 11.488s-2.384-8.464 6.496-24.704z" fill="#E04E39"/>
      <path d="M529.498 195.09c-6.25 0-11.735-1.144-16.452-3.438-4.716-2.293-8.673-5.364-11.864-9.207-3.192-3.848-5.603-8.297-7.232-13.356-1.63-5.06-2.444-10.324-2.444-15.784 0-3.91.677-8.602 2.035-14.066 1.353-5.465 2.828-10.235 4.424-14.313a68.734 68.734 0 0 1 5.899-11.69c2.34-3.705 5.05-6.963 8.138-9.762a37.498 37.498 0 0 1 10.323-6.676c3.797-1.655 7.967-2.482 12.508-2.482 4.09 0 7.88.593 11.36 1.771 3.483 1.179 6.458 2.82 8.935 4.91a22.717 22.717 0 0 1 5.816 7.431c1.395 2.87 2.097 5.958 2.097 9.262 0 2.294-.33 4.554-.986 6.777-.66 2.226-1.934 4.842-3.831 7.841-1.9 3.004-3.743 5.047-5.531 6.12-1.788 1.082-3.815 1.621-6.075 1.621-3.413 0-5.615-.844-6.609-2.527-1.637-2.632-2.151-4.96-1.55-6.985.205-1.074.807-3.572 1.818-7.487.133-.539.167-1.75.1-3.643 0-1.616-.171-2.966-.506-4.044-.334-1.077-1.07-1.62-2.214-1.62-2.753 0-5.105.66-7.052 1.971-1.95 1.32-3.61 3.037-4.988 5.164-1.379 2.122-2.736 5.122-4.077 9.003-1.346 3.88-2.302 7.131-2.87 9.763-.573 2.632-.924 5.143-1.057 7.54-.138 2.39-.205 4.4-.205 6.017 0 2.431.221 4.959.656 7.59.434 2.633 1.312 5.043 2.62 7.236a17.609 17.609 0 0 0 5.083 5.465c2.08 1.45 4.767 2.172 8.063 2.172 3.238 0 6.81-.994 10.724-2.983 3.91-1.992 7.838-4.503 11.786-7.54a108.53 108.53 0 0 0 11.284-10.014c3.572-3.643 6.642-7.086 9.207-10.323l6.981 11.739c-5.059 7.219-10.523 13.657-16.393 19.322a98.506 98.506 0 0 1-8.146 7.085 71.14 71.14 0 0 1-9.208 6.12 54.766 54.766 0 0 1-10.014 4.35 34.322 34.322 0 0 1-10.553 1.67" fill="#612116"/>
      <path d="M602.361 114.885c3.046-5.439 6.275-11.563 9.693-18.365a350.86 350.86 0 0 0 9.696-21.018 233.955 233.955 0 0 0 7.917-21.582c2.23-7.173 3.651-13.857 4.261-20.048 0-1.972-.046-3.656-.142-5.051-.1-1.391-.401-2.093-.91-2.093-1.856 0-3.853 1.282-5.992 3.847-2.143 2.561-4.286 6.029-6.425 10.403-2.139 4.37-4.7 11.484-7.674 21.335-2.97 9.851-4.458 14.781-4.458 14.785l-2.724 13.716c-1.817 9.136-2.89 17.162-3.242 24.071m-.096 80.204c-3.63 0-7.006-1.575-10.13-4.73-3.126-3.153-5.85-7.385-8.164-12.695-2.319-5.314-4.132-11.472-5.443-18.474-1.312-7.006-1.968-14.359-1.968-22.063 0-6.617.973-15.453 2.92-26.503a38199.85 38199.85 0 0 1 2.916-16.577s1.47-5.519 4.42-16.56c2.945-11.038 5.899-19.89 8.87-26.558 2.957-6.668 6.174-12.896 9.65-18.691 3.48-5.794 7.119-10.841 10.937-15.148 3.814-4.3 7.8-7.683 11.957-10.144 4.156-2.46 8.38-3.689 12.675-3.689 3.12 0 5.702.598 7.733 1.788 2.034 1.191 3.63 2.766 4.796 4.721 1.161 1.955 1.976 4.174 2.452 6.647.468 2.477.706 5 .706 7.566 0 6.375-.752 12.871-2.26 19.485-1.508 6.613-3.543 13.26-6.1 19.94a224.295 224.295 0 0 1-8.89 20.094 588.898 588.898 0 0 1-10.52 19.995 1257.225 1257.225 0 0 1-10.995 19.53 423.11 423.11 0 0 0-10.19 18.8c-.342.681-.697 1.567-1.069 2.653a58.12 58.12 0 0 0-1.065 3.522 148.364 148.364 0 0 0-1.015 4.031 49.565 49.565 0 0 0-.81 4.178v1.433c0 1.767.183 3.484.555 5.151.376 1.667.831 3.163 1.374 4.487.54 1.328 1.116 2.385 1.722 3.167.61.78 1.186 1.174 1.725 1.174 1.312 0 2.82-.272 4.508-.82 1.692-.542 3.488-1.273 5.389-2.193a77.247 77.247 0 0 0 5.853-3.162 157.33 157.33 0 0 0 5.803-3.622c4.349-2.854 20.199-14.463 24.97-18.207l5.849 24.231c-6.183 4.107-20.505 13.168-26.546 16.372a262.868 262.868 0 0 1-8.184 3.994 100.308 100.308 0 0 1-8.493 3.51 69.545 69.545 0 0 1-8.33 2.456c-2.712.61-5.247.91-7.608.91" fill="#612116"/>
      <path d="M725.023 155.925a7.44 7.44 0 0 0-1.609-2.214 8.841 8.841 0 0 0-2.272-1.562 9.26 9.26 0 0 0-2.536-.806c-.853-.134-1.65-.117-2.398.058-.744.175-1.316.568-1.847 1.032-1.065.936-2.147 1.96-3.225 2.962-1.805 1.512-2.486 2.218-4.675 4.157a204.063 204.063 0 0 1-8.903 7.436c-3.033 2.394-6.036 4.437-9.002 6.12-2.97 1.688-5.67 2.528-8.097 2.528-2.093 0-3.476-.894-4.148-2.678-.673-1.784-1.011-4.199-1.011-7.232 0-3.1.484-6.546 1.454-10.34a133.591 133.591 0 0 0 2.41-11.459c.64-3.843 1.826-8.489 3.564-13.933 1.738-5.447 3.05-9.905 3.935-13.368.886-3.468 1.68-6.555 2.373-9.266.69-2.712 1.036-4.805 1.036-6.292 0-1.75-.497-3.154-1.491-4.198-.995-1.045-2.883-1.567-5.665-1.567-1.525 0-3.234.188-5.118.56a26.08 26.08 0 0 0-5.473 1.738 18.525 18.525 0 0 0-4.716 3.02c-1.525 1.366-2.457 2.9-2.787 4.604-.602 2.431-2.18 7.674-4.742 15.729-2.757 9.889-4.6 16.268-5.514 19.15-.56 1.446-1.805 8.03-3.752 19.748-.944 5.665-1.416 10.624-1.416 14.873 0 3.037.322 5.82.96 8.347.644 2.532 1.705 4.675 3.188 6.425 1.484 1.76 3.426 3.121 5.82 4.099 2.394.977 5.343 1.466 8.853 1.466 3.91 0 8.042-.706 12.395-2.122a89.951 89.951 0 0 0 12.796-5.31c4.182-2.13 8.08-4.453 11.69-6.985 3.153-2.21 5.777-4.29 8.033-6.27 2.728-1.94 5.423-4.567 9.015-8.607 1.179-1.324 2.093-2.51 2.624-3.685.53-1.17.802-2.28.823-3.33.017-1.048-.171-1.992-.572-2.828m-38.694-73.069c3.438 0 6.392-.526 8.857-1.583 2.456-1.053 4.499-2.436 6.116-4.136a15.721 15.721 0 0 0 3.542-5.824 20.816 20.816 0 0 0 1.112-6.738c0-2.52-.452-4.696-1.366-6.538-.907-1.834-2.14-3.318-3.69-4.441-1.553-1.124-3.375-1.955-5.464-2.503-2.093-.543-4.32-.814-6.68-.814-3.777 0-6.927.597-9.462 1.788-2.524 1.19-4.55 2.657-6.07 4.386-1.513 1.738-2.612 3.597-3.284 5.57-.677 1.975-1.015 3.742-1.015 5.309 0 4.7 1.416 8.46 4.252 11.284 2.833 2.828 7.215 4.24 13.152 4.24" fill="#612116"/>
    </g>
    <path d="M533.72 224.327v-4.694h2.976c.413 0 .826.044 1.261.087.435.065.848.174 1.195.326.37.152.652.37.87.652.239.283.347.674.347 1.152 0 1.087-.326 1.782-.978 2.064-.652.283-1.5.413-2.52.413h-3.152zm-3.543-7.454v17.864h3.542v-7.628h2.217l4.346 7.628H544l-4.782-7.802a8.45 8.45 0 0 0 1.848-.39 4.312 4.312 0 0 0 1.478-.848c.434-.37.76-.848 1-1.435.26-.587.369-1.282.369-2.108 0-1.934-.609-3.303-1.804-4.086-1.217-.804-2.956-1.195-5.194-1.195h-6.737zm-5.672 8.954c0-1.826.304-3.499.934-5.02.63-1.522 1.478-2.825 2.564-3.934 1.065-1.108 2.348-1.977 3.804-2.608 1.477-.63 3.042-.934 4.716-.934 1.651 0 3.216.304 4.672.934 1.478.63 2.738 1.5 3.825 2.608 1.087 1.109 1.934 2.412 2.586 3.934.63 1.521.956 3.194.956 5.02 0 1.825-.326 3.499-.956 5.042-.652 1.521-1.5 2.869-2.586 3.977-1.087 1.13-2.347 2-3.825 2.63-1.456.63-3.02.934-4.672.934-1.674 0-3.239-.304-4.716-.934-1.456-.63-2.739-1.5-3.804-2.63-1.086-1.108-1.934-2.456-2.564-3.977-.63-1.543-.934-3.217-.934-5.042zm-4.369 0c0 2.456.457 4.65 1.348 6.607.912 1.977 2.108 3.65 3.607 5.042a15.944 15.944 0 0 0 5.238 3.194 17.553 17.553 0 0 0 6.194 1.109c2.173 0 4.237-.37 6.215-1.109a15.944 15.944 0 0 0 5.238-3.194c1.5-1.391 2.694-3.065 3.607-5.042.891-1.956 1.326-4.151 1.326-6.607 0-2.412-.435-4.607-1.326-6.563-.913-1.978-2.108-3.651-3.607-5.02a15.944 15.944 0 0 0-5.238-3.195c-1.978-.76-4.042-1.13-6.215-1.13-2.152 0-4.216.37-6.194 1.13a15.944 15.944 0 0 0-5.238 3.195c-1.5 1.369-2.695 3.042-3.607 5.02-.891 1.956-1.348 4.15-1.348 6.563z" fill="#E04E39"/>
  </g>
</svg>
