<svg width="642" height="324" viewBox="0 0 642 324" xmlns="http://www.w3.org/2000/svg">
  <g fill="#FFFFFF" fill-rule="evenodd">
    <path d="M570.512 178.759s-12.609 9.781-23.708 8.69c-11.098-1.093-7.613-25.892-7.613-25.892s2.393-22.744-4.144-24.655c-6.52-1.895-14.568 5.927-14.568 5.927s-10.006 11.098-14.793 25.249l-1.317.433s1.526-24.815-.209-30.469c-1.3-2.827-13.267-2.602-15.226 2.393-1.96 5.012-11.532 39.818-12.191 54.402 0 0-18.712 15.885-35.015 18.487-16.318 2.618-20.237-7.614-20.237-7.614s44.378-12.4 42.852-47.864c-1.51-35.464-35.785-22.342-39.656-19.434-3.759 2.826-23.788 14.905-29.634 48.362-.193 1.124-.546 6.103-.546 6.103s-17.186 11.516-26.76 14.568c0 0 26.76-45.037-5.862-65.484-9.175-5.523-17.172-.441-21.929 4.224-2.921 2.865 39.549-43.591 29.751-85.159-4.658-19.788-14.552-21.908-23.627-18.696-13.78 5.429-19 13.476-19 13.476s-17.845 25.891-21.99 64.408c-4.127 38.5-10.214 85.063-10.214 85.063s-8.497 8.272-16.32 8.705c-7.837.418-4.352-23.29-4.352-23.29s6.087-36.106 5.67-42.21c-.45-6.087-.884-9.348-8.063-11.516-7.18-2.184-15.018 6.955-15.018 6.955s-20.655 31.32-22.39 36.107l-1.108 1.975-1.076-1.317s14.568-42.644.658-43.286c-13.925-.659-23.065 15.226-23.065 15.226s-15.885 26.55-16.543 29.586l-1.076-1.3s6.52-30.888 5.22-38.517c-1.317-7.613-8.481-6.087-8.481-6.087s-9.14-1.093-11.532 4.786c-2.394 5.879-11.099 44.812-12.191 57.212 0 0-22.84 16.319-37.858 16.528-15.002.224-13.476-9.509-13.476-9.509s55.044-18.84 40.026-56.04c-6.746-9.572-14.568-12.576-25.666-12.367-11.1.225-24.864 6.987-33.778 27-4.273 9.54-5.815 18.615-6.698 25.458 0 0-9.621 1.975-14.841-2.378-5.236-4.352-7.919 0-7.919 0s-8.962 11.436-.048 14.906c8.93 3.485 22.84 5.107 22.84 5.107 1.285 6.088 4.995 16.448 15.87 24.687 16.318 12.4 47.622-1.14 47.622-1.14l12.834-7.196s.433 11.774 9.797 13.492c9.348 1.719 13.267-.032 29.586-39.624 9.573-20.238 10.231-19.146 10.231-19.146 1.077-.225-6.312 38.5-3.485 48.94 2.827 10.457 15.227 9.364 15.227 9.364s6.746 1.301 12.19-17.844c5.43-19.146 15.886-40.251 15.886-40.251 1.285 0-3.277 39.592 3.678 52.217 6.97 12.624 25.024 4.24 25.024 4.24s12.625-6.36 14.584-8.32c0 0 14.97 12.753 36.09 10.44 47.222-9.3 64.023-21.86 64.023-21.86s8.111 20.56 33.248 22.47c28.702 2.169 44.379-15.884 44.379-15.884s-.225 11.74 9.781 15.885c10.023 4.128 16.753-19.114 16.753-19.114l16.752-46.161c1.526 0 2.393 30.019 18.937 34.805 16.528 4.787 38.066-11.21 38.066-11.21s5.22-2.876 4.353-11.581c-.883-8.706-8.705-5.461-8.705-5.461zm-435.756-21.78c5.862 5.654 3.694 17.829-7.405 25.442-11.082 7.63-16.094 6.103-16.094 6.103.659-25.891 17.636-37.215 23.499-31.545zM351.22 67.563c3.694 19.58-32.412 77.884-32.412 77.884.433-13.059 13.267-57.212 13.267-57.212s15.435-40.251 19.145-20.672zm-35.689 148.588s-2.827-9.573 5.22-36.332c8.063-26.76 26.984-16.319 26.984-16.319s13.058 10.007 2.827 36.765c-10.216 26.76-35.031 15.886-35.031 15.886zm110.087-52.426c8.915-16.319 15.885-7.405 15.885-7.405s7.614 8.272-1.092 20.672c-8.705 12.4-21.314 11.532-21.314 11.532s-2.393-8.496 6.521-24.799z"/>
    <path d="M520.22 224.327v-4.694h2.976c.413 0 .826.044 1.261.087.435.065.848.174 1.195.326.37.152.652.37.87.652.239.283.347.674.347 1.152 0 1.087-.326 1.782-.978 2.064-.652.283-1.5.413-2.52.413h-3.152zm-3.543-7.454v17.864h3.542v-7.628h2.217l4.346 7.628h3.717l-4.782-7.802a8.45 8.45 0 0 0 1.848-.39 4.312 4.312 0 0 0 1.478-.848c.434-.37.76-.848 1-1.435.26-.587.369-1.282.369-2.108 0-1.934-.609-3.303-1.804-4.086-1.217-.804-2.956-1.195-5.194-1.195h-6.737zm-5.672 8.954c0-1.826.304-3.499.934-5.02.63-1.522 1.478-2.825 2.564-3.934 1.065-1.108 2.348-1.977 3.804-2.608 1.477-.63 3.042-.934 4.716-.934 1.651 0 3.216.304 4.672.934 1.478.63 2.738 1.5 3.825 2.608 1.087 1.109 1.934 2.412 2.586 3.934.63 1.521.956 3.194.956 5.02 0 1.825-.326 3.499-.956 5.042-.652 1.521-1.5 2.869-2.586 3.977-1.087 1.13-2.347 2-3.825 2.63-1.456.63-3.02.934-4.672.934-1.674 0-3.239-.304-4.716-.934-1.456-.63-2.739-1.5-3.804-2.63-1.086-1.108-1.934-2.456-2.564-3.977-.63-1.543-.934-3.217-.934-5.042zm-4.369 0c0 2.456.457 4.65 1.348 6.607.912 1.977 2.108 3.65 3.607 5.042a15.944 15.944 0 0 0 5.238 3.194 17.553 17.553 0 0 0 6.194 1.109c2.173 0 4.237-.37 6.215-1.109a15.944 15.944 0 0 0 5.238-3.194c1.5-1.391 2.694-3.065 3.607-5.042.891-1.956 1.326-4.151 1.326-6.607 0-2.412-.435-4.607-1.326-6.563-.913-1.978-2.108-3.651-3.607-5.02a15.944 15.944 0 0 0-5.238-3.195c-1.978-.76-4.042-1.13-6.215-1.13-2.152 0-4.216.37-6.194 1.13a15.944 15.944 0 0 0-5.238 3.195c-1.5 1.369-2.695 3.042-3.607 5.02-.891 1.956-1.348 4.15-1.348 6.563z"/>
  </g>
</svg>
