<svg xmlns="http://www.w3.org/2000/svg" width="93" height="56" viewBox="0 0 93 56">
  <g fill="none" fill-rule="evenodd">
    <polygon fill="#E15D44" points="55.919 0 0 21.824 2.168 43.933 64.316 55.955 92.142 42.358 86.953 24.15"/>
    <path fill="#F0F6F8" d="M68.2174119,42.3678777 L85.1728746,42.3678777 L68.2174119,46.1024822 L68.2174119,42.3678777 Z M42.6395521,42.3678777 L42.6395521,46.1924984 L25.275817,42.3678777 L42.6395521,42.3678777 Z M49.9720303,43.6514827 C49.9259557,43.895081 49.7843189,44.0367178 49.5466932,44.0759665 L49.0228077,44.0759665 C48.7719569,44.0503695 48.6307467,43.9112924 48.5978972,43.6608683 L48.5978972,43.2662476 C48.551396,42.771372 48.2813475,42.494071 47.7868985,42.4351979 C47.2664258,42.494071 46.9827256,42.771372 46.936651,43.2662476 L46.936651,46.4389976 C46.9827256,46.9534976 47.2664258,47.233785 47.7868985,47.2802862 C48.2813475,47.233785 48.551396,46.9534976 48.5978972,46.4389976 L48.5978972,46.0145138 C48.6307467,45.7640897 48.7792094,45.6258658 49.0428587,45.5985623 L49.5274955,45.5985623 C49.777493,45.6322651 49.9259557,45.7704889 49.9720303,46.0145138 L49.9720303,46.4389976 C49.8201547,47.7576705 49.0919196,48.47652 47.7868985,48.5946929 C46.4554271,48.4893185 45.7365776,47.770469 45.6312032,46.4389976 L45.6312032,43.2355312 C45.7306049,41.9040598 46.4490278,41.1698521 47.7868985,41.030775 C49.1055714,41.1698521 49.8338064,41.9040598 49.9720303,43.2355312 L49.9720303,43.6514827 Z M55.2737267,43.2165894 L55.2737267,46.4392536 C55.1355028,47.7574999 54.4068411,48.4763494 53.0881682,48.5945223 C51.7703486,48.4695235 51.0485128,47.7515272 50.9230874,46.4392536 L50.9230874,43.2165894 C51.0352876,41.8910907 51.7571235,41.1628556 53.0881682,41.031031 C54.413667,41.1628556 55.1419021,41.8910907 55.2737267,43.2165894 Z M53.9388424,43.2558382 C53.8855153,42.7413382 53.6026682,42.4610509 53.0881682,42.4149762 C52.5745215,42.4678767 52.2942342,42.7481641 52.2481595,43.2558382 L52.2481595,46.4486392 C52.2942342,46.9631392 52.5745215,47.2374539 53.0881682,47.27073 C53.6026682,47.2374539 53.8855153,46.9631392 53.9388424,46.4486392 L53.9388424,43.2558382 Z M60.5970526,48.1596716 C60.5906533,48.390898 60.4720538,48.5060846 60.2412541,48.5060846 L60.1819543,48.5060846 L60.1030302,48.5060846 L59.7075563,48.5060846 L59.6678809,48.5060846 L59.6090078,48.5060846 C59.3381061,48.5193097 59.1503946,48.4041231 59.0445936,48.1596716 C58.5505712,46.9997003 58.0629481,45.8397289 57.5817242,44.6793309 L57.5817242,47.3789627 L57.5817242,48.0909863 C57.555274,48.3473831 57.4170501,48.4860336 57.1661993,48.5060846 L56.6619381,48.5060846 C56.4247391,48.4860336 56.2929145,48.3606082 56.2664643,48.1302351 L56.2664643,41.4361891 L56.2664643,41.3875547 C56.2796894,41.1887512 56.3918896,41.1000149 56.6026384,41.1200659 L56.7408623,41.1200659 L57.1269506,41.1200659 L57.2259257,41.1200659 C57.489575,41.1000149 57.6841123,41.2160547 57.809111,41.4656256 C58.283509,42.6465012 58.7681459,43.8192711 59.2621682,44.986495 L59.2621682,41.5355908 C59.2890451,41.2915659 59.427269,41.153342 59.6781197,41.1200659 L60.1921931,41.1200659 C60.4225663,41.1392637 60.5607901,41.2646891 60.6068648,41.4959154 L60.6068648,43.3440199 L60.6068648,46.3401505 C60.6008921,46.9335746 60.5970526,47.5235858 60.5970526,48.1101841 L60.5970526,48.1596716 Z M65.5181214,41.1096565 C65.7617196,41.1501851 65.9033564,41.2918219 65.9434584,41.5354202 L65.9434584,42.0494935 C65.9033564,42.3131428 65.7587333,42.4517933 65.5083092,42.4645918 L63.1550903,42.4645918 C63.0232656,42.4773903 62.9503141,42.5507684 62.937089,42.6821664 L62.937089,43.957751 C62.9503141,44.0895756 63.0232656,44.1582609 63.1550903,44.1659401 L64.6482495,44.1659401 C64.8914211,44.1987896 65.0275119,44.3336005 65.0535355,44.5699463 L65.0535355,45.1044973 C65.0275119,45.3621739 64.8884348,45.4935719 64.6380107,45.5003978 L63.1550903,45.5003978 C63.0232656,45.5195955 62.9503141,45.5963866 62.937089,45.7277846 L62.937089,46.8246167 L62.937089,48.1100134 C62.9178913,48.3604376 62.7826537,48.4999413 62.5318029,48.5259649 L62.0275418,48.5259649 C61.7907694,48.5131664 61.6585181,48.3907274 61.6324945,48.159501 L61.6324945,46.8246167 L61.6324945,46.6970582 L61.6324945,41.9901938 L61.6324945,41.5260346 C61.6384671,41.2952348 61.7540803,41.1557311 61.9784808,41.1096565 L65.5181214,41.1096565 Z M79.492244,29.8431225 C79.492244,29.8431225 80.5693358,29.3963616 80.6909787,30.5950962 C80.8104098,31.7938309 80.0916113,32.1897229 80.0916113,32.1897229 C80.0916113,32.1897229 77.1257384,34.3925637 74.8499119,33.7334808 C72.5718738,33.0743979 72.4524427,28.940754 72.4524427,28.940754 L72.2423324,28.940754 L69.9355423,35.2971439 C69.9355423,35.2971439 69.0088452,38.4974557 67.6287522,37.929052 C66.2508709,37.3584366 66.2818345,35.7416931 66.2818345,35.7416931 C66.2818345,35.7416931 64.1232275,38.2276298 60.170942,37.929052 C56.709651,37.6658612 55.5927488,34.8349012 55.5927488,34.8349012 C55.5927488,34.8349012 53.2793237,36.5644408 46.7769624,37.8450079 C43.8685933,38.1634909 41.8073006,36.407411 41.8073006,36.407411 C41.5374747,36.6772369 39.7990883,37.5530651 39.7990883,37.5530651 C39.7990883,37.5530651 37.3131516,38.707566 36.3532792,36.9691796 C35.3956185,35.2307932 36.0237377,29.7789835 36.0237377,29.7789835 L35.8468027,29.7789835 C35.8468027,29.7789835 34.4069942,32.6851409 33.6594438,35.3214724 C32.9096817,37.9578039 31.980773,37.7786573 31.980773,37.7786573 C31.980773,37.7786573 30.2733502,37.929052 29.8840932,36.4892434 C29.4948362,35.0516466 30.5122125,29.719268 30.5122125,29.719268 L30.3640294,29.7502316 C30.3640294,29.7502316 30.2733502,29.5998369 28.9551845,32.3865631 C26.70811,37.8383728 26.1684582,38.0794468 24.8812561,37.8427962 C23.5918423,37.6061456 23.5321267,35.9849787 23.5321267,35.9849787 L21.7649884,36.9758147 C21.7649884,36.9758147 17.4544094,38.8402673 15.2073349,37.1328445 C13.7100225,35.9982488 13.1991227,34.5717104 13.0221877,33.7334808 C13.0221877,33.7334808 11.1068663,33.5101004 9.87716801,33.0301642 C8.64968145,32.5524397 9.88380308,30.9777182 9.88380308,30.9777182 C9.88380308,30.9777182 10.2531549,30.3783509 10.974165,30.9777182 C11.6929635,31.5770855 13.0177643,31.3050479 13.0177643,31.3050479 C13.1394071,30.362869 13.3517291,29.1132656 13.940038,27.7995232 C15.1675245,25.0437606 17.0629407,24.1126401 18.5912168,24.0816765 C20.1194929,24.0529246 21.1965847,24.4665101 22.1254934,25.7846759 C24.1934213,30.9069442 16.6139682,33.5012536 16.6139682,33.5012536 C16.6139682,33.5012536 16.4038579,34.8415362 18.469574,34.8105726 C20.5375018,34.7818207 23.6825214,32.5347462 23.6825214,32.5347462 C23.8329162,30.8273234 25.0316508,25.4661929 25.3611923,24.6567153 C25.6907337,23.8472376 26.9491839,23.9976324 26.9491839,23.9976324 C26.9491839,23.9976324 27.9355965,23.7875221 28.1169549,24.835862 C28.2961016,25.8864135 27.3981565,30.1394886 27.3981565,30.1394886 L27.5463395,30.3186353 C27.6370187,29.9006264 29.8243777,26.2447069 29.8243777,26.2447069 C29.8243777,26.2447069 31.0828278,24.057348 33.0003609,24.1480271 C34.9156823,24.2364946 32.9096817,30.108525 32.9096817,30.108525 L33.0578648,30.2898834 L33.2104712,30.0178458 C33.4493335,29.3587629 36.2935636,25.0459723 36.2935636,25.0459723 C36.2935636,25.0459723 37.3728671,23.7875221 38.3614914,24.0883116 C39.3501158,24.3868894 39.4098313,24.835862 39.4717586,25.6740915 C39.5292624,26.5145328 38.6910329,31.4864063 38.6910329,31.4864063 C38.6910329,31.4864063 38.2110967,34.7508571 39.2904002,34.6933532 C40.367492,34.6336376 41.5374747,33.4946186 41.5374747,33.4946186 C41.5374747,33.4946186 42.3757043,27.0829365 42.944108,21.7815215 C43.5147233,16.4778949 45.9719082,12.9126546 45.9719082,12.9126546 C45.9719082,12.9126546 46.6907066,11.8045992 48.5883345,11.0570488 C49.8379379,10.6147113 51.2003374,10.906654 51.8417268,13.631453 C52.7956049,17.6783981 50.0732006,22.2524049 48.3350065,24.5786129 C48.0829829,24.9158935 47.7139411,25.496997 47.7723913,25.5343373 C47.8308414,25.5716776 49.2960745,23.8495995 50.764635,24.7761464 C55.2565723,27.5916246 51.5719009,33.7931964 51.5719009,33.7931964 C52.8900667,33.3729757 55.2565723,31.7871958 55.2565723,31.7871958 C55.2565723,31.7871958 55.3052294,31.1015727 55.3317697,30.9467545 C56.1368239,26.3398095 58.8947983,24.6766205 59.4123331,24.2873635 C59.9453498,23.887048 64.665091,22.0800993 64.8729896,26.9635053 C65.0830999,31.8469114 58.9722073,33.5543341 58.9722073,33.5543341 C58.9722073,33.5543341 59.5118591,34.9631791 61.7589336,34.602674 C64.0037964,34.2443806 66.5804124,32.0570217 66.5804124,32.0570217 C66.6710915,30.0488094 67.9892573,25.2560826 68.2590832,24.5660361 C68.5289091,23.8782013 70.1766162,23.8472376 70.3557629,24.2364946 C70.5946252,25.0150086 70.3845149,28.4320658 70.3845149,28.4320658 L70.5658732,28.3723503 C71.2249561,26.4238536 72.6028374,24.8955775 72.6028374,24.8955775 C72.6028374,24.8955775 73.7108929,23.8184857 74.608838,24.0794648 C75.5089948,24.3426556 75.1794534,27.4744052 75.1794534,27.4744052 C75.1794534,27.4744052 74.6995172,30.8892507 76.2277933,31.0396454 C77.7560693,31.1900402 79.492244,29.8431225 79.492244,29.8431225 Z M19.4891619,26.8440742 C18.681896,26.0633485 16.3441423,27.6225882 16.2534631,31.1878285 C16.2534631,31.1878285 16.9435096,31.3979388 18.469574,30.3473872 C19.9978501,29.2990474 20.2964279,27.6225882 19.4891619,26.8440742 Z M49.2960745,14.5316099 C48.7851747,11.8355628 46.659743,17.3780517 46.659743,17.3780517 C46.659743,17.3780517 44.8926046,23.4579806 44.8328891,25.2560826 C44.8328891,25.2560826 49.8047626,17.2276569 49.2960745,14.5316099 Z M44.3817048,34.991931 C44.3817048,34.991931 47.798762,36.4892434 49.2053953,32.8045721 C50.6142402,29.1199007 48.8161383,27.7420193 48.8161383,27.7420193 C48.8161383,27.7420193 46.2107704,26.3044225 45.1005033,29.9890939 C43.9924478,33.6737652 44.3817048,34.991931 44.3817048,34.991931 Z M59.540611,27.772983 C58.3131244,30.0178458 58.6426659,31.1878285 58.6426659,31.1878285 C58.6426659,31.1878285 60.3788406,31.3072596 61.5775752,29.5998369 C62.7763098,27.8924141 61.72797,26.753395 61.72797,26.753395 C61.72797,26.753395 60.7680976,25.5259085 59.540611,27.772983 Z M39.8749465,16.5900626 L39.8749465,19.078519 C39.7725584,20.1045327 39.2085709,20.6608412 38.1825572,20.747871 C37.1514241,20.6557218 36.5899962,20.0994133 36.4982736,19.078519 L36.4982736,16.5900626 C36.5899962,15.5640489 37.1514241,14.9975016 38.1825572,14.8904208 C39.2085709,14.9975016 39.7725584,15.5640489 39.8749465,16.5900626 Z M38.8412537,16.6361372 C38.8002985,16.2329842 38.5810174,16.0107168 38.1825572,15.9697616 C37.7794042,16.0158362 37.5596965,16.237677 37.5242873,16.6361372 L37.5242873,19.0861981 C37.5648159,19.4842317 37.7845236,19.7013797 38.1825572,19.7367889 C38.5810174,19.7013797 38.8002985,19.4842317 38.8412537,19.0861981 L38.8412537,16.6361372 Z M35.5724722,19.6682316 C35.7610369,19.6938286 35.8736638,19.7957901 35.9094996,19.9745425 L35.9094996,20.3725761 C35.8736638,20.5666868 35.7589038,20.6737677 35.5647931,20.6942453 L32.8694274,20.6942453 C32.6753168,20.6737677 32.5682359,20.5666868 32.5481849,20.3725761 L32.5481849,19.9745425 C32.5481849,19.9182291 32.5631165,19.8670351 32.5938329,19.8213871 C33.3544909,18.861499 34.0946712,17.8738809 34.814374,16.858106 C34.814374,16.7459057 34.8169337,16.6362652 34.8220531,16.5287577 C34.7456886,16.1819182 34.53366,15.9954866 34.1863939,15.9698896 C33.7832409,16.0057254 33.5660929,16.2254331 33.5358031,16.6285861 L33.5358031,16.9195388 C33.5102061,17.1132229 33.4005655,17.2207304 33.2064548,17.241208 L32.8161003,17.241208 C32.6168702,17.2151843 32.5149088,17.1059704 32.5097894,16.9118597 L32.5097894,16.5901906 C32.5912732,15.5590575 33.1501414,14.9925102 34.1863939,14.8901221 C35.2124075,14.9976296 35.7738354,15.5641769 35.8711041,16.5901906 C35.8659847,16.7331072 35.8557459,16.8734642 35.8403876,17.0112614 C35.768716,17.2053721 35.6667546,17.3785786 35.5340767,17.5317341 C35.0187235,18.2463174 34.4978242,18.9587677 33.9722322,19.6682316 L35.5724722,19.6682316 Z M31.921058,16.5900626 L31.921058,19.078519 C31.81867,20.1045327 31.2546824,20.6608412 30.2286687,20.747871 C29.1975357,20.6557218 28.6361078,20.0994133 28.5443852,19.078519 L28.5443852,16.5900626 C28.6361078,15.5640489 29.1975357,14.9975016 30.2286687,14.8904208 C31.2546824,14.9975016 31.81867,15.5640489 31.921058,16.5900626 Z M30.8873653,16.6361372 C30.84641,16.2329842 30.6271289,16.0107168 30.2286687,15.9697616 C29.8255158,16.0158362 29.605808,16.237677 29.5703988,16.6361372 L29.5703988,19.0861981 C29.6109274,19.4842317 29.8306352,19.7013797 30.2286687,19.7367889 C30.6271289,19.7013797 30.84641,19.4842317 30.8873653,19.0861981 L30.8873653,16.6361372 Z M27.6187971,19.6682316 C27.8073618,19.6938286 27.919562,19.7957901 27.9553978,19.9745425 L27.9553978,20.3725761 C27.919562,20.5666868 27.8052287,20.6737677 27.6106914,20.6942453 L24.9157523,20.6942453 C24.7216416,20.6737677 24.6145608,20.5666868 24.5940832,20.3725761 L24.5940832,19.9745425 C24.5940832,19.9182291 24.6094414,19.8670351 24.6401578,19.8213871 C25.4008158,18.861499 26.1409961,17.8738809 26.8606988,16.858106 C26.8606988,16.7459057 26.8632585,16.6362652 26.8679513,16.5287577 C26.7920135,16.1819182 26.5795583,15.9954866 26.2327187,15.9698896 C25.8295658,16.0057254 25.6124177,16.2254331 25.5821279,16.6285861 L25.5821279,16.9195388 C25.5561043,17.1132229 25.4464638,17.2207304 25.2527797,17.241208 L24.8619986,17.241208 C24.6627685,17.2151843 24.5608071,17.1059704 24.5556876,16.9118597 L24.5556876,16.5901906 C24.6375981,15.5590575 25.1964663,14.9925102 26.2327187,14.8901221 C27.2587324,14.9976296 27.8201603,15.5641769 27.9170023,16.5901906 C27.9118829,16.7331072 27.9020707,16.8734642 27.8867125,17.0112614 C27.8150409,17.2053721 27.7130794,17.3785786 27.5804016,17.5317341 C27.0646217,18.2463174 26.5437225,18.9587677 26.0181304,19.6682316 L27.6187971,19.6682316 Z"/>
  </g>
</svg>
