<svg xmlns="http://www.w3.org/2000/svg" viewBox="0 0 283.47 453.3"><defs><style>.cls-1{isolation:isolate;}.cls-2{fill:#ba8449;}.cls-3{fill:#895b2e;}.cls-33,.cls-4{opacity:0.25;}.cls-23,.cls-24,.cls-31,.cls-4,.cls-8,.cls-9{mix-blend-mode:multiply;}.cls-5{fill:#c7893e;}.cls-6{fill:#ffb4ab;}.cls-7{fill:#ff8189;}.cls-20,.cls-8{opacity:0.5;}.cls-9{opacity:0.15;}.cls-10,.cls-34{fill:#4d4d4d;}.cls-11{fill:#333;}.cls-12{fill:#666;}.cls-13{fill:#fff8ee;}.cls-14{fill:none;stroke-linecap:round;stroke-linejoin:round;stroke-width:11.79px;}.cls-14,.cls-34{stroke:#333;}.cls-15{fill:#e24530;}.cls-16{fill:#e24c32;}.cls-17{fill:#5b3632;}.cls-18{fill:#351d1a;}.cls-19{fill:#513933;}.cls-20,.cls-33{mix-blend-mode:screen;}.cls-21{fill:#b6b8dd;}.cls-22{fill:#8b85ca;}.cls-24{opacity:0.4;}.cls-25{fill:#e5d0ae;}.cls-26{fill:#f7e8d0;}.cls-27{fill:#fff7e3;}.cls-28{fill:#fdcf85;}.cls-29{fill:#1a1a1a;}.cls-30{fill:#fff;}.cls-31{opacity:0.3;}.cls-32{fill:#d0dddc;}.cls-34{stroke-miterlimit:10;stroke-width:3px;}.cls-35{fill:#e2c675;}</style></defs><title>Ember Sister Pin Final</title><g class="cls-1"><g id="Zoey"><g id="Body"><g id="Arm"><path class="cls-2" d="M520.06,353.05c-12.74,8.47-30.13,1.65-34-3.33-3.28-4.2-19.91,15.13-17.26,18s30.77,35.31,36.75,35.14C538.73,402,526.62,348.68,520.06,353.05Z" transform="translate(-443.56 -125.5)"/><path class="cls-3" d="M505.5,404.45c-2.88,0-9.68-4-36.21-33.8l-1.66-1.86c-.8-.86-.91-2.15-.34-3.81,1.79-5.24,11.46-16.49,16.72-17.37a3.23,3.23,0,0,1,3.28,1.14c3.58,4.6,20.19,10.78,31.89,3h0a3.1,3.1,0,0,1,3.76.24c4.84,3.65,8.8,22.38,4.48,35.87-3.37,10.56-10.92,16.29-21.84,16.59ZM470.07,366.8c.32.35.86,1,1.58,1.81,27,30.3,32.69,32.78,33.82,32.78h0c8.32,0,18.62-4.23,20.42-21.78,1.36-13.28-3.22-24.53-5-25.2-13.63,9-31.75,1.86-36.09-3.71-.25-.07-1.71.22-4.64,2.72C474.82,358,470,365,470.07,366.8Zm50-13.75.87,1.31h0Z" transform="translate(-443.56 -125.5)"/><g class="cls-4"><path class="cls-5" d="M471.4,369.73c8,3.66,19-10.67,19.67-16-1-1.67-7.67-3.34-7.67-3.34l-15.09,16.3Z" transform="translate(-443.56 -125.5)"/></g><path class="cls-6" d="M492.35,337.05c3.75,9.14-11.51,26.91-24,29.64-10.58,2.3-23.49.34-23.25-5.85s12.11-2,11.93-6.24-14.75-8.53-11-15.22c3.43-6.18,12.16,5.39,17.28,2.13s-4.74-14.26,1.92-16.69c7.91-2.89,9.43,16,15.61,14.79C485.22,338.75,491.13,334.07,492.35,337.05Z" transform="translate(-443.56 -125.5)"/><path class="cls-7" d="M459.43,369.13c-5.41,0-10.62-1-13.57-3.51a5.9,5.9,0,0,1-2.3-4.83c.19-4.81,5.11-5.16,8.37-5.39,1.13-.09,3.23-.24,3.56-.64v-.1c0-1-2.56-2.79-4.4-4.11-3.94-2.84-9.33-6.71-6.45-11.9,2.56-4.6,7.28-2.09,10.73-.25,2.67,1.42,5.42,2.88,7.05,1.84,1.37-.87.84-3.11-.11-6.44-1.05-3.64-2.49-8.63,2.32-10.39,5.54-2,8.47,3.82,10.83,8.52,1.61,3.21,3.27,6.55,5,6.21a23.76,23.76,0,0,0,4.81-1.8c2.69-1.21,5-2.25,6.81-1.54a3,3,0,0,1,1.65,1.68h0c1.34,3.27.72,7.53-1.79,12.3-4.17,7.94-14,17.35-23.32,19.38A44.27,44.27,0,0,1,459.43,369.13ZM448.9,339a1.78,1.78,0,0,0-1.64,1.07c-1.47,2.66,1.26,4.9,5.58,8,3,2.14,5.55,4,5.65,6.43.14,3.38-3.61,3.65-6.35,3.85-3.88.27-5.51.69-5.58,2.51a2.93,2.93,0,0,0,1.23,2.42c3.35,2.81,12.22,3.64,20.21,1.9,7.55-1.64,16.91-9.48,21.3-17.83,2.05-3.91,2.64-7.38,1.67-9.77l0-.06c-.57-.22-3,.87-4.43,1.52a26.09,26.09,0,0,1-5.47,2c-4,.77-6.14-3.59-8.26-7.81-2.47-4.92-4.3-8.07-7.12-7-1.86.68-1.75,2.28-.47,6.74,1,3.41,2.2,7.66-1.15,9.8-3.11,2-6.81,0-10.08-1.72C451.48,339.72,449.94,339,448.9,339Z" transform="translate(-443.56 -125.5)"/><g class="cls-8"><path class="cls-6" d="M487.16,338.31c-1.64,2-8.24,5.81-10.08,3.49s-4.15-7.19-3.5-8.17c1.16,2.28,3.09,6.66,6,7C481.87,340.91,485.8,338.9,487.16,338.31Z" transform="translate(-443.56 -125.5)"/></g><g class="cls-8"><path class="cls-6" d="M464.77,333.15c.78,1.58,4.07,9.19.33,11.31-3.32,1.87-6.43.36-10.33-3.48,1.85,1.07,6.48,3.39,9.2,1.33C466.46,340.43,466,337.15,464.77,333.15Z" transform="translate(-443.56 -125.5)"/></g><g class="cls-4"><path class="cls-6" d="M488,350.07c-23.38-4.91-23.45,12.7-21.58,15.83C474.94,365.29,487.44,353.1,488,350.07Z" transform="translate(-443.56 -125.5)"/></g><g class="cls-8"><path class="cls-6" d="M456,351.17c4.6,3.1,3.58,6.74,1.44,7.72-2.86,1.3-7.24-.71-6.78-.86.81-.27,6.94.3,7.31-2.79C458.29,352.92,456.68,352,456,351.17Z" transform="translate(-443.56 -125.5)"/></g><g class="cls-4"><path class="cls-5" d="M488.73,389.73c12.34,5,13-32,13-33.34,8.67.67,6,33.67,4,39s-8.33,2.67-8.33,2.67Z" transform="translate(-443.56 -125.5)"/></g></g><g id="Body-2" data-name="Body"><path class="cls-2" d="M669.9,342.89c27,18.31,69,30.05,46.73,59.94-15.17,20.36-33.38-2.46-42.77-6.29S662.68,338,669.9,342.89Z" transform="translate(-443.56 -125.5)"/><path class="cls-3" d="M702.51,412.75c-8,0-15.72-5.61-21.64-9.89a44.93,44.93,0,0,0-7.6-4.86c-6.77-2.76-8.66-23.33-9.08-29.56-.27-4-1.37-24.29,3.46-27.06a2.87,2.87,0,0,1,3.13.21h0c5.79,3.92,12.37,7.59,18.73,11.13,16.39,9.15,31.87,17.78,34.58,30.46,1.37,6.42-.65,13.15-6.19,20.59C713,410.39,707.69,412.75,702.51,412.75Zm-33.43-68.51c-1.64,1.76-2.94,13.83-1.28,29.28,1.46,13.61,4.4,20.64,6.66,21.56s5.1,2.95,8.26,5.23c9.79,7.08,22,15.9,32.65,1.58,5-6.67,6.81-12.57,5.64-18.05-2.41-11.28-17.29-19.58-33-28.36C681.58,351.91,675,348.22,669.08,344.24Z" transform="translate(-443.56 -125.5)"/><path class="cls-2" d="M718.35,441.59c-2.83-25.38-48.61-102.82-55.71-117.78-3.35-7-27.49-11.9-55-14.35a9.53,9.53,0,0,0-4.54-.85l-3.26.22-3.26-.22a9.53,9.53,0,0,0-4.54.85c-27.54,2.45-53.33,6.74-55,14.35-6.27,28.25-52.88,92.4-55.71,117.78-3.83,34.27,3.82,79.77,30.58,99.08,5.58,4,28.58,8,39.32,4.29,6.48-12.9,90.48-13.11,97-.33,3.12,6.08,33.95.07,39.53-4C714.53,521.36,722.17,475.86,718.35,441.59Z" transform="translate(-443.56 -125.5)"/><path class="cls-3" d="M657.44,548.8a26.94,26.94,0,0,1-6.15-.59c-2.26-.54-3.76-1.5-4.46-2.86-2.62-5.1-22.61-8.74-47.49-8.61-24.54.11-44.2,3.86-46.74,8.92l-.29.58-.61.21c-11,3.77-34.72-.15-40.75-4.5-12.54-9.05-22-24.55-27.36-44.81a155.63,155.63,0,0,1-3.87-55.73c1.51-13.55,14.58-36.77,28.42-61.36,12-21.28,24.37-43.3,27.32-56.58,1-4.62,8-11.26,56.17-15.56a11.27,11.27,0,0,1,5-.87l3.16.21L603,307a11.3,11.3,0,0,1,5,.87c44.36,4,54.16,11.24,56,15.22,1.67,3.52,5.56,10.63,10.48,19.64,16.15,29.54,43.18,79,45.38,98.64a155.85,155.85,0,0,1-3.87,55.73c-5.36,20.26-14.82,35.76-27.37,44.81C684.49,545,668.33,548.8,657.44,548.8Zm-57-15.22a186.45,186.45,0,0,1,31,2.32c10.33,1.82,16.49,4.51,18.28,8,.12.23.59.81,2.4,1.24,8.44,2,30.33-2.52,34.81-5.75,26-18.75,33.73-63.75,29.94-97.64h0c-2.12-19-29-68.14-45-97.48-4.95-9-8.86-16.2-10.57-19.8-2.65-5.59-23.24-10.74-53.73-13.45l-.26,0-.24-.1a7.87,7.87,0,0,0-3.8-.71c-1.09.06-2.17.14-3.25.21h-.22c-1.08-.07-2.16-.15-3.25-.21a7.83,7.83,0,0,0-3.8.71l-.24.1-.26,0c-46.69,4.15-53,10.56-53.62,13.12-3,13.74-15.56,36-27.65,57.45-13.08,23.23-26.6,47.25-28,60.16-3.78,33.89,4,78.89,29.95,97.64,4.82,3.48,26.48,7.58,37.34,4.24,2.12-3.2,8-5.73,17.6-7.5a186.59,186.59,0,0,1,31.59-2.55Z" transform="translate(-443.56 -125.5)"/><g class="cls-4"><path class="cls-5" d="M709.4,366.06c-1.33,1.33-8,11-8,13.67s6,15,7.67,17.33c.58.81,8.33,2.33,12.33-2.33-2.67,7-11,13.66-13,16s-24.33-37.34-24.33-37.34l17.33-13,8,5.67" transform="translate(-443.56 -125.5)"/></g><path class="cls-2" d="M481.23,476.73c.5,38.83,35.84,68.5,34.67,86-.15,2.23,31.17.5,31.17.5.63-9.19,3.12-17.4,9.16-22.34" transform="translate(-443.56 -125.5)"/><path class="cls-3" d="M527.41,565.47c-7.4,0-11.6-.47-12.54-1.42a1.84,1.84,0,0,1-.54-1.43c.45-6.78-5.39-16.17-12.15-27-9.9-15.92-22.23-35.74-22.52-58.83l3.15,0c.28,22.22,12.35,41.62,22,57.2,7,11.32,12.66,20.36,12.65,28,3.25.68,16.11.49,28.11-.13.92-10.3,4.08-17.52,9.63-22.06l2,2.44c-5.08,4.16-7.89,11.1-8.59,21.22l-.1,1.39-1.39.08Q535,565.48,527.41,565.47Z" transform="translate(-443.56 -125.5)"/><path class="cls-2" d="M717.9,477.39c-.5,38.84-34.5,67.84-33.33,85.34.14,2.23-31.17.5-31.17.5-.64-9.19-3.13-17.4-9.17-22.34" transform="translate(-443.56 -125.5)"/><path class="cls-3" d="M673.06,565.47q-7.62,0-19.75-.67l-1.39-.08-.09-1.39c-.7-10.12-3.51-17.06-8.59-21.22l2-2.44c5.54,4.54,8.7,11.76,9.63,22.06,12,.62,24.85.81,28.1.13,0-7.58,5.39-16.52,12.16-27.71,9.32-15.4,20.92-34.56,21.2-56.78l3.15,0c-.29,23.08-12.14,42.64-21.65,58.37-6.51,10.75-12.14,20-11.68,26.84a1.85,1.85,0,0,1-.55,1.43C684.66,565,680.46,565.47,673.06,565.47Z" transform="translate(-443.56 -125.5)"/><g class="cls-4"><path class="cls-5" d="M480.4,480.73c23,34,236,7.33,231,22.66,3.33-6,6.33-14,6-19.33C713.07,481.06,481.07,476.39,480.4,480.73Z" transform="translate(-443.56 -125.5)"/></g><g class="cls-4"><path class="cls-5" d="M704.4,521.06c-19.33,6.33-23,29.33-23,29.33s-27.33,1-27.67,4.34,31.67,3.66,31.67,3.66S694.73,537.06,704.4,521.06Z" transform="translate(-443.56 -125.5)"/></g><g class="cls-9"><path class="cls-5" d="M511.4,545.06c-.76-1.52,5.67,6,5.67,6s10.66-2.33,27-.67c2.59.27,7.33-6,9.66-8.66s-7.33,14.66-7,19-31,0-31.33-1S512.4,547.06,511.4,545.06Z" transform="translate(-443.56 -125.5)"/></g><g class="cls-4"><path class="cls-5" d="M551.78,543.08c13.32-49.82,99.11-35.43,98,1.65-5.79-8.11-38.57-10-49-9.67C592,535.3,563.94,532.36,551.78,543.08Z" transform="translate(-443.56 -125.5)"/></g></g><g id="Shirt"><path class="cls-10" d="M498.73,398.06c.64,1.91,31.84-1.58,33.34-.33s-5.17-49.09-5.17-50.09c-10.83-2.25-19.5,8.75-24.83,4.09C507.4,361.73,507,395.06,498.73,398.06Z" transform="translate(-443.56 -125.5)"/><path class="cls-11" d="M503,400.14c-4.55,0-5.31-.52-5.67-1.61a1.5,1.5,0,0,1,.91-1.88c1.16-.42,2.32-2,3.25-4.43,3.77-9.82,3.36-32.13-.73-39.79a1.5,1.5,0,0,1,2.31-1.83c1.85,1.61,4.39.59,8.73-1.37s9.52-4.28,15.42-3.06a1.51,1.51,0,0,1,1.2,1.47c0,.32.42,3.55.89,7.28,5.36,43.16,4.91,43.41,3.57,44.14a1.62,1.62,0,0,1-1.5,0c-1.33-.31-8.31.11-13.93.45C510.43,399.92,505.91,400.14,503,400.14Zm-.77-3c3.69,0,10.27-.36,15-.64,7.7-.47,11.52-.64,13.55-.52-.19-6.23-3.26-30.87-4.48-40.7-.43-3.45-.66-5.32-.78-6.35-4.55-.56-8.77,1.34-12.52,3-2.91,1.31-5.71,2.58-8.25,2.42,3.23,10.14,3.2,29.29-.48,38.9A15.11,15.11,0,0,1,502.21,397.15Z" transform="translate(-443.56 -125.5)"/><path class="cls-10" d="M676.73,345.73c17-3.34,28.67,15,36.34,14-17.34,5.66-23.91,21.44-37.34,30l-10.66-45.67Z" transform="translate(-443.56 -125.5)"/><path class="cls-11" d="M675.73,391.23a1.38,1.38,0,0,1-.56-.12,1.49,1.49,0,0,1-.9-1L663.61,344.4a1.48,1.48,0,0,1,.35-1.35,1.52,1.52,0,0,1,1.32-.48l11.42,1.64c10.83-2,19.39,4.1,26.27,9,4,2.86,7.49,5.34,9.9,5a1.5,1.5,0,0,1,.66,2.91c-10,3.27-16.44,10.2-22.68,16.9-4.3,4.62-8.75,9.4-14.31,12.94A1.5,1.5,0,0,1,675.73,391.23ZM667,345.85l9.67,41.41c4.42-3.16,8.09-7.11,11.95-11.26,5.54-5.95,11.24-12.07,19.45-15.92a51.71,51.71,0,0,1-6.87-4.42C694.76,351,686.7,345.3,677,347.2a1.67,1.67,0,0,1-.5,0Z" transform="translate(-443.56 -125.5)"/><g class="cls-4"><path class="cls-12" d="M513.4,349.39c-.84,12.63.67,18.67-7.33,28.34-1.69-2.11,2.36,22.07,7,23.33s16.72-52.88,17.56-54.56S522.18,347.25,513.4,349.39Z" transform="translate(-443.56 -125.5)"/></g><path class="cls-10" d="M525.18,346.88c-12.11,39.18-56.45,78.18-48.11,131.18,36.33,30.67,215.66-2.33,243,9.67,12.66-66.34-32.67-103-43.14-144.73-.38-1.53-15.49-2.18-36.57-2.14,2.26,27.69-41.63,51.2-41.63,51.2s-35.25-13.66-35-49.12C541.79,344.05,525.59,345.53,525.18,346.88Z" transform="translate(-443.56 -125.5)"/><path class="cls-11" d="M552.23,493c-34.13,0-63.51-3.14-76.13-13.79a1.53,1.53,0,0,1-.52-.92c-5.53-35.17,12.1-64.8,27.65-90.93,8.42-14.16,16.37-27.52,20.51-40.93h0c.42-1.34.94-3,39.94-5a1.5,1.5,0,0,1,1.58,1.51c-.25,31.4,28.7,45.39,33.38,47.44,5.27-3,42.23-24.78,40.23-49.41a1.43,1.43,0,0,1,.39-1.13,1.48,1.48,0,0,1,1.1-.49c37.17-.11,37.63,1.7,38,3.27,3.47,13.83,10.86,27.18,18.69,41.31,15.46,27.88,33,59.49,24.46,104.07a1.51,1.51,0,0,1-2.08,1.09c-10.39-4.56-44.44-2.35-83.87.22C608.75,491.06,579,493,552.23,493Zm-73.77-15.73c22.16,17.82,96.85,13,156.94,9.05,37.9-2.46,70.89-4.61,83.51-.62,7.53-42.6-9.45-73.24-24.45-100.31-7.84-14.14-15.24-27.5-18.85-41.52-1.25-.42-7-1.51-33.13-1.51h-.54c.22,11.36-6.86,23.64-20.56,35.61a131.38,131.38,0,0,1-21.94,15.41,1.48,1.48,0,0,1-1.25.08c-.36-.14-35.16-14-35.92-48.94-23.22,1.21-33.66,2.49-35.81,3.28-4.29,13.58-12.24,26.95-20.65,41.09C489.86,415.7,473.37,443.42,478.46,477.27Z" transform="translate(-443.56 -125.5)"/><g class="cls-4"><path class="cls-12" d="M524.33,352.05c40.64,42.43,126.35,29,153.3,2.69,2.84-2.77-1.25-13.06-4-11.23-20.21,13.25-100.41,22.55-144.19,1.22Z" transform="translate(-443.56 -125.5)"/></g><g class="cls-4"><path class="cls-12" d="M708.07,405.73C732.4,475.06,537,493.18,487.73,481.39c36.67,22.34,208.34-4,231.34,5.34C725.8,477,724.07,437.06,708.07,405.73Z" transform="translate(-443.56 -125.5)"/></g><path class="cls-13" d="M634.07,342.06c0,13.89-10.67,51-35.34,48.33S569.4,357,569.4,343.06s11.72-15.51,33.58-15.51S634.07,328.17,634.07,342.06Z" transform="translate(-443.56 -125.5)"/><path class="cls-14" d="M664,342.09c-7.17-.65-15.94-.77-23-.93,0,17.85-40.9,55.23-40.9,55.23s-36.25-35.54-36.23-50.18c-8.17.44-14.63.65-19.72.79" transform="translate(-443.56 -125.5)"/></g><g id="Feet"><path class="cls-6" d="M553.66,562.61c-.51-10.17-37.72-9.54-41.37-3-6.35,11.45,3.59,15.41,7.81,16.15,5.55,1,14.9,3.1,28.07-.53C554.85,573.43,554.05,570.5,553.66,562.61Z" transform="translate(-443.56 -125.5)"/><path class="cls-7" d="M533.53,578.8A67.2,67.2,0,0,1,521,577.49l-1.18-.21c-1.27-.23-7.74-1.6-10.21-6.77-1.56-3.26-1.11-7.16,1.35-11.58,1.94-3.5,9.55-4.79,13.92-5.24a63.93,63.93,0,0,1,19.94.92c8.29,1.93,10.19,5.37,10.32,7.92,0,.67.07,1.3.1,1.9.37,6.41.59,10.28-6.69,12.29A56.11,56.11,0,0,1,533.53,578.8Zm-1.36-22.49c-8.89,0-17.28,1.74-18.57,4.07-2,3.53-2.38,6.5-1.27,8.84,1.43,3,5.22,4.61,8,5.1l1.19.22c5.69,1,14.28,2.57,26.22-.71,5-1.37,4.87-2.72,4.5-9.22,0-.61-.08-1.25-.11-1.93h0c-.11-2.11-3-4-8-5.15A54.66,54.66,0,0,0,532.17,556.31Z" transform="translate(-443.56 -125.5)"/><path class="cls-6" d="M689.63,562.61c-.51-10.17-37.72-9.54-41.37-3-6.35,11.45,3.59,15.41,7.81,16.15,5.55,1,14.9,3.1,28.07-.53C690.82,573.43,690,570.5,689.63,562.61Z" transform="translate(-443.56 -125.5)"/><path class="cls-7" d="M669.5,578.8A67.2,67.2,0,0,1,657,577.49l-1.18-.21c-1.27-.23-7.74-1.6-10.21-6.77-1.56-3.26-1.11-7.16,1.35-11.58,1.94-3.5,9.55-4.79,13.92-5.24a63.86,63.86,0,0,1,19.93.92c8.3,1.93,10.2,5.37,10.33,7.92h0c0,.67.07,1.3.1,1.9.37,6.41.59,10.28-6.69,12.29A56.11,56.11,0,0,1,669.5,578.8Zm-1.36-22.49c-8.9,0-17.28,1.74-18.57,4.07-2,3.53-2.38,6.5-1.27,8.84,1.43,3,5.22,4.61,8,5.1l1.2.22c5.68,1,14.27,2.57,26.21-.71,5-1.37,4.87-2.72,4.5-9.22,0-.61-.08-1.25-.11-1.93h0c-.11-2.11-3-4-8-5.15A54.66,54.66,0,0,0,668.14,556.31Z" transform="translate(-443.56 -125.5)"/><g class="cls-4"><path class="cls-15" d="M649.25,570.45c33,2.06,38-12.08,38.29-9.72s5.3,10.89.59,12.07-6.78,6.78-34.17,2.36C651.84,574.82,645.42,570.21,649.25,570.45Z" transform="translate(-443.56 -125.5)"/></g><g class="cls-4"><path class="cls-15" d="M513.28,570.45c33,2.06,38-12.08,38.29-9.72s5.3,10.89.59,12.07-6.78,6.78-34.17,2.36C515.88,574.82,509.45,570.21,513.28,570.45Z" transform="translate(-443.56 -125.5)"/></g><path class="cls-6" d="M541.09,557.59c0,1.36-.23,5.91,0,7.73" transform="translate(-443.56 -125.5)"/><path class="cls-7" d="M541.09,567.32a2,2,0,0,1-2-1.75,54.73,54.73,0,0,1-.06-6.36c0-.69,0-1.27,0-1.62a2,2,0,0,1,4,0c0,.38,0,1,0,1.73,0,1.71-.12,4.57,0,5.75a2,2,0,0,1-1.73,2.24Z" transform="translate(-443.56 -125.5)"/><path class="cls-6" d="M524.56,556.75c0,1.37-.23,5.92,0,7.74" transform="translate(-443.56 -125.5)"/><path class="cls-7" d="M524.56,566.49a2,2,0,0,1-2-1.75,52.8,52.8,0,0,1-.05-6.36c0-.69,0-1.27,0-1.63a2,2,0,0,1,4,0c0,.38,0,1,0,1.74a56.94,56.94,0,0,0,0,5.75,2,2,0,0,1-1.74,2.23Z" transform="translate(-443.56 -125.5)"/><path class="cls-6" d="M676.09,556.59c0,1.36-.23,5.91,0,7.73" transform="translate(-443.56 -125.5)"/><path class="cls-7" d="M676.09,566.32a2,2,0,0,1-2-1.75,54.73,54.73,0,0,1-.06-6.36c0-.69,0-1.27,0-1.62a2,2,0,0,1,4,0c0,.38,0,1,0,1.73,0,1.71-.12,4.57,0,5.75a2,2,0,0,1-1.73,2.24Z" transform="translate(-443.56 -125.5)"/><path class="cls-6" d="M659.56,555.75c0,1.37-.23,5.92,0,7.74" transform="translate(-443.56 -125.5)"/><path class="cls-7" d="M659.56,565.49a2,2,0,0,1-2-1.75,52.8,52.8,0,0,1-.05-6.36c0-.69,0-1.27,0-1.63a2,2,0,0,1,4,0c0,.38,0,1,0,1.74a56.94,56.94,0,0,0,0,5.75,2,2,0,0,1-1.74,2.23Z" transform="translate(-443.56 -125.5)"/></g><g id="Logo"><path class="cls-16" d="M676.75,442.47a1.62,1.62,0,0,0-2.37-1.48s-3.43,2.65-6.45,2.35-2.08-7-2.08-7,.66-6.15-1.12-6.67-4,1.61-4,1.61a22.09,22.09,0,0,0-4,6.83l-.36.11s.42-6.71-.06-8.24c-.35-.77-3.61-.71-4.14.65s-3.14,10.78-3.32,14.72c0,0-5.09,4.3-9.53,5s-5.5-2.06-5.5-2.06,12.07-3.36,11.66-13-9.74-6.05-10.79-5.26-6.48,4-8.06,13.09c-.06.31-.15,1.65-.15,1.65s-4.68,3.12-7.28,3.95c0,0,7.28-12.19-1.6-17.73-4-2.41-7.23,2.65-7.23,2.65s12-13.31,9.36-24.56c-1.27-5.35-4-5.93-6.43-5.06a11.17,11.17,0,0,0-5.17,3.65,40.93,40.93,0,0,0-6,17.43c-1.13,10.42-2.79,23-2.79,23s-2.31,2.24-4.44,2.35-1.18-6.3-1.18-6.3,1.66-9.77,1.54-11.42-.24-2.54-2.19-3.12-4.09,1.88-4.09,1.88-5.62,8.48-6.09,9.78l-.3.53-.3-.36s4-11.54.18-11.72-6.27,4.13-6.27,4.13-4.32,7.18-4.5,8l-.3-.36s1.78-8.36,1.42-10.42a1.9,1.9,0,0,0-2.31-1.65s-2.48-.3-3.13,1.29a115.83,115.83,0,0,0-3.32,15.49s-6.22,4.42-10.3,4.48-3.67-2.58-3.67-2.58,15-5.1,10.89-15.17c-1.83-2.59-4-3.4-7-3.35s-6.72,1.89-9.15,7.31a23.42,23.42,0,0,0-1.77,6.9h0s-2.67.53-4.09-.65-2.17,0-2.17,0-2.45,3.47,0,4.41a52.27,52.27,0,0,0,6.21,1.76h0c.35,2,1.36,4.08,4.32,6.31,4.44,3.35,13-.5,13-.5l3.5-2s.11,3.14,2.66,3.6,3.61,0,8-10.75c2.61-5.47,2.78-5.19,2.78-5.19l.3-.07s-2,10.48-1.25,13.31,4.15,2.53,4.15,2.53,1.83,1.12,3.31-4.06a52.08,52.08,0,0,1,4.33-10.14h.35s-1.24,10,.65,13.37,6.81.77,6.81.77a42.31,42.31,0,0,0,4-2.44,14.21,14.21,0,0,0,9.82,2.73c12.85-2.52,17.42-6,17.42-6a10.6,10.6,0,0,0,9,6.06,15,15,0,0,0,12.08-4.31s-.06,3.17,2.67,4.29,4.55-4.58,4.55-4.58l4.56-11.92h.42s.23,7.54,4.73,8.84,10.36-3.33,10.36-3.33A3.83,3.83,0,0,0,676.75,442.47Zm-127.34,1.16c.18-7,4.79-10.07,6.39-8.54s1,4.83-2,6.89S549.41,443.63,549.41,443.63Zm60.09-27.15s4.2-10.89,5.21-5.59S605.88,432,605.88,432C606,428.44,609.5,416.48,609.5,416.48Zm5,30.33c-2.78,7.25-9.53,4.3-9.53,4.3s-.77-2.59,1.42-9.83,7.34-4.42,7.34-4.42S617.31,439.57,614.53,446.81Zm18.65-3.18s-.65-2.29,1.77-6.71,4.32-2,4.32-2,2.07,2.24-.29,5.59A7,7,0,0,1,633.18,443.63Z" transform="translate(-443.56 -125.5)"/></g></g><g id="Head"><g id="Braid"><g class="cls-4"><path class="cls-10" d="M666.52,347c0,1.83.71,7.33,2.5,8.62a13.11,13.11,0,0,0,1.5,14.5c-1.5,5.13.75,10.75,3.71,12.92,0,.67-.41,7.21,4.92,9.21a10.12,10.12,0,0,0,3.92,10.46c0,.83,4.16,17.33,4.83,18s13.67-8.47,14.67-10.5c3.83-7.84-8.5-26.17-8.5-26.17l-4-11.17,7.83-5.5,1.17-15.66-18-11Z" transform="translate(-443.56 -125.5)"/></g><path class="cls-17" d="M682.4,337.64c.42,3.78,9.81,4.47,12.62,2.75,1.5-.91,1.88-10-.87-11.5C690.64,327,682.07,334.64,682.4,337.64Z" transform="translate(-443.56 -125.5)"/><path class="cls-18" d="M690.48,342.77a15.87,15.87,0,0,1-6.58-1.3c-2.26-1.11-2.87-2.6-3-3.66h0c-.33-2.92,3.79-6.85,6.46-8.65,3-2,5.67-2.58,7.5-1.58,2.32,1.26,2.76,5.08,2.81,7.24,0,1.32,0,5.71-1.87,6.85A10.93,10.93,0,0,1,690.48,342.77Zm-6.59-5.29c.07.59.86,1.07,1.33,1.3,2.57,1.26,7.23,1.28,8.9.4a13.82,13.82,0,0,0,.26-6.94c-.3-1.36-.74-1.92-1-2-.6-.33-2.15,0-4.27,1.36-3.22,2.12-5.34,5.1-5.27,5.91Z" transform="translate(-443.56 -125.5)"/><path class="cls-17" d="M672.65,327.64c1.28,1.51,15.77,13.67,16,14.13,1.25,2.5-4.25,4.37-9.25,3-1.84-.51-18-6-14-17.13C665.85,326.39,671.27,326,672.65,327.64Z" transform="translate(-443.56 -125.5)"/><path class="cls-18" d="M682.87,346.73a14.66,14.66,0,0,1-3.87-.52c-.11,0-10.84-3.15-14.51-10.22a10.66,10.66,0,0,1-.5-8.85c.34-1,1.36-1.61,3-1.91s5.23-.39,6.77,1.44h0c.64.75,5.75,5.16,9.49,8.37,6.47,5.58,6.5,5.64,6.71,6.06a3,3,0,0,1-.39,3.33C688.4,345.89,685.75,346.73,682.87,346.73ZM666.72,328.4a7.66,7.66,0,0,0,.43,6.21c3,5.84,12.55,8.68,12.65,8.71,3.76,1,7-.11,7.49-.8-.8-.75-3.53-3.1-6-5.2-5.46-4.7-9.08-7.84-9.82-8.71h0C670.92,327.92,667.7,327.91,666.72,328.4Z" transform="translate(-443.56 -125.5)"/><path class="cls-17" d="M695.4,340.27c-7.38-1-11.25,6.25-11.25,6.25s-.63,5-.13,5.37c2.75,2,10.5,4,11.5,2.75C698.4,351,696.64,340.44,695.4,340.27Z" transform="translate(-443.56 -125.5)"/><path class="cls-18" d="M694,356.53a17.07,17.07,0,0,1-4-.59,22.42,22.42,0,0,1-6.93-2.83c-.6-.44-1.22-.89-.48-6.78a1.38,1.38,0,0,1,.17-.52c.18-.33,4.46-8.15,12.77-7h0c1.18.16,1.66,1.36,1.84,1.82,1.09,2.72,2.17,11.33-.74,15C696.45,355.89,695.94,356.53,694,356.53Zm-8.7-5.57c2.5,1.54,7.79,2.81,9.16,2.55,1.82-2.67,1-9.91.17-11.81-5.31-.38-8.39,4.2-9.06,5.3A33.7,33.7,0,0,0,685.33,351Z" transform="translate(-443.56 -125.5)"/><path class="cls-17" d="M673.52,342c-9.25,14.62,7.38,18.25,8,18.62s6.93-6.07,6.13-6.87c-1.38-1.38-3.75-5.75-5.63-8.25C681.21,344.44,673.52,342,673.52,342Z" transform="translate(-443.56 -125.5)"/><path class="cls-18" d="M681.45,362.12a1.3,1.3,0,0,1-.55-.12l-.37-.12c-5.76-1.86-9.37-4.7-10.72-8.43-1.28-3.53-.45-7.65,2.45-12.23a1.47,1.47,0,0,1,1.71-.63c5.41,1.7,8.52,3.05,9.25,4s1.78,2.59,2.67,4a31.88,31.88,0,0,0,2.82,4.08c1.3,1.3-.19,3.2-.9,4.12C686.48,358.52,683.44,362.12,681.45,362.12Zm-7.25-18.31c-1.9,3.34-2.43,6.24-1.57,8.62,1,2.82,4,5,8.83,6.6h0a27.63,27.63,0,0,0,4.54-4.85c-.77-1-1.67-2.38-2.67-4-.84-1.34-1.71-2.72-2.48-3.75A38.34,38.34,0,0,0,674.2,343.81Z" transform="translate(-443.56 -125.5)"/><path class="cls-17" d="M695.52,354.64c1.75,9.13-6.5,10.75-7,11.13s-5.75-3.88-5.5-4.88,4.25-5.87,4.63-7.12S695.33,353.65,695.52,354.64Z" transform="translate(-443.56 -125.5)"/><path class="cls-18" d="M688.45,367.3a3.86,3.86,0,0,1-2-.82c-.56-.37-5.47-3.71-4.91-6,.17-.7.8-1.61,2.41-3.86a31.51,31.51,0,0,0,2.24-3.35c.47-1.56,2.44-1.67,4.12-1.58,1.46.07,6.25.48,6.66,2.62.81,4.22.17,9.84-7.46,12.61l-.26.1A1.6,1.6,0,0,1,688.45,367.3ZM684.66,361a19.6,19.6,0,0,0,3.77,3.23l.09,0c2.84-1,6.47-3.06,5.62-8.71a14.86,14.86,0,0,0-5.28-.69,31.48,31.48,0,0,1-2.44,3.67C685.85,359.21,685.05,360.32,684.66,361Z" transform="translate(-443.56 -125.5)"/><path class="cls-17" d="M671.77,357.14C668.52,370,679,372,681.9,372.27s5.37-4.63,5.62-5.88-5.12-4.37-5.37-5S672.15,355.64,671.77,357.14Z" transform="translate(-443.56 -125.5)"/><path class="cls-18" d="M682.11,373.78l-.34,0c-1.6-.14-7-.92-10.08-5.2-2.13-3-2.59-6.95-1.37-11.78h0a1.89,1.89,0,0,1,1.81-1.4c2.2-.17,10.82,4,11.41,5.46a1.08,1.08,0,0,0-.18-.32c.16.17.88.7,1.41,1.09,2.84,2.07,4.56,3.42,4.22,5.08S685.87,373.78,682.11,373.78ZM673,358.49c-.72,3.48-.34,6.28,1.12,8.34,2.3,3.22,6.63,3.83,7.9,3.94,1.46.09,3.43-3,3.93-4.34a24.11,24.11,0,0,0-3-2.4A9,9,0,0,1,681,362.3,39.19,39.19,0,0,0,673,358.49Z" transform="translate(-443.56 -125.5)"/><path class="cls-17" d="M693.52,363.64c-2.68,1.15-9,6.75-10.87,9.25-.53.71,2.25,6.38,3.75,6.38s7.31-5.37,8-6.5C696.52,369.27,694.4,363.27,693.52,363.64Z" transform="translate(-443.56 -125.5)"/><path class="cls-18" d="M686.4,380.77c-1.4,0-2.83-1.43-4.24-4.25-1.64-3.29-1-4.12-.71-4.53,1.9-2.54,8.42-8.41,11.48-9.73h0a1.88,1.88,0,0,1,2.17.61c1.27,1.46,2.81,7,.58,10.68C695.08,374.54,688.88,380.77,686.4,380.77Zm-2.27-7.33a12.3,12.3,0,0,0,2.38,4.25,32.41,32.41,0,0,0,6.61-5.7c1.18-1.95.6-5.05.06-6.47A49.31,49.31,0,0,0,684.13,373.44Z" transform="translate(-443.56 -125.5)"/><path class="cls-17" d="M674,370c-1.12,11.5,6.5,12,8.5,13.25s4.25-1.13,4.25-2.5-4.37-7-4.62-7.75S674.22,368,674,370Z" transform="translate(-443.56 -125.5)"/><path class="cls-18" d="M683.72,385.12a3.8,3.8,0,0,1-2-.58,8.19,8.19,0,0,0-1.16-.49c-3-1.13-9.09-3.47-8-14.18h0a2.09,2.09,0,0,1,1.94-1.87c2.18-.24,8.57,2.94,9.1,4.54.08.15.71,1.06,1.21,1.78,2.46,3.59,3.49,5.27,3.49,6.45a4.81,4.81,0,0,1-2.55,3.81A4.12,4.12,0,0,1,683.72,385.12Zm-8.27-14c-.45,7.63,3.53,9.15,6.19,10.16a9.51,9.51,0,0,1,1.68.76.78.78,0,0,0,.87,0,2.25,2.25,0,0,0,1.07-1.18,33.3,33.3,0,0,0-3-4.78,24.37,24.37,0,0,1-1.45-2.23A20.39,20.39,0,0,0,675.45,371.08Z" transform="translate(-443.56 -125.5)"/><path class="cls-17" d="M689.9,377.27c-1,.6-4.88,5-4.75,6.25s4.25,5.12,6.12,4.37,5.13-7,1.63-12.12C692.54,375.24,690.52,376.89,689.9,377.27Z" transform="translate(-443.56 -125.5)"/><path class="cls-18" d="M690.74,389.49a5.62,5.62,0,0,1-2.83-.95c-1.62-1-4.09-3.21-4.25-4.87-.24-2.33,4.55-7.14,5.47-7.69.12-.07.3-.2.51-.35,1.39-1,2.38-1.61,3.37-1.44a1.78,1.78,0,0,1,1.13.73,10.82,10.82,0,0,1,1.29,9.36c-.74,2.43-2.19,4.44-3.6,5A3,3,0,0,1,690.74,389.49Zm-4-6.09c.58,1.06,3.19,3.21,4.07,3.09a6.34,6.34,0,0,0,1.86-3.3,8,8,0,0,0-.43-5.67c-.31.2-.63.43-.82.56s-.53.37-.7.47A20,20,0,0,0,686.69,383.4Z" transform="translate(-443.56 -125.5)"/><path class="cls-17" d="M678.52,382.89c0,6.88,8.75,11,9.25,11.5s4.25-.75,3.25-3.5c-.69-1.9-5.37-6.37-5.87-7.37S678.52,381.26,678.52,382.89Z" transform="translate(-443.56 -125.5)"/><path class="cls-18" d="M688.16,396a2,2,0,0,1-1.37-.47l-.48-.3c-2.29-1.39-9.29-5.61-9.29-12.34a2.24,2.24,0,0,1,1.93-2.15c1.82-.42,6.64.31,7.54,2.11.16.26,1,1.24,1.75,2,2.15,2.38,3.71,4.17,4.19,5.51a3.92,3.92,0,0,1-1.76,4.81A5.11,5.11,0,0,1,688.16,396Zm-8.1-12.4c.51,4.66,6,7.95,7.8,9.07.21.12.37.21.5.3a2.25,2.25,0,0,0,1.19-.76.77.77,0,0,0,.06-.8c-.32-.9-2.37-3.17-3.6-4.53a21.84,21.84,0,0,1-2.08-2.47A9.67,9.67,0,0,0,680.06,383.6Z" transform="translate(-443.56 -125.5)"/><path class="cls-17" d="M694.4,385.89c5.25,5.38-.25,12.75-.75,13s-5-1.87-4.38-3.25,1.13-7.37,1.13-7.37S693.65,385.12,694.4,385.89Z" transform="translate(-443.56 -125.5)"/><path class="cls-18" d="M693.57,400.39c-1.64,0-4.09-1.66-4.79-2.34-1.36-1.31-1.13-2.46-.87-3a40.17,40.17,0,0,0,1-6.88,1.5,1.5,0,0,1,.46-.95c3.87-3.75,5.34-3.13,6.11-2.35a9.27,9.27,0,0,1,2.53,8.3c-.57,3.37-2.73,6.62-3.68,7.09A1.65,1.65,0,0,1,693.57,400.39Zm-2.77-4.55a8.38,8.38,0,0,0,2.27,1.4c1-1.5,3.67-6.1.71-9.78a15.16,15.16,0,0,0-1.94,1.51A42.33,42.33,0,0,1,690.8,395.84Z" transform="translate(-443.56 -125.5)"/><path class="cls-17" d="M682.77,392.64c-.25,5.38,3,7.5,5.5,9.38s3.13-2.13,3.13-3.5-.63-2-2.13-2.88S682.82,391.64,682.77,392.64Z" transform="translate(-443.56 -125.5)"/><path class="cls-18" d="M689.47,404a3.51,3.51,0,0,1-2.1-.79l-.37-.28c-2.53-1.89-6-4.46-5.72-10.37h0a1.64,1.64,0,0,1,.88-1.41c1.11-.59,2.37-.11,7.12,2.74l.75.45c1.45.84,2.87,1.86,2.87,4.17,0,.16,0,4.1-2.25,5.21A2.56,2.56,0,0,1,689.47,404Zm-5.11-9.47c.45,3,2.47,4.53,4.43,6l.38.29.2.13a5.84,5.84,0,0,0,.53-2.43c0-.53,0-.78-1.38-1.58l-.79-.47C687.08,396.08,685.54,395.16,684.36,394.54Z" transform="translate(-443.56 -125.5)"/><path class="cls-17" d="M686.77,403.77c-.37,3.37-2.87,3.87-3.75,6.75.63.62.75-.75,2-.5s3.75,8.25,3.13,8.87c3.75-.5,7.37-3.75,7.87-7a3.91,3.91,0,0,1,1.88,2.88c1.87-3.63,3.37-10.63-2.38-13.88C694.79,400.48,686.89,402.77,686.77,403.77Z" transform="translate(-443.56 -125.5)"/><path class="cls-18" d="M688.15,420.39a1.49,1.49,0,0,1-1.4-2,24.11,24.11,0,0,0-2.16-6.65,1.88,1.88,0,0,1-2.63-.12,1.51,1.51,0,0,1-.37-1.5,8.82,8.82,0,0,1,2.1-3.43,4.94,4.94,0,0,0,1.59-3,2.65,2.65,0,0,1,1.72-1.9c.82-.42,7.57-3.07,9.26-2.11,5.94,3.36,5.71,10.58,3,15.87a1.5,1.5,0,0,1-2.81-.46,11.74,11.74,0,0,1-8.07,5.38Zm-2.3-11.66c.7.39,1.82,1.61,3.14,6,.28.92.46,1.67.59,2.28,2.45-1,4.63-3.18,5-5.32a1.51,1.51,0,0,1,2.37-1c.25.19.49.39.72.59.73-2.7,1-6.69-2.59-8.92a27.55,27.55,0,0,0-6.85,2.1,8.08,8.08,0,0,1-2.24,4.17Z" transform="translate(-443.56 -125.5)"/><g class="cls-4"><path class="cls-19" d="M689.57,405.06c4.5,1.67,6.5-.33,6.66.17s.67,4.16.67,4.16-3.17-.16-3.17.34-2,7.83-4,8.5,6.67-6.84,7.17-5.5.17,4.25,1,2,4.5-9.54-1.5-13.38C695.1,400.57,690.73,405.23,689.57,405.06Z" transform="translate(-443.56 -125.5)"/></g><g class="cls-4"><polygon class="cls-19" points="238.01 221.47 240.68 227.51 238.09 231.7 229.88 229.88 229.7 232.88 240.19 240.55 238.35 243.39 231.01 243.72 238.51 248.06 239.68 254.06 235.34 255.89 241.01 258.39 244.18 264.72 239.18 265.06 244.68 270.06 245.18 273.06 242.68 274.39 250.09 273.39 252.59 268.06 248.84 268.72 248.84 263.89 249.76 260.56 246.05 259.56 245.61 255.56 250.31 248.22 244.16 249.72 243.5 245.56 250.34 236.56 245.01 236.72 243.18 233.39 245.01 228.06 252.01 228.39 252.51 216.64 249.34 224.89 244.84 224.89 242.51 222.31 252.51 207.68 238.84 212.2 231.18 218.09 238.01 221.47"/></g><g class="cls-20"><path class="cls-19" d="M675.65,372.52c.1.87.87,6.12,4.12,7.25-1.2-1.88-1.41-5.5-1.54-6.38S675.52,371.39,675.65,372.52Z" transform="translate(-443.56 -125.5)"/></g><g class="cls-20"><path class="cls-19" d="M673,359.89c.2,1.36.25,7.63,3.75,8.13-.87-1.63-1.54-6.5-1.54-7.13S672.9,359,673,359.89Z" transform="translate(-443.56 -125.5)"/></g><g class="cls-20"><path class="cls-19" d="M680.4,384.39c.37.75,2.62,5.75,5.37,5.75-1.2-.75-2.62-5.08-2.87-5.58S680.4,384.39,680.4,384.39Z" transform="translate(-443.56 -125.5)"/></g><g class="cls-20"><path class="cls-19" d="M673.27,349c-.5,1.62.25,5.37,2.88,6.37-1.92-2.83.08-7,.08-7.66S673.46,348.42,673.27,349Z" transform="translate(-443.56 -125.5)"/></g><g class="cls-20"><path class="cls-19" d="M690.9,355.56c.37-.37,2.17-.5,2.5.33s-.5,5-1.5,5.17S690.07,356.39,690.9,355.56Z" transform="translate(-443.56 -125.5)"/></g><g class="cls-20"><path class="cls-19" d="M692.57,366.39s-1.67,1.17-1.67,1.67.83,4,.83,4,1.5.67,1.5-1.17S693.07,367.06,692.57,366.39Z" transform="translate(-443.56 -125.5)"/></g><g class="cls-20"><path class="cls-19" d="M691.57,378.89c-.5-.05-1.17,1.5-1.17,2.17s.5,5.17,1,3.83S693.07,379.06,691.57,378.89Z" transform="translate(-443.56 -125.5)"/></g><g class="cls-20"><path class="cls-19" d="M693.57,342.06c-1,.12-3.67.17-4.17,1.5s1.67,6.67,2.83,5.83,2.84-5.16,2.84-5.16S694.9,341.89,693.57,342.06Z" transform="translate(-443.56 -125.5)"/></g><g class="cls-20"><path class="cls-19" d="M693.57,388.39c.83,2-.34,4.5-.34,5s1.17.5,1.5-.16S695.4,389.06,693.57,388.39Z" transform="translate(-443.56 -125.5)"/></g><g class="cls-20"><path class="cls-19" d="M688.4,404.89l-1.75,3.75s2.87,6.63,2.87,7.25-1.87-7-1.87-7Z" transform="translate(-443.56 -125.5)"/></g><path class="cls-21" d="M686.27,400.64c6,.88,6.38-.12,8.38-.87.52-.2,0,2.25-.5,2.37s-4.25,1.38-6.38.5S685.61,400.55,686.27,400.64Z" transform="translate(-443.56 -125.5)"/><path class="cls-22" d="M689.65,404.45a6.58,6.58,0,0,1-2.45-.42c-2.47-1-3-2.56-2.74-3.58a1.79,1.79,0,0,1,2-1.29h0c4.46.65,5.38.22,6.54-.33.34-.15.69-.31,1.09-.47a1.62,1.62,0,0,1,1.65.3c.61.55.75,1.4.43,2.68s-.87,2.05-1.69,2.26l-.19,0A17.24,17.24,0,0,1,689.65,404.45Z" transform="translate(-443.56 -125.5)"/></g><g id="Face"><path class="cls-2" d="M651.71,171.48c27.77,2.94,49.39-22.11,65.14-14.38-12.48,4.7-17.12,24.54-37.2,44.29C674.93,206,644.14,170.68,651.71,171.48Z" transform="translate(-443.56 -125.5)"/><path class="cls-3" d="M678.51,203.39a9.9,9.9,0,0,1-4.74-1.81c-7.72-4.88-26.47-25-24.68-30.11a2.42,2.42,0,0,1,2.78-1.55h0c13.61,1.44,25.84-4.12,36.62-9,11.06-5,20.6-9.36,29-5.21a1.58,1.58,0,0,1-.14,2.89c-6.17,2.32-10.52,9-16,17.5-5,7.61-11.11,17.09-20.61,26.44A3.09,3.09,0,0,1,678.51,203.39Zm-26.28-30.27c1.34,4,12.17,17.42,21,24.22,4.11,3.17,5.38,2.89,5.39,2.89,9.18-9.06,15.24-18.38,20.11-25.87s8.8-13.52,14.06-16.94c-6.51-1.15-14.23,2.37-23,6.35C678.82,168.76,666.42,174.4,652.23,173.12Z" transform="translate(-443.56 -125.5)"/><path class="cls-6" d="M672.15,193.14c18.75,3.25,35.89-44.91,45.24-36.33,26.51,24.33-13.74,73.58-40.83,66.78C661.43,219.79,668.41,192.49,672.15,193.14Z" transform="translate(-443.56 -125.5)"/><path class="cls-7" d="M681.89,225.23a22.65,22.65,0,0,1-5.57-.67c-9.4-2.36-11.44-13.6-9.3-23.68.33-1.56,2.11-9.27,5.3-8.72h0c9.46,1.64,19.14-11.54,26.9-22.14,5.82-7.93,10.85-14.78,15.26-15.21a4.48,4.48,0,0,1,3.58,1.27c10.59,9.71,11.87,24.87,3.43,40.55C713.52,211.42,697,225.23,681.89,225.23ZM672,194.14c-1.15.39-3.84,6.81-3.77,14.25,0,4.52,1.21,12.38,8.55,14.23,12,3,31.87-6.42,42.93-26.94,11.51-21.36,1.72-33.78-3-38.13a2.51,2.51,0,0,0-2-.75c-3.53.34-8.54,7.18-13.84,14.41C692.33,182.8,682.71,195.94,672,194.14Z" transform="translate(-443.56 -125.5)"/><g class="cls-4"><path class="cls-6" d="M715.4,155.89c4.5,30.5-18.5,41-32.71,63.52-5.2-1.64-13.46-31.07-9.44-31.34C690.9,186.89,711.4,153.87,715.4,155.89Z" transform="translate(-443.56 -125.5)"/></g><path class="cls-2" d="M486.84,159.87c14-9.91,35.65-2.52,52.87,6.39,9.79,5.08,23.51,3.77,24.17,6,1.56,5.25-13.06,13.63-24,12S513.46,159.77,486.84,159.87Z" transform="translate(-443.56 -125.5)"/><path class="cls-3" d="M542.81,186a20.89,20.89,0,0,1-3.18-.23c-4.36-.66-9.17-4.23-14.74-8.36-9.6-7.12-21.53-16-37.86-16h-.19a1.58,1.58,0,0,1-.92-2.86c11.87-8.43,30.21-6.31,54.51,6.27,5.38,2.79,12.11,3.57,17,4.14s7.36.86,7.94,2.8c.37,1.24.35,3.25-1.83,5.75C559.76,181.92,550.85,186,542.81,186Zm-50.34-27.4c14.67,1.72,25.87,10,34.3,16.28,5.23,3.88,9.74,7.23,13.34,7.77,7.49,1.14,17.31-2.85,21.08-7.18a4,4,0,0,0,1.22-2.48,33.06,33.06,0,0,0-5.33-.87c-5.15-.6-12.21-1.42-18.1-4.47C524.8,160.32,506,153.31,492.47,158.61Z" transform="translate(-443.56 -125.5)"/><path class="cls-6" d="M542,181.53c-10.86,3.1-42.36-39.72-61-17.18-12.25,14.83,14.22,51.5,35.73,57.86S547.74,179.89,542,181.53Z" transform="translate(-443.56 -125.5)"/><path class="cls-7" d="M520.57,223.78a14.33,14.33,0,0,1-4.09-.61c-15.06-4.45-32.88-23.43-38.13-40.62-2.42-7.89-1.75-14.41,1.91-18.84,12.58-15.24,31-1.87,44.41,7.9,7,5.1,13.66,9.93,17.06,9h0a1.86,1.86,0,0,1,2.09.77c2.6,3.69-1.28,22.78-9,33.6C530.59,220.78,525.74,223.78,520.57,223.78Zm-26.39-65c-4.49,0-8.72,1.75-12.38,6.18-4.06,4.92-3.08,12-1.54,17,5,16.34,22.53,35.07,36.78,39.28,8.82,2.6,15-4.89,18.71-11.64,6.43-11.82,7.72-25.58,6.46-27.1-4.33,1.17-10.68-3.45-18.72-9.29C514.33,166.56,503.65,158.8,494.18,158.8Z" transform="translate(-443.56 -125.5)"/><g class="cls-23"><path class="cls-6" d="M481.45,165.35c12.11-5.4,32.3.15,42.7,13.39,3.7,4.71,3.07,19-7.76,27.42-4.3,3.34,24.35-10.62,25.08-15.67s-.87-6.72-4.58-8.67c-13.77-7.26-27.39-21.54-40.65-23A15.88,15.88,0,0,0,481.45,165.35Z" transform="translate(-443.56 -125.5)"/></g><g class="cls-24"><path class="cls-6" d="M483.71,168.1c18,7.17,26.85,30.29,37.59,34.22s13-14.47,15.22-20.67c-20.26-11.9-28.79-24-44.5-22.83C486.76,159.2,478.61,166.07,483.71,168.1Z" transform="translate(-443.56 -125.5)"/></g><path class="cls-2" d="M610.4,140.39c89,2,82.33,63.5,82.33,79.67,0,25.41,17.67,66.67,17.67,78.33,0,46.67-74,61.34-108.67,61.34-61.66,0-123-26-123-67,0-9.34,31-53.67,36.34-93.67C517.68,179.45,543.07,138.89,610.4,140.39Z" transform="translate(-443.56 -125.5)"/><path class="cls-3" d="M601.73,361.3c-31.19,0-62.29-6.67-85.33-18.29-25.31-12.77-39.24-30.63-39.24-50.28,0-3.74,3.81-11.23,9.57-22.57,9.32-18.3,23.4-46,26.77-71.31,1.35-10.08,8.35-25.43,24-38.26,12.65-10.39,35.6-22.6,73-21.77,36.43.81,61.37,11.66,74.11,32.24,10.41,16.8,10,35.68,9.81,45.82,0,1.2,0,2.26,0,3.18,0,14.91,6.25,35.62,11.28,52.25,3.57,11.81,6.38,21.14,6.38,26.08C712,345.92,637.7,361.3,601.73,361.3Zm5-219.37c-67.18,0-88.07,42.24-90.08,57.34-3.45,25.87-17.68,53.82-27.09,72.32-5,9.74-9.23,18.15-9.23,21.14,0,18.4,13.32,35.26,37.51,47.46,22.62,11.42,53.2,18,83.91,18,16.32,0,43.59-3.42,66.73-13,18.41-7.66,40.36-22,40.36-46.71,0-4.48-2.89-14.06-6.25-25.17-5.08-16.83-11.41-37.78-11.41-53.16,0-.94,0-2,0-3.24.41-20,1.49-73-80.84-74.85C609.14,141.94,607.91,141.93,606.71,141.93Z" transform="translate(-443.56 -125.5)"/><path class="cls-13" d="M598.4,266.39c35,0,70.59,56.64,105.5,4,4,12.54,6.5,22.93,6.5,28,0,46.67-74,61.34-108.67,61.34-61.66,0-123-26-123-67,0-2.05,1.49-5.76,3.86-10.74C509.4,321.73,556.4,266.39,598.4,266.39Z" transform="translate(-443.56 -125.5)"/><path class="cls-25" d="M598.4,266.39a43.9,43.9,0,0,1,14.24,2.66A103.16,103.16,0,0,1,626,274.94c4.31,2.22,8.55,4.59,12.83,6.86s8.61,4.47,13.08,6.32a55.78,55.78,0,0,0,13.87,4,30.87,30.87,0,0,0,14.16-1.29,35.57,35.57,0,0,0,12.16-7.37,64.11,64.11,0,0,0,9.4-10.86l.64.46c.14-1.21.24-2.41.35-3.59a1.14,1.14,0,0,1,1.24-1,1.07,1.07,0,0,1,.68.31l1.2,1.15h0a201.4,201.4,0,0,1,5.48,20c.34,1.72.66,3.45.87,5.22.1.9.19,1.79.21,2.73a5.81,5.81,0,0,1,0,.73v.65l0,1.29a41.9,41.9,0,0,1-6.33,20.32,51,51,0,0,1-6.56,8.39A73.74,73.74,0,0,1,682.47,342a121.15,121.15,0,0,1-19,8.64,172.59,172.59,0,0,1-20,5.82A205.89,205.89,0,0,1,623.05,360a175.26,175.26,0,0,1-20.75,1.44,221.73,221.73,0,0,1-41.3-3.76,175.92,175.92,0,0,1-39.7-12.17,114,114,0,0,1-18.22-10.22,73.6,73.6,0,0,1-15.52-14.19,47.48,47.48,0,0,1-9.5-19,44.7,44.7,0,0,1-.87-5.3c-.07-.89-.16-1.78-.17-2.68l0-1.34a6.27,6.27,0,0,1,0-.77l.05-.45.07-.38a27.06,27.06,0,0,1,1.72-5.24c.67-1.63,1.41-3.2,2.15-4.77h0l2.4-.8a.49.49,0,0,1,.62.31.58.58,0,0,1,0,.26,4.76,4.76,0,0,0,.9,4.16c.84,1,1.72,2,2.65,2.93a29.19,29.19,0,0,0,6.26,4.8,27,27,0,0,0,7.37,2.8,31.9,31.9,0,0,0,7.86.61,56.33,56.33,0,0,0,15.44-3.2,151.25,151.25,0,0,0,14.64-6c9.58-4.4,18.94-9.29,28.68-13.34a119.38,119.38,0,0,1,14.94-5.18A61.56,61.56,0,0,1,598.4,266.39Zm0,0a61.56,61.56,0,0,0-15.62,2.22,119.38,119.38,0,0,0-14.94,5.18c-9.74,4-19.1,8.94-28.68,13.34a151.25,151.25,0,0,1-14.64,6,56.33,56.33,0,0,1-15.44,3.2,31.9,31.9,0,0,1-7.86-.61,27,27,0,0,1-7.37-2.8,29.19,29.19,0,0,1-6.26-4.8c-.93-.93-1.81-1.91-2.65-2.93a6.17,6.17,0,0,0-1.52-1.34,5.78,5.78,0,0,0-2.28-.86l3-.23h0c-.73,1.54-1.44,3.08-2.08,4.62a24.72,24.72,0,0,0-1.51,4.52l-.05.26,0,.18a3.17,3.17,0,0,0,0,.52l0,1.23c0,.82.1,1.64.16,2.46a42.43,42.43,0,0,0,.8,4.86,44.06,44.06,0,0,0,8.82,17.55,70.49,70.49,0,0,0,14.79,13.51,110.63,110.63,0,0,0,17.66,9.9,172.54,172.54,0,0,0,38.9,11.92,218.21,218.21,0,0,0,40.64,3.7,173.16,173.16,0,0,0,20.33-1.41,201.24,201.24,0,0,0,20.1-3.55,169.29,169.29,0,0,0,19.57-5.7,118.94,118.94,0,0,0,18.45-8.38,71.1,71.1,0,0,0,15.95-12.12,47.26,47.26,0,0,0,6.11-7.81,38.31,38.31,0,0,0,5.81-18.57l0-1.29,0-.64c0-.14,0-.38,0-.56,0-.77-.1-1.59-.19-2.4-.2-1.63-.5-3.29-.83-4.94a194.37,194.37,0,0,0-5.39-19.67h0l3.13.43c-1.1.57-2.18,1.13-3.27,1.66l.64.45a66.09,66.09,0,0,1-9.82,10.92,36.88,36.88,0,0,1-12.7,7.36,30.88,30.88,0,0,1-7.24,1.38,34.61,34.61,0,0,1-7.34-.31,56.41,56.41,0,0,1-14-4.2c-4.47-1.93-8.77-4.2-13-6.54s-8.47-4.73-12.77-7a104.18,104.18,0,0,0-13.25-6A43.72,43.72,0,0,0,598.4,266.39Z" transform="translate(-443.56 -125.5)"/><g class="cls-4"><path class="cls-26" d="M608.73,277.1c0,2.17-4.15,3.93-9.27,3.93s-9.26-1.76-9.26-3.93,4.15-3.93,9.26-3.93S608.73,274.93,608.73,277.1Z" transform="translate(-443.56 -125.5)"/></g><path class="cls-6" d="M599.93,280.39c-1.1,0-1.14,0-1.11-1.42,0-1.16.08-3.24-2.52-3.69a4.78,4.78,0,0,0-4,1.52,4.24,4.24,0,0,1-.5.44,1.6,1.6,0,0,1-1.31-1.44,7.52,7.52,0,0,1,2.59-6.5c.51-.34,2.42-.68,5.54-.68,4.23,0,7.54.6,8,1a9.7,9.7,0,0,1,2.32,6.18,2.81,2.81,0,0,1-1,2l-.17-.24a3.7,3.7,0,0,0-3.06-1.92,4.32,4.32,0,0,0-.79.08c-2.41.5-2.9,2.25-3.23,3.54s-.44,1.11-.75,1.11Z" transform="translate(-443.56 -125.5)"/><path class="cls-7" d="M598.57,269.62h0a25.21,25.21,0,0,1,7.42.83c.71.8,2.13,3.39,2,5.3a3.07,3.07,0,0,1-.05.34,4.24,4.24,0,0,0-3.16-1.43,4.92,4.92,0,0,0-1,.1,5,5,0,0,0-3.9,4.13c0-1.31-.18-3.94-3.36-4.49a5.61,5.61,0,0,0-1-.09,5.41,5.41,0,0,0-3.89,1.76,1.27,1.27,0,0,1-.18-.47,6.59,6.59,0,0,1,2.15-5.45c.27-.15,1.7-.53,5-.53m0-2c-2.71,0-5.21.26-6.09.85-3,2-4.84,9.08-.83,9.78h.13c1,0,1.62-1.95,3.7-1.95.2,0,.42-.18.65-.14,3.61.63-.36,5.22,3.77,5.22H600c2.54,0,.79-4.17,4.18-4.87a2.83,2.83,0,0,1,.59,0c1.95,0,2.31,2.36,3.16,2.36a.59.59,0,0,0,.37-.1c3.65-2.48.47-8.47-.94-9.89-.82-.82-5-1.31-8.75-1.31Z" transform="translate(-443.56 -125.5)"/><path class="cls-27" d="M572.15,303.89c1.85,4.49,12.93,21.32,14.75,22s27.58-1.78,29-3.75,3.5-11.5,7.5-23.5C618.24,300.18,580.47,305.81,572.15,303.89Z" transform="translate(-443.56 -125.5)"/><g class="cls-23"><path class="cls-28" d="M620.41,301.36c-1.28,4-2.33,7.68-3.22,10.75a74.7,74.7,0,0,1-2.78,8.65c-2.46,1.09-18.5,3.25-26,3.25l-.77,0c-1.8-1.69-8.69-11.8-12.06-17.73q.79,0,1.71,0c11.22,0,33.72-3.13,43.09-4.93m3-2.72c-4.42,1.32-32.82,5.65-46.08,5.65a24.66,24.66,0,0,1-5.17-.4c1.85,4.49,12.93,21.32,14.75,22a5.91,5.91,0,0,0,1.54.12c6,0,26.21-2.13,27.46-3.87,1.41-2,3.5-11.5,7.5-23.5Z" transform="translate(-443.56 -125.5)"/></g><g class="cls-23"><path class="cls-28" d="M598.39,310.05s.23.93.56,2.33.83,3.24,1.33,5.08l1.4,5.08.46,1.69.17.69-2.66.44-.08-.6c-.07-.41-.16-1-.27-1.7-.22-1.42-.53-3.32-.83-5.21s-.57-3.8-.76-5.23l-.3-2.39Z" transform="translate(-443.56 -125.5)"/></g><path class="cls-3" d="M580.08,306.1c-13.53,0-25.31-1.39-31.13-4.3a1.57,1.57,0,0,1,1.4-2.82c15.22,7.61,76.1,3.95,92.89-7.88a1.58,1.58,0,0,1,1.82,2.58C633.65,301.72,604.11,306.1,580.08,306.1Z" transform="translate(-443.56 -125.5)"/><g class="cls-8"><polygon class="cls-5" points="245.34 37.89 248.84 46.14 266.59 31.14 247.84 55.89 240.09 49.64 241.59 39.39 245.34 37.89"/></g><g class="cls-8"><polygon class="cls-5" points="62.09 34.14 77.34 40.14 84.34 35.14 89.09 36.89 81.59 48.39 62.09 34.14"/></g><g class="cls-4"><path class="cls-26" d="M495.4,327.14c115.25,63.75,207.5-6.75,208.25-23.5.35-7.88-5.25-46.25-5.25-46.25s11.59,40.5,11.5,42.75C707.4,361.89,568.15,382.89,495.4,327.14Z" transform="translate(-443.56 -125.5)"/></g></g><g id="Flower"><path class="cls-21" d="M676.45,165.92c-19.21-19.62,1.28-33.52-1.11-38.92,7.51,6.53,15.6,20.87,12.93,31.8S677.86,167.36,676.45,165.92Z" transform="translate(-443.56 -125.5)"/><path class="cls-22" d="M680.3,168.69a7.27,7.27,0,0,1-4.92-1.73h0c-14.29-14.58-7.62-26.54-3.64-33.69,1.29-2.33,2.63-4.74,2.23-5.66a1.5,1.5,0,0,1,2.35-1.74c7.17,6.23,16.39,21.11,13.41,33.29-1.58,6.42-4.82,8.57-7.26,9.24A8.31,8.31,0,0,1,680.3,168.69Zm-3.73-38.4a33.72,33.72,0,0,1-2.21,4.44c-4,7.24-9.55,17.15,3.16,30.14h0a5.11,5.11,0,0,0,4.15.63c2.39-.65,4.17-3.09,5.14-7.05C689.11,149.07,682.83,137,676.57,130.29Z" transform="translate(-443.56 -125.5)"/><path class="cls-21" d="M677.66,162.63c4.45-27.1,27.77-18.8,30.71-23.92-.82,9.92-7.59,24.93-18,29.24S677.33,164.62,677.66,162.63Z" transform="translate(-443.56 -125.5)"/><path class="cls-22" d="M684.72,170.74a8.65,8.65,0,0,1-5.51-1.79,7.82,7.82,0,0,1-3-6.57h0c3.31-20.14,16.9-21.85,25-22.87,2.64-.33,5.38-.67,5.88-1.55a1.5,1.5,0,0,1,2.79.87c-.78,9.47-7.33,25.7-18.9,30.5A16.44,16.44,0,0,1,684.72,170.74Zm-5.58-7.87a5.08,5.08,0,0,0,1.94,3.73c1.94,1.53,5,1.52,8.73,0,8.91-3.69,14.93-15.89,16.64-24.91a32.65,32.65,0,0,1-4.89.84c-8.22,1-19.48,2.45-22.42,20.38Z" transform="translate(-443.56 -125.5)"/><path class="cls-21" d="M681.78,162.39c25.61-15.93,33.26,3.06,38.44,3.23-4.11,12.81-34.71,13.87-36.7,12S678.45,164.46,681.78,162.39Z" transform="translate(-443.56 -125.5)"/><path class="cls-22" d="M689,179.86c-3.23,0-5.68-.35-6.49-1.1-1.89-1.75-4.07-8.83-3.64-13.41.2-2,.91-3.48,2.13-4.23h0c20.11-12.51,29.8-4.35,35.59.52,1.43,1.21,2.91,2.45,3.69,2.48a1.49,1.49,0,0,1,1.38,2c-1.68,5.24-7.41,9.28-16.55,11.68A69,69,0,0,1,689,179.86Zm-4.52-3.38c2,.79,15.64.7,25.56-3.54,4.08-1.74,6.82-3.88,8.17-6.38a20.77,20.77,0,0,1-3.55-2.62c-5.5-4.64-13.81-11.64-32.08-.28h0a2.88,2.88,0,0,0-.72,2C681.48,169.51,683.5,175.38,684.47,176.48Z" transform="translate(-443.56 -125.5)"/><path class="cls-21" d="M683.22,166.13c16.29-2.4,19.59,27.7,21.9,29.55-11.65,1.45-22.25-11-24-13.48C674.62,172.65,681.17,166.43,683.22,166.13Z" transform="translate(-443.56 -125.5)"/><path class="cls-22" d="M703.26,197.29c-11.23,0-21.18-11.07-23.35-14.24-4-5.9-3.4-10.51-2.16-13.34,1.31-3,3.68-4.84,5.25-5.07h0c13.59-2,18.75,15.62,21.51,25.09a33,33,0,0,0,1.63,4.84,1.51,1.51,0,0,1-.83,2.6A17.74,17.74,0,0,1,703.26,197.29Zm-19.81-29.68a6.28,6.28,0,0,0-3,3.53c-.85,2.1-1.19,5.58,2,10.21,1.82,2.66,10.75,12.61,20.39,12.93-.33-.92-.68-2.13-1.14-3.71C699.13,182,694.49,166,683.45,167.61Z" transform="translate(-443.56 -125.5)"/><g class="cls-8"><path class="cls-21" d="M668.4,148.64c1.33,3.42,5.58,5.75,6.33,6.25,2-5.16,8-10.83,12-11.16-5.66,8.5-5.16,10.5-3.58,11.16.92.39,14.58-1.5,16.25-2.5s5.13-7.35,9-13.68c0,4-4,16.68-5,17.43-5,.75-16.5.09-19.25,7.5,5.25-.58,10.25-.41,16.75,7.25,3.25.25,12,1.17,19.32-5.27-1.32,8.27-19.07,12-20.57,11.52s-11.82-6.72-11.5-4.5c.42,2.92,5.25,16.75,11.75,22.5-14.33-.41-22.75-20.25-23-23S665.4,159.06,668.4,148.64Z" transform="translate(-443.56 -125.5)"/></g></g><g id="Glasses"><g class="cls-8"><path class="cls-5" d="M573.38,274.27c12.49-8.09,18.11-33.25,26.64-33.06,9.63.22,6,23.79,34.44,34.91,42.08,16.45,66.57-24.33,63.61-31.06s-71.53-17.53-84.78-17.92-88,3.35-103.92,13.41c-3.66,2.32-10.12,4.58-8.67,10.42C510.91,292.14,563,281,573.38,274.27Z" transform="translate(-443.56 -125.5)"/></g><path class="cls-11" d="M593.23,240.74c2.55-4.35,8.71-4.75,10.9-1.89,5.4,7.05,7.09,16.41,18.4,28.53,12.82,13.73,51.7,11.48,65.72-6.48,8.63-11,16.21-30.7,17.69-33.39s-1.51-11-6.31-12.12-39.47-5.93-92.33,13.23c-5.21,1.89-11.9.93-15.73.24S555,207.1,497.89,219.1c-5.7,1.2-7.55,10.35-5.84,12.35,2.69,3.13,10.56,23.19,18.95,32.69,19.3,21.85,57.86,13.6,65.81,3.89C588.83,253.36,590.72,245,593.23,240.74Z" transform="translate(-443.56 -125.5)"/><g class="cls-23"><path class="cls-29" d="M682.25,217A88,88,0,0,1,699,218.32a5.61,5.61,0,0,1,3,2.89,8.61,8.61,0,0,1,1.32,4.91c-.39.72-1,2.07-1.87,4.09-2.92,6.65-9,20.5-15.52,28.84-6.74,8.63-21,14.2-36.32,14.2-10.93,0-20.22-3-24.84-7.92-6.82-7.3-10-13.5-12.75-19a58.17,58.17,0,0,0-5.47-9.32,8.25,8.25,0,0,0-6.68-3,10.69,10.69,0,0,0-9.19,5.19,46.2,46.2,0,0,0-2.09,4.31c-2.11,4.75-5.31,11.92-14.06,22.61-3.48,4.26-15.55,8.85-29,8.85-7.82,0-22.42-1.67-32.27-12.82-5.13-5.81-10.17-16-13.86-23.46-2.41-4.89-3.78-7.6-4.9-9a8.87,8.87,0,0,1,1.17-5.14,4.73,4.73,0,0,1,2.85-2.51,163.51,163.51,0,0,1,33.6-3.63c28.73,0,47,8.28,54.86,11.81a20.1,20.1,0,0,0,4.07,1.59,50.21,50.21,0,0,0,9,.92,24.3,24.3,0,0,0,8.31-1.29c32.84-11.9,58.33-14.4,73.93-14.4m0-3c-16,0-41.91,2.61-75,14.58a21.47,21.47,0,0,1-7.29,1.11,48.24,48.24,0,0,1-8.44-.87c-3-.54-23.54-13.44-59.46-13.45a166.12,166.12,0,0,0-34.22,3.69c-5.7,1.2-7.55,10.35-5.84,12.35,2.69,3.13,10.56,23.19,18.95,32.69,9,10.19,22.2,13.84,34.52,13.84,14.1,0,27.05-4.77,31.29-10,12-14.67,13.91-23,16.42-27.29a7.68,7.68,0,0,1,6.6-3.72,5.34,5.34,0,0,1,4.3,1.83c5.4,7.05,7.09,16.41,18.4,28.53,5.53,5.92,15.9,8.87,27,8.87,14.69,0,30.7-5.14,38.68-15.35,8.63-11,16.21-30.7,17.69-33.39s-1.51-11-6.31-12.12c-1.8-.41-7.8-1.35-17.38-1.35Z" transform="translate(-443.56 -125.5)"/></g><g class="cls-8"><path class="cls-11" d="M547,271c-11.81,0-22.78-3.76-27-7.94h0c-9.19-9.1-13-17.51-11.29-25a17.38,17.38,0,0,1,9.86-11.62c22.24-7.74,48-4.64,59.83,7.23,2.34,2.34,3.26,6.4,2.59,11.43-1,7.35-5.55,16.81-12.32,20.67C562.12,269.52,554.42,271,547,271Zm-3-44.83a74.18,74.18,0,0,0-24.1,4.06,13.48,13.48,0,0,0-7.28,8.73c-1.35,6,2.18,13.31,10.21,21.26h0c5,5,27.91,11.17,43.87,2.09,4.9-2.79,9.34-10.41,10.33-17.73.5-3.7,0-6.64-1.45-8.06C568.86,229.74,557,226.15,544,226.15Z" transform="translate(-443.56 -125.5)"/></g><path class="cls-30" d="M521.45,261.62c5.88,5.83,29.7,11.84,46.27,2.41,9.25-5.26,14.89-23.36,9.3-28.95-10.92-10.92-35.24-14.59-57.75-6.75C516.58,229.26,499.4,239.78,521.45,261.62Z" transform="translate(-443.56 -125.5)"/><g class="cls-8"><path class="cls-11" d="M649.87,271.07a43.4,43.4,0,0,1-20.63-4.78c-6.85-3.71-11.59-13.07-12.74-20.41-.78-5,.06-9.08,2.35-11.48,11.62-12.1,37.27-15.74,59.67-8.46a17.4,17.4,0,0,1,10.1,11.41c1.85,7.44-1.78,15.92-10.77,25.22l-1.44-1.39,1.44,1.39C673.58,267,662.12,271.07,649.87,271.07Zm4.7-44.91c-13.58,0-26,3.86-32.83,11-1.39,1.45-1.86,4.41-1.29,8.1,1.14,7.29,5.74,14.82,10.7,17.51,16.14,8.74,38.92,2.06,43.82-3,7.86-8.11,11.24-15.54,9.77-21.46a13.44,13.44,0,0,0-7.46-8.58A74.14,74.14,0,0,0,654.57,226.16Z" transform="translate(-443.56 -125.5)"/></g><path class="cls-30" d="M676.41,261.18c-5.76,5.94-29.45,12.44-46.21,3.36-9.35-5.07-15.38-23.05-9.9-28.75,10.69-11.14,34.94-15.31,57.6-7.95C680.61,228.72,698,238.88,676.41,261.18Z" transform="translate(-443.56 -125.5)"/><path d="M550.17,246.86c-.42,5.51-2.92,9.82-5.58,9.62s-4.47-4.84-4.05-10.36,2.92-9.82,5.58-9.61S550.59,241.34,550.17,246.86Z" transform="translate(-443.56 -125.5)"/><path d="M656.41,245.27c.94,5.45-.44,10.24-3.07,10.68s-5.51-3.6-6.44-9,.44-10.24,3.07-10.69S655.48,239.82,656.41,245.27Z" transform="translate(-443.56 -125.5)"/><g class="cls-31"><path class="cls-11" d="M506.86,232.86c11.59-17,34-10.2,38.64-9.56-29.77,4.13-30.16,6.4-35,12-.5,4.11-4.15,12.1,11.43,28.12C505.06,253.86,504.08,236.94,506.86,232.86Z" transform="translate(-443.56 -125.5)"/></g><g class="cls-31"><path class="cls-11" d="M690.12,228.21c-9.78-11-44-8-51.32-3.15,25.07-4.82,42.14.74,47.8,10.32,4.08,11.67-3.62,19-9.63,26.76C695.34,254.42,693.39,231.9,690.12,228.21Z" transform="translate(-443.56 -125.5)"/></g><g class="cls-23"><path class="cls-32" d="M513,251.34c.24-12.33.67-22.18,24.78-24.53,19.32-1.88,34.75,6.27,37.33,10.77,1.63,2.83,2.27,13.42-6.65,26,10-4.67,14-24,10.38-27.74-16.48-17-48.85-12.58-60.15-7.65a22.34,22.34,0,0,0-7.45,6.22A17.75,17.75,0,0,0,513,251.34Z" transform="translate(-443.56 -125.5)"/></g><g class="cls-23"><path class="cls-32" d="M684.7,252.76c-.33-12.33-.62-23.92-24.75-26.08C640.62,225,623,234.1,620.48,238.62c-1.6,2.84-.51,12.83,8.51,25.33-9-5.26-14.54-22.21-11.23-26.16,16.41-19.61,50.62-14.91,62-10.07,2.08.89,6.39,6.92,8.48,9.63C689.91,242.92,685.8,251.12,684.7,252.76Z" transform="translate(-443.56 -125.5)"/></g><g class="cls-33"><circle class="cls-30" cx="103.98" cy="114.49" r="1.41"/></g><g class="cls-33"><circle class="cls-30" cx="209.28" cy="113.2" r="1.41"/></g><path class="cls-34" d="M666.41,183.75" transform="translate(-443.56 -125.5)"/><path class="cls-35" d="M696.85,221.55a9,9,0,0,1-4.59,4.07c-.62.19-1.23,2,.6,3.41s4.71,1.27,5.57.42c-.9-.24-1.89-1.24-1.22-1.47.33-.11,1.62-.95,1.16-2.17-1.08.39-3.13.6-2.54,0C696.68,225,698.34,223.14,696.85,221.55Z" transform="translate(-443.56 -125.5)"/><path class="cls-35" d="M500.25,224.06a9,9,0,0,0,4.27,4.41c.6.23,1.07,2.12-.86,3.35s-4.79.92-5.58,0c.91-.17,2-1.09,1.32-1.37-.31-.13-1.54-1.07-1-2.25,1,.46,3.08.83,2.53.21C500.15,227.54,498.64,225.54,500.25,224.06Z" transform="translate(-443.56 -125.5)"/><g class="cls-31"><path class="cls-11" d="M593.4,236.39c-6-.25-16.25,25.25-23.67,29.67-3.48,2.07-30.58,7.08-53-4,19.67,18.08,54.34,7.67,57.34,4.67S594,246.06,593.4,236.39Z" transform="translate(-443.56 -125.5)"/></g><g class="cls-31"><path class="cls-11" d="M703.4,230.39c-3,11.5-19.25,32.75-23.5,36.75-1.68,1.58-16.5,13.25-48.75,7.25,22.25,10.25,48-1.72,51.5-4.75C697.9,256.39,706.65,230.14,703.4,230.39Z" transform="translate(-443.56 -125.5)"/></g></g><g id="Bangs"><path class="cls-17" d="M680.73,193.39c.67,5,8,13.67,21.34,15.34-9-5.67-12-27-15.34-30.67" transform="translate(-443.56 -125.5)"/><path class="cls-18" d="M702.07,210.23l-.19,0c-14.16-1.77-21.88-11-22.64-16.62a1.5,1.5,0,0,1,3-.4c.47,3.54,5.33,10.22,15,13-3.81-4.94-6.23-12.38-8.26-18.65-1.24-3.83-2.42-7.44-3.38-8.5a1.5,1.5,0,0,1,2.22-2c1.4,1.54,2.49,4.91,4,9.59,2.39,7.36,5.66,17.44,11,20.82a1.49,1.49,0,0,1,.62,1.77A1.52,1.52,0,0,1,702.07,210.23Z" transform="translate(-443.56 -125.5)"/><path class="cls-17" d="M690.73,187.73c-29.5-10.5-109.08,39.54-174.58,42.54,3.33-.67,43.5-10.5,56.25-30.21.43-1.44-62.37,22.95-62.33,21.33,7.33-2.25,32.83-11.75,38.58-19-20,8.5-38.22,13.29-38.1,12.3,2.83-23.76,16.71-43.53,21.85-48.8C565.4,132.06,670.07,120.73,690.73,187.73Z" transform="translate(-443.56 -125.5)"/><path class="cls-18" d="M516.15,231.77a1.5,1.5,0,0,1-.29-3c.39-.08,37.65-8.5,52.77-26.21-5.29,1.77-15.14,5.37-24.12,8.65-33.92,12.4-34.21,12.19-35.29,11.42a1.58,1.58,0,0,1-.65-1.31,1.49,1.49,0,0,1,1.06-1.39,189.57,189.57,0,0,0,28-11.55c-6.29,2.34-11.42,4-14.51,4.94-12,3.68-12.84,3-13.41,2.61a1.68,1.68,0,0,1-.62-1.45c2.75-23.1,16.19-43.44,22.26-49.66,10.11-10.36,27.25-19,47-23.64,20.63-4.86,42.12-5.09,60.49-.65,19.18,4.62,44,16.49,53.32,46.72a1.5,1.5,0,0,1-1.94,1.86C675.92,184.05,648.62,194,617,205.5c-31.86,11.61-68,24.76-100.8,26.27Zm56.31-33.25a1.16,1.16,0,0,1,1,.41,1.56,1.56,0,0,1,.41,1.56,1.19,1.19,0,0,1-.17.38c-8.34,12.89-27.84,21.56-41.75,26.34,28-4.08,57.5-14.85,84.08-24.53,30.27-11,56.66-20.63,72.43-17.17-9.51-26.93-32.43-37.73-50.27-42-35.88-8.66-83.82,2.09-104.68,23.47-5.69,5.84-18.1,24.58-21.2,46.2,4.63-.9,19.27-5.11,35.79-12.13a1.5,1.5,0,0,1,1.76,2.31,25,25,0,0,1-6.09,5C565.53,200.37,570.76,198.52,572.46,198.52Z" transform="translate(-443.56 -125.5)"/><path class="cls-17" d="M631.73,192.39c-3.66,9-27.33,15.5-49.66,30.67,55-24,110.33-13,105.33-43" transform="translate(-443.56 -125.5)"/><path class="cls-18" d="M582.07,224.56a1.5,1.5,0,0,1-.85-2.74c9.63-6.54,19.32-11.39,27.87-15.67,10.82-5.41,19.37-9.69,21.25-14.32a1.5,1.5,0,1,1,2.78,1.13c-2.31,5.68-10.86,9.95-22.69,15.87-4.23,2.12-8.73,4.38-13.36,6.91,17-5.65,33.58-8.62,47.5-11.11,29-5.19,44-8.63,41.35-24.32a1.5,1.5,0,1,1,3-.5c3.22,19.36-16.49,22.89-43.78,27.77-18,3.23-40.4,7.24-62.43,16.85A1.44,1.44,0,0,1,582.07,224.56Z" transform="translate(-443.56 -125.5)"/><g class="cls-4"><path class="cls-17" d="M669.9,157.39c26.17,40-59,46.5-85.75,65.25,36-19.25,104.25-13.75,103.58-40.41C687.62,177.71,681.07,165.39,669.9,157.39Z" transform="translate(-443.56 -125.5)"/></g><path class="cls-17" d="M559.4,194.14c-11.5,12.34-49.67,27.92-64.33,34.25,21.94-6.37,63.91-16,78.58-29.62" transform="translate(-443.56 -125.5)"/><path class="cls-18" d="M495.07,229.89a1.5,1.5,0,0,1-.6-2.87l4.4-1.89c16-6.82,49.16-21,59.43-32a1.5,1.5,0,0,1,2.2,2c-8,8.57-28.08,18.45-45,26,21.35-5.95,46.57-13.69,57.1-23.5a1.5,1.5,0,0,1,2,2.2c-12.53,11.67-44,20.28-67,26.57-4.42,1.21-8.59,2.35-12.18,3.39A1.45,1.45,0,0,1,495.07,229.89Z" transform="translate(-443.56 -125.5)"/><path class="cls-17" d="M516.23,193.39c-2.16,3.42-7.83,21-12.33,23.5,3.5,1,42.08-12.33,45.33-14.83" transform="translate(-443.56 -125.5)"/><path class="cls-18" d="M504.22,218.41a2.41,2.41,0,0,1-.73-.08,1.48,1.48,0,0,1-1.08-1.27,1.5,1.5,0,0,1,.76-1.48c2.61-1.45,6.42-10.65,8.7-16.15a57.81,57.81,0,0,1,3.1-6.84,1.5,1.5,0,0,1,2.53,1.61,61,61,0,0,0-2.86,6.38c-2.47,6-4.67,11.06-6.84,14.31,3.73-.88,10.18-2.76,18.75-5.65,12-4,20.61-7.48,21.77-8.37a1.5,1.5,0,0,1,1.83,2.38C547.4,205.36,511.09,218.41,504.22,218.41Z" transform="translate(-443.56 -125.5)"/><g class="cls-4"><path class="cls-17" d="M617.65,192.64c-11.75,11.25-68.5,34-91.5,36.25,53-6,103.75-29,105.58-36.5C632.34,189.9,619.76,190.63,617.65,192.64Z" transform="translate(-443.56 -125.5)"/></g><g class="cls-4"><path class="cls-17" d="M542.65,197.14c-3.86,3.55-20.5,16-37.25,19.75,24-5,47.25-14.5,54.75-23C561.44,192.43,548.9,191.39,542.65,197.14Z" transform="translate(-443.56 -125.5)"/></g><g class="cls-8"><path class="cls-17" d="M496.9,227.89c36.5-8.25,74.5-29,75.75-31C570.15,203.39,558.15,212.14,496.9,227.89Z" transform="translate(-443.56 -125.5)"/></g><g class="cls-8"><path class="cls-17" d="M689.15,183.39c.5,9-5.75,15.25,4.75,23.25-4-.75-11.5-8.25-11.5-10.5S688.4,181.89,689.15,183.39Z" transform="translate(-443.56 -125.5)"/></g><g class="cls-20"><path class="cls-19" d="M547.65,220.89c26.25-8.5,29.75-22,30.25-23C572.65,205.89,559.4,217.14,547.65,220.89Z" transform="translate(-443.56 -125.5)"/></g><g class="cls-20"><path class="cls-19" d="M560.4,196.64c-5.5,7-30.25,18.5-36,21.25C531.9,215.64,560.9,202.39,560.4,196.64Z" transform="translate(-443.56 -125.5)"/></g><g class="cls-20"><path class="cls-19" d="M633.9,193.89c-3,7.25-21.75,14-24.25,16.5C613.65,207.14,634.4,202.14,633.9,193.89Z" transform="translate(-443.56 -125.5)"/></g><g class="cls-20"><path class="cls-19" d="M618.4,142.39c-73.5-4.5-96.5,39-101.5,55.5C522.4,189.39,542.9,142.39,618.4,142.39Z" transform="translate(-443.56 -125.5)"/></g></g></g></g></g></svg>