<?xml version="1.0" encoding="UTF-8"?>
<svg width="150px" height="45px" viewBox="0 0 150 45" version="1.1" xmlns="http://www.w3.org/2000/svg" xmlns:xlink="http://www.w3.org/1999/xlink">
    <!-- Generator: Sketch 51.2 (57519) - http://www.bohemiancoding.com/sketch -->
    <title>Acorn-Header-Logo</title>
    <desc>Created with Sketch.</desc>
    <defs>
        <polygon id="path-1" points="0 0.110845588 32.7125652 0.110845588 32.7125652 43.7869853 0 43.7869853"></polygon>
        <polygon id="path-3" points="0.118915802 0.338044983 6.45916955 0.338044983 6.45916955 5.19031142 0.118915802 5.19031142"></polygon>
        <polygon id="path-5" points="0.303153507 0.337577855 6.02161843 0.337577855 6.02161843 5.19031142 0.303153507 5.19031142"></polygon>
        <polygon id="path-7" points="0.0118800461 0.337941176 6.45651672 0.337941176 6.45651672 5.19031142 0.0118800461 5.19031142"></polygon>
    </defs>
    <g id="Finals" stroke="none" stroke-width="1" fill="none" fill-rule="evenodd">
        <g id="Acorn-Homepage" transform="translate(-120.000000, -23.000000)">
            <g id="Acorn-Header-Logo" transform="translate(120.000000, 23.000000)">
                <path d="M37.1972318,31.1418685 L40.1091977,31.1418685 L43.6311846,24.1902384 L55.607266,24.1902384 L59.1298054,31.1418685 L64.0138408,31.1418685 L52.5543985,8.65051903 L43.725119,8.65051903 L43.725119,9.38570775 C45.6038067,9.5855595 47.3415928,9.61932947 47.3415928,10.9562879 C47.3415928,11.1904632 46.8249536,12.359679 46.5431505,12.9282323 L37.1972318,31.1418685 Z M49.4551164,12.861246 L54.8088237,22.6196583 L44.4296269,22.6196583 L49.4551164,12.861246 Z" id="Fill-1" fill="#FFFFFF"></path>
                <path d="M37.1972318,31.1418685 L40.1091977,31.1418685 L43.6311846,24.1902384 L55.607266,24.1902384 L59.1298054,31.1418685 L64.0138408,31.1418685 L52.5543985,8.65051903 L43.725119,8.65051903 L43.725119,9.38570775 C45.6038067,9.5855595 47.3415928,9.61932947 47.3415928,10.9562879 C47.3415928,11.1904632 46.8249536,12.359679 46.5431505,12.9282323 L37.1972318,31.1418685 Z M49.4551164,12.861246 L54.8088237,22.6196583 L44.4296269,22.6196583 L49.4551164,12.861246 Z" id="Stroke-3"></path>
                <path d="M83.0563545,30.3317816 C81.3489942,30.7706486 80.2587387,31.1418685 76.3195349,31.1418685 C69.6803586,31.1418685 65.7439446,27.8008891 65.7439446,22.704442 C65.7439446,18.0809648 68.3998384,14.7058824 75.1812948,14.7058824 C80.4484454,14.7058824 83.9100346,16.5960851 83.9100346,19.3293595 L78.3114552,19.3293595 C78.3114552,17.9462298 77.8371885,15.8536452 74.8967347,15.8536452 C71.6722789,15.8536452 70.9608788,18.3509937 70.9608788,21.5907822 C70.9608788,26.5860383 74.1858926,29.3193128 78.5011619,29.3193128 C79.9741786,29.3193128 81.9186723,29.1169309 83.0563545,28.8469019 L83.0563545,30.3317816 Z" id="Fill-5" fill="#FFFFFF"></path>
                <path d="M83.0563545,30.3317816 C81.3489942,30.7706486 80.2587387,31.1418685 76.3195349,31.1418685 C69.6803586,31.1418685 65.7439446,27.8008891 65.7439446,22.704442 C65.7439446,18.0809648 68.3998384,14.7058824 75.1812948,14.7058824 C80.4484454,14.7058824 83.9100346,16.5960851 83.9100346,19.3293595 L78.3114552,19.3293595 C78.3114552,17.9462298 77.8371885,15.8536452 74.8967347,15.8536452 C71.6722789,15.8536452 70.9608788,18.3509937 70.9608788,21.5907822 C70.9608788,26.5860383 74.1858926,29.3193128 78.5011619,29.3193128 C79.9741786,29.3193128 81.9186723,29.1169309 83.0563545,28.8469019 L83.0563545,30.3317816 Z" id="Stroke-7"></path>
                <path d="M96.4532872,31.1418685 C103.269405,31.1418685 106.401384,28.442138 106.401384,22.940927 C106.401384,18.0809648 103.13123,14.7058824 96.4532872,14.7058824 C89.7287443,14.7058824 86.5051903,17.3044219 86.5051903,22.940927 C86.5051903,27.6655951 89.0378666,31.1418685 96.4532872,31.1418685 M91.5710848,22.940927 C91.5710848,19.9711675 91.8940363,15.8530861 96.4532872,15.8530861 C100.920421,15.8530861 101.33549,19.8353144 101.33549,22.940927 C101.33549,26.3154503 100.96648,29.9941057 96.4532872,29.9941057 C91.8940363,29.9941057 91.5710848,25.7418484 91.5710848,22.940927" id="Fill-9" fill="#FFFFFF"></path>
                <path d="M96.4532872,31.1418685 C103.269405,31.1418685 106.401384,28.442138 106.401384,22.940927 C106.401384,18.0809648 103.13123,14.7058824 96.4532872,14.7058824 C89.7287443,14.7058824 86.5051903,17.3044219 86.5051903,22.940927 C86.5051903,27.6655951 89.0378666,31.1418685 96.4532872,31.1418685 Z M91.5710848,22.940927 C91.5710848,19.9711675 91.8940363,15.8530861 96.4532872,15.8530861 C100.920421,15.8530861 101.33549,19.8353144 101.33549,22.940927 C101.33549,26.3154503 100.96648,29.9941057 96.4532872,29.9941057 C91.8940363,29.9941057 91.5710848,25.7418484 91.5710848,22.940927 Z" id="Stroke-11"></path>
                <path d="M112.603024,19.3182081 C112.603024,17.0283011 111.873025,16.4723511 108.99654,16.4073277 L108.99654,15.7533008 L117.168874,14.7058824 L117.168874,19.0239773 L117.260191,19.0239773 C117.898873,17.5197695 119.314824,14.7058824 122.966967,14.7058824 C123.78882,14.7058824 124.656331,14.7714476 125.432526,14.8695245 L125.432526,17.9771007 C124.70199,17.8140004 123.880137,17.5847929 123.103942,17.5847929 C118.492971,17.5847929 117.168874,20.1689308 117.168874,22.4588378 L117.168874,30.2768166 L112.603024,30.2768166 L112.603024,19.3182081 Z" id="Fill-13" fill="#FFFFFF"></path>
                <path d="M112.603024,19.3182081 C112.603024,17.0283011 111.873025,16.4723511 108.99654,16.4073277 L108.99654,15.7533008 L117.168874,14.7058824 L117.168874,19.0239773 L117.260191,19.0239773 C117.898873,17.5197695 119.314824,14.7058824 122.966967,14.7058824 C123.78882,14.7058824 124.656331,14.7714476 125.432526,14.8695245 L125.432526,17.9771007 C124.70199,17.8140004 123.880137,17.5847929 123.103942,17.5847929 C118.492971,17.5847929 117.168874,20.1689308 117.168874,22.4588378 L117.168874,30.2768166 L112.603024,30.2768166 L112.603024,19.3182081 Z" id="Stroke-15"></path>
                <path d="M130.843437,19.3182081 C130.843437,17.0283011 130.061692,16.4723511 127.16263,16.4073277 L127.16263,15.7533008 L135.445122,14.7058824 L135.445122,18.8933886 L135.537156,18.8933886 C136.226867,17.7484351 138.665761,14.7058824 143.221429,14.7058824 C147.408963,14.7058824 148.788927,16.8001773 148.788927,19.3182081 L148.788927,30.2768166 L144.187783,30.2768166 L144.187783,21.8048109 C144.187783,19.2201311 144.187783,16.930766 141.104654,16.930766 C138.068083,16.930766 135.445122,19.9727769 135.445122,22.2951956 L135.445122,30.2768166 L130.843437,30.2768166 L130.843437,19.3182081 Z" id="Fill-17" fill="#FFFFFF"></path>
                <path d="M130.843437,19.3182081 C130.843437,17.0283011 130.061692,16.4723511 127.16263,16.4073277 L127.16263,15.7533008 L135.445122,14.7058824 L135.445122,18.8933886 L135.537156,18.8933886 C136.226867,17.7484351 138.665761,14.7058824 143.221429,14.7058824 C147.408963,14.7058824 148.788927,16.8001773 148.788927,19.3182081 L148.788927,30.2768166 L144.187783,30.2768166 L144.187783,21.8048109 C144.187783,19.2201311 144.187783,16.930766 141.104654,16.930766 C138.068083,16.930766 135.445122,19.9727769 135.445122,22.2951956 L135.445122,30.2768166 L130.843437,30.2768166 L130.843437,19.3182081 Z" id="Stroke-19"></path>
                <g id="Group-27">
                    <mask id="mask-2" fill="white">
                        <use xlink:href="#path-1"></use>
                    </mask>
                    <g id="Clip-26"></g>
                    <path d="M27.6672434,25.4958088 C27.5302768,24.5307353 27.2256632,21.8428676 25.3618224,19.8890074 C21.5442907,15.8880882 17.2616205,13.6629044 12.3954729,13.3634559 C7.11020761,13.0380882 6.42701845,14.2755882 6.1361015,14.3445221 C5.95530565,12.0118015 7.46741638,8.97375 9.38220877,8.46915441 C11.3682238,7.71088235 12.4601211,7.92540441 12.8748558,7.84875 C15.4602364,7.92761029 18.1760092,8.94176471 20.2710496,10.0546324 C23.8508074,11.9489338 28.0885525,14.6869853 30.1737313,19.7588603 C32.7437716,26.0097794 27.8096886,26.4989338 27.6672434,25.4958088 M32.705421,23.2413971 C32.4879181,18.170625 29.6050461,14.9599632 26.0378893,11.6880882 C25.4182526,11.1217279 22.7326125,9.33220588 22.4975779,9.16455882 C21.9875144,8.80003676 24.26609,5.3175 26.7084775,4.333125 C27.8184544,3.88533088 29.310842,3.75849265 29.310842,3.71272059 C30.2581027,2.25904412 29.1957901,0.532389706 28.8955594,0.110514706 C28.3822088,0.267683824 24.5192042,1.155 22.2570646,4.333125 C21.1065456,5.94948529 20.6162053,8.19231618 20.4474625,8.10573529 C19.1123126,7.41474265 17.6478662,6.96805147 16.1642445,6.59139706 C12.5932526,5.67761029 7.5561707,5.99691176 5.90216263,9.11878676 C5.35320069,10.1544485 5.01461938,11.4101471 4.97736448,12.6840441 C4.94887543,13.4947059 5.1050173,14.5618015 4.81738754,15.2649265 C4.31992503,15.9636397 3.81862745,16.6590441 3.3217128,17.3577574 C2.32733564,18.8963603 1.64085928,20.6665809 1.1850346,22.4864338 C0.564302191,24.9311029 0,27.5985662 0,30.3901103 C0,31.5735662 0.325980392,32.6858824 0.576903114,33.7408456 C0.979584775,35.4564706 1.78056517,36.9829412 2.0150519,38.7652941 C2.10544983,39.4689706 1.99039792,40.1925 1.96136101,40.8757721 C1.95752595,41.8469118 1.94930796,42.8152941 1.94108997,43.7869853 L2.33555363,43.7869853 C2.41335063,43.3033456 2.48731257,42.8152941 2.56127451,42.3272426 C2.66427336,41.2265074 2.80397924,39.9983824 2.68070934,38.8937868 C2.54922145,37.7489338 2.42156863,36.6437868 2.19968281,35.5811029 C1.95478662,34.4334926 1.59922145,34.0176838 1.30118224,31.7687868 C0.811937716,28.1417647 1.91753172,23.4967279 3.28719723,20.5325735 C3.54907728,19.9662132 4.66672434,16.7632721 7.25922722,15.7072059 C10.5957324,14.3963603 14.8181373,15.2152941 18.0111015,16.5344118 C20.8337082,17.7007721 25.2467705,21.3035294 26.0850058,24.6084926 C27.0711649,28.5129044 21.8543829,36.1954412 18.6959343,37.9728309 C13.5509227,40.8680515 11.74406,39.9189706 6.81326413,40.539375 C4.6365917,41.1730147 3.18529412,43.3154779 3.21871396,43.4186029 C3.21871396,43.4186029 5.57946943,42.0917647 6.16349481,41.833125 C7.8772203,41.0754044 9.57396194,41.6704412 13.0879758,41.4377206 C24.5679642,40.6777941 27.2267589,28.8950735 27.2864764,28.8945221 C27.3352364,28.8939706 28.0080161,29.0969118 28.5684833,29.0494853 C29.6768166,28.9551838 30.5714821,28.2200735 31.3450692,27.4700735 C32.1142734,26.7244853 32.7897924,25.1952574 32.705421,23.2413971" id="Fill-25" fill="#FFFFFF" mask="url(#mask-2)"></path>
                </g>
                <path d="M4.48198512,23.7116533 C5.4201894,20.0218519 8.83136932,17.3010381 8.83136932,17.3010381 L11.2456747,17.3893324 C11.2456747,17.3893324 7.62525502,21.2321022 6.24209165,23.81232 C4.57440369,26.9234283 3.83297828,33.3458536 3.74055971,32.844207 C3.04067074,29.0520517 3.78884582,26.4392157 4.48198512,23.7116533" id="Fill-28" fill="#FEFEFE"></path>
                <path d="M38.2618013,44.1176471 L36.3321799,38.9273356 L37.4365578,38.9273356 L38.4399609,41.9231521 L38.8137259,43.037807 C38.8295858,42.9821032 38.9384904,42.6252512 39.1404399,41.9672508 L40.143843,38.9273356 L41.2424055,38.9273356 L42.1860696,41.9382385 L42.501153,42.929881 L42.8632874,41.9283743 L43.9438754,38.9273356 L44.982699,38.9273356 L43.0113132,44.1176471 L41.9011201,44.1176471 L40.897717,41.0092627 L40.6545318,40.1249659 L39.3778097,44.1176471 L38.2618013,44.1176471 Z" id="Fill-30" fill="#FFFFFF"></path>
                <g id="Group-34" transform="translate(47.577855, 38.927336)">
                    <mask id="mask-4" fill="white">
                        <use xlink:href="#path-3"></use>
                    </mask>
                    <g id="Clip-33"></g>
                    <path d="M1.38823529,2.31814879 L5.22906574,2.31814879 C5.17716263,1.92783737 5.03010381,1.63458478 4.78846597,1.43942907 C4.41707036,1.13631488 3.9355248,0.984757785 3.344406,0.984757785 C2.80865052,0.984757785 2.35882353,1.10569204 1.99377163,1.34756055 C1.62871972,1.58942907 1.42687428,1.91278547 1.38823529,2.31814879 M5.21580161,3.59029412 L6.42053057,3.69098616 C6.23021915,4.16589965 5.87900807,4.5349308 5.36516724,4.79652249 C4.85074971,5.05915225 4.19504037,5.19046713 3.39573241,5.19046713 C2.3899654,5.19046713 1.59238754,4.98129758 1.00299885,4.56295848 C0.41361015,4.14513841 0.118915802,3.55811419 0.118915802,2.80344291 C0.118915802,2.02230104 0.416493656,1.41607266 1.01280277,0.984757785 C1.60853518,0.553442907 2.38131488,0.338044983 3.33114187,0.338044983 C4.25098039,0.338044983 5.00242215,0.548771626 5.58489043,0.971782007 C6.16793541,1.39427336 6.45916955,1.98856401 6.45916955,2.75517301 C6.45916955,2.80188581 6.45743945,2.87195502 6.45282584,2.96538062 L1.32364475,2.96538062 C1.36632065,3.4750692 1.58027682,3.86538062 1.96493656,4.13683391 C2.34901961,4.40776817 2.82825836,4.54323529 3.40265283,4.54323529 C3.82998847,4.54323529 4.19504037,4.46745675 4.49723183,4.31589965 C4.7994233,4.16434256 5.03875433,3.92247405 5.21580161,3.59029412" id="Fill-32" fill="#FFFFFF" mask="url(#mask-4)"></path>
                </g>
                <path d="M58.1782741,41.5027778 C58.1782741,42.0944595 58.2924379,42.5218159 58.52018,42.7848468 C58.8925295,43.2149602 59.3971919,43.4305684 60.0324108,43.4305684 C60.5493678,43.4305684 60.9966555,43.2717573 61.3736887,42.954135 C61.7507219,42.6370642 61.9392384,42.1639394 61.9392384,41.535312 C61.9392384,40.8912447 61.7583328,40.4159142 61.3971069,40.1093205 C61.0352956,39.8027268 60.5979605,39.64943 60.0851018,39.64943 C59.5681448,39.64943 59.120857,39.8082411 58.7438239,40.1258633 C58.3667907,40.4434856 58.1782741,40.9022733 58.1782741,41.5027778 Z M58.1911541,44.0062587 L57.0934256,44.0062587 L57.0934256,37.1972318 L58.2766306,37.1972318 L58.2766306,39.62627 C58.7766094,39.1834737 59.4141701,38.9623513 60.1904837,38.9623513 C60.6196224,38.9623513 61.0265138,39.0235597 61.4099869,39.1459766 C61.7934601,39.2678421 62.1090205,39.4398875 62.356668,39.6615614 C62.6043156,39.8826838 62.7981013,40.1495747 62.9386105,40.4622341 C63.0791198,40.7754449 63.1487889,41.10961 63.1487889,41.4658322 C63.1487889,42.3111705 62.853134,42.9640607 62.2612388,43.4256055 C61.6693436,43.8871504 60.9591864,44.1176471 60.1307673,44.1176471 C59.3070318,44.1176471 58.6606892,43.8744675 58.1911541,43.3886599 L58.1911541,44.0062587 Z" id="Fill-35" fill="#FFFFFF"></path>
                <g id="Group-39" transform="translate(70.069204, 38.927336)">
                    <mask id="mask-6" fill="white">
                        <use xlink:href="#path-5"></use>
                    </mask>
                    <g id="Clip-38"></g>
                    <path d="M4.92724913,3.38480969 L6.02161843,3.48550173 C5.90216263,4.01854671 5.59609154,4.43584775 5.10340516,4.73792388 C4.61071878,5.03948097 4.00628342,5.19051903 3.28899811,5.19051903 C2.39060239,5.19051903 1.66836269,4.98290657 1.12227902,4.56716263 C0.576195344,4.15193772 0.303153507,3.556609 0.303153507,2.78117647 C0.303153507,2.28031142 0.420407361,1.8417301 0.655465555,1.46543253 C0.89052375,1.08965398 1.24779019,0.807820069 1.72781535,0.619411765 C2.208391,0.431522491 2.73025322,0.337577855 3.29505348,0.337577855 C4.00848537,0.337577855 4.59145171,0.465259516 5.04450299,0.720103806 C5.49810475,0.974948097 5.78876219,1.33723183 5.91647531,1.80643599 L4.83476722,1.92477509 C4.73182605,1.61283737 4.54906417,1.37823529 4.28758257,1.22096886 C4.02555049,1.06318339 3.70957062,0.984290657 3.33854199,0.984290657 C2.77814564,0.984290657 2.32234193,1.12650519 1.97223183,1.41093426 C1.62212174,1.69536332 1.4465162,2.14484429 1.4465162,2.75937716 C1.4465162,3.3832526 1.61551589,3.83636678 1.95351526,4.11923875 C2.29151463,4.4015917 2.73245517,4.5432872 3.2763369,4.5432872 C3.71342403,4.5432872 4.07839729,4.4483045 4.3707062,4.25937716 C4.66356559,4.06941176 4.8490799,3.77823529 4.92724913,3.38480969" id="Fill-37" fill="#FFFFFF" mask="url(#mask-6)"></path>
                </g>
                <g id="Group-42" transform="translate(77.854671, 38.927336)">
                    <mask id="mask-8" fill="white">
                        <use xlink:href="#path-7"></use>
                    </mask>
                    <g id="Clip-41"></g>
                    <path d="M1.21026528,2.76389273 C1.21026528,3.35870242 1.40230681,3.80351211 1.78638985,4.09935986 C2.1704729,4.39520761 2.65432526,4.54313149 3.23737024,4.54313149 C3.81580161,4.54313149 4.29734717,4.39468858 4.68200692,4.09728374 C5.06608997,3.80039792 5.25813149,3.34676471 5.25813149,2.73794118 C5.25813149,2.1633737 5.06493656,1.72842561 4.67854671,1.43309689 C4.29215686,1.13724913 3.81176471,0.98932526 3.23737024,0.98932526 C2.65432526,0.98932526 2.1704729,1.13621107 1.78638985,1.43050173 C1.40230681,1.72531142 1.21026528,2.16908304 1.21026528,2.76389273 M0.0118800461,2.76389273 C0.0118800461,1.90437716 0.365974625,1.26752595 1.07416378,0.8533391 C1.66528258,0.509740484 2.38673587,0.337941176 3.23737024,0.337941176 C4.18258362,0.337941176 4.95536332,0.547110727 5.55570934,0.964930796 C6.15605536,1.3832699 6.45651672,1.96095156 6.45651672,2.69849481 C6.45651672,3.29589965 6.32329873,3.76562284 6.05743945,4.10818339 C5.79215686,4.45074394 5.40576701,4.71648789 4.8988466,4.90593426 C4.39134948,5.09538062 3.83771626,5.19036332 3.23737024,5.19036332 C2.27427912,5.19036332 1.49573241,4.9817128 0.902306805,4.5649308 C0.3088812,4.14814879 0.0118800461,3.54814879 0.0118800461,2.76389273" id="Fill-40" fill="#FFFFFF" mask="url(#mask-8)"></path>
                </g>
                <path d="M87.3702422,44.1176471 L87.3702422,39.0419571 L88.3444633,39.0419571 L88.3444633,39.7637322 C88.8136319,39.2059453 89.4911413,38.9273356 90.3775272,38.9273356 C90.7626096,38.9273356 91.1160928,38.9823767 91.4390479,39.0924587 C91.7614674,39.2019733 92.0030142,39.3461013 92.1636884,39.5248428 C92.3243626,39.7030168 92.4362989,39.9152368 92.5005686,40.160368 C92.5407372,40.3198167 92.5605536,40.5984264 92.5605536,40.9967645 L92.5605536,44.1176471 L91.4781453,44.1176471 L91.4781453,41.0302431 C91.4781453,40.6795693 91.43637,40.4174152 91.3522838,40.2437806 C91.2676621,40.0701461 91.1182351,39.9316924 90.9040029,39.8278521 C90.6892351,39.7245793 90.4380478,39.6723754 90.1488343,39.6723754 C89.6876994,39.6723754 89.289763,39.7892667 88.9550252,40.0219143 C88.6202873,40.2539944 88.4526506,40.6954575 88.4526506,41.3457359 L88.4526506,44.1176471 L87.3702422,44.1176471 Z" id="Fill-43" fill="#FFFFFF"></path>
                <path d="M96.0207612,42.5231905 L97.0682557,42.3921697 C97.1269447,42.7258286 97.2909596,42.9812081 97.5597764,43.1594186 C97.8280691,43.3365188 98.2037837,43.4253465 98.6863962,43.4253465 C99.1732008,43.4253465 99.5337191,43.3470671 99.7689993,43.189398 C100.004803,43.032284 100.122181,42.8474115 100.122181,42.6353354 C100.122181,42.4449111 100.018428,42.2955696 99.810396,42.1867557 C99.6652454,42.1118074 99.3047271,42.0163176 98.7277929,41.9008417 C97.9512112,41.7453933 97.4120058,41.6104863 97.1122725,41.4966758 C96.8120152,41.3828654 96.5845952,41.2257514 96.4294884,41.0242237 C96.2743817,40.8232511 96.1973524,40.6011819 96.1973524,40.3580162 C96.1973524,40.1370574 96.2607575,39.9321986 96.3880917,39.7434398 C96.515426,39.554681 96.689397,39.3981223 96.9089569,39.2732084 C97.0740198,39.1766083 97.2982957,39.0949979 97.5828328,39.0278219 C97.8673698,38.960646 98.1723431,38.9273356 98.4982769,38.9273356 C98.9882255,38.9273356 99.4189611,38.9834081 99.7894356,39.095553 C100.160434,39.207698 100.434491,39.3598153 100.611082,39.55135 C100.787673,39.7434398 100.908719,39.9999297 100.975793,40.3208196 L99.9398263,40.4329645 C99.8931895,40.1770298 99.756423,39.9777228 99.5305751,39.8344882 C99.3052511,39.6906984 98.9866535,39.6190811 98.5747822,39.6190811 C98.0879777,39.6190811 97.7405595,39.682926 97.5330519,39.8111709 C97.3250202,39.9388607 97.2212664,40.0882022 97.2212664,40.2597506 C97.2212664,40.3691197 97.2642351,40.4673853 97.3506967,40.5545474 C97.4366342,40.6450406 97.5723526,40.7194338 97.7568038,40.7788373 C97.8626537,40.8104821 98.1744392,40.8815442 98.6926843,40.9942443 C99.4414935,41.1530238 99.9639307,41.2834894 100.26052,41.3845309 C100.556585,41.4855724 100.789245,41.6332483 100.957976,41.8264485 C101.126707,42.0196487 101.211073,42.2594834 101.211073,42.5465078 C101.211073,42.8268701 101.107843,43.0911324 100.901907,43.3392947 C100.695972,43.5869018 100.398858,43.7784364 100.010568,43.9144538 C99.6222767,44.049916 99.1826329,44.1176471 98.6926843,44.1176471 C97.88047,44.1176471 97.2610911,43.9838504 96.8355956,43.7157019 C96.4095761,43.4475534 96.1386633,43.0500496 96.0207612,42.5231905" id="Fill-45" fill="#FFFFFF"></path>
                <path d="M108.02557,44.0030256 L108.02557,43.2574183 C107.526936,43.8310933 106.850639,44.1176471 105.994532,44.1176471 C105.616665,44.1176471 105.263487,44.0603363 104.936074,43.9457148 C104.60866,43.8310933 104.366052,43.6869653 104.207176,43.5133307 C104.0483,43.3396962 103.936657,43.1269087 103.872785,42.8749684 C103.828235,42.7064407 103.806228,42.4386122 103.806228,42.0720504 L103.806228,38.9273356 L104.890987,38.9273356 L104.890987,41.7423717 C104.890987,42.1917788 104.912994,42.4942207 104.957544,42.6502648 C105.02571,42.8766707 105.170631,43.0542773 105.391769,43.183652 C105.612371,43.3124594 105.88611,43.3765793 106.211377,43.3765793 C106.53718,43.3765793 106.842051,43.3107571 107.127598,43.1785451 C107.412609,43.0463332 107.614425,42.8664569 107.733045,42.6383487 C107.851666,42.410808 107.911244,42.0799945 107.911244,41.6470429 L107.911244,38.9273356 L108.99654,38.9273356 L108.99654,44.0030256 L108.02557,44.0030256 Z" id="Fill-47" fill="#FFFFFF"></path>
                <polygon id="Fill-49" fill="#FFFFFF" points="112.456747 44.1176471 113.321799 44.1176471 113.321799 37.1972318 112.456747 37.1972318"></polygon>
                <path d="M120.06852,43.2807015 L120.242215,44.0409933 C119.903748,44.0920958 119.600973,44.1176471 119.333888,44.1176471 C118.896677,44.1176471 118.558806,44.068248 118.318489,43.9694498 C118.077577,43.8706516 117.908047,43.7406241 117.810492,43.5793673 C117.712343,43.4186783 117.663566,43.0796983 117.663566,42.5629952 L117.663566,39.6410673 L116.782007,39.6410673 L116.782007,38.9716245 L117.663566,38.9716245 L117.663566,37.713935 L118.859202,37.1972318 L118.859202,38.9716245 L120.06852,38.9716245 L120.06852,39.6410673 L118.859202,39.6410673 L118.859202,42.6112587 C118.859202,42.8565507 118.880022,43.0144007 118.922256,43.0842408 C118.965084,43.1546487 119.034086,43.2102936 119.129856,43.2517434 C119.225626,43.2931933 119.36244,43.3142021 119.540299,43.3142021 C119.674139,43.3142021 119.850212,43.302846 120.06852,43.2807015" id="Fill-51" fill="#FFFFFF"></path>
                <path d="M126.547469,41.513331 C126.143374,41.6382449 125.536405,41.7442829 124.727112,41.8314451 C124.26899,41.8814106 123.944832,41.9374831 123.75574,41.9996625 C123.565545,42.0618418 123.418902,42.1528902 123.315811,42.2733627 C123.21272,42.39328 123.160898,42.5265215 123.160898,42.6730872 C123.160898,42.897377 123.273913,43.0844703 123.498288,43.234367 C123.723214,43.3837085 124.052885,43.4586568 124.486198,43.4586568 C124.915101,43.4586568 125.296594,43.3875947 125.631226,43.2460256 C125.965308,43.1039013 126.211183,42.910146 126.3683,42.6636492 C126.48793,42.4732249 126.547469,42.1928626 126.547469,41.8220071 L126.547469,41.513331 Z M126.640637,43.3931464 C126.227722,43.6579639 125.830242,43.8450572 125.44875,43.9538711 C125.066706,44.0632401 124.657098,44.1176471 124.219374,44.1176471 C123.497185,44.1176471 122.942036,43.9844056 122.55448,43.7179226 C122.166372,43.4514396 121.972318,43.1111186 121.972318,42.6964044 C121.972318,42.4532387 122.04564,42.2311696 122.192283,42.030197 C122.338375,41.8286692 122.530775,41.6676691 122.767829,41.5460862 C123.004883,41.4245033 123.27281,41.3323446 123.569955,41.2701653 C123.788266,41.2263066 124.118488,41.1846686 124.560622,41.1435858 C125.459775,41.0625306 126.122425,40.9659305 126.547469,40.8537856 C126.55188,40.7383096 126.554085,40.665582 126.554085,40.6344923 C126.554085,40.2913954 126.448237,40.0498952 126.237645,39.9094365 C125.953179,39.7195674 125.529789,39.6240776 124.969128,39.6240776 C124.444852,39.6240776 124.057295,39.6934742 123.807561,39.8322675 C123.558378,39.9710607 123.373145,40.2164471 123.253515,40.5684267 L122.164167,40.4562818 C122.263399,40.1043022 122.42603,39.8200537 122.653712,39.6029811 C122.880292,39.3864636 123.208309,39.2199118 123.637764,39.1027703 C124.066667,38.9856288 124.56393,38.9273356 125.130104,38.9273356 C125.690766,38.9273356 126.146682,38.9773012 126.497853,39.0772323 C126.849025,39.1766083 127.107028,39.3020773 127.271864,39.4536395 C127.436699,39.6046466 127.55247,39.7956261 127.618625,40.0260228 C127.656113,40.1698126 127.674305,40.4285232 127.674305,40.8027097 L127.674305,41.9247141 C127.674305,42.7069527 127.698011,43.202167 127.745421,43.4098016 C127.793384,43.6168811 127.887103,43.815633 128.027682,44.0055021 L126.863358,44.0055021 C126.747588,43.8311778 126.673715,43.6268742 126.640637,43.3931464 Z" id="Fill-52" fill="#FFFFFF"></path>
                <path d="M131.487889,44.1176471 L131.487889,39.0419571 L132.46201,39.0419571 L132.46201,39.7637322 C132.93113,39.2059453 133.609105,38.9273356 134.494864,38.9273356 C134.879907,38.9273356 135.233889,38.9823767 135.556811,39.0924587 C135.879197,39.2019733 136.120719,39.3461013 136.281376,39.5248428 C136.441498,39.7030168 136.553959,39.9152368 136.618222,40.160368 C136.657851,40.3198167 136.678201,40.5984264 136.678201,40.9967645 L136.678201,44.1176471 L135.595904,44.1176471 L135.595904,41.0302431 C135.595904,40.6795693 135.553598,40.4174152 135.46952,40.2437806 C135.384907,40.0701461 135.236031,39.9316924 135.021285,39.8278521 C134.80654,39.7245793 134.555378,39.6723754 134.266195,39.6723754 C133.805643,39.6723754 133.407748,39.7892667 133.072509,40.0219143 C132.737805,40.2539944 132.570186,40.6954575 132.570186,41.3457359 L132.570186,44.1176471 L131.487889,44.1176471 Z" id="Fill-53" fill="#FFFFFF"></path>
                <path d="M142.55987,43.2807015 L142.733564,44.0409933 C142.395098,44.0920958 142.092322,44.1176471 141.825237,44.1176471 C141.388027,44.1176471 141.050155,44.068248 140.809838,43.9694498 C140.568927,43.8706516 140.399396,43.7406241 140.301842,43.5793673 C140.203692,43.4186783 140.154915,43.0796983 140.154915,42.5629952 L140.154915,39.6410673 L139.273356,39.6410673 L139.273356,38.9716245 L140.154915,38.9716245 L140.154915,37.713935 L141.350552,37.1972318 L141.350552,38.9716245 L142.55987,38.9716245 L142.55987,39.6410673 L141.350552,39.6410673 L141.350552,42.6112587 C141.350552,42.8565507 141.371966,43.0144007 141.413605,43.0842408 C141.456434,43.1546487 141.525436,43.2102936 141.621206,43.2517434 C141.716976,43.2931933 141.85379,43.3142021 142.031648,43.3142021 C142.165488,43.3142021 142.341562,43.302846 142.55987,43.2807015" id="Fill-54" fill="#FFFFFF"></path>
                <path d="M144.463668,42.5231905 L145.511162,42.3921697 C145.569851,42.7258286 145.733866,42.9812081 146.003207,43.1594186 C146.2715,43.3365188 146.647214,43.4253465 147.129827,43.4253465 C147.616107,43.4253465 147.97715,43.3470671 148.21243,43.189398 C148.448234,43.032284 148.565612,42.8474115 148.565612,42.6353354 C148.565612,42.4449111 148.461858,42.2955696 148.253303,42.1867557 C148.108676,42.1118074 147.747634,42.0163176 147.170699,41.9008417 C146.394118,41.7453933 145.855436,41.6104863 145.555703,41.4966758 C145.255446,41.3828654 145.027502,41.2257514 144.872919,41.0242237 C144.717812,40.8232511 144.640259,40.6011819 144.640259,40.3580162 C144.640259,40.1370574 144.704188,39.9321986 144.831522,39.7434398 C144.958857,39.554681 145.132304,39.3981223 145.352387,39.2732084 C145.51745,39.1766083 145.741726,39.0949979 146.026263,39.0278219 C146.310276,38.960646 146.61525,38.9273356 146.941707,38.9273356 C147.431656,38.9273356 147.862392,38.9834081 148.232866,39.095553 C148.603865,39.207698 148.877398,39.3598153 149.053989,39.55135 C149.23058,39.7434398 149.35215,39.9999297 149.418699,40.3208196 L148.382733,40.4329645 C148.336096,40.1770298 148.199854,39.9777228 147.974006,39.8344882 C147.748682,39.6906984 147.42956,39.6190811 147.017689,39.6190811 C146.531408,39.6190811 146.18399,39.682926 145.976482,39.8111709 C145.767927,39.9388607 145.664173,40.0882022 145.664173,40.2597506 C145.664173,40.3691197 145.707666,40.4673853 145.793603,40.5545474 C145.880065,40.6450406 146.015259,40.7194338 146.19971,40.7788373 C146.306084,40.8104821 146.617346,40.8815442 147.135591,40.9942443 C147.884924,41.1530238 148.407361,41.2834894 148.703951,41.3845309 C149.000016,41.4855724 149.232676,41.6332483 149.401407,41.8264485 C149.569614,42.0196487 149.653979,42.2594834 149.653979,42.5465078 C149.653979,42.8268701 149.551273,43.0911324 149.345338,43.3392947 C149.139402,43.5869018 148.841765,43.7784364 148.453474,43.9144538 C148.065183,44.049916 147.626064,44.1176471 147.135591,44.1176471 C146.323377,44.1176471 145.704522,43.9838504 145.279026,43.7157019 C144.853007,43.4475534 144.58157,43.0500496 144.463668,42.5231905" id="Fill-55" fill="#FFFFFF"></path>
            </g>
        </g>
    </g>
</svg>