<svg width="713" height="344" xmlns="http://www.w3.org/2000/svg"><g fill="none" fill-rule="nonzero"><g fill="#E04E39"><path d="M689.315 183.242s-16.736 12.969-31.468 11.52c-14.732-1.447-10.106-34.326-10.106-34.326s3.177-30.153-5.5-32.687c-8.656-2.513-19.338 7.857-19.338 7.857s-13.282 14.715-19.636 33.476l-1.748.574s2.025-32.9-.277-40.395c-1.727-3.748-17.61-3.45-20.212 3.173-2.6 6.643-15.307 52.789-16.182 72.124 0 0-24.838 21.06-46.478 24.51-21.66 3.471-26.863-10.093-26.863-10.093s58.908-16.44 56.882-63.458c-2.004-47.019-47.501-29.62-52.64-25.767-4.988 3.748-31.574 19.762-39.335 64.118-.256 1.491-.725 8.092-.725 8.092s-22.812 15.269-35.52 19.315c0 0 35.52-59.71-7.781-86.819-12.178-7.322-22.794-.585-29.109 5.6-3.877 3.8 52.497-57.793 39.492-112.903C416.588.918 403.455-1.893 391.409 2.366c-18.293 7.198-25.222 17.866-25.222 17.866S342.501 54.56 337 105.624c-5.48 51.043-13.56 112.776-13.56 112.776s-11.278 10.967-21.66 11.542c-10.405.553-5.779-30.878-5.779-30.878s8.08-47.87 7.526-55.962c-.597-8.07-1.172-12.393-10.702-15.268-9.53-2.896-19.935 9.22-19.935 9.22s-27.417 41.525-29.72 47.87l-1.471 2.62-1.429-1.746s19.338-56.537.875-57.39c-18.485-.872-30.616 20.188-30.616 20.188s-21.086 35.2-21.96 39.225l-1.428-1.725s8.656-40.95 6.929-51.065c-1.749-10.093-11.257-8.07-11.257-8.07s-12.132-1.448-15.308 6.346c-3.177 7.793-14.732 59.412-16.182 75.851 0 0-30.317 21.635-50.252 21.912-19.913.298-17.887-12.606-17.887-12.606s73.064-24.979 53.13-74.297c-8.955-12.692-19.338-16.674-34.07-16.397-14.732.298-33.004 9.263-44.836 35.796-5.672 12.65-7.718 24.68-8.891 33.752 0 0-12.77 2.62-19.7-3.151-6.95-5.771-10.51 0-10.51 0s-11.897 15.161-.065 19.761c11.854 4.62 30.318 6.772 30.318 6.772 1.705 8.07 6.63 21.805 21.064 32.73 21.661 16.439 63.214-1.512 63.214-1.512l17.035-9.54s.576 15.609 13.005 17.887c12.409 2.279 17.61-.043 39.272-52.534 12.707-26.83 13.581-25.383 13.581-25.383 1.428-.298-8.379 51.043-4.627 64.885 3.753 13.863 20.212 12.415 20.212 12.415s8.954 1.724 16.182-23.659c7.206-25.383 21.086-53.364 21.086-53.364 1.705 0-4.35 52.491 4.882 69.229 9.253 16.737 33.217 5.621 33.217 5.621s16.757-8.432 19.358-11.03c0 0 19.87 16.908 47.907 13.841 62.681-12.33 84.982-28.982 84.982-28.982s10.767 27.258 44.133 29.792c38.099 2.874 58.907-21.06 58.907-21.06s-.298 15.566 12.984 21.06c13.304 5.472 22.237-25.341 22.237-25.341l22.237-61.2c2.025 0 3.177 39.799 25.136 46.145 21.939 6.345 50.53-14.864 50.53-14.864s6.928-3.812 5.777-15.353c-1.173-11.542-11.556-7.24-11.556-7.24zM110.9 154.367c7.782 7.496 4.903 23.637-9.829 33.73-14.71 10.116-21.363 8.093-21.363 8.093.875-34.327 23.41-49.34 31.192-41.823zM398.23 35.82c4.904 25.958-43.024 103.257-43.024 103.257.576-17.312 17.61-75.851 17.61-75.851s20.49-53.364 25.414-27.406zm-47.373 196.996s-3.752-12.691 6.93-48.168c10.702-35.477 35.817-21.635 35.817-21.635s17.333 13.266 3.752 48.743c-13.56 35.477-46.499 21.06-46.499 21.06zm146.128-69.505c11.833-21.636 21.086-9.817 21.086-9.817s10.106 10.967-1.45 27.406c-11.555 16.44-28.292 15.29-28.292 15.29s-3.176-11.265 8.656-32.88z"/><path d="M615.02 251.862v-4.273h2.634c.365 0 .73.04 1.115.08.385.059.75.158 1.058.296.327.139.577.336.77.594.21.257.307.613.307 1.048 0 .99-.289 1.622-.866 1.88-.576.257-1.326.375-2.23.375h-2.789zm-3.135-6.785v16.26h3.134v-6.943h1.962l3.846 6.944h3.288l-4.23-7.102a7.297 7.297 0 0 0 1.634-.356c.5-.178.943-.435 1.308-.772.385-.336.673-.771.885-1.305.23-.534.326-1.167.326-1.919 0-1.76-.538-3.007-1.596-3.719-1.077-.732-2.615-1.088-4.596-1.088h-5.961zm-5.02 8.15c0-1.662.27-3.185.827-4.57.558-1.384 1.308-2.571 2.27-3.58a10.288 10.288 0 0 1 3.365-2.374c1.308-.573 2.692-.85 4.173-.85 1.462 0 2.846.277 4.135.85a10.367 10.367 0 0 1 3.384 2.374c.962 1.009 1.712 2.196 2.289 3.58.557 1.385.846 2.908.846 4.57 0 1.662-.289 3.185-.846 4.59-.577 1.384-1.327 2.61-2.289 3.62a10.133 10.133 0 0 1-3.384 2.393c-1.289.574-2.673.85-4.135.85-1.48 0-2.865-.276-4.173-.85-1.289-.574-2.423-1.365-3.365-2.393-.962-1.01-1.712-2.236-2.27-3.62-.557-1.405-.827-2.928-.827-4.59zm-3.865 0c0 2.235.404 4.233 1.192 6.014.808 1.8 1.866 3.323 3.193 4.59a14.045 14.045 0 0 0 4.634 2.907 15.147 15.147 0 0 0 5.481 1.009c1.923 0 3.75-.336 5.5-1.009a14.045 14.045 0 0 0 4.635-2.908c1.327-1.266 2.384-2.79 3.192-4.59.788-1.78 1.173-3.778 1.173-6.013 0-2.196-.385-4.194-1.173-5.974-.808-1.8-1.865-3.323-3.192-4.57a14.045 14.045 0 0 0-4.635-2.907 14.783 14.783 0 0 0-5.5-1.03c-1.904 0-3.73.337-5.48 1.03a14.045 14.045 0 0 0-4.635 2.907c-1.327 1.247-2.385 2.77-3.193 4.57-.788 1.78-1.192 3.778-1.192 5.974z"/></g><path d="M181 56.58c-5.82 0-11.4 2.34-16.5 6.24l3.66 7.08c3.72-3.24 7.98-5.28 11.46-5.28 3.48 0 5.52 1.56 5.52 4.2 0 2.04-1.8 4.98-4.38 7.62l-15.18 16.08V99h30.9v-7.92h-18.6l9.943-10.389c4.224-4.462 7.217-8.965 7.217-13.251 0-6.6-5.82-10.86-14.04-10.86zm38.76.12c-11.88 0-18.36 7.56-18.36 21.24 0 13.74 6.48 21.36 18.36 21.36 11.76 0 18.3-7.62 18.3-21.36 0-13.68-6.54-21.24-18.3-21.24zm0 7.26c5.88 0 8.58 4.14 8.58 13.98 0 9.9-2.7 14.1-8.58 14.1-5.854 0-8.561-4.08-8.638-13.673l-.002-.427c0-9.84 2.7-13.98 8.64-13.98zM258.64 99V57h-17.4v7.98h7.92V99h9.48zm25.38-42.42c-8.94 0-14.7 4.2-14.7 10.92 0 3.72 2.34 7.08 6.06 9-5.04 1.86-8.22 5.94-8.22 10.8 0 7.44 6.54 12.12 16.92 12.12 10.26 0 16.86-4.74 16.86-12.24 0-4.8-3-8.82-7.74-10.68 3.42-1.74 5.58-5.04 5.58-8.76 0-6.84-5.76-11.16-14.76-11.16zm.06 6.54c4.26 0 6.66 1.86 6.66 5.16 0 3.24-2.4 5.1-6.66 5.1-4.32 0-6.78-1.86-6.78-5.1 0-3.3 2.46-5.16 6.78-5.16zm-.06 17.4c5.1 0 7.98 2.1 7.98 5.82 0 3.78-2.94 5.88-7.92 5.88-5.1 0-7.92-2.1-7.92-5.94 0-3.66 2.82-5.76 7.86-5.76zM90 283.7c-12.72 0-22.38 9.12-22.38 21.24 0 12.18 9.48 21.48 22.02 21.48 6.12 0 12.54-2.94 16.98-7.5l-5.58-6.06c-3 3-7.14 4.92-10.92 4.92-7.2 0-12.78-5.64-12.78-12.96 0-7.32 5.58-12.9 12.78-12.9 3.9 0 8.04 2.16 10.92 5.46l5.52-6.72c-4.14-4.26-10.5-6.96-16.56-6.96zm35.82 9.72c-10.38 0-17.34 6.54-17.34 16.44 0 9.84 6.96 16.5 17.34 16.5 10.32 0 17.28-6.66 17.28-16.5 0-9.9-6.96-16.44-17.28-16.44zm0 7.68c4.74 0 8.04 3.6 8.04 8.88 0 5.28-3.3 8.88-8.04 8.88-4.8 0-8.04-3.6-8.04-8.88 0-5.28 3.24-8.88 8.04-8.88zm66.12-7.74c-5.46.06-9.54 2.46-11.64 7.44-1.56-4.68-5.46-7.44-10.92-7.44-4.86.06-8.64 1.98-10.92 5.94v-5.58h-9.24V326h9.24v-15.96c0-4.68 2.7-8.16 7.2-8.22 3.78 0 6.18 2.46 6.18 6.6V326h9.18v-15.96c0-4.68 2.7-8.16 7.14-8.22 3.84 0 6.24 2.46 6.24 6.6V326h9.18v-20.28c0-7.56-4.5-12.36-11.64-12.36zm62.34 0c-5.46.06-9.54 2.46-11.64 7.44-1.56-4.68-5.46-7.44-10.92-7.44-4.86.06-8.64 1.98-10.92 5.94v-5.58h-9.24V326h9.24v-15.96c0-4.68 2.7-8.16 7.2-8.22 3.78 0 6.18 2.46 6.18 6.6V326h9.18v-15.96c0-4.68 2.7-8.16 7.14-8.22 3.84 0 6.24 2.46 6.24 6.6V326h9.18v-20.28c0-7.56-4.5-12.36-11.64-12.36zm50.28.36h-9.18v15.96c0 4.68-2.7 8.16-7.14 8.22-3.72 0-6.06-2.46-6.06-6.54v-17.64h-9.24V314c0 7.62 4.5 12.36 11.64 12.36 4.86 0 8.58-1.98 10.8-6.06v5.7h9.18v-32.28zm29.34-.36c-5.04.06-8.88 1.98-11.16 6v-5.64h-9.24V326h9.24v-15.9c0-4.74 2.76-8.22 7.38-8.28 3.96 0 6.36 2.52 6.36 6.6V326h9.24v-20.28c0-7.56-4.62-12.36-11.82-12.36zm24.42-13.98c-2.94 0-4.98 2.16-4.98 5.16s2.04 5.16 4.98 5.16c2.94 0 4.98-2.16 4.98-5.16s-2.04-5.16-4.98-5.16zm4.62 46.62v-32.28h-9.24V326h9.24zm26.94-8.58c-1.68.78-3.12 1.2-4.32 1.2-1.98.06-3.12-1.02-3.12-3.72v-13.32h8.76v-6.42h-8.76v-8.88h-9.18v8.88h-4.5v6.36h4.5v14.94c0 6.66 4.38 9.96 10.14 9.96 3 0 6-.84 8.4-2.22l-1.92-6.78zm37.32-23.7h-9.24l-7.62 22.2-8.46-22.2h-9.54l13.38 31.62-.9 1.8c-.9 1.92-2.34 2.88-4.26 2.88-1.5 0-2.76-.54-4.2-1.74l-3.9 6.66c2.64 2.16 5.34 3.12 8.76 3.12 5.58 0 9.54-2.76 11.82-8.46l14.16-35.88zm34.02-10.14c-9.72 0-16.26 4.8-16.26 12.42 0 14.88 22.38 10.26 22.38 18.18 0 2.58-2.34 4.02-6.24 4.02-4.44 0-10.56-2.46-14.88-6.3l-3.78 7.74c4.74 4.02 11.64 6.66 18.54 6.66 9.3 0 16.44-4.44 16.44-12.66.06-15.12-22.32-10.8-22.32-18.54 0-2.28 2.16-3.42 5.34-3.42 3.36 0 8.64 1.68 13.08 4.32l3.66-7.86c-4.2-2.76-10.08-4.56-15.96-4.56zm53.34 10.14h-9.18v15.96c0 4.68-2.7 8.16-7.14 8.22-3.72 0-6.06-2.46-6.06-6.54v-17.64h-9.24V314c0 7.62 4.5 12.36 11.64 12.36 4.86 0 8.58-1.98 10.8-6.06v5.7h9.18v-32.28zm18.18 0h-9.24V326h9.24v-15.54c0-5.46 4.08-9 10.68-8.4v-8.7c-4.8.06-8.46 2.22-10.68 6.18v-5.82zM567 326l12.18-32.28H570l-7.56 23.52-7.62-23.52-9.54.06L557.52 326H567zm29.04-32.58c-9.84 0-16.62 6.6-16.62 16.56 0 9.78 6.54 16.38 16.86 16.38 5.82 0 10.56-2.1 13.8-5.7l-4.86-4.92c-2.22 2.22-5.1 3.42-8.16 3.42-4.14 0-7.26-2.4-8.34-6.48h23.16c.78-11.76-4.5-19.26-15.84-19.26zm-7.5 13.8c.72-4.26 3.48-7.02 7.56-7.02 4.26 0 7.02 2.76 7.14 7.02h-14.7zm58.2-13.5l-14.16 35.88c-2.28 5.7-6.24 8.46-11.82 8.46-3.42 0-6.12-.96-8.76-3.12l3.9-6.66c1.44 1.2 2.7 1.74 4.2 1.74 1.92 0 3.36-.96 4.26-2.88l.9-1.8-13.38-31.62h9.54l8.46 22.2 7.62-22.2h9.24z" fill="#FFF"/></g></svg>