<?xml version="1.0" encoding="UTF-8"?>
<svg width="713px" height="344px" viewBox="0 0 713 344" version="1.1" xmlns="http://www.w3.org/2000/svg" xmlns:xlink="http://www.w3.org/1999/xlink">
    <!-- Generator: Sketch 59.1 (86144) - https://sketch.com -->
    <title>Artboard</title>
    <desc>Created with Sketch.</desc>
    <g id="Artboard" stroke="none" stroke-width="1" fill="none" fill-rule="evenodd">
        <g id="Ember-Logo" transform="translate(13.000000, 0.000000)" fill="#E04E39" fill-rule="nonzero">
            <path d="M676.315403,183.242458 C676.315403,183.242458 659.579087,196.210879 644.846865,194.762845 C630.114643,193.314812 634.741115,160.435925 634.741115,160.435925 C634.741115,160.435925 637.917817,130.28275 629.240517,127.74869 C620.584537,125.235926 609.903144,135.606404 609.903144,135.606404 C609.903144,135.606404 596.620692,150.320983 590.267288,169.081539 L588.519035,169.656494 C588.519035,169.656494 590.544449,136.756313 588.241874,129.260608 C586.514942,125.512756 570.631432,125.81088 568.030374,132.433506 C565.429316,139.077426 552.722508,185.222858 551.848382,204.558369 C551.848382,204.558369 527.01041,225.618743 505.37046,229.068471 C483.70919,232.539493 478.507074,218.974823 478.507074,218.974823 C478.507074,218.974823 537.414642,202.53538 535.389228,155.516869 C533.385134,108.498358 487.887939,125.896059 482.749783,129.750384 C477.760869,133.498237 451.174645,149.511787 443.414111,193.868472 C443.158269,195.359095 442.689226,201.960426 442.689226,201.960426 C442.689226,201.960426 419.876668,217.228665 407.16986,221.274642 C407.16986,221.274642 442.689226,161.56454 399.388006,134.456494 C387.20953,127.134411 376.594082,133.870925 370.279451,140.056676 C366.40169,143.855292 422.776208,82.2633916 409.770918,27.1529266 C403.588075,0.917960294 390.454864,-1.89292896 378.408981,2.36599415 C360.116294,9.5635742 353.187246,20.2321766 353.187246,20.2321766 C353.187246,20.2321766 329.500562,54.5590968 323.999964,105.623585 C318.520686,156.666778 310.44035,218.399869 310.44035,218.399869 C310.44035,218.399869 299.161992,229.366596 288.77908,229.94155 C278.374848,230.49521 283.00132,199.064358 283.00132,199.064358 C283.00132,199.064358 291.081656,151.194062 290.527332,143.102108 C289.930368,135.031449 289.354724,130.708642 279.824618,127.833869 C270.294512,124.937801 259.890282,137.054437 259.890282,137.054437 C259.890282,137.054437 232.472572,178.578938 230.169996,184.924733 L228.698906,187.543971 L227.270456,185.797812 C227.270456,185.797812 246.60783,129.260608 228.144582,128.408823 C209.660014,127.535744 197.52885,148.596119 197.52885,148.596119 C197.52885,148.596119 176.443224,183.796118 175.569098,187.820801 L174.140648,186.095937 C174.140648,186.095937 182.796628,145.146391 181.069696,135.031449 C179.321444,124.937801 169.812658,126.96079 169.812658,126.96079 C169.812658,126.96079 157.681494,125.512756 154.504792,133.306585 C151.32809,141.100414 139.77257,192.718562 138.3228,209.158006 C138.3228,209.158006 108.00555,230.793335 88.071212,231.070165 C68.1581941,231.36829 70.1836081,218.463753 70.1836081,218.463753 C70.1836081,218.463753 143.247754,193.485169 123.313416,144.166839 C114.358954,131.475248 103.976042,127.493155 89.2438201,127.769985 C74.5115981,128.06811 56.2402316,137.033143 44.4075497,163.566234 C38.7363904,176.215235 36.6896562,188.246693 35.5170481,197.318199 C35.5170481,197.318199 22.7462797,199.937437 15.8172317,194.166596 C8.86686357,188.395755 5.30639892,194.166596 5.30639892,194.166596 C5.30639892,194.166596 -6.59024345,209.328363 5.24243847,213.927999 C17.0964405,218.548931 35.5596884,220.699687 35.5596884,220.699687 C37.2653002,228.770347 42.1902543,242.505374 56.6239943,253.429511 C78.2852642,269.868953 119.838232,251.917594 119.838232,251.917594 L136.87303,242.377606 C136.87303,242.377606 137.448674,257.986559 149.87832,260.265083 C162.286646,262.543607 167.488762,260.222494 189.150032,207.731266 C201.85684,180.900051 202.730966,182.348085 202.730966,182.348085 C204.159416,182.04996 194.352148,233.391278 198.104494,247.232778 C201.85684,261.095573 218.315994,259.647539 218.315994,259.647539 C218.315994,259.647539 227.270456,261.372403 234.497986,235.989221 C241.704196,210.606039 255.583612,182.624915 255.583612,182.624915 C257.289224,182.624915 251.234302,235.116142 260.465926,251.85371 C269.718868,268.591276 293.682714,257.475488 293.682714,257.475488 C293.682714,257.475488 310.44035,249.04282 313.041408,246.444877 C313.041408,246.444877 332.911786,263.352802 360.94778,260.286377 C423.629014,247.956795 445.929888,231.304406 445.929888,231.304406 C445.929888,231.304406 456.696563,258.561514 490.062594,261.095573 C528.161698,263.970346 548.970162,240.035198 548.970162,240.035198 C548.970162,240.035198 548.67168,255.601562 561.954132,261.095573 C575.257904,266.568289 584.191046,235.75498 584.191046,235.75498 L606.427959,174.554255 C608.453373,174.554255 609.604661,214.353892 631.564413,220.699687 C653.502845,227.045483 682.093163,205.836046 682.093163,205.836046 C682.093163,205.836046 689.022211,202.024309 687.870923,190.482628 C686.698315,178.940946 676.315403,183.242458 676.315403,183.242458 Z M97.8998,154.36696 C105.681654,161.862664 102.803434,178.003983 88.071212,188.097631 C73.3603101,198.212573 66.7084241,196.189585 66.7084241,196.189585 C67.5825501,161.862664 90.1179462,146.849961 97.8998,154.36696 Z M385.231428,35.8198351 C390.135062,61.7779715 342.20737,139.077426 342.20737,139.077426 C342.783014,121.764903 359.817812,63.2260053 359.817812,63.2260053 C359.817812,63.2260053 380.306474,9.86169881 385.231428,35.8198351 Z M337.85806,232.816323 C337.85806,232.816323 334.105714,220.124733 344.787108,184.647903 C355.489822,149.171074 380.604956,163.012574 380.604956,163.012574 C380.604956,163.012574 397.938236,176.279119 384.357302,211.755949 C370.797688,247.232778 337.85806,232.816323 337.85806,232.816323 Z M483.986352,163.310698 C495.819034,141.675369 505.071978,153.493881 505.071978,153.493881 C505.071978,153.493881 515.177728,164.460608 503.622208,180.900051 C492.066688,197.339494 475.330372,196.189585 475.330372,196.189585 C475.330372,196.189585 472.15367,184.924733 483.986352,163.310698 Z" id="Fill-7"></path>
            <path d="M602.01923,251.862193 L602.01923,247.589342 L604.653846,247.589342 C605.01923,247.589342 605.384617,247.628905 605.76923,247.668469 C606.153846,247.727814 606.51923,247.826722 606.826923,247.965195 C607.153847,248.103667 607.403847,248.301484 607.596152,248.558646 C607.807691,248.815809 607.903845,249.171879 607.903845,249.607077 C607.903845,250.596163 607.615383,251.229178 607.038462,251.486341 C606.461538,251.743503 605.711537,251.862193 604.807693,251.862193 L602.01923,251.862193 Z M598.884616,245.077064 L598.884616,261.337637 L602.01923,261.337637 L602.01923,254.394253 L603.980769,254.394253 L607.826922,261.337637 L611.115385,261.337637 L606.884616,254.236 C607.46154,254.176654 607.999999,254.057964 608.519231,253.879928 C609.019231,253.701893 609.46154,253.444731 609.826922,253.108442 C610.211538,252.772152 610.5,252.336955 610.711538,251.802848 C610.942308,251.268742 611.038462,250.635727 611.038462,249.884021 C611.038462,248.123448 610.5,246.8772 609.442309,246.165058 C608.365384,245.433135 606.826923,245.077064 604.846154,245.077064 L598.884616,245.077064 Z M593.865384,253.227132 C593.865384,251.565468 594.134615,250.042275 594.692308,248.657555 C595.250001,247.272834 596,246.085931 596.961539,245.077064 C597.903846,244.068196 599.038463,243.276927 600.326923,242.703257 C601.634614,242.129588 603.019232,241.852643 604.5,241.852643 C605.961538,241.852643 607.346155,242.129588 608.634615,242.703257 C609.942307,243.276927 611.057693,244.068196 612.01923,245.077064 C612.980769,246.085931 613.730768,247.272834 614.307692,248.657555 C614.865384,250.042275 615.153847,251.565468 615.153847,253.227132 C615.153847,254.888796 614.865384,256.411989 614.307692,257.816491 C613.730768,259.201211 612.980769,260.427678 612.01923,261.436545 C611.057693,262.465195 609.942307,263.256464 608.634615,263.830133 C607.346155,264.403803 605.961538,264.680747 604.5,264.680747 C603.019232,264.680747 601.634614,264.403803 600.326923,263.830133 C599.038463,263.256464 597.903846,262.465195 596.961539,261.436545 C596,260.427678 595.250001,259.201211 594.692308,257.816491 C594.134615,256.411989 593.865384,254.888796 593.865384,253.227132 Z M590,253.227132 C590,255.462466 590.403847,257.46042 591.192309,259.240774 C592,261.040911 593.057694,262.564103 594.384616,263.830133 C595.730769,265.096163 597.269232,266.065467 599.019232,266.738046 C600.769231,267.410624 602.596154,267.746914 604.5,267.746914 C606.423077,267.746914 608.249999,267.410624 610,266.738046 C611.749999,266.065467 613.288462,265.096163 614.634615,263.830133 C615.961537,262.564103 617.019231,261.040911 617.826922,259.240774 C618.615384,257.46042 619,255.462466 619,253.227132 C619,251.031361 618.615384,249.033408 617.826922,247.253053 C617.019231,245.452916 615.961537,243.929724 614.634615,242.683476 C613.288462,241.417446 611.749999,240.448141 610,239.775563 C608.249999,239.083203 606.423077,238.746914 604.5,238.746914 C602.596154,238.746914 600.769231,239.083203 599.019232,239.775563 C597.269232,240.448141 595.730769,241.417446 594.384616,242.683476 C593.057694,243.929724 592,245.452916 591.192309,247.253053 C590.403847,249.033408 590,251.031361 590,253.227132 Z" id="Fill-8"></path>
        </g>
        <text id="2018" font-family="TruenoSBd, Trueno" font-size="60" font-weight="500" fill="#FFFFFF">
            <tspan x="163" y="99">2018</tspan>
        </text>
        <text id="Community-Survey" font-family="TruenoSBd, Trueno" font-size="60" font-weight="500" fill="#FFFFFF">
            <tspan x="66" y="326">Community Survey</tspan>
        </text>
    </g>
</svg>