<svg xmlns="http://www.w3.org/2000/svg" fill="none" viewBox="0 0 713 344"><path fill="#E04E39" d="M689.32 183.24s-16.74 12.97-31.47 11.52c-14.74-1.44-10.1-34.32-10.1-34.32s3.17-30.16-5.5-32.7c-8.66-2.5-19.35 7.87-19.35 7.87s-13.28 14.71-19.63 33.47l-1.75.58s2.02-32.9-.28-40.4c-1.73-3.75-17.6-3.45-20.21 3.17-2.6 6.65-15.3 52.8-16.18 72.13 0 0-24.84 21.06-46.48 24.5-21.66 3.48-26.86-10.09-26.86-10.09s58.9-16.44 56.88-63.45c-2-47.02-47.5-29.62-52.64-25.77-4.99 3.75-31.57 19.76-39.34 64.12-.25 1.49-.72 8.09-.72 8.09s-22.81 15.27-35.52 19.31c0 0 35.52-59.7-7.78-86.81-12.18-7.33-22.8-.59-29.11 5.6-3.88 3.8 52.5-57.8 39.5-112.9C416.57.91 403.45-1.9 391.4 2.35c-18.3 7.2-25.22 17.87-25.22 17.87S342.5 54.56 337 105.63c-5.48 51.04-13.56 112.77-13.56 112.77s-11.28 10.97-21.66 11.54c-10.4.56-5.78-30.88-5.78-30.88s8.08-47.87 7.53-55.96c-.6-8.07-1.17-12.4-10.7-15.27-9.53-2.9-19.94 9.22-19.94 9.22s-27.42 41.53-29.72 47.88l-1.47 2.61-1.43-1.74s19.34-56.54.88-57.4c-18.49-.86-30.62 20.2-30.62 20.2s-21.09 35.2-21.96 39.22l-1.43-1.72s8.66-40.95 6.93-51.07c-1.75-10.1-11.26-8.07-11.26-8.07s-12.13-1.45-15.3 6.35c-3.18 7.79-14.74 59.4-16.19 75.85 0 0-30.31 21.63-50.25 21.91-19.91.3-17.89-12.6-17.89-12.6s73.07-24.98 53.13-74.3c-8.95-12.7-19.33-16.68-34.07-16.4-14.73.3-33 9.26-44.83 35.8-5.67 12.65-7.72 24.68-8.9 33.75 0 0-12.76 2.62-19.7-3.15-6.94-5.77-10.5 0-10.5 0s-11.9 15.16-.07 19.76c11.86 4.62 30.32 6.77 30.32 6.77a55.2 55.2 0 0021.06 32.73c21.67 16.44 63.22-1.51 63.22-1.51l17.03-9.54s.58 15.6 13 17.88c12.42 2.28 17.62-.04 39.28-52.53 12.7-26.83 13.58-25.38 13.58-25.38 1.43-.3-8.38 51.04-4.63 64.88 3.76 13.87 20.22 12.42 20.22 12.42s8.95 1.72 16.18-23.66c7.2-25.38 21.08-53.37 21.08-53.37 1.7 0-4.35 52.5 4.89 69.23 9.25 16.74 33.21 5.63 33.21 5.63s16.76-8.44 19.36-11.04c0 0 19.87 16.91 47.9 13.85 62.69-12.33 84.99-28.99 84.99-28.99s10.77 27.26 44.13 29.8c38.1 2.87 58.91-21.07 58.91-21.07s-.3 15.57 12.98 21.07c13.3 5.47 22.24-25.35 22.24-25.35l22.24-61.2c2.02 0 3.18 39.8 25.13 46.15 21.94 6.34 50.53-14.86 50.53-14.86s6.93-3.82 5.78-15.36c-1.17-11.54-11.55-7.24-11.55-7.24zM110.9 154.37c7.78 7.5 4.9 23.63-9.83 33.73-14.71 10.11-21.36 8.09-21.36 8.09.87-34.33 23.4-49.34 31.19-41.82zM398.23 35.82c4.9 25.96-43.02 103.26-43.02 103.26.57-17.32 17.6-75.85 17.6-75.85s20.5-53.37 25.42-27.41zm-47.37 197s-3.75-12.7 6.93-48.17C368.49 149.17 393.6 163 393.6 163s17.34 13.27 3.76 48.75c-13.56 35.47-46.5 21.06-46.5 21.06zm146.13-69.5c11.83-21.64 21.08-9.83 21.08-9.83s10.1 10.97-1.45 27.41c-11.55 16.44-28.29 15.29-28.29 15.29s-3.18-11.26 8.66-32.88z"/><path fill="#E04E39" d="M615.02 251.86v-4.27h2.63c.37 0 .74.04 1.12.08.38.06.75.16 1.06.3.32.13.57.33.77.59.2.26.3.61.3 1.05 0 .99-.28 1.62-.86 1.88-.58.25-1.33.37-2.23.37H615zm-3.13-6.78v16.26h3.13v-6.95h1.96l3.85 6.95h3.28l-4.23-7.1a7.27 7.27 0 001.64-.36c.5-.18.94-.44 1.3-.77.4-.34.68-.77.9-1.3.22-.54.32-1.17.32-1.93 0-1.76-.54-3-1.6-3.72-1.08-.73-2.61-1.08-4.6-1.08h-5.96zm-5.02 8.15c0-1.66.26-3.19.82-4.57.56-1.39 1.31-2.57 2.27-3.58a10.28 10.28 0 0111.67-2.38c1.31.58 2.43 1.37 3.39 2.38a11.52 11.52 0 013.13 8.15 11.72 11.72 0 01-3.13 8.21 10.14 10.14 0 01-7.52 3.24 10.24 10.24 0 01-7.54-3.24c-.96-1.01-1.71-2.24-2.27-3.62a12.3 12.3 0 01-.83-4.6zm-3.87 0a14.38 14.38 0 004.38 10.6 14.05 14.05 0 004.64 2.9c1.75.68 3.58 1.02 5.48 1.02 1.92 0 3.75-.34 5.5-1.01a14.06 14.06 0 004.63-2.91 14.38 14.38 0 003.2-4.59 14.69 14.69 0 001.17-6.01 14.09 14.09 0 00-4.37-10.54 14.77 14.77 0 00-10.13-3.94 14.74 14.74 0 00-10.12 3.93 14.1 14.1 0 00-4.38 10.55z"/><path fill="#fff" d="M181 54.58c-5.82 0-11.4 2.34-16.5 6.24l3.66 7.08c3.72-3.24 7.98-5.28 11.46-5.28 3.48 0 5.52 1.56 5.52 4.2 0 2.04-1.8 4.98-4.38 7.62l-15.18 16.08V97h30.9v-7.92h-18.6l9.3-9.72c4.56-4.68 7.86-9.42 7.86-13.92 0-6.6-5.82-10.86-14.04-10.86zm38.74.12c-11.88 0-18.36 7.56-18.36 21.24 0 13.74 6.48 21.36 18.36 21.36 11.76 0 18.3-7.62 18.3-21.36 0-13.68-6.54-21.24-18.3-21.24zm0 7.26c5.88 0 8.58 4.14 8.58 13.98 0 9.9-2.7 14.1-8.58 14.1-5.94 0-8.64-4.2-8.64-14.1 0-9.84 2.7-13.98 8.64-13.98zm38.95-7.38c-5.81 0-11.4 2.34-16.5 6.24l3.66 7.08c3.72-3.24 7.99-5.28 11.47-5.28 3.48 0 5.51 1.56 5.51 4.2 0 2.04-1.8 4.98-4.38 7.62l-15.17 16.08V97h30.9v-7.92h-18.6l9.3-9.72c4.56-4.68 7.86-9.42 7.86-13.92 0-6.6-5.82-10.86-14.05-10.86zm35.75 0c-5.82 0-11.4 2.34-16.5 6.24l3.66 7.08c3.72-3.24 7.98-5.28 11.46-5.28 3.48 0 5.52 1.56 5.52 4.2 0 2.04-1.8 4.98-4.38 7.62l-15.18 16.08V97h30.9v-7.92h-18.6l9.3-9.72c4.56-4.68 7.86-9.42 7.86-13.92 0-6.6-5.82-10.86-14.04-10.86zM90 281.7c-12.72 0-22.38 9.12-22.38 21.24 0 12.18 9.48 21.48 22.02 21.48 6.12 0 12.54-2.94 16.98-7.5l-5.58-6.06c-3 3-7.14 4.92-10.92 4.92-7.2 0-12.78-5.64-12.78-12.96 0-7.32 5.58-12.9 12.78-12.9 3.9 0 8.04 2.16 10.92 5.46l5.52-6.72A23.9 23.9 0 0090 281.7zm35.86 9.72c-10.38 0-17.34 6.54-17.34 16.44 0 9.84 6.96 16.5 17.34 16.5 10.32 0 17.28-6.66 17.28-16.5 0-9.9-6.96-16.44-17.28-16.44zm0 7.68c4.74 0 8.04 3.6 8.04 8.88 0 5.28-3.3 8.88-8.04 8.88-4.8 0-8.04-3.6-8.04-8.88 0-5.28 3.24-8.88 8.04-8.88zm66.1-7.74c-5.45.06-9.53 2.46-11.63 7.44-1.56-4.68-5.46-7.44-10.92-7.44-4.86.06-8.64 1.98-10.92 5.94v-5.58h-9.24V324h9.24v-15.96c0-4.68 2.7-8.16 7.2-8.22 3.78 0 6.18 2.46 6.18 6.6V324h9.18v-15.96c0-4.68 2.7-8.16 7.14-8.22 3.84 0 6.24 2.46 6.24 6.6V324h9.18v-20.28c0-7.56-4.5-12.36-11.64-12.36zm62.35 0c-5.46.06-9.54 2.46-11.64 7.44-1.56-4.68-5.46-7.44-10.92-7.44-4.86.06-8.64 1.98-10.92 5.94v-5.58h-9.24V324h9.24v-15.96c0-4.68 2.7-8.16 7.2-8.22 3.78 0 6.18 2.46 6.18 6.6V324h9.18v-15.96c0-4.68 2.7-8.16 7.14-8.22 3.84 0 6.24 2.46 6.24 6.6V324h9.18v-20.28c0-7.56-4.5-12.36-11.64-12.36zm50.29.36h-9.18v15.96c0 4.68-2.7 8.16-7.14 8.22-3.72 0-6.06-2.46-6.06-6.54v-17.64h-9.24V312c0 7.62 4.5 12.36 11.64 12.36 4.86 0 8.58-1.98 10.8-6.06v5.7h9.18v-32.28zm29.34-.36c-5.04.06-8.88 1.98-11.15 6v-5.64h-9.25V324h9.25v-15.9c0-4.74 2.75-8.22 7.38-8.28 3.95 0 6.35 2.52 6.35 6.6V324h9.25v-20.28c0-7.56-4.63-12.36-11.82-12.36zm24.42-13.98c-2.94 0-4.98 2.16-4.98 5.16s2.04 5.16 4.98 5.16c2.94 0 4.98-2.16 4.98-5.16s-2.04-5.16-4.98-5.16zm4.62 46.62v-32.28h-9.24V324h9.24zm26.93-8.58c-1.68.78-3.12 1.2-4.32 1.2-1.98.06-3.12-1.02-3.12-3.72v-13.32h8.76v-6.42h-8.76v-8.88h-9.18v8.88h-4.5v6.36h4.5v14.94c0 6.66 4.38 9.96 10.14 9.96 3 0 6-.84 8.4-2.22l-1.92-6.78zm37.3-23.7h-9.24l-7.62 22.2-8.46-22.2h-9.54l13.38 31.62-.9 1.8c-.9 1.92-2.34 2.88-4.26 2.88-1.5 0-2.76-.54-4.2-1.74l-3.9 6.66a12.98 12.98 0 008.76 3.12c5.58 0 9.54-2.76 11.82-8.46l14.16-35.88zm34.06-10.14c-9.72 0-16.26 4.8-16.26 12.42 0 14.88 22.38 10.26 22.38 18.18 0 2.58-2.34 4.02-6.24 4.02-4.44 0-10.56-2.46-14.88-6.3l-3.78 7.74a29.49 29.49 0 0018.54 6.66c9.3 0 16.44-4.44 16.44-12.66.06-15.12-22.32-10.8-22.32-18.54 0-2.28 2.16-3.42 5.34-3.42 3.36 0 8.64 1.68 13.08 4.32l3.66-7.86c-4.2-2.76-10.08-4.56-15.96-4.56zm53.33 10.14h-9.18v15.96c0 4.68-2.7 8.16-7.14 8.22-3.72 0-6.06-2.46-6.06-6.54v-17.64h-9.24V312c0 7.62 4.5 12.36 11.64 12.36 4.86 0 8.58-1.98 10.8-6.06v5.7h9.18v-32.28zm18.18 0h-9.24V324h9.25v-15.54c0-5.46 4.08-9 10.68-8.4v-8.7c-4.8.06-8.47 2.22-10.69 6.18v-5.82zm34.3 32.28l12.17-32.28h-9.18l-7.56 23.52-7.62-23.52-9.54.06L557.6 324h9.48zm29.04-32.58c-9.84 0-16.62 6.6-16.62 16.56 0 9.78 6.54 16.38 16.86 16.38 5.82 0 10.56-2.1 13.8-5.7l-4.86-4.92a11.44 11.44 0 01-8.16 3.42c-4.14 0-7.26-2.4-8.34-6.48h23.16c.78-11.76-4.5-19.26-15.84-19.26zm-7.5 13.8c.72-4.26 3.48-7.02 7.56-7.02 4.26 0 7.02 2.76 7.14 7.02h-14.7zm58.2-13.5h-9.24l-7.62 22.2-8.46-22.2h-9.54l13.38 31.62-.9 1.8c-.9 1.92-2.34 2.88-4.26 2.88-1.5 0-2.76-.54-4.2-1.74l-3.9 6.66a12.99 12.99 0 008.76 3.12c5.58 0 9.54-2.76 11.82-8.46l14.16-35.88z"/></svg>
