<svg clip-rule="evenodd" fill-rule="evenodd" stroke-linejoin="round" stroke-miterlimit="2" viewBox="0 0 140 21" xmlns="http://www.w3.org/2000/svg"><path d="m3.357 0 7.161 11.071-1.846 2.84-5.113-7.919v14.008h-3.559v-20zm107.835 1.758v4.128h3.313v2.503h-3.313v6.791c0 1.544.507 2.264 2.164 2.264.401 0 .828 0 1.149-.027v2.503c-.508.053-1.122.08-1.683.08l-.247-.003c-3.164-.071-4.536-1.548-4.536-4.924v-6.684h-2.432v-2.503h2.432v-4.128zm-91.208-1.758v20h-3.559v-20zm81.164 1.758v4.128h3.313v2.503h-3.313v6.791c0 1.544.507 2.264 2.164 2.264.401 0 .828 0 1.149-.027v2.503c-.508.053-1.123.08-1.684.08l-.247-.003c-3.164-.071-4.536-1.548-4.536-4.924v-6.684h-2.431v-2.503h2.431v-4.128zm21.023 3.808c3.982 0 6.707 3.009 6.707 7.297v.195c-.002.282-.011.636-.053.87h-10.208c.294 2.104 1.844 3.515 3.982 3.515 1.389 0 2.538-.639 3.447-1.757l2.218 1.571c-1.31 1.758-3.287 2.743-5.638 2.743-4.356 0-7.215-2.983-7.215-7.217 0-4.181 2.699-7.217 6.76-7.217zm-33.919 0c4.569 0 5.932 2.45 5.932 5.992v8.122h-3.153v-1.145c-.989.959-2.458 1.465-4.061 1.465-3.019 0-5.211-1.864-5.211-4.501 0-2.636 2.192-4.5 5.211-4.5 1.71 0 2.992.506 4.061 1.331v-1.305c0-1.731-.748-2.876-3.153-2.876-1.256 0-2.485.426-3.527 1.278l-1.817-1.81c1.603-1.359 3.607-2.051 5.718-2.051zm-59.955 0c4.569 0 5.932 2.45 5.932 5.992v8.122h-3.153v-1.145c-.988.959-2.458 1.465-4.061 1.465-3.02 0-5.211-1.864-5.211-4.501 0-2.636 2.191-4.5 5.211-4.5 1.71 0 2.992.506 4.061 1.331v-1.305c0-1.731-.748-2.876-3.153-2.876-1.256 0-2.485.426-3.527 1.278l-1.817-1.81c1.603-1.359 3.607-2.051 5.718-2.051zm12.062.32v13.795h-3.154v-13.795zm10.907-.32c2.912 0 4.89 1.811 4.89 5.166v8.948h-3.153v-8.495c0-1.944-.855-3.063-2.672-3.063l-.244.008c-1.453.088-2.762.948-3.47 1.857v9.693h-3.153v-13.794h3.153v1.597c1.068-1.065 2.645-1.917 4.649-1.917zm23.869 0c2.886 0 4.49 1.784 4.49 5.086v9.028h-3.153v-8.522c0-1.944-.615-3.036-2.352-3.036-1.175 0-2.485.719-3.206 1.705.053.399.053.799.053 1.225v8.628h-3.153v-8.522c0-1.944-.561-3.036-2.351-3.036-1.203 0-2.432.666-3.18 1.572v9.986h-3.153v-13.794h3.153v1.384c1.122-1.012 2.565-1.704 4.222-1.704 1.79 0 3.099.719 3.794 2.051 1.202-1.119 2.699-2.051 4.836-2.051zm63.338 0c.294 0 .615.027.882.053v2.61c-.267-.027-.721-.053-1.122-.053-1.63 0-3.126.825-3.928 2.077v9.427h-3.153v-13.794h3.153v1.677c.935-1.252 2.325-1.997 4.168-1.997zm-50.702 7.989c-1.71 0-2.805.639-2.805 1.944s1.095 1.944 2.805 1.944l.241-.005c1.121-.05 2.221-.45 3.019-1.22v-1.438c-.881-.799-2.004-1.225-3.26-1.225zm-59.955 0c-1.71 0-2.805.639-2.805 1.944s1.095 1.944 2.805 1.944l.241-.005c1.12-.05 2.221-.45 3.019-1.22v-1.438c-.881-.799-2.004-1.225-3.26-1.225zm94.355-5.433-.209.005c-1.86.088-3.088 1.35-3.371 3.404h7.108c-.161-2.103-1.631-3.409-3.528-3.409zm-83.389-8.122c1.096 0 1.951.825 1.951 1.918l-.006.154c-.076 1.014-.901 1.763-1.945 1.763-1.096 0-1.95-.826-1.95-1.917 0-1.093.854-1.918 1.95-1.918z" fill="#fff"/></svg>