<svg height="31" viewBox="0 0 216 31" width="216" xmlns="http://www.w3.org/2000/svg"><path d="m5.20408012 0 11.09911198 17.1595315-2.8612392 4.4020931-7.92623761-12.27360859v21.71198399h-5.51571529v-31zm167.14300388 2.72460937v6.39830661h5.136055v3.88010372h-5.136055v10.5255645c0 2.3942615.787123 3.5090076 3.354785 3.5090076.621799 0 1.283831.0000005 1.78127-.0415564v3.8801024c-.787124.0823848-1.739572.1239423-2.609358.1239423l-.284592-.002341c-4.974514-.0828065-7.129441-2.3673488-7.129441-7.6339249v-10.3607945h-3.76883v-3.88010372h3.76883v-6.39830661zm-141.3723869-2.72460937v31h-5.5157127v-31zm125.8040269 2.72460937v6.39830661h5.135323v3.88010372h-5.135323v10.5255645c0 2.3942615.786392 3.5090076 3.354785 3.5090076.621067 0 1.283831.0000005 1.780538-.0415564v3.8801024c-.786392.0823848-1.739572.1239423-2.609358.1239423l-.284591-.002341c-4.974488-.0828065-7.128709-2.3673488-7.128709-7.6339249v-10.3607945h-3.76883v-3.88010372h3.76883v-6.39830661zm32.586628 5.90234375c6.171159 0 10.395726 4.66458138 10.395726 11.31004138l-.000383.2484909c-.001913.4453394-.013394 1.0243414-.082279 1.4028495h-15.821461c.455742 3.2611239 2.858076 5.449059 6.17116 5.449059 2.153615 0 3.934881-.9908056 5.34307-2.7245308l3.437446 2.4350898c-2.029255 2.7245293-5.094353 4.2519288-8.738819 4.2519288-6.75126 0-11.182849-4.6230245-11.182849-11.1860999 0-6.4806909 4.183601-11.18682868 10.478389-11.18682868zm-145.5043731 0c7.0819127 0 9.1945631 3.79771818 9.1945631 9.28760458v12.5895566h-4.8873324v-1.7745523c-1.532549 1.4858418-3.8105238 2.2703197-6.2955209 2.2703197-4.6803097 0-8.0760578-2.8892995-8.0760578-6.9764579 0-4.0864293 3.3957481-6.9757284 8.0760578-6.9757284 2.6510537 0 4.6386123.7844779 6.2955209 2.0639933v-2.022436c0-2.6829724-1.1594698-4.4582549-4.8873315-4.4582549-1.9465932 0-3.8514895.660536-5.466701 1.9816083l-2.816379-2.8069139c2.4849972-2.10555014 5.5910605-3.17873908 8.8631808-3.17873908zm92.9301761 0c7.081912 0 9.194563 3.79771818 9.194563 9.28760458v12.5895566h-4.887333v-1.7745523c-1.532549 1.4858418-3.810523 2.2703197-6.295521 2.2703197-4.679578 0-8.076057-2.8892995-8.076057-6.9764579 0-4.0864293 3.396479-6.9757284 8.076057-6.9757284 2.651054 0 4.638613.7844779 6.295521 2.0639933v-2.022436c0-2.6829724-1.159469-4.4582549-4.887331-4.4582549-1.946593 0-3.85149.660536-5.466701 1.9816083l-2.816379-2.8069139c2.484997-2.10555014 5.59106-3.17873908 8.863181-3.17873908zm-74.2353651.49609376v21.38212772h-4.8873329v-21.38212772zm152.0780101-.49609376c.455741 0 .952446.04155692 1.36649.08238477v4.04560211c-.414044-.0415569-1.117771-.082385-1.739568-.082385-2.525958 0-4.845625 1.2795155-6.087755 3.2195673v14.6119938h-4.887322v-21.38139627h4.887322v2.59985867c1.449152-1.94005175 3.602763-3.09562538 6.460833-3.09562538zm-98.173922 0c4.473286 0 6.958281 2.76608658 6.958281 7.88414858v13.9930144h-4.887329v-13.2085371c0-3.0132408-.952448-4.7061377-3.644467-4.7061377-1.822233 0-3.852219 1.1147459-4.969992 2.6421447.082662.6189793.082662 1.237959.082662 1.8984951v13.374035h-4.887331v-13.2085371c0-3.0132408-.869784-4.7061377-3.644465-4.7061377-1.8639306 0-3.7695578 1.032361-4.9290277 2.4358182v15.4788566h-4.8873304v-21.38139627h4.8873304v2.14637797c1.7395706-1.56895576 3.9758477-2.64214468 6.5442377-2.64214468 2.774681 0 4.803936 1.11474588 5.880743 3.17873928 1.863931-1.7337253 4.183603-3.17873928 7.496688-3.17873928zm-36.9976236 0c4.5142521 0 7.5793487 2.80691438 7.5793487 8.00809008v13.8690729h-4.8873305v-13.1677085c0-3.0132408-1.325526-4.7469663-4.1419043-4.7469663l-.2761453.0061532c-2.2927951.101928-4.3653646 1.4544797-5.4802397 2.8838748v15.0246468h-4.887331v-21.38139627h4.887331v2.47664617c1.6561767-1.65134053 4.1002082-2.97241288 7.2062711-2.97241288zm56.5834486 12.38281248c-2.651052 0-4.348926.9908044-4.348926 3.0132406 0 2.0231653 1.697874 3.0139697 4.348926 3.0139697l.310556-.005745c1.758737-.065148 3.490213-.6850475 4.742099-1.8934787v-2.2287629c-1.366492-1.2386876-3.106062-1.8992237-5.052655-1.8992237zm-92.9301756 0c-2.6510525 0-4.3489258.9908044-4.3489258 3.0132406 0 2.0231653 1.6978733 3.0139697 4.3489258 3.0139697l.3104474-.005745c1.7581927-.065148 3.4903216-.6850475 4.7422076-1.8934787v-2.2287629c-1.3664918-1.2386876-3.1060626-1.8992237-5.052655-1.8992237zm146.2497566-8.4199218-.246185.0043294c-2.926761.103749-4.860469 2.066521-5.303181 5.2792303h11.0168c-.248719-3.2603944-2.526695-5.2835597-5.467434-5.2835597zm-129.2527714-12.5898438c1.6978742 0 3.0234012 1.27951539 3.0234012 2.97241283l-.0050287.17968523c-.0901267 1.60224504-1.3811366 2.79199851-3.0183725 2.79199851-1.6986058 0-3.0234013-1.27951539-3.0234013-2.97168374 0-1.69289744 1.3247955-2.97241283 3.0234013-2.97241283z" fill="#fff" fill-rule="evenodd"/></svg>