<svg width="1139" height="322" viewBox="0 0 1139 322" xmlns="http://www.w3.org/2000/svg">
  <g transform="translate(63 43)" fill="#212121" fill-rule="evenodd">
    <path d="M977.957 34.597l1.048.01c2.797.06 4.187.369 5.371.905l.412.198.203.106a8.296 8.296 0 0 1 3.451 3.452l.208.407c.629 1.302.976 2.771 1.012 6.087v152.434c0 3.515-.316 5.095-.915 6.42l-.198.411c-.035.068-.07.135-.107.203a8.296 8.296 0 0 1-3.451 3.451l-.407.208c-1.234.596-2.617.939-5.58 1.002l-1.047.01H471.801l-1.047-.01c-2.797-.06-4.187-.37-5.372-.905l-.411-.198c-.068-.035-.136-.07-.203-.107a8.296 8.296 0 0 1-3.452-3.45l-.208-.408c-.595-1.234-.938-2.617-1-5.58l-.012-1.047v-42.74a83.957 83.957 0 0 0 8.707-4.739l.98-.621.448-.29.816-.54 1.016-.696.396-.283.068-.04.419-.282c1.264-.886 2.586-2.13 3.814-3.803 2.854-3.89 4.25-8.966 3.659-14.903-.728-7.17-4.993-12.2-11.219-13.445-2.565-.512-4.963-.314-7.237.277-.664.172-1.235.358-1.709.538l-.158.063v-70.39l.011-1.048c.06-2.797.369-4.187.905-5.372l.198-.411.106-.203a8.296 8.296 0 0 1 3.452-3.452l.407-.208c1.233-.595 2.617-.938 5.579-1l1.047-.011h506.156zM582.536 68.744h-14.974l-6.439 36.687c-2.396-3.744-8.236-7.338-16.77-7.338-20.515 0-35.788 19.167-35.788 40.28 0 16.621 8.535 29.2 25.156 29.2 7.337 0 14.225-3.744 17.969-8.087l-1.198 6.589h14.974l17.07-97.33zm66.783 29.35c-14.824 0-26.054 9.583-26.054 22.011 0 10.182 5.99 14.824 14.824 17.22l11.83 3.294c4.791 1.348 6.438 3.145 6.438 6.589 0 5.39-5.09 8.086-12.278 8.086-5.99 0-11.68-2.246-12.728-8.835h-14.675c1.049 12.129 10.482 21.113 27.253 21.113 14.824 0 26.953-8.385 26.953-22.61 0-8.535-4.792-14.076-15.423-17.22l-12.13-3.594c-3.892-1.198-5.39-2.995-5.39-5.84 0-4.941 4.792-7.936 11.38-7.936 7.038 0 10.482 3.444 11.38 7.786h14.226c-1.048-11.53-8.984-20.065-25.606-20.065zm69.33 0c-21.263 0-35.189 19.615-35.189 39.68 0 18.119 11.08 29.798 27.552 29.798 15.124 0 26.354-8.385 29.948-22.31h-14.824c-2.246 5.839-7.188 9.283-13.926 9.283-8.685 0-13.626-6.589-13.626-16.77 0-13.028 6.438-26.654 19.765-26.654 6.14 0 10.033 3.444 10.781 9.283h14.825c-.75-13.626-9.733-22.31-25.306-22.31zm56.75 1.497h-14.973l-7.487 43.274c-.3 1.797-.45 3.594-.45 5.241 0 11.23 6.739 19.466 19.317 19.466 8.685 0 15.423-3.893 19.316-7.786l-1.197 6.289h14.973l11.68-66.484h-14.974l-7.637 43.724c-2.845 6.289-9.583 11.38-16.171 11.38-7.188 0-10.033-3.594-10.033-9.284 0-1.348.15-2.845.45-4.343l7.187-41.477zm79.363-1.498c-14.825 0-26.055 9.584-26.055 22.012 0 10.182 5.99 14.824 14.824 17.22l11.83 3.294c4.791 1.348 6.438 3.145 6.438 6.589 0 5.39-5.09 8.086-12.278 8.086-5.99 0-11.68-2.246-12.728-8.835h-14.675c1.049 12.129 10.482 21.113 27.253 21.113 14.824 0 26.953-8.385 26.953-22.61 0-8.535-4.792-14.076-15.423-17.22l-12.129-3.594c-3.893-1.198-5.39-2.995-5.39-5.84 0-4.941 4.791-7.936 11.38-7.936 7.037 0 10.481 3.444 11.38 7.786h14.225c-1.048-11.53-8.984-20.065-25.605-20.065zm64.238 0c-14.825 0-26.055 9.584-26.055 22.012 0 10.182 5.99 14.824 14.824 17.22l11.83 3.294c4.791 1.348 6.438 3.145 6.438 6.589 0 5.39-5.09 8.086-12.278 8.086-5.99 0-11.68-2.246-12.728-8.835h-14.674c1.048 12.129 10.481 21.113 27.252 21.113 14.824 0 26.953-8.385 26.953-22.61 0-8.535-4.792-14.076-15.423-17.22l-12.129-3.594c-3.893-1.198-5.39-2.995-5.39-5.84 0-4.941 4.791-7.936 11.38-7.936 7.037 0 10.481 3.444 11.38 7.786h14.225c-1.048-11.53-8.984-20.065-25.605-20.065zm-307.714 1.498h-14.974l-11.68 66.484h14.974l11.68-66.484zm-66.335 11.83c7.038 0 11.98 3.593 13.627 8.834l-4.193 23.958c-3.594 5.24-9.134 10.033-16.92 10.033-8.835 0-13.926-6.739-13.926-15.873 0-13.476 8.086-26.953 21.412-26.953zm62.442-41.03c-4.942 0-9.284 4.044-9.284 9.135 0 5.09 4.342 9.134 9.284 9.134 4.94 0 9.283-4.043 9.283-9.134s-4.342-9.134-9.283-9.134z"/>
    <path d="M463.415 125.197s-11.467 8.897-21.562 7.903c-10.095-.993-6.925-23.549-6.925-23.549s2.177-20.686-3.769-22.424c-5.93-1.724-13.25 5.39-13.25 5.39s-9.1 10.095-13.454 22.965l-1.198.395s1.388-22.57-.19-27.713c-1.183-2.571-12.067-2.367-13.85 2.177-1.781 4.558-10.488 36.215-11.087 49.48 0 0-17.02 14.447-31.847 16.814-14.843 2.381-18.407-6.925-18.407-6.925s40.364-11.278 38.976-43.534c-1.373-32.256-32.548-20.32-36.069-17.676-3.418 2.571-21.635 13.557-26.953 43.987-.175 1.022-.497 5.551-.497 5.551s-15.63 10.474-24.338 13.25c0 0 24.338-40.963-5.332-59.56-8.345-5.023-15.618-.401-19.945 3.842-2.657 2.606 35.97-39.647 27.06-77.455C276.54.117 267.542-1.81 259.288 1.111c-12.534 4.937-17.282 12.256-17.282 12.256s-16.23 23.55-20 58.581c-3.754 35.017-9.29 77.368-9.29 77.368s-7.728 7.523-14.843 7.918c-7.129.38-3.959-21.183-3.959-21.183s5.537-32.84 5.157-38.391c-.409-5.537-.803-8.503-7.333-10.475-6.53-1.987-13.66 6.326-13.66 6.326s-18.786 28.487-20.364 32.84l-1.008 1.797-.979-1.198s13.25-38.786.6-39.37c-12.667-.6-20.979 13.849-20.979 13.849s-14.448 24.148-15.047 26.909l-.979-1.183s5.931-28.093 4.748-35.032c-1.198-6.925-7.713-5.537-7.713-5.537s-8.313-.993-10.49 4.354c-2.176 5.346-10.094 40.758-11.087 52.036 0 0-20.774 14.842-34.433 15.032-13.645.205-12.257-8.648-12.257-8.648s50.064-17.136 36.405-50.97c-6.136-8.707-13.25-11.439-23.345-11.249-10.094.205-22.614 6.355-30.722 24.558-3.886 8.677-5.288 16.931-6.092 23.154 0 0-8.75 1.797-13.498-2.162-4.762-3.959-7.202 0-7.202 0s-8.152 10.402-.044 13.557c8.123 3.17 20.774 4.646 20.774 4.646 1.168 5.536 4.543 14.959 14.433 22.453 14.843 11.278 43.315-1.037 43.315-1.037l11.672-6.545s.395 10.709 8.912 12.272c8.502 1.563 12.066-.03 26.909-36.04 8.707-18.407 9.305-17.414 9.305-17.414.98-.204-5.74 35.017-3.17 44.513 2.572 9.51 13.85 8.517 13.85 8.517s6.135 1.183 11.087-16.23c4.938-17.414 14.448-36.61 14.448-36.61 1.17 0-2.98 36.01 3.346 47.493 6.34 11.483 22.76 3.857 22.76 3.857s11.483-5.785 13.265-7.567c0 0 13.615 11.599 32.826 9.495 42.95-8.458 58.23-19.882 58.23-19.882s7.377 18.699 30.24 20.437c26.106 1.973 40.364-14.448 40.364-14.448s-.205 10.68 8.896 14.448c9.116 3.755 15.237-17.384 15.237-17.384l15.237-41.985c1.388 0 2.177 27.303 17.224 31.657 15.032 4.353 34.622-10.197 34.622-10.197s4.748-2.615 3.96-10.533c-.804-7.918-7.919-4.967-7.919-4.967zm-396.333-19.81c5.332 5.143 3.36 16.216-6.735 23.14-10.08 6.94-14.638 5.552-14.638 5.552.599-23.55 16.04-33.848 21.373-28.691zm196.88-81.326c3.36 17.808-29.48 70.838-29.48 70.838.395-11.877 12.067-52.037 12.067-52.037s14.04-36.609 17.414-18.801zm-32.46 135.145s-2.57-8.707 4.748-33.045c7.334-24.338 24.543-14.842 24.543-14.842s11.877 9.101 2.571 33.439c-9.291 24.338-31.862 14.448-31.862 14.448zm100.128-47.683c8.108-14.842 14.448-6.734 14.448-6.734s6.925 7.523-.993 18.801c-7.918 11.278-19.386 10.49-19.386 10.49s-2.176-7.729 5.931-22.557z" fill-rule="nonzero"/>
    <path d="M412.619 171.578v-2.842h1.802c.25 0 .5.026.763.053.263.04.513.105.724.197.223.092.394.224.526.395.145.17.21.407.21.697 0 .658-.197 1.079-.592 1.25-.394.17-.907.25-1.526.25h-1.907zm-2.144-4.513v10.814h2.144v-4.618h1.342l2.63 4.618h2.25l-2.894-4.723c.395-.04.763-.118 1.118-.237a2.61 2.61 0 0 0 .895-.513c.263-.223.46-.513.605-.868.158-.355.224-.776.224-1.276 0-1.17-.369-2-1.092-2.473-.737-.487-1.79-.724-3.144-.724h-4.078zm-3.434 5.42c0-1.105.184-2.118.566-3.039.381-.92.894-1.71 1.552-2.38a7.04 7.04 0 0 1 2.302-1.58 7.18 7.18 0 0 1 2.855-.565c1 0 1.947.184 2.828.566a7.096 7.096 0 0 1 2.316 1.578c.657.671 1.17 1.46 1.565 2.381.382.921.579 1.934.579 3.04a7.981 7.981 0 0 1-.579 3.051c-.395.921-.908 1.737-1.565 2.408a6.934 6.934 0 0 1-2.316 1.591 7.054 7.054 0 0 1-2.828.566 7.18 7.18 0 0 1-2.855-.566 6.88 6.88 0 0 1-2.302-1.591c-.658-.671-1.17-1.487-1.552-2.408-.382-.934-.566-1.947-.566-3.052zm-2.644 0c0 1.487.276 2.815.816 4 .552 1.197 1.276 2.21 2.183 3.051a9.651 9.651 0 0 0 3.17 1.934 10.64 10.64 0 0 0 3.75.671c1.315 0 2.565-.224 3.762-.67a9.651 9.651 0 0 0 3.17-1.935c.908-.842 1.632-1.854 2.184-3.052.54-1.184.803-2.512.803-3.999 0-1.46-.263-2.789-.803-3.973-.552-1.197-1.276-2.21-2.183-3.038a9.651 9.651 0 0 0-3.17-1.934 10.368 10.368 0 0 0-3.763-.684 10.35 10.35 0 0 0-3.75.684 9.651 9.651 0 0 0-3.17 1.934c-.907.828-1.63 1.841-2.183 3.038-.54 1.184-.816 2.513-.816 3.973z" fill-rule="nonzero"/>
  </g>
</svg>
