<svg width="1139" height="322" viewBox="0 0 1139 322" xmlns="http://www.w3.org/2000/svg">
  <g transform="translate(63 43.21)" fill="none" fill-rule="evenodd">
    <path d="M466.584 34.696h516.745c2.23 0 3.037.232 3.852.667a4.543 4.543 0 0 1 1.89 1.89c.436.815.668 1.624.668 3.852V203.59c0 2.23-.232 3.037-.668 3.852a4.543 4.543 0 0 1-1.89 1.89c-.815.436-1.623.668-3.852.668H466.584c-2.23 0-3.037-.232-3.852-.668a4.543 4.543 0 0 1-1.89-1.89c-.436-.815-.668-1.623-.668-3.852V41.105c0-2.228.232-3.037.668-3.851a4.543 4.543 0 0 1 1.89-1.89c.815-.436 1.623-.668 3.852-.668z" fill="#DCE0E6"/>
    <path d="M533.798 167.671c7.337 0 14.225-3.743 17.969-8.086l-1.198 6.589h14.974l17.07-97.33h-14.974L561.2 105.53c-2.395-3.744-8.235-7.338-16.77-7.338-20.515 0-35.788 19.167-35.788 40.28 0 16.621 8.535 29.2 25.156 29.2zm3.744-13.326c-8.835 0-13.926-6.739-13.926-15.873 0-13.476 8.086-26.953 21.413-26.953 7.037 0 11.979 3.594 13.626 8.835l-4.193 23.958c-3.594 5.24-9.134 10.033-16.92 10.033zm69.928-65.586c4.941 0 9.284-4.043 9.284-9.134s-4.343-9.134-9.284-9.134c-4.942 0-9.284 4.043-9.284 9.134 0 5.09 4.342 9.134 9.284 9.134zm-7.787 77.415l11.68-66.484h-14.974l-11.68 66.484h14.974zm44.323 1.497c14.824 0 26.953-8.385 26.953-22.61 0-8.535-4.792-14.076-15.423-17.22l-12.129-3.594c-3.893-1.198-5.39-2.995-5.39-5.84 0-4.941 4.791-7.936 11.38-7.936 7.037 0 10.481 3.444 11.38 7.786h14.225c-1.048-11.53-8.984-20.065-25.605-20.065-14.824 0-26.055 9.584-26.055 22.012 0 10.182 5.99 14.824 14.824 17.22l11.83 3.294c4.791 1.348 6.438 3.145 6.438 6.589 0 5.39-5.09 8.086-12.278 8.086-5.99 0-11.68-2.246-12.728-8.835h-14.674c1.048 12.129 10.481 21.113 27.252 21.113zm67.083 0c15.124 0 26.354-8.385 29.948-22.31h-14.824c-2.246 5.839-7.188 9.283-13.926 9.283-8.685 0-13.626-6.589-13.626-16.77 0-13.028 6.439-26.654 19.765-26.654 6.14 0 10.033 3.444 10.782 9.283h14.824c-.749-13.626-9.733-22.31-25.306-22.31-21.263 0-35.189 19.615-35.189 39.68 0 18.119 11.08 29.798 27.552 29.798zm60.794 0c8.685 0 15.423-3.893 19.317-7.786l-1.198 6.289h14.974l11.68-66.484H801.68l-7.636 43.724c-2.845 6.289-9.584 11.38-16.172 11.38-7.188 0-10.033-3.594-10.033-9.284 0-1.348.15-2.845.45-4.343l7.187-41.477h-14.974l-7.487 43.274a32.271 32.271 0 0 0-.449 5.241c0 11.23 6.738 19.466 19.316 19.466zm77.565 0c14.824 0 26.953-8.385 26.953-22.61 0-8.535-4.791-14.076-15.423-17.22l-12.129-3.594c-3.893-1.198-5.39-2.995-5.39-5.84 0-4.941 4.791-7.936 11.38-7.936 7.038 0 10.482 3.444 11.38 7.786h14.225c-1.048-11.53-8.984-20.065-25.605-20.065-14.824 0-26.055 9.584-26.055 22.012 0 10.182 5.99 14.824 14.824 17.22l11.83 3.294c4.791 1.348 6.439 3.145 6.439 6.589 0 5.39-5.092 8.086-12.28 8.086-5.989 0-11.679-2.246-12.727-8.835h-14.674c1.048 12.129 10.481 21.113 27.252 21.113zm64.238 0c14.824 0 26.953-8.385 26.953-22.61 0-8.535-4.791-14.076-15.423-17.22l-12.129-3.594c-3.893-1.198-5.39-2.995-5.39-5.84 0-4.941 4.791-7.936 11.38-7.936 7.038 0 10.482 3.444 11.38 7.786h14.225c-1.048-11.53-8.984-20.065-25.605-20.065-14.824 0-26.055 9.584-26.055 22.012 0 10.182 5.99 14.824 14.824 17.22l11.83 3.294c4.791 1.348 6.439 3.145 6.439 6.589 0 5.39-5.092 8.086-12.279 8.086-5.99 0-11.68-2.246-12.728-8.835h-14.674c1.048 12.129 10.481 21.113 27.252 21.113z" fill="#42474F" fill-rule="nonzero"/>
    <g fill="#E04E39" fill-rule="nonzero">
      <path d="M463.493 125.296s-11.468 8.897-21.563 7.903c-10.094-.993-6.924-23.549-6.924-23.549s2.176-20.686-3.77-22.424c-5.93-1.724-13.25 5.39-13.25 5.39s-9.1 10.095-13.454 22.965l-1.198.395s1.388-22.57-.19-27.713c-1.183-2.571-12.067-2.367-13.849 2.177-1.782 4.558-10.489 36.215-11.088 49.48 0 0-17.019 14.447-31.847 16.814-14.842 2.381-18.407-6.925-18.407-6.925s40.364-11.278 38.976-43.534c-1.373-32.256-32.548-20.32-36.069-17.676-3.418 2.571-21.635 13.557-26.953 43.987-.175 1.022-.496 5.551-.496 5.551s-15.632 10.474-24.339 13.25c0 0 24.339-40.963-5.332-59.56-8.344-5.023-15.618-.401-19.945 3.842-2.657 2.606 35.971-39.647 27.06-77.455C276.618.216 267.619-1.712 259.365 1.21c-12.534 4.937-17.282 12.256-17.282 12.256s-16.23 23.55-19.999 58.581c-3.754 35.017-9.291 77.368-9.291 77.368s-7.728 7.523-14.843 7.918c-7.129.38-3.959-21.183-3.959-21.183s5.537-32.84 5.157-38.391c-.409-5.537-.803-8.503-7.333-10.475-6.53-1.987-13.66 6.326-13.66 6.326s-18.786 28.487-20.364 32.84l-1.008 1.797-.979-1.198s13.25-38.786.6-39.37c-12.666-.6-20.979 13.849-20.979 13.849s-14.448 24.148-15.047 26.909l-.979-1.183s5.932-28.093 4.748-35.032c-1.198-6.925-7.713-5.537-7.713-5.537s-8.312-.993-10.49 4.354c-2.176 5.346-10.094 40.758-11.087 52.036 0 0-20.774 14.842-34.433 15.032-13.644.205-12.257-8.648-12.257-8.648s50.064-17.136 36.405-50.97c-6.135-8.707-13.25-11.439-23.344-11.249-10.095.205-22.615 6.355-30.722 24.558-3.886 8.677-5.289 16.931-6.092 23.154 0 0-8.75 1.797-13.499-2.162-4.762-3.959-7.202 0-7.202 0s-8.151 10.402-.044 13.557c8.123 3.17 20.774 4.646 20.774 4.646 1.169 5.536 4.543 14.959 14.433 22.453 14.843 11.278 43.315-1.037 43.315-1.037l11.672-6.545s.395 10.709 8.912 12.272c8.502 1.563 12.067-.03 26.909-36.04 8.707-18.407 9.306-17.414 9.306-17.414.978-.204-5.742 35.017-3.17 44.513 2.57 9.51 13.849 8.517 13.849 8.517s6.135 1.183 11.088-16.23c4.937-17.414 14.448-36.61 14.448-36.61 1.168 0-2.98 36.01 3.345 47.493 6.34 11.483 22.76 3.857 22.76 3.857s11.483-5.785 13.265-7.567c0 0 13.615 11.599 32.826 9.495 42.95-8.458 58.23-19.882 58.23-19.882s7.377 18.699 30.24 20.437c26.106 1.973 40.364-14.448 40.364-14.448s-.205 10.68 8.897 14.448c9.115 3.755 15.236-17.384 15.236-17.384l15.237-41.985c1.388 0 2.177 27.303 17.224 31.657 15.032 4.353 34.623-10.197 34.623-10.197s4.747-2.615 3.959-10.533c-.804-7.918-7.918-4.967-7.918-4.967zm-396.334-19.81c5.332 5.143 3.36 16.216-6.735 23.14-10.08 6.94-14.638 5.552-14.638 5.552.6-23.55 16.04-33.848 21.373-28.691zM264.04 24.16c3.36 17.808-29.48 70.838-29.48 70.838.394-11.877 12.067-52.037 12.067-52.037S260.666 6.352 264.04 24.16zm-32.46 135.145s-2.572-8.707 4.747-33.045c7.334-24.338 24.543-14.842 24.543-14.842s11.877 9.1 2.571 33.439c-9.291 24.338-31.861 14.448-31.861 14.448zm100.128-47.683c8.107-14.842 14.448-6.734 14.448-6.734s6.924 7.523-.994 18.801c-7.918 11.278-19.386 10.49-19.386 10.49s-2.176-7.729 5.932-22.557z"/>
      <path d="M412.696 171.677v-2.842h1.802c.25 0 .5.026.763.053.264.04.513.105.724.197.224.092.395.224.526.395.145.17.21.407.21.697 0 .658-.197 1.079-.591 1.25-.395.17-.908.25-1.526.25h-1.908zm-2.144-4.513v10.814h2.144v-4.618h1.342l2.631 4.618h2.25l-2.895-4.723c.395-.04.763-.118 1.119-.237a2.61 2.61 0 0 0 .894-.513c.263-.223.46-.513.605-.868.158-.355.224-.776.224-1.276 0-1.17-.368-2-1.092-2.473-.737-.487-1.79-.724-3.144-.724h-4.078zm-3.434 5.42c0-1.105.185-2.118.566-3.039.382-.92.895-1.71 1.552-2.38a7.04 7.04 0 0 1 2.303-1.58 7.18 7.18 0 0 1 2.854-.565c1 0 1.947.184 2.829.566a7.096 7.096 0 0 1 2.315 1.578c.658.671 1.17 1.46 1.565 2.381.382.921.58 1.934.58 3.04a7.981 7.981 0 0 1-.58 3.051c-.394.921-.907 1.737-1.565 2.408a6.934 6.934 0 0 1-2.315 1.591 7.054 7.054 0 0 1-2.829.566 7.18 7.18 0 0 1-2.854-.566 6.88 6.88 0 0 1-2.303-1.591c-.657-.671-1.17-1.487-1.552-2.408-.381-.934-.566-1.947-.566-3.052zm-2.644 0c0 1.487.276 2.815.816 4 .552 1.197 1.276 2.21 2.184 3.051a9.651 9.651 0 0 0 3.17 1.934c1.197.447 2.447.671 3.75.671 1.315 0 2.564-.224 3.762-.67a9.651 9.651 0 0 0 3.17-1.935c.908-.842 1.631-1.854 2.184-3.052.539-1.184.802-2.512.802-3.999 0-1.46-.263-2.789-.802-3.973-.553-1.197-1.276-2.21-2.184-3.038a9.651 9.651 0 0 0-3.17-1.934 10.368 10.368 0 0 0-3.763-.684 10.35 10.35 0 0 0-3.749.684 9.651 9.651 0 0 0-3.17 1.934c-.908.828-1.632 1.841-2.184 3.038-.54 1.184-.816 2.513-.816 3.973z"/>
    </g>
  </g>
</svg>
