<svg width="183" height="24" viewBox="0 0 183 24" fill="none" xmlns="http://www.w3.org/2000/svg">
<path d="M46.697 6.04688C45.8102 6.04688 45.0054 6.57998 44.6722 7.39742L40.4075 17.7651H42.709C43.3241 17.7651 43.8726 17.3894 44.0879 16.8207L44.3749 16.0693H49.0139L49.3009 16.8207C49.5162 17.3894 50.0698 17.7651 50.6798 17.7651H52.9813L48.7166 7.39742C48.3885 6.57998 47.5837 6.04688 46.697 6.04688ZM45.436 13.2971L46.697 9.99188L47.9579 13.2971H45.436Z" fill="#041635"/>
<path d="M148.523 7.39229C148.19 6.57486 147.385 6.04175 146.498 6.04175C145.612 6.04175 144.807 6.57486 144.474 7.39229L140.209 17.76H142.511C143.126 17.76 143.674 17.3843 143.889 16.8156L144.176 16.0642H148.815L149.102 16.8156C149.318 17.3843 149.871 17.76 150.481 17.76H152.783L148.523 7.39229ZM145.238 13.2971L146.498 9.99182L147.759 13.2971H145.238Z" fill="#041635"/>
<path d="M61.8749 17.9631C65.0837 17.9631 67.3442 15.9221 67.3442 12.5813V7.50911C67.3442 6.70184 66.683 6.04688 65.868 6.04688H64.2943V12.4188C64.3251 13.9775 63.6997 15.0691 61.8749 15.0691H61.9005C60.0757 15.0691 59.4554 13.9775 59.4811 12.4188V7.50911C59.4811 6.70184 58.8198 6.04688 58.0048 6.04688H56.4312V12.5813C56.4312 15.9221 58.6866 17.9631 61.9005 17.9631H61.8749Z" fill="#041635"/>
<path d="M75.4122 8.96623H77.6625C79.5745 8.96623 80.3844 10.1492 80.3844 11.8958C80.3844 13.6423 79.5745 14.8253 77.6625 14.8253H75.4122V8.96623ZM72.3879 17.7701H78.0982C81.1686 17.7701 83.506 15.3584 83.506 11.9009V11.911C83.506 8.45343 81.1686 6.04175 78.0982 6.04175H72.3879V17.7701Z" fill="#041635"/>
<path d="M174.906 8.96623H177.156C179.068 8.96623 179.878 10.1492 179.878 11.8958C179.878 13.6423 179.068 14.8253 177.156 14.8253H174.906V8.96623ZM171.882 17.7701H177.592C180.663 17.7701 183 15.3584 183 11.9009V11.911C183 8.45343 180.663 6.04175 177.592 6.04175H171.882V17.7701Z" fill="#041635"/>
<path d="M91.441 17.8615H90.0211C89.1036 17.8615 88.3604 17.1253 88.3604 16.2165V6.14331H89.7802C90.6978 6.14331 91.441 6.87951 91.441 7.78833V17.8615Z" fill="#041635"/>
<path d="M105.091 6.14331H96.1519V7.61063C96.1519 8.4179 96.8131 9.07287 97.6281 9.07287H99.8169V17.8615H102.898V9.07287H106.563V7.60555C106.568 6.79827 105.906 6.14331 105.091 6.14331Z" fill="#041635"/>
<path d="M118.859 11.84C119.587 11.4338 120.325 10.662 120.325 9.3775C120.325 7.34153 118.649 6.14331 116.748 6.14331H110.566V17.8615H117.27C119.193 17.8615 120.869 16.4399 120.869 14.6832C120.869 13.2616 120.059 12.2207 118.859 11.84ZM113.651 8.87993H116.337C116.942 8.87993 117.275 9.21503 117.275 9.80906C117.275 10.4031 116.83 10.7382 116.225 10.7382H113.651V8.87993ZM116.635 15.1452H113.651V13.0636H116.707C117.501 13.0636 117.783 13.5205 117.783 14.1044C117.783 14.6883 117.429 15.1452 116.635 15.1452Z" fill="#041635"/>
<path d="M137.308 12.0025C137.308 15.3585 134.483 18.0799 131.003 18.0799C127.517 18.0799 124.698 15.3585 124.698 12.0025C124.698 8.64644 127.522 5.92505 131.003 5.92505C134.483 5.92505 137.308 8.64644 137.308 12.0025ZM130.998 8.80383C129.224 8.80383 127.789 10.2356 127.789 12.0025C127.789 13.7694 129.224 15.2011 130.998 15.2011C132.771 15.2011 134.207 13.7694 134.207 12.0025C134.207 10.2356 132.771 8.80383 130.998 8.80383Z" fill="#041635"/>
<path d="M164.644 14.3532C165.521 13.9013 167.017 12.8554 167.017 10.4386C167.017 7.67663 165.09 6.14331 162.578 6.14331H156.75V17.8615H159.764V14.734H161.338L163.158 17.2523C163.434 17.6381 163.88 17.8615 164.357 17.8615H167.176L164.644 14.3532ZM162.332 12.0024H159.764V8.87993H162.394C163.68 8.87993 164.055 9.58059 164.055 10.4437C164.055 11.3018 163.614 12.0024 162.332 12.0024Z" fill="#041635"/>
<g clip-path="url(#clip0)">
<path d="M7.85341 11.3668L11.5085 15.0182L12.6844 16.1929C11.6389 15.1132 10.9953 13.6428 10.9953 12.0206C10.9953 8.70005 13.6891 6.01163 17.0103 6.01163C18.702 6.01163 20.2309 6.71154 21.3253 7.83466C21.6647 8.17376 22.5147 9.02288 22.5147 9.02288L26.1671 12.6716C26.9275 13.4312 27.8752 13.8951 28.8637 14.0715C30.4495 14.3536 32.1468 13.8897 33.3633 12.6716L34.0205 12.0151L25.4421 3.44801C24.6708 2.68842 23.7964 2.03462 22.8406 1.50562C21.1135 0.547992 19.1257 0 17.0103 0C11.0659 0 6.13174 4.30798 5.15686 9.96694C6.14532 10.1433 7.09305 10.6072 7.85341 11.3668Z" fill="url(#paint0_linear)"/>
<path d="M26.1671 12.6743L22.5147 9.02286L21.3388 7.84821C22.3843 8.92791 23.0279 10.3983 23.0279 12.0205C23.0279 15.341 20.3341 18.0295 17.013 18.0295C15.3212 18.0295 13.7923 17.3295 12.6979 16.2064C12.3585 15.8673 11.5085 15.0182 11.5085 15.0182L7.85339 11.3667C7.09303 10.6072 6.1453 10.1433 5.15684 9.96693C3.57096 9.68479 1.87373 10.1514 0.657165 11.3667L0 12.0233L8.57844 20.5931C9.34966 21.3527 10.2241 22.0065 11.1799 22.5355C12.907 23.4931 14.8948 24.0411 17.013 24.0411C22.9573 24.0411 27.8915 19.7331 28.8664 14.0741C27.8752 13.8978 26.9275 13.4339 26.1671 12.6743Z" fill="url(#paint1_linear)"/>
</g>
<defs>
<linearGradient id="paint0_linear" x1="25.5152" y1="3.52096" x2="7.73967" y2="21.3144" gradientUnits="userSpaceOnUse">
<stop stop-color="#3459F8"/>
<stop offset="0.4" stop-color="#3459F8"/>
<stop offset="0.459" stop-color="#2F53E6"/>
<stop offset="0.578" stop-color="#2442B5"/>
<stop offset="0.7446" stop-color="#112869"/>
<stop offset="0.85" stop-color="#041635"/>
</linearGradient>
<linearGradient id="paint1_linear" x1="8.50548" y1="20.5198" x2="26.2811" y2="2.72629" gradientUnits="userSpaceOnUse">
<stop stop-color="#3478F8"/>
<stop offset="0.4" stop-color="#3478F8"/>
<stop offset="0.459" stop-color="#2F6FE6"/>
<stop offset="0.578" stop-color="#2457B5"/>
<stop offset="0.7446" stop-color="#113069"/>
<stop offset="0.85" stop-color="#041635"/>
</linearGradient>
<clipPath id="clip0">
<rect width="34" height="24" fill="white"/>
</clipPath>
</defs>
</svg>
