<?xml version="1.0" encoding="UTF-8"?>
<svg width="638px" height="115px" viewBox="0 0 638 115" version="1.1" xmlns="http://www.w3.org/2000/svg" xmlns:xlink="http://www.w3.org/1999/xlink">
    <!-- Generator: Sketch 52.6 (67491) - http://www.bohemiancoding.com/sketch -->
    <title>cardstack-2018-logo-horizontal</title>
    <desc>Created with Sketch.</desc>
    <g id="cardstack-2018-logo-horizontal" stroke="none" stroke-width="1" fill="none" fill-rule="evenodd">
        <polygon id="Fill-1" fill="#00EBE5" points="0.1737 87.7764 54.1447 114.8344 77.7967 103.0434 23.6777 76.0624"></polygon>
        <polygon id="Fill-2" fill="#00EBE5" points="0.0945 57.4176 84.6975 99.6016 108.2625 87.8536 23.6605 45.6696"></polygon>
        <polygon id="Fill-3" fill="#00EBE5" points="84.6062 69.1798 108.1902 57.4178 84.6242 45.6698 61.0402 57.4318"></polygon>
        <polygon id="Fill-4" fill="#37EB77" points="0 26.9958 54.14 53.9908 77.724 42.2278 23.58 15.2398"></polygon>
        <polygon id="Fill-5" fill="#37EB77" points="84.6242 38.7877 108.2842 26.9957 84.7042 15.2407 61.0412 27.0317"></polygon>
        <polygon id="Fill-6" fill="#37EB77" points="54.1404 0.0003 30.4804 11.7993 54.1444 23.5913 77.8044 11.7993"></polygon>
        <g id="Group-27" transform="translate(138.000000, 25.834000)" fill="#281E78">
            <path d="M48.7043,12.1652 C44.3043,7.9702 38.2673,5.9232 31.8203,5.9232 C18.1093,5.9232 6.9553,15.9512 6.9553,31.6072 C6.9553,47.2632 18.1093,57.2902 31.8203,57.2902 C38.2673,57.2902 44.6113,55.3462 49.0113,51.2532 L49.0113,58.5192 C44.2023,61.3842 38.0623,63.0212 31.9233,63.0212 C13.5043,63.0212 0.5093,50.2302 0.5093,31.6072 C0.5093,12.8812 14.4253,0.1932 31.9233,0.1932 C38.0623,0.1932 43.7923,1.8302 48.7043,4.7982 L48.7043,12.1652 Z" id="Fill-7"></path>
            <path d="M84.2619,6.3326 L71.5739,39.8956 L97.0529,39.8956 L84.2619,6.3326 Z M69.6299,45.2166 L63.2849,61.9976 L56.7369,61.9976 L80.2709,1.2166 L88.3549,1.2166 L112.1969,61.9976 L105.4429,61.9976 L99.0989,45.2166 L69.6299,45.2166 Z" id="Fill-9"></path>
            <path d="M128.7326,33.2443 L135.0766,33.2443 C145.1046,33.2443 151.0396,28.5373 151.0396,19.2253 C151.0396,11.4493 146.2306,5.7193 133.8486,5.7193 C132.6206,5.7193 130.1656,5.8213 128.7326,5.9233 L128.7326,33.2443 Z M128.7326,61.9973 L122.3886,61.9973 L122.3886,1.1143 C125.1506,0.7043 130.3696,0.1933 133.9506,0.1933 C150.3226,0.1933 157.5876,7.7653 157.5876,19.0213 C157.5876,28.0253 152.4716,34.6773 144.3886,37.0303 L164.5466,61.9973 L156.6676,61.9973 L137.8396,38.4633 L128.7326,38.4633 L128.7326,61.9973 Z" id="Fill-11"></path>
            <path d="M180.6218,57.0861 C183.0778,57.3931 185.4308,57.4951 187.6828,57.4951 C205.0778,57.4951 217.3568,48.7971 217.3568,30.2771 C217.3568,15.9511 208.2498,5.9231 186.5568,5.9231 C184.6128,5.9231 182.7698,6.0251 180.6218,6.2301 L180.6218,57.0861 Z M174.2778,1.0121 C178.7798,0.5001 182.9758,0.1931 186.7608,0.1931 C214.5938,0.1931 224.0078,14.6211 224.0078,30.1741 C224.0078,47.2631 214.0818,63.0211 187.5798,63.0211 C182.4638,63.0211 178.5748,62.6111 174.2778,62.1001 L174.2778,1.0121 Z" id="Fill-13"></path>
            <path d="M233.4938,51.3561 C238.4058,55.2441 242.8058,57.5981 248.9448,57.5981 C256.2098,57.5981 262.4518,54.4251 262.4518,46.4441 C262.4518,39.1791 257.0288,36.4161 249.7638,33.7561 C238.9168,29.7651 233.0838,26.1841 233.0838,15.8491 C233.0838,5.5141 241.6798,0.1931 250.7868,0.1931 C256.7218,0.1931 261.6328,2.0351 265.3168,5.0021 L265.3168,11.5511 C260.4058,7.6631 256.3118,5.6161 250.7868,5.6161 C243.9308,5.6161 239.2238,9.7101 239.2238,15.9511 C239.2238,21.7841 242.7028,24.6491 251.5028,27.7191 C262.7588,31.6071 268.6938,35.8021 268.6938,46.4441 C268.6938,57.5981 259.8938,63.0211 248.9448,63.0211 C242.3958,63.0211 237.1778,61.1791 233.4938,58.3141 L233.4938,51.3561 Z" id="Fill-15"></path>
            <polygon id="Fill-17" points="301.6721 61.9977 295.3281 61.9977 295.3281 6.7417 275.2721 6.7417 275.2721 1.2167 321.7281 1.2167 321.7281 6.7417 301.6721 6.7417"></polygon>
            <path d="M345.0778,6.3326 L332.3898,39.8956 L357.8688,39.8956 L345.0778,6.3326 Z M330.4448,45.2166 L324.1008,61.9976 L317.5528,61.9976 L341.0868,1.2166 L349.1708,1.2166 L373.0128,61.9976 L366.2588,61.9976 L359.9148,45.2166 L330.4448,45.2166 Z" id="Fill-19"></path>
            <path d="M424.9431,12.1652 C420.5431,7.9702 414.5061,5.9232 408.0591,5.9232 C394.3481,5.9232 383.1941,15.9512 383.1941,31.6072 C383.1941,47.2632 394.3481,57.2902 408.0591,57.2902 C414.5061,57.2902 420.8501,55.3462 425.2501,51.2532 L425.2501,58.5192 C420.4411,61.3842 414.3011,63.0212 408.1621,63.0212 C389.7431,63.0212 376.7481,50.2302 376.7481,31.6072 C376.7481,12.8812 390.6641,0.1932 408.1621,0.1932 C414.3011,0.1932 420.0311,1.8302 424.9431,4.7982 L424.9431,12.1652 Z" id="Fill-21"></path>
            <path d="M472.5544,1.2164 L480.4334,1.2164 L453.0104,31.5044 L482.3774,61.9974 L474.1914,61.9974 L445.1314,32.1184 L472.5544,1.2164 Z M438.3774,61.9974 L444.7214,61.9974 L444.7214,1.2164 L438.3774,1.2164 L438.3774,61.9974 Z" id="Fill-23"></path>
            <path d="M493.153,58.4821 L493.709,58.4821 C494.523,58.4821 495.059,58.1651 495.059,57.3901 C495.059,56.6751 494.582,56.2981 493.709,56.2981 C493.51,56.2981 493.292,56.3181 493.153,56.3381 L493.153,58.4821 Z M493.153,61.9761 L491.565,61.9761 L491.565,55.1071 C492.141,54.9881 492.974,54.8891 493.689,54.8891 C495.535,54.8891 496.667,55.7231 496.667,57.3311 C496.667,58.3231 496.111,59.0581 495.377,59.3561 L497.322,61.9761 L495.436,61.9761 L493.808,59.7131 L493.153,59.7131 L493.153,61.9761 Z M493.967,63.9011 C497.004,63.9011 499.208,61.6781 499.208,58.5421 C499.208,55.4051 497.004,53.1821 493.967,53.1821 C490.93,53.1821 488.726,55.4051 488.726,58.5421 C488.726,61.6781 490.93,63.9011 493.967,63.9011 Z M493.967,52.4471 C497.461,52.4471 500.002,55.1071 500.002,58.5421 C500.002,61.9761 497.461,64.6361 493.967,64.6361 C490.473,64.6361 487.932,61.9761 487.932,58.5421 C487.932,55.1071 490.473,52.4471 493.967,52.4471 Z" id="Fill-25"></path>
        </g>
    </g>
</svg>