<svg height="29" width="164" xmlns="http://www.w3.org/2000/svg"><g clip-rule="evenodd" fill-rule="evenodd"><path d="m25.9881 13.5819v.0032l.004-.008c-.0014.0016-.0027.0032-.004.0048zm0-.292v.292c-.962 1.1803-2.269 2.0162-3.7302 2.3857-1.4858-1.2208-3.0429-2.3487-4.6627-3.3775-.4593-.3079-.9445-.6228-1.4553-.9542-.9453-.6135-1.9781-1.2836-3.0962-2.07147-.0035-.06701-.0122-.13248-.021-.1981-.0113-.08488-.0227-.17-.0227-.25898 0-4.06925 3.1865-7.10703 7.3929-7.10703 2.1637-.02051 4.2222.95064 5.6071 2.64542v.29528l-2.4524 2.14789h-.2857c-.7386-.82991-1.7818-1.31034-2.8809-1.32676-.8729-.01356-1.7134.33671-2.327.96976-.6135.63305-.9469 1.49398-.923 2.38353-.0238.88746.308 1.74646.9189 2.37906.6109.6327 1.4483.9845 2.3191.9742 1.0998-.0174 2.1431-.4994 2.881-1.3308h.2857zm-11.448.2238c-.0015-.0018-.0029-.0036-.0044-.0054h-.004zm3.9996 2.4863c-1.5696-.3469-2.9786-1.2229-3.9996-2.4863.1097.071.2159.142.3221.213.1634.1092.3267.2185.5029.3277 1 .6876 2.0714 1.3105 3.1746 1.9456z"/><path d="m40.3563 12.3767.6437 2.7089-.092.2965c-.5049.4118-1.1467.6312-1.8057.6173-1.6721 0-2.6-.4021-3.7621-2.2013-.0162-.026-.0329-.0529-.0502-.0807-.5759-.9269-1.7413-2.8028-2.6585-2.8028h-.3887v4.8289h-4.2428v-13.7435h6.3955c3.6785 0 5.6598 1.7748 5.6598 4.59336.0139 1.65975-1.0316 3.15437-2.6251 3.75264.4474.2823.8164.6673 1.0743 1.1209.0124.0192.0248.0386.0374.0582.2509.3912.5463.8516 1.016.8516.1976.0074.3929-.0436.5601-.1462zm-4.6488-5.56562c.0118.37766-.1437.74215-.427 1.00111-.2839.25953-.6688.38806-1.057.3529h-1.9813v-2.79013h1.9813c.3988-.01997.7877.12494 1.0704.39888.2824.27356.4326.6503.4136 1.03724z"/><path d="m48.498 2c4.2909 0 7.502 2.99203 7.502 7 0 3.988-3.2151 7-7.502 7s-7.498-2.992-7.498-7c0-4.00797 3.2071-7 7.498-7zm1.699 9.9557c1.0463-.6158 1.6708-1.7491 1.6285-2.9557.0423-1.20661-.5822-2.33995-1.6285-2.95568-1.0463-.61574-2.3477-.61574-3.394 0-1.0463.61573-1.6708 1.74907-1.6285 2.95568-.0423 1.2066.5822 2.3399 1.6285 2.9557 1.0463.6157 2.3477.6157 3.394 0z"/></g><path d="m75.8207 2h-3.7919l-2.346 7.7562-2.4903-7.7562h-2.4045l-2.4669 7.71074-2.3499-7.71074h-3.7919l-.1793.32231 4.8558 13.67769h2.4045l2.728-7.62397 2.7514 7.62397h2.4084l4.8519-13.67769z"/><path clip-rule="evenodd" d="m84.0784 2c4.2787 0 6.9099 2.79835 6.9099 6.9814l.0117-.00827c0 4.22437-2.6156 7.02687-6.9099 7.02687h-6.0901v-14zm-.1616 10.5527c1.7445 0 3.013-1.2723 3.0138-3.55272v.00207-.00413.00206c-.0008-2.28449-1.2693-3.5527-3.0138-3.5527h-1.952v7.10542z" fill-rule="evenodd"/><path d="m113.667 5.44628h4.333v-3.44628h-13v3.44628h4.333v10.55372h4.334z"/><path clip-rule="evenodd" d="m125.213 2c3.574 0 5.499 1.81152 5.499 4.68183l.016-.01654c0 1.8322-1.003 3.10192-2.489 3.81741l2.761 5.1947-.187.3226h-4.118l-2.57-4.9176h-.983v4.9176h-4.142v-14zm1.29 4.90351c.013.38502-.138.75705-.413 1.02108-.276.2646-.651.39502-1.029.35783h-1.92v-2.84136h1.92c.388-.02166.767.12548 1.042.40476.274.27888.42.66329.4 1.05769z" fill-rule="evenodd"/><path d="m133 2h4v14h-4z"/><path d="m146.932 8.2686 4.712-5.94629-.192-.32231h-4.438l-3.85 4.97521v-4.97521h-4.164v14h4.164v-4.3058l.756-.9049 3.536 5.2107h4.356l.188-.3223z"/><path d="m163.938 5.44628v-3.44628h-9.938v14h10v-3.4463h-6.026v-1.938h4.54v-3.2314h-4.54v-1.93802z"/><path d="m98.1814 16c3.1156 0 5.8186-1.4506 5.8186-4.2562 0-3.05265-2.724-3.84571-5.1303-4.50725-.9427-.27099-1.9104-.58184-1.9104-1.24737 0-.47822.5381-.76914 1.3514-.76914 1.3973 0 2.5773.82892 3.1783 1.37091h.3l2.019-2.28352v-.29092c-1.072-1.13977-3.22-2.01651-5.5807-2.01651-3.3076 0-5.6016 1.70566-5.6016 4.17649 0 2.65812 2.5276 3.8218 4.6757 4.38371 1.3972.3746 2.3441.4384 2.3441 1.1637 0 .522-.6674.8329-1.6976.8329-1.3097 0-2.8989-.7971-3.6705-1.5383h-.3003l-1.9771 2.3672v.2909c1.2513 1.351 3.5412 2.3035 6.1814 2.3035"/><path d="m28 29c-.9901-2.2385-2.9784-5.1109-10.7672-9.2155-3.5877-1.981-9.72494-5.008-15.2328-10.7845.49707 2.084 3.05859 6.664 14.0823 12.3851 3.0426 1.6403 8.2057 3.1973 11.9177 7.6149"/><path d="m27 25c-.9075-2.6567-2.5441-6.0571-10.3276-11.108-3.789-2.5454-9.35037-5.75487-16.6724-13.892.523556 2.19535 2.83884 7.91044 14.4967 15.3277 3.8317 2.6607 8.7725 4.3032 12.5033 9.6723"/></svg>