<svg xmlns="http://www.w3.org/2000/svg" viewBox="0 0 1359.52 770.26" style="fill: #fff" shape-rendering="geometricPrecision">
  <title>Ilios Logo</title>
  <path d="M612,612C470.06,449,431.7,405.17,556.68,440.56,443.09,377.75,501.4,374,717,358.51,501.39,343,443.07,339.27,556.68,276.46,431.72,311.84,470.06,268,612,105c-163,141.94-206.83,180.3-171.44,55.32C377.76,273.92,374,215.61,358.52,0c-15.49,215.61-19.26,273.92-82,160.33C311.85,285.29,268,247,105,105,247,268,285.3,311.83,160.34,276.44,273.93,339.25,215.62,343,0,358.49,215.62,374,273.93,377.73,160.34,440.54,285.3,405.16,247,449,105,612c163-141.94,206.83-180.3,171.45-55.32,62.81-113.59,66.58-55.28,82,160.33C374,501.39,377.76,443.08,440.57,556.67,405.15,431.71,449,470.07,612,612Z" transform="translate(-0.01 0)" style="opacity: 0.5" fill="#cc6600"/>
  <g fill="#cc6600">
    <path d="M379.8,437V374.87h75.4V437Zm75.4,42.48V754H379.8V479.47Z" transform="translate(-0.01 0)" />
    <path d="M592.2,374.87V754H516.79V374.87Z" transform="translate(-0.01 0)" />
    <path d="M653.79,437V374.87h75.4V437Zm75.4,42.48V754h-75.4V479.47Z" transform="translate(-0.01 0)" />
    <path d="M784.94,557.26Q795,530.45,813.62,511.6a128.55,128.55,0,0,1,44.6-29.21q26-10.35,58.41-10.35t58.68,10.35a128.3,128.3,0,0,1,44.87,29.21q18.57,18.85,28.67,45.66T1058.94,617q0,32.94-10.09,59.47a129.18,129.18,0,0,1-28.67,45.41,125.08,125.08,0,0,1-44.87,28.93Q949,760.89,916.63,760.9t-58.41-10.09a125.29,125.29,0,0,1-44.6-28.93,128.78,128.78,0,0,1-28.68-45.41q-10.1-26.54-10.09-59.47T784.94,557.26Zm68.5,91.87a85.5,85.5,0,0,0,10.89,28.14,57.93,57.93,0,0,0,20.44,19.91q12.75,7.44,31.86,7.44t32.13-7.44a57.33,57.33,0,0,0,20.71-19.91,85.7,85.7,0,0,0,10.88-28.14A160.32,160.32,0,0,0,983.54,617a164.32,164.32,0,0,0-3.19-32.39,82.87,82.87,0,0,0-10.88-28.14,60.45,60.45,0,0,0-20.71-19.91q-13-7.69-32.13-7.7t-31.86,7.7a61.14,61.14,0,0,0-20.44,19.91,82.67,82.67,0,0,0-10.89,28.14A165.08,165.08,0,0,0,850.26,617,161.05,161.05,0,0,0,853.44,649.13Z" transform="translate(-0.01 0)" />
    <path d="M1165.93,685.77a44,44,0,0,0,13,14.33,55.54,55.54,0,0,0,18.32,8.23,85.77,85.77,0,0,0,21.51,2.66,79.85,79.85,0,0,0,16.72-1.86,57.11,57.11,0,0,0,15.93-5.84,36.25,36.25,0,0,0,11.95-10.62q4.79-6.63,4.78-16.73,0-17-22.57-25.48t-62.92-17q-16.47-3.71-32.13-8.76a109.37,109.37,0,0,1-27.87-13.27A64.43,64.43,0,0,1,1103,590.72q-7.44-12.48-7.43-30.53,0-26.55,10.35-43.55a76.27,76.27,0,0,1,27.35-26.81A119.83,119.83,0,0,1,1171.51,476a236.09,236.09,0,0,1,43.54-4,217.72,217.72,0,0,1,43.28,4.25,114.51,114.51,0,0,1,37.43,14.33,86.08,86.08,0,0,1,27.35,26.82q10.88,16.72,13,42.21h-71.69q-1.59-21.76-16.46-29.47t-35-7.7a130.43,130.43,0,0,0-13.81.8,45.93,45.93,0,0,0-13.54,3.45,28,28,0,0,0-10.36,7.7Q1171,539.48,1171,548a20.64,20.64,0,0,0,7.43,16.46q7.42,6.38,19.38,10.36a244.77,244.77,0,0,0,27.35,7.17q15.39,3.18,31.33,6.9a319,319,0,0,1,32.12,9A105.89,105.89,0,0,1,1316.47,612a68.15,68.15,0,0,1,19.65,21.77q7.43,13,7.43,32.12,0,27.09-10.88,45.4a87.06,87.06,0,0,1-28.41,29.47,116.18,116.18,0,0,1-40.09,15.67,234.38,234.38,0,0,1-45.93,4.51,227.14,227.14,0,0,1-46.73-4.78,122.92,122.92,0,0,1-40.62-15.93,90.9,90.9,0,0,1-29.21-29.47q-11.43-18.32-12.48-45.93h71.69Q1160.89,677,1165.93,685.77Z" transform="translate(-0.01 0)" />
  </g>
</svg>
