<svg xmlns="http://www.w3.org/2000/svg" width="131" height="30" viewBox="0 0 144 33">
  <path fill="#f43f85"
    d="M143.937 13.306a2.256 2.256 0 0 0-.856-1.183 4.327 4.327 0 0 0-1.401-.681 4.79 4.79 0 0 0-1.455-.184c-.467.018-.808.08-1.023.184-.647.35-1.555 1.03-2.721 2.044a69.517 69.517 0 0 0-3.827 3.618 110.028 110.028 0 0 0-4.23 4.536 79.74 79.74 0 0 0-3.934 4.797 80.562 80.562 0 0 1 3.234-4.588 87.89 87.89 0 0 1 3.071-3.828 49.032 49.032 0 0 1 2.613-2.858c.772-.769 1.356-1.345 1.751-1.73.215-.174.215-.384 0-.629-.215-.244-.522-.48-.916-.708a8.047 8.047 0 0 0-1.239-.577c-.431-.157-.773-.236-1.024-.236-.287.001-.808.36-1.562 1.076-.754.717-1.598 1.643-2.532 2.78a95.902 95.902 0 0 0-2.937 3.774 75.392 75.392 0 0 0-2.802 4.037c-.845 1.31-1.536 2.5-2.074 3.566-.539 1.066-.809 1.862-.809 2.386 0 .245.135.568.404.97.27.401.574.77.916 1.102.34.332.682.559 1.024.681.34.122.6.044.781-.236l.216-.42c.682-1.083 1.571-2.315 2.667-3.696a132.435 132.435 0 0 1 3.476-4.195 121.892 121.892 0 0 1 3.664-4.063c1.222-1.292 2.335-2.394 3.342-3.303-.252.419-.629.943-1.132 1.573-.503.628-.997 1.258-1.483 1.887a36.061 36.061 0 0 0-1.293 1.782c-.377.56-.565.963-.565 1.206 0 .245.089.507.269.786.18.28.422.542.728.786.304.245.628.455.97.63.341.175.673.261.997.261.287 0 .628-.112 1.024-.34a8.238 8.238 0 0 0 1.212-.865c.413-.349.826-.734 1.24-1.154.411-.419.762-.82 1.05-1.206.251-.313.323-.489.215-.524-.108-.035-.288-.016-.538.052-.253.071-.504.149-.754.236-.253.088-.396.114-.432.08-.073-.07.054-.28.377-.63.323-.349.736-.785 1.239-1.31a68.248 68.248 0 0 1 1.671-1.678 74.015 74.015 0 0 0 1.697-1.705c.52-.54.944-1.022 1.266-1.441.243-.316.384-.553.425-.71v-.152Zm-21.089.783a8.413 8.413 0 0 0-1.805-1.415 10.099 10.099 0 0 0-2.129-.945c-.737-.227-1.393-.288-1.967-.183-.79.175-1.662.612-2.613 1.31-.952.7-1.905 1.566-2.856 2.596a30.229 30.229 0 0 0-2.721 3.434 34.492 34.492 0 0 0-2.237 3.723c-.628 1.224-1.105 2.377-1.427 3.461-.323 1.083-.413 1.992-.27 2.726.072.35.378.725.915 1.127.54.402 1.141.77 1.807 1.102.664.332 1.328.594 1.994.785.664.193 1.158.271 1.481.237.754-.105 1.608-.489 2.56-1.154.952-.663 1.921-1.493 2.909-2.49a34.144 34.144 0 0 0 2.884-3.33 34.987 34.987 0 0 0 2.424-3.59c.682-1.171 1.212-2.272 1.589-3.304.377-1.03.512-1.861.404-2.49-.106-.525-.421-1.058-.942-1.6Zm-2.559 1.364c-.396.89-.989 1.958-1.779 3.198a76.401 76.401 0 0 1-2.694 3.932 70.441 70.441 0 0 1-2.937 3.775c-.952 1.136-1.796 2.044-2.532 2.726-.737.682-1.212.936-1.428.76-.252-.174-.171-.716.242-1.625.412-.909 1.006-1.983 1.779-3.224a66.317 66.317 0 0 1 2.641-3.907 69.589 69.589 0 0 1 2.882-3.722c.934-1.118 1.77-2.01 2.507-2.674.735-.664 1.247-.926 1.535-.787.25.14.178.656-.216 1.548Z" />
  <path fill="#f43f85"
    d="M116.58 0h-.012c-.06 0-.113.004-.159.012-.323.07-.871.49-1.644 1.258-.773.769-1.688 1.765-2.748 2.988a117.52 117.52 0 0 0-3.448 4.195 202.25 202.25 0 0 0-7.301 9.884 100.844 100.844 0 0 0-3.045 4.64c-.882 1.433-1.59 2.7-2.129 3.8-.539 1.102-.808 1.897-.808 2.386 0 .245.09.517.27.813.18.297.412.569.7.813.287.245.61.455.97.63.36.174.7.261 1.024.261.287 0 .628-.112 1.024-.34a8.254 8.254 0 0 0 1.212-.865c.412-.349.826-.742 1.239-1.18.412-.436.762-.847 1.051-1.233.251-.313.323-.489.215-.524-.108-.035-.287-.016-.538.052-.253.07-.513.158-.782.262-.27.106-.423.141-.458.106-.109-.106.061-.577.511-1.416.449-.84 1.106-1.932 1.967-3.277a115.456 115.456 0 0 1 3.125-4.589 195.768 195.768 0 0 1 3.961-5.347 174.644 174.644 0 0 1 4.445-5.558 144.21 144.21 0 0 1 4.581-5.243c.287-.315.314-.63.08-.944-.234-.314-.564-.603-.996-.865a4.953 4.953 0 0 0-1.401-.577c-.387-.094-.689-.141-.906-.142ZM98.466 12.385c-.754.734-1.608 1.678-2.56 2.831a84.926 84.926 0 0 0-2.964 3.829 88.005 88.005 0 0 0-2.83 4.089c-.862 1.328-1.571 2.534-2.128 3.617-.557 1.084-.835 1.887-.835 2.412 0 .245.09.516.27.813.18.297.422.569.726.813.305.245.628.454.971.63.341.174.673.261.996.261.287 0 .628-.112 1.024-.34a9.443 9.443 0 0 0 1.24-.865c.43-.349.844-.742 1.238-1.18.396-.436.755-.848 1.078-1.233.25-.314.314-.489.189-.524-.127-.035-.315-.016-.566.052-.251.07-.503.158-.754.262-.251.106-.396.141-.431.106-.144-.14-.027-.56.35-1.26.377-.698.889-1.546 1.536-2.542a61.578 61.578 0 0 1 2.236-3.198c.843-1.136 1.661-2.22 2.452-3.252a157.73 157.73 0 0 1 2.129-2.726 51.916 51.916 0 0 1 1.266-1.547c.179-.209.171-.437-.027-.681-.198-.244-.476-.472-.835-.681a7.309 7.309 0 0 0-1.185-.551c-.432-.158-.773-.236-1.024-.236-.288 0-.809.367-1.562 1.101Zm6.412-2.464a16.18 16.18 0 0 0 1.617-1.206 13.176 13.176 0 0 0 1.427-1.39c.413-.472.621-.847.621-1.127 0-.35-.117-.646-.351-.891a2.73 2.73 0 0 0-.889-.603 4.934 4.934 0 0 0-1.158-.34 4.41 4.41 0 0 0-1.159-.053c-.251.035-.558.201-.915.497-.36.298-.747.64-1.159 1.023-.414.385-.818.795-1.212 1.232-.397.438-.754.831-1.078 1.18-.288.314-.342.621-.162.917.179.298.466.55.863.76.394.21.816.377 1.266.498.448.123.798.15 1.051.08.285-.035.698-.228 1.238-.577ZM90.221 12.91c-.215-.21-.476-.446-.782-.708a11.376 11.376 0 0 0-.915-.708 4.468 4.468 0 0 0-.943-.498 1.535 1.535 0 0 0-.917-.078c-1.149.21-2.325.743-3.53 1.6a24.458 24.458 0 0 0-3.502 3.066 38.21 38.21 0 0 0-3.206 3.854 50.233 50.233 0 0 0-2.64 3.985c-.754 1.277-1.348 2.43-1.78 3.461-.43 1.031-.645 1.792-.645 2.28 0 .246.09.517.269.814.18.297.422.568.728.813.304.244.628.454.97.629.34.175.673.262.997.262.144 0 .421-.158.835-.471.413-.316.898-.735 1.455-1.26a90.739 90.739 0 0 0 1.886-1.835c.7-.698 1.41-1.432 2.129-2.201-.396.7-.7 1.328-.915 1.887-.217.56-.324 1.014-.324 1.362 0 .246.089.517.27.814.178.297.422.568.727.813.304.244.627.454.97.629.34.175.674.262.997.262.287 0 .628-.112 1.024-.34a9.477 9.477 0 0 0 1.24-.866c.43-.348.843-.742 1.238-1.18.395-.435.754-.847 1.077-1.232.251-.314.314-.49.189-.524-.126-.035-.315-.017-.565.052-.252.07-.504.157-.755.262-.251.105-.396.14-.431.105-.145-.139-.054-.541.27-1.205.323-.664.79-1.46 1.4-2.387.611-.925 1.302-1.93 2.075-3.014a178.503 178.503 0 0 1 2.235-3.067 88.198 88.198 0 0 1 1.968-2.543 44.894 44.894 0 0 1 1.266-1.521c.18-.21.17-.437-.027-.682-.198-.244-.485-.472-.862-.681a9.012 9.012 0 0 0-1.186-.55c-.413-.158-.745-.237-.996-.237-.29-.001-.72.279-1.294.838ZM77.26 26.437c.377-.768.924-1.686 1.644-2.753a57.377 57.377 0 0 1 2.479-3.381 37.92 37.92 0 0 1 2.883-3.278c.987-.996 1.939-1.816 2.856-2.464.916-.646 1.698-.935 2.344-.865-.862.91-1.842 2.054-2.937 3.435a65.947 65.947 0 0 0-3.152 4.325c-.754.804-1.51 1.591-2.263 2.36-.754.77-1.437 1.459-2.047 2.07a34.99 34.99 0 0 1-1.51 1.442c-.395.35-.61.507-.646.471-.145-.138-.028-.593.35-1.362Z" />
  <path fill="#f43f85"
    d="M76.049 7.09c-.575 0-1.033.13-1.373.392a4.909 4.909 0 0 0-.944.97c-.288.42-.495.813-.62 1.18-.127.367.062.55.565.55h1.725a181.819 181.819 0 0 0-4.204 5.61 148.702 148.702 0 0 0-3.933 5.716c-1.186 1.817-2.156 3.425-2.91 4.823-.754 1.398-1.132 2.343-1.132 2.831 0 .245.09.517.27.814.18.296.42.568.727.812.305.245.628.455.97.63.34.175.673.262.997.262.287 0 .628-.113 1.024-.341a9.493 9.493 0 0 0 1.24-.865c.43-.348.843-.742 1.239-1.18a43.9 43.9 0 0 0 1.078-1.232c.25-.314.313-.49.188-.525-.126-.035-.315-.016-.565.052-.252.071-.503.158-.754.263-.252.105-.396.14-.432.105-.18-.14.036-.76.646-1.862s1.464-2.49 2.56-4.168a119.35 119.35 0 0 1 3.907-5.584c1.51-2.045 3.09-4.098 4.742-6.16H83c.538 0 .997-.166 1.373-.5.377-.331.727-.689 1.051-1.074a7.7 7.7 0 0 0 .674-1.048c.161-.315-.046-.473-.62-.473h-1.832l1.293-1.415c.18-.21.17-.437-.026-.682-.199-.244-.486-.472-.863-.682a9.251 9.251 0 0 0-1.185-.55c-.413-.158-.746-.236-.997-.236-.288 0-.782.323-1.483.97-.7.647-1.518 1.512-2.451 2.595h-1.885v.001Zm-16.65 13.58a71.235 71.235 0 0 0-2.317 3.486 33.124 33.124 0 0 0-1.67 2.988c-.432.892-.647 1.565-.647 2.019 0 .245.09.517.27.813.179.297.421.569.727.813.304.245.627.455.97.63.34.174.674.261.997.261.287 0 .627-.112 1.024-.34a9.486 9.486 0 0 0 1.239-.865c.431-.349.844-.742 1.24-1.18.394-.436.753-.847 1.077-1.233.25-.313.314-.489.189-.524-.127-.035-.315-.016-.566.052-.252.071-.503.158-.754.262-.252.106-.396.141-.431.106-.144-.14-.027-.56.35-1.259.377-.699.889-1.546 1.536-2.543a61.129 61.129 0 0 1 2.236-3.198 934.57 934.57 0 0 1 2.425-3.251c.772-1.03 1.473-1.94 2.101-2.727.628-.786 1.069-1.301 1.32-1.547.18-.174.17-.384-.027-.629-.197-.244-.477-.48-.834-.708a6.556 6.556 0 0 0-1.159-.577c-.413-.157-.746-.236-.997-.236h-.054c-.431 0-1.258.49-2.479 1.468-1.221.98-2.596 2.238-4.121 3.775a101.589 101.589 0 0 0-4.716 5.112 91.979 91.979 0 0 0-4.365 5.427 60.297 60.297 0 0 1 3.342-4.798 118.512 118.512 0 0 1 3.233-4.01 64.514 64.514 0 0 1 2.694-3.015c.79-.82 1.382-1.424 1.779-1.81.215-.174.215-.384 0-.629-.216-.244-.522-.48-.917-.708a8.033 8.033 0 0 0-1.239-.576c-.432-.158-.773-.237-1.024-.237-.431 0-1.258.49-2.479 1.468-1.221.98-2.595 2.238-4.121 3.775a101.55 101.55 0 0 0-4.716 5.113 91.905 91.905 0 0 0-4.365 5.426 60.299 60.299 0 0 1 3.342-4.797 118.641 118.641 0 0 1 3.233-4.011 64.68 64.68 0 0 1 2.694-3.015c.79-.82 1.382-1.424 1.779-1.81.215-.174.215-.384 0-.628-.216-.245-.522-.48-.917-.709a8.007 8.007 0 0 0-1.239-.576c-.432-.158-.773-.236-1.024-.236-.288 0-.8.359-1.535 1.075-.737.716-1.582 1.643-2.533 2.779a70.666 70.666 0 0 0-2.937 3.775 84.796 84.796 0 0 0-2.775 4.037 45.759 45.759 0 0 0-2.102 3.566c-.557 1.066-.835 1.861-.835 2.386 0 .244.134.568.404.97s.583.77.943 1.101c.358.333.708.56 1.05.682.341.122.584.044.728-.236.072-.14.144-.244.216-.315.61-.977 1.374-2.08 2.29-3.303a113.453 113.453 0 0 1 2.936-3.75 81.691 81.691 0 0 1 3.207-3.696 82.333 82.333 0 0 1 3.099-3.198 110.236 110.236 0 0 0-2.56 3.46 60.32 60.32 0 0 0-2.263 3.409 33.426 33.426 0 0 0-1.617 2.91c-.414.856-.62 1.512-.62 1.967 0 .244.134.568.404.97.269.4.574.769.916 1.101.34.332.682.56 1.024.681.34.123.601.044.781-.236l.432-.733a64.015 64.015 0 0 1 2.317-3.252 93.691 93.691 0 0 1 2.884-3.617 102.048 102.048 0 0 1 3.125-3.565 75.601 75.601 0 0 1 2.99-3.094c-.863 1.12-1.726 2.29-2.588 3.513Zm-17.082-7.76c-.215-.21-.477-.446-.781-.708a11.106 11.106 0 0 0-.917-.708 4.468 4.468 0 0 0-.943-.498 1.532 1.532 0 0 0-.915-.078c-1.15.21-2.327.743-3.53 1.6a24.404 24.404 0 0 0-3.502 3.066 38.21 38.21 0 0 0-3.207 3.854 50.258 50.258 0 0 0-2.64 3.985c-.754 1.277-1.347 2.43-1.779 3.461-.43 1.031-.646 1.792-.646 2.28 0 .246.09.517.27.814.179.297.42.568.727.813.305.244.628.454.97.629.341.175.673.262.997.262.143 0 .422-.158.835-.471.413-.316.898-.735 1.455-1.26a90.87 90.87 0 0 0 1.886-1.835c.7-.698 1.41-1.432 2.129-2.201-.396.7-.701 1.328-.917 1.887-.215.56-.323 1.014-.323 1.362 0 .246.09.517.27.814.179.297.421.568.727.813.304.244.628.454.97.629.34.175.673.262.997.262.287 0 .627-.112 1.024-.34a9.477 9.477 0 0 0 1.239-.866c.432-.348.844-.742 1.24-1.18.394-.435.753-.847 1.077-1.232.25-.314.314-.49.189-.524-.127-.035-.315-.017-.566.052-.251.07-.504.157-.755.262-.251.105-.395.14-.43.105-.144-.139-.054-.541.269-1.205s.79-1.46 1.4-2.387c.61-.925 1.302-1.93 2.076-3.014a166.41 166.41 0 0 1 2.236-3.067 86.616 86.616 0 0 1 1.967-2.543 44.77 44.77 0 0 1 1.266-1.521c.18-.21.17-.437-.027-.682-.197-.244-.485-.472-.862-.681a9.005 9.005 0 0 0-1.185-.55c-.414-.158-.747-.237-.998-.237-.287-.001-.719.279-1.293.838Zm-12.96 13.527c.378-.768.925-1.686 1.644-2.753a57.332 57.332 0 0 1 2.479-3.381 37.807 37.807 0 0 1 2.883-3.278c.988-.996 1.94-1.816 2.856-2.464.916-.646 1.697-.935 2.344-.865-.863.91-1.842 2.054-2.937 3.435a65.947 65.947 0 0 0-3.153 4.325c-.753.804-1.508 1.591-2.263 2.36-.754.77-1.437 1.459-2.048 2.07a35.58 35.58 0 0 1-1.508 1.442c-.396.35-.611.507-.646.471-.145-.138-.027-.593.35-1.362Zm-9.753-13.423c-.988.735-1.958 1.6-2.91 2.596a29.153 29.153 0 0 0-2.693 3.277 22.5 22.5 0 0 0-2.102 3.592 16.952 16.952 0 0 0-1.212 3.565c-.252 1.171-.252 2.247 0 3.224.107.385.358.735.754 1.05.394.314.843.584 1.347.812a7.016 7.016 0 0 0 1.562.497c.54.106.97.14 1.293.106.466-.036 1.042-.21 1.725-.525a14.841 14.841 0 0 0 2.102-1.205c.717-.49 1.428-1.04 2.128-1.652.701-.612 1.338-1.249 1.914-1.913.358-.42.475-.683.35-.786-.127-.106-.423.017-.89.367-.719.49-1.427.961-2.128 1.415-.7.455-1.357.85-1.967 1.18-.611.333-1.159.595-1.644.786-.484.193-.871.289-1.158.289-.935-.07-1.293-.69-1.078-1.862.215-1.17.772-2.595 1.67-4.273.502.384 1.069.743 1.698 1.074.628.333 1.23.43 1.806.288.897-.209 1.849-.768 2.855-1.677a25.65 25.65 0 0 0 2.83-3.016c.88-1.1 1.607-2.175 2.182-3.224.574-1.048.88-1.835.916-2.36.035-.418-.18-.855-.646-1.31-.467-.454-1.043-.848-1.725-1.18a9.132 9.132 0 0 0-2.183-.733c-.772-.158-1.428-.149-1.967.026-.898.314-1.84.838-2.829 1.572Zm-.727 7.42a41.133 41.133 0 0 1 2.075-2.334 31.484 31.484 0 0 1 2.237-2.124 24.58 24.58 0 0 1 2.047-1.6c.467-.278.719-.384.754-.314.036.071-.054.298-.269.682-.503.839-1.15 1.721-1.94 2.647-.79.927-1.599 1.775-2.424 2.543a20.824 20.824 0 0 1-2.344 1.914c-.737.507-1.32.778-1.751.813a20.25 20.25 0 0 1 1.615-2.228Z" />
  <path fill="#f43f85"
    d="M3.987 32.25c.278-.096.68-.312 1.205-.649.736-.471 1.42-.977 2.048-1.52.628-.541 1.068-1.005 1.32-1.39.25-.385.035-.49-.646-.314-.683.175-.926-.272-.728-1.337.197-1.066.755-2.491 1.67-4.274.916-1.783 2.156-3.801 3.718-6.056 1.563-2.255 3.404-4.518 5.524-6.79.18-.21.25-.437.215-.682a2.02 2.02 0 0 0-.296-.76 3.577 3.577 0 0 0-.646-.76 5.581 5.581 0 0 0-.835-.63 74.468 74.468 0 0 1 5.227.079c1.688.087 3.215.219 4.58.394.359.035.673-.175.943-.63.27-.453.476-.995.62-1.625a7.4 7.4 0 0 0 .189-1.861c-.019-.611-.153-1.057-.404-1.337-.217-.21-.863-.34-1.94-.393-1.079-.053-2.417-.053-4.015 0-1.6.052-3.333.175-5.2.367-1.868.193-3.691.429-5.47.708-1.778.28-3.404.612-4.877.996-1.473.385-2.586.805-3.341 1.258-.215.105-.377.385-.485.84a3.173 3.173 0 0 0-.027 1.363c.09.454.287.821.593 1.101.304.28.763.314 1.374.105 1.114-.384 2.515-.682 4.203-.89 1.688-.21 3.503-.35 5.443-.42-.755.594-1.617 1.486-2.586 2.674a64.774 64.774 0 0 0-3.018 4.037 73.15 73.15 0 0 0-3.018 4.745c-.97 1.66-1.85 3.243-2.64 4.746-.79 1.502-1.42 2.849-1.886 4.037C.333 28.569.1 29.443.1 30.002c0 .105.116.289.35.551.233.262.53.524.89.786.358.262.753.49 1.185.682.237.105.463.182.68.23h.782Z" />
</svg>
