<svg xmlns="http://www.w3.org/2000/svg" width="126" height="36" fill="none"><g fill="currentColor" clip-path="url(#a)"><path d="M45.469 14.116V24.5h-2.63V14.116h-4.28V11.8h11.168v2.315H45.47Zm5.066 5.14h3.55c-.058-1.068-.605-1.766-1.723-1.766-1.06 0-1.757.644-1.827 1.766Zm0 1.646c.058 1.085.72 1.783 1.844 1.783.865 0 1.433-.355 1.62-.962l2.505.112c-.306 1.662-1.996 2.85-4.06 2.85-2.684 0-4.548-1.749-4.548-4.566 0-2.835 1.86-4.568 4.483-4.568 2.53 0 4.208 1.634 4.208 4.37v.986h-6.052v-.005Zm12.581-2.871c-1.433 0-2.336.813-2.336 2.021V24.5h-2.486v-8.775h2.403v.998c.373-.578 1.077-1.085 2.419-1.085v2.393Zm14.913 1.085v5.388h-2.485v-4.897c0-1.118-.518-1.75-1.47-1.75-.883 0-1.434.582-1.53 1.461V24.5h-2.493v-4.897c0-1.118-.526-1.75-1.434-1.75-.986 0-1.586.714-1.586 1.77v4.869h-2.494v-8.776h2.353v.904c.39-.61 1.11-1.073 2.316-1.073 1.213 0 2.183.491 2.758 1.395.518-.797 1.384-1.395 2.71-1.395 2.025.008 3.355 1.345 3.355 3.569Zm1.802 5.384h2.486v-8.775H79.83V24.5Zm2.743-11.643c0 .813-.663 1.473-1.504 1.473-.833 0-1.479-.66-1.479-1.473 0-.833.68-1.489 1.479-1.489a1.478 1.478 0 0 1 1.504 1.49Zm9.726 6.276V24.5h-2.485v-4.893c0-1.118-.605-1.75-1.554-1.75-.986 0-1.64.714-1.64 1.766V24.5h-2.486v-8.775h2.345v.9c.398-.607 1.172-1.07 2.37-1.07 2.042 0 3.45 1.304 3.45 3.578Zm5.315 1.918c-.762.037-1.288.289-1.288.92 0 .582.43.796 1.019.796.915 0 1.595-.49 1.595-1.427v-.376l-1.326.087Zm3.811-1.968V24.5h-2.402v-.718c-.493.508-1.239.904-2.25.904-1.773 0-2.928-.904-2.928-2.596 0-1.95 1.648-2.578 3.529-2.665l1.57-.086V19c0-.887-.373-1.357-1.14-1.357-.849 0-1.23.578-1.23 1.155L94.09 18.7c0-1.547 1.417-3.14 3.683-3.14 2.361-.003 3.653 1.218 3.653 3.524Zm1.918 5.417h2.49V11.31h-2.49V24.5Zm9.611-4.489v-4.58l-3.107 4.58h3.107Zm4.006 0v1.803h-1.997v2.665h-1.988v-2.665h-5.348v-1.663l5.638-8.366h1.698v8.23h1.997v-.004Zm6.495-2.578c.299-.413.469-.92.469-1.58 0-1.506-.949-2.447-2.324-2.447-1.343 0-2.316.94-2.316 2.447 0 1.51.969 2.392 2.316 2.392.799.005 1.445-.268 1.855-.812ZM126 15.787c0 1.068-.348 1.902-.907 2.677l-4.404 6.011h-2.419l3.293-4.464c-2.485-.033-4.312-1.716-4.312-4.224 0-2.546 1.877-4.176 4.362-4.176 2.51 0 4.387 1.63 4.387 4.176ZM15.638.022 0 9.004v17.984l10.758 6.188v-4.724L4.11 24.628v-13.26l11.53-6.626 11.528 6.626v13.26l-6.657 3.824v4.724l10.758-6.188V9.004"/><path d="m24.24 13.085-8.6-4.951-8.609 4.95v4.72l6.554-3.766v20.76l2.054 1.176 2.055-1.176v-20.76l6.545 3.766"/></g><defs><clipPath id="a"><path fill="currentColor" d="M0 0h126v36H0z"/></clipPath></defs></svg>