<?xml version="1.0" encoding="utf-8"?>
<!-- Generator: Adobe Illustrator 25.4.1, SVG Export Plug-In . SVG Version: 6.00 Build 0)  -->
<svg version="1.1" id="Layer_1" xmlns="http://www.w3.org/2000/svg" xmlns:xlink="http://www.w3.org/1999/xlink" x="0px" y="0px"
	 width="204px" height="42.5px" viewBox="0 0 204 42.5" style="enable-background:new 0 0 204 42.5;" xml:space="preserve">
<style type="text/css">
	.st0{fill:#102C66;}
	.st1{fill:#E61578;}
	.st2{fill:#28B29D;}
	.st3{fill:#F8AB10;}
</style>
<g id="Layer_2_00000134961374531090648230000003480821435829055373_">
	<g id="Layer_1-2">
		<path class="st0" d="M140.4,14.6l-1.4,2.9c-1.5-0.9-3.1-1.4-4.8-1.4c-1.9,0-3,0.8-3,2c0,1.5,1.7,1.9,4,2.6c3,0.9,5.5,2,5.5,5.3
			c0,3.7-3,5.9-7.4,5.9c-2.3,0-4.5-0.7-6.4-2l1.1-3.2c1.5,1,3.2,1.6,5,1.6c2.3,0,3.5-0.9,3.5-2.2c0-1.6-2-1.8-4.6-2.7
			c-3-1.1-4.8-2.4-4.8-5.2c0-3.4,2.8-5.4,6.9-5.4C136.3,12.7,138.5,13.3,140.4,14.6z"/>
		<path class="st0" d="M160.6,22.3c0,6.6-4.5,9.5-9.1,9.5c-4.7,0-9.1-2.9-9.1-9.5s4.5-9.5,9.1-9.5C156.1,12.7,160.6,15.6,160.6,22.3
			z M146.6,22.3c0,3.8,1.9,5.9,4.9,5.9s4.9-2.2,4.9-5.9s-1.9-5.9-4.9-5.9S146.6,18.5,146.6,22.3L146.6,22.3z"/>
		<path class="st0" d="M162.7,31.3V5.4h4.1v25.9H162.7z"/>
		<path class="st0" d="M179.6,31.3h-3.8l-7.1-18.1h4.4l4.7,13.7l4.8-13.7h4.5L179.6,31.3z"/>
		<path class="st0" d="M203.5,21.3c0,0.8-0.1,1.6-0.2,2.4h-12.4c0.5,3.5,2.5,4.7,5.1,4.7c1.9,0,3.7-0.6,5.1-1.8l1.7,2.7
			c-2.1,1.7-4.7,2.6-7.5,2.5c-4.7,0-8.7-3-8.7-9.5c0-5.9,3.5-9.6,8.6-9.6C200.9,12.7,203.6,16.9,203.5,21.3L203.5,21.3z M199.7,20.9
			c-0.1-3-1.7-4.9-4.3-4.9c-2.6,0-4.3,1.6-4.6,4.9H199.7z"/>
		<path class="st1" d="M50.2,13.2v3.5h-4.4v9.7c0,1.2,0.6,1.6,1.4,1.6c0.8,0,1.6-0.2,2.3-0.5l1,3c-1.3,0.8-2.8,1.2-4.4,1.2
			c-3,0-4.6-1.3-4.6-4.5V16.8h-2.8v-3.5h2.8v-2.3l2.4-2.4h1.8v4.7H50.2z"/>
		<rect x="53.5" y="13.2" class="st1" width="4.1" height="18.1"/>
		<path class="st1" d="M69.2,12.7c2.3-0.1,4.6,0.7,6.4,2.2l-1.7,2.9c-1.2-1-2.7-1.5-4.3-1.5c-3,0-5.2,2-5.2,5.9s2.3,6.1,5.3,6.1
			c1.7,0,3.3-0.6,4.6-1.7l1.8,2.7c-1.8,1.7-4.2,2.6-6.7,2.6c-5.1,0-9.1-3.5-9.1-9.6S64.3,12.7,69.2,12.7L69.2,12.7z"/>
		<path class="st1" d="M84.2,23.7l-2,2.2v5.4H78V5.4h4.1v15.6l6.3-7.7h5.1l-6.7,7.5l7.8,10.6h-5L84.2,23.7z"/>
		<path class="st1" d="M111.1,21.3c0,0.8-0.1,1.6-0.2,2.4H98.5c0.5,3.5,2.5,4.7,5.2,4.7c1.9,0,3.7-0.6,5.1-1.8l1.7,2.7
			c-2.1,1.7-4.8,2.6-7.5,2.5c-4.7,0-8.7-3-8.7-9.5c0-5.9,3.5-9.6,8.6-9.6C108.4,12.7,111.1,16.9,111.1,21.3L111.1,21.3z M107.3,20.9
			c-0.1-3-1.7-4.9-4.3-4.9s-4.3,1.6-4.5,4.9L107.3,20.9z"/>
		<rect x="53.5" y="5.9" transform="matrix(0.7071 -0.7071 0.7071 0.7071 10.6807 41.6274)" class="st1" width="4.1" height="4.1"/>
		<path class="st1" d="M123.7,13.2v3.5h-4.4v9.7c0,1.2,0.6,1.6,1.4,1.6c0.8,0,1.6-0.2,2.3-0.5l1,3c-1.3,0.8-2.8,1.2-4.4,1.2
			c-2.9,0-4.6-1.3-4.6-4.5V16.8h-2.8v-3.5h2.8v-2.3l2.4-2.4h1.8v4.7H123.7z"/>
		<polygon class="st1" points="10.7,10.8 21,21 31.2,10.8 		"/>
		<rect x="10.7" y="21" class="st0" width="10.3" height="10.3"/>
		<polygon class="st2" points="21,0.5 21,10.8 10.7,10.8 		"/>
		<polygon class="st3" points="10.7,10.8 10.7,0.5 21,0.5 		"/>
		<polygon class="st2" points="21,41.5 10.7,31.3 21,31.3 		"/>
		<polygon class="st0" points="31.2,31.3 21,41.5 21,31.3 		"/>
		<polygon class="st3" points="21,21 10.7,21 10.7,10.8 		"/>
		<polygon class="st1" points="0.5,21 10.7,21 10.7,10.8 		"/>
	</g>
</g>
</svg>
