<svg width="200" height="100" viewBox="0 0 200 100" fill="none" xmlns="http://www.w3.org/2000/svg">
<path fill-rule="evenodd" clip-rule="evenodd" d="M99.3747 39.6182C106.018 39.6182 109.666 44.0103 109.666 50.0676C109.666 50.2813 109.666 50.3598 109.662 50.4382C109.66 50.4837 109.657 50.5291 109.652 50.6008C109.649 50.6532 109.644 50.7196 109.638 50.8103H94.4134C94.4707 54.6555 96.2784 57.7773 100.436 57.7773C102.837 57.7773 104.737 56.8397 106.558 54.9526L108.261 56.6624C105.726 59.2495 103.353 60.3818 99.9325 60.3818C93.1767 60.3818 89.0031 55.9944 89.0031 50.1904C89.0031 44.0374 93.2199 39.6182 99.3747 39.6182ZM99.3747 42.1756C95.8276 42.1756 94.6967 45.296 94.4414 48.2101H104.176C103.893 45.4545 102.861 42.1756 99.3747 42.1756Z" fill="black"></path><path d="M54.3393 55.9137L58.0553 39.9999H60.9991L56.064 59.9997H50.2344L46.321 44.0859H44.9197L41.0061 59.9997H35.2529L29.9495 39.9999H35.1889L38.9609 55.9137H39.2731L42.9889 39.9999H50.4828L54.056 55.9137H54.3393Z" fill="black"></path><path d="M65.9583 59.9997V39.9999H70.9433V48.2282H79.0571V39.9999H84.0412V59.9997H79.0571V50.9973H70.9433V59.9997H65.9583Z" fill="black"></path><path fill-rule="evenodd" clip-rule="evenodd" d="M134.094 50.0676C134.094 44.0103 130.446 39.6182 123.803 39.6182C117.648 39.6182 113.431 44.0374 113.431 50.1904C113.431 55.9944 117.605 60.3818 124.36 60.3818C127.781 60.3818 130.154 59.2495 132.689 56.6624L130.985 54.9526C129.165 56.8397 127.266 57.7773 124.864 57.7773C120.706 57.7773 118.899 54.6555 118.841 50.8103H134.066C134.072 50.7195 134.076 50.6531 134.08 50.6007C134.085 50.529 134.088 50.4836 134.09 50.4382C134.094 50.3598 134.094 50.2813 134.094 50.0676ZM118.869 48.2101C119.125 45.296 120.256 42.1756 123.803 42.1756C127.289 42.1756 128.321 45.4545 128.604 48.2101H118.869Z" fill="black"></path><path d="M138.766 59.9997H151.168V57.2358H143.751V39.9999H138.766V59.9997Z" fill="black"></path><path d="M161.11 49.2569H162.152L167.127 39.9999H170.051L162.967 53.4114V59.9997H157.982V53.4114L150.899 39.9999H156.139L161.11 49.2569Z" fill="black"></path></svg>
