  <svg viewBox="0 0 86 36" version="1.1" xmlns="http://www.w3.org/2000/svg" xmlns:xlink="http://www.w3.org/1999/xlink">
    <title>xbe-logo-small</title>
    <defs></defs>
    <g id="Page-1" stroke="none" stroke-width="1" fill="none" fill-rule="evenodd">
        <g id="xbe-logo-small" transform="translate(1.000000, 1.000000)">
            <g id="Group" transform="translate(42.000000, 17.000000) scale(-1, 1) rotate(-180.000000) translate(-42.000000, -17.000000) ">
                <g id="Patch" stroke="#000" stroke-width="3">
                    <rect id="Rectangle-path" x="0.5" y="0.5" width="83" height="33" rx="4.5"></rect>
                </g>
                <g id="Letters" transform="translate(9.664619, 6.150694)" fill="#000" fill-rule="nonzero">
                    <g id="E" transform="translate(48.531737, 0.000000)">
                        <path d="M18.0542704,20.092753 L18.0542704,18.207946 L12.0516609,18.1723837 C6.5483013,18.1368213 6.00260952,18.113113 5.57302238,17.9234469 C3.94755752,17.1766366 3.47152853,14.9243516 4.69062717,13.6796678 C5.46852821,12.885441 5.6310747,12.8617327 12.0981027,12.8617327 L17.8220612,12.8617327 L17.8220612,11.083613 L17.8220612,9.30549328 L11.9587772,9.30549328 C6.32770249,9.30549328 6.08388277,9.29363917 5.46852821,9.05655654 C4.65579578,8.74834907 4.17976679,8.17935077 4.00560983,7.32585328 C3.80823196,6.36566865 4.0172203,5.50031704 4.60935392,4.8483398 C5.39886543,3.97113407 5.39886543,3.97113407 12.156155,3.97113407 L18.0542704,3.97113407 L18.0542704,2.00334823 L18.0542704,0.0355623947 L11.7613993,0.0948330525 C4.76028995,0.142249578 4.60935392,0.165957842 3.01872045,0.948330525 C1.05655216,1.90851518 0.0580523165,3.65107252 0.0580523165,6.10487775 C0.0696627796,7.30214507 0.185767413,7.93041403 0.603744091,8.79576563 C0.940447528,9.49515935 1.90411598,10.4909064 2.54269146,10.810968 C2.77490073,10.9176552 2.96066814,11.0361965 2.96066814,11.0717588 C2.96066814,11.1073212 2.69362749,11.3088415 2.36853451,11.4985076 C0.359924362,12.707629 -0.429587142,15.3629545 0.406366215,18.1012589 C0.859174284,19.5830253 1.91572645,20.721022 3.43669714,21.3492909 C4.85317366,21.9419975 5.24792941,21.9657058 11.877504,21.9775599 L18.0542704,21.989414 L18.0542704,20.092753 Z" id="Path"></path>
                    </g>
                    <g id="B" transform="translate(26.704066, 0.000000)">
                        <path d="M13.7468689,21.6487975 C13.073462,21.8029012 12.0052994,21.8384635 7.25661988,21.8740259 C4.13340528,21.8858801 1.39333595,21.8621718 1.1843476,21.8147553 C0.975359264,21.7554846 0.696708149,21.6132351 0.557382587,21.4946938 C-0.0115301141,20.9731119 8.03492269e-05,21.1390698 8.03492269e-05,10.8971001 C8.03492269e-05,0.311360643 -0.0231405773,0.702546985 0.719929076,0.228381723 C1.0914639,-0.00870090832 1.219179,-0.0205550398 7.3146722,0.0150073548 L13.5262701,0.0505697494 C13.5262701,0.0505697494 14.780514,0.192066672 15.9876883,0.990759164 C16.8454244,1.5582558 17.7087151,2.71245809 17.9498566,3.23933113 C18.3562228,4.15209926 18.4955484,5.00559674 18.437496,6.39253013 C18.3910542,7.49496438 18.3446123,7.75575529 18.0195194,8.44329491 C17.6131532,9.34420888 16.8120312,10.2095605 15.9876883,10.6600175 C15.6858163,10.8259753 15.4419965,10.980079 15.4419965,11.0156414 C15.4419965,11.0512038 15.6742058,11.1815993 15.9412465,11.3001406 C16.6959265,11.6557646 17.5783218,12.5803868 17.9266357,13.3746136 C18.7045367,15.1527333 18.4839379,17.7843506 17.4389962,19.3490959 C16.7191475,20.4159677 15.3607233,21.2576111 13.7468689,21.6487975 Z M3.80823196,18.113113 C3.87789474,18.1486754 5.7239584,18.1842378 7.89511504,18.1842378 C12.2142074,18.1960919 12.8527828,18.1249671 13.607463,17.5322606 C14.1183234,17.1410742 14.4666373,16.4061181 14.5363,15.588183 C14.6407942,14.4383323 14.2112071,13.5848348 13.2475386,13.063253 C12.7831201,12.8143162 12.655405,12.802462 8.220208,12.7668997 L3.65729594,12.7313373 L3.65729594,15.3985169 C3.65729594,17.4137193 3.69212733,18.0775506 3.80823196,18.113113 Z M3.68051687,6.73314672 L3.65729594,9.55443001 L8.03444061,9.50701353 C11.0067192,9.48330525 12.5625213,9.42403459 12.8411724,9.32920155 C13.8861141,8.9735776 14.5014687,8.20305905 14.6407942,7.08877067 C14.7917302,5.80852446 14.2808698,4.74165262 13.2475386,4.17265431 C12.7831201,3.91186341 12.6786259,3.91186341 8.24342894,3.91186341 L3.71534826,3.91186341 L3.68051687,6.73314672 Z" id="Combined-Shape"></path>
                    </g>
                    <g id="X" transform="translate(0.000000, 0.118541)">
                        <path d="M13.8512827,11.3206957 C18.5883517,5.54773356 22.605572,0.651977235 22.7681185,0.450456999 L23.0583801,0.0592706578 L20.6201828,0.0592706578 L18.1819855,0.0592706578 L9.34642296,10.8465304 C4.4932493,16.7735961 0.522470848,21.6812066 0.522470848,21.7523314 C0.522470848,21.8353103 1.28876142,21.8708727 2.86778444,21.8471645 L5.21309802,21.811602 L13.8512827,11.3206957 Z" id="Path"></path>
                        <path d="M23.2789789,21.7878938 C23.2789789,21.7286232 21.5722408,19.6897125 19.4939679,17.2477614 C17.4040845,14.8058103 15.5347999,12.6009419 15.3258115,12.3520051 L14.9542767,11.9015481 L13.7700095,13.335898 C12.7134573,14.6042901 12.5973526,14.782102 12.7366782,14.9717681 C12.8179515,15.0903094 14.1647652,16.6906172 15.7321778,18.5280076 L18.5767413,21.8708727 L20.9220548,21.8708727 C22.2224267,21.8708727 23.2789789,21.8353103 23.2789789,21.7878938 Z" id="Path"></path>
                        <path d="M9.67151592,8.53497472 C10.27526,7.80001854 10.7628995,7.15989547 10.7745099,7.11247892 C10.7861204,7.07691654 9.46252759,5.46475465 7.83706272,3.55623947 L4.87639458,0.0592706578 L2.46141822,0.0592706578 L0.0464418531,0.0592706578 L0.371534826,0.462311131 C1.89250552,2.33526391 8.38275451,9.88634568 8.47563821,9.88634568 C8.54530096,9.88634568 9.07938232,9.281785 9.67151592,8.53497472 Z" id="Path"></path>
                    </g>
                </g>
            </g>
        </g>
    </g>
  </svg>
