<svg width="128" height="128" viewBox="0 0 128 128" xmlns="http://www.w3.org/2000/svg">
  <path d="M12.308 0h103.384C122.49 0 128 5.51 128 12.308v103.384c0 6.798-5.51 12.308-12.308 12.308H12.308C5.51 128 0 122.49 0 115.692V12.308C0 5.51 5.51 0 12.308 0zm52.514 85.61c-12.039.302-10.772-7.606-10.772-7.606S98.004 62.962 86.02 33.25c-5.387-7.644-11.645-10.046-20.503-9.87-8.86.172-19.77 5.575-26.894 21.562-3.398 7.63-4.552 14.857-5.245 20.334 0 0-7.785 1.563-11.955-1.904-4.167-3.472-6.36 0-6.36 0s-7.178 8.4-.051 11.183c7.124 2.782 18.218 3.344 18.218 3.344h-.005c1.021 7.398 3.534 14.51 12.668 20.45 15.316 9.965 38.045-.56 38.045-.56 13.622-5.693 22.67-14.507 26.526-18.8a3.535 3.535 0 0 0-.091-4.823l-4.436-4.61a3.537 3.537 0 0 0-4.8-.283c-5.925 4.853-21.5 16.337-36.315 16.337zM51.964 64.586c.523-20.675 14.073-29.71 18.766-25.187 4.693 4.512 2.952 14.24-5.908 20.321-8.858 6.084-12.858 4.866-12.858 4.866z" fill="#121212"/>
</svg>
