<svg width="1017" height="322" viewBox="0 0 1017 322" xmlns="http://www.w3.org/2000/svg">
  <g transform="translate(63 43)" fill="none" fill-rule="evenodd">
    <path d="M469.686 35.07h385.262c3.994 0 5.447.362 6.9 1.27 1.633.726 2.723 1.816 3.63 3.45.727 1.452 1.09 2.905 1.09 6.899v151.055c0 3.994-.363 5.446-1.271 6.899-.726 1.634-1.816 2.723-3.45 3.63-1.452.727-2.905 1.09-6.899 1.09H469.686c-3.994 0-5.447-.363-6.9-1.27-1.633-.727-2.723-1.816-3.63-3.45-.727-1.453-1.09-2.905-1.09-6.9V46.69c0-3.994.363-5.447 1.271-6.9.726-1.633 1.816-2.723 3.45-3.63 1.452-.727 2.905-1.09 6.899-1.09z" fill="#DCE0E6"/>
    <path d="M528.51 167.242c4.72 0 8.896-.908 11.62-2.36l2.541-13.617c-2.541 1.634-6.172 2.723-9.077 2.723-4.176 0-6.718-1.634-6.718-5.446l.363-3.087 6.173-33.406h14.525l2.36-12.346h-14.525l3.268-17.792h-14.887l-3.268 17.792H509.99l-2.178 12.346h10.893l-6.718 35.948-.544 4.357c0 9.986 6.899 14.888 17.066 14.888zm49.02-78.432a9.076 9.076 0 0 0 9.26-9.078c0-2.456-.975-4.81-2.713-6.547a9.255 9.255 0 0 0-13.094 0 9.255 9.255 0 0 0-2.712 6.547 9.066 9.066 0 0 0 2.723 6.484 9.082 9.082 0 0 0 6.536 2.594zm-7.625 76.98l11.62-66.087h-14.888l-11.62 66.087h14.888zm33.406 0l7.626-43.392c2.723-6.173 7.988-10.712 13.798-10.712 6.173 0 8.715 3.631 8.715 9.26 0 1.452-.182 2.904-.727 5.264l-6.717 39.58h14.887l7.626-43.392c2.723-6.173 7.988-10.712 13.798-10.712 5.991 0 8.533 3.631 8.533 9.26 0 1.452 0 2.904-.545 5.264l-6.899 39.58h14.888l7.444-43.03.544-5.264c0-10.53-6.172-19.245-19.426-19.245-7.989 0-15.07 3.812-19.608 8.896a18.15 18.15 0 0 0-15.977-9.078c-8.17 0-13.617 3.813-17.611 8.17l1.27-6.536h-14.887l-11.62 66.087h14.888zm122.006 1.452c15.614 0 26.689-8.896 30.501-21.968h-14.887c-2.542 6.354-8.17 9.44-14.706 9.44-9.986 0-14.888-6.535-14.888-16.884v-1.816h45.39c.907-3.63 1.452-8.17 1.452-11.075 0-16.34-9.078-26.688-25.6-26.688-22.15 0-35.766 19.97-35.766 39.579 0 17.61 10.53 29.412 28.504 29.412zm18.337-41.94h-30.138c2.905-8.17 9.078-14.524 18.519-14.524 7.443 0 11.8 5.447 11.8 12.709v1.816h-.18zm47.568 41.94c14.706 0 26.87-8.352 26.87-22.513 0-8.351-4.902-13.98-15.432-17.066l-11.983-3.631c-3.994-1.09-5.446-2.905-5.446-5.81 0-4.902 4.72-7.807 11.256-7.807 7.08 0 10.53 3.45 11.438 7.807h14.161c-1.089-11.62-9.077-19.971-25.417-19.971-14.888 0-25.963 9.44-25.963 21.786 0 10.168 5.991 14.707 14.525 17.248l11.982 3.268c4.72 1.271 6.355 3.087 6.355 6.536 0 5.447-5.084 7.989-12.165 7.989-5.99 0-11.62-2.179-12.708-8.715H764.17c.908 11.983 10.349 20.88 27.052 20.88z" fill="#42474F" fill-rule="nonzero"/>
    <path d="M461.334 125.121s-11.438 8.896-21.423 7.807c-9.986-.908-6.9-23.42-6.9-23.42s2.18-20.517-3.63-22.15c-5.992-1.816-13.254 5.446-13.254 5.446s-9.078 9.804-13.435 22.695l-1.09.363s1.271-22.332-.181-27.597c-1.271-2.542-11.983-2.36-13.799 2.179-1.815 4.539-10.53 36.13-10.893 49.202 0 0-17.066 14.524-31.772 16.703-14.888 2.36-18.337-6.9-18.337-6.9s40.124-11.074 38.671-43.21c-1.27-32.135-32.317-20.153-35.767-17.61-3.45 2.541-21.605 13.434-26.87 43.754l-.363 5.447s-15.614 10.53-24.328 13.254c0 0 24.328-40.669-5.266-59.188-8.351-5.083-15.432-.363-19.97 3.631-2.543 2.724 35.947-39.216 27.051-76.798C275.602.755 266.706-1.242 258.354 1.844a37.224 37.224 0 0 0-17.066 12.165s-16.34 23.42-19.971 58.098c-3.631 34.858-9.078 76.98-9.078 76.98s-7.807 7.443-14.887 7.988c-7.081.363-3.995-21.06-3.995-21.06s5.447-32.68 5.265-38.127c-.544-5.629-.907-8.534-7.262-10.53-6.536-1.816-13.616 6.354-13.616 6.354s-18.7 28.323-20.335 32.68l-.908 1.815-1.089-1.27s13.254-38.672.545-39.217c-12.528-.544-20.698 13.799-20.698 13.799s-14.524 23.965-15.069 26.688l-.908-1.089s5.81-27.96 4.72-34.859c-1.27-6.899-7.624-5.446-7.624-5.446s-8.352-1.09-10.53 4.357c-2.18 5.265-9.986 40.487-10.894 51.744 0 0-20.698 14.524-34.496 14.887-13.435 0-11.982-8.715-11.982-8.715s49.746-16.884 36.31-50.654c-6.172-8.533-13.253-11.256-23.42-11.075-9.986 0-22.513 6.355-30.501 24.329a80.247 80.247 0 0 0-5.992 23.24s-8.714 1.815-13.435-2.18c-4.72-3.812-7.262 0-7.262 0s-7.989 10.35 0 13.436a103.558 103.558 0 0 0 20.697 4.72c1.09 5.447 4.54 14.888 14.343 22.331 14.706 11.257 43.029-1.089 43.029-1.089l11.62-6.536s.363 10.712 8.896 12.346c8.351 1.452 11.983 0 26.689-35.948 8.714-18.156 9.259-17.248 9.259-17.248.908-.182-5.628 34.859-3.087 44.3 2.542 9.44 13.799 8.351 13.799 8.351s5.991 1.271 10.893-16.158c4.902-17.248 14.525-36.312 14.525-36.312 1.089 0-3.087 35.767 3.268 47.205 6.173 11.438 22.513 3.813 22.513 3.813s11.438-5.81 13.253-7.444c0 0 13.617 11.438 32.68 9.44 42.666-8.532 57.917-19.97 57.917-19.97s7.262 18.7 29.957 20.516c25.962 1.815 40.123-14.525 40.123-14.525s0 10.712 9.078 14.525c8.896 3.63 14.888-17.43 14.888-17.43l15.25-41.758c1.453 0 2.18 27.234 17.067 31.591 15.069 4.357 34.496-10.167 34.496-10.167s4.72-2.542 3.994-10.53c-.908-7.807-7.989-4.902-7.989-4.902v-.182zM67.357 105.513c5.265 5.084 3.268 15.977-6.717 22.876-9.986 6.9-14.525 5.447-14.525 5.447.545-23.24 15.977-33.588 21.242-28.323zm195.718-80.974c3.268 17.792-29.412 70.444-29.412 70.444.544-11.801 12.164-51.744 12.164-51.744s13.798-36.311 17.248-18.7zM230.758 158.89s-2.542-8.533 4.72-32.68c7.263-24.328 24.51-14.887 24.51-14.887s11.802 9.078 2.542 33.225c-9.26 24.328-31.772 14.524-31.772 14.524v-.182zm99.493-47.204c8.17-14.888 14.524-6.9 14.524-6.9s6.9 7.626-1.09 18.701c-7.806 11.257-19.244 10.53-19.244 10.53s-2.179-7.807 5.81-22.513v.182z" fill="#E04E39" fill-rule="nonzero"/>
    <path d="M418.77 170.634v-4.694h2.978c.413 0 .826.043 1.26.087.435.065.848.174 1.196.326.37.152.652.37.87.652.238.282.347.673.347 1.151 0 1.087-.326 1.782-.978 2.065-.652.283-1.5.413-2.52.413h-3.152zm-3.542-7.454v17.864h3.543v-7.628h2.217l4.346 7.628h3.716l-4.78-7.802a8.45 8.45 0 0 0 1.846-.391 4.312 4.312 0 0 0 1.478-.848c.435-.37.76-.847 1-1.434.26-.587.37-1.282.37-2.108 0-1.935-.61-3.304-1.804-4.086-1.217-.804-2.956-1.195-5.194-1.195h-6.738zm-5.672 8.953c0-1.825.305-3.498.935-5.02.63-1.521 1.478-2.825 2.564-3.933 1.065-1.109 2.347-1.978 3.803-2.608 1.478-.63 3.043-.935 4.716-.935 1.652 0 3.217.305 4.673.935 1.478.63 2.738 1.5 3.825 2.608 1.086 1.108 1.934 2.412 2.586 3.933.63 1.522.956 3.195.956 5.02 0 1.826-.326 3.5-.956 5.042-.652 1.522-1.5 2.87-2.586 3.977-1.087 1.13-2.347 2-3.825 2.63-1.456.63-3.021.935-4.673.935-1.673 0-3.238-.305-4.716-.935-1.456-.63-2.738-1.5-3.803-2.63-1.086-1.108-1.934-2.455-2.564-3.977-.63-1.543-.935-3.216-.935-5.042zm-4.368 0c0 2.456.456 4.651 1.347 6.607.913 1.978 2.109 3.651 3.608 5.042a15.944 15.944 0 0 0 5.238 3.195 17.553 17.553 0 0 0 6.193 1.108c2.174 0 4.238-.37 6.216-1.108a15.944 15.944 0 0 0 5.237-3.195c1.5-1.39 2.695-3.064 3.608-5.042.891-1.956 1.326-4.15 1.326-6.607 0-2.412-.435-4.607-1.326-6.563-.913-1.977-2.108-3.65-3.608-5.02a15.944 15.944 0 0 0-5.237-3.195c-1.978-.76-4.042-1.13-6.216-1.13-2.151 0-4.216.37-6.193 1.13a15.944 15.944 0 0 0-5.238 3.195c-1.5 1.37-2.695 3.043-3.608 5.02-.89 1.956-1.347 4.151-1.347 6.563z" fill="#E04E39"/>
    <path d="M119.282 60.487l4.72-27.233h10.894l1.09-6.173H107.3l-.908 5.991h10.712l-4.902 27.415h7.08zm23.24 0l2.723-15.432a5.632 5.632 0 0 1 4.902-3.45c2.36 0 3.45 1.271 3.45 3.268l-.182 1.09-2.542 14.524h6.9l2.723-15.795v-1.816c0-4.357-2.542-7.262-7.263-7.262-3.086 0-5.446 1.27-6.899 2.905l2.36-13.435h-6.717l-6.173 35.403h6.718zm33.406.545c5.991 0 10.167-3.268 11.62-8.533h-6.536a4.9 4.9 0 0 1-4.72 3.086c-3.087 0-4.721-1.997-4.721-5.447v-.363h16.34l.363-4.176c0-6.172-3.631-9.985-9.804-9.985-8.352 0-13.435 7.262-13.435 14.524 0 6.536 4.175 10.894 10.893 10.894zm5.991-15.433h-9.622c1.09-2.541 2.905-4.538 5.81-4.538 2.36 0 3.812 1.815 3.812 3.994v.544z" fill="#6A707A" fill-rule="nonzero"/>
  </g>
</svg>
