<svg width="1017" height="322" viewBox="0 0 1017 322" xmlns="http://www.w3.org/2000/svg">
  <g fill="#FFFFFF" fill-rule="evenodd">
    <g transform="translate(63.753 43.739)">
      <path d="M856.039 34.487c3.638 0 5.094.364 6.367.91l.364.182h.182c1.637.91 2.729 2 3.638 3.638v.364c.728 1.273 1.092 2.729 1.092 6.003v151.904c0 3.639-.364 5.094-.91 6.368l-.182.363v.182c-.91 1.638-2 2.73-3.638 3.639h-.364c-1.273.727-2.547 1.091-5.458 1.091H468.911c-2.729 0-4.184-.364-5.457-.91l-.182-.181h-.182c-1.638-.91-2.729-2.001-3.639-3.639v-.364c-.727-1.273-1.091-2.546-1.091-5.457v-43.661a79.414 79.414 0 0 0 8.732-4.73l.91-.728.363-.182.91-.545 1.092-.728.363-.182.364-.364a16.413 16.413 0 0 0 3.82-3.82c2.911-3.82 4.367-9.096 3.639-14.918-.728-7.095-4.912-12.007-11.097-13.28a15.827 15.827 0 0 0-9.096.728V45.22c0-2.728.364-4.184.91-5.457l.181-.182v-.182c.91-1.637 2.001-2.729 3.639-3.638h.364c1.273-.728 2.728-1.092 6.003-1.092h386.582v-.182zM539.497 81.423h-14.918l-3.275 17.828H510.39l-2.183 12.37h10.915l-6.73 36.021-.546 4.366c0 10.006 6.913 14.918 17.1 14.918 4.73 0 8.914-.91 11.643-2.365l2.547-13.644c-2.547 1.637-6.185 2.728-9.096 2.728-4.184 0-6.731-1.637-6.731-5.457l.364-3.093 6.185-33.473h14.554l2.365-12.371h-14.554l3.275-17.828zm193.927 16.373c-22.194 0-35.838 20.01-35.838 39.658 0 17.647 10.551 29.472 28.561 29.472 15.646 0 26.743-8.915 30.563-22.013h-14.917c-2.547 6.367-8.187 9.46-14.736 9.46-10.006 0-14.918-6.55-14.918-16.919v-1.819h45.48c.91-3.638 1.456-8.186 1.456-11.097 0-16.373-9.096-26.742-25.65-26.742zm64.036 0c-14.553 0-25.832 9.46-25.832 21.83 0 10.188 6.003 14.736 14.553 17.283l12.007 3.274c4.73 1.274 6.367 3.093 6.367 6.55 0 5.457-5.093 8.004-12.188 8.004-6.004 0-11.643-2.183-12.735-8.732h-14.554c.91 12.006 10.37 20.92 27.107 20.92 14.735 0 26.924-8.368 26.924-22.558 0-8.368-4.912-14.008-15.463-17.1l-12.007-3.639c-4.002-1.091-5.458-2.91-5.458-5.821 0-4.912 4.73-7.823 11.28-7.823 7.094 0 10.55 3.457 11.46 7.823h14.19c-1.091-11.643-9.096-20.011-25.469-20.011h-.182zM582.066 99.25h-14.917l-11.643 66.22h14.917l11.643-66.22zm85.503-1.455c-8.005 0-15.1 3.82-19.648 8.914a18.186 18.186 0 0 0-16.009-9.096c-8.186 0-13.644 3.82-17.646 8.186l1.273-6.549h-14.917l-11.643 66.22h14.918l7.64-43.48c2.729-6.185 8.005-10.733 13.826-10.733 6.186 0 8.732 3.638 8.732 9.278 0 1.455-.182 2.91-.727 5.275l-6.731 39.66h14.917l7.64-43.48c2.73-6.185 8.005-10.733 13.827-10.733 6.003 0 8.55 3.638 8.55 9.278 0 1.455 0 2.91-.546 5.275l-6.913 39.66h14.918l7.459-43.116.545-5.276c0-10.551-6.185-19.283-19.465-19.283zm65.31 12.552c7.458 0 11.824 5.458 11.824 12.735v1.819h-30.38c2.91-8.187 9.096-14.554 18.555-14.554zM578.245 70.144a9.096 9.096 0 0 0-9.46 9.096c0 2.46.977 4.82 2.718 6.56a9.274 9.274 0 0 0 13.12 0 9.274 9.274 0 0 0 2.718-6.56 9.1 9.1 0 0 0-2.664-6.432 9.1 9.1 0 0 0-6.432-2.664z"/>
      <path d="M461.634 124.72s-11.46 8.914-21.466 7.823c-10.006-.91-6.913-23.468-6.913-23.468s2.183-20.557-3.639-22.195c-6.003-1.819-13.28 5.458-13.28 5.458s-9.096 9.824-13.462 22.74l-1.092.364s1.274-22.376-.181-27.652c-1.274-2.547-12.007-2.365-13.826 2.183-1.82 4.548-10.552 36.202-10.916 49.3 0 0-17.1 14.554-31.836 16.737-14.917 2.365-18.374-6.913-18.374-6.913S366.854 138 365.4 105.8c-1.274-32.2-32.383-20.193-35.84-17.646-3.456 2.547-21.648 13.462-26.923 43.843l-.364 5.457s-15.646 10.552-24.378 13.28c0 0 24.378-40.75-5.275-59.306-8.369-5.093-15.464-.363-20.012 3.639-2.547 2.729 36.02-39.295 27.106-76.953C275.53.104 266.615-1.897 258.247 1.196c-12.37 4.912-17.1 12.188-17.1 12.188S224.772 36.852 221.134 71.6c-3.638 34.929-9.096 77.135-9.096 77.135s-7.823 7.458-14.918 8.004c-7.095.364-4.002-21.103-4.002-21.103s5.458-32.746 5.276-38.203c-.546-5.64-.91-8.55-7.277-10.552-6.55-1.819-13.644 6.368-13.644 6.368s-18.738 28.38-20.375 32.745l-.91 1.82-1.091-1.274s13.28-38.749.545-39.295c-12.552-.546-20.739 13.826-20.739 13.826s-14.553 24.014-15.099 26.743l-.91-1.092s5.822-28.016 4.73-34.929c-1.273-6.913-7.64-5.457-7.64-5.457s-8.369-1.092-10.552 4.366c-2.183 5.275-10.005 40.568-10.915 51.847 0 0-20.739 14.554-34.565 14.918-13.462 0-12.007-8.732-12.007-8.732s49.847-16.92 36.384-50.756c-6.185-8.55-13.28-11.28-23.467-11.098-10.006 0-22.559 6.368-30.563 24.378a80.409 80.409 0 0 0-6.003 23.286s-8.733 1.819-13.463-2.183c-4.73-3.82-7.276 0-7.276 0s-8.005 10.37 0 13.462a103.766 103.766 0 0 0 20.739 4.73c1.091 5.457 4.548 14.917 14.371 22.376 14.736 11.28 43.116-1.092 43.116-1.092l11.642-6.549s.364 10.734 8.915 12.37c8.368 1.456 12.006 0 26.742-36.02 8.732-18.192 9.278-17.282 9.278-17.282.91-.182-5.64 34.929-3.093 44.389 2.547 9.46 13.826 8.368 13.826 8.368s6.004 1.274 10.916-16.19c4.911-17.283 14.553-36.385 14.553-36.385 1.092 0-3.092 35.838 3.275 47.3 6.185 11.46 22.558 3.82 22.558 3.82s11.461-5.822 13.28-7.459c0 0 13.644 11.461 32.746 9.46 42.751-8.55 58.033-20.011 58.033-20.011s7.277 18.737 30.017 20.557c26.014 1.819 40.204-14.554 40.204-14.554s0 10.733 9.096 14.554c8.914 3.638 14.918-17.465 14.918-17.465l15.281-41.842c1.455 0 2.183 27.289 17.1 31.655 15.1 4.366 34.566-10.188 34.566-10.188s4.73-2.547 4.002-10.551c-.91-7.823-8.005-4.912-8.005-4.912v-.182zM66.866 105.072c5.276 5.094 3.275 16.01-6.731 22.923-10.006 6.913-14.554 5.457-14.554 5.457.546-23.286 16.01-33.655 21.285-28.38zm196.11-81.136c3.275 17.828-29.47 70.585-29.47 70.585.545-11.825 12.188-51.847 12.188-51.847s13.826-36.385 17.283-18.738zm-32.381 134.621s-2.547-8.55 4.73-32.746c7.277-24.377 24.56-14.917 24.56-14.917s11.824 9.096 2.546 33.291c-9.278 24.378-31.836 14.554-31.836 14.554v-.182zm99.693-47.3c8.186-14.917 14.553-6.912 14.553-6.912s6.913 7.64-1.091 18.738c-7.823 11.279-19.284 10.551-19.284 10.551s-2.183-7.823 5.822-22.558v.182z" fill-rule="nonzero"/>
      <path d="M118.895 59.956l4.73-27.288h10.916l1.091-6.185H106.89l-.91 6.003h10.733l-4.911 27.47h7.094zm23.286 0l2.73-15.463a5.643 5.643 0 0 1 4.912-3.456c2.364 0 3.455 1.273 3.455 3.274l-.181 1.091-2.547 14.554h6.913l2.728-15.827v-1.82c0-4.365-2.546-7.276-7.276-7.276-3.093 0-5.458 1.273-6.913 2.91l2.365-13.461h-6.731l-6.186 35.474h6.731zm33.474.546c6.003 0 10.187-3.275 11.643-8.55h-6.55a4.91 4.91 0 0 1-4.73 3.093c-3.092 0-4.73-2.002-4.73-5.458v-.364h16.374l.363-4.184c0-6.186-3.638-10.006-9.823-10.006-8.369 0-13.463 7.277-13.463 14.554 0 6.549 4.185 10.915 10.916 10.915zm-3.639-15.463c1.092-2.547 2.911-4.548 5.822-4.548 2.365 0 3.82 1.819 3.82 4.002v.546h-9.642z" fill-rule="nonzero"/>
    </g>
    <path d="M481.773 213.634v-4.694h2.977c.413 0 .826.043 1.26.087.435.065.848.174 1.196.326.37.152.652.37.87.652.238.282.347.673.347 1.151 0 1.087-.326 1.782-.978 2.065-.652.283-1.5.413-2.521.413h-3.151zm-3.543-7.454v17.864h3.543v-7.628h2.217l4.346 7.628h3.716l-4.78-7.802a8.45 8.45 0 0 0 1.846-.391 4.312 4.312 0 0 0 1.478-.848c.435-.37.76-.847 1-1.434.26-.587.37-1.282.37-2.108 0-1.935-.61-3.304-1.804-4.086-1.217-.804-2.956-1.195-5.194-1.195h-6.738zm-5.672 8.953c0-1.825.304-3.498.935-5.02.63-1.521 1.478-2.825 2.564-3.933 1.065-1.109 2.347-1.978 3.803-2.608 1.478-.63 3.043-.935 4.716-.935 1.652 0 3.217.305 4.673.935 1.478.63 2.738 1.5 3.825 2.608 1.086 1.108 1.934 2.412 2.586 3.933.63 1.522.956 3.195.956 5.02 0 1.826-.326 3.5-.956 5.042-.652 1.522-1.5 2.87-2.586 3.977-1.087 1.13-2.347 2-3.825 2.63-1.456.63-3.021.935-4.673.935-1.673 0-3.238-.305-4.716-.935-1.456-.63-2.738-1.5-3.803-2.63-1.086-1.108-1.934-2.455-2.564-3.977-.63-1.543-.935-3.216-.935-5.042zm-4.368 0c0 2.456.456 4.651 1.347 6.607.913 1.978 2.108 3.651 3.608 5.042a15.944 15.944 0 0 0 5.238 3.195 17.553 17.553 0 0 0 6.193 1.108c2.174 0 4.238-.37 6.216-1.108a15.944 15.944 0 0 0 5.237-3.195c1.5-1.39 2.695-3.064 3.608-5.042.891-1.956 1.326-4.15 1.326-6.607 0-2.412-.435-4.607-1.326-6.563-.913-1.977-2.108-3.65-3.608-5.02a15.944 15.944 0 0 0-5.237-3.195c-1.978-.76-4.042-1.13-6.216-1.13-2.151 0-4.216.37-6.193 1.13a15.944 15.944 0 0 0-5.238 3.195c-1.5 1.37-2.695 3.043-3.608 5.02-.89 1.956-1.347 4.151-1.347 6.563z"/>
  </g>
</svg>
