<?xml version="1.0" encoding="utf-8"?>
<!-- Generator: Adobe Illustrator 24.0.2, SVG Export Plug-In . SVG Version: 6.00 Build 0)  -->
<svg version="1.1" id="upgrades" xmlns="http://www.w3.org/2000/svg" xmlns:xlink="http://www.w3.org/1999/xlink" x="0px" y="0px"
	 viewBox="0 0 1200 800" style="enable-background:new 0 0 1200 800;" xml:space="preserve">
<style type="text/css">
	.st0{fill:#E24B31;}
	.st1{fill:#242B2D;}
	.st2{fill:#F7A08B;}
	.st3{fill:#DFFDFF;}
	.st4{fill:#FFEC64;}
	.st5{fill:#FFFFFF;}
	.st6{fill:#EBEEF2;}
	.st7{fill:#55265E;}
	.st8{fill:none;stroke:#2F869B;stroke-width:3;stroke-miterlimit:10;}
</style>
<g>
	<g>
		<path class="st0" d="M792.3,270.1c0,0-91.5,65.4-151.6,66.2s-54-38.1-54-38.1S807.1,222.7,747,73.7c-27-38.3-58.4-50.4-102.8-49.5
			c-44.4,0.9-99.6,28-135.3,108.1c-17.1,38.3-23.3,74.5-26.8,102v0c0,0-38.6,7.9-59.5-9.5s-31.7,0-31.7,0s-35.9,45.8-0.2,59.7
			c35.7,13.9,91.5,20.5,91.5,20.5h0c5.1,24.4,20,65.8,63.5,98.9c65.4,49.7,190.8-4.6,190.8-4.6l51.4-28.9
			C857.6,327.2,827.4,247.2,792.3,270.1z M576.2,230.9c2.6-103.7,70.6-149,94.1-126.3s14.8,71.5-29.6,101.9
			C596.2,237,576.2,230.9,576.2,230.9z"/>
	</g>
	<g>
		<g>
			<path class="st1" d="M703.6,740.9H539.4V478.5h164.2V740.9z M542.4,737.9h158.2V481.5H542.4V737.9z"/>
		</g>
		<g>
			<path class="st1" d="M718.2,481H529.8c-15.7,0-28.4-12.8-28.4-28.4s12.8-28.4,28.4-28.4h188.4c15.7,0,28.4,12.8,28.4,28.4
				S733.9,481,718.2,481z M529.8,427.1c-14,0-25.4,11.4-25.4,25.4s11.4,25.4,25.4,25.4h188.4c14,0,25.4-11.4,25.4-25.4
				s-11.4-25.4-25.4-25.4H529.8z"/>
		</g>
		<g>
			<path class="st1" d="M718.2,794.9H529.8c-15.7,0-28.4-12.8-28.4-28.4s12.8-28.4,28.4-28.4h188.4c15.7,0,28.4,12.8,28.4,28.4
				S733.9,794.9,718.2,794.9z M529.8,741c-14,0-25.4,11.4-25.4,25.4s11.4,25.4,25.4,25.4h188.4c14,0,25.4-11.4,25.4-25.4
				S732.3,741,718.2,741H529.8z"/>
		</g>
		<g>
			<path class="st2" d="M597.1,733.2L597.1,733.2c-9.9,0-18-8-18-18V542.4c0-9.9,8-18,18-18h0c9.9,0,18,8,18,18v172.9
				C615.1,725.2,607,733.2,597.1,733.2z"/>
		</g>
		<g>
			<path class="st2" d="M667.1,733.2L667.1,733.2c-9.9,0-18-8-18-18V542.4c0-9.9,8-18,18-18h0c9.9,0,18,8,18,18v172.9
				C685.1,725.2,677,733.2,667.1,733.2z"/>
		</g>
		<g>
			<path class="st1" d="M589.1,726.7c-10.7,0-19.5-8.7-19.5-19.5V534.4c0-10.7,8.7-19.5,19.5-19.5c10.7,0,19.5,8.7,19.5,19.5v172.9
				C608.6,718,599.8,726.7,589.1,726.7z M589.1,517.9c-9.1,0-16.5,7.4-16.5,16.5v172.9c0,9.1,7.4,16.5,16.5,16.5
				c9.1,0,16.5-7.4,16.5-16.5V534.4C605.6,525.3,598.2,517.9,589.1,517.9z"/>
		</g>
		<g>
			<path class="st1" d="M659.1,726.7c-10.7,0-19.5-8.7-19.5-19.5V534.4c0-10.7,8.7-19.5,19.5-19.5c10.7,0,19.5,8.7,19.5,19.5v172.9
				C678.6,718,669.8,726.7,659.1,726.7z M659.1,517.9c-9.1,0-16.5,7.4-16.5,16.5v172.9c0,9.1,7.4,16.5,16.5,16.5
				c9.1,0,16.5-7.4,16.5-16.5V534.4C675.6,525.3,668.2,517.9,659.1,517.9z"/>
		</g>
	</g>
	<g>
		<path class="st1" d="M609.6,416.3c-26.4,0-53.7-5.1-74.8-21.2c-44-33.4-58.9-75.8-63.9-98.7c-8.1-1-58-7.7-90.8-20.4l1.1-2.8
			c35.1,13.7,90.6,20.3,91.1,20.4l-0.1,1.5l1.3-0.3c4.7,22.3,19.1,64.7,63,98c33.3,25.3,82.9,22.7,118.7,16.1
			c38-7.1,68.9-20.1,70.6-20.8l51.3-28.8c25.2-15.6,40.2-38.5,41.2-62.9l3,0.1c-1.1,25.4-16.6,49.2-42.7,65.3l-51.6,29
			c-0.3,0.1-32,13.7-71.2,21C642,414.3,626,416.3,609.6,416.3z M628.7,327.9c-21.6,0-37-5.2-45.8-15.4c-9.6-11.1-7.8-23.9-7.7-24.5
			l0.1-0.9l0.9-0.3c0.3-0.1,30.8-10.6,65.5-31.1c31.9-18.8,74-50.2,93.4-92.5c14.3-31.2,14.5-64.4,0.7-98.7
			c-25.1-35.5-54.5-49.7-101.5-48.7c-26.1,0.5-91.5,12-134,107.2c-17,38.2-23.2,74.4-26.6,101.6l-1.5-0.1l0.3,1.4
			c-1.1,0.2-27.6,5.5-48.8-2.9l1.1-2.8c18.1,7.1,40.9,3.8,46.1,2.9c3.5-27.3,9.8-63.3,26.7-101.3c43.2-96.8,109.9-108.5,136.7-109
			c48.2-0.9,78.3,13.6,104.1,50.1l0.2,0.3c14.2,35.2,14,69.2-0.7,101.3c-19.7,43.1-62.3,74.8-94.6,93.9c-31.6,18.6-59.7,29.1-65,31
			c-0.2,2.9-0.3,12.8,7.1,21.2c8.5,9.8,23.8,14.6,45.5,14.3c47.1-0.7,113.8-41.4,140.3-58.8l1.7,2.5c-26.7,17.6-94,58.6-141.9,59.3
			C630,327.9,629.3,327.9,628.7,327.9z M571.3,222.9c-3.5,0-5.3-0.5-5.5-0.6l-1.1-0.3l0-1.1c1.8-71.8,35.2-117.9,65.5-130.3
			c12.5-5.1,23.9-4.1,31.1,2.9c9.6,9.3,14.2,22.9,13,38.4c-2,24.2-18,48.8-42.8,65.9C599.6,219.7,580.1,222.9,571.3,222.9z
			 M567.7,219.7c4.7,0.7,24.7,1.3,62.1-24.4c24-16.5,39.6-40.3,41.5-63.6c1.2-14.6-3.1-27.4-12.1-36c-6.4-6.1-16.5-7-27.9-2.3
			C602.1,105.4,569.9,150,567.7,219.7z"/>
	</g>
	<g>
		<g>
			<g>
				<polygon class="st3" points="492.2,402.3 475.4,412.7 472,426.6 449.9,456.4 460.6,464.4 482.7,434.6 495.1,427.4 500.3,408.3 
									"/>
			</g>
			<g>
				<path class="st1" d="M459.6,459.6l-13.2-9.8l22.8-30.7l3.4-14.2l18.2-11.3l9.7,7.2l-5.6,20.7l-12.6,7.4L459.6,459.6z
					 M450.6,449.2l8.4,6.2l21.4-28.8l12.1-7.1l4.7-17.6l-6.4-4.8l-15.5,9.6l-3.3,13.6L450.6,449.2z"/>
			</g>
			<g>
				<g>
					<polygon class="st4" points="465.1,468.9 435.1,446.6 401,464.3 458,506.6 					"/>
					<path class="st1" d="M459,509.3l-60.8-45.2l37-19.2l31.5,23.4L459,509.3z M403.9,464.5l53.1,39.5l6.5-34.4l-28.5-21.2
						L403.9,464.5z"/>
				</g>
				<g>
					<path class="st4" d="M465.1,468.9l-30-22.3l0,0c0.1-4.1,4.8-6.3,8-3.9l23.4,17.4C469.8,462.5,469,467.7,465.1,468.9
						L465.1,468.9z"/>
					<path class="st1" d="M464.8,470.6l-31.2-23.2l0-0.8c0.1-2.4,1.5-4.6,3.7-5.7c2.2-1.1,4.8-0.8,6.8,0.6l23.4,17.4
						c2,1.5,2.9,3.9,2.6,6.3s-2.1,4.4-4.4,5.2L464.8,470.6z M436.7,446l28.6,21.3c0.9-0.5,1.5-1.4,1.7-2.5c0.2-1.3-0.3-2.6-1.4-3.4
						l-23.4-17.4c-1.1-0.8-2.4-0.9-3.7-0.3C437.6,444.1,436.9,444.9,436.7,446z"/>
				</g>
			</g>
			<g>
				
					<rect x="393.1" y="483.4" transform="matrix(0.5966 -0.8026 0.8026 0.5966 -239.4425 536.4997)" class="st4" width="41.6" height="46.1"/>
				<path class="st1" d="M420.3,539l-39.4-29.3l26.6-35.8l39.4,29.3L420.3,539z M385.1,509.1l34.6,25.7l23-31l-34.6-25.7
					L385.1,509.1z"/>
			</g>
			<g>
				<path class="st1" d="M460.3,504.5l-57.9-43.1c-3.1-2.3-7.6-1.7-9.9,1.5v0c-2.3,3.1-1.7,7.6,1.5,9.9l57.9,43.1
					c3.1,2.3,7.6,1.7,9.9-1.5h0C464.1,511.3,463.5,506.8,460.3,504.5z"/>
				<path class="st1" d="M456.1,518.7c-1.8,0-3.6-0.5-5.1-1.7L393.1,474c-3.8-2.8-4.6-8.2-1.8-12c1.4-1.8,3.4-3,5.6-3.4
					c2.3-0.3,4.5,0.2,6.4,1.6l57.9,43.1c1.8,1.4,3,3.4,3.4,5.6c0.3,2.3-0.2,4.5-1.6,6.4C461.3,517.6,458.7,518.7,456.1,518.7z
					 M398.2,461.5c-0.3,0-0.5,0-0.8,0.1c-1.5,0.2-2.8,1-3.7,2.2c-1.8,2.5-1.3,6,1.1,7.8l57.9,43.1c2.5,1.8,6,1.3,7.8-1.1
					c0.9-1.2,1.3-2.7,1-4.1s-1-2.8-2.2-3.7l-57.9-43.1C400.5,461.9,399.4,461.5,398.2,461.5z"/>
			</g>
		</g>
		<g>
			<g>
				<path class="st4" d="M208,651.1L246.6,539c4.7-13.5-2.5-28.3-16.1-33h0c-13.5-4.7-28.3,2.5-33,16.1L159,634.2
					c-4.7,13.5,2.5,28.3,16.1,33h0C188.6,671.9,203.3,664.7,208,651.1z"/>
				<path class="st1" d="M183.5,670.1c-3,0-6-0.5-8.9-1.5c-14.3-4.9-21.9-20.6-17-34.9l38.6-112.1c2.4-6.9,7.3-12.5,13.9-15.7
					c6.6-3.2,14-3.7,21-1.3c14.3,4.9,21.9,20.6,17,34.9l-38.6,112.2C205.5,663,194.8,670.1,183.5,670.1z M222.1,506.1
					c-3.7,0-7.3,0.8-10.7,2.5c-5.9,2.9-10.3,7.8-12.4,14l-38.6,112.1c-4.4,12.7,2.4,26.7,15.1,31.1c12.7,4.4,26.7-2.4,31.1-15.1
					l38.6-112.1c4.4-12.7-2.4-26.7-15.1-31.1C227.5,506.5,224.8,506.1,222.1,506.1z"/>
			</g>
			<g>
				<g>
					<path class="st5" d="M198.9,648.1L198.9,648.1c3-8.6-1.6-18-10.2-21h0c-8.6-3-18,1.6-21,10.2v0c-3,8.6,1.6,18,10.2,21h0
						C186.5,661.3,195.9,656.7,198.9,648.1z"/>
					<path class="st1" d="M183.3,660.2c-1.9,0-3.8-0.3-5.7-1c-9.1-3.1-14-13.1-10.8-22.2c1.5-4.4,4.7-8,8.9-10
						c4.2-2,8.9-2.3,13.4-0.8c9.1,3.1,14,13.1,10.8,22.2l0,0C197.4,655.7,190.6,660.2,183.3,660.2z M183.3,627.2
						c-2.3,0-4.6,0.5-6.8,1.6c-3.7,1.8-6.5,5-7.9,8.9c-2.8,8.1,1.5,16.9,9.6,19.7c8.1,2.8,16.9-1.5,19.7-9.6
						c2.8-8.1-1.5-16.9-9.6-19.7C186.7,627.5,185,627.2,183.3,627.2z"/>
				</g>
			</g>
			<g>
				<g>
					<path class="st6" d="M237.6,535.7L237.6,535.7c-3,8.6-12.4,13.2-21,10.2h0c-8.6-3-13.2-12.4-10.2-21l0,0
						c3-8.6,12.4-13.2,21-10.2l0,0C236,517.7,240.6,527.1,237.6,535.7z"/>
					<path class="st1" d="M222,547.8c-1.9,0-3.9-0.3-5.7-1c-4.4-1.5-8-4.7-10-8.9s-2.3-8.9-0.8-13.4c1.5-4.4,4.7-8,8.9-10
						c4.2-2,8.9-2.3,13.4-0.8c9.1,3.1,14,13.1,10.8,22.2l0,0c-1.5,4.4-4.7,8-8.9,10C227.3,547.3,224.7,547.8,222,547.8z M222,514.9
						c-2.3,0-4.6,0.5-6.8,1.6c-3.7,1.8-6.5,5-7.9,8.9s-1.1,8.1,0.7,11.8c1.8,3.7,5,6.5,8.9,7.9c8.1,2.8,16.9-1.5,19.7-9.6l0,0
						c2.8-8.1-1.5-16.9-9.6-19.7C225.4,515.1,223.7,514.9,222,514.9z"/>
				</g>
			</g>
		</g>
		<g>
			<g>
				<path class="st4" d="M220.1,554.9l177.5-5.1c14.3-0.4,25.6-12.4,25.2-26.7v0c-0.4-14.3-12.4-25.6-26.7-25.2L218.6,503
					c-14.3,0.4-25.6,12.4-25.2,26.7v0C193.9,544,205.8,555.3,220.1,554.9z"/>
				<path class="st1" d="M219.4,556.4c-7,0-13.7-2.6-18.8-7.5c-5.3-5-8.4-11.8-8.6-19.2c-0.2-7.3,2.4-14.3,7.5-19.6
					c5-5.3,11.8-8.4,19.2-8.6l177.5-5.1c7.3-0.2,14.3,2.4,19.6,7.5c5.3,5,8.4,11.8,8.6,19.2c0.2,7.3-2.4,14.3-7.5,19.6
					c-5,5.3-11.8,8.4-19.2,8.6l-177.5,5.1C219.9,556.4,219.6,556.4,219.4,556.4z M396.9,499.4c-0.2,0-0.5,0-0.7,0l-177.5,5.1
					c-6.5,0.2-12.6,2.9-17.1,7.7c-4.5,4.7-6.8,11-6.7,17.5c0.2,6.5,2.9,12.6,7.7,17.1c4.7,4.5,10.9,6.8,17.5,6.7l177.5-5.1
					c6.5-0.2,12.6-2.9,17.1-7.7c4.5-4.7,6.8-11,6.7-17.5c-0.2-6.5-2.9-12.6-7.7-17.1C409.1,501.8,403.2,499.4,396.9,499.4z"/>
			</g>
			<g>
				<g>
					<path class="st5" d="M219.7,545.3L219.7,545.3c9.1-0.3,16.3-7.9,16-17l0,0c-0.3-9.1-7.9-16.3-17-16h0c-9.1,0.3-16.3,7.9-16,17
						l0,0C203,538.4,210.6,545.6,219.7,545.3z"/>
					<path class="st1" d="M219.2,546.8c-9.7,0-17.7-7.7-18-17.5c-0.1-4.8,1.6-9.4,4.9-12.9c3.3-3.5,7.8-5.5,12.6-5.6
						c4.8-0.1,9.4,1.6,12.9,4.9c3.5,3.3,5.5,7.8,5.6,12.6c0.3,9.9-7.5,18.2-17.5,18.5l0,0C219.6,546.8,219.4,546.8,219.2,546.8z
						 M219.3,513.9c-0.1,0-0.3,0-0.4,0c-4,0.1-7.7,1.8-10.5,4.7c-2.7,2.9-4.2,6.7-4.1,10.7c0.2,8.3,7.1,14.7,15.4,14.5
						c8.3-0.2,14.8-7.2,14.5-15.4c-0.1-4-1.8-7.7-4.7-10.5C226.7,515.3,223.1,513.9,219.3,513.9z"/>
				</g>
			</g>
			<g>
				<g>
					<path class="st5" d="M397.5,540.2L397.5,540.2c-9.1,0.3-16.7-6.9-17-16l0,0c-0.3-9.1,6.9-16.7,16-17h0c9.1-0.3,16.7,6.9,17,16
						l0,0C413.7,532.3,406.6,539.9,397.5,540.2z"/>
					<path class="st1" d="M397,541.7c-4.6,0-9-1.7-12.3-4.9c-3.5-3.3-5.5-7.8-5.6-12.6c-0.1-4.8,1.6-9.4,4.9-12.9
						c3.3-3.5,7.8-5.5,12.6-5.6c4.8-0.2,9.4,1.6,12.9,4.9c3.5,3.3,5.5,7.8,5.6,12.6c0.1,4.8-1.6,9.4-4.9,12.9
						c-3.3,3.5-7.8,5.5-12.6,5.6C397.3,541.7,397.2,541.7,397,541.7z M397,508.7c-0.1,0-0.3,0-0.4,0c-4,0.1-7.7,1.8-10.5,4.7
						c-2.7,2.9-4.2,6.7-4.1,10.7c0.1,4,1.8,7.7,4.7,10.5s6.7,4.2,10.7,4.1l0,0c4-0.1,7.7-1.8,10.5-4.7s4.2-6.7,4.1-10.7
						c-0.1-4-1.8-7.7-4.7-10.5C404.5,510.2,400.8,508.7,397,508.7z"/>
				</g>
			</g>
		</g>
	</g>
	<g>
		<g>
			<g>
				<path class="st3" d="M406.7,205.1l-61,38.2c10.5,16.9,22,33.4,23.3,46.8l15.6-9.7c-2-7.5,0.3-8.4,8.3-5.2l30.4-19
					c-5.9-4.6-2.9-5.2,4-2.5L441,245C430,239.6,417.6,224.1,406.7,205.1z"/>
			</g>
			<g>
				<path class="st1" d="M370,283.5c-0.2,0-0.5-0.1-0.7-0.2c-0.5-0.2-0.8-0.7-0.8-1.2c-1.1-11.3-9.9-25.2-19.2-39.9
					c-1.3-2.1-2.6-4.1-3.9-6.2c-0.4-0.7-0.2-1.6,0.5-2.1l61-38.2c0.3-0.2,0.8-0.3,1.2-0.2c0.4,0.1,0.7,0.4,0.9,0.7
					c11.7,20.5,23.7,34.4,33.7,39.3c0.5,0.2,0.8,0.7,0.8,1.3s-0.2,1.1-0.7,1.4l-13.8,8.6c-0.4,0.3-0.9,0.3-1.3,0.1
					c-2.5-1-4.8-2.2-6.9-3.6c1.3,1.2,2.8,2.3,4.4,3.6c0.4,0.3,0.6,0.8,0.6,1.3c0,0.5-0.3,0.9-0.7,1.2l-30.4,19
					c-0.4,0.3-0.9,0.3-1.4,0.1c-4-1.6-7.1-4-10.1-7c1.6,3.5,2.9,6.9,3.8,10.4c0.2,0.6-0.1,1.3-0.7,1.7l-15.6,9.7
					C370.5,283.5,370.2,283.5,370,283.5z M348.7,235.8c1,1.6,2.1,3.3,3.1,4.9c8.9,14,17.3,27.4,19.3,38.9l12.7-7.9
					c-2.1-7.2-5.6-13.9-10.8-22.8c-0.4-0.7-0.2-1.6,0.5-2c0.7-0.4,1.6-0.3,2,0.3l1.2,1.6c5.9,7.9,10.2,13.6,16.9,16.6l27.9-17.4
					c-5.6-4.5-9.8-8.7-11.9-16.3c-0.2-0.7,0.2-1.5,0.8-1.8c0.7-0.3,1.5-0.1,1.9,0.6c4,6.3,9.3,10.8,15.6,13.5l11-6.9
					c-9.8-5.8-21-19.1-31.9-37.9L348.7,235.8z"/>
			</g>
			<g>
				<g>
					<path class="st4" d="M367.4,171.3l-26.3,16.4l-36.5-58.3c-4.5-7.2-2.3-16.8,4.9-21.3l0,0c7.2-4.5,16.8-2.3,21.3,4.9
						L367.4,171.3z"/>
					<path class="st1" d="M340.6,189.7l-37.3-59.6c-2.4-3.8-3.2-8.4-2.1-12.8c1-4.4,3.7-8.2,7.5-10.6c3.8-2.4,8.4-3.2,12.8-2.1
						c4.4,1,8.2,3.7,10.6,7.5l37.3,59.6L340.6,189.7z M317.7,107.2c-2.6,0-5.1,0.7-7.4,2.1c-3.2,2-5.4,5.1-6.2,8.7
						s-0.2,7.4,1.8,10.6l35.7,57.1l23.7-14.8l-35.7-57.1c-2-3.2-5.1-5.4-8.7-6.2C319.9,107.3,318.8,107.2,317.7,107.2z"/>
				</g>
				<g>
					<g>
						<path class="st6" d="M321.8,127.6L321.8,127.6c-3.6,2.2-8.3,1.2-10.5-2.4v0c-2.2-3.6-1.1-8.3,2.4-10.5l0,0
							c3.6-2.2,8.3-1.1,10.5,2.4v0C326.4,120.7,325.4,125.4,321.8,127.6z"/>
						<path class="st1" d="M317.8,129.7c-2.9,0-5.7-1.4-7.3-4c-2.5-4-1.3-9.3,2.7-11.9c2-1.2,4.3-1.6,6.5-1.1
							c2.2,0.5,4.1,1.9,5.4,3.8c2.5,4,1.3,9.3-2.7,11.9l0,0C320.9,129.3,319.3,129.7,317.8,129.7z M317.8,114.5
							c-1.2,0-2.4,0.3-3.5,1c-3.1,1.9-4,6-2.1,9.1c1.9,3.1,6,4,9.1,2.1l0.5,0.8l-0.5-0.8c3.1-1.9,4-6,2.1-9.1
							c-0.9-1.5-2.4-2.5-4.1-2.9C318.8,114.6,318.3,114.5,317.8,114.5z"/>
					</g>
				</g>
			</g>
			<g>
				<path class="st1" d="M363.2,161.4L334,179.7c-8.8,5.5-11.5,17.1-6,25.9l5,8l61-38.2l-5-8C383.6,158.6,372,156,363.2,161.4z"/>
				<path class="st1" d="M332.6,215.7l-5.8-9.3c-5.9-9.5-3-22,6.4-27.9l29.2-18.3c9.5-5.9,22-3,27.9,6.4l5.8,9.3L332.6,215.7z
					 M364,162.7L334.8,181c-8.1,5-10.5,15.7-5.5,23.8l4.2,6.8l58.5-36.6l-4.2-6.8C382.8,160.1,372.1,157.7,364,162.7L364,162.7z"/>
			</g>
			<g>
				
					<rect x="334.4" y="192.6" transform="matrix(0.848 -0.5301 0.5301 0.848 -52.5452 227.5457)" class="st4" width="72" height="25.5"/>
				<path class="st1" d="M346.1,237.3L331,213.1l63.6-39.8l15.1,24.2L346.1,237.3z M335.1,214.1l11.9,19.1l58.5-36.6l-11.9-19.1
					L335.1,214.1z"/>
			</g>
		</g>
		<g>
			<g>
				<path class="st4" d="M136.1,124.2l100,43c13.1,5.7,19.2,21,13.4,34.1l0,0c-5.7,13.1-21,19.2-34.1,13.4l-100-43
					c-13.1-5.7-19.2-21-13.4-34.1l0,0C107.7,124.6,123,118.5,136.1,124.2z"/>
				<path class="st1" d="M225.7,218.5c-3.6,0-7.4-0.7-10.9-2.3l-100-43c-6.7-2.9-11.9-8.3-14.6-15.1c-2.7-6.8-2.6-14.3,0.4-21
					c2.9-6.7,8.3-11.9,15.1-14.6c6.8-2.7,14.3-2.6,21,0.4l100,43c13.9,6,20.3,22.2,14.2,36.1C246.4,212.3,236.3,218.5,225.7,218.5z
					 M125.8,123.6c-3,0-6.1,0.6-9,1.7c-6.1,2.4-10.9,7-13.5,13c-2.6,6-2.7,12.6-0.3,18.7c2.4,6.1,7,10.9,13,13.5l100,43
					c6,2.6,12.6,2.7,18.7,0.3c6.1-2.4,10.9-7,13.5-13c5.4-12.4-0.3-26.8-12.7-32.2l-100-43C132.4,124.3,129.1,123.6,125.8,123.6z"/>
			</g>
			<g>
				<g>
					<path class="st5" d="M132.2,133L132.2,133c8.3,3.6,12.2,13.3,8.5,21.7l0,0c-3.6,8.3-13.3,12.2-21.7,8.5l0,0
						c-8.3-3.6-12.2-13.3-8.5-21.7l0,0C114.1,133.2,123.8,129.4,132.2,133z"/>
					<path class="st1" d="M125.6,166.1c-2.4,0-4.9-0.5-7.2-1.5c-9.1-4-13.3-14.6-9.3-23.7c1.9-4.4,5.4-7.8,9.9-9.6
						c4.5-1.8,9.4-1.7,13.8,0.2c9.1,4,13.3,14.6,9.3,23.7c-1.9,4.4-5.4,7.8-9.9,9.6C130,165.7,127.8,166.1,125.6,166.1z
						 M125.6,133.1c-1.9,0-3.7,0.3-5.5,1.1c-3.7,1.5-6.7,4.3-8.2,8c-3.3,7.6,0.2,16.4,7.8,19.7c3.7,1.6,7.7,1.7,11.5,0.2
						c3.7-1.5,6.7-4.3,8.2-8c3.3-7.6-0.2-16.4-7.8-19.7C129.6,133.5,127.6,133.1,125.6,133.1z"/>
				</g>
			</g>
			<g>
				<g>
					<path class="st6" d="M232.4,176.1L232.4,176.1c-8.3-3.6-18.1,0.2-21.7,8.5l0,0c-3.6,8.3,0.2,18.1,8.5,21.7l0,0
						c8.3,3.6,18.1-0.2,21.7-8.5l0,0C244.5,189.5,240.7,179.7,232.4,176.1z"/>
					<path class="st1" d="M225.8,208.7c-2.3,0-4.7-0.5-6.9-1.5c-8.8-3.8-12.9-14.2-9.1-23c1.9-4.3,5.3-7.6,9.6-9.3
						c4.3-1.7,9.1-1.6,13.4,0.2l-0.4,0.9l0.4-0.9c4.3,1.9,7.6,5.3,9.3,9.6c1.7,4.3,1.6,9.1-0.2,13.4
						C239,204.8,232.5,208.7,225.8,208.7z M225.8,175.7c-6,0-11.7,3.5-14.2,9.3c-3.4,7.8,0.2,17,8,20.4c7.8,3.4,17-0.2,20.4-8
						c1.6-3.8,1.7-8,0.2-11.8c-1.5-3.8-4.4-6.9-8.2-8.5l0,0C230,176.2,227.9,175.7,225.8,175.7z"/>
				</g>
			</g>
		</g>
		<g>
			<g>
				<path class="st4" d="M329.3,144.9l-85.1,67.9c-11.2,8.9-27.5,7-36.4-4.2l0,0c-8.9-11.2-7-27.5,4.2-36.4l85.1-67.9
					c11.2-8.9,27.5-7,36.4,4.2l0,0C342.4,119.7,340.5,136,329.3,144.9z"/>
				<path class="st1" d="M228.2,220c-1.1,0-2.1-0.1-3.2-0.2c-7.3-0.8-13.8-4.5-18.3-10.2c-4.6-5.7-6.6-12.9-5.7-20.2
					s4.5-13.8,10.2-18.3l85.1-67.9c5.7-4.6,12.9-6.6,20.2-5.8c7.3,0.8,13.8,4.5,18.3,10.2c4.6,5.7,6.6,12.9,5.7,20.2
					c-0.8,7.3-4.5,13.8-10.2,18.3L245.2,214C240.3,217.9,234.3,220,228.2,220z M313.1,100.2c-5.5,0-10.8,1.8-15.1,5.3L213,173.4
					c-5.1,4.1-8.4,9.9-9.1,16.3c-0.8,6.5,1.1,12.9,5.1,18c4.1,5.1,9.9,8.3,16.3,9.1c6.5,0.8,12.9-1.1,18-5.1l85.1-67.9
					c5.1-4.1,8.3-9.9,9.1-16.3c0.8-6.5-1.1-12.9-5.1-18c-4.1-5.1-9.9-8.3-16.3-9.1C315,100.2,314.1,100.2,313.1,100.2z"/>
			</g>
			<g>
				<g>
					<path class="st5" d="M323.4,137.4L323.4,137.4c-7.1,5.7-17.5,4.5-23.2-2.7l0,0c-5.7-7.1-4.5-17.5,2.7-23.2l0,0
						c7.1-5.7,17.5-4.5,23.2,2.7l0,0C331.8,121.3,330.6,131.7,323.4,137.4z"/>
					<path class="st1" d="M313.2,142.4c-0.7,0-1.4,0-2.1-0.1c-4.8-0.6-9-2.9-12-6.7c-3-3.8-4.3-8.5-3.8-13.2s2.9-9,6.7-12
						s8.5-4.3,13.2-3.8c4.8,0.6,9,2.9,12,6.7c3,3.8,4.3,8.5,3.8,13.2c-0.6,4.8-2.9,9-6.7,12C321.2,141.1,317.3,142.4,313.2,142.4z
						 M313.2,109.5c-3.4,0-6.6,1.1-9.3,3.2c-3.1,2.5-5.1,6-5.6,10s0.7,7.9,3.1,11c2.5,3.1,6,5.1,10,5.6c4,0.5,7.9-0.7,11-3.1
						s5.1-6,5.6-10c0.5-4-0.7-7.9-3.1-11c-2.5-3.1-6-5.1-10-5.6C314.4,109.5,313.8,109.5,313.2,109.5z"/>
				</g>
			</g>
			<g>
				<g>
					<path class="st5" d="M238.2,205.4L238.2,205.4c7.1-5.7,8.3-16,2.7-23.2l0,0c-5.7-7.1-16-8.3-23.2-2.7l0,0
						c-7.1,5.7-8.3,16-2.7,23.2l0,0C220.7,209.9,231.1,211.1,238.2,205.4z"/>
					<path class="st1" d="M228,210.5c-0.7,0-1.4,0-2.1-0.1c-4.8-0.6-9-2.9-12-6.7c-3-3.8-4.3-8.5-3.8-13.2s2.9-9,6.7-12
						s8.5-4.3,13.2-3.8c4.8,0.6,9,2.9,12,6.7c3,3.8,4.3,8.5,3.8,13.2c-0.6,4.8-2.9,9-6.7,12C235.9,209.2,232,210.5,228,210.5z
						 M227.9,177.5c-3.4,0-6.6,1.1-9.3,3.2c-3.1,2.5-5.1,6-5.6,10c-0.5,4,0.7,7.9,3.1,11c2.5,3.1,6,5.1,10,5.6c4,0.5,7.9-0.7,11-3.1
						c3.1-2.5,5.1-6,5.6-10s-0.7-7.9-3.1-11c-2.5-3.1-6-5.1-10-5.6C229.1,177.6,228.5,177.5,227.9,177.5z"/>
				</g>
			</g>
		</g>
	</g>
	<g>
		<g>
			<g>
				<path class="st4" d="M1036.9,77l96.1-16.8c14.1-2.5,23.6-15.9,21.1-30v0c-2.5-14.1-15.9-23.6-30-21.1L1028,25.9
					c-14.1,2.5-23.6,15.9-21.1,30v0C1009.4,70,1022.8,79.5,1036.9,77z"/>
				<path class="st1" d="M1032.4,78.9c-13.1,0-24.7-9.4-27-22.7c-2.6-14.9,7.4-29.1,22.3-31.8l96.1-16.8
					c14.9-2.6,29.1,7.4,31.8,22.3c2.6,14.9-7.4,29.1-22.3,31.8l-96.1,16.8C1035.6,78.8,1034,78.9,1032.4,78.9z M1036.6,75.5l0.3,1.5
					L1036.6,75.5l96.1-16.8c13.3-2.3,22.2-15,19.9-28.3c-2.3-13.3-15-22.2-28.3-19.9l-96.1,16.8c-6.4,1.1-12,4.7-15.8,10
					c-3.8,5.3-5.2,11.8-4.1,18.3C1010.7,68.9,1023.4,77.8,1036.6,75.5z"/>
			</g>
			<g>
				<g>
					<path class="st6" d="M1035.1,67.6L1035.1,67.6c9-1.6,15-10.1,13.4-19.1v0c-1.6-9-10.1-15-19.1-13.4l0,0
						c-9,1.6-15,10.1-13.4,19.1v0C1017.6,63.2,1026.2,69.2,1035.1,67.6z"/>
					<path class="st1" d="M1032.3,68.8c-3.6,0-7-1.1-10-3.2c-3.8-2.7-6.4-6.7-7.2-11.3c-0.8-4.6,0.2-9.2,2.9-13.1s6.7-6.4,11.3-7.2
						c9.5-1.7,18.6,4.7,20.2,14.2c1.7,9.5-4.7,18.6-14.2,20.2C1034.3,68.8,1033.3,68.8,1032.3,68.8z M1032.3,35.9
						c-0.9,0-1.8,0.1-2.7,0.2c-8.4,1.5-14.1,9.5-12.6,17.9c0.7,4.1,3,7.6,6.4,10c3.4,2.4,7.5,3.3,11.6,2.6l0,0
						c8.4-1.5,14.1-9.5,12.6-17.9C1046.2,41.2,1039.7,35.9,1032.3,35.9z"/>
				</g>
			</g>
			<g>
				<g>
					<path class="st5" d="M1131.5,50.8L1131.5,50.8c-9,1.6-17.5-4.4-19.1-13.4v0c-1.6-9,4.4-17.5,13.4-19.1v0
						c9-1.6,17.5,4.4,19.1,13.4v0C1146.5,40.6,1140.5,49.2,1131.5,50.8z"/>
					<path class="st1" d="M1128.6,52.5c-3.7,0-7.2-1.1-10.3-3.3c-3.9-2.8-6.6-6.9-7.4-11.6c-1.7-9.8,4.9-19.1,14.6-20.8
						c4.7-0.8,9.5,0.2,13.4,3c3.9,2.8,6.6,6.9,7.4,11.6c0.8,4.7-0.2,9.5-3,13.4c-2.8,3.9-6.9,6.6-11.6,7.4
						C1130.7,52.4,1129.7,52.5,1128.6,52.5z M1128.7,19.5c-0.9,0-1.7,0.1-2.6,0.2c-8.1,1.4-13.6,9.2-12.2,17.3
						c0.7,3.9,2.9,7.4,6.1,9.7c3.3,2.3,7.2,3.2,11.2,2.5c3.9-0.7,7.4-2.9,9.7-6.1c2.3-3.3,3.2-7.2,2.5-11.2
						c-0.7-3.9-2.9-7.4-6.1-9.7C1134.7,20.5,1131.7,19.5,1128.7,19.5z"/>
				</g>
			</g>
		</g>
		<g>
			<g>
				<path class="st4" d="M1007.9,226.8L1004,49.3c-0.3-14.3,11-26.2,25.4-26.5l0,0c14.3-0.3,26.2,11,26.5,25.4l3.9,177.5
					c0.3,14.3-11,26.2-25.4,26.5l0,0C1020,252.5,1008.2,241.1,1007.9,226.8z"/>
				<path class="st1" d="M1033.8,253.7c-7.1,0-13.8-2.7-19-7.6c-5.3-5.1-8.3-11.9-8.5-19.2l-3.9-177.5c-0.3-15.1,11.7-27.7,26.8-28
					c0.2,0,0.4,0,0.6,0c14.9,0,27.1,11.9,27.4,26.8l3.9,177.5c0.2,7.3-2.5,14.3-7.6,19.6c-5.1,5.3-11.9,8.3-19.2,8.5
					C1034.2,253.7,1034,253.7,1033.8,253.7z M1029.9,24.2c-0.2,0-0.4,0-0.5,0c-13.5,0.3-24.2,11.5-23.9,25l3.9,177.5
					c0.1,6.5,2.8,12.6,7.5,17.1c4.7,4.5,10.9,6.9,17.4,6.8c6.5-0.1,12.6-2.8,17.1-7.5c4.5-4.7,6.9-10.9,6.8-17.4l-3.9-177.5
					C1054,34.9,1043.1,24.2,1029.9,24.2z"/>
			</g>
			<g>
				<g>
					<path class="st6" d="M1017.4,226.7L1017.4,226.7c-0.2-9.1,7-16.6,16.1-16.8l0,0c9.1-0.2,16.6,7,16.8,16.1v0
						c0.2,9.1-7,16.6-16.1,16.8l0,0C1025.2,243,1017.6,235.8,1017.4,226.7z"/>
					<path class="st1" d="M1033.9,243.8c-4.5,0-8.8-1.7-12.1-4.9c-3.4-3.2-5.3-7.6-5.4-12.2l0,0c-0.2-9.6,7.5-17.7,17.1-17.9
						c4.6-0.1,9.1,1.6,12.5,4.8s5.3,7.6,5.4,12.2s-1.6,9.1-4.8,12.5s-7.6,5.3-12.2,5.4C1034.2,243.8,1034,243.8,1033.9,243.8z
						 M1018.4,226.7c0.1,4.1,1.8,8,4.8,10.8c3,2.9,6.9,4.4,11,4.3c4.1-0.1,8-1.8,10.8-4.8c2.9-3,4.4-6.9,4.3-11
						c-0.1-4.1-1.8-8-4.8-10.8c-3-2.9-6.9-4.4-11-4.3C1025,211,1018.2,218.1,1018.4,226.7L1018.4,226.7z"/>
				</g>
			</g>
			<g>
				<g>
					<path class="st5" d="M1013.5,48.9L1013.5,48.9c0.2,9.1,7.7,16.3,16.8,16.1l0,0c9.1-0.2,16.3-7.7,16.1-16.8v0
						c-0.2-9.1-7.7-16.3-16.8-16.1l0,0C1020.6,32.3,1013.3,39.8,1013.5,48.9z"/>
					<path class="st1" d="M1030,66.5c-4.7,0-9.1-1.8-12.4-5c-3.5-3.3-5.4-7.8-5.5-12.6v0c-0.2-9.9,7.7-18.2,17.6-18.4
						c10-0.2,18.2,7.7,18.4,17.6c0.1,4.8-1.7,9.4-5,12.8c-3.3,3.5-7.8,5.4-12.6,5.5C1030.3,66.5,1030.1,66.5,1030,66.5z M1015,48.9
						c0.1,4,1.7,7.7,4.6,10.5c2.9,2.8,6.7,4.3,10.7,4.2c4-0.1,7.7-1.7,10.5-4.6c2.8-2.9,4.2-6.7,4.2-10.7c-0.2-8.3-7-14.8-15.3-14.7
						C1021.4,33.8,1014.9,40.6,1015,48.9L1015,48.9z"/>
				</g>
			</g>
		</g>
		<g>
			<g>
				<polygon class="st3" points="824.2,227.3 858.4,258.3 847.5,298.9 847.5,298.9 809.5,309.5 800.9,301.8 823.2,283.5 
					802.5,264.8 786.5,288.7 778,280.9 784.8,242.1 				"/>
			</g>
			<g>
				<path class="st1" d="M802.1,303.2l-10.5-9.5l22.3-18.3L795.8,259l-16,24l-10.5-9.5l7.2-40.6l41-15.4l35.5,32.2l-11.3,42.3
					L802.1,303.2z M796.2,293.8l6.7,6.1l36.4-10.2l10.4-38.9L816.8,221l-37.7,14.1l-6.6,37.2l6.7,6.1l16-24l23.3,21.1L796.2,293.8z"
					/>
			</g>
			<g>
				<g>
					
						<rect x="827.7" y="196.6" transform="matrix(0.6716 -0.7409 0.7409 0.6716 115.9239 700.7814)" class="st4" width="41.6" height="46.1"/>
					<path class="st1" d="M851.7,252.6l-36.4-33l30-33.1l36.4,33L851.7,252.6z M819.6,219.4l32,29l25.9-28.6l-32-29L819.6,219.4z"/>
				</g>
				<g>
					<path class="st1" d="M862.1,253.7l-49.4-44.7c-2.9-2.6-7.4-2.4-10,0.5v0c-2.6,2.9-2.4,7.4,0.5,10l49.4,44.7
						c2.9,2.6,7.4,2.4,10-0.5v0C865.3,260.8,865,256.3,862.1,253.7z"/>
					<path class="st1" d="M857.4,267c-2,0-3.9-0.7-5.4-2.1l-49.4-44.7c-1.6-1.5-2.5-3.4-2.6-5.6c-0.1-2.2,0.6-4.2,2.1-5.8
						c3-3.3,8.1-3.6,11.4-0.6l49.4,44.7c1.6,1.5,2.5,3.4,2.6,5.6c0.1,2.2-0.6,4.2-2.1,5.8c-1.5,1.6-3.4,2.5-5.6,2.6
						C857.6,267,857.5,267,857.4,267z M808,208.1c-1.7,0-3.3,0.7-4.5,2c-1.1,1.2-1.7,2.8-1.6,4.4s0.8,3.1,2,4.2l49.4,44.7
						c1.2,1.1,2.8,1.6,4.4,1.6c1.6-0.1,3.1-0.8,4.2-2c1.1-1.2,1.7-2.8,1.6-4.4c-0.1-1.6-0.8-3.1-2-4.2l-49.4-44.7
						C810.9,208.6,809.5,208.1,808,208.1z"/>
				</g>
			</g>
		</g>
		<g>
			<g>
				<path class="st4" d="M1031.9,256.5l-175.5-26.8c-14.2-2.2-23.9-15.4-21.7-29.6v0c2.2-14.2,15.4-23.9,29.6-21.7l175.5,26.8
					c14.2,2.2,23.9,15.4,21.7,29.6v0C1059.3,249,1046,258.7,1031.9,256.5z"/>
				<path class="st1" d="M1035.8,258.3c-1.4,0-2.8-0.1-4.2-0.3l-175.5-26.8c-7.2-1.1-13.6-5-18-10.9c-4.3-5.9-6.1-13.1-5-20.4
					c2.3-15,16.3-25.3,31.3-23l175.5,26.8c15,2.3,25.3,16.3,23,31.3c-1.1,7.2-5,13.6-10.9,18
					C1047.3,256.5,1041.6,258.3,1035.8,258.3z M1032.1,255.1c6.5,1,12.9-0.6,18.2-4.5c5.3-3.9,8.7-9.6,9.7-16
					c2-13.3-7.2-25.8-20.5-27.8L863.9,180c-13.3-2-25.8,7.2-27.8,20.5c-1,6.5,0.6,12.9,4.5,18.2s9.6,8.7,16,9.7L1032.1,255.1z"/>
			</g>
			<g>
				<g>
					<path class="st5" d="M1033.4,247.1L1033.4,247.1c-9-1.4-15.2-9.8-13.8-18.8v0c1.4-9,9.8-15.2,18.8-13.8v0
						c9,1.4,15.2,9.8,13.8,18.8v0C1050.8,242.3,1042.4,248.5,1033.4,247.1z"/>
					<path class="st1" d="M1035.9,248.8c-0.9,0-1.8-0.1-2.7-0.2l0,0c-9.8-1.5-16.6-10.7-15.1-20.5c0.7-4.7,3.3-8.9,7.1-11.8
						c3.9-2.8,8.6-4,13.4-3.3c4.7,0.7,8.9,3.3,11.8,7.1c2.8,3.9,4,8.6,3.3,13.4C1052.3,242.4,1044.6,248.8,1035.9,248.8z
						 M1033.7,245.6c8.2,1.2,15.8-4.4,17.1-12.6c0.6-4-0.4-7.9-2.7-11.1c-2.4-3.2-5.9-5.3-9.8-5.9c-4-0.6-7.9,0.4-11.1,2.7
						c-3.2,2.4-5.3,5.9-5.9,9.8C1019.8,236.7,1025.5,244.4,1033.7,245.6L1033.7,245.6z"/>
				</g>
			</g>
			<g>
				<g>
					<path class="st5" d="M857.6,220.3L857.6,220.3c9,1.4,17.4-4.8,18.8-13.8v0c1.4-9-4.8-17.4-13.8-18.8l0,0
						c-9-1.4-17.4,4.8-18.8,13.8v0C842.4,210.5,848.6,218.9,857.6,220.3z"/>
					<path class="st1" d="M860.1,222c-0.9,0-1.8-0.1-2.7-0.2l0,0c-9.8-1.5-16.6-10.7-15.1-20.5s10.7-16.6,20.5-15.1
						c9.8,1.5,16.6,10.7,15.1,20.5C876.5,215.6,868.9,222,860.1,222z M857.9,218.8c8.2,1.2,15.8-4.4,17.1-12.6
						c1.2-8.2-4.4-15.8-12.6-17.1c-8.2-1.2-15.8,4.4-17.1,12.6C844.1,209.9,849.7,217.6,857.9,218.8L857.9,218.8z"/>
				</g>
			</g>
		</g>
	</g>
	<g>
		<path class="st6" d="M514.4,325.2l45.8,5.7l33.6,49.4l-23.4,30c-26.3-5-53.2-28.6-72.5-55.9L514.4,325.2z"/>
		<path class="st1" d="M571.1,412l-0.9-0.2c-24.2-4.6-51.7-25.7-73.4-56.5l-0.5-0.8l17.4-31l47.5,5.9l34.6,50.9L571.1,412z
			 M499.8,354.4c21,29.3,47,49.5,70.1,54.3l22.1-28.4l-32.6-47.9l-44.1-5.5L499.8,354.4z"/>
	</g>
	<g>
		<circle class="st6" cx="519" cy="333.6" r="3.2"/>
		<path class="st1" d="M519,338.2c-2.6,0-4.7-2.1-4.7-4.7s2.1-4.7,4.7-4.7s4.7,2.1,4.7,4.7S521.6,338.2,519,338.2z M519,331.9
			c-0.9,0-1.7,0.7-1.7,1.7s0.7,1.7,1.7,1.7s1.7-0.7,1.7-1.7S519.9,331.9,519,331.9z"/>
	</g>
	<g>
		<circle class="st6" cx="555.7" cy="337.2" r="3.2"/>
		<path class="st1" d="M555.7,341.8c-2.6,0-4.7-2.1-4.7-4.7s2.1-4.7,4.7-4.7s4.7,2.1,4.7,4.7S558.3,341.8,555.7,341.8z M555.7,335.5
			c-0.9,0-1.7,0.7-1.7,1.7s0.7,1.7,1.7,1.7s1.7-0.7,1.7-1.7S556.6,335.5,555.7,335.5z"/>
	</g>
	<g>
		<circle class="st6" cx="583.8" cy="380.1" r="3.2"/>
		<path class="st1" d="M583.8,384.8c-2.6,0-4.7-2.1-4.7-4.7c0-2.6,2.1-4.7,4.7-4.7s4.7,2.1,4.7,4.7
			C588.5,382.7,586.4,384.8,583.8,384.8z M583.8,378.5c-0.9,0-1.7,0.7-1.7,1.7c0,0.9,0.7,1.7,1.7,1.7s1.7-0.7,1.7-1.7
			C585.5,379.2,584.7,378.5,583.8,378.5z"/>
	</g>
	<g>
		<circle class="st6" cx="567.4" cy="402.4" r="3.2"/>
		<path class="st1" d="M567.4,407.1c-2.6,0-4.7-2.1-4.7-4.7s2.1-4.7,4.7-4.7s4.7,2.1,4.7,4.7S569.9,407.1,567.4,407.1z M567.4,400.7
			c-0.9,0-1.7,0.7-1.7,1.7s0.7,1.7,1.7,1.7s1.7-0.7,1.7-1.7S568.3,400.7,567.4,400.7z"/>
	</g>
	<g>
		<circle class="st6" cx="505.8" cy="354.3" r="3.2"/>
		<path class="st1" d="M505.8,358.9c-2.6,0-4.7-2.1-4.7-4.7s2.1-4.7,4.7-4.7c2.6,0,4.7,2.1,4.7,4.7S508.3,358.9,505.8,358.9z
			 M505.8,352.6c-0.9,0-1.7,0.7-1.7,1.7s0.7,1.7,1.7,1.7c0.9,0,1.7-0.7,1.7-1.7S506.7,352.6,505.8,352.6z"/>
	</g>
	<g>
		<path class="st7" d="M366.3,303.4c-1.7,0-3.2-1.4-3.2-3.2s1.4-3.2,3.2-3.2s3.2,1.4,3.2,3.2S368,303.4,366.3,303.4z M366.3,298.1
			c-1.2,0-2.2,1-2.2,2.2s1,2.2,2.2,2.2c1.2,0,2.2-1,2.2-2.2S367.5,298.1,366.3,298.1z"/>
	</g>
	<g>
		<path class="st7" d="M357,280.8c-1.7,0-3.2-1.4-3.2-3.2s1.4-3.2,3.2-3.2s3.2,1.4,3.2,3.2S358.7,280.8,357,280.8z M357,275.5
			c-1.2,0-2.2,1-2.2,2.2s1,2.2,2.2,2.2c1.2,0,2.2-1,2.2-2.2S358.2,275.5,357,275.5z"/>
	</g>
	<g>
		<path class="st7" d="M430.4,214.2c-1.7,0-3.2-1.4-3.2-3.2s1.4-3.2,3.2-3.2s3.2,1.4,3.2,3.2S432.2,214.2,430.4,214.2z M430.4,208.8
			c-1.2,0-2.2,1-2.2,2.2s1,2.2,2.2,2.2s2.2-1,2.2-2.2S431.6,208.8,430.4,208.8z"/>
	</g>
	<g>
		<g>
			<g>
				<path class="st2" d="M197.4,393.8h-69.6c-0.2,0-0.4-0.1-0.5-0.3c-0.1-0.2,0-0.4,0.1-0.5l69.6-69.6c0.1-0.1,0.4-0.2,0.5-0.1
					c0.2,0.1,0.3,0.3,0.3,0.5v69.6C197.9,393.5,197.7,393.8,197.4,393.8z M129,392.8h67.9v-67.9L129,392.8z"/>
			</g>
			<g>
				<path class="st2" d="M170.8,365.9h-69.6c-0.2,0-0.4-0.1-0.5-0.3c-0.1-0.2,0-0.4,0.1-0.5l69.6-69.6c0.1-0.1,0.4-0.2,0.5-0.1
					c0.2,0.1,0.3,0.3,0.3,0.5v69.6C171.3,365.7,171.1,365.9,170.8,365.9z M102.4,364.9h67.9V297L102.4,364.9z"/>
			</g>
			<g>
				<path class="st2" d="M144.2,338H74.6c-0.2,0-0.4-0.1-0.5-0.3c-0.1-0.2,0-0.4,0.1-0.5l69.6-69.6c0.1-0.1,0.4-0.2,0.5-0.1
					c0.2,0.1,0.3,0.3,0.3,0.5v69.6C144.7,337.8,144.5,338,144.2,338z M75.8,337h67.9v-67.9L75.8,337z"/>
			</g>
		</g>
		<g>
			<g>
				<path class="st2" d="M855.9,678.2c-0.1,0-0.3-0.1-0.4-0.1l-24.3-24.3c-0.1-0.1-0.1-0.2-0.1-0.4s0.1-0.3,0.1-0.4l86.3-86.3
					c0.2-0.2,0.5-0.2,0.7,0l24.3,24.3c0.2,0.2,0.2,0.5,0,0.7L856.2,678C856.1,678.1,856,678.2,855.9,678.2z M832.2,653.3l23.6,23.6
					l85.6-85.6l-23.6-23.6L832.2,653.3z"/>
			</g>
			<g>
				<g>
					<g>
						<g>
							<circle class="st7" cx="966.5" cy="371.3" r="1.7"/>
						</g>
						<g>
							<circle class="st7" cx="942" cy="395.7" r="1.7"/>
						</g>
						<g>
							<circle class="st7" cx="917.6" cy="420.2" r="1.7"/>
						</g>
						<g>
							<circle class="st7" cx="893.1" cy="444.6" r="1.7"/>
						</g>
						<g>
							<circle class="st7" cx="868.7" cy="469.1" r="1.7"/>
						</g>
						<g>
							<circle class="st7" cx="844.2" cy="493.5" r="1.7"/>
						</g>
						<g>
							<circle class="st7" cx="819.8" cy="518" r="1.7"/>
						</g>
					</g>
					<g>
						<g>
							<circle class="st7" cx="990.9" cy="395.7" r="1.7"/>
						</g>
						<g>
							<circle class="st7" cx="966.5" cy="420.2" r="1.7"/>
						</g>
						<g>
							<circle class="st7" cx="942" cy="444.6" r="1.7"/>
						</g>
						<g>
							<circle class="st7" cx="917.6" cy="469.1" r="1.7"/>
						</g>
						<g>
							<circle class="st7" cx="893.1" cy="493.5" r="1.7"/>
						</g>
						<g>
							<circle class="st7" cx="868.7" cy="518" r="1.7"/>
						</g>
						<g>
							<circle class="st7" cx="844.2" cy="542.4" r="1.7"/>
						</g>
					</g>
				</g>
				<g>
					<g>
						<g>
							<circle class="st7" cx="1015.4" cy="420.2" r="1.7"/>
						</g>
						<g>
							<circle class="st7" cx="990.9" cy="444.6" r="1.7"/>
						</g>
						<g>
							<circle class="st7" cx="966.5" cy="469.1" r="1.7"/>
						</g>
						<g>
							<circle class="st7" cx="942" cy="493.5" r="1.7"/>
						</g>
						<g>
							<circle class="st7" cx="917.6" cy="518" r="1.7"/>
						</g>
						<g>
							<circle class="st7" cx="893.1" cy="542.4" r="1.7"/>
						</g>
						<g>
							<circle class="st7" cx="868.7" cy="566.9" r="1.7"/>
						</g>
					</g>
					<g>
						<g>
							<circle class="st7" cx="1039.8" cy="444.6" r="1.7"/>
						</g>
						<g>
							<circle class="st7" cx="1015.4" cy="469.1" r="1.7"/>
						</g>
						<g>
							<circle class="st7" cx="990.9" cy="493.5" r="1.7"/>
						</g>
						<g>
							<circle class="st7" cx="966.5" cy="518" r="1.7"/>
						</g>
						<g>
							<circle class="st7" cx="942" cy="542.4" r="1.7"/>
						</g>
						<g>
							<circle class="st7" cx="917.6" cy="566.9" r="1.7"/>
						</g>
						<g>
							<circle class="st7" cx="893.1" cy="591.3" r="1.7"/>
						</g>
					</g>
				</g>
				<g>
					<g>
						<g>
							<circle class="st7" cx="1064.3" cy="469.1" r="1.7"/>
						</g>
						<g>
							<circle class="st7" cx="1039.8" cy="493.5" r="1.7"/>
						</g>
						<g>
							<circle class="st7" cx="1015.4" cy="518" r="1.7"/>
						</g>
						<g>
							<circle class="st7" cx="990.9" cy="542.4" r="1.7"/>
						</g>
						<g>
							<circle class="st7" cx="966.5" cy="566.9" r="1.7"/>
						</g>
						<g>
							<circle class="st7" cx="942" cy="591.3" r="1.7"/>
						</g>
						<g>
							<circle class="st7" cx="917.6" cy="615.8" r="1.7"/>
						</g>
					</g>
					<g>
						<g>
							<circle class="st7" cx="1088.7" cy="493.5" r="1.7"/>
						</g>
						<g>
							<circle class="st7" cx="1064.3" cy="518" r="1.7"/>
						</g>
						<g>
							<circle class="st7" cx="1039.8" cy="542.4" r="1.7"/>
						</g>
						<g>
							<circle class="st7" cx="1015.4" cy="566.9" r="1.7"/>
						</g>
						<g>
							<circle class="st7" cx="990.9" cy="591.3" r="1.7"/>
						</g>
						<g>
							<circle class="st7" cx="966.5" cy="615.8" r="1.7"/>
						</g>
						<g>
							<circle class="st7" cx="942" cy="640.2" r="1.7"/>
						</g>
					</g>
				</g>
				<g>
					<g>
						<g>
							<circle class="st7" cx="1113.2" cy="518" r="1.7"/>
						</g>
						<g>
							<circle class="st7" cx="1088.7" cy="542.4" r="1.7"/>
						</g>
						<g>
							<circle class="st7" cx="1064.3" cy="566.9" r="1.7"/>
						</g>
						<g>
							<circle class="st7" cx="1039.8" cy="591.3" r="1.7"/>
						</g>
						<g>
							<circle class="st7" cx="1015.4" cy="615.8" r="1.7"/>
						</g>
						<g>
							<circle class="st7" cx="990.9" cy="640.2" r="1.7"/>
						</g>
						<g>
							<circle class="st7" cx="966.5" cy="664.7" r="1.7"/>
						</g>
					</g>
				</g>
			</g>
		</g>
	</g>
</g>
<path class="st8" d="M540.9,515.4"/>
</svg>
