<?xml version="1.0" encoding="utf-8"?>
<!-- Generator: Adobe Illustrator 24.0.2, SVG Export Plug-In . SVG Version: 6.00 Build 0)  -->
<svg version="1.1" id="routing" xmlns="http://www.w3.org/2000/svg" xmlns:xlink="http://www.w3.org/1999/xlink" x="0px" y="0px"
	 viewBox="0 0 1200 800" style="enable-background:new 0 0 1200 800;" xml:space="preserve">
<style type="text/css">
	.st0{fill:#C4C6C6;}
	.st1{fill:#242B2D;}
	.st2{fill:#EBEEF2;}
	.st3{fill:#C7F9DE;}
	.st4{fill:#FFFFFF;}
	.st5{fill:#E24B31;}
	.st6{fill:#DFFDFF;}
	.st7{fill:#F7A08B;}
	.st8{fill:#55265E;}
</style>
<g>
	<g>
		<g>
			<path class="st0" d="M609,708.3H100v-1h509c32.8,0,59.5-26.7,59.5-59.5V450.2h1v197.6C669.5,681.1,642.3,708.3,609,708.3z"/>
		</g>
		<g>
			<path class="st0" d="M609,788.3H100v-1h509c76.9,0,139.5-62.6,139.5-139.5V450.2h1v197.6C749.5,725.2,686.4,788.3,609,788.3z"/>
		</g>
		<g>
			<g>
				<rect x="668.5" y="302.8" class="st0" width="1" height="64.5"/>
			</g>
			<g>
				<rect x="748.5" y="302.8" class="st0" width="1" height="64.5"/>
			</g>
		</g>
		<g>
			<path class="st0" d="M763.7,220.1l-0.8-0.6c11.5-13.5,28.3-21.3,46-21.3h305.7v1H809C791.5,199.2,775,206.8,763.7,220.1z"/>
		</g>
		<g>
			<path class="st0" d="M674.9,220.2l-1-0.3c8.3-28.7,26-54.6,49.8-72.9c24.7-18.9,54.1-28.9,85.2-28.9h305.7v1H809
				c-30.9,0-60.1,9.9-84.6,28.7C700.6,166,683,191.7,674.9,220.2z"/>
		</g>
	</g>
	<g>
		<g>
			<rect x="799.6" y="451" class="st0" width="1" height="284.7"/>
		</g>
		<g>
			<rect x="879.6" y="451" class="st0" width="1" height="284.7"/>
		</g>
		<g>
			<g>
				<path class="st0" d="M800.6,367h-1v-17.2c0-26.1-21.2-47.3-47.3-47.3H649v-1h103.4c26.6,0,48.3,21.7,48.3,48.3V367z"/>
			</g>
			<g>
				<path class="st0" d="M880.6,367h-1v-17.2c0-70.2-57.1-127.3-127.3-127.3H645.7v-1h106.7c70.7,0,128.3,57.6,128.3,128.3V367z"/>
			</g>
		</g>
		<g>
			<g>
				<path class="st0" d="M475.9,367h-1v-17.2c0-26.6,21.7-48.3,48.3-48.3H566v1h-42.8c-26.1,0-47.3,21.2-47.3,47.3V367z"/>
			</g>
			<g>
				<path class="st0" d="M395.9,366.4h-1v-16.5c0-70.7,57.6-128.3,128.3-128.3h33.5v1h-33.5c-70.2,0-127.3,57.1-127.3,127.3V366.4z"
					/>
			</g>
		</g>
		<g>
			<g>
				<path class="st0" d="M312.4,649.4c-54.8-15.7-93.1-66.4-93.1-123.4v-75.9h1V526c0,56.5,38,106.9,92.4,122.4L312.4,649.4z"/>
			</g>
			<g>
				<path class="st0" d="M347.6,654.3c-0.9,0-1.9,0-2.8,0l0-1c0.9,0,1.9,0,2.8,0c70.2,0,127.3-57.1,127.3-127.3v-75.2h1V526
					C475.9,596.8,418.4,654.3,347.6,654.3z"/>
			</g>
			<g>
				<path class="st0" d="M347.6,574.3c-26.6,0-48.3-21.7-48.3-48.3v-77.2h1V526c0,26.1,21.2,47.3,47.3,47.3
					c26.1,0,47.3-21.2,47.3-47.3v-76.5h1V526C395.9,552.7,374.2,574.3,347.6,574.3z"/>
			</g>
		</g>
		<g>
			<rect x="299.3" y="11.7" class="st0" width="1" height="354.7"/>
		</g>
		<g>
			<rect x="219.3" y="11.7" class="st0" width="1" height="352"/>
		</g>
	</g>
	<g>
		<g>
			<path class="st1" d="M514.2,662.5c-16.2,0-29.4-13.2-29.4-29.4s13.2-29.4,29.4-29.4s29.4,13.2,29.4,29.4S530.5,662.5,514.2,662.5
				z M514.2,605.7c-15.1,0-27.4,12.3-27.4,27.4s12.3,27.4,27.4,27.4s27.4-12.3,27.4-27.4S529.4,605.7,514.2,605.7z"/>
		</g>
		<g>
			<g>
				<line class="st2" x1="473.5" y1="593" x2="473.5" y2="676.8"/>
				<rect x="472.5" y="593" class="st1" width="2" height="83.8"/>
			</g>
			<g>
				<line class="st2" x1="394.6" y1="593" x2="394.6" y2="676.8"/>
				<rect x="393.6" y="593" class="st1" width="2" height="83.8"/>
			</g>
		</g>
		<g>
			<g>
				<line class="st2" x1="649.9" y1="511.2" x2="566.1" y2="511.2"/>
				<rect x="566.1" y="510.2" class="st1" width="83.8" height="2"/>
			</g>
		</g>
		<g>
			<line class="st2" x1="639.8" y1="589.4" x2="561.4" y2="559.8"/>
			
				<rect x="599.6" y="532.7" transform="matrix(0.3532 -0.9355 0.9355 0.3532 -149.0887 933.5873)" class="st1" width="2" height="83.8"/>
		</g>
		<g>
			<line class="st2" x1="574.5" y1="661.2" x2="535.9" y2="586.7"/>
			
				<rect x="554.2" y="582.1" transform="matrix(0.8881 -0.4596 0.4596 0.8881 -224.6479 324.9511)" class="st1" width="2" height="83.8"/>
		</g>
	</g>
	<g>
		<g>
			<g>
				<path class="st1" d="M376.2,438.8c-16.2,0-29.4-13.2-29.4-29.4c0-16.2,13.2-29.4,29.4-29.4s29.4,13.2,29.4,29.4
					C405.7,425.7,392.5,438.8,376.2,438.8z M376.2,382c-15.1,0-27.4,12.3-27.4,27.4s12.3,27.4,27.4,27.4s27.4-12.3,27.4-27.4
					S391.4,382,376.2,382z"/>
			</g>
			<g>
				<g>
					<line class="st2" x1="869" y1="366" x2="869" y2="449.8"/>
					<rect x="868" y="366" class="st1" width="2" height="83.8"/>
				</g>
				<g>
					<line class="st2" x1="415.7" y1="366" x2="415.7" y2="449.8"/>
					<rect x="414.7" y="366" class="st1" width="2" height="83.8"/>
				</g>
				<g>
					<line class="st2" x1="336.8" y1="366" x2="336.8" y2="449.8"/>
					<rect x="335.8" y="366" class="st1" width="2" height="83.8"/>
				</g>
				<g>
					<line class="st2" x1="257.9" y1="366" x2="257.9" y2="449.8"/>
					<rect x="256.9" y="366" class="st1" width="2" height="83.8"/>
				</g>
				<g>
					<line class="st2" x1="178.8" y1="366" x2="178.8" y2="449.8"/>
					<rect x="177.8" y="366" class="st1" width="2" height="83.8"/>
				</g>
				<g>
					<line class="st2" x1="99.9" y1="366" x2="99.9" y2="449.8"/>
					<rect x="98.9" y="366" class="st1" width="2" height="83.8"/>
				</g>
				<g>
					<line class="st2" x1="711.8" y1="366" x2="711.8" y2="449.8"/>
					<rect x="710.8" y="366" class="st1" width="2" height="83.8"/>
				</g>
			</g>
		</g>
		<g>
			<g>
				<line class="st2" x1="790.3" y1="366" x2="790.3" y2="449.8"/>
				<rect x="789.3" y="366" class="st1" width="2" height="83.8"/>
			</g>
			<g>
				<line class="st2" x1="494.8" y1="366" x2="494.8" y2="449.8"/>
				<rect x="493.8" y="366" class="st1" width="2" height="83.8"/>
			</g>
		</g>
	</g>
	<g>
		<g>
			<path class="st1" d="M607,270.1c-16.2,0-29.4-13.2-29.4-29.4s13.2-29.4,29.4-29.4s29.4,13.2,29.4,29.4S623.2,270.1,607,270.1z
				 M607,213.3c-15.1,0-27.4,12.3-27.4,27.4s12.3,27.4,27.4,27.4s27.4-12.3,27.4-27.4S622.1,213.3,607,213.3z"/>
		</g>
		<g>
			<g>
				<line class="st2" x1="477.8" y1="109" x2="477.8" y2="192.8"/>
				<rect x="476.8" y="109" class="st1" width="2" height="83.8"/>
			</g>
		</g>
		<g>
			<g>
				<line class="st2" x1="649.9" y1="274.6" x2="566.1" y2="274.6"/>
				<rect x="566.1" y="273.6" class="st1" width="83.8" height="2"/>
			</g>
		</g>
		<g>
			<line class="st2" x1="561.5" y1="121.7" x2="531.9" y2="200.1"/>
			
				<rect x="504.8" y="159.9" transform="matrix(0.353 -0.9356 0.9356 0.353 203.1249 615.5762)" class="st1" width="83.8" height="2"/>
		</g>
		<g>
			<line class="st2" x1="633.2" y1="187.1" x2="558.8" y2="225.6"/>
			
				<rect x="554.1" y="205.4" transform="matrix(0.8882 -0.4595 0.4595 0.8882 -28.1742 296.9275)" class="st1" width="83.8" height="2"/>
		</g>
		<g>
			<path class="st1" d="M204.2,214.2h-33.9V88h33.9V214.2z M172.3,212.2h29.9V90h-29.9V212.2z"/>
		</g>
		<g>
			<line class="st2" x1="399.2" y1="111.3" x2="399.2" y2="195.1"/>
			<rect x="398.2" y="111.3" class="st1" width="2" height="83.8"/>
		</g>
		<g>
			<line class="st2" x1="320.3" y1="111.3" x2="320.3" y2="195.1"/>
			<rect x="319.3" y="111.3" class="st1" width="2" height="83.8"/>
		</g>
		<g>
			<line class="st2" x1="241.4" y1="111.3" x2="241.4" y2="195.1"/>
			<rect x="240.4" y="111.3" class="st1" width="2" height="83.8"/>
		</g>
	</g>
	<g>
		<g>
			<g>
				<path class="st3" d="M653.2,374.7h-80V258.1c0-33.1-26.9-60-60-60H209.7v-80h303.5c77.2,0,140,62.8,140,140V374.7z"/>
			</g>
		</g>
		<g>
			<g>
				<rect x="71.4" y="374" class="st3" width="855.1" height="80"/>
			</g>
		</g>
		<g>
			<g>
				<path class="st3" d="M513.8,680.3H351.5v-80h162.3c33.1,0,60-26.9,60-60v-86.6h80v86.6C653.8,617.5,591,680.3,513.8,680.3z"/>
			</g>
		</g>
	</g>
	<g>
		<g>
			<g>
				<g>
					<path class="st1" d="M507.8,675.8H344v-83h163.8c32.3,0,58.5-26.2,58.5-58.5v-85.6h3v85.6c0,33.9-27.6,61.5-61.5,61.5H347v77
						h160.8c76.4,0,138.5-62.1,138.5-138.5v-85.6h3v85.6C649.3,612.3,585.9,675.8,507.8,675.8z"/>
				</g>
			</g>
			<g>
				<circle class="st4" cx="518.2" cy="637.1" r="28.4"/>
			</g>
			<g>
				<path class="st1" d="M514.2,663c-16.5,0-29.9-13.4-29.9-29.9s13.4-29.9,29.9-29.9s29.9,13.4,29.9,29.9S530.7,663,514.2,663z
					 M514.2,606.2c-14.8,0-26.9,12.1-26.9,26.9s12.1,26.9,26.9,26.9s26.9-12.1,26.9-26.9S529.1,606.2,514.2,606.2z"/>
			</g>
			<g>
				<g>
					<line class="st2" x1="473.5" y1="593" x2="473.5" y2="676.8"/>
					<rect x="472" y="593" class="st1" width="3" height="83.8"/>
				</g>
				<g>
					<line class="st2" x1="394.6" y1="593" x2="394.6" y2="676.8"/>
					<rect x="393.1" y="593" class="st1" width="3" height="83.8"/>
				</g>
			</g>
			<g>
				<g>
					<line class="st2" x1="649.9" y1="511.2" x2="566.1" y2="511.2"/>
					<rect x="566.1" y="509.7" class="st1" width="83.8" height="3"/>
				</g>
			</g>
			<g>
				<line class="st2" x1="639.8" y1="589.4" x2="561.4" y2="559.8"/>
				
					<rect x="599.1" y="532.7" transform="matrix(0.3532 -0.9355 0.9355 0.3532 -149.0887 933.5873)" class="st1" width="3" height="83.8"/>
			</g>
			<g>
				<line class="st2" x1="574.5" y1="661.2" x2="535.9" y2="586.7"/>
				
					<rect x="553.7" y="582.1" transform="matrix(0.8881 -0.4596 0.4596 0.8881 -224.6479 324.9511)" class="st1" width="3" height="83.8"/>
			</g>
		</g>
		<g>
			<g>
				<g>
					<g>
						<path class="st1" d="M922.1,449.5H63.9v-83h858.1V449.5z M66.9,446.5h852.1v-77H66.9V446.5z"/>
					</g>
				</g>
				<g>
					<circle class="st4" cx="380.2" cy="413.4" r="28.4"/>
				</g>
				<g>
					<path class="st1" d="M376.2,439.3c-16.5,0-29.9-13.4-29.9-29.9c0-16.5,13.4-29.9,29.9-29.9s29.9,13.4,29.9,29.9
						C406.2,425.9,392.7,439.3,376.2,439.3z M376.2,382.5c-14.8,0-26.9,12.1-26.9,26.9c0,14.8,12.1,26.9,26.9,26.9
						s26.9-12.1,26.9-26.9C403.2,394.6,391.1,382.5,376.2,382.5z"/>
				</g>
				<g>
					<g>
						<line class="st2" x1="869" y1="366" x2="869" y2="449.8"/>
						<rect x="867.5" y="366" class="st1" width="3" height="83.8"/>
					</g>
					<g>
						<line class="st2" x1="415.7" y1="366" x2="415.7" y2="449.8"/>
						<rect x="414.2" y="366" class="st1" width="3" height="83.8"/>
					</g>
					<g>
						<line class="st2" x1="336.8" y1="366" x2="336.8" y2="449.8"/>
						<rect x="335.3" y="366" class="st1" width="3" height="83.8"/>
					</g>
					<g>
						<line class="st2" x1="257.9" y1="366" x2="257.9" y2="449.8"/>
						<rect x="256.4" y="366" class="st1" width="3" height="83.8"/>
					</g>
					<g>
						<line class="st2" x1="178.8" y1="366" x2="178.8" y2="449.8"/>
						<rect x="177.3" y="366" class="st1" width="3" height="83.8"/>
					</g>
					<g>
						<line class="st2" x1="99.9" y1="366" x2="99.9" y2="449.8"/>
						<rect x="98.4" y="366" class="st1" width="3" height="83.8"/>
					</g>
					<g>
						<line class="st2" x1="711.8" y1="366" x2="711.8" y2="449.8"/>
						<rect x="710.3" y="366" class="st1" width="3" height="83.8"/>
					</g>
				</g>
				<g>
					<g>
						<line class="st2" x1="790.3" y1="366" x2="790.3" y2="449.8"/>
						<rect x="788.8" y="366" class="st1" width="3" height="83.8"/>
					</g>
					<g>
						<line class="st2" x1="494.8" y1="366" x2="494.8" y2="449.8"/>
						<rect x="493.3" y="366" class="st1" width="3" height="83.8"/>
					</g>
				</g>
			</g>
		</g>
		<g>
			<g>
				<g>
					<path class="st1" d="M648.7,367.7h-3V252.1c0-76.4-62.1-138.5-138.5-138.5h-302v77h302c33.9,0,61.5,27.6,61.5,61.5v115.6h-3
						V252.1c0-32.3-26.2-58.5-58.5-58.5h-305v-83h305c78,0,141.5,63.5,141.5,141.5V367.7z"/>
				</g>
			</g>
			<g>
				<circle class="st4" cx="611" cy="244.7" r="28.4"/>
			</g>
			<g>
				<path class="st1" d="M607,270.6c-16.5,0-29.9-13.4-29.9-29.9s13.4-29.9,29.9-29.9s29.9,13.4,29.9,29.9S623.5,270.6,607,270.6z
					 M607,213.8c-14.8,0-26.9,12.1-26.9,26.9s12.1,26.9,26.9,26.9s26.9-12.1,26.9-26.9S621.8,213.8,607,213.8z"/>
			</g>
			<g>
				<g>
					<line class="st2" x1="477.8" y1="109" x2="477.8" y2="192.8"/>
					<rect x="476.3" y="109" class="st1" width="3" height="83.8"/>
				</g>
			</g>
			<g>
				<g>
					<line class="st2" x1="649.9" y1="274.6" x2="566.1" y2="274.6"/>
					<rect x="566.1" y="273.1" class="st1" width="83.8" height="3"/>
				</g>
			</g>
			<g>
				<line class="st2" x1="561.5" y1="121.7" x2="531.9" y2="200.1"/>
				
					<rect x="504.8" y="159.4" transform="matrix(0.3532 -0.9356 0.9356 0.3532 203.0556 615.5239)" class="st1" width="83.8" height="3"/>
			</g>
			<g>
				<line class="st2" x1="633.2" y1="187.1" x2="558.8" y2="225.6"/>
				
					<rect x="554.1" y="204.9" transform="matrix(0.8881 -0.4597 0.4597 0.8881 -28.1543 297.0645)" class="st1" width="83.8" height="3"/>
			</g>
			<g>
				<path class="st1" d="M204.7,214.7h-34.9V87.5h34.9V214.7z M172.8,211.7h28.9V90.5h-28.9V211.7z"/>
			</g>
			<g>
				<line class="st2" x1="399.2" y1="111.3" x2="399.2" y2="195.1"/>
				<rect x="397.7" y="111.3" class="st1" width="3" height="83.8"/>
			</g>
			<g>
				<line class="st2" x1="320.3" y1="111.3" x2="320.3" y2="195.1"/>
				<rect x="318.8" y="111.3" class="st1" width="3" height="83.8"/>
			</g>
			<g>
				<line class="st2" x1="241.4" y1="111.3" x2="241.4" y2="195.1"/>
				<rect x="239.9" y="111.3" class="st1" width="3" height="83.8"/>
			</g>
		</g>
	</g>
	<g>
		<g>
			<path class="st5" d="M659.3,417.8c0,0-27.6,19.7-45.8,20c-18.2,0.3-16.3-11.5-16.3-11.5s66.5-22.8,48.4-67.8
				c-8.2-11.6-17.6-15.2-31-14.9c-13.4,0.3-30.1,8.4-40.8,32.6c-5.1,11.6-7,22.5-8.1,30.8v0c0,0-11.7,2.4-18-2.9s-9.6,0-9.6,0
				s-10.8,13.8,0,18c10.8,4.2,27.6,6.2,27.6,6.2h0c1.5,7.4,6,19.9,19.2,29.9c19.7,15,57.6-1.4,57.6-1.4l15.5-8.7
				C679,435,669.9,410.8,659.3,417.8z M594.1,405.9c0.8-31.3,21.3-45,28.4-38.1c7.1,6.8,4.5,21.6-8.9,30.8S594.1,405.9,594.1,405.9z
				"/>
		</g>
		<g>
			<path class="st1" d="M603.2,462c-8.3,0-16.7-1.7-23.2-6.7c-13.1-10-17.8-22.5-19.5-29.7c-3.9-0.5-17.5-2.5-26.9-6.1
				c-2.9-1.1-4.7-3-5.4-5.5c-1.7-6.1,4.2-14,4.8-14.7c0.3-0.5,1.8-2.4,4.5-2.9c2.3-0.4,4.8,0.5,7.3,2.6c4.7,3.9,12.8,3.1,15.7,2.7
				c1.1-8.2,3-18.8,8.1-30.1c13.3-29.8,33.9-33.4,42.2-33.5c14.9-0.3,24.3,4.2,32.3,15.6l0.2,0.3c4.4,10.9,4.3,21.5-0.2,31.4
				c-6.1,13.2-19.1,23-29,28.8c-8.8,5.2-16.5,8.2-19.1,9.2c0,1.1,0.3,3.2,1.9,5c2.4,2.7,6.7,4,12.9,3.9
				c17.5-0.3,44.6-19.5,44.9-19.7l0,0c2.6-1.7,5.4-1.9,7.8-0.7c3.4,1.8,5.6,6.1,5.9,11.3c0.3,8.5-4.7,16.8-13.4,22.2l-15.7,8.8
				C638,454.6,620.6,462,603.2,462z M563.2,424c1.4,6.6,5.6,19.1,18.6,29c9.7,7.4,24.4,6.6,35,4.7c11.1-2.1,20.2-5.8,21.1-6.2
				l15.4-8.7c7.7-4.8,12.2-12.1,11.9-19.5c-0.2-4.1-1.8-7.5-4.2-8.7c-1.5-0.8-3.1-0.6-4.8,0.5c-1.5,1.1-28.3,20-46.6,20.3
				c-7.2,0.1-12.3-1.6-15.2-5c-3.2-3.7-2.6-8.1-2.6-8.2l0.1-0.9l0.9-0.3c0.4-0.1,36.3-12.7,47.3-36.8c4.2-9.1,4.2-18.8,0.2-28.9
				c-7.3-10.3-15.9-14.4-29.7-14.2c-7.7,0.2-26.9,3.5-39.5,31.8c-5.1,11.4-6.9,22.2-8,30.4l-1.5-0.1l0.3,1.4
				c-0.5,0.1-12.4,2.5-19.2-3.2c-1.8-1.5-3.5-2.2-4.9-1.9c-1.6,0.3-2.4,1.6-2.4,1.6l-0.1,0.1c-1.6,2-5.4,8.1-4.3,12.2
				c0.4,1.6,1.6,2.8,3.6,3.5c10.5,4.1,27.1,6.1,27.2,6.1l-0.1,1.5L563.2,424z M591.6,403.6c-1.1,0-1.8-0.2-2-0.2l-1.1-0.3l0-1.1
				c0.6-22.1,11-36.4,20.4-40.3c4.2-1.7,8-1.3,10.5,1.1c3.1,3,4.6,7.4,4.2,12.4c-0.6,7.6-5.6,15.3-13.4,20.7
				C600.6,402.5,594.5,403.6,591.6,403.6z M613.9,363.6c-1.1,0-2.4,0.3-3.7,0.8c-8.4,3.4-17.6,16.2-18.5,36.2
				c2.2,0,7.8-0.9,17.1-7.2c7-4.8,11.5-11.7,12.1-18.4c0.3-4.1-0.8-7.6-3.3-10C616.5,364,615.3,363.6,613.9,363.6z"/>
		</g>
	</g>
	<g>
		<g>
			<g>
				<path class="st2" d="M1168.3,510.9H929.6c-10.5,0-19-8.5-19-19V322.4c0-10.5,8.5-19,19-19h238.7c10.5,0,19,8.5,19,19v169.5
					C1187.3,502.4,1178.8,510.9,1168.3,510.9z"/>
				<path class="st1" d="M1168.3,512.4H929.6c-11.3,0-20.5-9.2-20.5-20.5V322.4c0-11.3,9.2-20.5,20.5-20.5h238.7
					c11.3,0,20.5,9.2,20.5,20.5v169.5C1188.8,503.2,1179.6,512.4,1168.3,512.4z M929.6,304.9c-9.6,0-17.5,7.9-17.5,17.5v169.5
					c0,9.6,7.9,17.5,17.5,17.5h238.7c9.6,0,17.5-7.9,17.5-17.5V322.4c0-9.6-7.9-17.5-17.5-17.5H929.6z"/>
			</g>
			<g>
				<rect x="939.5" y="336.2" class="st6" width="230.9" height="153.8"/>
			</g>
			<g>
				<path class="st1" d="M1165.9,485.6H932V328.7h233.9V485.6z M935,482.6h227.9V331.7H935V482.6z"/>
			</g>
			<g>
				<polygon class="st2" points="1098.1,563.7 1003.2,563.7 1023.2,510.8 1078.1,510.8 				"/>
				<path class="st1" d="M1100.2,565.2H1001l21.1-55.9h56.9L1100.2,565.2z M1005.4,562.2h90.5l-18.9-49.9h-52.8L1005.4,562.2z"/>
			</g>
			<g>
				<path class="st2" d="M1089.9,576.6h-80.5c-7.2,0-13-5.8-13-13l0,0h106.4l0,0C1102.9,570.8,1097.1,576.6,1089.9,576.6z"/>
				<path class="st1" d="M1089.9,578.1h-80.5c-8,0-14.5-6.5-14.5-14.5v-1.5h109.4v1.5C1104.4,571.6,1097.9,578.1,1089.9,578.1z
					 M998.1,565.2c0.7,5.6,5.5,10,11.4,10h80.5c5.8,0,10.6-4.3,11.4-10H998.1z"/>
			</g>
		</g>
		<g>
			<g>
				<path class="st1" d="M1042,429.7c-5.6,0-11.2-2.1-15.5-6.4L999,395.8c-8.6-8.6-8.6-22.5,0-31.1l3-3c4.1-4.1,9.7-6.4,15.5-6.4
					s11.4,2.3,15.5,6.4l25,25l-2.1,2.1l-25-25c-3.6-3.6-8.3-5.6-13.4-5.6s-9.8,2-13.4,5.6l-3,3c-7.4,7.4-7.4,19.4,0,26.8l27.5,27.5
					c7.4,7.4,19.4,7.4,26.8,0l3-3c3.6-3.6,5.6-8.3,5.6-13.4h3c0,5.9-2.3,11.4-6.4,15.5l-3,3C1053.3,427.6,1047.7,429.7,1042,429.7z"
					/>
			</g>
			<g>
				<path class="st1" d="M1077.4,465c-5.6,0-11.3-2.1-15.5-6.4l-25-25l2.1-2.1l25,25c7.4,7.4,19.4,7.4,26.8,0l3-3
					c3.6-3.6,5.6-8.3,5.6-13.4s-2-9.8-5.6-13.4l-27.5-27.5c-7.4-7.4-19.4-7.4-26.8,0l-3,3c-3.6,3.6-5.6,8.3-5.6,13.4h-3
					c0-5.9,2.3-11.4,6.4-15.5l3-3c8.6-8.6,22.5-8.6,31.1,0l27.5,27.5c4.1,4.1,6.4,9.7,6.4,15.5s-2.3,11.4-6.4,15.5l-3,3
					C1088.7,462.9,1083,465,1077.4,465z"/>
			</g>
		</g>
	</g>
	<g>
		<g>
			<path class="st7" d="M961.1,698.6c-0.1,0-0.1,0-0.2,0c-0.2-0.1-0.3-0.3-0.3-0.5v-59.1c0-0.3,0.2-0.5,0.5-0.5h59.1
				c0.2,0,0.4,0.1,0.5,0.3c0.1,0.2,0,0.4-0.1,0.5l-59.1,59.1C961.4,698.5,961.2,698.6,961.1,698.6z M961.6,639.4v57.4l57.4-57.4
				H961.6z"/>
		</g>
		<g>
			<path class="st8" d="M983.7,722.2c-0.1,0-0.1,0-0.2,0c-0.2-0.1-0.3-0.3-0.3-0.5v-59.1c0-0.3,0.2-0.5,0.5-0.5h59.1
				c0.2,0,0.4,0.1,0.5,0.3c0.1,0.2,0,0.4-0.1,0.5l-59.1,59.1C984,722.2,983.9,722.2,983.7,722.2z M984.2,663.1v57.4l57.4-57.4H984.2
				z"/>
		</g>
		<g>
			<path class="st7" d="M1006.3,745.9c-0.1,0-0.1,0-0.2,0c-0.2-0.1-0.3-0.3-0.3-0.5v-59.1c0-0.3,0.2-0.5,0.5-0.5h59.1
				c0.2,0,0.4,0.1,0.5,0.3c0.1,0.2,0,0.4-0.1,0.5l-59.1,59.1C1006.6,745.9,1006.5,745.9,1006.3,745.9z M1006.8,686.8v57.4l57.4-57.4
				H1006.8z"/>
		</g>
	</g>
	<g>
		<path class="st8" d="M119.3,616.1c-2.3,0-4.7-0.9-6.5-2.7c-3.6-3.6-3.6-9.4,0-12.9l0,0c3.6-3.6,9.4-3.6,12.9,0
			c3.6,3.6,3.6,9.4,0,12.9C124,615.2,121.7,616.1,119.3,616.1z M113.5,601.2c-3.2,3.2-3.2,8.3,0,11.5c3.2,3.2,8.3,3.2,11.5,0
			c3.2-3.2,3.2-8.3,0-11.5C121.9,598.1,116.7,598.1,113.5,601.2L113.5,601.2z"/>
	</g>
	<g>
		<path class="st8" d="M140.5,594.9c-2.3,0-4.7-0.9-6.5-2.7c-3.6-3.6-3.6-9.4,0-12.9c3.6-3.6,9.4-3.6,12.9,0c3.6,3.6,3.6,9.4,0,12.9
			C145.2,594,142.9,594.9,140.5,594.9z M140.5,577.6c-2.1,0-4.2,0.8-5.8,2.4c-3.2,3.2-3.2,8.3,0,11.5c3.2,3.2,8.3,3.2,11.5,0
			c3.2-3.2,3.2-8.3,0-11.5C144.7,578.4,142.6,577.6,140.5,577.6z"/>
	</g>
	<g>
		<path class="st8" d="M119.3,573.7c-2.3,0-4.7-0.9-6.5-2.7c-3.6-3.6-3.6-9.4,0-12.9l0,0c3.6-3.6,9.4-3.6,12.9,0
			c3.6,3.6,3.6,9.4,0,12.9C124,572.8,121.7,573.7,119.3,573.7z M113.5,558.8c-3.2,3.2-3.2,8.3,0,11.5c3.2,3.2,8.3,3.2,11.5,0
			c3.2-3.2,3.2-8.3,0-11.5C121.9,555.6,116.7,555.6,113.5,558.8L113.5,558.8z"/>
	</g>
	<g>
		<path class="st7" d="M706.7,103.3c-2.3,0-4.7-0.9-6.5-2.7c-3.6-3.6-3.6-9.4,0-12.9c3.6-3.6,9.4-3.6,12.9,0c3.6,3.6,3.6,9.4,0,12.9
			C711.4,102.4,709,103.3,706.7,103.3z M706.7,86c-2.1,0-4.2,0.8-5.8,2.4c-3.2,3.2-3.2,8.3,0,11.5c3.2,3.2,8.3,3.2,11.5,0
			c3.2-3.2,3.2-8.3,0-11.5C710.9,86.8,708.8,86,706.7,86z"/>
	</g>
	<g>
		<path class="st7" d="M726.7,83.3c-2.3,0-4.7-0.9-6.5-2.7c-3.6-3.6-3.6-9.4,0-12.9c3.6-3.6,9.4-3.6,12.9,0c3.6,3.6,3.6,9.4,0,12.9
			C731.4,82.4,729,83.3,726.7,83.3z M726.7,66c-2.1,0-4.2,0.8-5.8,2.4c-3.2,3.2-3.2,8.3,0,11.5c3.2,3.2,8.3,3.2,11.5,0
			c3.2-3.2,3.2-8.3,0-11.5C730.9,66.8,728.8,66,726.7,66z"/>
	</g>
	<g>
		<path class="st1" d="M66.6,470.4H31.7V343.2h34.9V470.4z M34.7,467.4h28.9V346.2H34.7V467.4z"/>
	</g>
	<g>
		<path class="st1" d="M346.3,699.6h-34.9V572.4h34.9V699.6z M314.4,696.6h28.9V575.4h-28.9V696.6z"/>
	</g>
</g>
</svg>
