<svg version="1.1" id="build" xmlns="http://www.w3.org/2000/svg" xmlns:xlink="http://www.w3.org/1999/xlink" x="0" y="0" viewBox="0 0 1200 800" xml:space="preserve"><style>.st0{fill:none}.st1,.st2,.st3{fill:none;stroke:#10aaff;stroke-width:.3}.st2,.st3{stroke:#231f20}.st3{stroke:#242b2d;stroke-width:3;stroke-miterlimit:10}.st4{display:none}.st5{display:inline}.st6{fill:#242b2d;stroke:#242b2d;stroke-width:2;stroke-miterlimit:10}.st7{fill:#ffec64}.st8{display:inline;fill:#fff}.st9{fill:none;stroke:#242b2d;stroke-width:2;stroke-miterlimit:10}.st10{fill:#10aaff}.st12{fill:#fff}.st13{fill:#d3d3d3}.st14{fill:#ebeef2}.st15{fill:#dffdff}.st18{fill:#e24b31}.st19{fill:#242b2d}.st22,.st23{fill:#dffdff;stroke:#10aaff;stroke-width:.5609;stroke-miterlimit:10}.st23{fill:none}.st25{font-family:&apos;Inter-Medium&apos;}.st26{font-size:7.852px}.st27,.st28,.st29,.st31{fill:none;stroke:#10aaff;stroke-width:.4359;stroke-miterlimit:10}.st28,.st29,.st31{stroke-width:.4566}.st29,.st31{stroke-width:.4496}.st31{stroke-width:.7508}.st32{font-size:6px}.st34{fill:#f7a08b}.st35{fill:#55265e}.st37{fill:#ba8449}.st42{fill:#fff8ee;stroke:#ba8449;stroke-width:.7224;stroke-linecap:round;stroke-linejoin:round;stroke-miterlimit:10}.st48{fill:#333}</style><pattern y="800" width="56.7" height="56.7" patternUnits="userSpaceOnUse" id="SVGID_1_" viewBox="56.9 -113.7 56.7 56.7" overflow="visible"><path class="st0" d="M56.9-113.7h56.7V-57H56.9z"/><path class="st0" d="M56.9-113.7h56.7V-57H56.9z"/><path class="st1" d="M99.5-170.6v57.2M71.1-113.4v-57.2M170.6-71.1h-57.2M113.4-99.5h57.2M113.9-71.1H56.7M56.7-99.5h57.2M99.5-113.9v57.2M71.1-56.7v-57.2"/><g><path class="st1" d="M57.2-71.1H0M0-99.5h57.2"/></g><g><path class="st2" d="M99.5-57.2V0M71.1 0v-57.2"/></g></pattern><g id="Assembly_Line"><path class="st3" d="M1002.9 601v73.1h-45.6V601M975 674.5h10.2v32.4H975zM965.4 706.9h29.4v7.9h-29.4zM241.7 602.1v72h-45.6v-72M213.8 674.5H224v32.4h-10.2zM204.2 706.9h29.4v7.9h-29.4z"/><g class="st4"><g class="st5"><path class="st6" d="M211.5 462.8v-19.3H182v19.3M272 462.8v-19.3h-29.5v19.3M332.5 462.8v-19.3h-29.4v19.3M393 462.8v-19.3h-29.4v19.3M177.6 585.4v19.2H207v-19.2M238.1 585.4v19.2h29.4v-19.2M298.6 585.4v19.2h29.5v-19.2M149.2 471.3l-14.9-14.9-20.9 20.8 15 14.9M149 576.6l-14.7 14.8-20.9-20.9 14.8-14.8M120.5 509.2h-20.4v29.4h20.4"/><g><path class="st6" d="M1001 462.8v-19.3h29.4v19.3M940.5 462.8v-19.3h29.4v19.3M879.9 462.8v-19.3h29.5v19.3M819.4 462.8v-19.3h29.4v19.3M1030.4 585.4v19.2H1001v-19.2M969.9 585.4v19.2h-29.4v-19.2M909.4 585.4v19.2h-29.5v-19.2M1059.3 470.9l14.4-14.5 20.9 20.8-14.5 14.5M1059 576.7l14.7 14.7 20.9-20.9-14.8-14.6M1087.5 509.2h20.4v29.4h-20.4"/></g></g><g class="st5"><path class="st7" d="M813.6 462.7h213.7c33.8 0 61.2 27.4 61.2 61.2 0 33.8-27.4 61.2-61.2 61.2H847.5M364.1 585.2H180.7c-33.8 0-61.2-27.4-61.2-61.2 0-33.8 27.4-61.2 61.2-61.2h217.4"/></g><circle class="st8" cx="174.8" cy="522.9" r="32.2"/><ellipse transform="rotate(-80.781 1027.31 522.884)" class="st8" cx="1027.3" cy="522.9" rx="32.2" ry="32.2"/></g><path class="st3" d="M809.6 458.7h213.7c33.8 0 61.2 27.4 61.2 61.2 0 33.8-27.4 61.2-61.2 61.2H843.5M360.1 581.2H176.7c-33.8 0-61.2-27.4-61.2-61.2 0-33.8 27.4-61.2 61.2-61.2h217.4"/><circle class="st3" cx="170.8" cy="518.9" r="32.2"/><circle class="st3" cx="1023.3" cy="518.9" r="32.2"/><path class="st3" d="M207.5 458.8v-19.3H178v19.3M268 458.8v-19.3h-29.5v19.3M328.5 458.8v-19.3h-29.4v19.3M389 458.8v-19.3h-29.4v19.3M173.6 581.4v19.2H203v-19.2M234.1 581.4v19.2h29.4v-19.2M294.6 581.4v19.2h29.5v-19.2M145.2 467.3l-14.9-14.9-20.9 20.8 15 14.9M145 572.6l-14.7 14.8-20.9-20.9 14.8-14.8M116.5 505.2H96.1v29.4h20.4"/><g><path class="st3" d="M997 458.8v-19.3h29.4v19.3M936.5 458.8v-19.3h29.4v19.3M875.9 458.8v-19.3h29.5v19.3M815.4 458.8v-19.3h29.4v19.3M1026.4 581.4v19.2H997v-19.2M965.9 581.4v19.2h-29.4v-19.2M905.4 581.4v19.2h-29.5v-19.2M1055.3 466.9l14.4-14.5 20.9 20.8-14.5 14.5M1055 572.7l14.7 14.7 20.9-20.9-14.8-14.6M1083.5 505.2h20.4v29.4h-20.4"/></g><g><path class="st10" d="M426 424.4H286.4c-15.4 0-27.9-12.5-27.9-27.9 0-15.4 12.5-27.9 27.9-27.9H426c15.4 0 27.9 12.5 27.9 27.9.1 15.4-12.4 27.9-27.9 27.9z"/><path class="st12" d="M293.5 380h3.9v22.5h11.7v3.4h-15.6V380zM312.5 396.3c0-6 3.6-10.1 9.1-10.1s9.1 4 9.1 10.1c0 6-3.6 10-9.1 10-5.6 0-9.1-4-9.1-10zm14.3 0c0-3.7-1.7-6.9-5.2-6.9-3.6 0-5.2 3.2-5.2 6.9s1.7 6.9 5.2 6.9c3.5-.1 5.2-3.2 5.2-6.9zM334.7 409.2l3.3-1.3c.7 1.1 1.9 2.7 5 2.7 2.9 0 5-1.3 5-4.3v-3.8h-.2c-.7 1.2-2.1 3.3-5.6 3.3-4.6 0-8.1-3.3-8.1-9.5s3.5-9.9 8.1-9.9c3.6 0 5 2.2 5.6 3.4h.3v-3.1h3.7v19.9c0 5-3.8 7.2-8.8 7.2-4.7-.2-7.3-2.2-8.3-4.6zm13.3-13.1c0-3.9-1.8-6.6-5.1-6.6-3.4 0-5.1 2.9-5.1 6.6 0 3.8 1.8 6.4 5.1 6.4 3.2 0 5.1-2.4 5.1-6.4zM356.3 381.3c0-1.2 1.1-2.3 2.4-2.3 1.3 0 2.4 1 2.4 2.3 0 1.2-1.1 2.3-2.4 2.3-1.4-.1-2.4-1.1-2.4-2.3zm.5 5.2h3.8v19.4h-3.8v-19.4zM369.4 405.9h-3.8v-19.4h3.6v3.2h.2c.9-2.1 2.8-3.4 5.7-3.4 4 0 6.6 2.5 6.6 7.3V406h-3.8v-12c0-2.8-1.6-4.5-4.1-4.5-2.6 0-4.5 1.8-4.5 4.9v11.5z"/><path class="st3" d="M422 420.4H282.4c-15.4 0-27.9-12.5-27.9-27.9 0-15.4 12.5-27.9 27.9-27.9H422c15.4 0 27.9 12.5 27.9 27.9.1 15.4-12.4 27.9-27.9 27.9z"/></g><g><path class="st13" d="M401.7 192.2h415.1v306.9H401.7zM816.8 499.1H401.7l-34 40.6h483.2zM367.7 539.7h483.2v202.2H367.7z"/></g><g><circle class="st14" cx="678.4" cy="215.9" r="14.1"/><circle class="st14" cx="728.9" cy="215.9" r="14.1"/><circle class="st14" cx="779.4" cy="215.9" r="14.1"/></g><path class="st3" d="M394.7 185.2h415.1v306.9H394.7zM809.8 492.1H394.7l-34 40.6h483.2zM360.7 532.7h483.2v202.2H360.7z"/><path class="st14" d="M389.1 562.5h190.2v151H389.1z"/><path class="st3" d="M383.1 556.5h190.2v151H383.1z"/><g><path class="st3" d="M808.9 578.4V595H665.5v-16.6M808.9 623.8v16.6H665.5v-16.6M808.9 669.2v16.6H665.5v-16.6"/></g><g><circle class="st3" cx="677.4" cy="212.9" r="14.1"/><circle class="st3" cx="727.9" cy="212.9" r="14.1"/><circle class="st3" cx="778.4" cy="212.9" r="14.1"/></g><circle class="st3" cx="403.3" cy="689.4" r="9.2"/><circle class="st3" cx="550.8" cy="689.4" r="9.2"/><circle class="st3" cx="403.3" cy="577" r="9.2"/><circle class="st3" cx="550.8" cy="577" r="9.2"/><g><path class="st15" d="M425.3 258.8h368v217.4h-368z"/><pattern id="SVGID_2_" xlink:href="#SVGID_1_" patternTransform="matrix(1 0 0 -1 2696.7 -17588.8)"/><path opacity=".75" fill="url(#SVGID_2_)" d="M425.3 258.8h368v217.4h-368z"/></g><path class="st3" d="M418.3 253.8h368v217.4h-368z"/><g><path fill="#7f7f7f" d="M544.4 168h123.8v21.1H544.4z"/><path class="st18" d="M659.9 168H552.7v-5.3c0-29.6 24-53.6 53.6-53.6s53.6 24 53.6 53.6v5.3z"/><path class="st12" d="M622.8 144.5s-9.8 7-16.3 7.1-5.8-4.1-5.8-4.1 23.7-8.1 17.2-24.1c-2.9-4.1-6.3-5.4-11.1-5.3s-10.7 3-14.5 11.6c-1.8 4.1-2.5 8-2.9 11 0 0-4.1.8-6.4-1-2.2-1.9-3.4 0-3.4 0s-3.9 4.9 0 6.4c3.8 1.5 9.8 2.2 9.8 2.2.6 2.6 2.2 7.1 6.8 10.6 7 5.3 20.5-.5 20.5-.5l5.5-3.1c7.7-4.7 4.4-13.3.6-10.8zm-23.2-4.2c.3-11.1 7.6-16 10.1-13.6s1.6 7.7-3.2 11c-4.7 3.2-6.9 2.6-6.9 2.6z"/><path class="st3" d="M540.4 164h123.8v21.1H540.4zM655.9 164H548.7v-5.3c0-29.6 24-53.6 53.6-53.6s53.6 24 53.6 53.6v5.3z"/><g><path class="st3" d="M602.3 72.7V25.1M670.6 92.9l33.6-33.6M534 92.9l-33.7-33.6"/></g></g><g><path class="st15" d="M178.2 374.2h49.2v49.2h-49.2z"/><path class="st3" d="M224.4 371.2h-49.2v-8.6c0-13.6 11-24.6 24.6-24.6 13.6 0 24.6 11 24.6 24.6v8.6z"/><path class="st19" d="M207.8 389.1c0-4.4-3.6-8-8-8s-8 3.6-8 8c0 3.1 1.7 5.7 4.3 7.1l-1.3 16.2h10l-1.3-16.2c2.6-1.3 4.3-4 4.3-7.1z"/><path class="st3" d="M175.2 371.2h49.2v49.2h-49.2z"/></g><g><path class="st9" d="M542.4 573.3l16.8 7.5"/><path class="st3" d="M554.2 680.9l-6.8 17.1M394.4 579.5l17.7-5M411.3 693.9l-16.1-8.9"/></g><g><path class="st10" d="M592.8 285.5c18.3 40.7 30.5 48.3 38 50.4 1.8.5 3.5.7 5.2.7 7.5 0 14.8-4.4 23.1-10.1 3-2 5.9-4.9 8.7-8.7v-.6c-2.8 3.8-5.9 6.9-8.9 9-10.2 6.9-18.7 12-28.1 9.3-11.9-3.4-23.9-19.3-37.8-50.2-1.9-4.2-4.9-7.8-9.3-10.9h-.6c4.6 3.3 7.7 6.8 9.7 11.1z"/><path class="st10" d="M632.4 314.6c1.6.4 3.1.6 4.7.6 7 0 13.8-4.1 21.6-9.4 3.1-2.1 6.2-5.3 9.1-9.4l-.3-.2c-2.8 4-5.9 7.2-9 9.3-9.4 6.4-17.3 11.1-26 8.7-10.2-2.8-20.5-15.5-32.2-39.9h-.3c11.7 24.8 22.1 37.5 32.4 40.3z"/><path class="st10" d="M637.1 287.7h1c6.8-.4 13.4-4.5 20.6-9.4 1-.7 2-1.5 3-2.4-.1-.1-.2-.1-.3-.2-1 .9-1.9 1.7-2.9 2.3-7.2 4.9-13.7 9-20.5 9.3-7.3.4-14.2-3.7-21.4-12.8h-.4c7 8.9 13.7 13.2 20.9 13.2zM542.7 334.3c6.1 0 9.6-5 13-9.8 1.8-2.6 3.7-5.3 6-7.3s3.3-4.1 2.9-6.4c-.6-3-4.2-7.2-12.9-10.2-6.7-2.3-14-2.2-19.5.3v.3c2.9-1.3 6.2-2 9.8-2 3.2 0 6.5.5 9.6 1.6 5.3 1.9 11.8 5.6 12.6 10 .4 2.1-.5 4.1-2.8 6-2.3 2-4.2 4.7-6 7.3-3.9 5.6-7.6 10.8-14.9 9.5-3-.5-5.8-2.1-8.3-4.6v.4c2.5 2.4 5.3 3.9 8.3 4.4.7.4 1.5.5 2.2.5z"/><path d="M540.7 328.4c8 1.5 10.1-7.9 15.3-12.2 5.6-4.7-.8-9.6-7.2-11.8-6.2-2.2-12.8-1.3-16.6 1.8V322c2 3.1 4.9 5.7 8.5 6.4z" fill="none" stroke="#10aaff" stroke-width=".5" stroke-miterlimit="10"/><circle class="st15" cx="627.5" cy="314.1" r=".3"/><circle class="st15" cx="627.5" cy="320" r=".3"/><circle class="st15" cx="627.5" cy="325.9" r=".3"/><circle class="st15" cx="627.5" cy="331.7" r=".3"/><circle class="st15" cx="627.5" cy="337.6" r=".3"/><circle class="st15" cx="627.5" cy="343.5" r=".3"/><circle class="st15" cx="627.5" cy="349.4" r=".3"/><g><circle class="st15" cx="633.4" cy="314.1" r=".3"/><circle class="st15" cx="633.4" cy="320" r=".3"/><circle class="st15" cx="633.4" cy="325.9" r=".3"/><circle class="st15" cx="633.4" cy="331.7" r=".3"/><circle class="st15" cx="633.4" cy="337.6" r=".3"/><circle class="st15" cx="633.4" cy="343.5" r=".3"/><circle class="st15" cx="633.4" cy="349.4" r=".3"/></g><g><circle class="st15" cx="639.3" cy="314.1" r=".3"/><circle class="st15" cx="639.3" cy="320" r=".3"/><circle class="st15" cx="639.3" cy="325.9" r=".3"/><circle class="st15" cx="639.3" cy="331.7" r=".3"/><circle class="st15" cx="639.3" cy="337.6" r=".3"/><circle class="st15" cx="639.3" cy="343.5" r=".3"/><circle class="st15" cx="639.3" cy="349.4" r=".3"/><g><circle class="st15" cx="645.2" cy="314.1" r=".3"/><circle class="st15" cx="645.2" cy="320" r=".3"/><circle class="st15" cx="645.2" cy="325.9" r=".3"/><circle class="st15" cx="645.2" cy="331.7" r=".3"/><circle class="st15" cx="645.2" cy="337.6" r=".3"/><circle class="st15" cx="645.2" cy="343.5" r=".3"/><circle class="st15" cx="645.2" cy="349.4" r=".3"/></g></g><g><circle class="st15" cx="651.1" cy="314.1" r=".3"/><circle class="st15" cx="651.1" cy="320" r=".3"/><circle class="st15" cx="651.1" cy="325.9" r=".3"/><circle class="st15" cx="651.1" cy="331.7" r=".3"/><circle class="st15" cx="651.1" cy="337.6" r=".3"/><circle class="st15" cx="651.1" cy="343.5" r=".3"/><circle class="st15" cx="651.1" cy="349.4" r=".3"/><g><circle class="st15" cx="656.9" cy="314.1" r=".3"/><circle class="st15" cx="656.9" cy="320" r=".3"/><circle class="st15" cx="656.9" cy="325.9" r=".3"/><circle class="st15" cx="656.9" cy="331.7" r=".3"/><circle class="st15" cx="656.9" cy="337.6" r=".3"/><circle class="st15" cx="656.9" cy="343.5" r=".3"/><circle class="st15" cx="656.9" cy="349.4" r=".3"/></g></g><g><circle class="st15" cx="662.8" cy="314.1" r=".3"/><circle class="st15" cx="662.8" cy="320" r=".3"/><circle class="st15" cx="662.8" cy="325.9" r=".3"/><circle class="st15" cx="662.8" cy="331.7" r=".3"/><circle class="st15" cx="662.8" cy="337.6" r=".3"/><circle class="st15" cx="662.8" cy="343.5" r=".3"/><circle class="st15" cx="662.8" cy="349.4" r=".3"/></g><path d="M657.4 456.2H542.6c-5.7 0-10.4-4.6-10.4-10.4v-161c0-5.7 4.6-10.4 10.4-10.4h114.9c5.7 0 10.4 4.6 10.4 10.4v161c-.1 5.8-4.7 10.4-10.5 10.4z" fill="none" stroke="#10aaff" stroke-width="1.122" stroke-miterlimit="10"/><path class="st22" d="M631.6 424.5h-63.3c-5.7 0-10.4-4.6-10.4-10.4V307.6c0-5.7 4.6-10.4 10.4-10.4h63.3c5.7 0 10.4 4.6 10.4 10.4v106.6c0 5.7-4.6 10.3-10.4 10.3z"/><g><circle class="st22" cx="600" cy="336.4" r="32.1"/><path class="st15" d="M580.7 361.4c.7-.3 1.3-.7 1.5-.9 4.5-5.5 3.7-11.6 2.4-10.5-1.9 2.7-5.4 5.3-8.8 7.2l-.1.1c1.3 1.5 2.8 2.9 4.4 4.2.2.1.5 0 .6-.1z"/><path class="st23" d="M580.7 361.4c.7-.3 1.3-.7 1.5-.9 4.5-5.5 3.7-11.6 2.4-10.5-1.9 2.7-5.4 5.3-8.8 7.2l-.1.1c1.3 1.5 2.8 2.9 4.4 4.2.2.1.5 0 .6-.1z"/><path class="st15" d="M584.6 350c-1.3.7-4.1 4.3-6.8 6 3 1.2 3.6 5.4 4.4 4.4 4.6-5.4 3.7-11.5 2.4-10.4z"/><path class="st23" d="M584.6 350c-1.3.7-4.1 4.3-6.8 6 3 1.2 3.6 5.4 4.4 4.4 4.6-5.4 3.7-11.5 2.4-10.4z"/><path class="st15" d="M613.4 350c4.5 4.8 10.6 2.5 11.5 1.5.8-.8 4.3 3 3.8 3.6-.9 1.1-6.2 5.8-9.6 6.4-7.1-.8-7.1-11.3-5.7-11.5z"/><path class="st23" d="M613.4 350c4.5 4.8 10.6 2.5 11.5 1.5.8-.8 4.3 3 3.8 3.6-.9 1.1-6.2 5.8-9.6 6.4-7.1-.8-7.1-11.3-5.7-11.5z"/><path class="st22" d="M623.1 349.3c-.3 2.3 3.2 6 6 6.5 1.7.3 3.7.2 4.8-.5.8-.5 1-1.6 0-1.9-.9-.2-2.2.1-2.2-.6 0-.8 1.9-1.7 2.5-2.7.4-.7 0-1.7-1-1.4-1 .2-2.3 1.6-3.1 1-1-.6.1-2.5-.1-3.5-.1-.4-.9-.7-1.4-.4-1.1.8-1.5 3.8-2.8 3.6-.7-.1-1.6-.7-2.2-.8-.1.1-.4.2-.5.7z"/><path class="st15" d="M613.4 350c1.9 2.1 4.1 2.8 6.1 2.9-.9 1-1.8 4.3-.4 8.6-7.1-.8-7.1-11.3-5.7-11.5z"/><path class="st23" d="M613.4 350c1.9 2.1 4.1 2.8 6.1 2.9-.9 1-1.8 4.3-.4 8.6-7.1-.8-7.1-11.3-5.7-11.5z"/><circle class="st15" cx="599.3" cy="354.1" r="10.6"/><g><path class="st0" d="M578.2 359.9c2.7-4.3 5.4-7.8 6-9.9.8-.8 2.4-1.4 3.9-1.8 0 1.4 2.2 9.4 10.8 9.4s10.8-8 10.8-9.4c1.5.4 3.1 1 3.9 1.8.7 2.2 3.9 6.2 6.7 11.1 7.1-5.9 11.6-14.8 11.6-24.7 0-17.7-14.4-32.1-32.1-32.1-17.7 0-32.1 14.4-32.1 32.1.2 9.3 4.2 17.6 10.5 23.5z"/><path class="st22" d="M609.8 348.2c0 1.4-2.2 9.4-10.8 9.4s-10.8-8-10.8-9.4c-1.5.4-3.1 1-3.9 1.8-.6 2-3.3 5.6-6 9.9 5.7 5.3 13.4 8.6 21.8 8.6 7.8 0 14.9-2.8 20.4-7.3-2.9-4.9-6-8.9-6.7-11.1-.9-.9-2.5-1.5-4-1.9z"/></g><path d="M609.9 347.6c0 1.4-2.4 10-11 10s-11-8.6-11-10" fill="none" stroke="#10aaff" stroke-width="2.026" stroke-miterlimit="10"/><path class="st10" d="M627.4 351.1c.7-.1 1.5.2 2.1.8.5.6.8 1.4.5 2.2h-.1v-.1c0-.7-.3-1.3-.7-1.8s-1-.9-1.7-1c-.1 0-.1-.1-.1-.1z"/><g><path class="st22" d="M589.3 312.2c-4.5 1.6-8.5-1-13.7-1.3-4.9-.3-7.7 4.5-5.7 9.1 2 4.5 7 9.1 11.3 9 1.1-.1 9.2-17.2 8.1-16.8z"/><path class="st22" d="M583.4 315.8c-4.7 1.1-10-5.5-12.8-1.9-3.3 4.2 3.1 12.4 7.9 14.1.9.2 5.9-12.1 4.9-12.2zM607.8 313.5c7 .9 7.9-5 13-5.8 4.2-.7 7.3 2.8 6.6 7.6-.7 4.7-7.1 11.9-7.9 15.4-.3 1.3-13.1-17.3-11.7-17.2z"/><path class="st22" d="M615.1 315.9c2.4 0 3.8-2.8 6.4-4.8 1.8-1.4 4.2-2 5.1.1 2.6 5.9-4.4 13.1-6.5 17.2-2.8.7-4.8-12.4-5-12.5z"/><path class="st22" d="M621.9 333.5c-4-8.4-5.5-17.3-10.1-21.8-4.3-4.2-12-4-12.4-4-.5 0-8.1-.2-12.4 4-4.6 4.4-6.1 13.4-10.1 21.8-3.7 7.8 3.1 20.5 22.6 20.5s26-12.7 22.4-20.5z"/><path class="st22" d="M621.9 333.5c-4-8.4-5.5-17.3-10.1-21.8-4.3-4.2-12-4-12.4-4-.5 0-8.1-.2-12.4 4-2.8 2.7-4.4 7-6.1 11.8-1.2 3.2 2.4 15.9 21.4 12.3 13.1-2.4 21.3 10 11.7 15 8-4.2 10.4-11.9 7.9-17.3z"/><path class="st10" d="M600.8 328.5c-.1-.2-.3-.3-.5-.3h-2c-.2 0-.4.1-.5.3l-.3.5c-.2.3.1.7.4.7h.1c.4 0 .7.1.9.4l.1.1c.1.2.4.2.5 0l.1-.1c.2-.3.5-.5.9-.4h.1c.4 0 .6-.3.4-.7l-.2-.5z"/><path class="st22" d="M599.2 333.8c-4.8 0-9.4-1.7-11.3-2.4.7 1.4 3.3 8.5 3.4 10.9 0 .9 2.1 3.5 7.9 3.5s7.8-2.6 7.9-3.5c.1-2.4 2.7-9.5 3.4-10.9-1.9.7-6.5 2.4-11.3 2.4z"/><path class="st22" d="M591.2 341.9s.1 0 .1.4c0 .9 2.1 3.5 7.9 3.5s7.8-2.6 7.9-3.5c0-.4.1-.6.1-.6-2-3.2-12.4-4.2-16 .2z"/><path class="st22" d="M599.2 333.8c-1.5 0-3-.2-4.3-.4l.5 4.2s2 .7 3.4.8l.3-2.1c0-.1.2-.1.2 0l.3 2.1c1.4-.1 3.4-.8 3.4-.8l.5-4.2c-1.3.2-2.8.4-4.3.4z"/><g><path class="st10" d="M621.7 319.4c-1-.1-2 0-2.8-.2-1-.2-8.9-2.5-16.9.4-1 .3-1.7.6-2.6.6-.8 0-1.6-.2-2.6-.6-8-2.9-15.9-.6-16.9-.4-.8.2-1.8.1-2.8.2-.6.1-.7 2.2-.3 2.4.6.3.9.3 1 .7.4 1.3 2 6.1 3.9 8.5 1.6 1.9 10.8 1.6 12.3-.3 1.7-2.1 2.9-6 3.9-8 .1-.3.8-.4 1.5-.4s1.4.1 1.5.4c.9 2 2.2 6 3.9 8 1.5 1.8 10.8 2.2 12.3.3 1.9-2.4 3.4-7.2 3.9-8.5.1-.4.4-.4 1-.7.4-.2.4-2.3-.3-2.4z"/><path class="st15" d="M603.6 321.9c-.4.4 1.3 6.8 3.2 7.8 1.3.7 7.5 1.1 8.9 0 1.8-1.4 3.5-7.3 2.9-7.8-1.9-1.7-11.3-3.4-15 0z"/><ellipse class="st10" cx="611" cy="325.1" rx="1" ry="2.1"/><ellipse class="st15" cx="620.2" cy="320.5" rx=".8" ry=".3"/><path class="st15" d="M595.3 321.9c.4.4-1.3 6.8-3.2 7.8-1.3.7-7.5 1.1-8.9 0-1.8-1.4-3.5-7.3-2.9-7.8 1.9-1.7 11.3-3.4 15 0z"/><ellipse class="st10" cx="587.9" cy="325.1" rx="1" ry="2.1"/><ellipse class="st15" cx="578.7" cy="320.5" rx=".8" ry=".3"/></g></g></g><g><path class="st10" d="M613.7 414.7h-27.5c-3.1 0-5.7-2.5-5.7-5.7v-1.4c0-3.1 2.5-5.7 5.7-5.7h27.5c3.1 0 5.7 2.5 5.7 5.7v1.4c0 3.2-2.5 5.7-5.7 5.7z"/><text transform="translate(587.95 411.638)" class="st12 st25 st26">Login</text></g><g><path class="st27" d="M542.8 286.8c0-3 2.4-5.4 5.4-5.4 3 0 5.4 2.4 5.4 5.4v1.1"/><path class="st10" d="M549.7 290.5c0-.8-.7-1.5-1.5-1.5s-1.5.7-1.5 1.5c0 .6.3 1.1.8 1.3l-.2 3.1h1.9l-.2-3.1c.4-.2.7-.7.7-1.3z"/><path class="st27" d="M550.7 296.4h-5.1c-1.6 0-2.8-1.3-2.8-2.8v-5.7h10.7v5.7c0 1.5-1.2 2.8-2.8 2.8z"/></g><path class="st10" d="M567.7 443.8h-1c-6.8.4-13.4 4.5-20.6 9.4-1 .7-2 1.5-3 2.4.1.1.2.1.3.2 1-.9 1.9-1.7 2.9-2.3 7.2-4.9 13.7-9 20.5-9.3 7.3-.4 14.2 3.7 21.4 12.8h.4c-7-9-13.7-13.2-20.9-13.2z"/><g><path class="st23" d="M567.9 396.2h64.2"/><path class="st28" d="M568.3 389.2c0-1.6 1.3-2.9 2.9-2.9 1.6 0 2.9 1.3 2.9 2.9v.6M572.1 391.2c0-.5-.4-.8-.8-.8-.5 0-.8.4-.8.8 0 .3.2.6.4.7l-.1 1.7h1l-.1-1.7c.2-.1.4-.3.4-.7z"/><path class="st28" d="M572.6 394.5h-2.8c-.9 0-1.6-.7-1.6-1.6v-3.1h5.9v3.1c.1.9-.6 1.6-1.5 1.6z"/><text transform="translate(578.394 393.848)" class="st10 st25 st26">*******</text></g><g><path class="st23" d="M567.9 380.5h64.2"/><path class="st29" d="M568 373.9h6.6v4.8H568z"/><path class="st29" d="M568 373.9l3.2 2.4 3.3-2.4"/><text transform="translate(578.394 378.05)" class="st10 st25" font-size="4.487">tomster@gmail.com</text></g><path class="st31" d="M629.7 407.8h61.2l14 14.1M572.8 340h-61.2l-13.9-14"/><text transform="translate(697.208 429.407)" class="st10 st25 st32">SECURE LOGIN CALL</text><text transform="translate(434.5 323.992)" class="st10 st25 st32">WELCOME ILLUSTRATION</text><g><path class="st31" d="M512.7 278.7c4.8-6.7 14.1-8.6 21.1-4.1 2.7 1.7 4.7 4.2 5.9 6.9"/><path class="st10" d="M516.7 278.7l-.2-.8-3.6.6-.3-3.7-.8.1.4 4.5z"/></g><g><path class="st31" d="M673.9 368.6c-7.7-9.9-22-12.1-32.3-4.6-3.9 2.8-6.7 6.7-8.3 10.9"/><path class="st10" d="M674.6 364.7h-.7l-.3 3.7-3.6-.5-.1.7 4.4.6z"/></g><text transform="translate(490.033 286.716)" class="st10 st25 st32">SECURITY</text><text transform="translate(673.926 375.873)" class="st10 st25 st32">EMAIL</text></g></g><g id="Final_product"><path d="M984.6 423.7H884.4c-5.7 0-10.4-4.6-10.4-10.4V272c0-5.7 4.6-10.4 10.4-10.4h100.1c5.7 0 10.4 4.6 10.4 10.4v141.3c.1 5.7-4.6 10.4-10.3 10.4z" fill="#f7a08b" stroke="#242b2d" stroke-miterlimit="10"/><path class="st34" d="M874.1 365.5v-93.6c0-5.7 4.6-10.2 10.2-10.2h100.4c5.7 0 10.2 4.6 10.2 10.2v93.6H874.1z"/><path class="st0" d="M928.3 271.4c12.4 27.5 23.1 41.8 33.7 44.7 8.4 2.4 16-2.2 25-8.3 2.7-1.8 5.4-4.6 7.9-8v-27.9c0-3.9-2.2-7.3-5.4-9-.9.8-1.8 1.6-2.7 2.2-6.5 4.4-12.3 8-18.4 8.4h-.9c-6.4 0-12.3-3.8-18.6-11.8h-14.1c10.4 21.8 19.5 33.1 28.7 35.5 7.7 2.1 14.8-2.1 23.2-7.8 2.7-1.8 5.5-4.7 8-8.3l.3.2c-2.5 3.6-5.3 6.5-8.1 8.3-6.9 4.7-13 8.4-19.2 8.4-1.4 0-2.8-.2-4.2-.6-9.2-2.5-18.4-13.9-28.9-35.8H920c3.9 2.9 6.6 6 8.3 9.8z"/><path class="st0" d="M968.4 273.1c6-.3 11.8-4 18.2-8.3.9-.6 1.7-1.3 2.6-2.1-1.4-.7-2.9-1.1-4.6-1.1h-35.4c6.6 8.2 12.7 11.9 19.2 11.5zM987.2 308.1c-7.4 5-13.9 9-20.6 9-1.5 0-3.1-.2-4.7-.7-6.7-1.9-17.5-8.6-33.9-44.9-1.7-3.8-4.5-7-8.6-9.8h-35.2c-5.7 0-10.2 4.6-10.2 10.2v93.6h121v-65.1c-2.6 3.3-5.2 5.9-7.8 7.7z"/><path class="st35" d="M928 271.5c16.3 36.3 27.2 43 33.9 44.9 1.6.4 3.1.7 4.7.7 6.7 0 13.2-4 20.6-9 2.6-1.8 5.3-4.4 7.8-7.7v-.5c-2.5 3.4-5.3 6.2-7.9 8-9.1 6.2-16.7 10.7-25 8.3-10.6-3-21.3-17.2-33.7-44.7-1.7-3.7-4.4-6.9-8.3-9.7h-.5c4 2.7 6.7 5.9 8.4 9.7z"/><path class="st35" d="M963.4 297.5c1.4.4 2.8.6 4.2.6 6.3 0 12.3-3.7 19.2-8.4 2.7-1.9 5.5-4.7 8.1-8.3l-.3-.2c-2.5 3.6-5.3 6.4-8 8.3-8.4 5.7-15.4 9.9-23.2 7.8-9.1-2.5-18.3-13.8-28.7-35.5h-.3c10.6 21.8 19.8 33.2 29 35.7z"/><path class="st35" d="M967.6 273.4h.9c6.1-.3 11.9-4 18.4-8.4.9-.6 1.8-1.3 2.7-2.2-.1-.1-.2-.1-.3-.2-.9.8-1.7 1.5-2.6 2.1-6.4 4.4-12.2 8-18.2 8.3-6.5.4-12.6-3.3-19.1-11.5h-.4c6.2 8.2 12.2 11.9 18.6 11.9z"/><path class="st15" d="M883.4 315c5.4 0 8.5-4.5 11.5-8.8 1.6-2.3 3.3-4.7 5.3-6.5 2.1-1.8 3-3.7 2.6-5.7-.5-2.6-3.8-6.4-11.5-9.1-5.9-2.1-12.4-1.9-17.4.3v.3c2.6-1.2 5.6-1.8 8.7-1.8 2.8 0 5.8.5 8.6 1.5 4.7 1.7 10.5 5 11.3 8.9.3 1.9-.5 3.7-2.5 5.4-2.1 1.8-3.8 4.2-5.4 6.5-3.5 5-6.7 9.7-13.3 8.5-2.6-.5-5.2-1.9-7.4-4.1v.4c2.2 2.1 4.7 3.5 7.4 4 .8.2 1.5.2 2.1.2z"/><path class="st15" d="M881.7 309.7c7.1 1.3 9-7 13.6-10.9 5-4.2-.7-8.5-6.4-10.5-5.5-1.9-11.4-1.1-14.8 1.6V304c1.8 2.8 4.4 5.1 7.6 5.7z"/><g><circle class="st15" cx="959" cy="297" r=".3"/><circle class="st15" cx="959" cy="302.2" r=".3"/><circle class="st15" cx="959" cy="307.5" r=".3"/><circle class="st15" cx="959" cy="312.7" r=".3"/><circle class="st15" cx="959" cy="318" r=".3"/><circle class="st15" cx="959" cy="323.2" r=".3"/><circle class="st15" cx="959" cy="328.5" r=".3"/><g><circle class="st15" cx="964.3" cy="297" r=".3"/><circle class="st15" cx="964.3" cy="302.2" r=".3"/><circle class="st15" cx="964.3" cy="307.5" r=".3"/><circle class="st15" cx="964.3" cy="312.7" r=".3"/><circle class="st15" cx="964.3" cy="318" r=".3"/><circle class="st15" cx="964.3" cy="323.2" r=".3"/><circle class="st15" cx="964.3" cy="328.5" r=".3"/></g><g><circle class="st15" cx="969.5" cy="297" r=".3"/><circle class="st15" cx="969.5" cy="302.2" r=".3"/><circle class="st15" cx="969.5" cy="307.5" r=".3"/><circle class="st15" cx="969.5" cy="312.7" r=".3"/><circle class="st15" cx="969.5" cy="318" r=".3"/><circle class="st15" cx="969.5" cy="323.2" r=".3"/><circle class="st15" cx="969.5" cy="328.5" r=".3"/><g><circle class="st15" cx="974.8" cy="297" r=".3"/><circle class="st15" cx="974.8" cy="302.2" r=".3"/><circle class="st15" cx="974.8" cy="307.5" r=".3"/><circle class="st15" cx="974.8" cy="312.7" r=".3"/><circle class="st15" cx="974.8" cy="318" r=".3"/><circle class="st15" cx="974.8" cy="323.2" r=".3"/><circle class="st15" cx="974.8" cy="328.5" r=".3"/></g></g><g><circle class="st15" cx="980" cy="297" r=".3"/><circle class="st15" cx="980" cy="302.2" r=".3"/><circle class="st15" cx="980" cy="307.5" r=".3"/><circle class="st15" cx="980" cy="312.7" r=".3"/><circle class="st15" cx="980" cy="318" r=".3"/><circle class="st15" cx="980" cy="323.2" r=".3"/><circle class="st15" cx="980" cy="328.5" r=".3"/><g><circle class="st15" cx="985.3" cy="297" r=".3"/><circle class="st15" cx="985.3" cy="302.2" r=".3"/><circle class="st15" cx="985.3" cy="307.5" r=".3"/><circle class="st15" cx="985.3" cy="312.7" r=".3"/><circle class="st15" cx="985.3" cy="318" r=".3"/><circle class="st15" cx="985.3" cy="323.2" r=".3"/><circle class="st15" cx="985.3" cy="328.5" r=".3"/></g></g><g><circle class="st15" cx="990.5" cy="297" r=".3"/><circle class="st15" cx="990.5" cy="302.2" r=".3"/><circle class="st15" cx="990.5" cy="307.5" r=".3"/><circle class="st15" cx="990.5" cy="312.7" r=".3"/><circle class="st15" cx="990.5" cy="318" r=".3"/><circle class="st15" cx="990.5" cy="323.2" r=".3"/><circle class="st15" cx="990.5" cy="328.5" r=".3"/></g></g><path class="st3" d="M984.6 423.7H884.4c-5.7 0-10.4-4.6-10.4-10.4V272c0-5.7 4.6-10.4 10.4-10.4h100.1c5.7 0 10.4 4.6 10.4 10.4v141.3c.1 5.7-4.6 10.4-10.3 10.4z"/><path class="st12" d="M961.6 395.5h-54.2c-5.7 0-10.4-4.6-10.4-10.4v-92.8c0-5.7 4.6-10.4 10.4-10.4h54.2c5.7 0 10.4 4.6 10.4 10.4v92.8c0 5.7-4.7 10.4-10.4 10.4z"/><g><circle cx="934.5" cy="316.9" r="28.6" fill="#eceef1"/><path class="st37" d="M917.3 339.2c.7-.3 1.1-.6 1.3-.8 4-4.9 3.3-10.3 2.1-9.4-1.7 2.4-4.8 4.8-7.8 6.5l-.1.1c1.2 1.4 2.5 2.6 3.9 3.7.3 0 .5 0 .6-.1z"/><path class="st19" d="M920.8 329c-1.2.6-3.6 3.8-6 5.4 2.6 1.1 3.2 4.8 3.9 4 4-4.9 3.3-10.3 2.1-9.4z"/><path class="st37" d="M946.4 329c4 4.3 9.5 2.2 10.3 1.3.7-.7 3.8 2.7 3.3 3.2-.8 1-5.5 5.2-8.5 5.7-6.3-.6-6.3-10-5.1-10.2z"/><path class="st34" d="M955.1 328.4c-.3 2 2.8 5.3 5.4 5.8 1.5.3 3.3.2 4.2-.4.7-.5.9-1.5 0-1.7-.8-.2-2 .1-2-.6s1.7-1.5 2.3-2.4c.4-.7 0-1.5-.9-1.3s-2 1.4-2.8.9c-.9-.5.1-2.2-.1-3.1-.1-.4-.8-.7-1.2-.3-1 .7-1.4 3.3-2.5 3.2-.7-.1-1.5-.6-2-.7-.1 0-.3.2-.4.6z"/><path class="st19" d="M946.4 329c1.7 1.8 3.7 2.5 5.5 2.6-.8.9-1.6 3.9-.4 7.7-6.3-.7-6.3-10.1-5.1-10.3z"/><path class="st0" d="M916 338.7c2-4.3 4.1-8.3 4.8-9.6.7-1.3 6.9-2.7 12.8-2.7s12.1 1.5 12.8 2.7c.8 1.4 3.1 6 5.3 10.7 6.9-5.2 11.4-13.5 11.4-22.8 0-15.8-12.8-28.6-28.6-28.6s-28.6 12.8-28.6 28.6c0 8.6 3.9 16.4 10.1 21.7z"/><path class="st37" d="M933.6 326.3c-5.9 0-12.1 1.5-12.8 2.7-.7 1.3-2.8 5.3-4.8 9.6 5 4.2 11.4 6.8 18.5 6.8 6.5 0 12.4-2.1 17.2-5.8-2.2-4.7-4.5-9.2-5.3-10.7-.7-1.1-6.9-2.6-12.8-2.6z"/><circle cx="933.9" cy="332.6" r="9.5" fill="#fff8ee"/><path class="st0" d="M915.1 337.8c2.4-3.8 4.8-7 5.4-8.8.7-.7 2.1-1.2 3.5-1.6 0 1.2 2 8.3 9.7 8.3s9.7-7.1 9.7-8.3c1.4.4 2.8.9 3.5 1.6.6 2 3.4 5.5 6 9.9 6.3-5.2 10.4-13.2 10.4-22 0-15.8-12.8-28.6-28.6-28.6s-28.6 12.8-28.6 28.6c-.2 8.2 3.3 15.7 9 20.9z"/><path class="st19" d="M943.2 327.4c0 1.2-2 8.3-9.7 8.3s-9.7-7.1-9.7-8.3c-1.4.4-2.8.9-3.5 1.6-.6 1.8-3 5-5.4 8.8 5.1 4.7 11.9 7.6 19.4 7.6 6.9 0 13.3-2.5 18.2-6.6-2.6-4.3-5.4-7.9-6-9.9-.5-.6-1.9-1.1-3.3-1.5z"/><path d="M943.4 326.9c0 1.2-2.1 8.9-9.8 8.9s-9.8-7.7-9.8-8.9" fill="none" stroke="#151819" stroke-width="1.806" stroke-miterlimit="10"/><path d="M958.9 329.9c.7-.1 1.4.2 1.8.7.5.5.7 1.3.4 1.9h-.1v-.1c0-.6-.2-1.2-.6-1.6-.3-.3-.8-.6-1.5-.9 0 .1 0 .1 0 0 0 .1 0 .1 0 0z" fill="#ed7d66"/><g><path d="M925 295.3c-4 1.5-7.6-.9-12.2-1.1-4.4-.2-6.9 4-5 8.1 1.8 4 6.2 8.1 10.1 8 .9-.1 8-15.3 7.1-15z" fill="#ba8449" stroke="#ba8449" stroke-width=".722" stroke-miterlimit="10"/><path class="st34" d="M919.7 298.5c-4.2 1-8.9-4.9-11.4-1.7-2.9 3.8 2.7 11 7 12.5.8.3 5.3-10.7 4.4-10.8z"/><path class="st42" d="M941.5 296.5c6.2.8 7.1-4.5 11.6-5.2 3.8-.6 6.5 2.5 5.9 6.8-.6 4.2-6.3 10.6-7 13.7-.4 1.2-11.8-15.5-10.5-15.3z"/><path class="st34" d="M947.9 298.6c2.1 0 3.4-2.5 5.7-4.3 1.6-1.2 3.8-1.7 4.6.1 2.3 5.2-3.9 11.7-5.8 15.3-2.5.7-4.2-11-4.5-11.1z"/><path class="st42" d="M954 314.3c-3.6-7.5-4.9-15.5-9-19.4-3.8-3.7-10.7-3.6-11.1-3.6-.4 0-7.3-.1-11.1 3.6-4.1 4-5.5 11.9-9 19.4-3.3 6.9 2.7 18.3 20.1 18.3 17.4 0 23.4-11.4 20.1-18.3z"/><path d="M954 314.3c-3.6-7.5-4.9-15.5-9-19.4-3.8-3.7-10.7-3.6-11.1-3.6-.4 0-7.3-.1-11.1 3.6-2.5 2.4-3.9 6.2-5.5 10.5-1 2.9 2.2 14.2 19.1 11 11.7-2.2 19 9 10.5 13.4 7.2-3.8 9.4-10.7 7.1-15.5z" fill="#ba8449" stroke="#ba8449" stroke-width=".722" stroke-linecap="round" stroke-linejoin="round" stroke-miterlimit="10"/><path d="M933.9 333c-8.9 0-16-3.1-19.4-8.5-2.1-3.3-2.5-7.2-1-10.3 1.3-2.7 2.3-5.4 3.2-8.1.1-.2.2-.3.4-.2.2 0 .3.2.3.3.4 3.9 2.1 6.9 4.9 8.7 3.7 2.4 9.1 2.6 15.3.6 5.7-1.8 10.9 1.1 12.7 5 1.3 2.9 1 7-3.9 10-2.9 1.7-6.8 2.5-12.5 2.5zm-17-25.3c-.8 2.2-1.7 4.5-2.8 6.8-1.4 2.9-1 6.5 1 9.6 3.3 5.2 10.1 8.1 18.8 8.1 5.5 0 9.4-.8 12.1-2.4 3.8-2.3 5.1-5.7 3.6-9.1-1.7-3.6-6.5-6.3-11.8-4.6l-.1-.3.1.3c-6.4 2.1-12.1 1.8-15.9-.7-2.7-1.6-4.4-4.3-5-7.7z" fill="#e5d0ae"/><path class="st34" d="M935.2 309.8c-.1-.2-.3-.2-.4-.2H933c-.2 0-.3.1-.4.2l-.3.4c-.2.3.1.6.4.6h.1c.3 0 .6.1.8.4l.1.1c.1.2.4.2.5 0l.1-.1c.2-.3.5-.4.8-.4h.1c.3 0 .5-.3.4-.6l-.4-.4z"/><path class="st48" d="M933.8 314.6c-4.3 0-8.4-1.5-10.1-2.2.7 1.3 2.9 7.6 3 9.7 0 .8 1.9 3.1 7 3.1s7-2.3 7-3.1c.1-2.2 2.4-8.5 3-9.7-1.5.7-5.6 2.2-9.9 2.2z"/><path class="st34" d="M926.7 321.8s.1 0 .1.3c0 .8 1.9 3.1 7 3.1s7-2.3 7-3.1c0-.4.1-.5.1-.5-1.8-2.8-11-3.7-14.2.2z"/><path class="st12" d="M933.8 314.6c-1.3 0-2.6-.1-3.9-.4l.4 3.8s1.8.6 3 .7l.3-1.9c0-.1.1-.1.2 0l.3 1.9c1.2-.1 3.1-.7 3.1-.7l.4-3.8c-1.2.2-2.5.4-3.8.4z"/><g><path class="st48" d="M953.9 301.7c-.9-.1-1.8 0-2.5-.1-.9-.2-8-2.2-15.1.3-.9.3-1.5.5-2.3.5s-1.4-.2-2.3-.5c-7.1-2.6-14.2-.6-15.1-.3-.7.2-1.6.1-2.5.1-.6.1-.6 2-.3 2.1.5.2.8.2.9.6.4 1.1 1.7 5.4 3.4 7.6 1.4 1.7 9.7 1.4 11-.2 1.5-1.9 2.6-5.4 3.5-7.2.1-.3.7-.4 1.3-.4s1.2.1 1.3.4c.8 1.8 1.9 5.3 3.5 7.2 1.3 1.6 9.6 2 11 .2 1.7-2.1 3.1-6.4 3.4-7.6.1-.4.4-.4.9-.6.5-.1.4-2-.1-2.1z"/><path class="st12" d="M937.7 303.9c-.4.3 1.1 6 2.8 7 1.2.7 6.7.9 7.9 0 1.6-1.3 3.1-6.5 2.6-7-1.6-1.5-10-3-13.3 0z"/><ellipse class="st48" cx="944.3" cy="306.8" rx=".9" ry="1.9"/><circle class="st12" cx="944.8" cy="305.4" r=".4"/><ellipse class="st12" cx="952.5" cy="302.7" rx=".7" ry=".2"/><path class="st12" d="M930.3 303.9c.4.3-1.1 6-2.8 7-1.2.7-6.7.9-7.9 0-1.6-1.3-3.1-6.5-2.6-7 1.6-1.5 10-3 13.3 0z"/><ellipse class="st48" cx="923.7" cy="306.8" rx=".9" ry="1.9"/><circle class="st12" cx="924.2" cy="305.4" r=".4"/><ellipse class="st12" cx="915.5" cy="302.7" rx=".7" ry=".2"/></g></g></g><g><path class="st10" d="M946.1 386.7h-23.3c-3.1 0-5.7-2.5-5.7-5.7 0-3.1 2.5-5.7 5.7-5.7h23.3c3.1 0 5.7 2.5 5.7 5.7s-2.5 5.7-5.7 5.7z"/><path class="st12" d="M924.3 378.9h.8v4.4h2.3v.7h-3.1v-5.1zM930.2 384c-1.3 0-2.3-1-2.3-2.6s1-2.6 2.3-2.6 2.3 1 2.3 2.6-1 2.6-2.3 2.6zm0-4.5c-.9 0-1.5.7-1.5 1.9s.7 1.9 1.5 1.9c.9 0 1.5-.7 1.5-1.9s-.6-1.9-1.5-1.9zM935.6 379.5c-.9 0-1.5.7-1.5 1.9s.7 1.9 1.6 1.9c.8 0 1.4-.5 1.4-1.3h-1.3v-.6h2v.6c0 1.3-.9 2.1-2.1 2.1-1.4 0-2.3-1-2.3-2.6s1-2.6 2.3-2.6c1.1 0 1.9.7 2.1 1.7h-.8c-.3-.7-.8-1.1-1.4-1.1zM939.5 384h-.8v-5.1h.8v5.1zM944.7 384h-.7l-2.6-3.7v3.7h-.8v-5.1h.7l2.6 3.7v-3.7h.8v5.1z"/></g><g><path class="st18" d="M893.3 273.6h-.4v-1c0-2.5-2.1-4.6-4.6-4.6s-4.6 2.1-4.6 4.6h-.4c0-2.7 2.2-5 5-5 2.7 0 5 2.2 5 5v1zM889.7 275.9c0-.7-.6-1.3-1.3-1.3s-1.3.6-1.3 1.3c0 .5.3 1 .7 1.2l-.2 2.7h1.7l-.2-2.7c.3-.2.6-.6.6-1.2z"/><path class="st18" d="M890.6 281.4H886c-1.5 0-2.7-1.2-2.7-2.7v-5.2h10v5.2c0 1.5-1.2 2.7-2.7 2.7zm-6.9-7.6v4.8c0 1.3 1 2.3 2.3 2.3h4.5c1.3 0 2.3-1 2.3-2.3v-4.8h-9.1z"/></g><g><path class="st35" d="M905.7 412.6h-.9c-6.1.3-11.9 4-18.4 8.4-.9.6-1.8 1.3-2.7 2.2.1.1.2.1.3.2.9-.8 1.7-1.5 2.6-2.1 6.4-4.4 12.2-8 18.2-8.3 6.5-.4 12.6 3.3 19.1 11.5h.4c-6.2-8.1-12.2-11.9-18.6-11.9z"/></g><g><path class="st10" d="M905.9 369.9h57.2v.5h-57.2zM911.7 364.5h-.4v-.5c0-1.3-1.1-2.4-2.4-2.4s-2.4 1.1-2.4 2.4h-.5c0-1.6 1.3-2.8 2.8-2.8s2.8 1.3 2.8 2.8v.5h.1zM909.6 368.1h-1.4l.1-1.6c-.2-.2-.4-.5-.4-.8 0-.5.4-.9.9-.9s.9.4.9.9c0 .3-.1.6-.4.8l.3 1.6zm-1-.4h.5l-.1-1.4.1-.1c.2-.1.3-.3.3-.5 0-.3-.2-.5-.5-.5s-.5.2-.5.5c0 .2.1.4.3.5l.1.1-.2 1.4z"/><path class="st10" d="M910.1 368.9h-2.5c-.9 0-1.6-.7-1.6-1.6v-3h5.7v3c0 .8-.7 1.6-1.6 1.6zm-3.7-4.2v2.6c0 .7.5 1.2 1.2 1.2h2.5c.7 0 1.2-.5 1.2-1.2v-2.6h-4.9z"/><g><path class="st10" d="M916.8 365.9l-.9.6-.3-.5.9-.5-.9-.5.3-.5.9.6v-1h.5v1l.9-.6.3.5-.9.5.9.5-.3.5-.9-.6v1h-.5v-1zM920.5 365.9l-.9.6-.3-.5.9-.5-.9-.5.3-.5.9.6v-1h.5v1l.9-.6.3.5-.9.5.9.5-.3.5-.9-.6v1h-.5v-1zM924.2 365.9l-.9.6-.3-.5.9-.5-.9-.5.3-.5.9.6v-1h.5v1l.9-.6.3.5-.9.5.9.5-.3.5-.9-.6v1h-.5v-1zM927.8 365.9l-.9.6-.3-.5.9-.5-.9-.5.3-.5.9.6v-1h.5v1l.9-.6.3.5-.9.5.9.5-.3.5-.9-.6v1h-.5v-1zM931.5 365.9l-.9.6-.3-.5.9-.5-.9-.5.3-.5.9.6v-1h.5v1l.9-.6.3.5-.9.5.9.5-.3.5-.9-.6v1h-.5v-1zM935.1 365.9l-.9.6-.2-.5.9-.5-.9-.5.3-.5.9.6v-1h.5v1l.9-.6.3.5-.9.5.9.5-.3.5-.9-.6v1h-.5l-.1-1zM938.8 365.9l-.9.6-.3-.5.9-.5-.9-.5.3-.5.9.6v-1h.5v1l.9-.6.3.5-.9.5.9.5-.3.5-.9-.6v1h-.5v-1z"/></g></g><g><path class="st10" d="M905.9 355.9h57.2v.5h-57.2zM912 354.8h-6.3v-4.7h6.3v4.7zm-5.9-.4h5.5v-3.9h-5.5v3.9z"/><path class="st10" d="M908.9 352.7l-3.1-2.2.3-.4 2.8 2.1 2.8-2.1.2.4z"/><g><path class="st10" d="M916.5 352.2h-.4v1.2c0 .2.1.3.3.3h.1l.1.4h-.3c-.3 0-.6-.2-.6-.6v-1.3h-.3v-.3h.3v-.5h.4v.5h.4v.3zM916.9 352.9c0-.7.4-1.1 1-1.1s1 .4 1 1.1-.4 1.1-1 1.1c-.6.1-1-.4-1-1.1zm1.6 0c0-.4-.2-.8-.6-.8-.4 0-.6.4-.6.8s.2.8.6.8c.4 0 .6-.3.6-.8zM919.4 351.8h.4v.4c.1-.2.3-.4.6-.4s.5.1.6.4c.1-.2.3-.4.7-.4s.7.2.7.7v1.5h-.4v-1.4c0-.3-.2-.4-.4-.4-.3 0-.4.2-.4.5v1.4h-.4v-1.4c0-.2-.2-.4-.4-.4s-.4.2-.4.5v1.3h-.4v-2.3h-.2zM924.2 352.4c0-.1-.2-.3-.4-.3s-.4.1-.4.3c0 .1.1.2.3.3l.3.1c.4.1.6.3.6.6 0 .4-.4.7-.9.7s-.8-.2-.9-.6l.4-.1c.1.2.2.3.5.3s.5-.1.5-.3c0-.1-.1-.2-.3-.3l-.4-.1c-.4-.1-.6-.3-.6-.6 0-.4.3-.6.8-.6s.7.2.8.6h-.3zM926.1 352.2h-.4v1.2c0 .2.1.3.3.3h.1l.1.4h-.3c-.3 0-.6-.2-.6-.6v-1.3h-.3v-.3h.3v-.5h.4v.5h.4v.3zM926.4 352.9c0-.7.4-1.1 1-1.1.5 0 1 .3 1 1.1v.2h-1.5c0 .4.3.7.6.7.2 0 .4-.1.5-.3l.4.1c-.1.4-.4.6-.9.6-.7-.1-1.1-.6-1.1-1.3zm1.6-.2c0-.3-.2-.6-.5-.6s-.6.3-.6.6h1.1zM928.9 351.8h.4v.3c.1-.2.3-.4.6-.4h.2v.4h-.2c-.3 0-.5.2-.5.5v1.3h-.4l-.1-2.1zM930.4 353c0-1.1.7-1.8 1.8-1.8s1.7.7 1.7 1.6c0 .6-.1 1.2-.7 1.2-.2 0-.5-.1-.5-.3-.1.2-.3.3-.6.3-.5 0-.8-.4-.8-1s.4-.9.8-.9c.3 0 .5.1.6.2v-.2h.3v1.3c0 .1.1.3.2.3.3 0 .3-.3.3-.9 0-.7-.5-1.3-1.3-1.3-.9 0-1.4.6-1.4 1.5s.5 1.5 1.5 1.5c.3 0 .6-.1.8-.1l.1.3c-.2.1-.6.2-.9.2-1.3-.1-1.9-.8-1.9-1.9zm2.2 0c0-.4-.2-.6-.5-.6s-.5.3-.5.6.1.7.5.7c.3-.1.5-.3.5-.7zM934.3 354.4l.4-.2c.1.1.2.3.6.3.3 0 .6-.1.6-.5v-.4c-.1.1-.2.4-.6.4-.5 0-.9-.4-.9-1.1s.4-1.1.9-1.1c.4 0 .6.2.6.4v-.4h.4v2.2c0 .6-.4.8-1 .8-.6.1-.9-.2-1-.4zm1.5-1.5c0-.4-.2-.7-.6-.7-.4 0-.6.3-.6.7 0 .4.2.7.6.7s.6-.2.6-.7zM936.8 351.8h.4v.4c.1-.2.3-.4.6-.4s.5.1.6.4c.1-.2.3-.4.7-.4s.7.2.7.7v1.5h-.4v-1.4c0-.3-.2-.4-.4-.4-.3 0-.4.2-.4.5v1.4h-.6v-1.4c0-.2-.2-.4-.4-.4s-.4.2-.4.5v1.3h-.4v-2.3zM940.2 353.4c0-.5.4-.6.8-.7.4 0 .6 0 .6-.2s-.1-.4-.4-.4c-.3 0-.4.1-.5.3l-.4-.1c.1-.4.5-.6.9-.6.3 0 .8.1.8.8v1.4h-.4v-.3c-.1.2-.3.3-.6.3-.5.2-.8-.1-.8-.5zm1.4-.2v-.3c-.1.1-.4.1-.5.1-.2 0-.4.1-.4.3 0 .2.2.3.4.3.3.1.5-.1.5-.4zM942.5 351.2c0-.1.1-.3.3-.3.1 0 .3.1.3.3s-.1.3-.3.3-.3-.1-.3-.3zm.1.6h.4v2.2h-.4v-2.2zM944 354h-.4v-2.9h.4v2.9zM944.6 353.8c0-.2.1-.3.3-.3s.3.1.3.3c0 .2-.1.3-.3.3-.2-.1-.3-.2-.3-.3zM945.6 352.9c0-.7.4-1.1 1-1.1.5 0 .9.3.9.7h-.4c0-.2-.2-.4-.5-.4-.4 0-.6.3-.6.8s.2.8.6.8c.2 0 .4-.1.5-.4h.4c0 .4-.4.7-.9.7-.6.1-1-.4-1-1.1zM947.9 352.9c0-.7.4-1.1 1-1.1s1 .4 1 1.1-.4 1.1-1 1.1c-.6.1-1-.4-1-1.1zm1.6 0c0-.4-.2-.8-.6-.8-.4 0-.6.4-.6.8s.2.8.6.8c.4 0 .6-.3.6-.8zM950.4 351.8h.4v.4c.1-.2.3-.4.6-.4s.5.1.6.4c.1-.2.3-.4.7-.4s.7.2.7.7v1.5h-.4v-1.4c0-.3-.2-.4-.4-.4-.3 0-.4.2-.4.5v1.4h-.4v-1.4c0-.2-.2-.4-.4-.4s-.4.2-.4.5v1.3h-.4v-2.3h-.2z"/></g></g><g><g class="st4"><g class="st5"><path class="st7" d="M1057.6 97.3L999.1 50c-8.6-6.9-21.2-5.6-28.1 3-6.9 8.6-5.6 21.2 3 28.1l58.5 47.3c8.6 6.9 21.2 5.6 28.1-3 6.9-8.6 5.6-21.2-3-28.1z"/><path class="st19" d="M1045 133.8c-4.8 0-9.4-1.6-13.2-4.7l-58.5-47.3c-4.4-3.5-7.1-8.5-7.7-14.1-.6-5.6 1-11 4.6-15.4 3.5-4.4 8.5-7.1 14.1-7.7 5.6-.6 11 1 15.4 4.6l58.5 47.3c4.4 3.5 7.1 8.5 7.7 14.1s-1 11-4.6 15.4c-3.5 4.4-8.5 7.1-14.1 7.7-.7.1-1.5.1-2.2.1zm-58.4-87.3c-5.5 0-11 2.4-14.8 7-3.2 3.9-4.7 8.9-4.1 13.9s3 9.6 6.9 12.8l58.5 47.3c8.1 6.6 20.1 5.3 26.7-2.8s5.3-20.1-2.8-26.7l-58.5-47.3c-3.5-2.8-7.7-4.2-11.9-4.2z"/></g><g class="st5"><path class="st14" d="M1053 103.1c-5.5-4.4-13.5-3.6-17.9 1.9-4.4 5.5-3.6 13.5 1.9 17.9 5.5 4.4 13.5 3.6 17.9-1.9 4.4-5.5 3.6-13.5-1.9-17.9z"/><path class="st19" d="M1045 126.6c-3 0-6.1-1-8.6-3-5.9-4.8-6.8-13.4-2-19.3s13.4-6.8 19.3-2c2.8 2.3 4.6 5.6 5 9.2s-.7 7.2-3 10.1c-2.7 3.3-6.7 5-10.7 5zm0-25.4c-3.4 0-6.8 1.5-9.1 4.3-4.1 5-3.3 12.4 1.7 16.5s12.4 3.3 16.5-1.7c2-2.4 2.9-5.5 2.5-8.6-.3-3.1-1.8-5.9-4.3-7.9-2.1-1.7-4.7-2.6-7.3-2.6z"/></g><g class="st5"><path class="st12" d="M994.4 55.6c5.5 4.4 6.3 12.4 1.9 17.9-4.4 5.5-12.4 6.3-17.9 1.9-5.5-4.4-6.3-12.4-1.9-17.9 4.4-5.4 12.4-6.3 17.9-1.9z"/><path class="st19" d="M986.4 79.2c-3 0-6.1-1-8.6-3-5.9-4.8-6.8-13.4-2-19.3s13.4-6.8 19.3-2 6.8 13.4 2 19.3c-2.7 3.3-6.7 5-10.7 5zm0-25.4c-3.4 0-6.8 1.5-9.1 4.3-4.1 5-3.3 12.4 1.7 16.5s12.4 3.3 16.5-1.7 3.3-12.4-1.7-16.5c-2.2-1.7-4.8-2.6-7.4-2.6z"/></g></g><path class="st7" d="M1030 129.5L923.4 43.6c-8.6-6.9-10-19.5-3-28.1 6.9-8.6 19.5-10 28.1-3l106.6 85.8c8.6 6.9 10 19.5 3 28.1-6.9 8.6-19.5 10-28.1 3.1z"/><path class="st19" d="M1042.5 135.4c-4.9 0-9.6-1.6-13.4-4.8L922.5 44.8c-9.2-7.4-10.7-21-3.3-30.2s21-10.7 30.2-3.3L1056 97.1c9.2 7.4 10.7 21 3.3 30.2-3.6 4.5-8.7 7.3-14.4 7.9-.8.1-1.6.2-2.4.2zm-11.5-7.1c3.8 3.1 8.7 4.5 13.6 4s9.3-2.9 12.4-6.8c6.4-7.9 5.1-19.6-2.8-26L947.5 13.6c-7.9-6.4-19.6-5.1-26 2.8s-5.1 19.6 2.8 26l106.7 85.9z"/><path class="st14" d="M1034.7 123.8c-5.5-4.4-6.3-12.4-1.9-17.9 4.4-5.5 12.4-6.3 17.9-1.9 5.5 4.4 6.3 12.4 1.9 17.9-4.4 5.4-12.4 6.3-17.9 1.9z"/><path class="st19" d="M1042.7 127.6c-3 0-6.1-1-8.6-3-5.9-4.7-6.8-13.4-2.1-19.3 4.7-5.9 13.4-6.8 19.3-2.1 2.9 2.3 4.6 5.6 5 9.2s-.7 7.2-3 10.1c-2.6 3.3-6.6 5.1-10.6 5.1zm-7.4-4.6c5 4 12.4 3.3 16.5-1.8 2-2.4 2.9-5.5 2.5-8.6s-1.9-5.9-4.3-7.9c-5-4-12.4-3.3-16.5 1.8-4 5.1-3.2 12.4 1.8 16.5z"/><g><path class="st12" d="M928 37.8c5.5 4.4 13.5 3.5 17.9-1.9 4.4-5.5 3.5-13.5-1.9-17.9-5.5-4.4-13.5-3.5-17.9 1.9-4.5 5.5-3.6 13.5 1.9 17.9z"/><path class="st19" d="M935.9 42.1c-3.1 0-6.3-1-8.9-3.1-3-2.4-4.8-5.8-5.2-9.5s.7-7.5 3.1-10.4c4.9-6.1 13.9-7.1 20-2.2s7.1 13.9 2.2 20c-2.9 3.4-7 5.2-11.2 5.2zm0-25.4c-3.3 0-6.5 1.4-8.7 4.2-1.9 2.3-2.7 5.3-2.4 8.2.3 3 1.8 5.6 4.1 7.5 4.8 3.9 11.9 3.1 15.8-1.7 3.9-4.8 3.1-11.9-1.7-15.8-2.1-1.6-4.6-2.4-7.1-2.4z"/></g><g><path class="st15" d="M922.3 220.6h35.6l14.8 28.7-16.2 25.8h-8.9l3.2-21.9h-21.5l3.3 21.9h-8.9l-16.2-25.8z"/><path class="st19" d="M926.2 275.7h-11.5l-17.1-27.2 15.6-30.4h37.4l15.6 30.4-17.1 27.2h-11.5l3.3-22h-18l3.3 22zm-9.8-3h6.4l-3.3-22h25l-3.3 22h6.4l15.3-24.4-14-27.2h-33.7l-14 27.2 15.2 24.4z"/><path class="st7" d="M914.4 187.5H950v32.1h-35.6z"/><path class="st19" d="M912.9 221.1V186h38.6v35.1h-38.6zm3-32.1v29.1h32.6V189h-32.6z"/><g><path class="st19" d="M957.6 216h-51.4c-3 0-5.5 2.4-5.5 5.5 0 3 2.4 5.5 5.5 5.5h51.4c3 0 5.5-2.4 5.5-5.5s-2.5-5.5-5.5-5.5z"/><path class="st19" d="M906.3 227.9c-3.6 0-6.5-2.9-6.5-6.5s2.9-6.5 6.5-6.5h51.4c3.6 0 6.5 2.9 6.5 6.5s-2.9 6.5-6.5 6.5h-51.4zm51.3-10.9h-51.4c-2.5 0-4.5 2-4.5 4.5s2 4.5 4.5 4.5h51.4c2.5 0 4.5-2 4.5-4.5s-2-4.5-4.5-4.5z"/></g></g><g><path class="st7" d="M1056 129.7l-114.1 75.6c-9.2 6.1-21.6 3.6-27.7-5.6-6.1-9.2-3.6-21.6 5.6-27.7L1034 96.4c9.2-6.1 21.6-3.6 27.7 5.6 6.1 9.2 3.5 21.6-5.7 27.7z"/><path class="st19" d="M930.9 210.2c-7 0-13.8-3.4-18-9.6-3.2-4.8-4.3-10.5-3.1-16.1 1.1-5.6 4.4-10.5 9.2-13.6l114.1-75.6c4.8-3.2 10.5-4.3 16.1-3.1 5.6 1.1 10.5 4.4 13.6 9.2 3.2 4.8 4.3 10.5 3.1 16.1-1.1 5.6-4.4 10.5-9.2 13.6l-114.1 75.6c-3.5 2.3-7.6 3.5-11.7 3.5zM1045 94.6c-3.6 0-7.1 1.1-10.2 3.1l-114.1 75.6c-4.1 2.7-6.9 6.9-7.9 11.7s0 9.8 2.7 13.9c5.6 8.5 17.1 10.8 25.6 5.2l114.1-75.6c4.1-2.7 6.9-6.9 7.9-11.7s0-9.8-2.7-13.9-6.9-6.9-11.7-7.9c-1.3-.3-2.5-.4-3.7-.4z"/><path class="st12" d="M1052 123.5c-5.9 3.9-13.7 2.3-17.6-3.6-3.9-5.9-2.3-13.7 3.6-17.6 5.9-3.9 13.7-2.3 17.6 3.6 3.9 5.9 2.3 13.8-3.6 17.6z"/><path class="st19" d="M1045.1 127.2c-.9 0-1.9-.1-2.9-.3-3.7-.8-6.9-2.9-9-6.1s-2.8-7-2.1-10.7c.8-3.7 2.9-6.9 6.1-9s7-2.8 10.7-2.1c3.7.8 6.9 2.9 9 6.1 4.3 6.5 2.5 15.4-4 19.7-2.4 1.5-5.1 2.4-7.8 2.4zm-.1-25.5c-2.2 0-4.3.6-6.2 1.9-2.5 1.7-4.2 4.2-4.8 7.1-.6 2.9 0 5.9 1.6 8.4 1.7 2.5 4.2 4.2 7.1 4.8 2.9.6 5.9 0 8.4-1.6 5.2-3.4 6.6-10.4 3.2-15.5-1.7-2.5-4.2-4.2-7.1-4.8-.7-.2-1.5-.3-2.2-.3z"/><g><path class="st12" d="M937.8 199.2c5.9-3.9 7.5-11.8 3.6-17.6-3.9-5.9-11.8-7.5-17.6-3.6-5.9 3.9-7.5 11.8-3.6 17.6 3.8 5.9 11.7 7.5 17.6 3.6z"/><path class="st19" d="M930.8 202.8c-4.6 0-9.1-2.2-11.9-6.4-4.3-6.5-2.5-15.4 4-19.7s15.4-2.5 19.7 4 2.5 15.4-4 19.7c-2.4 1.7-5.1 2.4-7.8 2.4zm-.1-25.4c-2.1 0-4.3.6-6.2 1.9-5.2 3.4-6.6 10.4-3.2 15.5 1.7 2.5 4.2 4.2 7.1 4.8 2.9.6 5.9 0 8.4-1.6 2.5-1.7 4.2-4.2 4.8-7.1.6-2.9 0-5.9-1.6-8.4-2.1-3.3-5.6-5.1-9.3-5.1z"/></g></g></g></g><g id="Shapes"><path class="st34" d="M1171.7 434.4c-4 0-7.9-1.5-10.9-4.5-6-6-6-15.8 0-21.9s15.8-6 21.9 0 6 15.8 0 21.9c-3 3-7 4.5-11 4.5zm0-29.9c-3.7 0-7.4 1.4-10.2 4.2-5.6 5.6-5.6 14.8 0 20.4s14.8 5.6 20.4 0 5.6-14.8 0-20.4c-2.8-2.8-6.5-4.2-10.2-4.2zM1135.1 471.1c-4 0-7.9-1.5-10.9-4.5-6-6-6-15.8 0-21.9 6-6 15.8-6 21.9 0 6 6 6 15.8 0 21.9-3.1 3-7.1 4.5-11 4.5zm0-29.9c-3.7 0-7.4 1.4-10.2 4.2-5.6 5.6-5.6 14.8 0 20.4s14.8 5.6 20.4 0 5.6-14.8 0-20.4c-2.8-2.8-6.5-4.2-10.2-4.2zm10.5 25.1zM1171.7 507.8c-4 0-7.9-1.5-10.9-4.5-2.9-2.9-4.5-6.8-4.5-10.9s1.6-8 4.5-10.9 6.8-4.5 10.9-4.5 8 1.6 10.9 4.5 4.5 6.8 4.5 10.9-1.6 8-4.5 10.9c-2.9 3-6.9 4.5-10.9 4.5zm0-29.9c-3.9 0-7.5 1.5-10.2 4.2s-4.2 6.4-4.2 10.2 1.5 7.5 4.2 10.2c5.6 5.6 14.8 5.6 20.4 0 2.7-2.7 4.2-6.4 4.2-10.2s-1.5-7.5-4.2-10.2-6.3-4.2-10.2-4.2z"/><g><path class="st34" d="M188.2 129.3h-34.4c-.3 0-.5-.2-.5-.5v-72c0-.3.2-.5.5-.5h34.4c.3 0 .5.2.5.5v72c0 .3-.2.5-.5.5zm-33.9-1h33.4v-71h-33.4v71z"/><circle class="st35" cx="257.2" cy="267" r="1.7"/><ellipse transform="rotate(-80.781 257.204 232.496)" class="st35" cx="257.2" cy="232.5" rx="1.7" ry="1.7"/><ellipse transform="rotate(-80.781 257.204 197.896)" class="st35" cx="257.2" cy="197.9" rx="1.7" ry="1.7"/><ellipse transform="rotate(-80.781 257.203 163.296)" class="st35" cx="257.2" cy="163.3" rx="1.7" ry="1.7"/><ellipse transform="rotate(-80.781 257.203 128.696)" class="st35" cx="257.2" cy="128.7" rx="1.7" ry="1.7"/><ellipse transform="rotate(-80.781 257.202 94.196)" class="st35" cx="257.2" cy="94.2" rx="1.7" ry="1.7"/><g><circle class="st35" cx="222.7" cy="267" r="1.7"/><circle class="st35" cx="222.7" cy="232.5" r="1.7"/><circle class="st35" cx="222.7" cy="197.9" r="1.7"/><circle class="st35" cx="222.7" cy="163.3" r="1.7"/><circle class="st35" cx="222.7" cy="128.7" r="1.7"/><circle class="st35" cx="222.7" cy="94.2" r="1.7"/></g><g><circle class="st35" cx="188.1" cy="267" r="1.7"/><circle class="st35" cx="188.1" cy="232.5" r="1.7"/><circle class="st35" cx="188.1" cy="197.9" r="1.7"/><circle class="st35" cx="188.1" cy="163.3" r="1.7"/><circle class="st35" cx="188.1" cy="128.7" r="1.7"/><circle class="st35" cx="188.1" cy="94.2" r="1.7"/><g><circle class="st35" cx="153.5" cy="267" r="1.7"/><circle class="st35" cx="153.5" cy="232.5" r="1.7"/><circle class="st35" cx="153.5" cy="197.9" r="1.7"/><circle class="st35" cx="153.5" cy="163.3" r="1.7"/><circle class="st35" cx="153.5" cy="128.7" r="1.7"/><circle class="st35" cx="153.5" cy="94.2" r="1.7"/></g></g><g><circle class="st35" cx="118.9" cy="267" r="1.7"/><circle class="st35" cx="118.9" cy="232.5" r="1.7"/><circle class="st35" cx="118.9" cy="197.9" r="1.7"/><circle class="st35" cx="118.9" cy="163.3" r="1.7"/><circle class="st35" cx="118.9" cy="128.7" r="1.7"/><circle class="st35" cx="118.9" cy="94.2" r="1.7"/><g><circle class="st35" cx="84.4" cy="267" r="1.7"/><circle class="st35" cx="84.4" cy="232.5" r="1.7"/><circle class="st35" cx="84.4" cy="197.9" r="1.7"/><circle class="st35" cx="84.4" cy="163.3" r="1.7"/><circle class="st35" cx="84.4" cy="128.7" r="1.7"/><circle class="st35" cx="84.4" cy="94.2" r="1.7"/></g></g></g><g><path class="st34" d="M83.1 761.9c-.1 0-.3 0-.4-.1-.2-.2-.2-.5 0-.7l91.2-91.2c.2-.2.5-.2.7 0s.2.5 0 .7l-91.2 91.2s-.1.1-.3.1zM6 790.8c-.1 0-.3 0-.4-.1-.2-.2-.2-.5 0-.7l91.2-91.2c.2-.2.5-.2.7 0s.2.5 0 .7L6.3 790.7c-.1.1-.2.1-.3.1z"/></g></g><path d="M912.2 325.6c-2.4 0-4.3 1.9-4.3 4.3s1.9 4.3 4.3 4.3 4.3-1.9 4.3-4.3-1.9-4.3-4.3-4.3z"/><path class="st12" d="M912.2 333.5c-2 0-3.6-1.6-3.6-3.6s1.6-3.6 3.6-3.6 3.6 1.6 3.6 3.6-1.6 3.6-3.6 3.6z"/><g><path d="M913.4 330.4c-.1-.1-.3-.3-.5-.4.4-.1.7-.2.9-.4.2-.2.3-.5.3-.8s-.1-.5-.2-.7c-.1-.2-.3-.3-.5-.4s-.6-.1-1-.1h-1.9v4.5h.9v-1.9h.7c.1 0 .2.1.3.2s.2.3.5.7l.6 1h1.1l-.5-.9c-.4-.4-.6-.7-.7-.8z"/><path class="st12" d="M912 329.4h-.7v-1.1h1.4c.1 0 .3.1.3.2.1.1.1.2.1.4 0 .1 0 .2-.1.3s-.1.2-.3.2h-.7z"/></g></svg>