<?xml version="1.0" encoding="utf-8"?>
<!-- Generator: Adobe Illustrator 24.0.2, SVG Export Plug-In . SVG Version: 6.00 Build 0)  -->
<svg version="1.1" id="upgrades" xmlns="http://www.w3.org/2000/svg" xmlns:xlink="http://www.w3.org/1999/xlink" x="0px" y="0px"
	 viewBox="0 0 1200 800" style="enable-background:new 0 0 1200 800;" xml:space="preserve">
<style type="text/css">
	.st0{fill:#E24B31;}
	.st1{fill:#242B2D;}
	.st2{fill:#F7A08B;}
	.st3{fill:#DFFDFF;}
	.st4{fill:#FFEC64;}
	.st5{fill:#FFFFFF;}
	.st6{fill:#EBEEF2;}
	.st7{fill:#55265E;}
</style>
<g>
	<g>
		<path class="st0" d="M792.3,274.1c0,0-91.5,65.4-151.6,66.2s-54-38.1-54-38.1S807.1,226.7,747,77.7c-27-38.3-58.4-50.4-102.8-49.5
			s-99.6,28-135.3,108.1c-17.1,38.3-23.3,74.5-26.8,102l0,0c0,0-38.6,7.9-59.5-9.5s-31.7,0-31.7,0s-35.9,45.8-0.2,59.7
			c35.7,13.9,91.5,20.5,91.5,20.5l0,0c5.1,24.4,20,65.8,63.5,98.9c65.4,49.7,190.8-4.6,190.8-4.6l51.4-28.9
			C857.6,331.2,827.4,251.2,792.3,274.1z M576.2,234.9c2.6-103.7,70.6-149,94.1-126.3s14.8,71.5-29.6,101.9
			C596.2,241,576.2,234.9,576.2,234.9z"/>
	</g>
	<g>
		<g>
			<path class="st1" d="M703.1,744.4H539.9V483h163.2L703.1,744.4L703.1,744.4z M541.9,742.4h159.2V485H541.9V742.4z"/>
		</g>
		<g>
			<path class="st1" d="M718.2,484.5H529.8c-15.4,0-27.9-12.5-27.9-27.9s12.5-27.9,27.9-27.9h188.4c15.4,0,27.9,12.5,27.9,27.9
				S733.6,484.5,718.2,484.5z M529.8,430.6c-14.3,0-25.9,11.6-25.9,25.9s11.6,25.9,25.9,25.9h188.4c14.3,0,25.9-11.6,25.9-25.9
				s-11.6-25.9-25.9-25.9H529.8z"/>
		</g>
		<g>
			<path class="st1" d="M718.2,798.4H529.8c-15.4,0-27.9-12.5-27.9-27.9s12.5-27.9,27.9-27.9h188.4c15.4,0,27.9,12.5,27.9,27.9
				C746.2,785.9,733.6,798.4,718.2,798.4z M529.8,744.5c-14.3,0-25.9,11.6-25.9,25.9c0,14.3,11.6,25.9,25.9,25.9h188.4
				c14.3,0,25.9-11.6,25.9-25.9c0-14.3-11.6-25.9-25.9-25.9H529.8z"/>
		</g>
		<g>
			<path class="st2" d="M597.1,737.2L597.1,737.2c-9.9,0-18-8-18-18V546.4c0-9.9,8-18,18-18l0,0c9.9,0,18,8,18,18v172.9
				C615.1,729.2,607,737.2,597.1,737.2z"/>
		</g>
		<g>
			<path class="st2" d="M667.1,737.2L667.1,737.2c-9.9,0-18-8-18-18V546.4c0-9.9,8-18,18-18l0,0c9.9,0,18,8,18,18v172.9
				C685.1,729.2,677,737.2,667.1,737.2z"/>
		</g>
		<g>
			<path class="st1" d="M589.1,730.2c-10.5,0-19-8.5-19-19V538.4c0-10.5,8.5-19,19-19s19,8.5,19,19v172.9
				C608.1,721.7,599.6,730.2,589.1,730.2z M589.1,521.4c-9.4,0-17,7.6-17,17v172.9c0,9.4,7.6,17,17,17s17-7.6,17-17V538.4
				C606.1,529,598.4,521.4,589.1,521.4z"/>
		</g>
		<g>
			<path class="st1" d="M659.1,730.2c-10.5,0-19-8.5-19-19V538.4c0-10.5,8.5-19,19-19s19,8.5,19,19v172.9
				C678.1,721.7,669.6,730.2,659.1,730.2z M659.1,521.4c-9.4,0-17,7.6-17,17v172.9c0,9.4,7.6,17,17,17s17-7.6,17-17V538.4
				C676.1,529,668.4,521.4,659.1,521.4z"/>
		</g>
	</g>
	<g>
		<path class="st1" d="M609.7,419.8c-37.5,0-60.8-10.6-74.6-21.1c-44.1-33.5-58.8-76-63.7-98.8c-6.8-0.8-57.8-7.5-91-20.4l0.7-1.9
			c35.2,13.7,90.7,20.3,91.2,20.4l-0.1,1l0.9-0.2c4.7,22.4,19.1,64.8,63.1,98.3c18.5,14,54.1,28.2,119.1,16.2
			c38.3-7.1,69.3-20.2,70.7-20.8l51.4-28.8c25.3-15.7,40.5-38.8,41.5-63.3l2,0.1c-1.1,25.2-16.5,48.9-42.5,64.9l-51.5,28.9
			c-0.3,0.1-31.9,13.7-71.1,21C638.5,418.4,623.2,419.8,609.7,419.8z M628.7,331.4c-21.4,0-36.7-5.1-45.5-15.2
			c-9.5-10.9-7.6-23.5-7.6-24.1l0.1-0.6l0.6-0.2c0.3-0.1,30.8-10.7,65.5-31.1c32-18.9,74.2-50.3,93.6-92.7
			c14.3-31.3,14.5-64.7,0.7-99.2c-25.2-35.7-54.7-49.9-101.9-49c-26.2,0.5-91.9,12-134.4,107.5c-17.1,38.3-23.2,74.5-26.7,101.7
			l-1-0.1l0.2,0.9c-0.3,0.1-27.4,5.5-48.5-2.9l0.7-1.9c18.7,7.4,42.3,3.7,46.7,2.9c3.5-27.3,9.7-63.4,26.7-101.6
			C541,29.4,607.5,17.8,634.1,17.2c48-0.9,78,13.5,103.7,49.9l0.1,0.2c14.1,35,13.9,69-0.7,100.9c-19.6,42.9-62.2,74.6-94.4,93.7
			c-32.2,19-60.8,29.5-65.3,31.1c-0.2,2.5-0.6,13,7.2,21.9c8.6,9.9,24.1,14.8,45.9,14.5c47.3-0.7,114-41.4,140.5-58.9l1.1,1.7
			c-26.7,17.6-93.8,58.5-141.6,59.2C630,331.4,629.3,331.4,628.7,331.4z M571.3,226.4c-3.4,0-5.2-0.5-5.4-0.6l-0.7-0.2v-0.8
			c1.8-71.6,35.1-117.5,65.2-129.8c12.3-5.1,23.5-4,30.6,2.8c9.5,9.2,14.1,22.7,12.8,38c-2,24.1-17.9,48.6-42.6,65.5
			C599.4,223.2,580,226.4,571.3,226.4z M567.2,224.1c4,0.7,24.1,2.2,62.9-24.4c24.2-16.6,39.8-40.5,41.7-64
			c1.2-14.7-3.1-27.7-12.2-36.4c-6.5-6.3-16.9-7.1-28.4-2.4C601.7,109,569.2,153.9,567.2,224.1z"/>
	</g>
	<g>
		<g>
			<g>
				<polygon class="st3" points="492.2,406.3 475.4,416.7 472,430.6 449.9,460.4 460.6,468.4 482.7,438.6 495.1,431.4 500.3,412.3 
									"/>
			</g>
			<g>
				<path class="st1" d="M459.5,462.9l-12.4-9.2l22.6-30.4l3.4-14.1l17.8-11l9.2,6.8l-5.5,20.2l-12.5,7.3L459.5,462.9z M449.9,453.3
					l9.2,6.8l21.6-29.1l12.2-7.1l4.9-18.1l-7-5.2l-15.9,9.9l-3.3,13.7L449.9,453.3z"/>
			</g>
			<g>
				<g>
					<polygon class="st4" points="465.1,472.9 435.1,450.6 401,468.3 458,510.6 					"/>
					<path class="st1" d="M458.7,512.4l-59.5-44.2l36-18.7l31,23L458.7,512.4z M402.9,468.5l54.4,40.4l6.7-35.5l-29-21.6
						L402.9,468.5z"/>
				</g>
				<g>
					<path class="st4" d="M465.1,472.9l-30-22.3l0,0c0.1-4.1,4.8-6.3,8-3.9l23.4,17.4C469.8,466.5,469,471.7,465.1,472.9
						L465.1,472.9z"/>
					<path class="st1" d="M464.9,474.1l-30.8-22.9v-0.5c0.1-2.3,1.4-4.3,3.4-5.3s4.4-0.8,6.2,0.6l23.4,17.4c1.8,1.4,2.7,3.6,2.4,5.8
						c-0.4,2.2-1.9,4.1-4.1,4.8L464.9,474.1z M436.1,450.2l29.1,21.6c1.2-0.6,2-1.7,2.3-3c0.2-1.5-0.3-3-1.6-3.9l-23.4-17.4
						c-1.2-0.9-2.8-1.1-4.2-0.4C437.1,447.7,436.3,448.9,436.1,450.2z"/>
				</g>
			</g>
			<g>
				
					<rect x="393.2" y="487.4" transform="matrix(0.5966 -0.8026 0.8026 0.5966 -242.6618 538.1651)" class="st4" width="41.6" height="46.1"/>
				<path class="st1" d="M420.2,542.3l-38.6-28.7l26-35l38.6,28.7L420.2,542.3z M384.4,513.2l35.4,26.3l23.6-31.8L408,481.4
					L384.4,513.2z"/>
			</g>
			<g>
				<path class="st1" d="M460.3,508.5l-57.9-43.1c-3.1-2.3-7.6-1.7-9.9,1.5l0,0c-2.3,3.1-1.7,7.6,1.5,9.9l57.9,43.1
					c3.1,2.3,7.6,1.7,9.9-1.5l0,0C464.1,515.3,463.5,510.8,460.3,508.5z"/>
				<path class="st1" d="M456.1,522.2c-1.7,0-3.4-0.5-4.8-1.6l-57.9-43.1c-3.6-2.7-4.3-7.7-1.7-11.3c1.3-1.7,3.2-2.9,5.3-3.2
					c2.1-0.3,4.3,0.2,6,1.5l57.9,43.1c1.7,1.3,2.9,3.2,3.2,5.3c0.3,2.1-0.2,4.3-1.5,6C461,521.1,458.6,522.2,456.1,522.2z
					 M398.2,465c-0.3,0-0.6,0-0.9,0.1c-1.6,0.2-3,1.1-4,2.4c-2,2.7-1.4,6.5,1.3,8.5l57.9,43.1c2.7,2,6.5,1.4,8.5-1.3
					c1-1.3,1.4-2.9,1.1-4.5c-0.2-1.6-1.1-3-2.4-4l-57.9-43.1C400.7,465.5,399.5,465,398.2,465z"/>
			</g>
		</g>
		<g>
			<g>
				<path class="st4" d="M208,655.1L246.6,543c4.7-13.5-2.5-28.3-16.1-33l0,0c-13.5-4.7-28.3,2.5-33,16.1L159,638.2
					c-4.7,13.5,2.5,28.3,16.1,33l0,0C188.6,675.9,203.3,668.7,208,655.1z"/>
				<path class="st1" d="M183.5,673.6c-2.9,0-5.9-0.5-8.8-1.5c-14-4.8-21.5-20.2-16.7-34.3l38.6-112.1c2.3-6.8,7.2-12.3,13.7-15.4
					c6.5-3.1,13.8-3.6,20.6-1.2c14,4.8,21.5,20.2,16.7,34.3L209,655.6C205.1,666.6,194.6,673.6,183.5,673.6z M222.1,509.6
					c-3.7,0-7.4,0.8-10.9,2.5c-6,2.9-10.5,8-12.7,14.3l-38.6,112.1c-4.5,13,2.4,27.2,15.4,31.7s27.2-2.4,31.7-15.4l38.6-112.1
					c4.5-13-2.4-27.2-15.4-31.7C227.6,510,224.8,509.6,222.1,509.6z"/>
			</g>
			<g>
				<g>
					<path class="st5" d="M198.9,652.1L198.9,652.1c3-8.6-1.6-18-10.2-21l0,0c-8.6-3-18,1.6-21,10.2l0,0c-3,8.6,1.6,18,10.2,21l0,0
						C186.5,665.3,195.9,660.7,198.9,652.1z"/>
					<path class="st1" d="M183.3,664.2c-1.9,0-3.8-0.3-5.7-1c-9.1-3.1-14-13.1-10.8-22.2c1.5-4.4,4.7-8,8.9-10s8.9-2.3,13.4-0.8
						c9.1,3.1,14,13.1,10.8,22.2l0,0C197.4,659.7,190.6,664.2,183.3,664.2z M183.3,631.2c-2.3,0-4.6,0.5-6.8,1.6
						c-3.7,1.8-6.5,5-7.9,8.9c-2.8,8.1,1.5,16.9,9.6,19.7s16.9-1.5,19.7-9.6s-1.5-16.9-9.6-19.7C186.7,631.5,185,631.2,183.3,631.2z
						"/>
				</g>
			</g>
			<g>
				<g>
					<path class="st6" d="M237.6,539.7L237.6,539.7c-3,8.6-12.4,13.2-21,10.2l0,0c-8.6-3-13.2-12.4-10.2-21l0,0
						c3-8.6,12.4-13.2,21-10.2l0,0C236,521.7,240.6,531.1,237.6,539.7z"/>
					<path class="st1" d="M222,551.8c-1.9,0-3.9-0.3-5.7-1c-4.4-1.5-8-4.7-10-8.9s-2.3-8.9-0.8-13.4c1.5-4.4,4.7-8,8.9-10
						s8.9-2.3,13.4-0.8c9.1,3.1,14,13.1,10.8,22.2l0,0c-1.5,4.4-4.7,8-8.9,10C227.3,551.3,224.7,551.8,222,551.8z M222,518.9
						c-2.3,0-4.6,0.5-6.8,1.6c-3.7,1.8-6.5,5-7.9,8.9s-1.1,8.1,0.7,11.8s5,6.5,8.9,7.9c8.1,2.8,16.9-1.5,19.7-9.6l0,0
						c2.8-8.1-1.5-16.9-9.6-19.7C225.4,519.1,223.7,518.9,222,518.9z"/>
				</g>
			</g>
		</g>
		<g>
			<g>
				<path class="st4" d="M220.1,558.9l177.5-5.1c14.3-0.4,25.6-12.4,25.2-26.7l0,0c-0.4-14.3-12.4-25.6-26.7-25.2L218.6,507
					c-14.3,0.4-25.6,12.4-25.2,26.7l0,0C193.9,548,205.8,559.3,220.1,558.9z"/>
				<path class="st1" d="M219.4,559.9c-6.9,0-13.4-2.6-18.5-7.3c-5.2-4.9-8.2-11.6-8.4-18.8s2.4-14,7.3-19.3s11.6-8.2,18.8-8.4
					l177.5-5.1c7.2-0.2,14,2.4,19.3,7.3c5.2,4.9,8.2,11.6,8.4,18.8s-2.4,14-7.3,19.3c-4.9,5.2-11.6,8.2-18.8,8.4l-177.5,5.1
					C219.9,559.9,219.6,559.9,219.4,559.9z M396.9,502.9c-0.2,0-0.5,0-0.7,0L218.7,508c-6.7,0.2-12.8,3-17.4,7.8
					c-4.6,4.8-7,11.2-6.8,17.8c0.2,6.7,3,12.8,7.8,17.4c4.8,4.6,11.2,7,17.8,6.8l177.5-5.1c6.7-0.2,12.8-3,17.4-7.8s7-11.2,6.8-17.8
					c-0.2-6.7-3-12.8-7.8-17.4C409.3,505.3,403.3,502.9,396.9,502.9z"/>
			</g>
			<g>
				<g>
					<path class="st5" d="M219.7,549.3L219.7,549.3c9.1-0.3,16.3-7.9,16-17l0,0c-0.3-9.1-7.9-16.3-17-16l0,0
						c-9.1,0.3-16.3,7.9-16,17l0,0C203,542.4,210.6,549.6,219.7,549.3z"/>
					<path class="st1" d="M219.2,550.3c-9.4,0-17.2-7.5-17.5-17c-0.1-4.7,1.6-9.1,4.8-12.5s7.5-5.3,12.2-5.5
						c4.7-0.1,9.1,1.6,12.5,4.8s5.3,7.5,5.5,12.2c0.3,9.6-7.3,17.7-17,18l0,0C219.6,550.3,219.4,550.3,219.2,550.3z M219.3,517.4
						c-0.2,0-0.3,0-0.5,0c-4.1,0.1-8,1.8-10.8,4.8s-4.3,6.9-4.2,11.1c0.2,8.5,7.4,15.3,15.9,15l0,0c8.5-0.2,15.3-7.4,15-15.9
						c-0.1-4.1-1.8-8-4.8-10.8C227,518.9,223.2,517.4,219.3,517.4z"/>
				</g>
			</g>
			<g>
				<g>
					<path class="st5" d="M397.5,544.2L397.5,544.2c-9.1,0.3-16.7-6.9-17-16l0,0c-0.3-9.1,6.9-16.7,16-17l0,0
						c9.1-0.3,16.7,6.9,17,16l0,0C413.7,536.3,406.6,543.9,397.5,544.2z"/>
					<path class="st1" d="M397,545.2c-4.5,0-8.7-1.7-12-4.8c-3.4-3.2-5.3-7.5-5.5-12.2c-0.1-4.7,1.6-9.1,4.8-12.5s7.5-5.3,12.2-5.5
						c4.7-0.1,9.1,1.6,12.5,4.8s5.3,7.5,5.5,12.2s-1.6,9.1-4.8,12.5c-3.2,3.4-7.5,5.3-12.2,5.5C397.3,545.2,397.2,545.2,397,545.2z
						 M397,512.2c-0.2,0-0.3,0-0.5,0c-4.1,0.1-8,1.8-10.8,4.8s-4.3,6.9-4.2,11.1c0.1,4.1,1.8,8,4.8,10.8s6.9,4.4,11.1,4.2l0,0
						c4.1-0.1,8-1.8,10.8-4.8s4.3-6.9,4.2-11.1c-0.1-4.1-1.8-8-4.8-10.8C404.7,513.7,401,512.2,397,512.2z"/>
				</g>
			</g>
		</g>
	</g>
	<g>
		<g>
			<g>
				<path class="st3" d="M406.7,209.1l-61,38.2c10.5,16.9,22,33.4,23.3,46.8l15.6-9.7c-2-7.5,0.3-8.4,8.3-5.2l30.4-19
					c-5.9-4.6-2.9-5.2,4-2.5L441,249C430,243.6,417.6,228.1,406.7,209.1z"/>
			</g>
			<g>
				<path class="st1" d="M369.1,287.7l-0.2-1.6c-1.1-11.4-9.9-25.4-19.3-40.1c-1.3-2.1-2.6-4.1-3.9-6.2l-0.5-0.8l62.8-39.2l0.5,0.9
					c11.8,20.5,23.8,34.6,33.9,39.5l1.6,0.8l-15.8,9.9l-0.5-0.2c-4.7-1.8-8.9-4.6-12.5-8.3c2.3,3.4,5.5,6,9.4,9.1l1.1,0.9l-32,20
					l-0.5-0.2c-4.9-2-8.5-5.2-12.2-9.4c2.3,4.6,4,8.9,5.2,13.4l0.2,0.7L369.1,287.7z M348,239.6c1.1,1.8,2.2,3.6,3.4,5.3
					c9.1,14.3,17.6,27.8,19.4,39.4l13.6-8.5c-2.1-7.4-5.6-14.2-10.9-23.3l1.7-1.1l1.2,1.6c6,8,10.4,13.9,17.4,16.9l28.7-18
					c-5.8-4.6-10.1-8.8-12.2-16.5l-1.7-6.3l3.5,5.5c4.1,6.4,9.6,11.1,16.1,13.7l11.9-7.4c-10-5.6-21.5-19.2-32.7-38.5L348,239.6z"/>
			</g>
			<g>
				<g>
					<path class="st4" d="M367.4,175.3l-26.3,16.4l-36.5-58.3c-4.5-7.2-2.3-16.8,4.9-21.3l0,0c7.2-4.5,16.8-2.3,21.3,4.9
						L367.4,175.3z"/>
					<path class="st1" d="M340.8,193.1l-37-59.2c-2.3-3.7-3.1-8.2-2.1-12.4c1-4.3,3.6-7.9,7.3-10.3c3.7-2.3,8.2-3.1,12.4-2.1
						c4.3,1,7.9,3.6,10.3,7.3l37,59.2L340.8,193.1z M317.7,110.7c-2.7,0-5.3,0.8-7.6,2.2c-3.3,2-5.6,5.3-6.4,9
						c-0.9,3.8-0.2,7.7,1.8,10.9l35.9,57.5L366,175l-35.9-57.5c-2-3.3-5.3-5.6-9-6.4C319.9,110.8,318.8,110.7,317.7,110.7z"/>
				</g>
				<g>
					<g>
						<path class="st6" d="M321.8,131.6L321.8,131.6c-3.6,2.2-8.3,1.2-10.5-2.4l0,0c-2.2-3.6-1.1-8.3,2.4-10.5l0,0
							c3.6-2.2,8.3-1.1,10.5,2.4l0,0C326.4,124.7,325.4,129.4,321.8,131.6z"/>
						<path class="st1" d="M317.8,133.7c-2.9,0-5.7-1.4-7.3-4c-2.5-4-1.3-9.3,2.7-11.9c2-1.2,4.3-1.6,6.5-1.1s4.1,1.9,5.4,3.8
							c2.5,4,1.3,9.3-2.7,11.9l0,0C320.9,133.3,319.3,133.7,317.8,133.7z M317.8,118.5c-1.2,0-2.4,0.3-3.5,1c-3.1,1.9-4,6-2.1,9.1
							s6,4,9.1,2.1l0.5,0.8l-0.5-0.8c3.1-1.9,4-6,2.1-9.1c-0.9-1.5-2.4-2.5-4.1-2.9C318.8,118.6,318.3,118.5,317.8,118.5z"/>
					</g>
				</g>
			</g>
			<g>
				<path class="st1" d="M363.2,165.4L334,183.7c-8.8,5.5-11.5,17.1-6,25.9l5,8l61-38.2l-5-8C383.6,162.6,372,160,363.2,165.4z"/>
				<path class="st1" d="M332.8,219l-5.6-8.9c-5.8-9.2-3-21.5,6.3-27.2l29.2-18.3c9.2-5.8,21.5-3,27.2,6.3l5.6,8.9L332.8,219z
					 M363.8,166.3l-29.2,18.3c-8.3,5.2-10.8,16.2-5.6,24.5l4.5,7.2l59.4-37.1l-4.5-7.2C383.1,163.6,372.1,161.1,363.8,166.3
					L363.8,166.3z"/>
			</g>
			<g>
				
					<rect x="334.4" y="196.6" transform="matrix(0.848 -0.5301 0.5301 0.848 -54.6421 228.1723)" class="st4" width="72" height="25.5"/>
				<path class="st1" d="M346.3,240.7l-14.6-23.4l62.7-39.2l14.6,23.4L346.3,240.7z M334.5,217.9l12.5,20l59.4-37.1l-12.5-20
					L334.5,217.9z"/>
			</g>
		</g>
		<g>
			<g>
				<path class="st4" d="M136.1,128.2l100,43c13.1,5.7,19.2,21,13.4,34.1l0,0c-5.7,13.1-21,19.2-34.1,13.4l-100-43
					c-13.1-5.7-19.2-21-13.4-34.1l0,0C107.7,128.6,123,122.5,136.1,128.2z"/>
				<path class="st1" d="M225.7,222c-3.6,0-7.2-0.7-10.7-2.2l-100-43c-6.6-2.9-11.7-8.1-14.3-14.8s-2.5-14,0.4-20.6
					c5.9-13.6,21.8-19.9,35.4-14l100,43c13.6,5.9,19.9,21.8,14,35.4C246,215.9,236.1,222,225.7,222z M125.8,127.1
					c-3.1,0-6.2,0.6-9.1,1.7c-6.2,2.4-11.1,7.1-13.7,13.3c-5.5,12.6,0.3,27.3,12.9,32.8l100,43c6.1,2.7,12.9,2.8,19.1,0.3
					s11.1-7.1,13.7-13.3c5.5-12.6-0.3-27.3-12.9-32.8l-100-43C132.5,127.8,129.1,127.1,125.8,127.1z"/>
			</g>
			<g>
				<g>
					<path class="st5" d="M132.2,137L132.2,137c8.3,3.6,12.2,13.3,8.5,21.7l0,0c-3.6,8.3-13.3,12.2-21.7,8.5l0,0
						c-8.3-3.6-12.2-13.3-8.5-21.7l0,0C114.1,137.2,123.8,133.4,132.2,137z"/>
					<path class="st1" d="M125.6,169.6c-2.4,0-4.7-0.5-7-1.5c-4.3-1.9-7.6-5.3-9.3-9.6c-1.7-4.3-1.6-9.1,0.2-13.4
						c1.9-4.3,5.3-7.6,9.6-9.3c4.3-1.7,9.1-1.6,13.4,0.2c4.3,1.9,7.6,5.3,9.3,9.6s1.6,9.1-0.2,13.4c-1.9,4.3-5.3,7.6-9.6,9.3
						C129.9,169.2,127.8,169.6,125.6,169.6z M125.6,136.6c-1.9,0-3.8,0.4-5.7,1.1c-3.8,1.5-6.9,4.4-8.5,8.2c-3.4,7.8,0.2,17,8,20.4
						c3.8,1.6,8,1.7,11.8,0.2c3.8-1.5,6.9-4.4,8.5-8.2c3.4-7.8-0.2-17-8-20.4C129.8,137,127.7,136.6,125.6,136.6z"/>
				</g>
			</g>
			<g>
				<g>
					<path class="st6" d="M232.4,180.1L232.4,180.1c-8.3-3.6-18.1,0.2-21.7,8.5l0,0c-3.6,8.3,0.2,18.1,8.5,21.7l0,0
						c8.3,3.6,18.1-0.2,21.7-8.5l0,0C244.5,193.5,240.7,183.7,232.4,180.1z"/>
					<path class="st1" d="M225.8,212.7c-2.3,0-4.7-0.5-6.9-1.5c-8.8-3.8-12.9-14.2-9.1-23c1.9-4.3,5.3-7.6,9.6-9.3s9.1-1.6,13.4,0.2
						l-0.4,0.9l0.4-0.9c4.3,1.9,7.6,5.3,9.3,9.6s1.6,9.1-0.2,13.4C239,208.8,232.5,212.7,225.8,212.7z M225.8,179.7
						c-6,0-11.7,3.5-14.2,9.3c-3.4,7.8,0.2,17,8,20.4s17-0.2,20.4-8c1.6-3.8,1.7-8,0.2-11.8s-4.4-6.9-8.2-8.5l0,0
						C230,180.2,227.9,179.7,225.8,179.7z"/>
				</g>
			</g>
		</g>
		<g>
			<g>
				<path class="st4" d="M329.3,148.9l-85.1,67.9c-11.2,8.9-27.5,7-36.4-4.2l0,0c-8.9-11.2-7-27.5,4.2-36.4l85.1-67.9
					c11.2-8.9,27.5-7,36.4,4.2l0,0C342.4,123.7,340.5,140,329.3,148.9z"/>
				<path class="st1" d="M228.2,223.5c-1,0-2.1-0.1-3.2-0.2c-7.1-0.8-13.5-4.4-18-10s-6.5-12.7-5.6-19.8c0.8-7.1,4.4-13.5,10-18
					l85.1-67.9c5.6-4.5,12.7-6.5,19.8-5.6c7.1,0.8,13.5,4.4,18,10s6.5,12.7,5.6,19.8c-0.8,7.1-4.4,13.5-10,18l-85.1,67.9
					C240.1,221.5,234.2,223.5,228.2,223.5z M313.1,103.7c-5.6,0-11,1.9-15.4,5.4L212.6,177c-5.2,4.1-8.5,10.1-9.3,16.7
					c-0.8,6.6,1.1,13.1,5.2,18.4c4.1,5.2,10.1,8.5,16.7,9.3c6.6,0.8,13.1-1.1,18.4-5.2l85.1-67.9c5.2-4.1,8.5-10.1,9.3-16.7
					c0.8-6.6-1.1-13.1-5.2-18.4c-4.1-5.2-10.1-8.5-16.7-9.3C315.1,103.7,314.1,103.7,313.1,103.7z"/>
			</g>
			<g>
				<g>
					<path class="st5" d="M323.4,141.4L323.4,141.4c-7.1,5.7-17.5,4.5-23.2-2.7l0,0c-5.7-7.1-4.5-17.5,2.7-23.2l0,0
						c7.1-5.7,17.5-4.5,23.2,2.7l0,0C331.8,125.3,330.6,135.7,323.4,141.4z"/>
					<path class="st1" d="M313.2,145.9c-0.7,0-1.4,0-2-0.1c-4.6-0.5-8.8-2.9-11.7-6.5c-6-7.6-4.7-18.6,2.8-24.6
						c7.6-6,18.6-4.7,24.6,2.8c2.9,3.7,4.2,8.2,3.7,12.9c-0.5,4.6-2.8,8.8-6.5,11.7C321,144.6,317.2,145.9,313.2,145.9z M313.2,113
						c-3.5,0-6.8,1.2-9.6,3.3c-6.7,5.3-7.8,15.1-2.5,21.8c2.6,3.2,6.2,5.3,10.4,5.8c4.1,0.5,8.2-0.7,11.4-3.2
						c3.2-2.6,5.3-6.2,5.8-10.4s-0.7-8.2-3.2-11.4s-6.2-5.3-10.4-5.8C314.4,113,313.8,113,313.2,113z"/>
				</g>
			</g>
			<g>
				<g>
					<path class="st5" d="M238.2,209.4L238.2,209.4c7.1-5.7,8.3-16,2.7-23.2l0,0c-5.7-7.1-16-8.3-23.2-2.7l0,0
						c-7.1,5.7-8.3,16-2.7,23.2l0,0C220.7,213.9,231.1,215.1,238.2,209.4z"/>
					<path class="st1" d="M228,214c-0.7,0-1.4,0-2-0.1c-4.6-0.5-8.8-2.9-11.7-6.5c-2.9-3.7-4.2-8.2-3.7-12.9s2.8-8.8,6.5-11.7
						s8.2-4.2,12.9-3.7c4.6,0.5,8.8,2.8,11.7,6.5c6,7.6,4.7,18.6-2.8,24.6C235.7,212.7,231.9,214,228,214z M227.9,181
						c-3.5,0-6.8,1.2-9.6,3.3c-3.2,2.6-5.3,6.2-5.8,10.4s0.7,8.2,3.2,11.4c2.6,3.2,6.2,5.3,10.4,5.8c4.1,0.5,8.2-0.7,11.4-3.2
						c6.7-5.3,7.8-15.1,2.5-21.8c-2.6-3.2-6.2-5.3-10.4-5.8C229.1,181.1,228.5,181,227.9,181z"/>
				</g>
			</g>
		</g>
	</g>
	<g>
		<g>
			<g>
				<path class="st4" d="M1036.9,81l96.1-16.8c14.1-2.5,23.6-15.9,21.1-30l0,0c-2.5-14.1-15.9-23.6-30-21.1L1028,29.9
					c-14.1,2.5-23.6,15.9-21.1,30l0,0C1009.4,74,1022.8,83.5,1036.9,81z"/>
				<path class="st1" d="M1032.4,82.4c-12.8,0-24.2-9.2-26.5-22.3c-2.6-14.6,7.3-28.6,21.9-31.2l96.1-16.8
					c14.6-2.6,28.6,7.3,31.2,21.9c1.2,7.1-0.4,14.2-4.5,20.1s-10.3,9.8-17.4,11.1L1037.1,82C1035.5,82.3,1034,82.4,1032.4,82.4z
					 M1036.7,80l0.2,1L1036.7,80l96.1-16.8c13.5-2.4,22.6-15.3,20.3-28.9c-2.4-13.5-15.3-22.6-28.9-20.3l-96.1,16.8
					c-6.6,1.1-12.3,4.8-16.1,10.2c-3.8,5.5-5.3,12.1-4.2,18.6c1.1,6.6,4.8,12.3,10.2,16.1C1023.6,79.7,1030.2,81.2,1036.7,80z"/>
			</g>
			<g>
				<g>
					<path class="st6" d="M1035.1,71.6L1035.1,71.6c9-1.6,15-10.1,13.4-19.1l0,0c-1.6-9-10.1-15-19.1-13.4l0,0
						c-9,1.6-15,10.1-13.4,19.1l0,0C1017.6,67.2,1026.2,73.2,1035.1,71.6z"/>
					<path class="st1" d="M1032.3,72.8c-3.6,0-7-1.1-10-3.2c-3.8-2.7-6.4-6.7-7.2-11.3s0.2-9.2,2.9-13.1s6.7-6.4,11.3-7.2
						c9.5-1.7,18.6,4.7,20.2,14.2c1.7,9.5-4.7,18.6-14.2,20.2C1034.3,72.8,1033.3,72.8,1032.3,72.8z M1032.3,39.9
						c-0.9,0-1.8,0.1-2.7,0.2c-8.4,1.5-14.1,9.5-12.6,17.9c0.7,4.1,3,7.6,6.4,10s7.5,3.3,11.6,2.6l0,0c8.4-1.5,14.1-9.5,12.6-17.9
						C1046.2,45.2,1039.7,39.9,1032.3,39.9z"/>
				</g>
			</g>
			<g>
				<g>
					<path class="st5" d="M1131.5,54.8L1131.5,54.8c-9,1.6-17.5-4.4-19.1-13.4l0,0c-1.6-9,4.4-17.5,13.4-19.1l0,0
						c9-1.6,17.5,4.4,19.1,13.4l0,0C1146.5,44.6,1140.5,53.2,1131.5,54.8z"/>
					<path class="st1" d="M1128.6,56c-3.6,0-7-1.1-10-3.2c-3.8-2.7-6.4-6.7-7.2-11.3c-1.7-9.5,4.7-18.6,14.2-20.2
						c4.6-0.8,9.2,0.2,13.1,2.9c3.8,2.7,6.4,6.7,7.2,11.3c0.8,4.6-0.2,9.2-2.9,13.1s-6.7,6.4-11.3,7.2
						C1130.7,55.9,1129.6,56,1128.6,56z M1128.7,23c-0.9,0-1.8,0.1-2.7,0.2c-8.4,1.5-14.1,9.5-12.6,17.9s9.5,14.1,17.9,12.6
						s14.1-9.5,12.6-17.9c-0.7-4.1-3-7.6-6.4-10C1134.9,24,1131.9,23,1128.7,23z"/>
				</g>
			</g>
		</g>
		<g>
			<g>
				<path class="st4" d="M1007.9,230.8L1004,53.3c-0.3-14.3,11-26.2,25.4-26.5l0,0c14.3-0.3,26.2,11,26.5,25.4l3.9,177.5
					c0.3,14.3-11,26.2-25.4,26.5l0,0C1020,256.5,1008.2,245.1,1007.9,230.8z"/>
				<path class="st1" d="M1033.8,257.2c-7,0-13.6-2.6-18.6-7.5c-5.2-5-8.1-11.7-8.3-18.9L1003,53.3c-0.3-14.9,11.5-27.2,26.3-27.5
					s27.2,11.5,27.5,26.3l3.9,177.5c0.2,7.2-2.5,14-7.5,19.2s-11.7,8.1-18.9,8.3C1034.2,257.2,1034,257.2,1033.8,257.2z
					 M1029.9,27.7c-0.2,0-0.4,0-0.6,0c-13.7,0.3-24.7,11.7-24.4,25.5l3.9,177.5c0.1,6.7,2.9,12.9,7.7,17.5c4.8,4.6,11.1,7,17.8,6.9
					s12.9-2.9,17.5-7.7s7.1-11.1,6.9-17.8l-3.9-177.5C1054.5,38.6,1043.4,27.7,1029.9,27.7z"/>
			</g>
			<g>
				<g>
					<path class="st6" d="M1017.4,230.7L1017.4,230.7c-0.2-9.1,7-16.6,16.1-16.8l0,0c9.1-0.2,16.6,7,16.8,16.1l0,0
						c0.2,9.1-7,16.6-16.1,16.8l0,0C1025.2,247,1017.6,239.8,1017.4,230.7z"/>
					<path class="st1" d="M1033.9,247.8c-4.5,0-8.8-1.7-12.1-4.9c-3.4-3.2-5.3-7.6-5.4-12.2l0,0c-0.2-9.6,7.5-17.7,17.1-17.9
						c4.6-0.1,9.1,1.6,12.5,4.8s5.3,7.6,5.4,12.2s-1.6,9.1-4.8,12.5s-7.6,5.3-12.2,5.4C1034.2,247.8,1034,247.8,1033.9,247.8z
						 M1018.4,230.7c0.1,4.1,1.8,8,4.8,10.8c3,2.9,6.9,4.4,11,4.3c4.1-0.1,8-1.8,10.8-4.8c2.9-3,4.4-6.9,4.3-11s-1.8-8-4.8-10.8
						c-3-2.9-6.9-4.4-11-4.3C1025,215,1018.2,222.1,1018.4,230.7L1018.4,230.7z"/>
				</g>
			</g>
			<g>
				<g>
					<path class="st5" d="M1013.5,52.9L1013.5,52.9c0.2,9.1,7.7,16.3,16.8,16.1l0,0c9.1-0.2,16.3-7.7,16.1-16.8l0,0
						c-0.2-9.1-7.7-16.3-16.8-16.1l0,0C1020.6,36.3,1013.3,43.8,1013.5,52.9z"/>
					<path class="st1" d="M1030,70c-4.5,0-8.8-1.7-12.1-4.9c-3.4-3.2-5.3-7.6-5.4-12.2l0,0c-0.2-9.6,7.5-17.7,17.1-17.9
						c9.7-0.2,17.7,7.5,17.9,17.1c0.1,4.7-1.6,9.1-4.8,12.5s-7.6,5.3-12.2,5.4C1030.3,70,1030.1,70,1030,70z M1014.5,52.9
						c0.1,4.1,1.8,8,4.8,10.8c3,2.9,6.9,4.4,11,4.3c4.1-0.1,8-1.8,10.8-4.8c2.9-3,4.4-6.9,4.3-11c-0.2-8.4-7.1-15.1-15.5-15.1
						c-0.1,0-0.2,0-0.3,0C1021.2,37.3,1014.4,44.4,1014.5,52.9L1014.5,52.9z"/>
				</g>
			</g>
		</g>
		<g>
			<g>
				<polygon class="st3" points="824.2,231.3 858.4,262.3 847.5,302.9 847.5,302.9 809.5,313.5 800.9,305.8 823.2,287.5 
					802.5,268.8 786.5,292.7 778,284.9 784.8,246.1 				"/>
			</g>
			<g>
				<path class="st1" d="M802.2,306.7l-9.8-8.9l22.3-18.3l-19-17.2l-16,24l-9.8-8.9l7.1-40l40.4-15.2l35.1,31.8l-11.1,41.7
					L802.2,306.7z M795.5,297.8l7.3,6.6l37-10.4l10.5-39.4L817,224.5l-38.2,14.3l-6.7,37.8l7.3,6.6l16-24l22.4,20.3L795.5,297.8z"/>
			</g>
			<g>
				<g>
					
						<rect x="827.7" y="200.6" transform="matrix(0.6716 -0.7409 0.7409 0.6716 112.9465 702.1146)" class="st4" width="41.6" height="46.1"/>
					<path class="st1" d="M851.7,255.9L816,223.6l29.3-32.3l35.7,32.3L851.7,255.9z M818.9,223.5l32.7,29.6l26.6-29.4l-32.7-29.6
						L818.9,223.5z"/>
				</g>
				<g>
					<path class="st1" d="M862.1,257.7L812.7,213c-2.9-2.6-7.4-2.4-10,0.5l0,0c-2.6,2.9-2.4,7.4,0.5,10l49.4,44.7
						c2.9,2.6,7.4,2.4,10-0.5l0,0C865.3,264.8,865,260.3,862.1,257.7z"/>
					<path class="st1" d="M857.4,271c-2,0-3.9-0.7-5.4-2.1l-49.4-44.7c-1.6-1.5-2.5-3.4-2.6-5.6c-0.1-2.2,0.6-4.2,2.1-5.8
						c3-3.3,8.1-3.6,11.4-0.6l49.4,44.7c1.6,1.5,2.5,3.4,2.6,5.6s-0.6,4.2-2.1,5.8c-1.5,1.6-3.4,2.5-5.6,2.6
						C857.6,271,857.5,271,857.4,271z M808,212.1c-1.7,0-3.3,0.7-4.5,2c-1.1,1.2-1.7,2.8-1.6,4.4s0.8,3.1,2,4.2l49.4,44.7
						c1.2,1.1,2.8,1.6,4.4,1.6c1.6-0.1,3.1-0.8,4.2-2c1.1-1.2,1.7-2.8,1.6-4.4c-0.1-1.6-0.8-3.1-2-4.2l-49.4-44.7
						C810.9,212.6,809.5,212.1,808,212.1z"/>
				</g>
			</g>
		</g>
		<g>
			<g>
				<path class="st4" d="M1031.9,260.5l-175.5-26.8c-14.2-2.2-23.9-15.4-21.7-29.6l0,0c2.2-14.2,15.4-23.9,29.6-21.7l175.5,26.8
					c14.2,2.2,23.9,15.4,21.7,29.6l0,0C1059.3,253,1046,262.7,1031.9,260.5z"/>
				<path class="st1" d="M1035.8,261.8c-1.4,0-2.7-0.1-4.1-0.3l-175.5-26.8c-7.1-1.1-13.4-4.9-17.6-10.7c-4.3-5.8-6-12.9-4.9-20
					c2.2-14.7,16-24.8,30.7-22.6l175.5,26.8c14.7,2.2,24.8,16,22.6,30.7c-1.1,7.1-4.9,13.4-10.7,17.6
					C1047.1,260,1041.5,261.8,1035.8,261.8z M1032,259.6c6.6,1,13.2-0.6,18.5-4.6c5.4-3.9,8.9-9.7,9.9-16.3
					c2.1-13.6-7.3-26.3-20.9-28.4L864,183.5c-13.6-2.1-26.3,7.3-28.4,20.9c-1,6.6,0.6,13.2,4.6,18.5c3.9,5.4,9.7,8.9,16.3,9.9
					L1032,259.6z"/>
			</g>
			<g>
				<g>
					<path class="st5" d="M1033.4,251.1L1033.4,251.1c-9-1.4-15.2-9.8-13.8-18.8l0,0c1.4-9,9.8-15.2,18.8-13.8l0,0
						c9,1.4,15.2,9.8,13.8,18.8l0,0C1050.8,246.3,1042.4,252.5,1033.4,251.1z"/>
					<path class="st1" d="M1035.9,252.3c-0.9,0-1.8-0.1-2.6-0.2l0,0c-9.5-1.5-16.1-10.4-14.6-19.9c0.7-4.6,3.2-8.7,6.9-11.5
						c3.8-2.8,8.4-3.9,13-3.2s8.7,3.2,11.5,6.9c2.8,3.8,3.9,8.4,3.2,13C1051.9,246.1,1044.4,252.3,1035.9,252.3z M1033.6,250.1
						c8.4,1.3,16.4-4.5,17.6-13c0.6-4.1-0.4-8.2-2.8-11.5c-2.5-3.3-6.1-5.5-10.1-6.1c-4.1-0.6-8.2,0.4-11.5,2.8
						c-3.3,2.5-5.5,6.1-6.1,10.1C1019.3,240.9,1025.1,248.8,1033.6,250.1L1033.6,250.1z"/>
				</g>
			</g>
			<g>
				<g>
					<path class="st5" d="M857.6,224.3L857.6,224.3c9,1.4,17.4-4.8,18.8-13.8l0,0c1.4-9-4.8-17.4-13.8-18.8l0,0
						c-9-1.4-17.4,4.8-18.8,13.8l0,0C842.4,214.5,848.6,222.9,857.6,224.3z"/>
					<path class="st1" d="M860.1,225.5c-0.9,0-1.8-0.1-2.6-0.2l0,0c-9.5-1.5-16.1-10.4-14.6-19.9s10.4-16.1,19.9-14.6
						s16.1,10.4,14.6,19.9C876.1,219.3,868.6,225.5,860.1,225.5z M857.8,223.3c8.4,1.3,16.4-4.5,17.6-13c1.3-8.4-4.5-16.4-13-17.6
						c-8.4-1.3-16.4,4.5-17.6,13C843.5,214.1,849.3,222,857.8,223.3L857.8,223.3z"/>
				</g>
			</g>
		</g>
	</g>
	<g>
		<path class="st6" d="M514.4,329.2l45.8,5.7l33.6,49.4l-23.4,30c-26.3-5-53.2-28.6-72.5-55.9L514.4,329.2z"/>
		<path class="st1" d="M570.9,415.4l-0.6-0.1c-24.1-4.6-51.4-25.6-73.1-56.3l-0.4-0.5l17.1-30.4l46.9,5.9l0.3,0.4l34,50L570.9,415.4
			z M499.2,358.4c21.2,29.7,47.6,50.1,70.9,54.8l22.5-29l-32.9-48.4l-44.7-5.6L499.2,358.4z"/>
	</g>
	<g>
		<circle class="st6" cx="519" cy="337.6" r="3.2"/>
		<path class="st1" d="M519,341.7c-2.3,0-4.2-1.9-4.2-4.2s1.9-4.2,4.2-4.2s4.2,1.9,4.2,4.2S521.3,341.7,519,341.7z M519,335.4
			c-1.2,0-2.2,1-2.2,2.2s1,2.2,2.2,2.2s2.2-1,2.2-2.2S520.2,335.4,519,335.4z"/>
	</g>
	<g>
		<circle class="st6" cx="555.7" cy="341.2" r="3.2"/>
		<path class="st1" d="M555.7,345.3c-2.3,0-4.2-1.9-4.2-4.2s1.9-4.2,4.2-4.2s4.2,1.9,4.2,4.2S558,345.3,555.7,345.3z M555.7,339
			c-1.2,0-2.2,1-2.2,2.2s1,2.2,2.2,2.2s2.2-1,2.2-2.2S556.9,339,555.7,339z"/>
	</g>
	<g>
		<circle class="st6" cx="583.8" cy="384.1" r="3.2"/>
		<path class="st1" d="M583.8,388.3c-2.3,0-4.2-1.9-4.2-4.2s1.9-4.2,4.2-4.2s4.2,1.9,4.2,4.2S586.1,388.3,583.8,388.3z M583.8,382
			c-1.2,0-2.2,1-2.2,2.2s1,2.2,2.2,2.2s2.2-1,2.2-2.2S585,382,583.8,382z"/>
	</g>
	<g>
		<circle class="st6" cx="567.4" cy="406.4" r="3.2"/>
		<path class="st1" d="M567.4,410.6c-2.3,0-4.2-1.9-4.2-4.2s1.9-4.2,4.2-4.2s4.2,1.9,4.2,4.2S569.7,410.6,567.4,410.6z M567.4,404.2
			c-1.2,0-2.2,1-2.2,2.2s1,2.2,2.2,2.2s2.2-1,2.2-2.2S568.6,404.2,567.4,404.2z"/>
	</g>
	<g>
		<circle class="st6" cx="505.8" cy="358.3" r="3.2"/>
		<path class="st1" d="M505.8,362.4c-2.3,0-4.2-1.9-4.2-4.2s1.9-4.2,4.2-4.2s4.2,1.9,4.2,4.2S508.1,362.4,505.8,362.4z M505.8,356.1
			c-1.2,0-2.2,1-2.2,2.2s1,2.2,2.2,2.2s2.2-1,2.2-2.2S507,356.1,505.8,356.1z"/>
	</g>
	<g>
		<path class="st7" d="M366.3,307.4c-1.7,0-3.2-1.4-3.2-3.2s1.4-3.2,3.2-3.2s3.2,1.4,3.2,3.2S368,307.4,366.3,307.4z M366.3,302.1
			c-1.2,0-2.2,1-2.2,2.2s1,2.2,2.2,2.2s2.2-1,2.2-2.2S367.5,302.1,366.3,302.1z"/>
	</g>
	<g>
		<path class="st7" d="M357,284.8c-1.7,0-3.2-1.4-3.2-3.2s1.4-3.2,3.2-3.2s3.2,1.4,3.2,3.2S358.7,284.8,357,284.8z M357,279.5
			c-1.2,0-2.2,1-2.2,2.2s1,2.2,2.2,2.2s2.2-1,2.2-2.2S358.2,279.5,357,279.5z"/>
	</g>
	<g>
		<path class="st7" d="M430.4,218.2c-1.7,0-3.2-1.4-3.2-3.2s1.4-3.2,3.2-3.2s3.2,1.4,3.2,3.2S432.2,218.2,430.4,218.2z M430.4,212.8
			c-1.2,0-2.2,1-2.2,2.2s1,2.2,2.2,2.2s2.2-1,2.2-2.2S431.6,212.8,430.4,212.8z"/>
	</g>
	<g>
		<g>
			<g>
				<path class="st2" d="M197.4,397.8h-69.6c-0.2,0-0.4-0.1-0.5-0.3c-0.1-0.2,0-0.4,0.1-0.5l69.6-69.6c0.1-0.1,0.4-0.2,0.5-0.1
					c0.2,0.1,0.3,0.3,0.3,0.5v69.6C197.9,397.5,197.7,397.8,197.4,397.8z M129,396.8h67.9v-67.9L129,396.8z"/>
			</g>
			<g>
				<path class="st2" d="M170.8,369.9h-69.6c-0.2,0-0.4-0.1-0.5-0.3c-0.1-0.2,0-0.4,0.1-0.5l69.6-69.6c0.1-0.1,0.4-0.2,0.5-0.1
					s0.3,0.3,0.3,0.5v69.6C171.3,369.7,171.1,369.9,170.8,369.9z M102.4,368.9h67.9V301L102.4,368.9z"/>
			</g>
			<g>
				<path class="st2" d="M144.2,342H74.6c-0.2,0-0.4-0.1-0.5-0.3c-0.1-0.2,0-0.4,0.1-0.5l69.6-69.6c0.1-0.1,0.4-0.2,0.5-0.1
					c0.2,0.1,0.3,0.3,0.3,0.5v69.6C144.7,341.8,144.5,342,144.2,342z M75.8,341h67.9v-67.9L75.8,341z"/>
			</g>
		</g>
		<g>
			<g>
				<path class="st2" d="M855.9,682.2c-0.1,0-0.3-0.1-0.4-0.1l-24.3-24.3c-0.1-0.1-0.1-0.2-0.1-0.4s0.1-0.3,0.1-0.4l86.3-86.3
					c0.2-0.2,0.5-0.2,0.7,0l24.3,24.3c0.2,0.2,0.2,0.5,0,0.7L856.2,682C856.1,682.1,856,682.2,855.9,682.2z M832.2,657.3l23.6,23.6
					l85.6-85.6l-23.6-23.6L832.2,657.3z"/>
			</g>
			<g>
				<g>
					<g>
						<g>
							<circle class="st7" cx="966.5" cy="375.3" r="1.7"/>
						</g>
						<g>
							<circle class="st7" cx="942" cy="399.7" r="1.7"/>
						</g>
						<g>
							<circle class="st7" cx="917.6" cy="424.2" r="1.7"/>
						</g>
						<g>
							<circle class="st7" cx="893.1" cy="448.6" r="1.7"/>
						</g>
						<g>
							<circle class="st7" cx="868.7" cy="473.1" r="1.7"/>
						</g>
						<g>
							<circle class="st7" cx="844.2" cy="497.5" r="1.7"/>
						</g>
						<g>
							<circle class="st7" cx="819.8" cy="522" r="1.7"/>
						</g>
					</g>
					<g>
						<g>
							<circle class="st7" cx="990.9" cy="399.7" r="1.7"/>
						</g>
						<g>
							<circle class="st7" cx="966.5" cy="424.2" r="1.7"/>
						</g>
						<g>
							<circle class="st7" cx="942" cy="448.6" r="1.7"/>
						</g>
						<g>
							<circle class="st7" cx="917.6" cy="473.1" r="1.7"/>
						</g>
						<g>
							<circle class="st7" cx="893.1" cy="497.5" r="1.7"/>
						</g>
						<g>
							<circle class="st7" cx="868.7" cy="522" r="1.7"/>
						</g>
						<g>
							<circle class="st7" cx="844.2" cy="546.4" r="1.7"/>
						</g>
					</g>
				</g>
				<g>
					<g>
						<g>
							<circle class="st7" cx="1015.4" cy="424.2" r="1.7"/>
						</g>
						<g>
							<circle class="st7" cx="990.9" cy="448.6" r="1.7"/>
						</g>
						<g>
							<circle class="st7" cx="966.5" cy="473.1" r="1.7"/>
						</g>
						<g>
							<circle class="st7" cx="942" cy="497.5" r="1.7"/>
						</g>
						<g>
							<circle class="st7" cx="917.6" cy="522" r="1.7"/>
						</g>
						<g>
							<circle class="st7" cx="893.1" cy="546.4" r="1.7"/>
						</g>
						<g>
							<circle class="st7" cx="868.7" cy="570.9" r="1.7"/>
						</g>
					</g>
					<g>
						<g>
							<circle class="st7" cx="1039.8" cy="448.6" r="1.7"/>
						</g>
						<g>
							<circle class="st7" cx="1015.4" cy="473.1" r="1.7"/>
						</g>
						<g>
							<circle class="st7" cx="990.9" cy="497.5" r="1.7"/>
						</g>
						<g>
							<circle class="st7" cx="966.5" cy="522" r="1.7"/>
						</g>
						<g>
							<circle class="st7" cx="942" cy="546.4" r="1.7"/>
						</g>
						<g>
							<circle class="st7" cx="917.6" cy="570.9" r="1.7"/>
						</g>
						<g>
							<circle class="st7" cx="893.1" cy="595.3" r="1.7"/>
						</g>
					</g>
				</g>
				<g>
					<g>
						<g>
							<circle class="st7" cx="1064.3" cy="473.1" r="1.7"/>
						</g>
						<g>
							<circle class="st7" cx="1039.8" cy="497.5" r="1.7"/>
						</g>
						<g>
							<circle class="st7" cx="1015.4" cy="522" r="1.7"/>
						</g>
						<g>
							<circle class="st7" cx="990.9" cy="546.4" r="1.7"/>
						</g>
						<g>
							<circle class="st7" cx="966.5" cy="570.9" r="1.7"/>
						</g>
						<g>
							<circle class="st7" cx="942" cy="595.3" r="1.7"/>
						</g>
						<g>
							<circle class="st7" cx="917.6" cy="619.8" r="1.7"/>
						</g>
					</g>
					<g>
						<g>
							<circle class="st7" cx="1088.7" cy="497.5" r="1.7"/>
						</g>
						<g>
							<circle class="st7" cx="1064.3" cy="522" r="1.7"/>
						</g>
						<g>
							<circle class="st7" cx="1039.8" cy="546.4" r="1.7"/>
						</g>
						<g>
							<circle class="st7" cx="1015.4" cy="570.9" r="1.7"/>
						</g>
						<g>
							<circle class="st7" cx="990.9" cy="595.3" r="1.7"/>
						</g>
						<g>
							<circle class="st7" cx="966.5" cy="619.8" r="1.7"/>
						</g>
						<g>
							<circle class="st7" cx="942" cy="644.2" r="1.7"/>
						</g>
					</g>
				</g>
				<g>
					<g>
						<g>
							<circle class="st7" cx="1113.2" cy="522" r="1.7"/>
						</g>
						<g>
							<circle class="st7" cx="1088.7" cy="546.4" r="1.7"/>
						</g>
						<g>
							<circle class="st7" cx="1064.3" cy="570.9" r="1.7"/>
						</g>
						<g>
							<circle class="st7" cx="1039.8" cy="595.3" r="1.7"/>
						</g>
						<g>
							<circle class="st7" cx="1015.4" cy="619.8" r="1.7"/>
						</g>
						<g>
							<circle class="st7" cx="990.9" cy="644.2" r="1.7"/>
						</g>
						<g>
							<circle class="st7" cx="966.5" cy="668.7" r="1.7"/>
						</g>
					</g>
				</g>
			</g>
		</g>
	</g>
</g>
</svg>
