<svg version="1.1" id="performance" xmlns="http://www.w3.org/2000/svg" x="0" y="0" viewBox="0 0 1200 800" xml:space="preserve"><style>.st0{fill:#fff}.st1{fill:#7f7f7f}.st2{fill:#dffdff}.st3{fill:#f7a08b}.st4{fill:#e24b31}.st5{fill:#242b2d}.st6{fill:#55265e}</style><path class="st0" d="M806.9 307.7c-1.6.1-3.6.7-6 1.8-13.7-34.7-26.8-67.7-40.1-90.1v-.2h-.1c-1.3-2.2-2.7-4.3-4-6.3 20.3-32-16.9-40.1-24.8-21.8-6-1.2-12.3.6-18.7 6.1-10.8 9.3-46.1 72.5-90.5 73.4l.8-.4c-21.9-30.5 12.5-79.7-24.7-103-18.7-11.7-32.3 15.8-59.1 69.7-3.3 6.7-12.2 22.8-28.2 43.5v-.2c-4.7 1.4-8.6 6.8-11 13.8l-1.2 1.5c-1.2.9-2.3 2.1-3.1 3.4h.2c-2.3 2.6-4.7 5.3-7.2 8-5.8 1-12.8 7.8-15.8 16.3-10 9.7-21.1 19.7-33.7 29.6 0 0-2.2 1.7-16.4 6.8-36 12.9-84.8 28.5-89.1 53 1.3-8.1-43.8 73.1 161.3 56.7 97-7.8 111.7-44.3 149.8-37.1 54.5 10.3 151.6-37.3 167.6-45.9 24.5-13.3 15.5-79.8-6-78.6z"/><path class="st1" d="M813 386.1c24.4-13.1 15.4-79.6-6.1-78.4-21.5 1.2-109.2 94.5-113 71.1s9.1-35.9-5.3-30.6C666 356.6 529.1 466.9 412 455.3c-60.5-6-82.5-21.3-77.8-42.6 2.1-9.7-45.5 73 161.4 56.4 97-7.8 111.7-44.3 149.8-37.1 54.5 10.3 151.6-37.2 167.6-45.9z"/><path class="st2" d="M452.8 394.9c64-26.9 121.9-4.9 129.9 15.7l.1.2C531.7 437.3 469.5 461 412 455.3c-60.5-6-82.5-21.3-77.8-42.6 1.5-7.9 6.3-13.9 13.1-18.8 18.8 20.3 62.2 19.2 105.5 1"/><path class="st3" d="M622 341.6s-9.8 7-16.3 7.1-5.8-4.1-5.8-4.1 23.7-8.1 17.2-24.1c-2.9-4.1-6.3-5.4-11.1-5.3s-10.7 3-14.5 11.6c-1.8 4.1-2.5 8-2.9 11 0 0-4.1.8-6.4-1-2.2-1.9-3.4 0-3.4 0s-3.9 4.9 0 6.4 9.8 2.2 9.8 2.2c.6 2.6 2.2 7.1 6.8 10.6 7 5.3 20.5-.5 20.5-.5l5.5-3.1c7.6-4.7 4.3-13.3.6-10.8zm-23.3-4.2c.3-11.1 7.6-16 10.1-13.6 2.5 2.4 1.6 7.7-3.2 11-4.7 3.2-6.9 2.6-6.9 2.6z"/><path class="st4" d="M646.1 257.9c35.5 87.3 90.5 56.8 107.7-41.7l-4.4-5.8c-39 121.9-93.1 47.4-98.4 44.8l-4.9 2.7zM538.2 241c10.7-21.4 19.2-38.5 26.9-50.3l.8.5c38.6 35.5-18.2 51.9-27 50.1l-.7-.3z"/><path class="st5" d="M325.7 403l-3-.5c3.8-23.7 47.3-39.2 82.2-51.6 2.7-1 5.3-1.9 7.9-2.8 73.8-26.5 114.1-70 135.8-93.4 9.7-10.5 15.1-16.3 19.2-16.3 1.2-.1 2.2.4 3 1.2 14.1 14 28.9 20.6 44 19.5 32.6-2.3 59.9-38.1 76.2-59.5 5-6.5 8.5-11.2 11.1-13.4 6.8-5.9 13.8-8 20.8-6.3 24.5 6 45 57.7 68.7 117.6l.7 1.7-2.8 1.1-.7-1.7c-22.4-56.6-43.6-110.1-66.6-115.8-6-1.5-11.9.4-18.1 5.7-2.3 2-6 6.8-10.7 13-16.6 21.8-44.3 58.3-78.3 60.7-16 1.1-31.6-5.7-46.4-20.4-.3-.3-.5-.3-.9-.4-2.9.1-9.2 6.8-17.1 15.4-21.9 23.6-62.6 67.5-137 94.2-2.6.9-5.2 1.9-7.9 2.8-34 12.1-76.6 27.2-80.1 49.2z"/><path class="st5" d="M434.6 462.9c-79 0-105.4-19.1-112.8-36.8-5.1-12.1-.8-23.4 1.2-25.1.7-.6 1.5-.5 2-.2.7.4 1 1.2.7 2.4-1.4 6.2-.3 11.6 3.2 16.4 8.9 12.2 33.5 20.4 73.3 24.3 92.1 9.1 197.1-58 247.6-90.2 13.6-8.7 23.4-14.9 28.3-16.7 3.5-1.3 6.2-1.9 7.8-.5 1.8 1.5 1.3 4.3.4 8.8-1 5.3-2.5 13.4-.9 23.4.3 1.7 1 2.1 1.5 2.3 7 2.6 33.5-19.3 54.8-36.9 23.2-19.1 45.1-37.2 55.1-37.8 8.2-.5 15.3 7.5 19.3 21.9 6.2 22 3.2 50.9-12.5 59.3l-.7-1.3.7 1.3c-1.1.6-108.8 57.4-168.6 46-16.7-3.2-29 2.4-46 10.2-21 9.6-49.8 22.7-103.4 27-19 1.5-35.9 2.2-51 2.2zm-112.2-50.8c-.3 3.9.2 8.9 2.7 14.1 5.6 11.6 18.9 20.4 39.7 26.2 27.9 7.7 68.5 9.5 120.6 5.3 53-4.2 81.6-17.2 102.4-26.7 17.5-8 30.2-13.7 47.8-10.4 22.5 4.2 56.2-1.2 97.5-15.8 38.9-13.7 68.8-29.8 69.1-30 13.9-7.5 16.9-34.9 11-55.8-3.6-12.7-9.6-20.1-16.3-19.8-9 .5-31.5 19.1-53.4 37.1-30.6 25.3-49.8 40.4-57.8 37.4-1.3-.5-2.9-1.7-3.4-4.6-1.7-10.5-.1-18.9.9-24.5.5-2.4 1-5.5.6-6-.1 0-.8-.4-4.8 1.1-4.6 1.7-14.3 7.9-27.7 16.5-50.7 32.3-156.3 99.8-249.4 90.6-41.2-4.1-65.9-12.4-75.4-25.5-2.1-2.9-3.5-6-4.1-9.2zM430.6 343.9l-1.9-2.4c66.3-52.5 94.6-105.2 99.6-115.2l.2-.3c21.2-42.6 34-68.3 48.1-72.3 4.3-1.2 8.5-.4 13 2.3 21.6 13.5 19.9 35.6 18.3 57-1.2 16.4-2.5 33.4 6.8 46.4l-2.4 1.7c-10-13.9-8.6-31.4-7.4-48.4 1.6-21.4 3.1-41.7-16.9-54.2-3.7-2.3-7.2-3-10.6-2-12.9 3.6-26.1 30.3-46.3 70.7l-.2.3c-4.9 10.3-33.5 63.5-100.3 116.4z"/><path class="st5" d="M571.3 401.1c-2.6-6.8-11-13.6-23-18.7-11.1-4.7-51.6-18.5-104.9 3.9-45.6 19.1-88.7 18.6-107.2-1.3l2.2-2c17.7 19 59.4 19.2 103.9.6 54.3-22.8 95.8-8.7 107.2-3.9 12.7 5.4 21.7 12.9 24.6 20.4l-2.8 1zM554.5 332.7l-90.3-5.1.2-3 89.1 5 27.7-21.3-36.3-46.5 2.4-1.8 38.1 48.8zM533.4 225.9c-.7 0-1.4 0-1.9-.2l.6-2.9c5.2 1 29.9-5.1 36.8-18.6 4.3-8.5.6-18.2-11.1-28.9l2-2.2c12.8 11.7 16.7 22.7 11.7 32.5-6.8 13.5-29.6 20.3-38.1 20.3zM690.8 274.7c-18.1 0-33.3-15.1-40.3-22.1-1.4-1.4-2.8-2.8-3.2-3l1.3-2.7c.8.4 1.8 1.4 4 3.6 7.6 7.5 25.3 25.2 45 20.4 18.4-4.5 34.4-27.3 47.3-67.9l2.9.9c-13.3 41.6-30 65.1-49.5 69.9-2.5.6-5 .9-7.5.9z"/><path class="st5" d="M692 303.8c-18.7 0-36.5-18.4-50.3-52.4l2.8-1.1c14 34.4 31.8 52.3 50.2 50.3 23.9-2.5 45.3-38.5 54.6-91.7l3 .5c-9.7 55.4-31.7 91.5-57.3 94.2-1 .1-2 .2-3 .2zM747.7 204.3l-2.5-1.6c6.2-9.5 7.7-17.9 4.3-23.5-2.5-4.2-7.9-6.6-13.6-6.1-6 .5-10.8 4-12.8 9.3l-2.8-1.1c2.4-6.4 8.1-10.5 15.3-11.2 6.9-.6 13.3 2.3 16.4 7.5 2.4 3.8 4.9 12.4-4.3 26.7zM600.4 356.7c-3.2 0-6.3-.6-8.8-2.6-4.5-3.4-6.4-7.7-7.1-10.5-1.9-.3-6.1-1-9.2-2.2-1.7-.6-2.3-1.8-2.5-2.6-.7-2.6 1.5-5.6 1.9-6.1.2-.3.9-1.2 2.2-1.4 1.1-.2 2.2.2 3.4 1.1 1 .9 2.8.9 4.1.8.4-2.9 1.2-6.5 2.8-10.2 5-11.1 12.8-12.5 15.9-12.5 5.6-.1 9.3 1.7 12.3 6 .1.1.1.2.2.3 1.7 4.1 1.6 8.2-.1 11.9-3.6 7.9-13.5 12.4-16.9 13.7.1.2.2.4.3.5.6.7 2 1.1 3.8 1.1 5.9-.1 15.4-6.8 15.4-6.8h.1c1.2-.8 2.6-.9 3.8-.3 1.5.8 2.5 2.6 2.6 4.8.1 3.4-1.8 6.7-5.2 8.8l-5.6 3.1s-.1 0-.1.1c-.5.3-6.9 3-13.3 3zm-13.3-14.6c.5 2.2 1.9 6.4 6.2 9.6 6 4.6 17.9-.2 18.9-.6l5.5-3.1c2.4-1.5 3.8-3.8 3.7-6.1 0-1.2-.5-2.1-1-2.3-.1 0-.3-.2-.7.1-.7.5-10.4 7.3-17.1 7.4-2.9 0-4.9-.7-6.2-2.1-1.4-1.6-1.2-3.5-1.1-3.7.1-.5.5-1 1-1.2.1 0 12.6-4.4 16.3-12.6 1.4-3 1.4-6.1.1-9.4-2.4-3.4-5.2-4.6-9.7-4.5-2.6 0-9 1.2-13.2 10.7-1.8 3.9-2.4 7.7-2.8 10.5-.1.5-.4 1-.9 1.2-.1 0-.2.1-.3.1-.8.2-5 .8-7.6-1.4-.5-.4-.8-.5-1-.5-.1 0-.2.1-.2.1l-.1.1c-.7.9-1.6 2.6-1.4 3.5 0 .1.1.4.7.6 3.6 1.4 9.4 2.1 9.5 2.1.8.3 1.3.9 1.4 1.5zm9.2-6.2c-.5 0-.8-.1-1-.1-.6-.2-1.1-.8-1.1-1.5.2-8.4 4.1-13.7 7.9-15.2 1.9-.8 3.6-.5 4.8.6 1.3 1.3 2 3.1 1.8 5.2-.2 3-2.2 6-5.2 8.1-3.6 2.5-6 2.9-7.2 2.9zm-.6-1.5zm8.5-12.7c-.3 0-.6.1-1 .2-2.1.9-5.3 4.5-5.9 10.9.9-.2 2.4-.8 4.5-2.3 2.3-1.5 3.7-3.7 3.9-5.8.1-1.2-.2-2.2-.9-2.8-.1-.2-.3-.2-.6-.2zM467.6 343.9c-3.9 0-7.2-3.2-7.2-7.2s3.2-7.2 7.2-7.2 7.2 3.2 7.2 7.2-3.2 7.2-7.2 7.2zm0-11.3c-2.3 0-4.2 1.9-4.2 4.2s1.9 4.2 4.2 4.2 4.2-1.9 4.2-4.2-1.9-4.2-4.2-4.2zM518.7 306.7c-3.9 0-7.2-3.2-7.2-7.2s3.2-7.2 7.2-7.2c3.9 0 7.2 3.2 7.2 7.2s-3.2 7.2-7.2 7.2zm0-11.3c-2.3 0-4.2 1.9-4.2 4.2s1.9 4.2 4.2 4.2 4.2-1.9 4.2-4.2-1.9-4.2-4.2-4.2zM542.8 286.7c-3.9 0-7.2-3.2-7.2-7.2 0-3.9 3.2-7.2 7.2-7.2 3.9 0 7.2 3.2 7.2 7.2-.1 4-3.3 7.2-7.2 7.2zm0-11.3c-2.3 0-4.2 1.9-4.2 4.2s1.9 4.2 4.2 4.2 4.2-1.9 4.2-4.2-1.9-4.2-4.2-4.2zM493.7 325.8c-3.9 0-7.2-3.2-7.2-7.2s3.2-7.2 7.2-7.2 7.2 3.2 7.2 7.2-3.3 7.2-7.2 7.2zm0-11.3c-2.3 0-4.2 1.9-4.2 4.2s1.9 4.2 4.2 4.2 4.2-1.9 4.2-4.2-1.9-4.2-4.2-4.2z"/><path class="st5" d="M466.5 337.7c-6.2-7.2-7.8-16.1-4.5-25.3 3.1-8.7 10.5-16 17.1-17.1l.5 3c-4.8.8-11.7 6.7-14.8 15.2-1.7 4.7-3.4 13.8 3.9 22.3l-2.2 1.9zM492.5 319.6c-5.3-6.6-8.4-20.1-3.6-35.2 2.7-8.4 7.1-14.1 12.2-15.6l.8 2.9c-4.1 1.2-7.9 6.3-10.2 13.6-3.1 9.8-3.5 24.2 3.1 32.5l-2.3 1.8z"/><g><path class="st5" d="M487.5 289.6l-2.6-1.5c5.4-9 19.1-8.8 33.7-8.6 8.3.1 16.9.3 23.8-1.4l.7 2.9c-7.2 1.8-16 1.7-24.6 1.5-13.6-.2-26.5-.4-31 7.1z"/></g><g><path class="st5" d="M464.3 314.1l-1.4-2.6c22.2-11.8 49.4-15.4 56.2-13.3l-.9 2.9c-5.6-1.8-32 1.4-53.9 13z"/></g><g><path class="st0" d="M395.6 645.8c14.6 10.8 104 71.6 159.5 69.1 38.7-1.8 48.1 36.5 143.1 57.9C899 818 865.7 731.3 865.9 739.5c-.7-24.8-46.9-47.2-80.7-65-13.4-7.1-15.3-9-15.3-9-11-11.6-20.7-23-29.2-34-1.8-8.9-7.8-16.5-13.4-18.3-2.1-3-4.1-6-6-9l.2.1c-.6-1.5-1.5-2.7-2.6-3.8-.3-.5-.7-1.1-1-1.6-1.4-7.2-4.4-13.1-8.9-15.2v.2c-12.9-22.7-19.4-39.9-21.8-47-19-57.2-28.6-86.2-48.7-77.3-40.1 17.8-13 71.4-39 98.5l.7.5c-43.8-7.2-69.8-74.7-79.2-85.4-5.6-6.4-11.5-9.1-17.7-8.7-5.2-19.3-43.2-16.4-27.6 18.1-1.6 1.8-3.2 3.7-4.8 5.7l-.1-.1v.2c-16.3 20.3-33.9 51.2-52.4 83.6-2.2-1.4-4.1-2.3-5.7-2.6-21.1-4.6-39.4 59.9-17.1 76.4z"/><path class="st1" d="M395.6 645.8c-22.3-16.4-4.1-81 17.1-76.8s94.7 108.9 101.8 86.3c7.1-22.6-3.9-36.8 9.6-29.5 21.2 11.5 141.1 140 258.7 145 60.8 2.6 84.6-9.4 83-31.2-.7-9.9 34.7 78.7-167.7 33.1-95-21.4-104.4-59.7-143.1-57.9-55.3 2.5-144.8-58.3-159.4-69z"/><path class="st2" d="M750.9 705.2c-59.6-35.6-120-22.1-130.8-2.8l-.1.2c46.9 33.5 105.1 65.7 162.8 68.2 60.8 2.6 84.6-9.4 83-31.2-.3-8-4.2-14.6-10.3-20.4-21.4 17.3-64.2 10.1-104.6-14"/><path class="st3" d="M631.4 634.4s-10.7 5.6-17.1 4.7c-6.4-.8-5.2-4.9-5.2-4.9s24.6-4.7 20.5-21.5c-2.3-4.5-5.4-6.2-10.2-6.8-4.7-.6-11 1.5-16 9.5-2.4 3.8-3.6 7.6-4.4 10.4 0 0-4.2.3-6.2-1.9-2-2.2-3.4-.5-3.4-.5s-4.5 4.3-.9 6.4c3.6 2 9.4 3.6 9.4 3.6.2 2.7 1.1 7.3 5.3 11.5 6.2 6.3 20.4 2.4 20.4 2.4l5.9-2.3c8-3.6 6-12.6 1.9-10.6zm-22.4-7.5c1.8-11 9.8-14.8 11.9-12s.5 7.8-4.7 10.4c-5.2 2.6-7.2 1.6-7.2 1.6z"/><path class="st4" d="M578.9 542.3c-47.4 81.5-97.6 43.4-100.8-56.5l5.2-5.1c21.4 126.2 85.5 60.1 91.1 58.2l4.5 3.4zM688.1 540.8c-7.5-22.7-13.6-40.8-19.5-53.6l-.9.4c-43.2 29.7 10.7 53.9 19.7 53.4l.7-.2z"/><path class="st5" d="M875.7 731.2c-.4-22.3-40.4-43.2-72.5-60.1-2.5-1.3-5-2.6-7.4-3.9-69.9-37-104-86.2-122.4-112.6-6.7-9.6-11.9-17.2-14.8-17.6-.3-.1-.6 0-.9.2-16.6 12.4-33.1 17-48.8 13.6-33.3-7.1-55.7-47.2-69-71.1-3.8-6.7-6.7-12.1-8.7-14.4-5.3-6.1-10.9-8.8-17.1-8.2-23.5 2.4-52.1 52.3-82.3 105.2l-.9 1.6-2.6-1.5.9-1.6c31.9-55.9 59.5-104.2 84.6-106.7 7.1-.7 13.7 2.4 19.7 9.2 2.2 2.5 5.1 7.7 9.1 14.9 13.1 23.5 35 62.8 67 69.6 14.8 3.2 30.4-1.2 46.4-13.1.9-.7 2-1 3.2-.8 4.1.7 8.6 7.1 16.7 18.9 18.2 26.2 52 75 121.3 111.7 2.4 1.3 4.9 2.6 7.4 3.9 32.8 17.2 73.6 38.6 74.1 62.7l-3 .1z"/><path class="st5" d="M807.3 778.9c-24.2 0-56.1-3.7-98.2-13.2-52.4-11.8-79.1-28.8-98.6-41.3-15.8-10.1-27.1-17.3-44.1-16.6-60.8 2.8-159.4-68.6-160.4-69.4-8.6-6.4-10.6-18.3-10.8-27.1-.2-10.8 2.3-23.3 6.8-33.4 6-13.7 14.1-20.6 22.2-19 9.8 1.9 29 22.9 49.2 45.2 18.6 20.4 41.8 45.8 49.1 44.2.5-.1 1.3-.5 1.8-2.1 3-9.7 2.7-17.9 2.4-23.3-.2-4.6-.3-7.4 1.7-8.7 1.8-1.1 4.4-.2 7.7 1.6 4.6 2.5 13.4 10.1 25.6 20.6 45.4 39 140 120.3 232.4 124.3 39.9 1.7 65.5-2.9 76-13.7 4.2-4.3 6-9.5 5.5-15.8-.1-1.2.3-1.9 1-2.3.5-.2 1.3-.2 1.9.5 1.7 2 4.4 13.8-2.4 25.1-7.4 12.6-25.9 24.4-68.8 24.4zm-238.4-74.1c16.5 0 27.8 7.3 43.2 17.1 19.3 12.3 45.7 29.2 97.6 40.9 51 11.5 91.5 15.4 120.2 11.7 21.3-2.7 35.8-9.6 43-20.3 3.3-4.9 4.4-9.7 4.7-13.6-1 3.2-2.8 6-5.2 8.5-11.3 11.6-36.9 16.4-78.3 14.6-93.5-4-188.6-85.7-234.3-125-12.1-10.4-20.8-17.9-25.1-20.2-3.8-2-4.6-1.8-4.6-1.7-.5.4-.4 3.5-.3 6 .3 5.6.7 14.2-2.5 24.4-.9 2.9-2.7 3.8-4 4.1-8.4 1.8-25.2-15.8-52-45.2-19.1-20.9-38.8-42.5-47.6-44.2-6.5-1.3-13.6 5.2-18.9 17.3-8.8 19.9-9.7 47.5 3 56.8.3.2 27.7 20.3 64.2 39.4 38.8 20.3 71.4 30.4 94.3 29.4h2.6zM780.1 657.9c-58.7-61.8-79.4-118.5-83-129.2l-.1-.4c-14.2-42.8-23.6-71.1-35.8-76.5-3.2-1.4-6.8-1.3-10.7.5-21.6 9.6-23 29.8-24.4 51.3-1.1 17-2.3 34.5-14.1 46.8l-2.2-2.1c11.1-11.5 12.2-28.5 13.3-45 1.4-21.4 2.9-43.5 26.2-53.8 4.8-2.1 9.1-2.3 13.2-.5 13.4 5.9 22.5 33.2 37.5 78.3l.1.4c3.5 10.6 24.1 66.8 82.3 128.1l-2.3 2.1z"/><path class="st5" d="M834.9 721.7c-21.2 0-47.4-8.1-73.4-23.7-49.5-29.6-91.6-21.7-103.3-18.6-12.6 3.4-21.9 8.9-25.4 15.3l-2.6-1.5c4-7.1 13.9-13.2 27.3-16.7 12-3.2 55-11.3 105.6 18.9 41.4 24.7 82.8 30.4 102.9 14.1l1.9 2.3c-8.3 6.7-19.7 9.9-33 9.9zM749.1 637l-90-7.7-27.3-28 44.6-43 2.1 2.2-42.4 40.8 24.3 25.1 89 7.6zM696.5 526.7c-7 0-31.3-10.3-36.5-25.7-3.6-10.4 1.9-20.7 16.2-30.5l1.7 2.5c-13.1 9-18.1 18.1-15 27.1 4.8 14.2 27.8 23.6 33.6 23.6h.3l.2 3h-.5zM537 553c-4 0-8-.7-12.1-2.3-18.7-7.5-31.8-33.1-39.1-76.2l3-.5c7.1 42 19.7 66.8 37.3 73.9 18.8 7.5 38.9-7.5 47.4-13.8 2.5-1.9 3.6-2.7 4.5-3l1 2.8-.5-1.4.5 1.4c-.5.2-2.1 1.4-3.6 2.5-7.3 5.4-22.3 16.6-38.4 16.6z"/><path class="st5" d="M531 581.6c-2.4 0-4.7-.3-7-.9-25-6.3-41.6-45.1-43.4-101.3l3-.1c1.8 54 17.9 92.6 41.2 98.5 18 4.5 38.1-10.6 56.8-42.8l2.6 1.5c-17.2 29.4-35.8 45.1-53.2 45.1zM485.9 474.9c-7.1-15.4-3.4-23.5-.5-27 3.8-4.7 10.6-6.7 17.3-5.1 7 1.7 12.1 6.6 13.6 13.2l-2.9.7c-1.2-5.5-5.5-9.6-11.4-11-5.6-1.3-11.2.3-14.3 4.1-4.2 5.1-3.8 13.6.9 23.9l-2.7 1.2zM617.7 647.4c-4.3 0-9.1-.9-12.2-4-4-4-5.2-8.5-5.6-11.4-1.9-.5-5.9-1.8-8.8-3.4-1.6-.9-2-2.1-2.1-2.9-.3-2.7 2.3-5.3 2.7-5.8.3-.3 1.1-1.1 2.4-1.1 1.1 0 2.2.5 3.2 1.6.9 1 2.7 1.3 3.9 1.4.8-2.8 2-6.2 4.3-9.7 6.5-10.3 14.4-10.5 17.5-10.1 5.6.7 9 3 11.3 7.6.1.1.1.2.1.3 1.1 4.3.5 8.3-1.8 11.8-4.7 7.3-15.2 10.4-18.7 11.2 0 .2.1.4.3.6.5.8 1.8 1.3 3.7 1.6 5.9.8 16.2-4.5 16.3-4.6h.1c1.3-.6 2.7-.5 3.8.2 1.4 1 2.1 3 1.9 5.2-.3 3.4-2.7 6.3-6.4 7.9l-6 2.3h-.1c-.5.1-4.8 1.3-9.8 1.3zm-14.9-16.6c.2 2.3 1 6.6 4.8 10.4 5.3 5.4 17.8 2.3 18.8 2l5.8-2.3c2.6-1.1 4.3-3.2 4.6-5.5.1-1.2-.2-2.1-.7-2.4-.1-.1-.3-.2-.7 0-.8.4-11.3 5.7-18 4.9-2.8-.4-4.8-1.4-5.8-3-1.2-1.8-.7-3.6-.6-3.8.2-.5.6-.9 1.2-1 .1 0 13-2.6 17.9-10.2 1.8-2.8 2.2-5.8 1.4-9.3-1.9-3.7-4.4-5.3-9-5.9-2.5-.3-9-.1-14.6 8.8-2.3 3.7-3.5 7.3-4.2 10-.1.5-.5.9-1 1-.1 0-.2 0-.3.1-.9 0-5.1.1-7.4-2.4-.4-.4-.7-.6-.9-.6-.1 0-.3.1-.3.1l-.1.1c-.8.8-2 2.4-1.8 3.3 0 .1 0 .4.6.7 3.4 1.9 9 3.4 9.1 3.4.7.3 1.2 1 1.2 1.6zm10.8-4.8c-1 0-1.6-.2-1.8-.3-.6-.3-1-.9-.8-1.6 1.4-8.2 6-12.9 9.9-13.9 1.9-.5 3.6 0 4.6 1.3 1.1 1.5 1.5 3.4 1 5.4-.7 2.9-3 5.7-6.3 7.3-3.1 1.4-5.2 1.8-6.6 1.8zm-1.2-1.6zm9.9-11.4c-.2 0-.5 0-.7.1-2.2.6-5.9 3.7-7.4 9.9 1-.1 2.5-.5 4.8-1.6 2.5-1.2 4.2-3.2 4.7-5.2.3-1.1.1-2.2-.5-2.9-.2-.2-.5-.3-.9-.3zM744.5 652.7c-.3 0-.7 0-1-.1-1.9-.3-3.6-1.3-4.7-2.8-1.1-1.5-1.6-3.4-1.4-5.3.3-1.9 1.3-3.6 2.8-4.7 1.5-1.1 3.4-1.6 5.3-1.4 1.9.3 3.6 1.3 4.7 2.8 1.1 1.5 1.6 3.4 1.4 5.3-.5 3.6-3.6 6.2-7.1 6.2zm0-11.3c-.9 0-1.8.3-2.5.8-.9.7-1.5 1.6-1.6 2.7-.2 1.1.1 2.2.8 3.1.7.9 1.6 1.5 2.7 1.6 2.3.3 4.4-1.3 4.7-3.5.2-1.1-.1-2.2-.8-3.1-.7-.9-1.6-1.5-2.7-1.6h-.6zM699.1 608.7c-.3 0-.7 0-1-.1-1.9-.3-3.6-1.3-4.7-2.8-1.1-1.5-1.6-3.4-1.4-5.3.3-1.9 1.3-3.6 2.8-4.7 1.5-1.1 3.4-1.6 5.3-1.4 1.9.3 3.6 1.3 4.7 2.8 1.1 1.5 1.6 3.4 1.4 5.3-.5 3.7-3.6 6.2-7.1 6.2zm0-11.3c-.9 0-1.8.3-2.5.8-.9.7-1.5 1.6-1.6 2.7-.2 1.1.1 2.2.8 3.1.7.9 1.6 1.5 2.7 1.6 2.3.3 4.4-1.3 4.7-3.5.2-1.1-.1-2.2-.8-3.1-.7-.9-1.6-1.5-2.7-1.6h-.6zM678.2 585.5c-.3 0-.7 0-1-.1-3.9-.6-6.6-4.2-6.1-8.1.3-1.9 1.3-3.6 2.8-4.7 1.5-1.1 3.4-1.6 5.3-1.4 1.9.3 3.6 1.3 4.7 2.8 1.1 1.5 1.6 3.4 1.4 5.3-.3 1.9-1.3 3.6-2.8 4.7-1.3 1-2.8 1.5-4.3 1.5zm-4.2-7.8c-.3 2.3 1.3 4.4 3.5 4.7 1.1.2 2.2-.1 3.1-.8.9-.7 1.5-1.6 1.6-2.7.2-1.1-.1-2.2-.8-3.1-.7-.9-1.6-1.5-2.7-1.6-1.1-.2-2.2.1-3.1.8-.8.7-1.4 1.6-1.6 2.7zM721.2 631.1c-.3 0-.7 0-1-.1-3.9-.6-6.6-4.2-6.1-8.1.3-1.9 1.3-3.6 2.8-4.7 1.5-1.1 3.4-1.6 5.3-1.4 1.9.3 3.6 1.3 4.7 2.8 1.1 1.5 1.6 3.4 1.4 5.3-.5 3.7-3.6 6.2-7.1 6.2zm-4.1-7.7c-.3 2.3 1.3 4.4 3.5 4.7 2.3.3 4.4-1.3 4.7-3.5.2-1.1-.1-2.2-.8-3.1-.7-.9-1.6-1.5-2.7-1.6-2.2-.3-4.3 1.2-4.7 3.5z"/><path class="st5" d="M745.5 646.7l-2-2.3c8.5-7.4 8-16.6 7-21.5-1.9-8.8-7.8-15.6-12.5-17.1l.9-2.9c6.4 2 12.6 10.3 14.5 19.4 2 9.5-.8 18.2-7.9 24.4zM722.3 625.1l-2.1-2.2c7.7-7.3 9.4-21.6 7.7-31.7-1.3-7.6-4.3-13.2-8.2-14.9l1.2-2.7c4.8 2.2 8.5 8.4 9.9 17.1 2.7 15.6-2.4 28.5-8.5 34.4z"/><g><path class="st5" d="M731.4 596.1c-3.4-8.1-16.2-9.7-29.7-11.4-8.5-1.1-17.2-2.2-24.1-5l1.1-2.8c6.5 2.7 15.1 3.7 23.3 4.8 14.4 1.8 28.1 3.5 32.1 13.2l-2.7 1.2z"/></g><g><path class="st5" d="M750.9 623.6c-20-14.6-45.7-21.5-51.6-20.6l-.4-3c7.1-1.1 33.5 6.3 53.8 21.1l-1.8 2.5z"/></g></g><g><path class="st5" d="M598.3 544.6h-3V23.3c0-6.3-5.1-11.5-11.5-11.5-6.3 0-11.5 5.1-11.5 11.5v135.3h-3V23.3c0-8 6.5-14.5 14.5-14.5s14.5 6.5 14.5 14.5v521.3z"/></g><g><path class="st3" d="M935.2 241.9c-.1 0-.3 0-.4-.1-.2-.2-.2-.5 0-.7 9-9 13.9-20.8 13.9-33.5s-4.9-24.6-13.9-33.5c-18.5-18.5-48.5-18.5-67 0-.2.2-.5.2-.7 0s-.2-.5 0-.7c18.9-18.9 49.6-18.9 68.4 0 9.1 9.1 14.2 21.3 14.2 34.2 0 12.9-5 25.1-14.2 34.2 0 .1-.1.1-.3.1z"/><path class="st6" d="M858.2 252.4c-.1 0-.3 0-.4-.1-.2-.2-.2-.5 0-.7L1008 101.5c.2-.2.5-.2.7 0s.2.5 0 .7L858.6 252.3c-.1.1-.3.1-.4.1zM985.2 204.8c-.1 0-.3 0-.4-.1-.2-.2-.2-.5 0-.7L1135 53.8c.2-.2.5-.2.7 0s.2.5 0 .7L985.6 204.7c-.1.1-.3.1-.4.1z"/></g><g><path class="st6" d="M228.1 611.1c-.1 0-.3 0-.4-.1l-24.3-24.3c-.1-.1-.1-.2-.1-.4s.1-.3.1-.4l50.9-50.9c.2-.2.5-.2.7 0l24.3 24.3c.2.2.2.5 0 .7l-50.9 50.9c0 .1-.1.2-.3.2zm-23.6-24.9l23.6 23.6 50.2-50.2-23.6-23.6-50.2 50.2z"/><circle class="st3" cx="252.5" cy="683.8" r="1.7"/><circle class="st3" cx="277" cy="659.3" r="1.7"/><circle class="st3" cx="301.4" cy="634.9" r="1.7"/><g><circle class="st3" cx="228.1" cy="659.3" r="1.7"/><circle class="st3" cx="252.5" cy="634.9" r="1.7"/><circle class="st3" cx="277" cy="610.4" r="1.7"/></g><g><circle class="st3" cx="203.6" cy="634.9" r="1.7"/><circle class="st3" cx="228.1" cy="610.4" r="1.7"/><circle class="st3" cx="252.5" cy="586" r="1.7"/><g><circle class="st3" cx="179.2" cy="610.4" r="1.7"/><circle class="st3" cx="203.6" cy="586" r="1.7"/><circle class="st3" cx="228.1" cy="561.5" r="1.7"/></g></g><g><circle class="st3" cx="154.7" cy="586" r="1.7"/><circle class="st3" cx="179.2" cy="561.5" r="1.7"/><circle class="st3" cx="203.6" cy="537.1" r="1.7"/><g><circle class="st3" cx="130.3" cy="561.5" r="1.7"/><circle class="st3" cx="154.7" cy="537.1" r="1.7"/><circle class="st3" cx="179.2" cy="512.6" r="1.7"/></g></g></g><g><path class="st3" d="M1059.8 594.9c-36.4 0-66-29.6-66-66s29.6-66 66-66 66 29.6 66 66-29.7 66-66 66zm0-130.9c-35.8 0-65 29.1-65 65s29.1 65 65 65c35.8 0 65-29.1 65-65s-29.2-65-65-65z"/></g><g><path class="st6" d="M1021.8 642.7c-36.4 0-66-29.6-66-66s29.6-66 66-66 66 29.6 66 66-29.7 66-66 66zm0-131c-35.8 0-65 29.1-65 65s29.1 65 65 65c35.8 0 65-29.1 65-65s-29.2-65-65-65z"/></g><g><path class="st6" d="M197.9 236.5c-14 0-27.2-5.5-37.1-15.4-20.5-20.5-20.5-53.8 0-74.2.2-.2.5-.2.7 0l73.5 73.5c.1.1.1.2.1.4s-.1.3-.1.4c-9.9 9.8-23 15.3-37.1 15.3zm-36.7-88.6c-19.7 20.1-19.6 52.5.4 72.5 9.7 9.7 22.7 15.1 36.4 15.1 13.6 0 26.4-5.2 36.1-14.7l-72.9-72.9z"/><path class="st3" d="M225.6 208.8c-13.4 0-26.9-5.1-37.1-15.4-20.5-20.5-20.5-53.8 0-74.2.2-.2.5-.2.7 0l73.5 73.5c.2.2.2.5 0 .7-10.2 10.3-23.7 15.4-37.1 15.4zm-36.8-88.5c-19.7 20.1-19.6 52.5.4 72.5s52.4 20.1 72.5.4l-72.9-72.9z"/><path class="st6" d="M253.2 181.2c-13.4 0-26.9-5.1-37.1-15.4-20.5-20.5-20.5-53.8 0-74.2.2-.2.5-.2.7 0l73.5 73.5c.1.1.1.2.1.4s-.1.3-.1.4c-10.2 10.1-23.6 15.3-37.1 15.3zm-36.8-88.6c-19.7 20.1-19.6 52.5.4 72.5s52.4 20.1 72.5.4l-72.9-72.9z"/></g></svg>