<svg version="1.1" id="upgrades" xmlns="http://www.w3.org/2000/svg" x="0" y="0" viewBox="0 0 1200 800" xml:space="preserve"><style>.st1{fill:#242b2d}.st2{fill:#f7a08b}.st3{fill:#dffdff}.st4{fill:#ffec64}.st5{fill:#fff}.st6{fill:#ebeef2}.st7{fill:#55265e}</style><path d="M792.3 270.1s-91.5 65.4-151.6 66.2-54-38.1-54-38.1S807.1 222.7 747 73.7c-27-38.3-58.4-50.4-102.8-49.5-44.4.9-99.6 28-135.3 108.1-17.1 38.3-23.3 74.5-26.8 102 0 0-38.6 7.9-59.5-9.5s-31.7 0-31.7 0-35.9 45.8-.2 59.7c35.7 13.9 91.5 20.5 91.5 20.5 5.1 24.4 20 65.8 63.5 98.9 65.4 49.7 190.8-4.6 190.8-4.6l51.4-28.9c69.7-43.2 39.5-123.2 4.4-100.3zm-216.1-39.2c2.6-103.7 70.6-149 94.1-126.3s14.8 71.5-29.6 101.9c-44.5 30.5-64.5 24.4-64.5 24.4z" fill="#e24b31"/><path class="st1" d="M703.6 740.9H539.4V478.5h164.2v262.4zm-161.2-3h158.2V481.5H542.4v256.4z"/><path class="st1" d="M718.2 481H529.8c-15.7 0-28.4-12.8-28.4-28.4s12.8-28.4 28.4-28.4h188.4c15.7 0 28.4 12.8 28.4 28.4S733.9 481 718.2 481zm-188.4-53.9c-14 0-25.4 11.4-25.4 25.4s11.4 25.4 25.4 25.4h188.4c14 0 25.4-11.4 25.4-25.4s-11.4-25.4-25.4-25.4H529.8zM718.2 794.9H529.8c-15.7 0-28.4-12.8-28.4-28.4s12.8-28.4 28.4-28.4h188.4c15.7 0 28.4 12.8 28.4 28.4s-12.7 28.4-28.4 28.4zM529.8 741c-14 0-25.4 11.4-25.4 25.4s11.4 25.4 25.4 25.4h188.4c14 0 25.4-11.4 25.4-25.4S732.3 741 718.2 741H529.8z"/><path class="st2" d="M597.1 733.2c-9.9 0-18-8-18-18V542.4c0-9.9 8-18 18-18 9.9 0 18 8 18 18v172.9c0 9.9-8.1 17.9-18 17.9zM667.1 733.2c-9.9 0-18-8-18-18V542.4c0-9.9 8-18 18-18 9.9 0 18 8 18 18v172.9c0 9.9-8.1 17.9-18 17.9z"/><path class="st1" d="M589.1 726.7c-10.7 0-19.5-8.7-19.5-19.5V534.4c0-10.7 8.7-19.5 19.5-19.5 10.7 0 19.5 8.7 19.5 19.5v172.9c0 10.7-8.8 19.4-19.5 19.4zm0-208.8c-9.1 0-16.5 7.4-16.5 16.5v172.9c0 9.1 7.4 16.5 16.5 16.5s16.5-7.4 16.5-16.5V534.4c0-9.1-7.4-16.5-16.5-16.5zM659.1 726.7c-10.7 0-19.5-8.7-19.5-19.5V534.4c0-10.7 8.7-19.5 19.5-19.5 10.7 0 19.5 8.7 19.5 19.5v172.9c0 10.7-8.8 19.4-19.5 19.4zm0-208.8c-9.1 0-16.5 7.4-16.5 16.5v172.9c0 9.1 7.4 16.5 16.5 16.5s16.5-7.4 16.5-16.5V534.4c0-9.1-7.4-16.5-16.5-16.5zM609.6 416.3c-26.4 0-53.7-5.1-74.8-21.2-44-33.4-58.9-75.8-63.9-98.7-8.1-1-58-7.7-90.8-20.4l1.1-2.8c35.1 13.7 90.6 20.3 91.1 20.4l-.1 1.5 1.3-.3c4.7 22.3 19.1 64.7 63 98 33.3 25.3 82.9 22.7 118.7 16.1 38-7.1 68.9-20.1 70.6-20.8l51.3-28.8c25.2-15.6 40.2-38.5 41.2-62.9l3 .1c-1.1 25.4-16.6 49.2-42.7 65.3l-51.6 29c-.3.1-32 13.7-71.2 21-13.8 2.5-29.8 4.5-46.2 4.5zm19.1-88.4c-21.6 0-37-5.2-45.8-15.4-9.6-11.1-7.8-23.9-7.7-24.5l.1-.9.9-.3c.3-.1 30.8-10.6 65.5-31.1 31.9-18.8 74-50.2 93.4-92.5 14.3-31.2 14.5-64.4.7-98.7-25.1-35.5-54.5-49.7-101.5-48.7-26.1.5-91.5 12-134 107.2-17 38.2-23.2 74.4-26.6 101.6l-1.5-.1.3 1.4c-1.1.2-27.6 5.5-48.8-2.9l1.1-2.8c18.1 7.1 40.9 3.8 46.1 2.9 3.5-27.3 9.8-63.3 26.7-101.3C540.8 25 607.5 13.3 634.3 12.8c48.2-.9 78.3 13.6 104.1 50.1l.2.3c14.2 35.2 14 69.2-.7 101.3-19.7 43.1-62.3 74.8-94.6 93.9-31.6 18.6-59.7 29.1-65 31-.2 2.9-.3 12.8 7.1 21.2 8.5 9.8 23.8 14.6 45.5 14.3 47.1-.7 113.8-41.4 140.3-58.8l1.7 2.5c-26.7 17.6-94 58.6-141.9 59.3h-2.3zm-57.4-105c-3.5 0-5.3-.5-5.5-.6l-1.1-.3v-1.1c1.8-71.8 35.2-117.9 65.5-130.3 12.5-5.1 23.9-4.1 31.1 2.9 9.6 9.3 14.2 22.9 13 38.4-2 24.2-18 48.8-42.8 65.9-31.9 21.9-51.4 25.1-60.2 25.1zm-3.6-3.2c4.7.7 24.7 1.3 62.1-24.4 24-16.5 39.6-40.3 41.5-63.6 1.2-14.6-3.1-27.4-12.1-36-6.4-6.1-16.5-7-27.9-2.3-29.2 12-61.4 56.6-63.6 126.3z"/><path class="st3" d="M492.2 402.3l-16.8 10.4-3.4 13.9-22.1 29.8 10.7 8 22.1-29.8 12.4-7.2 5.2-19.1z"/><path class="st1" d="M459.6 459.6l-13.2-9.8 22.8-30.7 3.4-14.2 18.2-11.3 9.7 7.2-5.6 20.7-12.6 7.4-22.7 30.7zm-9-10.4l8.4 6.2 21.4-28.8 12.1-7.1 4.7-17.6-6.4-4.8-15.5 9.6-3.3 13.6-21.4 28.9z"/><path class="st4" d="M465.1 468.9l-30-22.3-34.1 17.7 57 42.3z"/><path class="st1" d="M459 509.3l-60.8-45.2 37-19.2 31.5 23.4-7.7 41zm-55.1-44.8L457 504l6.5-34.4-28.5-21.2-31.1 16.1z"/><path class="st4" d="M465.1 468.9l-30-22.3c.1-4.1 4.8-6.3 8-3.9l23.4 17.4c3.3 2.4 2.5 7.6-1.4 8.8z"/><path class="st1" d="M464.8 470.6l-31.2-23.2v-.8c.1-2.4 1.5-4.6 3.7-5.7 2.2-1.1 4.8-.8 6.8.6l23.4 17.4c2 1.5 2.9 3.9 2.6 6.3s-2.1 4.4-4.4 5.2l-.9.2zM436.7 446l28.6 21.3c.9-.5 1.5-1.4 1.7-2.5.2-1.3-.3-2.6-1.4-3.4L442.2 444c-1.1-.8-2.4-.9-3.7-.3-.9.4-1.6 1.2-1.8 2.3z"/><path transform="rotate(-53.375 413.9 506.392)" class="st4" d="M393.1 483.4h41.6v46.1h-41.6z"/><path class="st1" d="M420.3 539l-39.4-29.3 26.6-35.8 39.4 29.3-26.6 35.8zm-35.2-29.9l34.6 25.7 23-31-34.6-25.7-23 31z"/><g><path class="st1" d="M460.3 504.5l-57.9-43.1c-3.1-2.3-7.6-1.7-9.9 1.5-2.3 3.1-1.7 7.6 1.5 9.9l57.9 43.1c3.1 2.3 7.6 1.7 9.9-1.5 2.3-3.1 1.7-7.6-1.5-9.9z"/><path class="st1" d="M456.1 518.7c-1.8 0-3.6-.5-5.1-1.7l-57.9-43c-3.8-2.8-4.6-8.2-1.8-12 1.4-1.8 3.4-3 5.6-3.4 2.3-.3 4.5.2 6.4 1.6l57.9 43.1c1.8 1.4 3 3.4 3.4 5.6.3 2.3-.2 4.5-1.6 6.4-1.7 2.3-4.3 3.4-6.9 3.4zm-57.9-57.2c-.3 0-.5 0-.8.1-1.5.2-2.8 1-3.7 2.2-1.8 2.5-1.3 6 1.1 7.8l57.9 43.1c2.5 1.8 6 1.3 7.8-1.1.9-1.2 1.3-2.7 1-4.1s-1-2.8-2.2-3.7l-57.9-43.1c-.9-.8-2-1.2-3.2-1.2z"/></g><g><path class="st4" d="M208 651.1L246.6 539c4.7-13.5-2.5-28.3-16.1-33-13.5-4.7-28.3 2.5-33 16.1L159 634.2c-4.7 13.5 2.5 28.3 16.1 33 13.5 4.7 28.2-2.5 32.9-16.1z"/><path class="st1" d="M183.5 670.1c-3 0-6-.5-8.9-1.5-14.3-4.9-21.9-20.6-17-34.9l38.6-112.1c2.4-6.9 7.3-12.5 13.9-15.7 6.6-3.2 14-3.7 21-1.3 14.3 4.9 21.9 20.6 17 34.9l-38.6 112.2c-4 11.3-14.7 18.4-26 18.4zm38.6-164c-3.7 0-7.3.8-10.7 2.5-5.9 2.9-10.3 7.8-12.4 14l-38.6 112.1c-4.4 12.7 2.4 26.7 15.1 31.1 12.7 4.4 26.7-2.4 31.1-15.1l38.6-112.1c4.4-12.7-2.4-26.7-15.1-31.1-2.6-1-5.3-1.4-8-1.4z"/><path class="st5" d="M198.9 648.1c3-8.6-1.6-18-10.2-21s-18 1.6-21 10.2 1.6 18 10.2 21 18-1.6 21-10.2z"/><path class="st1" d="M183.3 660.2c-1.9 0-3.8-.3-5.7-1-9.1-3.1-14-13.1-10.8-22.2 1.5-4.4 4.7-8 8.9-10s8.9-2.3 13.4-.8c9.1 3.1 14 13.1 10.8 22.2-2.5 7.3-9.3 11.8-16.6 11.8zm0-33c-2.3 0-4.6.5-6.8 1.6-3.7 1.8-6.5 5-7.9 8.9-2.8 8.1 1.5 16.9 9.6 19.7 8.1 2.8 16.9-1.5 19.7-9.6 2.8-8.1-1.5-16.9-9.6-19.7-1.6-.6-3.3-.9-5-.9z"/><g><path class="st6" d="M237.6 535.7c-3 8.6-12.4 13.2-21 10.2s-13.2-12.4-10.2-21 12.4-13.2 21-10.2 13.2 12.4 10.2 21z"/><path class="st1" d="M222 547.8c-1.9 0-3.9-.3-5.7-1-4.4-1.5-8-4.7-10-8.9s-2.3-8.9-.8-13.4c1.5-4.4 4.7-8 8.9-10s8.9-2.3 13.4-.8c9.1 3.1 14 13.1 10.8 22.2-1.5 4.4-4.7 8-8.9 10-2.4 1.4-5 1.9-7.7 1.9zm0-32.9c-2.3 0-4.6.5-6.8 1.6-3.7 1.8-6.5 5-7.9 8.9s-1.1 8.1.7 11.8c1.8 3.7 5 6.5 8.9 7.9 8.1 2.8 16.9-1.5 19.7-9.6 2.8-8.1-1.5-16.9-9.6-19.7-1.6-.7-3.3-.9-5-.9z"/></g></g><g><path class="st4" d="M220.1 554.9l177.5-5.1c14.3-.4 25.6-12.4 25.2-26.7-.4-14.3-12.4-25.6-26.7-25.2L218.6 503c-14.3.4-25.6 12.4-25.2 26.7.5 14.3 12.4 25.6 26.7 25.2z"/><path class="st1" d="M219.4 556.4c-7 0-13.7-2.6-18.8-7.5-5.3-5-8.4-11.8-8.6-19.2-.2-7.3 2.4-14.3 7.5-19.6 5-5.3 11.8-8.4 19.2-8.6l177.5-5.1c7.3-.2 14.3 2.4 19.6 7.5 5.3 5 8.4 11.8 8.6 19.2.2 7.3-2.4 14.3-7.5 19.6-5 5.3-11.8 8.4-19.2 8.6l-177.5 5.1h-.8zm177.5-57h-.7l-177.5 5.1c-6.5.2-12.6 2.9-17.1 7.7-4.5 4.7-6.8 11-6.7 17.5.2 6.5 2.9 12.6 7.7 17.1 4.7 4.5 10.9 6.8 17.5 6.7l177.5-5.1c6.5-.2 12.6-2.9 17.1-7.7 4.5-4.7 6.8-11 6.7-17.5-.2-6.5-2.9-12.6-7.7-17.1-4.6-4.3-10.5-6.7-16.8-6.7z"/><path class="st5" d="M219.7 545.3c9.1-.3 16.3-7.9 16-17-.3-9.1-7.9-16.3-17-16-9.1.3-16.3 7.9-16 17 .3 9.1 7.9 16.3 17 16z"/><path class="st1" d="M219.2 546.8c-9.7 0-17.7-7.7-18-17.5-.1-4.8 1.6-9.4 4.9-12.9 3.3-3.5 7.8-5.5 12.6-5.6 4.8-.1 9.4 1.6 12.9 4.9 3.5 3.3 5.5 7.8 5.6 12.6.3 9.9-7.5 18.2-17.5 18.5h-.5zm.1-32.9h-.4c-4 .1-7.7 1.8-10.5 4.7-2.7 2.9-4.2 6.7-4.1 10.7.2 8.3 7.1 14.7 15.4 14.5 8.3-.2 14.8-7.2 14.5-15.4-.1-4-1.8-7.7-4.7-10.5-2.8-2.6-6.4-4-10.2-4z"/><g><path class="st5" d="M397.5 540.2c-9.1.3-16.7-6.9-17-16-.3-9.1 6.9-16.7 16-17 9.1-.3 16.7 6.9 17 16 .2 9.1-6.9 16.7-16 17z"/><path class="st1" d="M397 541.7c-4.6 0-9-1.7-12.3-4.9-3.5-3.3-5.5-7.8-5.6-12.6-.1-4.8 1.6-9.4 4.9-12.9 3.3-3.5 7.8-5.5 12.6-5.6 4.8-.2 9.4 1.6 12.9 4.9 3.5 3.3 5.5 7.8 5.6 12.6.1 4.8-1.6 9.4-4.9 12.9-3.3 3.5-7.8 5.5-12.6 5.6h-.6zm0-33h-.4c-4 .1-7.7 1.8-10.5 4.7-2.7 2.9-4.2 6.7-4.1 10.7.1 4 1.8 7.7 4.7 10.5s6.7 4.2 10.7 4.1c4-.1 7.7-1.8 10.5-4.7s4.2-6.7 4.1-10.7c-.1-4-1.8-7.7-4.7-10.5-2.8-2.6-6.5-4.1-10.3-4.1z"/></g></g><g><path class="st3" d="M406.7 205.1l-61 38.2c10.5 16.9 22 33.4 23.3 46.8l15.6-9.7c-2-7.5.3-8.4 8.3-5.2l30.4-19c-5.9-4.6-2.9-5.2 4-2.5L441 245c-11-5.4-23.4-20.9-34.3-39.9z"/><path class="st1" d="M370 283.5c-.2 0-.5-.1-.7-.2-.5-.2-.8-.7-.8-1.2-1.1-11.3-9.9-25.2-19.2-39.9-1.3-2.1-2.6-4.1-3.9-6.2-.4-.7-.2-1.6.5-2.1l61-38.2c.3-.2.8-.3 1.2-.2.4.1.7.4.9.7 11.7 20.5 23.7 34.4 33.7 39.3.5.2.8.7.8 1.3s-.2 1.1-.7 1.4l-13.8 8.6c-.4.3-.9.3-1.3.1-2.5-1-4.8-2.2-6.9-3.6 1.3 1.2 2.8 2.3 4.4 3.6.4.3.6.8.6 1.3s-.3.9-.7 1.2l-30.4 19c-.4.3-.9.3-1.4.1-4-1.6-7.1-4-10.1-7 1.6 3.5 2.9 6.9 3.8 10.4.2.6-.1 1.3-.7 1.7l-15.6 9.7c-.2.2-.5.2-.7.2zm-21.3-47.7c1 1.6 2.1 3.3 3.1 4.9 8.9 14 17.3 27.4 19.3 38.9l12.7-7.9c-2.1-7.2-5.6-13.9-10.8-22.8-.4-.7-.2-1.6.5-2 .7-.4 1.6-.3 2 .3l1.2 1.6c5.9 7.9 10.2 13.6 16.9 16.6l27.9-17.4c-5.6-4.5-9.8-8.7-11.9-16.3-.2-.7.2-1.5.8-1.8.7-.3 1.5-.1 1.9.6 4 6.3 9.3 10.8 15.6 13.5l11-6.9c-9.8-5.8-21-19.1-31.9-37.9l-58.3 36.6z"/><path class="st4" d="M367.4 171.3l-26.3 16.4-36.5-58.3c-4.5-7.2-2.3-16.8 4.9-21.3s16.8-2.3 21.3 4.9l36.6 58.3z"/><path class="st1" d="M340.6 189.7l-37.3-59.6c-2.4-3.8-3.2-8.4-2.1-12.8 1-4.4 3.7-8.2 7.5-10.6 3.8-2.4 8.4-3.2 12.8-2.1 4.4 1 8.2 3.7 10.6 7.5l37.3 59.6-28.8 18zm-22.9-82.5c-2.6 0-5.1.7-7.4 2.1-3.2 2-5.4 5.1-6.2 8.7s-.2 7.4 1.8 10.6l35.7 57.1 23.7-14.8-35.7-57.1c-2-3.2-5.1-5.4-8.7-6.2-1-.3-2.1-.4-3.2-.4z"/><path class="st6" d="M321.8 127.6c-3.6 2.2-8.3 1.2-10.5-2.4-2.2-3.6-1.1-8.3 2.4-10.5 3.6-2.2 8.3-1.1 10.5 2.4 2.2 3.6 1.2 8.3-2.4 10.5z"/><path class="st1" d="M317.8 129.7c-2.9 0-5.7-1.4-7.3-4-2.5-4-1.3-9.3 2.7-11.9 2-1.2 4.3-1.6 6.5-1.1s4.1 1.9 5.4 3.8c2.5 4 1.3 9.3-2.7 11.9-1.5.9-3.1 1.3-4.6 1.3zm0-15.2c-1.2 0-2.4.3-3.5 1-3.1 1.9-4 6-2.1 9.1 1.9 3.1 6 4 9.1 2.1l.5.8-.5-.8c3.1-1.9 4-6 2.1-9.1-.9-1.5-2.4-2.5-4.1-2.9-.5-.1-1-.2-1.5-.2z"/><g><path class="st1" d="M363.2 161.4L334 179.7c-8.8 5.5-11.5 17.1-6 25.9l5 8 61-38.2-5-8c-5.4-8.8-17-11.4-25.8-6z"/><path class="st1" d="M332.6 215.7l-5.8-9.3c-5.9-9.5-3-22 6.4-27.9l29.2-18.3c9.5-5.9 22-3 27.9 6.4l5.8 9.3-63.5 39.8zm31.4-53L334.8 181c-8.1 5-10.5 15.7-5.5 23.8l4.2 6.8L392 175l-4.2-6.8c-5-8.1-15.7-10.5-23.8-5.5z"/></g><g><path transform="rotate(-32.01 370.346 205.354)" class="st4" d="M334.4 192.6h72v25.5h-72z"/><path class="st1" d="M346.1 237.3L331 213.1l63.6-39.8 15.1 24.2-63.6 39.8zm-11-23.2l11.9 19.1 58.5-36.6-11.9-19.1-58.5 36.6z"/></g><g><path class="st4" d="M136.1 124.2l100 43c13.1 5.7 19.2 21 13.4 34.1-5.7 13.1-21 19.2-34.1 13.4l-100-43c-13.1-5.7-19.2-21-13.4-34.1 5.7-13 21-19.1 34.1-13.4z"/><path class="st1" d="M225.7 218.5c-3.6 0-7.4-.7-10.9-2.3l-100-43c-6.7-2.9-11.9-8.3-14.6-15.1-2.7-6.8-2.6-14.3.4-21 2.9-6.7 8.3-11.9 15.1-14.6 6.8-2.7 14.3-2.6 21 .4l100 43c13.9 6 20.3 22.2 14.2 36.1-4.5 10.3-14.6 16.5-25.2 16.5zm-99.9-94.9c-3 0-6.1.6-9 1.7-6.1 2.4-10.9 7-13.5 13-2.6 6-2.7 12.6-.3 18.7 2.4 6.1 7 10.9 13 13.5l100 43c6 2.6 12.6 2.7 18.7.3 6.1-2.4 10.9-7 13.5-13 5.4-12.4-.3-26.8-12.7-32.2l-100-43c-3.1-1.3-6.4-2-9.7-2z"/><path class="st5" d="M132.2 133c8.3 3.6 12.2 13.3 8.5 21.7-3.6 8.3-13.3 12.2-21.7 8.5-8.3-3.6-12.2-13.3-8.5-21.7 3.6-8.3 13.3-12.1 21.7-8.5z"/><path class="st1" d="M125.6 166.1c-2.4 0-4.9-.5-7.2-1.5-9.1-4-13.3-14.6-9.3-23.7 1.9-4.4 5.4-7.8 9.9-9.6 4.5-1.8 9.4-1.7 13.8.2 9.1 4 13.3 14.6 9.3 23.7-1.9 4.4-5.4 7.8-9.9 9.6-2.2.9-4.4 1.3-6.6 1.3zm0-33c-1.9 0-3.7.3-5.5 1.1-3.7 1.5-6.7 4.3-8.2 8-3.3 7.6.2 16.4 7.8 19.7 3.7 1.6 7.7 1.7 11.5.2 3.7-1.5 6.7-4.3 8.2-8 3.3-7.6-.2-16.4-7.8-19.7-2-.9-4-1.3-6-1.3z"/><g><path class="st6" d="M232.4 176.1c-8.3-3.6-18.1.2-21.7 8.5-3.6 8.3.2 18.1 8.5 21.7 8.3 3.6 18.1-.2 21.7-8.5 3.6-8.3-.2-18.1-8.5-21.7z"/><path class="st1" d="M225.8 208.7c-2.3 0-4.7-.5-6.9-1.5-8.8-3.8-12.9-14.2-9.1-23 1.9-4.3 5.3-7.6 9.6-9.3 4.3-1.7 9.1-1.6 13.4.2l-.4.9.4-.9c4.3 1.9 7.6 5.3 9.3 9.6 1.7 4.3 1.6 9.1-.2 13.4-2.9 6.7-9.4 10.6-16.1 10.6zm0-33c-6 0-11.7 3.5-14.2 9.3-3.4 7.8.2 17 8 20.4 7.8 3.4 17-.2 20.4-8 1.6-3.8 1.7-8 .2-11.8-1.5-3.8-4.4-6.9-8.2-8.5-2-.9-4.1-1.4-6.2-1.4z"/></g></g><g><path class="st4" d="M329.3 144.9l-85.1 67.9c-11.2 8.9-27.5 7-36.4-4.2-8.9-11.2-7-27.5 4.2-36.4l85.1-67.9c11.2-8.9 27.5-7 36.4 4.2 8.9 11.2 7 27.5-4.2 36.4z"/><path class="st1" d="M228.2 220c-1.1 0-2.1-.1-3.2-.2-7.3-.8-13.8-4.5-18.3-10.2-4.6-5.7-6.6-12.9-5.7-20.2s4.5-13.8 10.2-18.3l85.1-67.9c5.7-4.6 12.9-6.6 20.2-5.8 7.3.8 13.8 4.5 18.3 10.2 4.6 5.7 6.6 12.9 5.7 20.2-.8 7.3-4.5 13.8-10.2 18.3L245.2 214c-4.9 3.9-10.9 6-17 6zm84.9-119.8c-5.5 0-10.8 1.8-15.1 5.3l-85 67.9c-5.1 4.1-8.4 9.9-9.1 16.3-.8 6.5 1.1 12.9 5.1 18 4.1 5.1 9.9 8.3 16.3 9.1 6.5.8 12.9-1.1 18-5.1l85.1-67.9c5.1-4.1 8.3-9.9 9.1-16.3.8-6.5-1.1-12.9-5.1-18-4.1-5.1-9.9-8.3-16.3-9.1-1.1-.2-2-.2-3-.2z"/><path class="st5" d="M323.4 137.4c-7.1 5.7-17.5 4.5-23.2-2.7-5.7-7.1-4.5-17.5 2.7-23.2 7.1-5.7 17.5-4.5 23.2 2.7 5.7 7.1 4.5 17.5-2.7 23.2z"/><path class="st1" d="M313.2 142.4c-.7 0-1.4 0-2.1-.1-4.8-.6-9-2.9-12-6.7-3-3.8-4.3-8.5-3.8-13.2s2.9-9 6.7-12 8.5-4.3 13.2-3.8c4.8.6 9 2.9 12 6.7 3 3.8 4.3 8.5 3.8 13.2-.6 4.8-2.9 9-6.7 12-3.1 2.6-7 3.9-11.1 3.9zm0-32.9c-3.4 0-6.6 1.1-9.3 3.2-3.1 2.5-5.1 6-5.6 10s.7 7.9 3.1 11c2.5 3.1 6 5.1 10 5.6s7.9-.7 11-3.1 5.1-6 5.6-10-.7-7.9-3.1-11c-2.5-3.1-6-5.1-10-5.6-.5-.1-1.1-.1-1.7-.1z"/><g><path class="st5" d="M238.2 205.4c7.1-5.7 8.3-16 2.7-23.2-5.7-7.1-16-8.3-23.2-2.7-7.1 5.7-8.3 16-2.7 23.2 5.7 7.2 16.1 8.4 23.2 2.7z"/><path class="st1" d="M228 210.5c-.7 0-1.4 0-2.1-.1-4.8-.6-9-2.9-12-6.7-3-3.8-4.3-8.5-3.8-13.2s2.9-9 6.7-12 8.5-4.3 13.2-3.8c4.8.6 9 2.9 12 6.7 3 3.8 4.3 8.5 3.8 13.2-.6 4.8-2.9 9-6.7 12-3.2 2.6-7.1 3.9-11.1 3.9zm-.1-33c-3.4 0-6.6 1.1-9.3 3.2-3.1 2.5-5.1 6-5.6 10s.7 7.9 3.1 11c2.5 3.1 6 5.1 10 5.6s7.9-.7 11-3.1c3.1-2.5 5.1-6 5.6-10s-.7-7.9-3.1-11c-2.5-3.1-6-5.1-10-5.6-.5 0-1.1-.1-1.7-.1z"/></g></g></g><g><path class="st4" d="M1036.9 77l96.1-16.8c14.1-2.5 23.6-15.9 21.1-30s-15.9-23.6-30-21.1L1028 25.9c-14.1 2.5-23.6 15.9-21.1 30s15.9 23.6 30 21.1z"/><path class="st1" d="M1032.4 78.9c-13.1 0-24.7-9.4-27-22.7-2.6-14.9 7.4-29.1 22.3-31.8l96.1-16.8c14.9-2.6 29.1 7.4 31.8 22.3 2.6 14.9-7.4 29.1-22.3 31.8l-96.1 16.8c-1.6.3-3.2.4-4.8.4zm4.2-3.4l.3 1.5-.3-1.5 96.1-16.8c13.3-2.3 22.2-15 19.9-28.3-2.3-13.3-15-22.2-28.3-19.9l-96.1 16.8c-6.4 1.1-12 4.7-15.8 10-3.8 5.3-5.2 11.8-4.1 18.3 2.4 13.3 15.1 22.2 28.3 19.9z"/><path class="st6" d="M1035.1 67.6c9-1.6 15-10.1 13.4-19.1-1.6-9-10.1-15-19.1-13.4-9 1.6-15 10.1-13.4 19.1 1.6 9 10.2 15 19.1 13.4z"/><path class="st1" d="M1032.3 68.8c-3.6 0-7-1.1-10-3.2-3.8-2.7-6.4-6.7-7.2-11.3-.8-4.6.2-9.2 2.9-13.1s6.7-6.4 11.3-7.2c9.5-1.7 18.6 4.7 20.2 14.2 1.7 9.5-4.7 18.6-14.2 20.2-1 .4-2 .4-3 .4zm0-32.9c-.9 0-1.8.1-2.7.2-8.4 1.5-14.1 9.5-12.6 17.9.7 4.1 3 7.6 6.4 10 3.4 2.4 7.5 3.3 11.6 2.6 8.4-1.5 14.1-9.5 12.6-17.9-1.4-7.5-7.9-12.8-15.3-12.8z"/><g><path class="st5" d="M1131.5 50.8c-9 1.6-17.5-4.4-19.1-13.4-1.6-9 4.4-17.5 13.4-19.1 9-1.6 17.5 4.4 19.1 13.4 1.6 8.9-4.4 17.5-13.4 19.1z"/><path class="st1" d="M1128.6 52.5c-3.7 0-7.2-1.1-10.3-3.3-3.9-2.8-6.6-6.9-7.4-11.6-1.7-9.8 4.9-19.1 14.6-20.8 4.7-.8 9.5.2 13.4 3 3.9 2.8 6.6 6.9 7.4 11.6.8 4.7-.2 9.5-3 13.4-2.8 3.9-6.9 6.6-11.6 7.4-1 .2-2 .3-3.1.3zm.1-33c-.9 0-1.7.1-2.6.2-8.1 1.4-13.6 9.2-12.2 17.3.7 3.9 2.9 7.4 6.1 9.7 3.3 2.3 7.2 3.2 11.2 2.5 3.9-.7 7.4-2.9 9.7-6.1 2.3-3.3 3.2-7.2 2.5-11.2-.7-3.9-2.9-7.4-6.1-9.7-2.6-1.7-5.6-2.7-8.6-2.7z"/></g><g><path class="st4" d="M1007.9 226.8L1004 49.3c-.3-14.3 11-26.2 25.4-26.5 14.3-.3 26.2 11 26.5 25.4l3.9 177.5c.3 14.3-11 26.2-25.4 26.5-14.4.3-26.2-11.1-26.5-25.4z"/><path class="st1" d="M1033.8 253.7c-7.1 0-13.8-2.7-19-7.6-5.3-5.1-8.3-11.9-8.5-19.2l-3.9-177.5c-.3-15.1 11.7-27.7 26.8-28h.6c14.9 0 27.1 11.9 27.4 26.8l3.9 177.5c.2 7.3-2.5 14.3-7.6 19.6-5.1 5.3-11.9 8.3-19.2 8.5-.1-.1-.3-.1-.5-.1zm-3.9-229.5h-.5c-13.5.3-24.2 11.5-23.9 25l3.9 177.5c.1 6.5 2.8 12.6 7.5 17.1 4.7 4.5 10.9 6.9 17.4 6.8 6.5-.1 12.6-2.8 17.1-7.5 4.5-4.7 6.9-10.9 6.8-17.4l-3.9-177.5c-.3-13.3-11.2-24-24.4-24z"/><path class="st6" d="M1017.4 226.7c-.2-9.1 7-16.6 16.1-16.8 9.1-.2 16.6 7 16.8 16.1.2 9.1-7 16.6-16.1 16.8-9 .2-16.6-7-16.8-16.1z"/><path class="st1" d="M1033.9 243.8c-4.5 0-8.8-1.7-12.1-4.9-3.4-3.2-5.3-7.6-5.4-12.2-.2-9.6 7.5-17.7 17.1-17.9 4.6-.1 9.1 1.6 12.5 4.8s5.3 7.6 5.4 12.2-1.6 9.1-4.8 12.5-7.6 5.3-12.2 5.4c-.2.1-.4.1-.5.1zm-15.5-17.1c.1 4.1 1.8 8 4.8 10.8 3 2.9 6.9 4.4 11 4.3 4.1-.1 8-1.8 10.8-4.8 2.9-3 4.4-6.9 4.3-11-.1-4.1-1.8-8-4.8-10.8-3-2.9-6.9-4.4-11-4.3-8.5.1-15.3 7.2-15.1 15.8z"/><g><path class="st5" d="M1013.5 48.9c.2 9.1 7.7 16.3 16.8 16.1 9.1-.2 16.3-7.7 16.1-16.8-.2-9.1-7.7-16.3-16.8-16.1-9 .2-16.3 7.7-16.1 16.8z"/><path class="st1" d="M1030 66.5c-4.7 0-9.1-1.8-12.4-5-3.5-3.3-5.4-7.8-5.5-12.6-.2-9.9 7.7-18.2 17.6-18.4 10-.2 18.2 7.7 18.4 17.6.1 4.8-1.7 9.4-5 12.8-3.3 3.5-7.8 5.4-12.6 5.5-.2.1-.4.1-.5.1zm-15-17.6c.1 4 1.7 7.7 4.6 10.5 2.9 2.8 6.7 4.3 10.7 4.2 4-.1 7.7-1.7 10.5-4.6 2.8-2.9 4.2-6.7 4.2-10.7-.2-8.3-7-14.8-15.3-14.7-8.3.2-14.8 7-14.7 15.3z"/></g></g><g><path class="st3" d="M824.2 227.3l34.2 31-10.9 40.6-38 10.6-8.6-7.7 22.3-18.3-20.7-18.7-16 23.9-8.5-7.8 6.8-38.8z"/><path class="st1" d="M802.1 303.2l-10.5-9.5 22.3-18.3-18.1-16.4-16 24-10.5-9.5 7.2-40.6 41-15.4 35.5 32.2-11.3 42.3-39.6 11.2zm-5.9-9.4l6.7 6.1 36.4-10.2 10.4-38.9-32.9-29.8-37.7 14.1-6.6 37.2 6.7 6.1 16-24 23.3 21.1-22.3 18.3z"/><path transform="rotate(-47.809 848.502 219.63)" class="st4" d="M827.7 196.6h41.6v46.1h-41.6z"/><path class="st1" d="M851.7 252.6l-36.4-33 30-33.1 36.4 33-30 33.1zm-32.1-33.2l32 29 25.9-28.6-32-29-25.9 28.6z"/><g><path class="st1" d="M862.1 253.7L812.7 209c-2.9-2.6-7.4-2.4-10 .5-2.6 2.9-2.4 7.4.5 10l49.4 44.7c2.9 2.6 7.4 2.4 10-.5 2.7-2.9 2.4-7.4-.5-10z"/><path class="st1" d="M857.4 267c-2 0-3.9-.7-5.4-2.1l-49.4-44.7c-1.6-1.5-2.5-3.4-2.6-5.6-.1-2.2.6-4.2 2.1-5.8 3-3.3 8.1-3.6 11.4-.6l49.4 44.7c1.6 1.5 2.5 3.4 2.6 5.6.1 2.2-.6 4.2-2.1 5.8-1.5 1.6-3.4 2.5-5.6 2.6-.2.1-.3.1-.4.1zM808 208.1c-1.7 0-3.3.7-4.5 2-1.1 1.2-1.7 2.8-1.6 4.4s.8 3.1 2 4.2l49.4 44.7c1.2 1.1 2.8 1.6 4.4 1.6 1.6-.1 3.1-.8 4.2-2s1.7-2.8 1.6-4.4c-.1-1.6-.8-3.1-2-4.2l-49.4-44.7c-1.2-1.1-2.6-1.6-4.1-1.6z"/></g></g><g><path class="st4" d="M1031.9 256.5l-175.5-26.8c-14.2-2.2-23.9-15.4-21.7-29.6 2.2-14.2 15.4-23.9 29.6-21.7l175.5 26.8c14.2 2.2 23.9 15.4 21.7 29.6-2.2 14.2-15.5 23.9-29.6 21.7z"/><path class="st1" d="M1035.8 258.3c-1.4 0-2.8-.1-4.2-.3l-175.5-26.8c-7.2-1.1-13.6-5-18-10.9-4.3-5.9-6.1-13.1-5-20.4 2.3-15 16.3-25.3 31.3-23l175.5 26.8c15 2.3 25.3 16.3 23 31.3-1.1 7.2-5 13.6-10.9 18-4.7 3.5-10.4 5.3-16.2 5.3zm-3.7-3.2c6.5 1 12.9-.6 18.2-4.5 5.3-3.9 8.7-9.6 9.7-16 2-13.3-7.2-25.8-20.5-27.8L863.9 180c-13.3-2-25.8 7.2-27.8 20.5-1 6.5.6 12.9 4.5 18.2s9.6 8.7 16 9.7l175.5 26.7z"/><path class="st5" d="M1033.4 247.1c-9-1.4-15.2-9.8-13.8-18.8 1.4-9 9.8-15.2 18.8-13.8 9 1.4 15.2 9.8 13.8 18.8-1.4 9-9.8 15.2-18.8 13.8z"/><path class="st1" d="M1035.9 248.8c-.9 0-1.8-.1-2.7-.2-9.8-1.5-16.6-10.7-15.1-20.5.7-4.7 3.3-8.9 7.1-11.8 3.9-2.8 8.6-4 13.4-3.3 4.7.7 8.9 3.3 11.8 7.1 2.8 3.9 4 8.6 3.3 13.4-1.4 8.9-9.1 15.3-17.8 15.3zm-2.2-3.2c8.2 1.2 15.8-4.4 17.1-12.6.6-4-.4-7.9-2.7-11.1-2.4-3.2-5.9-5.3-9.8-5.9-4-.6-7.9.4-11.1 2.7-3.2 2.4-5.3 5.9-5.9 9.8-1.5 8.2 4.2 15.9 12.4 17.1z"/><g><path class="st5" d="M857.6 220.3c9 1.4 17.4-4.8 18.8-13.8 1.4-9-4.8-17.4-13.8-18.8-9-1.4-17.4 4.8-18.8 13.8-1.4 9 4.8 17.4 13.8 18.8z"/><path class="st1" d="M860.1 222c-.9 0-1.8-.1-2.7-.2-9.8-1.5-16.6-10.7-15.1-20.5s10.7-16.6 20.5-15.1c9.8 1.5 16.6 10.7 15.1 20.5-1.4 8.9-9 15.3-17.8 15.3zm-2.2-3.2c8.2 1.2 15.8-4.4 17.1-12.6 1.2-8.2-4.4-15.8-12.6-17.1-8.2-1.2-15.8 4.4-17.1 12.6-1.2 8.2 4.4 15.9 12.6 17.1z"/></g></g></g><g><path class="st6" d="M514.4 325.2l45.8 5.7 33.6 49.4-23.4 30c-26.3-5-53.2-28.6-72.5-55.9l16.5-29.2z"/><path class="st1" d="M571.1 412l-.9-.2c-24.2-4.6-51.7-25.7-73.4-56.5l-.5-.8 17.4-31 47.5 5.9 34.6 50.9-24.7 31.7zm-71.3-57.6c21 29.3 47 49.5 70.1 54.3l22.1-28.4-32.6-47.9-44.1-5.5-15.5 27.5z"/></g><g><circle class="st6" cx="519" cy="333.6" r="3.2"/><path class="st1" d="M519 338.2c-2.6 0-4.7-2.1-4.7-4.7s2.1-4.7 4.7-4.7 4.7 2.1 4.7 4.7-2.1 4.7-4.7 4.7zm0-6.3c-.9 0-1.7.7-1.7 1.7s.7 1.7 1.7 1.7 1.7-.7 1.7-1.7-.8-1.7-1.7-1.7z"/></g><g><circle class="st6" cx="555.7" cy="337.2" r="3.2"/><path class="st1" d="M555.7 341.8c-2.6 0-4.7-2.1-4.7-4.7s2.1-4.7 4.7-4.7 4.7 2.1 4.7 4.7-2.1 4.7-4.7 4.7zm0-6.3c-.9 0-1.7.7-1.7 1.7s.7 1.7 1.7 1.7 1.7-.7 1.7-1.7-.8-1.7-1.7-1.7z"/></g><g><circle class="st6" cx="583.8" cy="380.1" r="3.2"/><path class="st1" d="M583.8 384.8c-2.6 0-4.7-2.1-4.7-4.7s2.1-4.7 4.7-4.7 4.7 2.1 4.7 4.7-2.1 4.7-4.7 4.7zm0-6.3c-.9 0-1.7.7-1.7 1.7 0 .9.7 1.7 1.7 1.7s1.7-.7 1.7-1.7-.8-1.7-1.7-1.7z"/></g><g><circle class="st6" cx="567.4" cy="402.4" r="3.2"/><path class="st1" d="M567.4 407.1c-2.6 0-4.7-2.1-4.7-4.7s2.1-4.7 4.7-4.7 4.7 2.1 4.7 4.7-2.2 4.7-4.7 4.7zm0-6.4c-.9 0-1.7.7-1.7 1.7s.7 1.7 1.7 1.7 1.7-.7 1.7-1.7-.8-1.7-1.7-1.7z"/></g><g><circle class="st6" cx="505.8" cy="354.3" r="3.2"/><path class="st1" d="M505.8 358.9c-2.6 0-4.7-2.1-4.7-4.7s2.1-4.7 4.7-4.7 4.7 2.1 4.7 4.7-2.2 4.7-4.7 4.7zm0-6.3c-.9 0-1.7.7-1.7 1.7s.7 1.7 1.7 1.7c.9 0 1.7-.7 1.7-1.7s-.8-1.7-1.7-1.7z"/></g><g><path class="st7" d="M366.3 303.4c-1.7 0-3.2-1.4-3.2-3.2s1.4-3.2 3.2-3.2 3.2 1.4 3.2 3.2-1.5 3.2-3.2 3.2zm0-5.3c-1.2 0-2.2 1-2.2 2.2s1 2.2 2.2 2.2c1.2 0 2.2-1 2.2-2.2s-1-2.2-2.2-2.2z"/></g><g><path class="st7" d="M357 280.8c-1.7 0-3.2-1.4-3.2-3.2s1.4-3.2 3.2-3.2 3.2 1.4 3.2 3.2-1.5 3.2-3.2 3.2zm0-5.3c-1.2 0-2.2 1-2.2 2.2s1 2.2 2.2 2.2c1.2 0 2.2-1 2.2-2.2s-1-2.2-2.2-2.2z"/></g><g><path class="st7" d="M430.4 214.2c-1.7 0-3.2-1.4-3.2-3.2s1.4-3.2 3.2-3.2 3.2 1.4 3.2 3.2-1.4 3.2-3.2 3.2zm0-5.4c-1.2 0-2.2 1-2.2 2.2s1 2.2 2.2 2.2 2.2-1 2.2-2.2-1-2.2-2.2-2.2z"/></g><g><path class="st2" d="M197.4 393.8h-69.6c-.2 0-.4-.1-.5-.3-.1-.2 0-.4.1-.5l69.6-69.6c.1-.1.4-.2.5-.1.2.1.3.3.3.5v69.6c.1.1-.1.4-.4.4zm-68.4-1h67.9v-67.9L129 392.8z"/><path class="st2" d="M170.8 365.9h-69.6c-.2 0-.4-.1-.5-.3-.1-.2 0-.4.1-.5l69.6-69.6c.1-.1.4-.2.5-.1.2.1.3.3.3.5v69.6c.1.2-.1.4-.4.4zm-68.4-1h67.9V297l-67.9 67.9z"/><path class="st2" d="M144.2 338H74.6c-.2 0-.4-.1-.5-.3-.1-.2 0-.4.1-.5l69.6-69.6c.1-.1.4-.2.5-.1.2.1.3.3.3.5v69.6c.1.2-.1.4-.4.4zm-68.4-1h67.9v-67.9L75.8 337z"/><g><path class="st2" d="M855.9 678.2c-.1 0-.3-.1-.4-.1l-24.3-24.3c-.1-.1-.1-.2-.1-.4s.1-.3.1-.4l86.3-86.3c.2-.2.5-.2.7 0l24.3 24.3c.2.2.2.5 0 .7L856.2 678c-.1.1-.2.2-.3.2zm-23.7-24.9l23.6 23.6 85.6-85.6-23.6-23.6-85.6 85.6z"/><circle class="st7" cx="966.5" cy="371.3" r="1.7"/><circle class="st7" cx="942" cy="395.7" r="1.7"/><circle class="st7" cx="917.6" cy="420.2" r="1.7"/><circle class="st7" cx="893.1" cy="444.6" r="1.7"/><circle class="st7" cx="868.7" cy="469.1" r="1.7"/><circle class="st7" cx="844.2" cy="493.5" r="1.7"/><circle class="st7" cx="819.8" cy="518" r="1.7"/><g><circle class="st7" cx="990.9" cy="395.7" r="1.7"/><circle class="st7" cx="966.5" cy="420.2" r="1.7"/><circle class="st7" cx="942" cy="444.6" r="1.7"/><circle class="st7" cx="917.6" cy="469.1" r="1.7"/><circle class="st7" cx="893.1" cy="493.5" r="1.7"/><circle class="st7" cx="868.7" cy="518" r="1.7"/><circle class="st7" cx="844.2" cy="542.4" r="1.7"/></g><g><circle class="st7" cx="1015.4" cy="420.2" r="1.7"/><circle class="st7" cx="990.9" cy="444.6" r="1.7"/><circle class="st7" cx="966.5" cy="469.1" r="1.7"/><circle class="st7" cx="942" cy="493.5" r="1.7"/><circle class="st7" cx="917.6" cy="518" r="1.7"/><circle class="st7" cx="893.1" cy="542.4" r="1.7"/><circle class="st7" cx="868.7" cy="566.9" r="1.7"/><g><circle class="st7" cx="1039.8" cy="444.6" r="1.7"/><circle class="st7" cx="1015.4" cy="469.1" r="1.7"/><circle class="st7" cx="990.9" cy="493.5" r="1.7"/><circle class="st7" cx="966.5" cy="518" r="1.7"/><circle class="st7" cx="942" cy="542.4" r="1.7"/><circle class="st7" cx="917.6" cy="566.9" r="1.7"/><circle class="st7" cx="893.1" cy="591.3" r="1.7"/></g></g><g><circle class="st7" cx="1064.3" cy="469.1" r="1.7"/><circle class="st7" cx="1039.8" cy="493.5" r="1.7"/><circle class="st7" cx="1015.4" cy="518" r="1.7"/><circle class="st7" cx="990.9" cy="542.4" r="1.7"/><circle class="st7" cx="966.5" cy="566.9" r="1.7"/><circle class="st7" cx="942" cy="591.3" r="1.7"/><circle class="st7" cx="917.6" cy="615.8" r="1.7"/><g><circle class="st7" cx="1088.7" cy="493.5" r="1.7"/><circle class="st7" cx="1064.3" cy="518" r="1.7"/><circle class="st7" cx="1039.8" cy="542.4" r="1.7"/><circle class="st7" cx="1015.4" cy="566.9" r="1.7"/><circle class="st7" cx="990.9" cy="591.3" r="1.7"/><circle class="st7" cx="966.5" cy="615.8" r="1.7"/><circle class="st7" cx="942" cy="640.2" r="1.7"/></g></g><g><circle class="st7" cx="1113.2" cy="518" r="1.7"/><circle class="st7" cx="1088.7" cy="542.4" r="1.7"/><circle class="st7" cx="1064.3" cy="566.9" r="1.7"/><circle class="st7" cx="1039.8" cy="591.3" r="1.7"/><circle class="st7" cx="1015.4" cy="615.8" r="1.7"/><circle class="st7" cx="990.9" cy="640.2" r="1.7"/><circle class="st7" cx="966.5" cy="664.7" r="1.7"/></g></g></g></svg>