<svg version="1.1" id="routing" xmlns="http://www.w3.org/2000/svg" x="0" y="0" viewBox="0 0 1200 800" xml:space="preserve"><style>.st0{fill:#c4c6c6}.st1{fill:#242b2d}.st2{fill:#ebeef2}.st3{fill:#c7f9de}.st4{fill:#fff}.st7{fill:#f7a08b}.st8{fill:#55265e}</style><path class="st0" d="M609 708.3H100v-1h509c32.8 0 59.5-26.7 59.5-59.5V450.2h1v197.6c0 33.3-27.2 60.5-60.5 60.5z"/><path class="st0" d="M609 788.3H100v-1h509c76.9 0 139.5-62.6 139.5-139.5V450.2h1v197.6c0 77.4-63.1 140.5-140.5 140.5zM668.5 302.8h1v64.5h-1zM748.5 302.8h1v64.5h-1zM763.7 220.1l-.8-.6c11.5-13.5 28.3-21.3 46-21.3h305.7v1H809c-17.5 0-34 7.6-45.3 20.9zM674.9 220.2l-1-.3c8.3-28.7 26-54.6 49.8-72.9 24.7-18.9 54.1-28.9 85.2-28.9h305.7v1H809c-30.9 0-60.1 9.9-84.6 28.7-23.8 18.2-41.4 43.9-49.5 72.4zM799.6 451h1v284.7h-1zM879.6 451h1v284.7h-1z"/><path class="st0" d="M800.6 367h-1v-17.2c0-26.1-21.2-47.3-47.3-47.3H649v-1h103.4c26.6 0 48.3 21.7 48.3 48.3V367zM880.6 367h-1v-17.2c0-70.2-57.1-127.3-127.3-127.3H645.7v-1h106.7c70.7 0 128.3 57.6 128.3 128.3V367zM475.9 367h-1v-17.2c0-26.6 21.7-48.3 48.3-48.3H566v1h-42.8c-26.1 0-47.3 21.2-47.3 47.3V367zM395.9 366.4h-1v-16.5c0-70.7 57.6-128.3 128.3-128.3h33.5v1h-33.5c-70.2 0-127.3 57.1-127.3 127.3v16.5zM312.4 649.4c-54.8-15.7-93.1-66.4-93.1-123.4v-75.9h1V526c0 56.5 38 106.9 92.4 122.4l-.3 1zM347.6 654.3h-2.8v-1h2.8c70.2 0 127.3-57.1 127.3-127.3v-75.2h1V526c0 70.8-57.5 128.3-128.3 128.3zM347.6 574.3c-26.6 0-48.3-21.7-48.3-48.3v-77.2h1V526c0 26.1 21.2 47.3 47.3 47.3 26.1 0 47.3-21.2 47.3-47.3v-76.5h1V526c0 26.7-21.7 48.3-48.3 48.3zM299.3 11.7h1v354.7h-1zM219.3 11.7h1v352h-1z"/><g><path class="st1" d="M514.2 662.5c-16.2 0-29.4-13.2-29.4-29.4s13.2-29.4 29.4-29.4 29.4 13.2 29.4 29.4-13.1 29.4-29.4 29.4zm0-56.8c-15.1 0-27.4 12.3-27.4 27.4s12.3 27.4 27.4 27.4 27.4-12.3 27.4-27.4-12.2-27.4-27.4-27.4z"/><path class="st2" d="M473.5 593v83.8"/><path class="st1" d="M472.5 593h2v83.8h-2z"/><path class="st2" d="M394.6 593v83.8"/><path class="st1" d="M393.6 593h2v83.8h-2z"/><g><path class="st2" d="M649.9 511.2h-83.8"/><path class="st1" d="M566.1 510.2h83.8v2h-83.8z"/></g><g><path class="st2" d="M639.8 589.4l-78.4-29.6"/><path transform="rotate(-69.316 600.677 574.644)" class="st1" d="M599.6 532.7h2v83.8h-2z"/></g><g><path class="st2" d="M574.5 661.2l-38.6-74.5"/><path transform="rotate(-27.365 555.117 623.946)" class="st1" d="M554.2 582.1h2v83.8h-2z"/></g></g><g><path class="st1" d="M376.2 438.8c-16.2 0-29.4-13.2-29.4-29.4S360 380 376.2 380s29.4 13.2 29.4 29.4c.1 16.3-13.1 29.4-29.4 29.4zm0-56.8c-15.1 0-27.4 12.3-27.4 27.4s12.3 27.4 27.4 27.4 27.4-12.3 27.4-27.4-12.2-27.4-27.4-27.4z"/><path class="st2" d="M869 366v83.8"/><path class="st1" d="M868 366h2v83.8h-2z"/><path class="st2" d="M415.7 366v83.8"/><path class="st1" d="M414.7 366h2v83.8h-2z"/><path class="st2" d="M336.8 366v83.8"/><path class="st1" d="M335.8 366h2v83.8h-2z"/><path class="st2" d="M257.9 366v83.8"/><path class="st1" d="M256.9 366h2v83.8h-2z"/><g><path class="st2" d="M178.8 366v83.8"/><path class="st1" d="M177.8 366h2v83.8h-2z"/></g><g><path class="st2" d="M99.9 366v83.8"/><path class="st1" d="M98.9 366h2v83.8h-2z"/></g><g><path class="st2" d="M711.8 366v83.8"/><path class="st1" d="M710.8 366h2v83.8h-2z"/></g><g><path class="st2" d="M790.3 366v83.8"/><path class="st1" d="M789.3 366h2v83.8h-2z"/><g><path class="st2" d="M494.8 366v83.8"/><path class="st1" d="M493.8 366h2v83.8h-2z"/></g></g></g><g><path class="st1" d="M607 270.1c-16.2 0-29.4-13.2-29.4-29.4s13.2-29.4 29.4-29.4 29.4 13.2 29.4 29.4-13.2 29.4-29.4 29.4zm0-56.8c-15.1 0-27.4 12.3-27.4 27.4s12.3 27.4 27.4 27.4 27.4-12.3 27.4-27.4-12.3-27.4-27.4-27.4z"/><path class="st2" d="M477.8 109v83.8"/><path class="st1" d="M476.8 109h2v83.8h-2z"/><path class="st2" d="M649.9 274.6h-83.8"/><path class="st1" d="M566.1 273.6h83.8v2h-83.8z"/><path class="st2" d="M561.5 121.7l-29.6 78.4"/><path transform="rotate(-69.329 546.66 160.928)" class="st1" d="M504.8 159.9h83.8v2h-83.8z"/><path class="st2" d="M633.2 187.1l-74.4 38.5"/><path transform="rotate(-27.352 595.996 206.326)" class="st1" d="M554.1 205.4h83.8v2h-83.8z"/><g><path class="st1" d="M204.2 214.2h-33.9V88h33.9v126.2zm-31.9-2h29.9V90h-29.9v122.2z"/></g><g><path class="st2" d="M399.2 111.3v83.8"/><path class="st1" d="M398.2 111.3h2v83.8h-2z"/></g><g><path class="st2" d="M320.3 111.3v83.8"/><path class="st1" d="M319.3 111.3h2v83.8h-2z"/></g><g><path class="st2" d="M241.4 111.3v83.8"/><path class="st1" d="M240.4 111.3h2v83.8h-2z"/></g></g><g><path class="st3" d="M653.2 374.7h-80V258.1c0-33.1-26.9-60-60-60H209.7v-80h303.5c77.2 0 140 62.8 140 140v116.6z"/><path class="st3" d="M71.4 374h855.1v80H71.4z"/><path class="st3" d="M513.8 680.3H351.5v-80h162.3c33.1 0 60-26.9 60-60v-86.6h80v86.6c0 77.2-62.8 140-140 140z"/></g><g><path class="st1" d="M507.8 675.8H344v-83h163.8c32.3 0 58.5-26.2 58.5-58.5v-85.6h3v85.6c0 33.9-27.6 61.5-61.5 61.5H347v77h160.8c76.4 0 138.5-62.1 138.5-138.5v-85.6h3v85.6c0 78-63.4 141.5-141.5 141.5z"/><circle class="st4" cx="518.2" cy="637.1" r="28.4"/><path class="st1" d="M514.2 663c-16.5 0-29.9-13.4-29.9-29.9s13.4-29.9 29.9-29.9 29.9 13.4 29.9 29.9-13.4 29.9-29.9 29.9zm0-56.8c-14.8 0-26.9 12.1-26.9 26.9s12.1 26.9 26.9 26.9 26.9-12.1 26.9-26.9-12-26.9-26.9-26.9z"/><path class="st2" d="M473.5 593v83.8"/><path class="st1" d="M472 593h3v83.8h-3z"/><path class="st2" d="M394.6 593v83.8"/><path class="st1" d="M393.1 593h3v83.8h-3z"/><g><path class="st2" d="M649.9 511.2h-83.8"/><path class="st1" d="M566.1 509.7h83.8v3h-83.8z"/></g><g><path class="st2" d="M639.8 589.4l-78.4-29.6"/><path transform="rotate(-69.316 600.677 574.644)" class="st1" d="M599.1 532.7h3v83.8h-3z"/></g><g><path class="st2" d="M574.5 661.2l-38.6-74.5"/><path transform="rotate(-27.365 555.117 623.946)" class="st1" d="M553.7 582.1h3v83.8h-3z"/></g><g><path class="st1" d="M922.1 449.5H63.9v-83H922v83zm-855.2-3H919v-77H66.9v77z"/><circle class="st4" cx="380.2" cy="413.4" r="28.4"/><path class="st1" d="M376.2 439.3c-16.5 0-29.9-13.4-29.9-29.9s13.4-29.9 29.9-29.9 29.9 13.4 29.9 29.9c.1 16.5-13.4 29.9-29.9 29.9zm0-56.8c-14.8 0-26.9 12.1-26.9 26.9 0 14.8 12.1 26.9 26.9 26.9s26.9-12.1 26.9-26.9c.1-14.8-12-26.9-26.9-26.9z"/><path class="st2" d="M869 366v83.8"/><path class="st1" d="M867.5 366h3v83.8h-3z"/><path class="st2" d="M415.7 366v83.8"/><path class="st1" d="M414.2 366h3v83.8h-3z"/><path class="st2" d="M336.8 366v83.8"/><path class="st1" d="M335.3 366h3v83.8h-3z"/><path class="st2" d="M257.9 366v83.8"/><path class="st1" d="M256.4 366h3v83.8h-3z"/><g><path class="st2" d="M178.8 366v83.8"/><path class="st1" d="M177.3 366h3v83.8h-3z"/></g><g><path class="st2" d="M99.9 366v83.8"/><path class="st1" d="M98.4 366h3v83.8h-3z"/></g><g><path class="st2" d="M711.8 366v83.8"/><path class="st1" d="M710.3 366h3v83.8h-3z"/></g><g><path class="st2" d="M790.3 366v83.8"/><path class="st1" d="M788.8 366h3v83.8h-3z"/><g><path class="st2" d="M494.8 366v83.8"/><path class="st1" d="M493.3 366h3v83.8h-3z"/></g></g></g><g><path class="st1" d="M648.7 367.7h-3V252.1c0-76.4-62.1-138.5-138.5-138.5h-302v77h302c33.9 0 61.5 27.6 61.5 61.5v115.6h-3V252.1c0-32.3-26.2-58.5-58.5-58.5h-305v-83h305c78 0 141.5 63.5 141.5 141.5v115.6z"/><circle class="st4" cx="611" cy="244.7" r="28.4"/><path class="st1" d="M607 270.6c-16.5 0-29.9-13.4-29.9-29.9s13.4-29.9 29.9-29.9 29.9 13.4 29.9 29.9-13.4 29.9-29.9 29.9zm0-56.8c-14.8 0-26.9 12.1-26.9 26.9s12.1 26.9 26.9 26.9 26.9-12.1 26.9-26.9-12.1-26.9-26.9-26.9z"/><path class="st2" d="M477.8 109v83.8"/><path class="st1" d="M476.3 109h3v83.8h-3z"/><path class="st2" d="M649.9 274.6h-83.8"/><path class="st1" d="M566.1 273.1h83.8v3h-83.8z"/><path class="st2" d="M561.5 121.7l-29.6 78.4"/><path transform="rotate(-69.318 546.647 160.905)" class="st1" d="M504.8 159.4h83.8v3h-83.8z"/><path class="st2" d="M633.2 187.1l-74.4 38.5"/><path transform="rotate(-27.365 595.991 206.32)" class="st1" d="M554.1 204.9h83.8v3h-83.8z"/><g><path class="st1" d="M204.7 214.7h-34.9V87.5h34.9v127.2zm-31.9-3h28.9V90.5h-28.9v121.2z"/></g><g><path class="st2" d="M399.2 111.3v83.8"/><path class="st1" d="M397.7 111.3h3v83.8h-3z"/></g><g><path class="st2" d="M320.3 111.3v83.8"/><path class="st1" d="M318.8 111.3h3v83.8h-3z"/></g><g><path class="st2" d="M241.4 111.3v83.8"/><path class="st1" d="M239.9 111.3h3v83.8h-3z"/></g></g></g><g><path d="M659.3 417.8s-27.6 19.7-45.8 20c-18.2.3-16.3-11.5-16.3-11.5s66.5-22.8 48.4-67.8c-8.2-11.6-17.6-15.2-31-14.9-13.4.3-30.1 8.4-40.8 32.6-5.1 11.6-7 22.5-8.1 30.8 0 0-11.7 2.4-18-2.9s-9.6 0-9.6 0-10.8 13.8 0 18c10.8 4.2 27.6 6.2 27.6 6.2 1.5 7.4 6 19.9 19.2 29.9 19.7 15 57.6-1.4 57.6-1.4l15.5-8.7c21-13.1 11.9-37.3 1.3-30.3zm-65.2-11.9c.8-31.3 21.3-45 28.4-38.1 7.1 6.8 4.5 21.6-8.9 30.8s-19.5 7.3-19.5 7.3z" fill="#e24b31"/><path class="st1" d="M603.2 462c-8.3 0-16.7-1.7-23.2-6.7-13.1-10-17.8-22.5-19.5-29.7-3.9-.5-17.5-2.5-26.9-6.1-2.9-1.1-4.7-3-5.4-5.5-1.7-6.1 4.2-14 4.8-14.7.3-.5 1.8-2.4 4.5-2.9 2.3-.4 4.8.5 7.3 2.6 4.7 3.9 12.8 3.1 15.7 2.7 1.1-8.2 3-18.8 8.1-30.1 13.3-29.8 33.9-33.4 42.2-33.5 14.9-.3 24.3 4.2 32.3 15.6l.2.3c4.4 10.9 4.3 21.5-.2 31.4-6.1 13.2-19.1 23-29 28.8-8.8 5.2-16.5 8.2-19.1 9.2 0 1.1.3 3.2 1.9 5 2.4 2.7 6.7 4 12.9 3.9 17.5-.3 44.6-19.5 44.9-19.7 2.6-1.7 5.4-1.9 7.8-.7 3.4 1.8 5.6 6.1 5.9 11.3.3 8.5-4.7 16.8-13.4 22.2l-15.7 8.8c-1.3.4-18.7 7.8-36.1 7.8zm-40-38c1.4 6.6 5.6 19.1 18.6 29 9.7 7.4 24.4 6.6 35 4.7 11.1-2.1 20.2-5.8 21.1-6.2l15.4-8.7c7.7-4.8 12.2-12.1 11.9-19.5-.2-4.1-1.8-7.5-4.2-8.7-1.5-.8-3.1-.6-4.8.5-1.5 1.1-28.3 20-46.6 20.3-7.2.1-12.3-1.6-15.2-5-3.2-3.7-2.6-8.1-2.6-8.2l.1-.9.9-.3c.4-.1 36.3-12.7 47.3-36.8 4.2-9.1 4.2-18.8.2-28.9-7.3-10.3-15.9-14.4-29.7-14.2-7.7.2-26.9 3.5-39.5 31.8-5.1 11.4-6.9 22.2-8 30.4l-1.5-.1.3 1.4c-.5.1-12.4 2.5-19.2-3.2-1.8-1.5-3.5-2.2-4.9-1.9-1.6.3-2.4 1.6-2.4 1.6l-.1.1c-1.6 2-5.4 8.1-4.3 12.2.4 1.6 1.6 2.8 3.6 3.5 10.5 4.1 27.1 6.1 27.2 6.1l-.1 1.5 1.5-.5zm28.4-20.4c-1.1 0-1.8-.2-2-.2l-1.1-.3V402c.6-22.1 11-36.4 20.4-40.3 4.2-1.7 8-1.3 10.5 1.1 3.1 3 4.6 7.4 4.2 12.4-.6 7.6-5.6 15.3-13.4 20.7-9.6 6.6-15.7 7.7-18.6 7.7zm22.3-40c-1.1 0-2.4.3-3.7.8-8.4 3.4-17.6 16.2-18.5 36.2 2.2 0 7.8-.9 17.1-7.2 7-4.8 11.5-11.7 12.1-18.4.3-4.1-.8-7.6-3.3-10-1.1-1-2.3-1.4-3.7-1.4z"/></g><g><path class="st2" d="M1168.3 510.9H929.6c-10.5 0-19-8.5-19-19V322.4c0-10.5 8.5-19 19-19h238.7c10.5 0 19 8.5 19 19v169.5c0 10.5-8.5 19-19 19z"/><path class="st1" d="M1168.3 512.4H929.6c-11.3 0-20.5-9.2-20.5-20.5V322.4c0-11.3 9.2-20.5 20.5-20.5h238.7c11.3 0 20.5 9.2 20.5 20.5v169.5c0 11.3-9.2 20.5-20.5 20.5zM929.6 304.9c-9.6 0-17.5 7.9-17.5 17.5v169.5c0 9.6 7.9 17.5 17.5 17.5h238.7c9.6 0 17.5-7.9 17.5-17.5V322.4c0-9.6-7.9-17.5-17.5-17.5H929.6z"/><path fill="#dffdff" d="M939.5 336.2h230.9V490H939.5z"/><path class="st1" d="M1165.9 485.6H932V328.7h233.9v156.9zm-230.9-3h227.9V331.7H935v150.9z"/><path class="st2" d="M1098.1 563.7h-94.9l20-52.9h54.9z"/><path class="st1" d="M1100.2 565.2H1001l21.1-55.9h56.9l21.2 55.9zm-94.8-3h90.5l-18.9-49.9h-52.8l-18.8 49.9z"/><g><path class="st2" d="M1089.9 576.6h-80.5c-7.2 0-13-5.8-13-13h106.4c.1 7.2-5.7 13-12.9 13z"/><path class="st1" d="M1089.9 578.1h-80.5c-8 0-14.5-6.5-14.5-14.5v-1.5h109.4v1.5c.1 8-6.4 14.5-14.4 14.5zm-91.8-12.9c.7 5.6 5.5 10 11.4 10h80.5c5.8 0 10.6-4.3 11.4-10H998.1z"/></g><g><path class="st1" d="M1042 429.7c-5.6 0-11.2-2.1-15.5-6.4L999 395.8c-8.6-8.6-8.6-22.5 0-31.1l3-3c4.1-4.1 9.7-6.4 15.5-6.4s11.4 2.3 15.5 6.4l25 25-2.1 2.1-25-25c-3.6-3.6-8.3-5.6-13.4-5.6s-9.8 2-13.4 5.6l-3 3c-7.4 7.4-7.4 19.4 0 26.8l27.5 27.5c7.4 7.4 19.4 7.4 26.8 0l3-3c3.6-3.6 5.6-8.3 5.6-13.4h3c0 5.9-2.3 11.4-6.4 15.5l-3 3c-4.3 4.4-9.9 6.5-15.6 6.5z"/><path class="st1" d="M1077.4 465c-5.6 0-11.3-2.1-15.5-6.4l-25-25 2.1-2.1 25 25c7.4 7.4 19.4 7.4 26.8 0l3-3c3.6-3.6 5.6-8.3 5.6-13.4s-2-9.8-5.6-13.4l-27.5-27.5c-7.4-7.4-19.4-7.4-26.8 0l-3 3c-3.6 3.6-5.6 8.3-5.6 13.4h-3c0-5.9 2.3-11.4 6.4-15.5l3-3c8.6-8.6 22.5-8.6 31.1 0l27.5 27.5c4.1 4.1 6.4 9.7 6.4 15.5s-2.3 11.4-6.4 15.5l-3 3c-4.2 4.3-9.9 6.4-15.5 6.4z"/></g></g><g><path class="st7" d="M961.1 698.6h-.2c-.2-.1-.3-.3-.3-.5V639c0-.3.2-.5.5-.5h59.1c.2 0 .4.1.5.3.1.2 0 .4-.1.5l-59.1 59.1c-.1.1-.3.2-.4.2zm.5-59.2v57.4l57.4-57.4h-57.4z"/><path class="st8" d="M983.7 722.2h-.2c-.2-.1-.3-.3-.3-.5v-59.1c0-.3.2-.5.5-.5h59.1c.2 0 .4.1.5.3.1.2 0 .4-.1.5L984.1 722c-.1.2-.2.2-.4.2zm.5-59.1v57.4l57.4-57.4h-57.4z"/><path class="st7" d="M1006.3 745.9h-.2c-.2-.1-.3-.3-.3-.5v-59.1c0-.3.2-.5.5-.5h59.1c.2 0 .4.1.5.3.1.2 0 .4-.1.5l-59.1 59.1c-.1.2-.2.2-.4.2zm.5-59.1v57.4l57.4-57.4h-57.4z"/></g><g><path class="st8" d="M119.3 616.1c-2.3 0-4.7-.9-6.5-2.7-3.6-3.6-3.6-9.4 0-12.9 3.6-3.6 9.4-3.6 12.9 0 3.6 3.6 3.6 9.4 0 12.9-1.7 1.8-4 2.7-6.4 2.7zm-5.8-14.9c-3.2 3.2-3.2 8.3 0 11.5 3.2 3.2 8.3 3.2 11.5 0 3.2-3.2 3.2-8.3 0-11.5-3.1-3.1-8.3-3.1-11.5 0z"/></g><g><path class="st8" d="M140.5 594.9c-2.3 0-4.7-.9-6.5-2.7-3.6-3.6-3.6-9.4 0-12.9 3.6-3.6 9.4-3.6 12.9 0 3.6 3.6 3.6 9.4 0 12.9-1.7 1.8-4 2.7-6.4 2.7zm0-17.3c-2.1 0-4.2.8-5.8 2.4-3.2 3.2-3.2 8.3 0 11.5 3.2 3.2 8.3 3.2 11.5 0 3.2-3.2 3.2-8.3 0-11.5-1.5-1.6-3.6-2.4-5.7-2.4z"/></g><g><path class="st8" d="M119.3 573.7c-2.3 0-4.7-.9-6.5-2.7-3.6-3.6-3.6-9.4 0-12.9 3.6-3.6 9.4-3.6 12.9 0 3.6 3.6 3.6 9.4 0 12.9-1.7 1.8-4 2.7-6.4 2.7zm-5.8-14.9c-3.2 3.2-3.2 8.3 0 11.5 3.2 3.2 8.3 3.2 11.5 0 3.2-3.2 3.2-8.3 0-11.5-3.1-3.2-8.3-3.2-11.5 0z"/></g><g><path class="st7" d="M706.7 103.3c-2.3 0-4.7-.9-6.5-2.7-3.6-3.6-3.6-9.4 0-12.9 3.6-3.6 9.4-3.6 12.9 0 3.6 3.6 3.6 9.4 0 12.9-1.7 1.8-4.1 2.7-6.4 2.7zm0-17.3c-2.1 0-4.2.8-5.8 2.4-3.2 3.2-3.2 8.3 0 11.5 3.2 3.2 8.3 3.2 11.5 0 3.2-3.2 3.2-8.3 0-11.5-1.5-1.6-3.6-2.4-5.7-2.4z"/></g><g><path class="st7" d="M726.7 83.3c-2.3 0-4.7-.9-6.5-2.7-3.6-3.6-3.6-9.4 0-12.9 3.6-3.6 9.4-3.6 12.9 0 3.6 3.6 3.6 9.4 0 12.9-1.7 1.8-4.1 2.7-6.4 2.7zm0-17.3c-2.1 0-4.2.8-5.8 2.4-3.2 3.2-3.2 8.3 0 11.5 3.2 3.2 8.3 3.2 11.5 0 3.2-3.2 3.2-8.3 0-11.5-1.5-1.6-3.6-2.4-5.7-2.4z"/></g><g><path class="st1" d="M66.6 470.4H31.7V343.2h34.9v127.2zm-31.9-3h28.9V346.2H34.7v121.2z"/></g><g><path class="st1" d="M346.3 699.6h-34.9V572.4h34.9v127.2zm-31.9-3h28.9V575.4h-28.9v121.2z"/></g></svg>