<?xml version="1.0" encoding="utf-8"?>
<!-- Generator: Adobe Illustrator 24.0.2, SVG Export Plug-In . SVG Version: 6.00 Build 0)  -->
<svg version="1.1" id="build" xmlns="http://www.w3.org/2000/svg" xmlns:xlink="http://www.w3.org/1999/xlink" x="0px" y="0px"
	 viewBox="0 0 1200 800" style="enable-background:new 0 0 1200 800;" xml:space="preserve">
<style type="text/css">
	.st0{fill:none;}
	.st1{fill:none;stroke:#10AAFF;stroke-width:0.3;}
	.st2{fill:none;stroke:#231F20;stroke-width:0.3;}
	.st3{fill:none;stroke:#242B2D;stroke-width:3;stroke-miterlimit:10;}
	.st4{display:none;}
	.st5{display:inline;}
	.st6{fill:#242B2D;stroke:#242B2D;stroke-width:2;stroke-miterlimit:10;}
	.st7{fill:#FFEC64;}
	.st8{display:inline;fill:#FFFFFF;}
	.st9{fill:none;stroke:#242B2D;stroke-width:2;stroke-miterlimit:10;}
	.st10{fill:#10AAFF;}
	.st11{enable-background:new    ;}
	.st12{fill:#FFFFFF;}
	.st13{fill:#D3D3D3;}
	.st14{fill:#EBEEF2;}
	.st15{fill:#DFFDFF;}
	.st16{opacity:0.75;fill:url(#SVGID_2_);enable-background:new    ;}
	.st17{fill:#7F7F7F;}
	.st18{fill:#E24B31;}
	.st19{fill:#242B2D;}
	.st20{fill:none;stroke:#10AAFF;stroke-width:0.5;stroke-miterlimit:10;}
	.st21{fill:none;stroke:#10AAFF;stroke-width:1.1217;stroke-miterlimit:10;}
	.st22{fill:#DFFDFF;stroke:#10AAFF;stroke-width:0.5609;stroke-miterlimit:10;}
	.st23{fill:none;stroke:#10AAFF;stroke-width:0.5609;stroke-miterlimit:10;}
	.st24{fill:none;stroke:#10AAFF;stroke-width:2.0259;stroke-miterlimit:10;}
	.st25{font-family:'Inter-Medium';}
	.st26{font-size:7.852px;}
	.st27{fill:none;stroke:#10AAFF;stroke-width:0.4359;stroke-miterlimit:10;}
	.st28{fill:none;stroke:#10AAFF;stroke-width:0.4566;stroke-miterlimit:10;}
	.st29{fill:none;stroke:#10AAFF;stroke-width:0.4496;stroke-miterlimit:10;}
	.st30{font-size:4.4869px;}
	.st31{fill:none;stroke:#10AAFF;stroke-width:0.7508;stroke-miterlimit:10;}
	.st32{font-size:6px;}
	.st33{fill:#F7A08B;stroke:#242B2D;stroke-miterlimit:10;}
	.st34{fill:#F7A08B;}
	.st35{fill:#55265E;}
	.st36{fill:#ECEEF1;}
	.st37{fill:#BA8449;}
	.st38{fill:#FFF8EE;}
	.st39{fill:none;stroke:#151819;stroke-width:1.8061;stroke-miterlimit:10;}
	.st40{fill:#ED7D66;}
	.st41{fill:#BA8449;stroke:#BA8449;stroke-width:0.7224;stroke-miterlimit:10;}
	.st42{fill:#FFF8EE;stroke:#BA8449;stroke-width:0.7224;stroke-linecap:round;stroke-linejoin:round;stroke-miterlimit:10;}
	.st43{display:none;fill:#BA8449;stroke:#BA8449;stroke-width:0.7224;stroke-miterlimit:10;}
	
		.st44{display:none;fill:#BA8449;stroke:#BA8449;stroke-width:0.7224;stroke-linecap:round;stroke-linejoin:round;stroke-miterlimit:10;}
	.st45{fill:#BA8449;stroke:#BA8449;stroke-width:0.7224;stroke-linecap:round;stroke-linejoin:round;stroke-miterlimit:10;}
	.st46{display:none;fill:#FFF8EE;}
	.st47{fill:#E5D0AE;}
	.st48{fill:#333333;}
</style>
<pattern  y="800" width="56.7" height="56.7" patternUnits="userSpaceOnUse" id="SVGID_1_" viewBox="56.9 -113.7 56.7 56.7" style="overflow:visible;">
	<g>
		<rect x="56.9" y="-113.7" class="st0" width="56.7" height="56.7"/>
		<g>
			<rect x="56.9" y="-113.7" class="st0" width="56.7" height="56.7"/>
			<g>
				<line class="st1" x1="99.5" y1="-170.6" x2="99.5" y2="-113.4"/>
				<line class="st1" x1="71.1" y1="-113.4" x2="71.1" y2="-170.6"/>
			</g>
			<g>
				<line class="st1" x1="170.6" y1="-71.1" x2="113.4" y2="-71.1"/>
				<line class="st1" x1="113.4" y1="-99.5" x2="170.6" y2="-99.5"/>
			</g>
			<g>
				<line class="st1" x1="113.9" y1="-71.1" x2="56.7" y2="-71.1"/>
				<line class="st1" x1="56.7" y1="-99.5" x2="113.9" y2="-99.5"/>
				<line class="st1" x1="99.5" y1="-113.9" x2="99.5" y2="-56.7"/>
				<line class="st1" x1="71.1" y1="-56.7" x2="71.1" y2="-113.9"/>
			</g>
			<g>
				<line class="st1" x1="57.2" y1="-71.1" x2="0" y2="-71.1"/>
				<line class="st1" x1="0" y1="-99.5" x2="57.2" y2="-99.5"/>
			</g>
			<g>
				<line class="st2" x1="99.5" y1="-57.2" x2="99.5" y2="0"/>
				<line class="st2" x1="71.1" y1="0" x2="71.1" y2="-57.2"/>
			</g>
		</g>
	</g>
</pattern>
<g>
	<g id="Assembly_Line">
		<g>
			<g>
				<g>
					<g>
						<polyline class="st3" points="1002.9,601 1002.9,674.1 957.3,674.1 957.3,601 						"/>
						<rect x="975" y="674.5" class="st3" width="10.2" height="32.4"/>
						<rect x="965.4" y="706.9" class="st3" width="29.4" height="7.9"/>
					</g>
					<g>
						<polyline class="st3" points="241.7,602.1 241.7,674.1 196.1,674.1 196.1,602.1 						"/>
						<rect x="213.8" y="674.5" class="st3" width="10.2" height="32.4"/>
						<rect x="204.2" y="706.9" class="st3" width="29.4" height="7.9"/>
					</g>
				</g>
				<g>
					<g class="st4">
						<g class="st5">
							<g>
								<g>
									<polyline class="st6" points="211.5,462.8 211.5,443.5 182,443.5 182,462.8 									"/>
									<polyline class="st6" points="272,462.8 272,443.5 242.5,443.5 242.5,462.8 									"/>
									<polyline class="st6" points="332.5,462.8 332.5,443.5 303.1,443.5 303.1,462.8 									"/>
									<polyline class="st6" points="393,462.8 393,443.5 363.6,443.5 363.6,462.8 									"/>
								</g>
								<g>
									<polyline class="st6" points="177.6,585.4 177.6,604.6 207,604.6 207,585.4 									"/>
									<polyline class="st6" points="238.1,585.4 238.1,604.6 267.5,604.6 267.5,585.4 									"/>
									<polyline class="st6" points="298.6,585.4 298.6,604.6 328.1,604.6 328.1,585.4 									"/>
								</g>
								<polyline class="st6" points="149.2,471.3 134.3,456.4 113.4,477.2 128.4,492.1 								"/>
								<polyline class="st6" points="149,576.6 134.3,591.4 113.4,570.5 128.2,555.7 								"/>
								<polyline class="st6" points="120.5,509.2 100.1,509.2 100.1,538.6 120.5,538.6 								"/>
							</g>
							<g>
								<g>
									<polyline class="st6" points="1001,462.8 1001,443.5 1030.4,443.5 1030.4,462.8 									"/>
									<polyline class="st6" points="940.5,462.8 940.5,443.5 969.9,443.5 969.9,462.8 									"/>
									<polyline class="st6" points="879.9,462.8 879.9,443.5 909.4,443.5 909.4,462.8 									"/>
									<polyline class="st6" points="819.4,462.8 819.4,443.5 848.8,443.5 848.8,462.8 									"/>
								</g>
								<g>
									<polyline class="st6" points="1030.4,585.4 1030.4,604.6 1001,604.6 1001,585.4 									"/>
									<polyline class="st6" points="969.9,585.4 969.9,604.6 940.5,604.6 940.5,585.4 									"/>
									<path class="st6" d="M901.6,585.4"/>
									<polyline class="st6" points="909.4,585.4 909.4,604.6 879.9,604.6 879.9,585.4 									"/>
								</g>
								<polyline class="st6" points="1059.3,470.9 1073.7,456.4 1094.6,477.2 1080.1,491.7 								"/>
								<polyline class="st6" points="1059,576.7 1073.7,591.4 1094.6,570.5 1079.8,555.9 								"/>
								<polyline class="st6" points="1087.5,509.2 1107.9,509.2 1107.9,538.6 1087.5,538.6 								"/>
							</g>
						</g>
						<g class="st5">
							<path class="st7" d="M813.6,462.7h213.7c33.8,0,61.2,27.4,61.2,61.2l0,0c0,33.8-27.4,61.2-61.2,61.2H847.5"/>
							<path class="st7" d="M364.1,585.2H180.7c-33.8,0-61.2-27.4-61.2-61.2l0,0c0-33.8,27.4-61.2,61.2-61.2h217.4"/>
						</g>
						<circle class="st8" cx="174.8" cy="522.9" r="32.2"/>
						
							<ellipse transform="matrix(0.1602 -0.9871 0.9871 0.1602 346.5967 1453.1757)" class="st8" cx="1027.3" cy="522.9" rx="32.2" ry="32.2"/>
					</g>
					<g>
						<path class="st3" d="M809.6,458.7h213.7c33.8,0,61.2,27.4,61.2,61.2l0,0c0,33.8-27.4,61.2-61.2,61.2H843.5"/>
						<path class="st3" d="M360.1,581.2H176.7c-33.8,0-61.2-27.4-61.2-61.2l0,0c0-33.8,27.4-61.2,61.2-61.2h217.4"/>
					</g>
					<g>
						<circle class="st3" cx="170.8" cy="518.9" r="32.2"/>
						<circle class="st3" cx="1023.3" cy="518.9" r="32.2"/>
						<g>
							<g>
								<polyline class="st3" points="207.5,458.8 207.5,439.5 178,439.5 178,458.8 								"/>
								<polyline class="st3" points="268,458.8 268,439.5 238.5,439.5 238.5,458.8 								"/>
								<polyline class="st3" points="328.5,458.8 328.5,439.5 299.1,439.5 299.1,458.8 								"/>
								<polyline class="st3" points="389,458.8 389,439.5 359.6,439.5 359.6,458.8 								"/>
							</g>
							<g>
								<polyline class="st3" points="173.6,581.4 173.6,600.6 203,600.6 203,581.4 								"/>
								<polyline class="st3" points="234.1,581.4 234.1,600.6 263.5,600.6 263.5,581.4 								"/>
								<polyline class="st3" points="294.6,581.4 294.6,600.6 324.1,600.6 324.1,581.4 								"/>
							</g>
							<polyline class="st3" points="145.2,467.3 130.3,452.4 109.4,473.2 124.4,488.1 							"/>
							<polyline class="st3" points="145,572.6 130.3,587.4 109.4,566.5 124.2,551.7 							"/>
							<polyline class="st3" points="116.5,505.2 96.1,505.2 96.1,534.6 116.5,534.6 							"/>
						</g>
						<g>
							<g>
								<polyline class="st3" points="997,458.8 997,439.5 1026.4,439.5 1026.4,458.8 								"/>
								<polyline class="st3" points="936.5,458.8 936.5,439.5 965.9,439.5 965.9,458.8 								"/>
								<polyline class="st3" points="875.9,458.8 875.9,439.5 905.4,439.5 905.4,458.8 								"/>
								<polyline class="st3" points="815.4,458.8 815.4,439.5 844.8,439.5 844.8,458.8 								"/>
							</g>
							<g>
								<polyline class="st3" points="1026.4,581.4 1026.4,600.6 997,600.6 997,581.4 								"/>
								<polyline class="st3" points="965.9,581.4 965.9,600.6 936.5,600.6 936.5,581.4 								"/>
								<path class="st9" d="M897.6,581.4"/>
								<polyline class="st3" points="905.4,581.4 905.4,600.6 875.9,600.6 875.9,581.4 								"/>
							</g>
							<polyline class="st3" points="1055.3,466.9 1069.7,452.4 1090.6,473.2 1076.1,487.7 							"/>
							<polyline class="st3" points="1055,572.7 1069.7,587.4 1090.6,566.5 1075.8,551.9 							"/>
							<polyline class="st3" points="1083.5,505.2 1103.9,505.2 1103.9,534.6 1083.5,534.6 							"/>
						</g>
					</g>
				</g>
				<g>
					<path class="st10" d="M426,424.4H286.4c-15.4,0-27.9-12.5-27.9-27.9l0,0c0-15.4,12.5-27.9,27.9-27.9H426
						c15.4,0,27.9,12.5,27.9,27.9l0,0C454,411.9,441.5,424.4,426,424.4z"/>
					<g class="st11">
						<path class="st12" d="M293.5,380h3.9v22.5h11.7v3.4h-15.6V380z"/>
						<path class="st12" d="M312.5,396.3c0-6,3.6-10.1,9.1-10.1c5.5,0,9.1,4,9.1,10.1c0,6-3.6,10-9.1,10
							C316,406.3,312.5,402.3,312.5,396.3z M326.8,396.3c0-3.7-1.7-6.9-5.2-6.9c-3.6,0-5.2,3.2-5.2,6.9c0,3.7,1.7,6.9,5.2,6.9
							C325.1,403.1,326.8,400,326.8,396.3z"/>
						<path class="st12" d="M334.7,409.2l3.3-1.3c0.7,1.1,1.9,2.7,5,2.7c2.9,0,5-1.3,5-4.3v-3.8h-0.2c-0.7,1.2-2.1,3.3-5.6,3.3
							c-4.6,0-8.1-3.3-8.1-9.5c0-6.2,3.5-9.9,8.1-9.9c3.6,0,5,2.2,5.6,3.4h0.3v-3.1h3.7v19.9c0,5-3.8,7.2-8.8,7.2
							C338.3,413.6,335.7,411.6,334.7,409.2z M348,396.1c0-3.9-1.8-6.6-5.1-6.6c-3.4,0-5.1,2.9-5.1,6.6c0,3.8,1.8,6.4,5.1,6.4
							C346.1,402.5,348,400.1,348,396.1z"/>
						<path class="st12" d="M356.3,381.3c0-1.2,1.1-2.3,2.4-2.3c1.3,0,2.4,1,2.4,2.3c0,1.2-1.1,2.3-2.4,2.3
							C357.3,383.5,356.3,382.5,356.3,381.3z M356.8,386.5h3.8v19.4h-3.8V386.5z"/>
						<path class="st12" d="M369.4,405.9h-3.8v-19.4h3.6v3.2h0.2c0.9-2.1,2.8-3.4,5.7-3.4c4,0,6.6,2.5,6.6,7.3v12.4h-3.8V394
							c0-2.8-1.6-4.5-4.1-4.5c-2.6,0-4.5,1.8-4.5,4.9V405.9z"/>
					</g>
					<path class="st3" d="M422,420.4H282.4c-15.4,0-27.9-12.5-27.9-27.9l0,0c0-15.4,12.5-27.9,27.9-27.9H422
						c15.4,0,27.9,12.5,27.9,27.9l0,0C450,407.9,437.5,420.4,422,420.4z"/>
				</g>
				<g>
					<rect x="401.7" y="192.2" class="st13" width="415.1" height="306.9"/>
					<polygon class="st13" points="816.8,499.1 401.7,499.1 367.7,539.7 850.9,539.7 					"/>
					<rect x="367.7" y="539.7" class="st13" width="483.2" height="202.2"/>
				</g>
				<g>
					<circle class="st14" cx="678.4" cy="215.9" r="14.1"/>
					<circle class="st14" cx="728.9" cy="215.9" r="14.1"/>
					<circle class="st14" cx="779.4" cy="215.9" r="14.1"/>
				</g>
				<rect x="394.7" y="185.2" class="st3" width="415.1" height="306.9"/>
				<polygon class="st3" points="809.8,492.1 394.7,492.1 360.7,532.7 843.9,532.7 				"/>
				<rect x="360.7" y="532.7" class="st3" width="483.2" height="202.2"/>
				<rect x="389.1" y="562.5" class="st14" width="190.2" height="151"/>
				<rect x="383.1" y="556.5" class="st3" width="190.2" height="151"/>
				<g>
					<polyline class="st3" points="808.9,578.4 808.9,595 665.5,595 665.5,578.4 					"/>
					<polyline class="st3" points="808.9,623.8 808.9,640.4 665.5,640.4 665.5,623.8 					"/>
					<polyline class="st3" points="808.9,669.2 808.9,685.8 665.5,685.8 665.5,669.2 					"/>
				</g>
				<g>
					<circle class="st3" cx="677.4" cy="212.9" r="14.1"/>
					<circle class="st3" cx="727.9" cy="212.9" r="14.1"/>
					<circle class="st3" cx="778.4" cy="212.9" r="14.1"/>
				</g>
				<circle class="st3" cx="403.3" cy="689.4" r="9.2"/>
				<circle class="st3" cx="550.8" cy="689.4" r="9.2"/>
				<circle class="st3" cx="403.3" cy="577" r="9.2"/>
				<circle class="st3" cx="550.8" cy="577" r="9.2"/>
				<g>
					<rect x="425.3" y="258.8" class="st15" width="368" height="217.4"/>
					<pattern  id="SVGID_2_" xlink:href="#SVGID_1_" patternTransform="matrix(1 0 0 -1 2696.7002 -17588.8008)">
					</pattern>
					<rect x="425.3" y="258.8" class="st16" width="368" height="217.4"/>
				</g>
				<rect x="418.3" y="253.8" class="st3" width="368" height="217.4"/>
				<g>
					<g>
						<rect x="544.4" y="168" class="st17" width="123.8" height="21.1"/>
						<path class="st18" d="M659.9,168H552.7v-5.3c0-29.6,24-53.6,53.6-53.6l0,0c29.6,0,53.6,24,53.6,53.6L659.9,168L659.9,168z"/>
						<path class="st12" d="M622.8,144.5c0,0-9.8,7-16.3,7.1s-5.8-4.1-5.8-4.1s23.7-8.1,17.2-24.1c-2.9-4.1-6.3-5.4-11.1-5.3
							s-10.7,3-14.5,11.6c-1.8,4.1-2.5,8-2.9,11l0,0c0,0-4.1,0.8-6.4-1c-2.2-1.9-3.4,0-3.4,0s-3.9,4.9,0,6.4
							c3.8,1.5,9.8,2.2,9.8,2.2l0,0c0.6,2.6,2.2,7.1,6.8,10.6c7,5.3,20.5-0.5,20.5-0.5l5.5-3.1C629.9,150.6,626.6,142,622.8,144.5z
							 M599.6,140.3c0.3-11.1,7.6-16,10.1-13.6s1.6,7.7-3.2,11C601.8,140.9,599.6,140.3,599.6,140.3z"/>
					</g>
					<rect x="540.4" y="164" class="st3" width="123.8" height="21.1"/>
					<path class="st3" d="M655.9,164H548.7v-5.3c0-29.6,24-53.6,53.6-53.6l0,0c29.6,0,53.6,24,53.6,53.6L655.9,164L655.9,164z"/>
					<g>
						<line class="st3" x1="602.3" y1="72.7" x2="602.3" y2="25.1"/>
						<line class="st3" x1="670.6" y1="92.9" x2="704.2" y2="59.3"/>
						<line class="st3" x1="534" y1="92.9" x2="500.3" y2="59.3"/>
					</g>
				</g>
			</g>
			<g>
				<rect x="178.2" y="374.2" class="st15" width="49.2" height="49.2"/>
				<path class="st3" d="M224.4,371.2h-49.2v-8.6c0-13.6,11-24.6,24.6-24.6l0,0c13.6,0,24.6,11,24.6,24.6L224.4,371.2L224.4,371.2z"
					/>
				<path class="st19" d="M207.8,389.1c0-4.4-3.6-8-8-8s-8,3.6-8,8c0,3.1,1.7,5.7,4.3,7.1l-1.3,16.2h10l-1.3-16.2
					C206.1,394.9,207.8,392.2,207.8,389.1z"/>
				<rect x="175.2" y="371.2" class="st3" width="49.2" height="49.2"/>
			</g>
			<g>
				<line class="st9" x1="542.4" y1="573.3" x2="559.2" y2="580.8"/>
				<line class="st3" x1="554.2" y1="680.9" x2="547.4" y2="698"/>
				<line class="st3" x1="394.4" y1="579.5" x2="412.1" y2="574.5"/>
				<line class="st3" x1="411.3" y1="693.9" x2="395.2" y2="685"/>
			</g>
		</g>
		<g>
			<g>
				<g>
					<g>
						<g>
							<path class="st10" d="M592.8,285.5c18.3,40.7,30.5,48.3,38,50.4c1.8,0.5,3.5,0.7,5.2,0.7c7.5,0,14.8-4.4,23.1-10.1
								c3-2,5.9-4.9,8.7-8.7v-0.6l0,0c-2.8,3.8-5.9,6.9-8.9,9c-10.2,6.9-18.7,12-28.1,9.3c-11.9-3.4-23.9-19.3-37.8-50.2
								c-1.9-4.2-4.9-7.8-9.3-10.9h-0.6C587.7,277.7,590.8,281.2,592.8,285.5z"/>
							<path class="st10" d="M632.4,314.6c1.6,0.4,3.1,0.6,4.7,0.6c7,0,13.8-4.1,21.6-9.4c3.1-2.1,6.2-5.3,9.1-9.4l-0.3-0.2
								c-2.8,4-5.9,7.2-9,9.3c-9.4,6.4-17.3,11.1-26,8.7c-10.2-2.8-20.5-15.5-32.2-39.9H600C611.7,299.1,622.1,311.8,632.4,314.6z"
								/>
							<path class="st10" d="M637.1,287.7c0.3,0,0.7,0,1,0c6.8-0.4,13.4-4.5,20.6-9.4c1-0.7,2-1.5,3-2.4c-0.1-0.1-0.2-0.1-0.3-0.2
								c-1,0.9-1.9,1.7-2.9,2.3c-7.2,4.9-13.7,9-20.5,9.3c-7.3,0.4-14.2-3.7-21.4-12.8h-0.4C623.2,283.4,629.9,287.7,637.1,287.7z"
								/>
							<g>
								<path class="st10" d="M542.7,334.3c6.1,0,9.6-5,13-9.8c1.8-2.6,3.7-5.3,6-7.3s3.3-4.1,2.9-6.4c-0.6-3-4.2-7.2-12.9-10.2
									c-6.7-2.3-14-2.2-19.5,0.3v0.3c2.9-1.3,6.2-2,9.8-2c3.2,0,6.5,0.5,9.6,1.6c5.3,1.9,11.8,5.6,12.6,10c0.4,2.1-0.5,4.1-2.8,6
									c-2.3,2-4.2,4.7-6,7.3c-3.9,5.6-7.6,10.8-14.9,9.5c-3-0.5-5.8-2.1-8.3-4.6v0.4c2.5,2.4,5.3,3.9,8.3,4.4
									C541.2,334.2,542,334.3,542.7,334.3z"/>
								<path class="st20" d="M540.7,328.4c8,1.5,10.1-7.9,15.3-12.2c5.6-4.7-0.8-9.6-7.2-11.8c-6.2-2.2-12.8-1.3-16.6,1.8V322
									C534.2,325.1,537.1,327.7,540.7,328.4z"/>
							</g>
							<g>
								<g>
									<g>
										<circle class="st15" cx="627.5" cy="314.1" r="0.3"/>
										<circle class="st15" cx="627.5" cy="320" r="0.3"/>
										<circle class="st15" cx="627.5" cy="325.9" r="0.3"/>
										<circle class="st15" cx="627.5" cy="331.7" r="0.3"/>
										<circle class="st15" cx="627.5" cy="337.6" r="0.3"/>
										<circle class="st15" cx="627.5" cy="343.5" r="0.3"/>
										<circle class="st15" cx="627.5" cy="349.4" r="0.3"/>
									</g>
									<g>
										<circle class="st15" cx="633.4" cy="314.1" r="0.3"/>
										<circle class="st15" cx="633.4" cy="320" r="0.3"/>
										<circle class="st15" cx="633.4" cy="325.9" r="0.3"/>
										<circle class="st15" cx="633.4" cy="331.7" r="0.3"/>
										<circle class="st15" cx="633.4" cy="337.6" r="0.3"/>
										<circle class="st15" cx="633.4" cy="343.5" r="0.3"/>
										<circle class="st15" cx="633.4" cy="349.4" r="0.3"/>
									</g>
								</g>
								<g>
									<g>
										<circle class="st15" cx="639.3" cy="314.1" r="0.3"/>
										<circle class="st15" cx="639.3" cy="320" r="0.3"/>
										<circle class="st15" cx="639.3" cy="325.9" r="0.3"/>
										<circle class="st15" cx="639.3" cy="331.7" r="0.3"/>
										<circle class="st15" cx="639.3" cy="337.6" r="0.3"/>
										<circle class="st15" cx="639.3" cy="343.5" r="0.3"/>
										<circle class="st15" cx="639.3" cy="349.4" r="0.3"/>
									</g>
									<g>
										<circle class="st15" cx="645.2" cy="314.1" r="0.3"/>
										<circle class="st15" cx="645.2" cy="320" r="0.3"/>
										<circle class="st15" cx="645.2" cy="325.9" r="0.3"/>
										<circle class="st15" cx="645.2" cy="331.7" r="0.3"/>
										<circle class="st15" cx="645.2" cy="337.6" r="0.3"/>
										<circle class="st15" cx="645.2" cy="343.5" r="0.3"/>
										<circle class="st15" cx="645.2" cy="349.4" r="0.3"/>
									</g>
								</g>
								<g>
									<g>
										<circle class="st15" cx="651.1" cy="314.1" r="0.3"/>
										<circle class="st15" cx="651.1" cy="320" r="0.3"/>
										<circle class="st15" cx="651.1" cy="325.9" r="0.3"/>
										<circle class="st15" cx="651.1" cy="331.7" r="0.3"/>
										<circle class="st15" cx="651.1" cy="337.6" r="0.3"/>
										<circle class="st15" cx="651.1" cy="343.5" r="0.3"/>
										<circle class="st15" cx="651.1" cy="349.4" r="0.3"/>
									</g>
									<g>
										<circle class="st15" cx="656.9" cy="314.1" r="0.3"/>
										<circle class="st15" cx="656.9" cy="320" r="0.3"/>
										<circle class="st15" cx="656.9" cy="325.9" r="0.3"/>
										<circle class="st15" cx="656.9" cy="331.7" r="0.3"/>
										<circle class="st15" cx="656.9" cy="337.6" r="0.3"/>
										<circle class="st15" cx="656.9" cy="343.5" r="0.3"/>
										<circle class="st15" cx="656.9" cy="349.4" r="0.3"/>
									</g>
								</g>
								<g>
									<g>
										<circle class="st15" cx="662.8" cy="314.1" r="0.3"/>
										<circle class="st15" cx="662.8" cy="320" r="0.3"/>
										<circle class="st15" cx="662.8" cy="325.9" r="0.3"/>
										<circle class="st15" cx="662.8" cy="331.7" r="0.3"/>
										<circle class="st15" cx="662.8" cy="337.6" r="0.3"/>
										<circle class="st15" cx="662.8" cy="343.5" r="0.3"/>
										<circle class="st15" cx="662.8" cy="349.4" r="0.3"/>
									</g>
								</g>
							</g>
						</g>
						<path class="st21" d="M657.4,456.2H542.6c-5.7,0-10.4-4.6-10.4-10.4v-161c0-5.7,4.6-10.4,10.4-10.4h114.9
							c5.7,0,10.4,4.6,10.4,10.4v161C667.8,451.6,663.2,456.2,657.4,456.2z"/>
					</g>
				</g>
				<path class="st22" d="M631.6,424.5h-63.3c-5.7,0-10.4-4.6-10.4-10.4V307.6c0-5.7,4.6-10.4,10.4-10.4h63.3
					c5.7,0,10.4,4.6,10.4,10.4v106.6C642,419.9,637.4,424.5,631.6,424.5z"/>
				<g>
					<circle class="st22" cx="600" cy="336.4" r="32.1"/>
					<g>
						<g>
							<path class="st15" d="M580.7,361.4c0.7-0.3,1.3-0.7,1.5-0.9c4.5-5.5,3.7-11.6,2.4-10.5c-1.9,2.7-5.4,5.3-8.8,7.2l-0.1,0.1
								c1.3,1.5,2.8,2.9,4.4,4.2C580.3,361.6,580.6,361.5,580.7,361.4z"/>
							<path class="st23" d="M580.7,361.4c0.7-0.3,1.3-0.7,1.5-0.9c4.5-5.5,3.7-11.6,2.4-10.5c-1.9,2.7-5.4,5.3-8.8,7.2l-0.1,0.1
								c1.3,1.5,2.8,2.9,4.4,4.2C580.3,361.6,580.6,361.5,580.7,361.4z"/>
						</g>
						<g>
							<path class="st15" d="M584.6,350c-1.3,0.7-4.1,4.3-6.8,6c3,1.2,3.6,5.4,4.4,4.4C586.8,355,585.9,348.9,584.6,350z"/>
							<path class="st23" d="M584.6,350c-1.3,0.7-4.1,4.3-6.8,6c3,1.2,3.6,5.4,4.4,4.4C586.8,355,585.9,348.9,584.6,350z"/>
						</g>
						<g>
							<g>
								<g>
									<path class="st15" d="M613.4,350c4.5,4.8,10.6,2.5,11.5,1.5c0.8-0.8,4.3,3,3.8,3.6c-0.9,1.1-6.2,5.8-9.6,6.4
										C612,360.7,612,350.2,613.4,350z"/>
									<path class="st23" d="M613.4,350c4.5,4.8,10.6,2.5,11.5,1.5c0.8-0.8,4.3,3,3.8,3.6c-0.9,1.1-6.2,5.8-9.6,6.4
										C612,360.7,612,350.2,613.4,350z"/>
								</g>
							</g>
							<g>
								<path class="st22" d="M623.1,349.3c-0.3,2.3,3.2,6,6,6.5c1.7,0.3,3.7,0.2,4.8-0.5c0.8-0.5,1-1.6,0-1.9
									c-0.9-0.2-2.2,0.1-2.2-0.6c0-0.8,1.9-1.7,2.5-2.7c0.4-0.7,0-1.7-1-1.4c-1,0.2-2.3,1.6-3.1,1c-1-0.6,0.1-2.5-0.1-3.5
									c-0.1-0.4-0.9-0.7-1.4-0.4c-1.1,0.8-1.5,3.8-2.8,3.6c-0.7-0.1-1.6-0.7-2.2-0.8C623.5,348.7,623.2,348.8,623.1,349.3z"/>
							</g>
						</g>
						<g>
							<path class="st15" d="M613.4,350c1.9,2.1,4.1,2.8,6.1,2.9c-0.9,1-1.8,4.3-0.4,8.6C612,360.7,612,350.2,613.4,350z"/>
							<path class="st23" d="M613.4,350c1.9,2.1,4.1,2.8,6.1,2.9c-0.9,1-1.8,4.3-0.4,8.6C612,360.7,612,350.2,613.4,350z"/>
						</g>
						<circle class="st15" cx="599.3" cy="354.1" r="10.6"/>
						<g>
							<path class="st0" d="M578.2,359.9c2.7-4.3,5.4-7.8,6-9.9c0.8-0.8,2.4-1.4,3.9-1.8c0,1.4,2.2,9.4,10.8,9.4s10.8-8,10.8-9.4
								c1.5,0.4,3.1,1,3.9,1.8c0.7,2.2,3.9,6.2,6.7,11.1c7.1-5.9,11.6-14.8,11.6-24.7c0-17.7-14.4-32.1-32.1-32.1
								c-17.7,0-32.1,14.4-32.1,32.1C567.9,345.7,571.9,354,578.2,359.9z"/>
							<path class="st22" d="M609.8,348.2c0,1.4-2.2,9.4-10.8,9.4s-10.8-8-10.8-9.4c-1.5,0.4-3.1,1-3.9,1.8c-0.6,2-3.3,5.6-6,9.9
								c5.7,5.3,13.4,8.6,21.8,8.6c7.8,0,14.9-2.8,20.4-7.3c-2.9-4.9-6-8.9-6.7-11.1C612.9,349.2,611.3,348.6,609.8,348.2z"/>
						</g>
						<path class="st24" d="M609.9,347.6c0,1.4-2.4,10-11,10s-11-8.6-11-10"/>
						<path class="st10" d="M627.4,351.1c0.7-0.1,1.5,0.2,2.1,0.8c0.5,0.6,0.8,1.4,0.5,2.2h-0.1c0,0,0,0,0-0.1
							c0-0.7-0.3-1.3-0.7-1.8s-1-0.9-1.7-1C627.4,351.2,627.4,351.1,627.4,351.1L627.4,351.1z"/>
						<g>
							<path class="st22" d="M589.3,312.2c-4.5,1.6-8.5-1-13.7-1.3c-4.9-0.3-7.7,4.5-5.7,9.1c2,4.5,7,9.1,11.3,9
								C582.3,328.9,590.4,311.8,589.3,312.2z"/>
							<path class="st22" d="M583.4,315.8c-4.7,1.1-10-5.5-12.8-1.9c-3.3,4.2,3.1,12.4,7.9,14.1
								C579.4,328.2,584.4,315.9,583.4,315.8z"/>
							<path class="st22" d="M607.8,313.5c7,0.9,7.9-5,13-5.8c4.2-0.7,7.3,2.8,6.6,7.6c-0.7,4.7-7.1,11.9-7.9,15.4
								C619.2,332,606.4,313.4,607.8,313.5z"/>
							<path class="st22" d="M615.1,315.9c2.4,0,3.8-2.8,6.4-4.8c1.8-1.4,4.2-2,5.1,0.1c2.6,5.9-4.4,13.1-6.5,17.2
								C617.3,329.1,615.3,316,615.1,315.9z"/>
							<path class="st22" d="M621.9,333.5c-4-8.4-5.5-17.3-10.1-21.8c-4.3-4.2-12-4-12.4-4c-0.5,0-8.1-0.2-12.4,4
								c-4.6,4.4-6.1,13.4-10.1,21.8c-3.7,7.8,3.1,20.5,22.6,20.5S625.5,341.3,621.9,333.5z"/>
							<path class="st22" d="M621.9,333.5c-4-8.4-5.5-17.3-10.1-21.8c-4.3-4.2-12-4-12.4-4c-0.5,0-8.1-0.2-12.4,4
								c-2.8,2.7-4.4,7-6.1,11.8c-1.2,3.2,2.4,15.9,21.4,12.3c13.1-2.4,21.3,10,11.7,15C622,346.6,624.4,338.9,621.9,333.5z"/>
							<path class="st10" d="M600.8,328.5c-0.1-0.2-0.3-0.3-0.5-0.3h-2c-0.2,0-0.4,0.1-0.5,0.3l-0.3,0.5c-0.2,0.3,0.1,0.7,0.4,0.7
								h0.1c0.4,0,0.7,0.1,0.9,0.4l0.1,0.1c0.1,0.2,0.4,0.2,0.5,0l0.1-0.1c0.2-0.3,0.5-0.5,0.9-0.4h0.1c0.4,0,0.6-0.3,0.4-0.7
								L600.8,328.5z"/>
							<g>
								<path class="st22" d="M599.2,333.8c-4.8,0-9.4-1.7-11.3-2.4c0.7,1.4,3.3,8.5,3.4,10.9c0,0.9,2.1,3.5,7.9,3.5
									s7.8-2.6,7.9-3.5c0.1-2.4,2.7-9.5,3.4-10.9C608.6,332.1,604,333.8,599.2,333.8z"/>
								<path class="st22" d="M591.2,341.9c0,0,0.1,0,0.1,0.4c0,0.9,2.1,3.5,7.9,3.5s7.8-2.6,7.9-3.5c0-0.4,0.1-0.6,0.1-0.6
									C605.2,338.5,594.8,337.5,591.2,341.9z"/>
								<path class="st22" d="M599.2,333.8c-1.5,0-3-0.2-4.3-0.4l0.5,4.2c0,0,2,0.7,3.4,0.8l0.3-2.1c0-0.1,0.2-0.1,0.2,0l0.3,2.1
									c1.4-0.1,3.4-0.8,3.4-0.8l0.5-4.2C602.2,333.6,600.7,333.8,599.2,333.8z"/>
							</g>
							<g>
								<path class="st10" d="M621.7,319.4c-1-0.1-2,0-2.8-0.2c-1-0.2-8.9-2.5-16.9,0.4c-1,0.3-1.7,0.6-2.6,0.6
									c-0.8,0-1.6-0.2-2.6-0.6c-8-2.9-15.9-0.6-16.9-0.4c-0.8,0.2-1.8,0.1-2.8,0.2c-0.6,0.1-0.7,2.2-0.3,2.4
									c0.6,0.3,0.9,0.3,1,0.7c0.4,1.3,2,6.1,3.9,8.5c1.6,1.9,10.8,1.6,12.3-0.3c1.7-2.1,2.9-6,3.9-8c0.1-0.3,0.8-0.4,1.5-0.4
									s1.4,0.1,1.5,0.4c0.9,2,2.2,6,3.9,8c1.5,1.8,10.8,2.2,12.3,0.3c1.9-2.4,3.4-7.2,3.9-8.5c0.1-0.4,0.4-0.4,1-0.7
									C622.4,321.6,622.4,319.5,621.7,319.4z"/>
								<path class="st15" d="M603.6,321.9c-0.4,0.4,1.3,6.8,3.2,7.8c1.3,0.7,7.5,1.1,8.9,0c1.8-1.4,3.5-7.3,2.9-7.8
									C616.7,320.2,607.3,318.5,603.6,321.9z"/>
								<ellipse class="st10" cx="611" cy="325.1" rx="1" ry="2.1"/>
								<ellipse class="st15" cx="620.2" cy="320.5" rx="0.8" ry="0.3"/>
								<path class="st15" d="M595.3,321.9c0.4,0.4-1.3,6.8-3.2,7.8c-1.3,0.7-7.5,1.1-8.9,0c-1.8-1.4-3.5-7.3-2.9-7.8
									C582.2,320.2,591.6,318.5,595.3,321.9z"/>
								<ellipse class="st10" cx="587.9" cy="325.1" rx="1" ry="2.1"/>
								<ellipse class="st15" cx="578.7" cy="320.5" rx="0.8" ry="0.3"/>
							</g>
						</g>
					</g>
				</g>
				<g>
					<path class="st10" d="M613.7,414.7h-27.5c-3.1,0-5.7-2.5-5.7-5.7v-1.4c0-3.1,2.5-5.7,5.7-5.7h27.5c3.1,0,5.7,2.5,5.7,5.7v1.4
						C619.4,412.2,616.9,414.7,613.7,414.7z"/>
					<text transform="matrix(1 0 0 1 587.9497 411.638)" class="st12 st25 st26">Login</text>
				</g>
				<g>
					<path class="st27" d="M542.8,286.8c0-3,2.4-5.4,5.4-5.4l0,0c3,0,5.4,2.4,5.4,5.4v1.1"/>
					<path class="st10" d="M549.7,290.5c0-0.8-0.7-1.5-1.5-1.5s-1.5,0.7-1.5,1.5c0,0.6,0.3,1.1,0.8,1.3l-0.2,3.1h1.9l-0.2-3.1
						C549.4,291.6,549.7,291.1,549.7,290.5z"/>
					<path class="st27" d="M550.7,296.4h-5.1c-1.6,0-2.8-1.3-2.8-2.8v-5.7h10.7v5.7C553.5,295.1,552.3,296.4,550.7,296.4z"/>
				</g>
				<path class="st10" d="M567.7,443.8c-0.3,0-0.7,0-1,0c-6.8,0.4-13.4,4.5-20.6,9.4c-1,0.7-2,1.5-3,2.4c0.1,0.1,0.2,0.1,0.3,0.2
					c1-0.9,1.9-1.7,2.9-2.3c7.2-4.9,13.7-9,20.5-9.3c7.3-0.4,14.2,3.7,21.4,12.8h0.4C581.6,448,574.9,443.8,567.7,443.8z"/>
				<g>
					<line class="st23" x1="567.9" y1="396.2" x2="632.1" y2="396.2"/>
					<g>
						<path class="st28" d="M568.3,389.2c0-1.6,1.3-2.9,2.9-2.9l0,0c1.6,0,2.9,1.3,2.9,2.9v0.6"/>
						<path class="st28" d="M572.1,391.2c0-0.5-0.4-0.8-0.8-0.8c-0.5,0-0.8,0.4-0.8,0.8c0,0.3,0.2,0.6,0.4,0.7l-0.1,1.7h1l-0.1-1.7
							C571.9,391.8,572.1,391.6,572.1,391.2z"/>
						<path class="st28" d="M572.6,394.5h-2.8c-0.9,0-1.6-0.7-1.6-1.6v-3.1h5.9v3.1C574.2,393.8,573.5,394.5,572.6,394.5z"/>
					</g>
					<text transform="matrix(1 0 0 1 578.394 393.8484)" class="st10 st25 st26">*******</text>
				</g>
				<g>
					<line class="st23" x1="567.9" y1="380.5" x2="632.1" y2="380.5"/>
					<g>
						<rect x="568" y="373.9" class="st29" width="6.6" height="4.8"/>
						<polyline class="st29" points="568,373.9 571.2,376.3 574.5,373.9 						"/>
					</g>
					<text transform="matrix(1 0 0 1 578.394 378.0496)" class="st10 st25 st30">tomster@gmail.com</text>
				</g>
			</g>
			<polyline class="st31" points="629.7,407.8 690.9,407.8 704.9,421.9 			"/>
			<polyline class="st31" points="572.8,340 511.6,340 497.7,326 			"/>
			<text transform="matrix(1 0 0 1 697.2083 429.4074)" class="st10 st25 st32">SECURE LOGIN CALL</text>
			<text transform="matrix(1 0 0 1 434.5009 323.9919)" class="st10 st25 st32">WELCOME ILLUSTRATION</text>
			<g>
				<path class="st31" d="M512.7,278.7c4.8-6.7,14.1-8.6,21.1-4.1c2.7,1.7,4.7,4.2,5.9,6.9"/>
				<g>
					<polygon class="st10" points="516.7,278.7 516.5,277.9 512.9,278.5 512.6,274.8 511.8,274.9 512.2,279.4 					"/>
				</g>
			</g>
			<g>
				<path class="st31" d="M673.9,368.6c-7.7-9.9-22-12.1-32.3-4.6c-3.9,2.8-6.7,6.7-8.3,10.9"/>
				<g>
					<polygon class="st10" points="674.6,364.7 673.9,364.7 673.6,368.4 670,367.9 669.9,368.6 674.3,369.2 					"/>
				</g>
			</g>
			<text transform="matrix(1 0 0 1 490.0328 286.7164)" class="st10 st25 st32">SECURITY</text>
			<text transform="matrix(1 0 0 1 673.9257 375.873)" class="st10 st25 st32">EMAIL</text>
		</g>
	</g>
	<g id="Final_product">
		<g>
			<g>
				<path class="st33" d="M984.6,423.7H884.4c-5.7,0-10.4-4.6-10.4-10.4V272c0-5.7,4.6-10.4,10.4-10.4h100.1
					c5.7,0,10.4,4.6,10.4,10.4v141.3C995,419,990.3,423.7,984.6,423.7z"/>
				<path class="st34" d="M874.1,365.5v-93.6c0-5.7,4.6-10.2,10.2-10.2h100.4c5.7,0,10.2,4.6,10.2,10.2v93.6H874.1z"/>
				<g>
					<path class="st0" d="M928.3,271.4c12.4,27.5,23.1,41.8,33.7,44.7c8.4,2.4,16-2.2,25-8.3c2.7-1.8,5.4-4.6,7.9-8l0,0v-27.9
						c0-3.9-2.2-7.3-5.4-9c-0.9,0.8-1.8,1.6-2.7,2.2c-6.5,4.4-12.3,8-18.4,8.4c-0.3,0-0.6,0-0.9,0c-6.4,0-12.3-3.8-18.6-11.8h-14.1
						c10.4,21.8,19.5,33.1,28.7,35.5c7.7,2.1,14.8-2.1,23.2-7.8c2.7-1.8,5.5-4.7,8-8.3l0.3,0.2c-2.5,3.6-5.3,6.5-8.1,8.3
						c-6.9,4.7-13,8.4-19.2,8.4c-1.4,0-2.8-0.2-4.2-0.6c-9.2-2.5-18.4-13.9-28.9-35.8H920C923.9,264.5,926.6,267.6,928.3,271.4z"/>
					<path class="st0" d="M968.4,273.1c6-0.3,11.8-4,18.2-8.3c0.9-0.6,1.7-1.3,2.6-2.1c-1.4-0.7-2.9-1.1-4.6-1.1h-35.4
						C955.8,269.8,961.9,273.5,968.4,273.1z"/>
					<path class="st0" d="M987.2,308.1c-7.4,5-13.9,9-20.6,9c-1.5,0-3.1-0.2-4.7-0.7c-6.7-1.9-17.5-8.6-33.9-44.9
						c-1.7-3.8-4.5-7-8.6-9.8h-35.2c-5.7,0-10.2,4.6-10.2,10.2v93.6h121v-65.1C992.4,303.7,989.8,306.3,987.2,308.1z"/>
					<path class="st35" d="M928,271.5c16.3,36.3,27.2,43,33.9,44.9c1.6,0.4,3.1,0.7,4.7,0.7c6.7,0,13.2-4,20.6-9
						c2.6-1.8,5.3-4.4,7.8-7.7v-0.5l0,0c-2.5,3.4-5.3,6.2-7.9,8c-9.1,6.2-16.7,10.7-25,8.3c-10.6-3-21.3-17.2-33.7-44.7
						c-1.7-3.7-4.4-6.9-8.3-9.7h-0.5C923.6,264.5,926.3,267.7,928,271.5z"/>
					<path class="st35" d="M963.4,297.5c1.4,0.4,2.8,0.6,4.2,0.6c6.3,0,12.3-3.7,19.2-8.4c2.7-1.9,5.5-4.7,8.1-8.3l-0.3-0.2
						c-2.5,3.6-5.3,6.4-8,8.3c-8.4,5.7-15.4,9.9-23.2,7.8c-9.1-2.5-18.3-13.8-28.7-35.5h-0.3C945,283.6,954.2,295,963.4,297.5z"/>
					<path class="st35" d="M967.6,273.4c0.3,0,0.6,0,0.9,0c6.1-0.3,11.9-4,18.4-8.4c0.9-0.6,1.8-1.3,2.7-2.2
						c-0.1-0.1-0.2-0.1-0.3-0.2c-0.9,0.8-1.7,1.5-2.6,2.1c-6.4,4.4-12.2,8-18.2,8.3c-6.5,0.4-12.6-3.3-19.1-11.5H949
						C955.2,269.7,961.2,273.4,967.6,273.4z"/>
					<g>
						<path class="st15" d="M883.4,315c5.4,0,8.5-4.5,11.5-8.8c1.6-2.3,3.3-4.7,5.3-6.5c2.1-1.8,3-3.7,2.6-5.7
							c-0.5-2.6-3.8-6.4-11.5-9.1c-5.9-2.1-12.4-1.9-17.4,0.3v0.3c2.6-1.2,5.6-1.8,8.7-1.8c2.8,0,5.8,0.5,8.6,1.5
							c4.7,1.7,10.5,5,11.3,8.9c0.3,1.9-0.5,3.7-2.5,5.4c-2.1,1.8-3.8,4.2-5.4,6.5c-3.5,5-6.7,9.7-13.3,8.5
							c-2.6-0.5-5.2-1.9-7.4-4.1v0.4c2.2,2.1,4.7,3.5,7.4,4C882.1,315,882.8,315,883.4,315z"/>
						<path class="st15" d="M881.7,309.7c7.1,1.3,9-7,13.6-10.9c5-4.2-0.7-8.5-6.4-10.5c-5.5-1.9-11.4-1.1-14.8,1.6V304
							C875.9,306.8,878.5,309.1,881.7,309.7z"/>
					</g>
					<g>
						<g>
							<g>
								<circle class="st15" cx="959" cy="297" r="0.3"/>
								<circle class="st15" cx="959" cy="302.2" r="0.3"/>
								<circle class="st15" cx="959" cy="307.5" r="0.3"/>
								<circle class="st15" cx="959" cy="312.7" r="0.3"/>
								<circle class="st15" cx="959" cy="318" r="0.3"/>
								<circle class="st15" cx="959" cy="323.2" r="0.3"/>
								<circle class="st15" cx="959" cy="328.5" r="0.3"/>
							</g>
							<g>
								<circle class="st15" cx="964.3" cy="297" r="0.3"/>
								<circle class="st15" cx="964.3" cy="302.2" r="0.3"/>
								<circle class="st15" cx="964.3" cy="307.5" r="0.3"/>
								<circle class="st15" cx="964.3" cy="312.7" r="0.3"/>
								<circle class="st15" cx="964.3" cy="318" r="0.3"/>
								<circle class="st15" cx="964.3" cy="323.2" r="0.3"/>
								<circle class="st15" cx="964.3" cy="328.5" r="0.3"/>
							</g>
						</g>
						<g>
							<g>
								<circle class="st15" cx="969.5" cy="297" r="0.3"/>
								<circle class="st15" cx="969.5" cy="302.2" r="0.3"/>
								<circle class="st15" cx="969.5" cy="307.5" r="0.3"/>
								<circle class="st15" cx="969.5" cy="312.7" r="0.3"/>
								<circle class="st15" cx="969.5" cy="318" r="0.3"/>
								<circle class="st15" cx="969.5" cy="323.2" r="0.3"/>
								<circle class="st15" cx="969.5" cy="328.5" r="0.3"/>
							</g>
							<g>
								<circle class="st15" cx="974.8" cy="297" r="0.3"/>
								<circle class="st15" cx="974.8" cy="302.2" r="0.3"/>
								<circle class="st15" cx="974.8" cy="307.5" r="0.3"/>
								<circle class="st15" cx="974.8" cy="312.7" r="0.3"/>
								<circle class="st15" cx="974.8" cy="318" r="0.3"/>
								<circle class="st15" cx="974.8" cy="323.2" r="0.3"/>
								<circle class="st15" cx="974.8" cy="328.5" r="0.3"/>
							</g>
						</g>
						<g>
							<g>
								<circle class="st15" cx="980" cy="297" r="0.3"/>
								<circle class="st15" cx="980" cy="302.2" r="0.3"/>
								<circle class="st15" cx="980" cy="307.5" r="0.3"/>
								<circle class="st15" cx="980" cy="312.7" r="0.3"/>
								<circle class="st15" cx="980" cy="318" r="0.3"/>
								<circle class="st15" cx="980" cy="323.2" r="0.3"/>
								<circle class="st15" cx="980" cy="328.5" r="0.3"/>
							</g>
							<g>
								<circle class="st15" cx="985.3" cy="297" r="0.3"/>
								<circle class="st15" cx="985.3" cy="302.2" r="0.3"/>
								<circle class="st15" cx="985.3" cy="307.5" r="0.3"/>
								<circle class="st15" cx="985.3" cy="312.7" r="0.3"/>
								<circle class="st15" cx="985.3" cy="318" r="0.3"/>
								<circle class="st15" cx="985.3" cy="323.2" r="0.3"/>
								<circle class="st15" cx="985.3" cy="328.5" r="0.3"/>
							</g>
						</g>
						<g>
							<g>
								<circle class="st15" cx="990.5" cy="297" r="0.3"/>
								<circle class="st15" cx="990.5" cy="302.2" r="0.3"/>
								<circle class="st15" cx="990.5" cy="307.5" r="0.3"/>
								<circle class="st15" cx="990.5" cy="312.7" r="0.3"/>
								<circle class="st15" cx="990.5" cy="318" r="0.3"/>
								<circle class="st15" cx="990.5" cy="323.2" r="0.3"/>
								<circle class="st15" cx="990.5" cy="328.5" r="0.3"/>
							</g>
						</g>
					</g>
				</g>
				<path class="st3" d="M984.6,423.7H884.4c-5.7,0-10.4-4.6-10.4-10.4V272c0-5.7,4.6-10.4,10.4-10.4h100.1
					c5.7,0,10.4,4.6,10.4,10.4v141.3C995,419,990.3,423.7,984.6,423.7z"/>
			</g>
		</g>
		<path class="st12" d="M961.6,395.5h-54.2c-5.7,0-10.4-4.6-10.4-10.4v-92.8c0-5.7,4.6-10.4,10.4-10.4h54.2
			c5.7,0,10.4,4.6,10.4,10.4v92.8C972,390.8,967.3,395.5,961.6,395.5z"/>
		<g>
			<circle class="st36" cx="934.5" cy="316.9" r="28.6"/>
			<g>
				<path class="st37" d="M917.3,339.2c0.7-0.3,1.1-0.6,1.3-0.8c4-4.9,3.3-10.3,2.1-9.4c-1.7,2.4-4.8,4.8-7.8,6.5l-0.1,0.1
					c1.2,1.4,2.5,2.6,3.9,3.7C917,339.3,917.2,339.3,917.3,339.2z"/>
				<path class="st19" d="M920.8,329c-1.2,0.6-3.6,3.8-6,5.4c2.6,1.1,3.2,4.8,3.9,4C922.7,333.5,922,328.1,920.8,329z"/>
				<g>
					<g>
						<path class="st37" d="M946.4,329c4,4.3,9.5,2.2,10.3,1.3c0.7-0.7,3.8,2.7,3.3,3.2c-0.8,1-5.5,5.2-8.5,5.7
							C945.2,338.6,945.2,329.2,946.4,329z"/>
					</g>
					<g>
						<path class="st34" d="M955.1,328.4c-0.3,2,2.8,5.3,5.4,5.8c1.5,0.3,3.3,0.2,4.2-0.4c0.7-0.5,0.9-1.5,0-1.7
							c-0.8-0.2-2,0.1-2-0.6s1.7-1.5,2.3-2.4c0.4-0.7,0-1.5-0.9-1.3s-2,1.4-2.8,0.9c-0.9-0.5,0.1-2.2-0.1-3.1
							c-0.1-0.4-0.8-0.7-1.2-0.3c-1,0.7-1.4,3.3-2.5,3.2c-0.7-0.1-1.5-0.6-2-0.7C955.4,327.8,955.2,328,955.1,328.4z"/>
					</g>
				</g>
				<path class="st19" d="M946.4,329c1.7,1.8,3.7,2.5,5.5,2.6c-0.8,0.9-1.6,3.9-0.4,7.7C945.2,338.6,945.2,329.2,946.4,329z"/>
				<g>
					<path class="st0" d="M916,338.7c2-4.3,4.1-8.3,4.8-9.6c0.7-1.3,6.9-2.7,12.8-2.7c5.9,0,12.1,1.5,12.8,2.7
						c0.8,1.4,3.1,6,5.3,10.7c6.9-5.2,11.4-13.5,11.4-22.8c0-15.8-12.8-28.6-28.6-28.6s-28.6,12.8-28.6,28.6
						C905.9,325.6,909.8,333.4,916,338.7z"/>
					<path class="st37" d="M933.6,326.3c-5.9,0-12.1,1.5-12.8,2.7c-0.7,1.3-2.8,5.3-4.8,9.6c5,4.2,11.4,6.8,18.5,6.8
						c6.5,0,12.4-2.1,17.2-5.8c-2.2-4.7-4.5-9.2-5.3-10.7C945.7,327.8,939.5,326.3,933.6,326.3z"/>
				</g>
				<circle class="st38" cx="933.9" cy="332.6" r="9.5"/>
				<g>
					<path class="st0" d="M915.1,337.8c2.4-3.8,4.8-7,5.4-8.8c0.7-0.7,2.1-1.2,3.5-1.6c0,1.2,2,8.3,9.7,8.3s9.7-7.1,9.7-8.3
						c1.4,0.4,2.8,0.9,3.5,1.6c0.6,2,3.4,5.5,6,9.9c6.3-5.2,10.4-13.2,10.4-22c0-15.8-12.8-28.6-28.6-28.6s-28.6,12.8-28.6,28.6
						C905.9,325.1,909.4,332.6,915.1,337.8z"/>
					<path class="st19" d="M943.2,327.4c0,1.2-2,8.3-9.7,8.3s-9.7-7.1-9.7-8.3c-1.4,0.4-2.8,0.9-3.5,1.6c-0.6,1.8-3,5-5.4,8.8
						c5.1,4.7,11.9,7.6,19.4,7.6c6.9,0,13.3-2.5,18.2-6.6c-2.6-4.3-5.4-7.9-6-9.9C946,328.3,944.6,327.8,943.2,327.4z"/>
				</g>
				<path class="st39" d="M943.4,326.9c0,1.2-2.1,8.9-9.8,8.9s-9.8-7.7-9.8-8.9"/>
				<path class="st40" d="M958.9,329.9c0.7-0.1,1.4,0.2,1.8,0.7c0.5,0.5,0.7,1.3,0.4,1.9c0,0,0,0-0.1,0c0,0,0,0,0-0.1
					c0-0.6-0.2-1.2-0.6-1.6C960.1,330.5,959.6,330.2,958.9,329.9C958.9,330,958.9,330,958.9,329.9C958.9,330,958.9,330,958.9,329.9z
					"/>
				<g>
					<path class="st41" d="M925,295.3c-4,1.5-7.6-0.9-12.2-1.1c-4.4-0.2-6.9,4-5,8.1c1.8,4,6.2,8.1,10.1,8
						C918.8,310.2,925.9,295,925,295.3z"/>
					<path class="st34" d="M919.7,298.5c-4.2,1-8.9-4.9-11.4-1.7c-2.9,3.8,2.7,11,7,12.5C916.1,309.6,920.6,298.6,919.7,298.5z"/>
					<path class="st42" d="M941.5,296.5c6.2,0.8,7.1-4.5,11.6-5.2c3.8-0.6,6.5,2.5,5.9,6.8c-0.6,4.2-6.3,10.6-7,13.7
						C951.6,313,940.2,296.3,941.5,296.5z"/>
					<path class="st34" d="M947.9,298.6c2.1,0,3.4-2.5,5.7-4.3c1.6-1.2,3.8-1.7,4.6,0.1c2.3,5.2-3.9,11.7-5.8,15.3
						C949.9,310.4,948.2,298.7,947.9,298.6z"/>
					<path class="st42" d="M954,314.3c-3.6-7.5-4.9-15.5-9-19.4c-3.8-3.7-10.7-3.6-11.1-3.6c-0.4,0-7.3-0.1-11.1,3.6
						c-4.1,4-5.5,11.9-9,19.4c-3.3,6.9,2.7,18.3,20.1,18.3C951.3,332.6,957.3,321.2,954,314.3z"/>
					<path class="st43" d="M954,314.3c-3.6-7.5-4.9-15.5-9-19.4c-3.8-3.7-10.7-3.6-11.1-3.6c-0.4,0-7.3-0.1-11.1,3.6
						c-2.8,2.7-4.3,7.3-6.1,12.3c-0.9,11.4,22.9,25.1,25.3,24.4C953.1,328.8,956.7,320,954,314.3z"/>
					<path class="st44" d="M954,314.3c-3.6-7.5-4.9-15.5-9-19.4c-3.8-3.7-10.7-3.6-11.1-3.6c-0.4,0-7.3-0.1-11.1,3.6
						c-2.7,2.6-3.8,5.7-5.6,10.5c0.9,9.3,8.2,12.3,20.6,10.6c9.5-1.3,17.4,7.3,9.2,13.6C955.5,325,955.6,317.8,954,314.3z"/>
					<path class="st45" d="M954,314.3c-3.6-7.5-4.9-15.5-9-19.4c-3.8-3.7-10.7-3.6-11.1-3.6c-0.4,0-7.3-0.1-11.1,3.6
						c-2.5,2.4-3.9,6.2-5.5,10.5c-1,2.9,2.2,14.2,19.1,11c11.7-2.2,19,9,10.5,13.4C954.1,326,956.3,319.1,954,314.3z"/>
					<g>
						<path class="st46" d="M937.6,315.8c-10.8,3.5-19.6,0.4-20.6-9.6c-0.9,2.6-1.9,5.4-3.2,8.1c-3.3,6.9,2.7,18.3,20.1,18.3
							c5,0,9.3-0.6,12.3-2.5C956.1,324.1,947.4,312.6,937.6,315.8z"/>
						<path class="st47" d="M933.9,333c-8.9,0-16-3.1-19.4-8.5c-2.1-3.3-2.5-7.2-1-10.3c1.3-2.7,2.3-5.4,3.2-8.1
							c0.1-0.2,0.2-0.3,0.4-0.2c0.2,0,0.3,0.2,0.3,0.3c0.4,3.9,2.1,6.9,4.9,8.7c3.7,2.4,9.1,2.6,15.3,0.6l0,0
							c5.7-1.8,10.9,1.1,12.7,5c1.3,2.9,1,7-3.9,10C943.5,332.2,939.6,333,933.9,333z M916.9,307.7c-0.8,2.2-1.7,4.5-2.8,6.8
							c-1.4,2.9-1,6.5,1,9.6c3.3,5.2,10.1,8.1,18.8,8.1c5.5,0,9.4-0.8,12.1-2.4c3.8-2.3,5.1-5.7,3.6-9.1c-1.7-3.6-6.5-6.3-11.8-4.6
							l-0.1-0.3l0.1,0.3c-6.4,2.1-12.1,1.8-15.9-0.7C919.2,313.8,917.5,311.1,916.9,307.7z"/>
					</g>
					<g>
						<path class="st34" d="M935.2,309.8c-0.1-0.2-0.3-0.2-0.4-0.2H933c-0.2,0-0.3,0.1-0.4,0.2l-0.3,0.4c-0.2,0.3,0.1,0.6,0.4,0.6
							h0.1c0.3,0,0.6,0.1,0.8,0.4l0.1,0.1c0.1,0.2,0.4,0.2,0.5,0l0.1-0.1c0.2-0.3,0.5-0.4,0.8-0.4h0.1c0.3,0,0.5-0.3,0.4-0.6
							L935.2,309.8z"/>
					</g>
					<g>
						<g>
							<path class="st48" d="M933.8,314.6c-4.3,0-8.4-1.5-10.1-2.2c0.7,1.3,2.9,7.6,3,9.7c0,0.8,1.9,3.1,7,3.1s7-2.3,7-3.1
								c0.1-2.2,2.4-8.5,3-9.7C942.2,313.1,938.1,314.6,933.8,314.6z"/>
						</g>
						<g>
							<path class="st34" d="M926.7,321.8c0,0,0.1,0,0.1,0.3c0,0.8,1.9,3.1,7,3.1s7-2.3,7-3.1c0-0.4,0.1-0.5,0.1-0.5
								C939.1,318.8,929.9,317.9,926.7,321.8z"/>
						</g>
						<g>
							<path class="st12" d="M933.8,314.6c-1.3,0-2.6-0.1-3.9-0.4l0.4,3.8c0,0,1.8,0.6,3,0.7l0.3-1.9c0-0.1,0.1-0.1,0.2,0l0.3,1.9
								c1.2-0.1,3.1-0.7,3.1-0.7l0.4-3.8C936.4,314.4,935.1,314.6,933.8,314.6z"/>
						</g>
					</g>
					<g>
						<g>
							<path class="st48" d="M953.9,301.7c-0.9-0.1-1.8,0-2.5-0.1c-0.9-0.2-8-2.2-15.1,0.3c-0.9,0.3-1.5,0.5-2.3,0.5
								s-1.4-0.2-2.3-0.5c-7.1-2.6-14.2-0.6-15.1-0.3c-0.7,0.2-1.6,0.1-2.5,0.1c-0.6,0.1-0.6,2-0.3,2.1c0.5,0.2,0.8,0.2,0.9,0.6
								c0.4,1.1,1.7,5.4,3.4,7.6c1.4,1.7,9.7,1.4,11-0.2c1.5-1.9,2.6-5.4,3.5-7.2c0.1-0.3,0.7-0.4,1.3-0.4s1.2,0.1,1.3,0.4
								c0.8,1.8,1.9,5.3,3.5,7.2c1.3,1.6,9.6,2,11,0.2c1.7-2.1,3.1-6.4,3.4-7.6c0.1-0.4,0.4-0.4,0.9-0.6
								C954.5,303.7,954.4,301.8,953.9,301.7z"/>
						</g>
						<g>
							<path class="st12" d="M937.7,303.9c-0.4,0.3,1.1,6,2.8,7c1.2,0.7,6.7,0.9,7.9,0c1.6-1.3,3.1-6.5,2.6-7
								C949.4,302.4,941,300.9,937.7,303.9z"/>
						</g>
						<g>
							<ellipse class="st48" cx="944.3" cy="306.8" rx="0.9" ry="1.9"/>
						</g>
						<g>
							<circle class="st12" cx="944.8" cy="305.4" r="0.4"/>
						</g>
						<g>
							<ellipse class="st12" cx="952.5" cy="302.7" rx="0.7" ry="0.2"/>
						</g>
						<g>
							<path class="st12" d="M930.3,303.9c0.4,0.3-1.1,6-2.8,7c-1.2,0.7-6.7,0.9-7.9,0c-1.6-1.3-3.1-6.5-2.6-7
								C918.6,302.4,927,300.9,930.3,303.9z"/>
						</g>
						<g>
							<ellipse class="st48" cx="923.7" cy="306.8" rx="0.9" ry="1.9"/>
						</g>
						<g>
							<circle class="st12" cx="924.2" cy="305.4" r="0.4"/>
						</g>
						<g>
							<ellipse class="st12" cx="915.5" cy="302.7" rx="0.7" ry="0.2"/>
						</g>
					</g>
				</g>
			</g>
		</g>
		<g>
			<g>
				<path class="st10" d="M946.1,386.7h-23.3c-3.1,0-5.7-2.5-5.7-5.7l0,0c0-3.1,2.5-5.7,5.7-5.7h23.3c3.1,0,5.7,2.5,5.7,5.7l0,0
					C951.8,384.2,949.3,386.7,946.1,386.7z"/>
			</g>
			<g>
				<path class="st12" d="M924.3,378.9h0.8v4.4h2.3v0.7h-3.1V378.9z"/>
				<path class="st12" d="M930.2,384c-1.3,0-2.3-1-2.3-2.6s1-2.6,2.3-2.6s2.3,1,2.3,2.6S931.5,384,930.2,384z M930.2,379.5
					c-0.9,0-1.5,0.7-1.5,1.9s0.7,1.9,1.5,1.9c0.9,0,1.5-0.7,1.5-1.9S931.1,379.5,930.2,379.5z"/>
				<path class="st12" d="M935.6,379.5c-0.9,0-1.5,0.7-1.5,1.9c0,1.2,0.7,1.9,1.6,1.9c0.8,0,1.4-0.5,1.4-1.3h-1.3v-0.6h2v0.6
					c0,1.3-0.9,2.1-2.1,2.1c-1.4,0-2.3-1-2.3-2.6s1-2.6,2.3-2.6c1.1,0,1.9,0.7,2.1,1.7H937C936.7,379.9,936.2,379.5,935.6,379.5z"/>
				<path class="st12" d="M939.5,384h-0.8v-5.1h0.8V384z"/>
				<path class="st12" d="M944.7,384H944l-2.6-3.7l0,0v3.7h-0.8v-5.1h0.7l2.6,3.7l0,0v-3.7h0.8V384z"/>
			</g>
		</g>
		<g>
			<g>
				<path class="st18" d="M893.3,273.6h-0.4v-1c0-2.5-2.1-4.6-4.6-4.6s-4.6,2.1-4.6,4.6h-0.4c0-2.7,2.2-5,5-5c2.7,0,5,2.2,5,5V273.6
					z"/>
			</g>
			<g>
				<path class="st18" d="M889.7,275.9c0-0.7-0.6-1.3-1.3-1.3s-1.3,0.6-1.3,1.3c0,0.5,0.3,1,0.7,1.2l-0.2,2.7h1.7l-0.2-2.7
					C889.4,276.9,889.7,276.5,889.7,275.9z"/>
			</g>
			<g>
				<path class="st18" d="M890.6,281.4H886c-1.5,0-2.7-1.2-2.7-2.7v-5.2h10v5.2C893.3,280.2,892.1,281.4,890.6,281.4z M883.7,273.8
					v4.8c0,1.3,1,2.3,2.3,2.3h4.5c1.3,0,2.3-1,2.3-2.3v-4.8H883.7z"/>
			</g>
		</g>
		<g>
			<path class="st35" d="M905.7,412.6c-0.3,0-0.6,0-0.9,0c-6.1,0.3-11.9,4-18.4,8.4c-0.9,0.6-1.8,1.3-2.7,2.2
				c0.1,0.1,0.2,0.1,0.3,0.2c0.9-0.8,1.7-1.5,2.6-2.1c6.4-4.4,12.2-8,18.2-8.3c6.5-0.4,12.6,3.3,19.1,11.5h0.4
				C918.1,416.4,912.1,412.6,905.7,412.6z"/>
		</g>
		<g>
			<g>
				<rect x="905.9" y="369.9" class="st10" width="57.2" height="0.5"/>
			</g>
			<g>
				<g>
					<path class="st10" d="M911.7,364.5h-0.4V364c0-1.3-1.1-2.4-2.4-2.4s-2.4,1.1-2.4,2.4H906c0-1.6,1.3-2.8,2.8-2.8
						s2.8,1.3,2.8,2.8v0.5H911.7z"/>
				</g>
				<g>
					<path class="st10" d="M909.6,368.1h-1.4l0.1-1.6c-0.2-0.2-0.4-0.5-0.4-0.8c0-0.5,0.4-0.9,0.9-0.9s0.9,0.4,0.9,0.9
						c0,0.3-0.1,0.6-0.4,0.8L909.6,368.1z M908.6,367.7h0.5l-0.1-1.4l0.1-0.1c0.2-0.1,0.3-0.3,0.3-0.5c0-0.3-0.2-0.5-0.5-0.5
						s-0.5,0.2-0.5,0.5c0,0.2,0.1,0.4,0.3,0.5l0.1,0.1L908.6,367.7z"/>
				</g>
				<g>
					<path class="st10" d="M910.1,368.9h-2.5c-0.9,0-1.6-0.7-1.6-1.6v-3h5.7v3C911.7,368.1,911,368.9,910.1,368.9z M906.4,364.7v2.6
						c0,0.7,0.5,1.2,1.2,1.2h2.5c0.7,0,1.2-0.5,1.2-1.2v-2.6H906.4z"/>
				</g>
			</g>
			<g>
				<path class="st10" d="M916.8,365.9l-0.9,0.6l-0.3-0.5l0.9-0.5l-0.9-0.5l0.3-0.5l0.9,0.6v-1h0.5v1l0.9-0.6l0.3,0.5l-0.9,0.5
					l0.9,0.5l-0.3,0.5l-0.9-0.6v1h-0.5V365.9z"/>
				<path class="st10" d="M920.5,365.9l-0.9,0.6l-0.3-0.5l0.9-0.5l-0.9-0.5l0.3-0.5l0.9,0.6v-1h0.5v1l0.9-0.6l0.3,0.5l-0.9,0.5
					l0.9,0.5l-0.3,0.5l-0.9-0.6v1h-0.5V365.9z"/>
				<path class="st10" d="M924.2,365.9l-0.9,0.6L923,366l0.9-0.5L923,365l0.3-0.5l0.9,0.6v-1h0.5v1l0.9-0.6l0.3,0.5l-0.9,0.5
					l0.9,0.5l-0.3,0.5l-0.9-0.6v1h-0.5V365.9z"/>
				<path class="st10" d="M927.8,365.9l-0.9,0.6l-0.3-0.5l0.9-0.5l-0.9-0.5l0.3-0.5l0.9,0.6v-1h0.5v1l0.9-0.6l0.3,0.5l-0.9,0.5
					l0.9,0.5l-0.3,0.5l-0.9-0.6v1h-0.5V365.9z"/>
				<path class="st10" d="M931.5,365.9l-0.9,0.6l-0.3-0.5l0.9-0.5l-0.9-0.5l0.3-0.5l0.9,0.6v-1h0.5v1l0.9-0.6l0.3,0.5l-0.9,0.5
					l0.9,0.5l-0.3,0.5l-0.9-0.6v1h-0.5V365.9z"/>
				<path class="st10" d="M935.1,365.9l-0.9,0.6L934,366l0.9-0.5L934,365l0.3-0.5l0.9,0.6v-1h0.5v1l0.9-0.6l0.3,0.5l-0.9,0.5
					l0.9,0.5l-0.3,0.5l-0.9-0.6v1h-0.5L935.1,365.9z"/>
				<path class="st10" d="M938.8,365.9l-0.9,0.6l-0.3-0.5l0.9-0.5l-0.9-0.5l0.3-0.5l0.9,0.6v-1h0.5v1l0.9-0.6l0.3,0.5l-0.9,0.5
					l0.9,0.5l-0.3,0.5l-0.9-0.6v1h-0.5V365.9z"/>
			</g>
		</g>
		<g>
			<g>
				<rect x="905.9" y="355.9" class="st10" width="57.2" height="0.5"/>
			</g>
			<g>
				<g>
					<path class="st10" d="M912,354.8h-6.3v-4.7h6.3V354.8z M906.1,354.4h5.5v-3.9h-5.5V354.4z"/>
				</g>
				<g>
					<polygon class="st10" points="908.9,352.7 905.8,350.5 906.1,350.1 908.9,352.2 911.7,350.1 911.9,350.5 					"/>
				</g>
			</g>
			<g>
				<path class="st10" d="M916.5,352.2h-0.4v1.2c0,0.2,0.1,0.3,0.3,0.3c0.1,0,0.1,0,0.1,0l0.1,0.4c0,0-0.1,0-0.3,0
					c-0.3,0-0.6-0.2-0.6-0.6v-1.3h-0.3v-0.3h0.3v-0.5h0.4v0.5h0.4V352.2z"/>
				<path class="st10" d="M916.9,352.9c0-0.7,0.4-1.1,1-1.1s1,0.4,1,1.1s-0.4,1.1-1,1.1C917.3,354.1,916.9,353.6,916.9,352.9z
					 M918.5,352.9c0-0.4-0.2-0.8-0.6-0.8c-0.4,0-0.6,0.4-0.6,0.8s0.2,0.8,0.6,0.8C918.3,353.7,918.5,353.4,918.5,352.9z"/>
				<path class="st10" d="M919.4,351.8h0.4v0.4l0,0c0.1-0.2,0.3-0.4,0.6-0.4s0.5,0.1,0.6,0.4l0,0c0.1-0.2,0.3-0.4,0.7-0.4
					s0.7,0.2,0.7,0.7v1.5H922v-1.4c0-0.3-0.2-0.4-0.4-0.4c-0.3,0-0.4,0.2-0.4,0.5v1.4h-0.4v-1.4c0-0.2-0.2-0.4-0.4-0.4
					s-0.4,0.2-0.4,0.5v1.3h-0.4v-2.3H919.4z"/>
				<path class="st10" d="M924.2,352.4c0-0.1-0.2-0.3-0.4-0.3s-0.4,0.1-0.4,0.3c0,0.1,0.1,0.2,0.3,0.3l0.3,0.1
					c0.4,0.1,0.6,0.3,0.6,0.6c0,0.4-0.4,0.7-0.9,0.7s-0.8-0.2-0.9-0.6l0.4-0.1c0.1,0.2,0.2,0.3,0.5,0.3s0.5-0.1,0.5-0.3
					c0-0.1-0.1-0.2-0.3-0.3l-0.4-0.1c-0.4-0.1-0.6-0.3-0.6-0.6c0-0.4,0.3-0.6,0.8-0.6s0.7,0.2,0.8,0.6H924.2z"/>
				<path class="st10" d="M926.1,352.2h-0.4v1.2c0,0.2,0.1,0.3,0.3,0.3c0.1,0,0.1,0,0.1,0l0.1,0.4c0,0-0.1,0-0.3,0
					c-0.3,0-0.6-0.2-0.6-0.6v-1.3H925v-0.3h0.3v-0.5h0.4v0.5h0.4V352.2z"/>
				<path class="st10" d="M926.4,352.9c0-0.7,0.4-1.1,1-1.1c0.5,0,1,0.3,1,1.1v0.2h-1.5c0,0.4,0.3,0.7,0.6,0.7
					c0.2,0,0.4-0.1,0.5-0.3l0.4,0.1c-0.1,0.4-0.4,0.6-0.9,0.6C926.8,354.1,926.4,353.6,926.4,352.9z M928,352.7
					c0-0.3-0.2-0.6-0.5-0.6s-0.6,0.3-0.6,0.6H928z"/>
				<path class="st10" d="M928.9,351.8h0.4v0.3l0,0c0.1-0.2,0.3-0.4,0.6-0.4c0.1,0,0.1,0,0.2,0v0.4c0,0-0.1,0-0.2,0
					c-0.3,0-0.5,0.2-0.5,0.5v1.3H929L928.9,351.8L928.9,351.8z"/>
				<path class="st10" d="M930.4,353c0-1.1,0.7-1.8,1.8-1.8s1.7,0.7,1.7,1.6c0,0.6-0.1,1.2-0.7,1.2c-0.2,0-0.5-0.1-0.5-0.3l0,0
					c-0.1,0.2-0.3,0.3-0.6,0.3c-0.5,0-0.8-0.4-0.8-1s0.4-0.9,0.8-0.9c0.3,0,0.5,0.1,0.6,0.2l0,0v-0.2h0.3v1.3c0,0.1,0.1,0.3,0.2,0.3
					c0.3,0,0.3-0.3,0.3-0.9c0-0.7-0.5-1.3-1.3-1.3c-0.9,0-1.4,0.6-1.4,1.5s0.5,1.5,1.5,1.5c0.3,0,0.6-0.1,0.8-0.1l0.1,0.3
					c-0.2,0.1-0.6,0.2-0.9,0.2C931,354.8,930.4,354.1,930.4,353z M932.6,353c0-0.4-0.2-0.6-0.5-0.6s-0.5,0.3-0.5,0.6
					c0,0.3,0.1,0.7,0.5,0.7C932.4,353.6,932.6,353.4,932.6,353z"/>
				<path class="st10" d="M934.3,354.4l0.4-0.2c0.1,0.1,0.2,0.3,0.6,0.3c0.3,0,0.6-0.1,0.6-0.5v-0.4l0,0c-0.1,0.1-0.2,0.4-0.6,0.4
					c-0.5,0-0.9-0.4-0.9-1.1s0.4-1.1,0.9-1.1c0.4,0,0.6,0.2,0.6,0.4l0,0v-0.4h0.4v2.2c0,0.6-0.4,0.8-1,0.8
					C934.7,354.9,934.4,354.6,934.3,354.4z M935.8,352.9c0-0.4-0.2-0.7-0.6-0.7c-0.4,0-0.6,0.3-0.6,0.7c0,0.4,0.2,0.7,0.6,0.7
					S935.8,353.4,935.8,352.9z"/>
				<path class="st10" d="M936.8,351.8h0.4v0.4l0,0c0.1-0.2,0.3-0.4,0.6-0.4s0.5,0.1,0.6,0.4l0,0c0.1-0.2,0.3-0.4,0.7-0.4
					s0.7,0.2,0.7,0.7v1.5h-0.4v-1.4c0-0.3-0.2-0.4-0.4-0.4c-0.3,0-0.4,0.2-0.4,0.5v1.4H938v-1.4c0-0.2-0.2-0.4-0.4-0.4
					s-0.4,0.2-0.4,0.5v1.3h-0.4L936.8,351.8L936.8,351.8z"/>
				<path class="st10" d="M940.2,353.4c0-0.5,0.4-0.6,0.8-0.7c0.4,0,0.6,0,0.6-0.2l0,0c0-0.2-0.1-0.4-0.4-0.4
					c-0.3,0-0.4,0.1-0.5,0.3l-0.4-0.1c0.1-0.4,0.5-0.6,0.9-0.6c0.3,0,0.8,0.1,0.8,0.8v1.4h-0.4v-0.3l0,0c-0.1,0.2-0.3,0.3-0.6,0.3
					C940.5,354.1,940.2,353.8,940.2,353.4z M941.6,353.2v-0.3c-0.1,0.1-0.4,0.1-0.5,0.1c-0.2,0-0.4,0.1-0.4,0.3
					c0,0.2,0.2,0.3,0.4,0.3C941.4,353.7,941.6,353.5,941.6,353.2z"/>
				<path class="st10" d="M942.5,351.2c0-0.1,0.1-0.3,0.3-0.3c0.1,0,0.3,0.1,0.3,0.3s-0.1,0.3-0.3,0.3S942.5,351.4,942.5,351.2z
					 M942.6,351.8h0.4v2.2h-0.4V351.8z"/>
				<path class="st10" d="M944,354h-0.4v-2.9h0.4V354z"/>
				<path class="st10" d="M944.6,353.8c0-0.2,0.1-0.3,0.3-0.3s0.3,0.1,0.3,0.3c0,0.2-0.1,0.3-0.3,0.3
					C944.7,354,944.6,353.9,944.6,353.8z"/>
				<path class="st10" d="M945.6,352.9c0-0.7,0.4-1.1,1-1.1c0.5,0,0.9,0.3,0.9,0.7h-0.4c0-0.2-0.2-0.4-0.5-0.4
					c-0.4,0-0.6,0.3-0.6,0.8s0.2,0.8,0.6,0.8c0.2,0,0.4-0.1,0.5-0.4h0.4c0,0.4-0.4,0.7-0.9,0.7C946,354.1,945.6,353.6,945.6,352.9z"
					/>
				<path class="st10" d="M947.9,352.9c0-0.7,0.4-1.1,1-1.1s1,0.4,1,1.1s-0.4,1.1-1,1.1C948.3,354.1,947.9,353.6,947.9,352.9z
					 M949.5,352.9c0-0.4-0.2-0.8-0.6-0.8c-0.4,0-0.6,0.4-0.6,0.8s0.2,0.8,0.6,0.8C949.3,353.7,949.5,353.4,949.5,352.9z"/>
				<path class="st10" d="M950.4,351.8h0.4v0.4l0,0c0.1-0.2,0.3-0.4,0.6-0.4s0.5,0.1,0.6,0.4l0,0c0.1-0.2,0.3-0.4,0.7-0.4
					s0.7,0.2,0.7,0.7v1.5H953v-1.4c0-0.3-0.2-0.4-0.4-0.4c-0.3,0-0.4,0.2-0.4,0.5v1.4h-0.4v-1.4c0-0.2-0.2-0.4-0.4-0.4
					s-0.4,0.2-0.4,0.5v1.3h-0.4v-2.3H950.4z"/>
			</g>
		</g>
		<g>
			<g class="st4">
				<g class="st5">
					<path class="st7" d="M1057.6,97.3L999.1,50c-8.6-6.9-21.2-5.6-28.1,3l0,0c-6.9,8.6-5.6,21.2,3,28.1l58.5,47.3
						c8.6,6.9,21.2,5.6,28.1-3l0,0C1067.5,116.8,1066.2,104.2,1057.6,97.3z"/>
					<path class="st19" d="M1045,133.8c-4.8,0-9.4-1.6-13.2-4.7l-58.5-47.3c-4.4-3.5-7.1-8.5-7.7-14.1c-0.6-5.6,1-11,4.6-15.4
						c3.5-4.4,8.5-7.1,14.1-7.7c5.6-0.6,11,1,15.4,4.6l58.5,47.3c4.4,3.5,7.1,8.5,7.7,14.1s-1,11-4.6,15.4
						c-3.5,4.4-8.5,7.1-14.1,7.7C1046.5,133.8,1045.7,133.8,1045,133.8z M986.6,46.5c-5.5,0-11,2.4-14.8,7
						c-3.2,3.9-4.7,8.9-4.1,13.9s3,9.6,6.9,12.8l58.5,47.3c8.1,6.6,20.1,5.3,26.7-2.8s5.3-20.1-2.8-26.7l-58.5-47.3
						C995,47.9,990.8,46.5,986.6,46.5z"/>
				</g>
				<g class="st5">
					<g>
						<path class="st14" d="M1053,103.1L1053,103.1c-5.5-4.4-13.5-3.6-17.9,1.9l0,0c-4.4,5.5-3.6,13.5,1.9,17.9l0,0
							c5.5,4.4,13.5,3.6,17.9-1.9l0,0C1059.3,115.5,1058.5,107.5,1053,103.1z"/>
						<path class="st19" d="M1045,126.6c-3,0-6.1-1-8.6-3c-5.9-4.8-6.8-13.4-2-19.3c4.8-5.9,13.4-6.8,19.3-2l0,0
							c2.8,2.3,4.6,5.6,5,9.2s-0.7,7.2-3,10.1C1053,124.9,1049,126.6,1045,126.6z M1045,101.2c-3.4,0-6.8,1.5-9.1,4.3
							c-4.1,5-3.3,12.4,1.7,16.5s12.4,3.3,16.5-1.7c2-2.4,2.9-5.5,2.5-8.6c-0.3-3.1-1.8-5.9-4.3-7.9l0,0
							C1050.2,102.1,1047.6,101.2,1045,101.2z"/>
					</g>
				</g>
				<g class="st5">
					<g>
						<path class="st12" d="M994.4,55.6L994.4,55.6c5.5,4.4,6.3,12.4,1.9,17.9l0,0c-4.4,5.5-12.4,6.3-17.9,1.9l0,0
							c-5.5-4.4-6.3-12.4-1.9-17.9l0,0C980.9,52.1,988.9,51.2,994.4,55.6z"/>
						<path class="st19" d="M986.4,79.2c-3,0-6.1-1-8.6-3c-5.9-4.8-6.8-13.4-2-19.3s13.4-6.8,19.3-2c5.9,4.8,6.8,13.4,2,19.3
							C994.4,77.5,990.4,79.2,986.4,79.2z M986.4,53.8c-3.4,0-6.8,1.5-9.1,4.3c-4.1,5-3.3,12.4,1.7,16.5s12.4,3.3,16.5-1.7
							s3.3-12.4-1.7-16.5l0,0C991.6,54.7,989,53.8,986.4,53.8z"/>
					</g>
				</g>
			</g>
			<g>
				<g>
					<path class="st7" d="M1030,129.5L923.4,43.6c-8.6-6.9-10-19.5-3-28.1l0,0c6.9-8.6,19.5-10,28.1-3l106.6,85.8
						c8.6,6.9,10,19.5,3,28.1l0,0C1051.2,135,1038.6,136.4,1030,129.5z"/>
					<path class="st19" d="M1042.5,135.4c-4.9,0-9.6-1.6-13.4-4.8L922.5,44.8c-9.2-7.4-10.7-21-3.3-30.2s21-10.7,30.2-3.3L1056,97.1
						c9.2,7.4,10.7,21,3.3,30.2c-3.6,4.5-8.7,7.3-14.4,7.9C1044.1,135.3,1043.3,135.4,1042.5,135.4z M1031,128.3
						c3.8,3.1,8.7,4.5,13.6,4s9.3-2.9,12.4-6.8c6.4-7.9,5.1-19.6-2.8-26L947.5,13.6c-7.9-6.4-19.6-5.1-26,2.8s-5.1,19.6,2.8,26
						L1031,128.3z"/>
				</g>
				<g>
					<g>
						<path class="st14" d="M1034.7,123.8L1034.7,123.8c-5.5-4.4-6.3-12.4-1.9-17.9l0,0c4.4-5.5,12.4-6.3,17.9-1.9l0,0
							c5.5,4.4,6.3,12.4,1.9,17.9l0,0C1048.2,127.3,1040.2,128.2,1034.7,123.8z"/>
						<path class="st19" d="M1042.7,127.6c-3,0-6.1-1-8.6-3l0,0c-5.9-4.7-6.8-13.4-2.1-19.3c4.7-5.9,13.4-6.8,19.3-2.1
							c2.9,2.3,4.6,5.6,5,9.2s-0.7,7.2-3,10.1C1050.7,125.8,1046.7,127.6,1042.7,127.6z M1035.3,123c5,4,12.4,3.3,16.5-1.8
							c2-2.4,2.9-5.5,2.5-8.6s-1.9-5.9-4.3-7.9c-5-4-12.4-3.3-16.5,1.8C1029.5,111.6,1030.3,118.9,1035.3,123L1035.3,123z"/>
					</g>
				</g>
				<g>
					<g>
						<path class="st12" d="M928,37.8L928,37.8c5.5,4.4,13.5,3.5,17.9-1.9l0,0c4.4-5.5,3.5-13.5-1.9-17.9l0,0
							c-5.5-4.4-13.5-3.5-17.9,1.9l0,0C921.6,25.4,922.5,33.4,928,37.8z"/>
						<path class="st19" d="M935.9,42.1c-3.1,0-6.3-1-8.9-3.1l0,0c-3-2.4-4.8-5.8-5.2-9.5s0.7-7.5,3.1-10.4c4.9-6.1,13.9-7.1,20-2.2
							s7.1,13.9,2.2,20C944.2,40.3,940.1,42.1,935.9,42.1z M935.9,16.7c-3.3,0-6.5,1.4-8.7,4.2c-1.9,2.3-2.7,5.3-2.4,8.2
							c0.3,3,1.8,5.6,4.1,7.5l0,0c4.8,3.9,11.9,3.1,15.8-1.7c3.9-4.8,3.1-11.9-1.7-15.8C940.9,17.5,938.4,16.7,935.9,16.7z"/>
					</g>
				</g>
			</g>
			<g>
				<g>
					<polygon class="st15" points="922.3,220.6 957.9,220.6 972.7,249.3 972.7,249.3 956.5,275.1 947.6,275.1 950.8,253.2 
						929.3,253.2 932.6,275.1 923.7,275.1 907.5,249.3 					"/>
				</g>
				<g>
					<path class="st19" d="M926.2,275.7h-11.5l-17.1-27.2l15.6-30.4h37.4l15.6,30.4l-17.1,27.2h-11.5l3.3-22h-18L926.2,275.7z
						 M916.4,272.7h6.4l-3.3-22h25l-3.3,22h6.4l15.3-24.4l-14-27.2h-33.7l-14,27.2L916.4,272.7z"/>
				</g>
				<g>
					<g>
						<rect x="914.4" y="187.5" class="st7" width="35.6" height="32.1"/>
						<path class="st19" d="M912.9,221.1V186h38.6v35.1H912.9z M915.9,189v29.1h32.6V189H915.9z"/>
					</g>
					<g>
						<path class="st19" d="M957.6,216h-51.4c-3,0-5.5,2.4-5.5,5.5l0,0c0,3,2.4,5.5,5.5,5.5h51.4c3,0,5.5-2.4,5.5-5.5l0,0
							C963.1,218.4,960.6,216,957.6,216z"/>
						<path class="st19" d="M906.3,227.9c-3.6,0-6.5-2.9-6.5-6.5s2.9-6.5,6.5-6.5h51.4c3.6,0,6.5,2.9,6.5,6.5s-2.9,6.5-6.5,6.5
							H906.3z M957.6,217h-51.4c-2.5,0-4.5,2-4.5,4.5s2,4.5,4.5,4.5h51.4c2.5,0,4.5-2,4.5-4.5S960.1,217,957.6,217L957.6,217z"/>
					</g>
				</g>
			</g>
			<g>
				<g>
					<path class="st7" d="M1056,129.7l-114.1,75.6c-9.2,6.1-21.6,3.6-27.7-5.6l0,0c-6.1-9.2-3.6-21.6,5.6-27.7L1034,96.4
						c9.2-6.1,21.6-3.6,27.7,5.6l0,0C1067.8,111.2,1065.2,123.6,1056,129.7z"/>
					<path class="st19" d="M930.9,210.2c-7,0-13.8-3.4-18-9.6c-3.2-4.8-4.3-10.5-3.1-16.1c1.1-5.6,4.4-10.5,9.2-13.6l114.1-75.6
						c4.8-3.2,10.5-4.3,16.1-3.1c5.6,1.1,10.5,4.4,13.6,9.2c3.2,4.8,4.3,10.5,3.1,16.1c-1.1,5.6-4.4,10.5-9.2,13.6l-114.1,75.6
						C939.1,209,935,210.2,930.9,210.2z M1045,94.6c-3.6,0-7.1,1.1-10.2,3.1l-114.1,75.6c-4.1,2.7-6.9,6.9-7.9,11.7s0,9.8,2.7,13.9
						c5.6,8.5,17.1,10.8,25.6,5.2l114.1-75.6c4.1-2.7,6.9-6.9,7.9-11.7s0-9.8-2.7-13.9s-6.9-6.9-11.7-7.9
						C1047.4,94.7,1046.2,94.6,1045,94.6z"/>
				</g>
				<g>
					<g>
						<path class="st12" d="M1052,123.5L1052,123.5c-5.9,3.9-13.7,2.3-17.6-3.6l0,0c-3.9-5.9-2.3-13.7,3.6-17.6l0,0
							c5.9-3.9,13.7-2.3,17.6,3.6l0,0C1059.5,111.8,1057.9,119.7,1052,123.5z"/>
						<path class="st19" d="M1045.1,127.2c-0.9,0-1.9-0.1-2.9-0.3c-3.7-0.8-6.9-2.9-9-6.1s-2.8-7-2.1-10.7c0.8-3.7,2.9-6.9,6.1-9
							s7-2.8,10.7-2.1c3.7,0.8,6.9,2.9,9,6.1c4.3,6.5,2.5,15.4-4,19.7l0,0C1050.5,126.3,1047.8,127.2,1045.1,127.2z M1045,101.7
							c-2.2,0-4.3,0.6-6.2,1.9c-2.5,1.7-4.2,4.2-4.8,7.1c-0.6,2.9,0,5.9,1.6,8.4c1.7,2.5,4.2,4.2,7.1,4.8c2.9,0.6,5.9,0,8.4-1.6l0,0
							c5.2-3.4,6.6-10.4,3.2-15.5c-1.7-2.5-4.2-4.2-7.1-4.8C1046.5,101.8,1045.7,101.7,1045,101.7z"/>
					</g>
				</g>
				<g>
					<g>
						<path class="st12" d="M937.8,199.2L937.8,199.2c5.9-3.9,7.5-11.8,3.6-17.6l0,0c-3.9-5.9-11.8-7.5-17.6-3.6l0,0
							c-5.9,3.9-7.5,11.8-3.6,17.6l0,0C924,201.5,931.9,203.1,937.8,199.2z"/>
						<path class="st19" d="M930.8,202.8c-4.6,0-9.1-2.2-11.9-6.4c-4.3-6.5-2.5-15.4,4-19.7s15.4-2.5,19.7,4s2.5,15.4-4,19.7l0,0
							C936.2,202.1,933.5,202.8,930.8,202.8z M930.7,177.4c-2.1,0-4.3,0.6-6.2,1.9c-5.2,3.4-6.6,10.4-3.2,15.5
							c1.7,2.5,4.2,4.2,7.1,4.8c2.9,0.6,5.9,0,8.4-1.6l0,0c2.5-1.7,4.2-4.2,4.8-7.1c0.6-2.9,0-5.9-1.6-8.4
							C937.9,179.2,934.4,177.4,930.7,177.4z"/>
					</g>
				</g>
			</g>
		</g>
	</g>
	<g id="Shapes">
		<g>
			<g>
				<path class="st34" d="M1171.7,434.4c-4,0-7.9-1.5-10.9-4.5c-6-6-6-15.8,0-21.9s15.8-6,21.9,0s6,15.8,0,21.9
					C1179.7,432.9,1175.7,434.4,1171.7,434.4z M1171.7,404.5c-3.7,0-7.4,1.4-10.2,4.2c-5.6,5.6-5.6,14.8,0,20.4s14.8,5.6,20.4,0
					s5.6-14.8,0-20.4C1179.1,405.9,1175.4,404.5,1171.7,404.5z"/>
			</g>
			<g>
				<path class="st34" d="M1135.1,471.1c-4,0-7.9-1.5-10.9-4.5c-6-6-6-15.8,0-21.9c6-6,15.8-6,21.9,0c6,6,6,15.8,0,21.9l0,0
					C1143,469.6,1139,471.1,1135.1,471.1z M1135.1,441.2c-3.7,0-7.4,1.4-10.2,4.2c-5.6,5.6-5.6,14.8,0,20.4s14.8,5.6,20.4,0
					s5.6-14.8,0-20.4C1142.5,442.6,1138.8,441.2,1135.1,441.2z M1145.6,466.3L1145.6,466.3L1145.6,466.3z"/>
			</g>
			<g>
				<path class="st34" d="M1171.7,507.8c-4,0-7.9-1.5-10.9-4.5c-2.9-2.9-4.5-6.8-4.5-10.9s1.6-8,4.5-10.9s6.8-4.5,10.9-4.5
					s8,1.6,10.9,4.5s4.5,6.8,4.5,10.9s-1.6,8-4.5,10.9C1179.7,506.3,1175.7,507.8,1171.7,507.8z M1171.7,477.9
					c-3.9,0-7.5,1.5-10.2,4.2s-4.2,6.4-4.2,10.2s1.5,7.5,4.2,10.2c5.6,5.6,14.8,5.6,20.4,0c2.7-2.7,4.2-6.4,4.2-10.2
					s-1.5-7.5-4.2-10.2S1175.6,477.9,1171.7,477.9z"/>
			</g>
		</g>
		<g>
			<g>
				<path class="st34" d="M188.2,129.3h-34.4c-0.3,0-0.5-0.2-0.5-0.5v-72c0-0.3,0.2-0.5,0.5-0.5h34.4c0.3,0,0.5,0.2,0.5,0.5v72
					C188.7,129.1,188.5,129.3,188.2,129.3z M154.3,128.3h33.4v-71h-33.4L154.3,128.3L154.3,128.3z"/>
			</g>
			<g>
				<g>
					<g>
						<g>
							<circle class="st35" cx="257.2" cy="267" r="1.7"/>
						</g>
						<g>
							
								<ellipse transform="matrix(0.1602 -0.9871 0.9871 0.1602 -13.4966 449.1366)" class="st35" cx="257.2" cy="232.5" rx="1.7" ry="1.7"/>
						</g>
						<g>
							
								<ellipse transform="matrix(0.1602 -0.9871 0.9871 0.1602 20.6566 420.0789)" class="st35" cx="257.2" cy="197.9" rx="1.7" ry="1.7"/>
						</g>
						<g>
							
								<ellipse transform="matrix(0.1602 -0.9871 0.9871 0.1602 54.8098 391.0212)" class="st35" cx="257.2" cy="163.3" rx="1.7" ry="1.7"/>
						</g>
						<g>
							
								<ellipse transform="matrix(0.1602 -0.9871 0.9871 0.1602 88.9631 361.9635)" class="st35" cx="257.2" cy="128.7" rx="1.7" ry="1.7"/>
						</g>
						<g>
							
								<ellipse transform="matrix(0.1602 -0.9871 0.9871 0.1602 123.0176 332.9898)" class="st35" cx="257.2" cy="94.2" rx="1.7" ry="1.7"/>
						</g>
					</g>
					<g>
						<g>
							<circle class="st35" cx="222.7" cy="267" r="1.7"/>
						</g>
						<g>
							<circle class="st35" cx="222.7" cy="232.5" r="1.7"/>
						</g>
						<g>
							<circle class="st35" cx="222.7" cy="197.9" r="1.7"/>
						</g>
						<g>
							<circle class="st35" cx="222.7" cy="163.3" r="1.7"/>
						</g>
						<g>
							<circle class="st35" cx="222.7" cy="128.7" r="1.7"/>
						</g>
						<g>
							<circle class="st35" cx="222.7" cy="94.2" r="1.7"/>
						</g>
					</g>
				</g>
				<g>
					<g>
						<g>
							<circle class="st35" cx="188.1" cy="267" r="1.7"/>
						</g>
						<g>
							<circle class="st35" cx="188.1" cy="232.5" r="1.7"/>
						</g>
						<g>
							<circle class="st35" cx="188.1" cy="197.9" r="1.7"/>
						</g>
						<g>
							<circle class="st35" cx="188.1" cy="163.3" r="1.7"/>
						</g>
						<g>
							<circle class="st35" cx="188.1" cy="128.7" r="1.7"/>
						</g>
						<g>
							<circle class="st35" cx="188.1" cy="94.2" r="1.7"/>
						</g>
					</g>
					<g>
						<g>
							<circle class="st35" cx="153.5" cy="267" r="1.7"/>
						</g>
						<g>
							<circle class="st35" cx="153.5" cy="232.5" r="1.7"/>
						</g>
						<g>
							<circle class="st35" cx="153.5" cy="197.9" r="1.7"/>
						</g>
						<g>
							<circle class="st35" cx="153.5" cy="163.3" r="1.7"/>
						</g>
						<g>
							<circle class="st35" cx="153.5" cy="128.7" r="1.7"/>
						</g>
						<g>
							<circle class="st35" cx="153.5" cy="94.2" r="1.7"/>
						</g>
					</g>
				</g>
				<g>
					<g>
						<g>
							<circle class="st35" cx="118.9" cy="267" r="1.7"/>
						</g>
						<g>
							<circle class="st35" cx="118.9" cy="232.5" r="1.7"/>
						</g>
						<g>
							<circle class="st35" cx="118.9" cy="197.9" r="1.7"/>
						</g>
						<g>
							<circle class="st35" cx="118.9" cy="163.3" r="1.7"/>
						</g>
						<g>
							<circle class="st35" cx="118.9" cy="128.7" r="1.7"/>
						</g>
						<g>
							<circle class="st35" cx="118.9" cy="94.2" r="1.7"/>
						</g>
					</g>
					<g>
						<g>
							<circle class="st35" cx="84.4" cy="267" r="1.7"/>
						</g>
						<g>
							<circle class="st35" cx="84.4" cy="232.5" r="1.7"/>
						</g>
						<g>
							<circle class="st35" cx="84.4" cy="197.9" r="1.7"/>
						</g>
						<g>
							<circle class="st35" cx="84.4" cy="163.3" r="1.7"/>
						</g>
						<g>
							<circle class="st35" cx="84.4" cy="128.7" r="1.7"/>
						</g>
						<g>
							<circle class="st35" cx="84.4" cy="94.2" r="1.7"/>
						</g>
					</g>
				</g>
			</g>
		</g>
		<g>
			<g>
				<path class="st34" d="M83.1,761.9c-0.1,0-0.3,0-0.4-0.1c-0.2-0.2-0.2-0.5,0-0.7l91.2-91.2c0.2-0.2,0.5-0.2,0.7,0s0.2,0.5,0,0.7
					l-91.2,91.2C83.4,761.8,83.3,761.9,83.1,761.9z"/>
			</g>
			<g>
				<path class="st34" d="M6,790.8c-0.1,0-0.3,0-0.4-0.1c-0.2-0.2-0.2-0.5,0-0.7l91.2-91.2c0.2-0.2,0.5-0.2,0.7,0s0.2,0.5,0,0.7
					L6.3,790.7C6.2,790.8,6.1,790.8,6,790.8z"/>
			</g>
		</g>
	</g>
	<g>
		<g>
			<g>
				<path d="M912.2,325.6c-2.4,0-4.3,1.9-4.3,4.3s1.9,4.3,4.3,4.3c2.4,0,4.3-1.9,4.3-4.3S914.6,325.6,912.2,325.6z"/>
			</g>
			<g>
				<path class="st12" d="M912.2,333.5c-2,0-3.6-1.6-3.6-3.6s1.6-3.6,3.6-3.6s3.6,1.6,3.6,3.6S914.2,333.5,912.2,333.5z"/>
			</g>
		</g>
		<g>
			<g>
				<path d="M913.4,330.4c-0.1-0.1-0.3-0.3-0.5-0.4c0.4-0.1,0.7-0.2,0.9-0.4c0.2-0.2,0.3-0.5,0.3-0.8s-0.1-0.5-0.2-0.7
					c-0.1-0.2-0.3-0.3-0.5-0.4s-0.6-0.1-1-0.1h-1.9v4.5h0.9v-1.9h0.2c0.2,0,0.4,0,0.5,0s0.2,0.1,0.3,0.2s0.2,0.3,0.5,0.7l0.6,1h1.1
					l-0.5-0.9C913.7,330.8,913.5,330.5,913.4,330.4z"/>
			</g>
			<g>
				<path class="st12" d="M912,329.4h-0.7v-1.1h0.7c0.4,0,0.6,0,0.7,0c0.1,0,0.3,0.1,0.3,0.2c0.1,0.1,0.1,0.2,0.1,0.4
					c0,0.1,0,0.2-0.1,0.3s-0.1,0.2-0.3,0.2C912.7,329.4,912.5,329.4,912,329.4z"/>
			</g>
		</g>
	</g>
</g>
</svg>
