<?xml version="1.0" encoding="utf-8"?>
<!-- Generator: Adobe Illustrator 24.0.2, SVG Export Plug-In . SVG Version: 6.00 Build 0)  -->
<svg version="1.1" id="performance" xmlns="http://www.w3.org/2000/svg" xmlns:xlink="http://www.w3.org/1999/xlink" x="0px"
	 y="0px" viewBox="0 0 1200 800" style="enable-background:new 0 0 1200 800;" xml:space="preserve">
<style type="text/css">
	.st0{fill:#FFFFFF;}
	.st1{fill:#7F7F7F;}
	.st2{fill:#DFFDFF;}
	.st3{fill:#F7A08B;}
	.st4{fill:#E24B31;}
	.st5{fill:#242B2D;}
	.st6{fill:#55265E;}
</style>
<g>
	<g>
		<g>
			<g>
				<g>
					<path class="st0" d="M806.9,307.7c-1.6,0.1-3.6,0.7-6,1.8c-13.7-34.7-26.8-67.7-40.1-90.1c0-0.1,0-0.1,0-0.2l-0.1,0
						c-1.3-2.2-2.7-4.3-4-6.3c20.3-32-16.9-40.1-24.8-21.8c-6-1.2-12.3,0.6-18.7,6.1c-10.8,9.3-46.1,72.5-90.5,73.4l0.8-0.4
						c-21.9-30.5,12.5-79.7-24.7-103c-18.7-11.7-32.3,15.8-59.1,69.7c-3.3,6.7-12.2,22.8-28.2,43.5l0-0.2c-4.7,1.4-8.6,6.8-11,13.8
						c-0.4,0.5-0.8,1-1.2,1.5c-1.2,0.9-2.3,2.1-3.1,3.4l0.2,0c-2.3,2.6-4.7,5.3-7.2,8c-5.8,1-12.8,7.8-15.8,16.3
						c-10,9.7-21.1,19.7-33.7,29.6c0,0-2.2,1.7-16.4,6.8c-36,12.9-84.8,28.5-89.1,53c1.3-8.1-43.8,73.1,161.3,56.7
						c97-7.8,111.7-44.3,149.8-37.1c54.5,10.3,151.6-37.3,167.6-45.9C837.4,373,828.4,306.5,806.9,307.7z"/>
				</g>
			</g>
			<g>
				<path class="st1" d="M813,386.1c24.4-13.1,15.4-79.6-6.1-78.4c-21.5,1.2-109.2,94.5-113,71.1s9.1-35.9-5.3-30.6
					C666,356.6,529.1,466.9,412,455.3c-60.5-6-82.5-21.3-77.8-42.6c2.1-9.7-45.5,73,161.4,56.4c97-7.8,111.7-44.3,149.8-37.1
					C699.9,442.3,797,394.8,813,386.1z"/>
			</g>
			<g>
				<path class="st2" d="M452.8,394.9c64-26.9,121.9-4.9,129.9,15.7l0.1,0.2C531.7,437.3,469.5,461,412,455.3
					c-60.5-6-82.5-21.3-77.8-42.6c1.5-7.9,6.3-13.9,13.1-18.8C366.1,414.2,409.5,413.1,452.8,394.9"/>
			</g>
			<g>
				<path class="st3" d="M622,341.6c0,0-9.8,7-16.3,7.1s-5.8-4.1-5.8-4.1s23.7-8.1,17.2-24.1c-2.9-4.1-6.3-5.4-11.1-5.3
					s-10.7,3-14.5,11.6c-1.8,4.1-2.5,8-2.9,11v0c0,0-4.1,0.8-6.4-1c-2.2-1.9-3.4,0-3.4,0s-3.9,4.9,0,6.4s9.8,2.2,9.8,2.2h0
					c0.6,2.6,2.2,7.1,6.8,10.6c7,5.3,20.5-0.5,20.5-0.5l5.5-3.1C629,347.7,625.7,339.1,622,341.6z M598.7,337.4
					c0.3-11.1,7.6-16,10.1-13.6c2.5,2.4,1.6,7.7-3.2,11C600.9,338,598.7,337.4,598.7,337.4z"/>
			</g>
			<g>
				<path class="st4" d="M646.1,257.9c35.5,87.3,90.5,56.8,107.7-41.7l-4.4-5.8c-39,121.9-93.1,47.4-98.4,44.8L646.1,257.9z"/>
			</g>
			<g>
				<path class="st4" d="M538.2,241c10.7-21.4,19.2-38.5,26.9-50.3l0.8,0.5c38.6,35.5-18.2,51.9-27,50.1L538.2,241z"/>
			</g>
			<g>
				<g>
					<g>
						<path class="st5" d="M325.7,403l-3-0.5c3.8-23.7,47.3-39.2,82.2-51.6c2.7-1,5.3-1.9,7.9-2.8c73.8-26.5,114.1-70,135.8-93.4
							c9.7-10.5,15.1-16.3,19.2-16.3c1.2-0.1,2.2,0.4,3,1.2c14.1,14,28.9,20.6,44,19.5c32.6-2.3,59.9-38.1,76.2-59.5
							c5-6.5,8.5-11.2,11.1-13.4c6.8-5.9,13.8-8,20.8-6.3c24.5,6,45,57.7,68.7,117.6l0.7,1.7l-2.8,1.1l-0.7-1.7
							c-22.4-56.6-43.6-110.1-66.6-115.8c-6-1.5-11.9,0.4-18.1,5.7c-2.3,2-6,6.8-10.7,13c-16.6,21.8-44.3,58.3-78.3,60.7
							c-16,1.1-31.6-5.7-46.4-20.4c-0.3-0.3-0.5-0.3-0.9-0.4c-2.9,0.1-9.2,6.8-17.1,15.4c-21.9,23.6-62.6,67.5-137,94.2
							c-2.6,0.9-5.2,1.9-7.9,2.8C371.8,365.9,329.2,381,325.7,403z"/>
					</g>
					<g>
						<path class="st5" d="M434.6,462.9c-79,0-105.4-19.1-112.8-36.8c-5.1-12.1-0.8-23.4,1.2-25.1c0.7-0.6,1.5-0.5,2-0.2
							c0.7,0.4,1,1.2,0.7,2.4c-1.4,6.2-0.3,11.6,3.2,16.4c8.9,12.2,33.5,20.4,73.3,24.3c92.1,9.1,197.1-58,247.6-90.2
							c13.6-8.7,23.4-14.9,28.3-16.7c3.5-1.3,6.2-1.9,7.8-0.5c1.8,1.5,1.3,4.3,0.4,8.8c-1,5.3-2.5,13.4-0.9,23.4
							c0.3,1.7,1,2.1,1.5,2.3c7,2.6,33.5-19.3,54.8-36.9c23.2-19.1,45.1-37.2,55.1-37.8c8.2-0.5,15.3,7.5,19.3,21.9
							c6.2,22,3.2,50.9-12.5,59.3l-0.7-1.3l0.7,1.3c-1.1,0.6-108.8,57.4-168.6,46c-16.7-3.2-29,2.4-46,10.2
							c-21,9.6-49.8,22.7-103.4,27C466.6,462.2,449.7,462.9,434.6,462.9z M322.4,412.1c-0.3,3.9,0.2,8.9,2.7,14.1
							c5.6,11.6,18.9,20.4,39.7,26.2c27.9,7.7,68.5,9.5,120.6,5.3c53-4.2,81.6-17.2,102.4-26.7c17.5-8,30.2-13.7,47.8-10.4
							c22.5,4.2,56.2-1.2,97.5-15.8c38.9-13.7,68.8-29.8,69.1-30c13.9-7.5,16.9-34.9,11-55.8c-3.6-12.7-9.6-20.1-16.3-19.8
							c-9,0.5-31.5,19.1-53.4,37.1c-30.6,25.3-49.8,40.4-57.8,37.4c-1.3-0.5-2.9-1.7-3.4-4.6c-1.7-10.5-0.1-18.9,0.9-24.5
							c0.5-2.4,1-5.5,0.6-6c-0.1,0-0.8-0.4-4.8,1.1c-4.6,1.7-14.3,7.9-27.7,16.5C600.6,388.5,495,456,401.9,446.8
							c-41.2-4.1-65.9-12.4-75.4-25.5C324.4,418.4,323,415.3,322.4,412.1z"/>
					</g>
					<g>
						<path class="st5" d="M430.6,343.9l-1.9-2.4c66.3-52.5,94.6-105.2,99.6-115.2l0.2-0.3c21.2-42.6,34-68.3,48.1-72.3
							c4.3-1.2,8.5-0.4,13,2.3c21.6,13.5,19.9,35.6,18.3,57c-1.2,16.4-2.5,33.4,6.8,46.4l-2.4,1.7c-10-13.9-8.6-31.4-7.4-48.4
							c1.6-21.4,3.1-41.7-16.9-54.2c-3.7-2.3-7.2-3-10.6-2c-12.9,3.6-26.1,30.3-46.3,70.7l-0.2,0.3C526,237.8,497.4,291,430.6,343.9
							z"/>
					</g>
				</g>
				<g>
					<path class="st5" d="M571.3,401.1c-2.6-6.8-11-13.6-23-18.7c-11.1-4.7-51.6-18.5-104.9,3.9c-45.6,19.1-88.7,18.6-107.2-1.3
						l2.2-2c17.7,19,59.4,19.2,103.9,0.6c54.3-22.8,95.8-8.7,107.2-3.9c12.7,5.4,21.7,12.9,24.6,20.4L571.3,401.1z"/>
				</g>
				<g>
					<polygon class="st5" points="554.5,332.7 464.2,327.6 464.4,324.6 553.5,329.6 581.2,308.3 544.9,261.8 547.3,260 585.4,308.8 
											"/>
				</g>
				<g>
					<path class="st5" d="M533.4,225.9c-0.7,0-1.4,0-1.9-0.2l0.6-2.9c5.2,1,29.9-5.1,36.8-18.6c4.3-8.5,0.6-18.2-11.1-28.9l2-2.2
						c12.8,11.7,16.7,22.7,11.7,32.5C564.7,219.1,541.9,225.9,533.4,225.9z"/>
				</g>
				<g>
					<path class="st5" d="M690.8,274.7c-18.1,0-33.3-15.1-40.3-22.1c-1.4-1.4-2.8-2.8-3.2-3l1.3-2.7c0.8,0.4,1.8,1.4,4,3.6
						c7.6,7.5,25.3,25.2,45,20.4c18.4-4.5,34.4-27.3,47.3-67.9l2.9,0.9c-13.3,41.6-30,65.1-49.5,69.9
						C695.8,274.4,693.3,274.7,690.8,274.7z"/>
				</g>
				<g>
					<path class="st5" d="M692,303.8c-18.7,0-36.5-18.4-50.3-52.4l2.8-1.1c14,34.4,31.8,52.3,50.2,50.3
						c23.9-2.5,45.3-38.5,54.6-91.7l3,0.5c-9.7,55.4-31.7,91.5-57.3,94.2C694,303.7,693,303.8,692,303.8z"/>
				</g>
				<g>
					<path class="st5" d="M747.7,204.3l-2.5-1.6c6.2-9.5,7.7-17.9,4.3-23.5c-2.5-4.2-7.9-6.6-13.6-6.1c-6,0.5-10.8,4-12.8,9.3
						l-2.8-1.1c2.4-6.4,8.1-10.5,15.3-11.2c6.9-0.6,13.3,2.3,16.4,7.5C754.4,181.4,756.9,190,747.7,204.3z"/>
				</g>
				<g>
					<path class="st5" d="M600.4,356.7c-3.2,0-6.3-0.6-8.8-2.6c-4.5-3.4-6.4-7.7-7.1-10.5c-1.9-0.3-6.1-1-9.2-2.2
						c-1.7-0.6-2.3-1.8-2.5-2.6c-0.7-2.6,1.5-5.6,1.9-6.1c0.2-0.3,0.9-1.2,2.2-1.4c1.1-0.2,2.2,0.2,3.4,1.1c1,0.9,2.8,0.9,4.1,0.8
						c0.4-2.9,1.2-6.5,2.8-10.2c5-11.1,12.8-12.5,15.9-12.5c5.6-0.1,9.3,1.7,12.3,6c0.1,0.1,0.1,0.2,0.2,0.3
						c1.7,4.1,1.6,8.2-0.1,11.9c-3.6,7.9-13.5,12.4-16.9,13.7c0.1,0.2,0.2,0.4,0.3,0.5c0.6,0.7,2,1.1,3.8,1.1
						c5.9-0.1,15.4-6.8,15.4-6.8c0,0,0,0,0.1,0c1.2-0.8,2.6-0.9,3.8-0.3c1.5,0.8,2.5,2.6,2.6,4.8c0.1,3.4-1.8,6.7-5.2,8.8l-5.6,3.1
						c0,0-0.1,0-0.1,0.1C613.2,354,606.8,356.7,600.4,356.7z M587.1,342.1c0.5,2.2,1.9,6.4,6.2,9.6c6,4.6,17.9-0.2,18.9-0.6l5.5-3.1
						c2.4-1.5,3.8-3.8,3.7-6.1c0-1.2-0.5-2.1-1-2.3c-0.1,0-0.3-0.2-0.7,0.1c-0.7,0.5-10.4,7.3-17.1,7.4c-2.9,0-4.9-0.7-6.2-2.1
						c-1.4-1.6-1.2-3.5-1.1-3.7c0.1-0.5,0.5-1,1-1.2c0.1,0,12.6-4.4,16.3-12.6c1.4-3,1.4-6.1,0.1-9.4c-2.4-3.4-5.2-4.6-9.7-4.5
						c-2.6,0-9,1.2-13.2,10.7c-1.8,3.9-2.4,7.7-2.8,10.5c-0.1,0.5-0.4,1-0.9,1.2c-0.1,0-0.2,0.1-0.3,0.1c-0.8,0.2-5,0.8-7.6-1.4
						c-0.5-0.4-0.8-0.5-1-0.5c-0.1,0-0.2,0.1-0.2,0.1c0,0-0.1,0.1-0.1,0.1c-0.7,0.9-1.6,2.6-1.4,3.5c0,0.1,0.1,0.4,0.7,0.6
						c3.6,1.4,9.4,2.1,9.5,2.1C586.5,340.9,587,341.5,587.1,342.1z M596.3,335.9c-0.5,0-0.8-0.1-1-0.1c-0.6-0.2-1.1-0.8-1.1-1.5
						c0.2-8.4,4.1-13.7,7.9-15.2c1.9-0.8,3.6-0.5,4.8,0.6c1.3,1.3,2,3.1,1.8,5.2c-0.2,3-2.2,6-5.2,8.1
						C599.9,335.5,597.5,335.9,596.3,335.9z M595.7,334.4L595.7,334.4L595.7,334.4z M604.2,321.7c-0.3,0-0.6,0.1-1,0.2
						c-2.1,0.9-5.3,4.5-5.9,10.9c0.9-0.2,2.4-0.8,4.5-2.3c2.3-1.5,3.7-3.7,3.9-5.8c0.1-1.2-0.2-2.2-0.9-2.8
						C604.7,321.7,604.5,321.7,604.2,321.7z"/>
				</g>
				<g>
					<path class="st5" d="M467.6,343.9c-3.9,0-7.2-3.2-7.2-7.2s3.2-7.2,7.2-7.2s7.2,3.2,7.2,7.2S471.6,343.9,467.6,343.9z
						 M467.6,332.6c-2.3,0-4.2,1.9-4.2,4.2s1.9,4.2,4.2,4.2s4.2-1.9,4.2-4.2S469.9,332.6,467.6,332.6z"/>
				</g>
				<g>
					<path class="st5" d="M518.7,306.7c-3.9,0-7.2-3.2-7.2-7.2s3.2-7.2,7.2-7.2c3.9,0,7.2,3.2,7.2,7.2S522.7,306.7,518.7,306.7z
						 M518.7,295.4c-2.3,0-4.2,1.9-4.2,4.2s1.9,4.2,4.2,4.2s4.2-1.9,4.2-4.2S521,295.4,518.7,295.4z"/>
				</g>
				<g>
					<path class="st5" d="M542.8,286.7c-3.9,0-7.2-3.2-7.2-7.2c0-3.9,3.2-7.2,7.2-7.2c3.9,0,7.2,3.2,7.2,7.2
						C549.9,283.5,546.7,286.7,542.8,286.7z M542.8,275.4c-2.3,0-4.2,1.9-4.2,4.2s1.9,4.2,4.2,4.2s4.2-1.9,4.2-4.2
						S545.1,275.4,542.8,275.4z"/>
				</g>
				<g>
					<path class="st5" d="M493.7,325.8c-3.9,0-7.2-3.2-7.2-7.2s3.2-7.2,7.2-7.2s7.2,3.2,7.2,7.2S497.6,325.8,493.7,325.8z
						 M493.7,314.5c-2.3,0-4.2,1.9-4.2,4.2s1.9,4.2,4.2,4.2s4.2-1.9,4.2-4.2S496,314.5,493.7,314.5z"/>
				</g>
				<g>
					<path class="st5" d="M466.5,337.7c-6.2-7.2-7.8-16.1-4.5-25.3c3.1-8.7,10.5-16,17.1-17.1l0.5,3c-4.8,0.8-11.7,6.7-14.8,15.2
						c-1.7,4.7-3.4,13.8,3.9,22.3L466.5,337.7z"/>
				</g>
				<g>
					<path class="st5" d="M492.5,319.6c-5.3-6.6-8.4-20.1-3.6-35.2c2.7-8.4,7.1-14.1,12.2-15.6l0.8,2.9c-4.1,1.2-7.9,6.3-10.2,13.6
						c-3.1,9.8-3.5,24.2,3.1,32.5L492.5,319.6z"/>
				</g>
				<g>
					<path class="st5" d="M487.5,289.6l-2.6-1.5c5.4-9,19.1-8.8,33.7-8.6c8.3,0.1,16.9,0.3,23.8-1.4l0.7,2.9
						c-7.2,1.8-16,1.7-24.6,1.5C504.9,282.3,492,282.1,487.5,289.6z"/>
				</g>
				<g>
					<path class="st5" d="M464.3,314.1l-1.4-2.6c22.2-11.8,49.4-15.4,56.2-13.3l-0.9,2.9C512.6,299.3,486.2,302.5,464.3,314.1z"/>
				</g>
			</g>
		</g>
		<g>
			<g>
				<g>
					<path class="st0" d="M395.6,645.8c14.6,10.8,104,71.6,159.5,69.1c38.7-1.8,48.1,36.5,143.1,57.9
						c200.8,45.2,167.5-41.5,167.7-33.3c-0.7-24.8-46.9-47.2-80.7-65c-13.4-7.1-15.3-9-15.3-9c-11-11.6-20.7-23-29.2-34
						c-1.8-8.9-7.8-16.5-13.4-18.3c-2.1-3-4.1-6-6-9l0.2,0.1c-0.6-1.5-1.5-2.7-2.6-3.8c-0.3-0.5-0.7-1.1-1-1.6
						c-1.4-7.2-4.4-13.1-8.9-15.2l0,0.2c-12.9-22.7-19.4-39.9-21.8-47c-19-57.2-28.6-86.2-48.7-77.3c-40.1,17.8-13,71.4-39,98.5
						l0.7,0.5c-43.8-7.2-69.8-74.7-79.2-85.4c-5.6-6.4-11.5-9.1-17.7-8.7c-5.2-19.3-43.2-16.4-27.6,18.1c-1.6,1.8-3.2,3.7-4.8,5.7
						l-0.1-0.1c0,0.1,0,0.1,0,0.2c-16.3,20.3-33.9,51.2-52.4,83.6c-2.2-1.4-4.1-2.3-5.7-2.6C391.6,564.8,373.3,629.3,395.6,645.8z"
						/>
				</g>
			</g>
			<g>
				<path class="st1" d="M395.6,645.8c-22.3-16.4-4.1-81,17.1-76.8s94.7,108.9,101.8,86.3c7.1-22.6-3.9-36.8,9.6-29.5
					c21.2,11.5,141.1,140,258.7,145c60.8,2.6,84.6-9.4,83-31.2c-0.7-9.9,34.7,78.7-167.7,33.1c-95-21.4-104.4-59.7-143.1-57.9
					C499.7,717.3,410.2,656.5,395.6,645.8z"/>
			</g>
			<g>
				<path class="st2" d="M750.9,705.2c-59.6-35.6-120-22.1-130.8-2.8l-0.1,0.2c46.9,33.5,105.1,65.7,162.8,68.2
					c60.8,2.6,84.6-9.4,83-31.2c-0.3-8-4.2-14.6-10.3-20.4C834.1,736.5,791.3,729.3,750.9,705.2"/>
			</g>
			<g>
				<path class="st3" d="M631.4,634.4c0,0-10.7,5.6-17.1,4.7c-6.4-0.8-5.2-4.9-5.2-4.9s24.6-4.7,20.5-21.5
					c-2.3-4.5-5.4-6.2-10.2-6.8c-4.7-0.6-11,1.5-16,9.5c-2.4,3.8-3.6,7.6-4.4,10.4l0,0c0,0-4.2,0.3-6.2-1.9c-2-2.2-3.4-0.5-3.4-0.5
					s-4.5,4.3-0.9,6.4c3.6,2,9.4,3.6,9.4,3.6l0,0c0.2,2.7,1.1,7.3,5.3,11.5c6.2,6.3,20.4,2.4,20.4,2.4l5.9-2.3
					C637.5,641.4,635.5,632.4,631.4,634.4z M609,626.9c1.8-11,9.8-14.8,11.9-12s0.5,7.8-4.7,10.4C611,627.9,609,626.9,609,626.9z"/>
			</g>
			<g>
				<path class="st4" d="M578.9,542.3c-47.4,81.5-97.6,43.4-100.8-56.5l5.2-5.1c21.4,126.2,85.5,60.1,91.1,58.2L578.9,542.3z"/>
			</g>
			<g>
				<path class="st4" d="M688.1,540.8c-7.5-22.7-13.6-40.8-19.5-53.6l-0.9,0.4c-43.2,29.7,10.7,53.9,19.7,53.4L688.1,540.8z"/>
			</g>
			<g>
				<g>
					<g>
						<path class="st5" d="M875.7,731.2c-0.4-22.3-40.4-43.2-72.5-60.1c-2.5-1.3-5-2.6-7.4-3.9c-69.9-37-104-86.2-122.4-112.6
							c-6.7-9.6-11.9-17.2-14.8-17.6c-0.3-0.1-0.6,0-0.9,0.2c-16.6,12.4-33.1,17-48.8,13.6c-33.3-7.1-55.7-47.2-69-71.1
							c-3.8-6.7-6.7-12.1-8.7-14.4c-5.3-6.1-10.9-8.8-17.1-8.2c-23.5,2.4-52.1,52.3-82.3,105.2l-0.9,1.6l-2.6-1.5l0.9-1.6
							c31.9-55.9,59.5-104.2,84.6-106.7c7.1-0.7,13.7,2.4,19.7,9.2c2.2,2.5,5.1,7.7,9.1,14.9c13.1,23.5,35,62.8,67,69.6
							c14.8,3.2,30.4-1.2,46.4-13.1c0.9-0.7,2-1,3.2-0.8c4.1,0.7,8.6,7.1,16.7,18.9c18.2,26.2,52,75,121.3,111.7
							c2.4,1.3,4.9,2.6,7.4,3.9c32.8,17.2,73.6,38.6,74.1,62.7L875.7,731.2z"/>
					</g>
					<g>
						<path class="st5" d="M807.3,778.9c-24.2,0-56.1-3.7-98.2-13.2c-52.4-11.8-79.1-28.8-98.6-41.3c-15.8-10.1-27.1-17.3-44.1-16.6
							c-60.8,2.8-159.4-68.6-160.4-69.4c-8.6-6.4-10.6-18.3-10.8-27.1c-0.2-10.8,2.3-23.3,6.8-33.4c6-13.7,14.1-20.6,22.2-19
							c9.8,1.9,29,22.9,49.2,45.2c18.6,20.4,41.8,45.8,49.1,44.2c0.5-0.1,1.3-0.5,1.8-2.1c3-9.7,2.7-17.9,2.4-23.3
							c-0.2-4.6-0.3-7.4,1.7-8.7c1.8-1.1,4.4-0.2,7.7,1.6c4.6,2.5,13.4,10.1,25.6,20.6c45.4,39,140,120.3,232.4,124.3
							c39.9,1.7,65.5-2.9,76-13.7c4.2-4.3,6-9.5,5.5-15.8c-0.1-1.2,0.3-1.9,1-2.3c0.5-0.2,1.3-0.2,1.9,0.5c1.7,2,4.4,13.8-2.4,25.1
							C868.7,767.1,850.2,778.9,807.3,778.9z M568.9,704.8c16.5,0,27.8,7.3,43.2,17.1c19.3,12.3,45.7,29.2,97.6,40.9
							c51,11.5,91.5,15.4,120.2,11.7c21.3-2.7,35.8-9.6,43-20.3c3.3-4.9,4.4-9.7,4.7-13.6c-1,3.2-2.8,6-5.2,8.5
							c-11.3,11.6-36.9,16.4-78.3,14.6c-93.5-4-188.6-85.7-234.3-125c-12.1-10.4-20.8-17.9-25.1-20.2c-3.8-2-4.6-1.8-4.6-1.7
							c-0.5,0.4-0.4,3.5-0.3,6c0.3,5.6,0.7,14.2-2.5,24.4c-0.9,2.9-2.7,3.8-4,4.1c-8.4,1.8-25.2-15.8-52-45.2
							c-19.1-20.9-38.8-42.5-47.6-44.2c-6.5-1.3-13.6,5.2-18.9,17.3c-8.8,19.9-9.7,47.5,3,56.8c0.3,0.2,27.7,20.3,64.2,39.4
							c38.8,20.3,71.4,30.4,94.3,29.4C567.2,704.8,568.1,704.8,568.9,704.8z"/>
					</g>
					<g>
						<path class="st5" d="M780.1,657.9c-58.7-61.8-79.4-118.5-83-129.2l-0.1-0.4c-14.2-42.8-23.6-71.1-35.8-76.5
							c-3.2-1.4-6.8-1.3-10.7,0.5c-21.6,9.6-23,29.8-24.4,51.3c-1.1,17-2.3,34.5-14.1,46.8l-2.2-2.1c11.1-11.5,12.2-28.5,13.3-45
							c1.4-21.4,2.9-43.5,26.2-53.8c4.8-2.1,9.1-2.3,13.2-0.5c13.4,5.9,22.5,33.2,37.5,78.3l0.1,0.4c3.5,10.6,24.1,66.8,82.3,128.1
							L780.1,657.9z"/>
					</g>
				</g>
				<g>
					<path class="st5" d="M834.9,721.7c-21.2,0-47.4-8.1-73.4-23.7c-49.5-29.6-91.6-21.7-103.3-18.6c-12.6,3.4-21.9,8.9-25.4,15.3
						l-2.6-1.5c4-7.1,13.9-13.2,27.3-16.7c12-3.2,55-11.3,105.6,18.9c41.4,24.7,82.8,30.4,102.9,14.1l1.9,2.3
						C859.6,718.5,848.2,721.7,834.9,721.7z"/>
				</g>
				<g>
					<polygon class="st5" points="749.1,637 659.1,629.3 631.8,601.3 676.4,558.3 678.5,560.5 636.1,601.3 660.4,626.4 749.4,634 
											"/>
				</g>
				<g>
					<path class="st5" d="M696.5,526.7c-7,0-31.3-10.3-36.5-25.7c-3.6-10.4,1.9-20.7,16.2-30.5l1.7,2.5c-13.1,9-18.1,18.1-15,27.1
						c4.8,14.2,27.8,23.6,33.6,23.6c0.1,0,0.2,0,0.3,0l0.2,3C696.7,526.7,696.6,526.7,696.5,526.7z"/>
				</g>
				<g>
					<path class="st5" d="M537,553c-4,0-8-0.7-12.1-2.3c-18.7-7.5-31.8-33.1-39.1-76.2l3-0.5c7.1,42,19.7,66.8,37.3,73.9
						c18.8,7.5,38.9-7.5,47.4-13.8c2.5-1.9,3.6-2.7,4.5-3l1,2.8l-0.5-1.4l0.5,1.4c-0.5,0.2-2.1,1.4-3.6,2.5
						C568.1,541.8,553.1,553,537,553z"/>
				</g>
				<g>
					<path class="st5" d="M531,581.6c-2.4,0-4.7-0.3-7-0.9c-25-6.3-41.6-45.1-43.4-101.3l3-0.1c1.8,54,17.9,92.6,41.2,98.5
						c18,4.5,38.1-10.6,56.8-42.8l2.6,1.5C567,565.9,548.4,581.6,531,581.6z"/>
				</g>
				<g>
					<path class="st5" d="M485.9,474.9c-7.1-15.4-3.4-23.5-0.5-27c3.8-4.7,10.6-6.7,17.3-5.1c7,1.7,12.1,6.6,13.6,13.2l-2.9,0.7
						c-1.2-5.5-5.5-9.6-11.4-11c-5.6-1.3-11.2,0.3-14.3,4.1c-4.2,5.1-3.8,13.6,0.9,23.9L485.9,474.9z"/>
				</g>
				<g>
					<path class="st5" d="M617.7,647.4c-4.3,0-9.1-0.9-12.2-4c-4-4-5.2-8.5-5.6-11.4c-1.9-0.5-5.9-1.8-8.8-3.4
						c-1.6-0.9-2-2.1-2.1-2.9c-0.3-2.7,2.3-5.3,2.7-5.8c0.3-0.3,1.1-1.1,2.4-1.1c1.1,0,2.2,0.5,3.2,1.6c0.9,1,2.7,1.3,3.9,1.4
						c0.8-2.8,2-6.2,4.3-9.7c6.5-10.3,14.4-10.5,17.5-10.1c5.6,0.7,9,3,11.3,7.6c0.1,0.1,0.1,0.2,0.1,0.3c1.1,4.3,0.5,8.3-1.8,11.8
						c-4.7,7.3-15.2,10.4-18.7,11.2c0,0.2,0.1,0.4,0.3,0.6c0.5,0.8,1.8,1.3,3.7,1.6c5.9,0.8,16.2-4.5,16.3-4.6c0,0,0,0,0.1,0
						c1.3-0.6,2.7-0.5,3.8,0.2c1.4,1,2.1,3,1.9,5.2c-0.3,3.4-2.7,6.3-6.4,7.9l-6,2.3c0,0-0.1,0-0.1,0
						C627,646.2,622.7,647.4,617.7,647.4z M602.8,630.8c0.2,2.3,1,6.6,4.8,10.4c5.3,5.4,17.8,2.3,18.8,2l5.8-2.3
						c2.6-1.1,4.3-3.2,4.6-5.5c0.1-1.2-0.2-2.1-0.7-2.4c-0.1-0.1-0.3-0.2-0.7,0c-0.8,0.4-11.3,5.7-18,4.9c-2.8-0.4-4.8-1.4-5.8-3
						c-1.2-1.8-0.7-3.6-0.6-3.8c0.2-0.5,0.6-0.9,1.2-1c0.1,0,13-2.6,17.9-10.2c1.8-2.8,2.2-5.8,1.4-9.3c-1.9-3.7-4.4-5.3-9-5.9
						c-2.5-0.3-9-0.1-14.6,8.8c-2.3,3.7-3.5,7.3-4.2,10c-0.1,0.5-0.5,0.9-1,1c-0.1,0-0.2,0-0.3,0.1c-0.9,0-5.1,0.1-7.4-2.4
						c-0.4-0.4-0.7-0.6-0.9-0.6c-0.1,0-0.3,0.1-0.3,0.1c0,0,0,0-0.1,0.1c-0.8,0.8-2,2.4-1.8,3.3c0,0.1,0,0.4,0.6,0.7
						c3.4,1.9,9,3.4,9.1,3.4C602.3,629.5,602.8,630.2,602.8,630.8z M613.6,626c-1,0-1.6-0.2-1.8-0.3c-0.6-0.3-1-0.9-0.8-1.6
						c1.4-8.2,6-12.9,9.9-13.9c1.9-0.5,3.6,0,4.6,1.3c1.1,1.5,1.5,3.4,1,5.4c-0.7,2.9-3,5.7-6.3,7.3C617.1,625.6,615,626,613.6,626z
						 M612.4,624.4L612.4,624.4L612.4,624.4z M622.3,613c-0.2,0-0.5,0-0.7,0.1c-2.2,0.6-5.9,3.7-7.4,9.9c1-0.1,2.5-0.5,4.8-1.6
						c2.5-1.2,4.2-3.2,4.7-5.2c0.3-1.1,0.1-2.2-0.5-2.9C623,613.1,622.7,613,622.3,613z"/>
				</g>
				<g>
					<path class="st5" d="M744.5,652.7c-0.3,0-0.7,0-1-0.1c-1.9-0.3-3.6-1.3-4.7-2.8c-1.1-1.5-1.6-3.4-1.4-5.3l0,0
						c0.3-1.9,1.3-3.6,2.8-4.7c1.5-1.1,3.4-1.6,5.3-1.4c1.9,0.3,3.6,1.3,4.7,2.8c1.1,1.5,1.6,3.4,1.4,5.3
						C751.1,650.1,748,652.7,744.5,652.7z M744.5,641.4c-0.9,0-1.8,0.3-2.5,0.8c-0.9,0.7-1.5,1.6-1.6,2.7l0,0
						c-0.2,1.1,0.1,2.2,0.8,3.1c0.7,0.9,1.6,1.5,2.7,1.6c2.3,0.3,4.4-1.3,4.7-3.5c0.2-1.1-0.1-2.2-0.8-3.1c-0.7-0.9-1.6-1.5-2.7-1.6
						C744.9,641.4,744.7,641.4,744.5,641.4z"/>
				</g>
				<g>
					<path class="st5" d="M699.1,608.7c-0.3,0-0.7,0-1-0.1c-1.9-0.3-3.6-1.3-4.7-2.8c-1.1-1.5-1.6-3.4-1.4-5.3l0,0
						c0.3-1.9,1.3-3.6,2.8-4.7c1.5-1.1,3.4-1.6,5.3-1.4c1.9,0.3,3.6,1.3,4.7,2.8c1.1,1.5,1.6,3.4,1.4,5.3
						C705.7,606.2,702.6,608.7,699.1,608.7z M699.1,597.4c-0.9,0-1.8,0.3-2.5,0.8c-0.9,0.7-1.5,1.6-1.6,2.7l0,0
						c-0.2,1.1,0.1,2.2,0.8,3.1c0.7,0.9,1.6,1.5,2.7,1.6c2.3,0.3,4.4-1.3,4.7-3.5c0.2-1.1-0.1-2.2-0.8-3.1c-0.7-0.9-1.6-1.5-2.7-1.6
						C699.5,597.4,699.3,597.4,699.1,597.4z"/>
				</g>
				<g>
					<path class="st5" d="M678.2,585.5c-0.3,0-0.7,0-1-0.1c-3.9-0.6-6.6-4.2-6.1-8.1l0,0c0.3-1.9,1.3-3.6,2.8-4.7
						c1.5-1.1,3.4-1.6,5.3-1.4c1.9,0.3,3.6,1.3,4.7,2.8c1.1,1.5,1.6,3.4,1.4,5.3c-0.3,1.9-1.3,3.6-2.8,4.7
						C681.2,585,679.7,585.5,678.2,585.5z M674,577.7c-0.3,2.3,1.3,4.4,3.5,4.7c1.1,0.2,2.2-0.1,3.1-0.8c0.9-0.7,1.5-1.6,1.6-2.7
						c0.2-1.1-0.1-2.2-0.8-3.1c-0.7-0.9-1.6-1.5-2.7-1.6c-1.1-0.2-2.2,0.1-3.1,0.8C674.8,575.7,674.2,576.6,674,577.7L674,577.7z"/>
				</g>
				<g>
					<path class="st5" d="M721.2,631.1c-0.3,0-0.7,0-1-0.1c-3.9-0.6-6.6-4.2-6.1-8.1v0c0.3-1.9,1.3-3.6,2.8-4.7
						c1.5-1.1,3.4-1.6,5.3-1.4c1.9,0.3,3.6,1.3,4.7,2.8c1.1,1.5,1.6,3.4,1.4,5.3C727.8,628.6,724.7,631.1,721.2,631.1z M717.1,623.4
						c-0.3,2.3,1.3,4.4,3.5,4.7c2.3,0.3,4.4-1.3,4.7-3.5c0.2-1.1-0.1-2.2-0.8-3.1c-0.7-0.9-1.6-1.5-2.7-1.6
						C719.6,619.6,717.5,621.1,717.1,623.4L717.1,623.4z"/>
				</g>
				<g>
					<path class="st5" d="M745.5,646.7l-2-2.3c8.5-7.4,8-16.6,7-21.5c-1.9-8.8-7.8-15.6-12.5-17.1l0.9-2.9
						c6.4,2,12.6,10.3,14.5,19.4C755.4,631.8,752.6,640.5,745.5,646.7z"/>
				</g>
				<g>
					<path class="st5" d="M722.3,625.1l-2.1-2.2c7.7-7.3,9.4-21.6,7.7-31.7c-1.3-7.6-4.3-13.2-8.2-14.9l1.2-2.7
						c4.8,2.2,8.5,8.4,9.9,17.1C733.5,606.3,728.4,619.2,722.3,625.1z"/>
				</g>
				<g>
					<path class="st5" d="M731.4,596.1c-3.4-8.1-16.2-9.7-29.7-11.4c-8.5-1.1-17.2-2.2-24.1-5l1.1-2.8c6.5,2.7,15.1,3.7,23.3,4.8
						c14.4,1.8,28.1,3.5,32.1,13.2L731.4,596.1z"/>
				</g>
				<g>
					<path class="st5" d="M750.9,623.6c-20-14.6-45.7-21.5-51.6-20.6l-0.4-3c7.1-1.1,33.5,6.3,53.8,21.1L750.9,623.6z"/>
				</g>
			</g>
		</g>
		<g>
			<path class="st5" d="M598.3,544.6h-3V23.3c0-6.3-5.1-11.5-11.5-11.5c-6.3,0-11.5,5.1-11.5,11.5v135.3h-3V23.3
				c0-8,6.5-14.5,14.5-14.5c8,0,14.5,6.5,14.5,14.5V544.6z"/>
		</g>
	</g>
	<g>
		<g>
			<path class="st3" d="M935.2,241.9c-0.1,0-0.3,0-0.4-0.1c-0.2-0.2-0.2-0.5,0-0.7c9-9,13.9-20.8,13.9-33.5s-4.9-24.6-13.9-33.5
				c-18.5-18.5-48.5-18.5-67,0c-0.2,0.2-0.5,0.2-0.7,0s-0.2-0.5,0-0.7c18.9-18.9,49.6-18.9,68.4,0c9.1,9.1,14.2,21.3,14.2,34.2
				c0,12.9-5,25.1-14.2,34.2C935.5,241.9,935.4,241.9,935.2,241.9z"/>
		</g>
		<g>
			<g>
				<path class="st6" d="M858.2,252.4c-0.1,0-0.3,0-0.4-0.1c-0.2-0.2-0.2-0.5,0-0.7L1008,101.5c0.2-0.2,0.5-0.2,0.7,0s0.2,0.5,0,0.7
					L858.6,252.3C858.5,252.4,858.3,252.4,858.2,252.4z"/>
			</g>
			<g>
				<path class="st6" d="M985.2,204.8c-0.1,0-0.3,0-0.4-0.1c-0.2-0.2-0.2-0.5,0-0.7L1135,53.8c0.2-0.2,0.5-0.2,0.7,0s0.2,0.5,0,0.7
					L985.6,204.7C985.5,204.8,985.3,204.8,985.2,204.8z"/>
			</g>
		</g>
	</g>
	<g>
		<g>
			<path class="st6" d="M228.1,611.1c-0.1,0-0.3,0-0.4-0.1l-24.3-24.3c-0.1-0.1-0.1-0.2-0.1-0.4s0.1-0.3,0.1-0.4l50.9-50.9
				c0.2-0.2,0.5-0.2,0.7,0l24.3,24.3c0.2,0.2,0.2,0.5,0,0.7l-50.9,50.9C228.4,611,228.3,611.1,228.1,611.1z M204.5,586.2l23.6,23.6
				l50.2-50.2L254.7,536L204.5,586.2z"/>
		</g>
		<g>
			<g>
				<g>
					<g>
						<circle class="st3" cx="252.5" cy="683.8" r="1.7"/>
					</g>
					<g>
						<circle class="st3" cx="277" cy="659.3" r="1.7"/>
					</g>
					<g>
						<circle class="st3" cx="301.4" cy="634.9" r="1.7"/>
					</g>
				</g>
				<g>
					<g>
						<circle class="st3" cx="228.1" cy="659.3" r="1.7"/>
					</g>
					<g>
						<circle class="st3" cx="252.5" cy="634.9" r="1.7"/>
					</g>
					<g>
						<circle class="st3" cx="277" cy="610.4" r="1.7"/>
					</g>
				</g>
			</g>
			<g>
				<g>
					<g>
						<circle class="st3" cx="203.6" cy="634.9" r="1.7"/>
					</g>
					<g>
						<circle class="st3" cx="228.1" cy="610.4" r="1.7"/>
					</g>
					<g>
						<circle class="st3" cx="252.5" cy="586" r="1.7"/>
					</g>
				</g>
				<g>
					<g>
						<circle class="st3" cx="179.2" cy="610.4" r="1.7"/>
					</g>
					<g>
						<circle class="st3" cx="203.6" cy="586" r="1.7"/>
					</g>
					<g>
						<circle class="st3" cx="228.1" cy="561.5" r="1.7"/>
					</g>
				</g>
			</g>
			<g>
				<g>
					<g>
						<circle class="st3" cx="154.7" cy="586" r="1.7"/>
					</g>
					<g>
						<circle class="st3" cx="179.2" cy="561.5" r="1.7"/>
					</g>
					<g>
						<circle class="st3" cx="203.6" cy="537.1" r="1.7"/>
					</g>
				</g>
				<g>
					<g>
						<circle class="st3" cx="130.3" cy="561.5" r="1.7"/>
					</g>
					<g>
						<circle class="st3" cx="154.7" cy="537.1" r="1.7"/>
					</g>
					<g>
						<circle class="st3" cx="179.2" cy="512.6" r="1.7"/>
					</g>
				</g>
			</g>
		</g>
	</g>
	<g>
		<path class="st3" d="M1059.8,594.9c-36.4,0-66-29.6-66-66s29.6-66,66-66c36.4,0,66,29.6,66,66S1096.1,594.9,1059.8,594.9z
			 M1059.8,464c-35.8,0-65,29.1-65,65s29.1,65,65,65c35.8,0,65-29.1,65-65S1095.6,464,1059.8,464z"/>
	</g>
	<g>
		<path class="st6" d="M1021.8,642.7c-36.4,0-66-29.6-66-66s29.6-66,66-66c36.4,0,66,29.6,66,66S1058.1,642.7,1021.8,642.7z
			 M1021.8,511.7c-35.8,0-65,29.1-65,65s29.1,65,65,65c35.8,0,65-29.1,65-65S1057.6,511.7,1021.8,511.7z"/>
	</g>
	<g>
		<g>
			<path class="st6" d="M197.9,236.5c-14,0-27.2-5.5-37.1-15.4c-20.5-20.5-20.5-53.8,0-74.2c0.2-0.2,0.5-0.2,0.7,0l73.5,73.5
				c0.1,0.1,0.1,0.2,0.1,0.4s-0.1,0.3-0.1,0.4C225.1,231,212,236.5,197.9,236.5z M161.2,147.9c-19.7,20.1-19.6,52.5,0.4,72.5
				c9.7,9.7,22.7,15.1,36.4,15.1c13.6,0,26.4-5.2,36.1-14.7L161.2,147.9z"/>
		</g>
		<g>
			<path class="st3" d="M225.6,208.8c-13.4,0-26.9-5.1-37.1-15.4c-20.5-20.5-20.5-53.8,0-74.2c0.2-0.2,0.5-0.2,0.7,0l73.5,73.5
				c0.2,0.2,0.2,0.5,0,0.7C252.5,203.7,239,208.8,225.6,208.8z M188.8,120.3c-19.7,20.1-19.6,52.5,0.4,72.5
				c20,20,52.4,20.1,72.5,0.4L188.8,120.3z"/>
		</g>
		<g>
			<path class="st6" d="M253.2,181.2c-13.4,0-26.9-5.1-37.1-15.4c-20.5-20.5-20.5-53.8,0-74.2c0.2-0.2,0.5-0.2,0.7,0l73.5,73.5
				c0.1,0.1,0.1,0.2,0.1,0.4s-0.1,0.3-0.1,0.4C280.1,176,266.7,181.2,253.2,181.2z M216.4,92.6c-19.7,20.1-19.6,52.5,0.4,72.5
				c20,20,52.4,20.1,72.5,0.4L216.4,92.6z"/>
		</g>
	</g>
</g>
</svg>
