<svg xmlns="http://www.w3.org/2000/svg" xmlns:xlink="http://www.w3.org/1999/xlink" width="695px" height="128px" viewBox="0 0 695 128">
  <defs/>
  <defs>
    <path id="a" d="M.8 0h54.1v31.9H.8z"/>
    <filter id="grayscale">
      <feColorMatrix type="matrix" values="0.3333 0.3333 0.3333 0 0 0.3333 0.3333 0.3333 0 0 0.3333 0.3333 0.3333 0 0 0 0 0 1 0"/>
    </filter>
  </defs>
  <g fill="none" filter="url(#grayscale)" fill-rule="evenodd">
    <path d="M365 117.4a23.1 23.1 0 01-5.1 7.6 5.7 5.7 0 01-3.8 1.7c-1 0-2.1-.3-3.5-.8a10 10 0 00-3.7-.9c-1.2 0-2.5.3-3.9.9-1.3.5-2.4.8-3.3.8-1.3 0-2.6-.5-3.8-1.7a25.5 25.5 0 01-7.7-17.8c0-2.9.6-5.3 1.8-7.4a10.8 10.8 0 019-5.4c1.1 0 2.5.3 4.1 1 1.7.6 2.7 1 3.2 1 .4 0 1.5-.5 3.5-1.2s3.5-1 4.9-.9c3.5.3 6.2 1.7 8 4.3a9 9 0 00-4.8 8.1c0 2.7 1 5 3 6.8.8.8 1.8 1.4 2.9 1.9l-.7 2zM357 85a9 9 0 01-2.3 6c-1.9 2.1-4.1 3.4-6.6 3.2v-.8a9.4 9.4 0 015.4-8.3c1.2-.6 2.4-.9 3.5-1v1z" fill="#000" fill-rule="nonzero" opacity=".5"/>
    <g fill="#000" opacity=".5">
      <path fill-rule="nonzero" d="M629.3 11.6a6.1 6.1 0 00-4.6 2.4c-.6.7-1 1.5-1.3 2.4a10 10 0 00.6 7.3 7 7 0 001.6 2.1c.6.4 1.3.9 2 1 2 .7 4.2.4 5.9-1 .4-.2.7-.7 1-1 0-.2.4-.6.4-.3V32h2.2v-20h-2.2v2.7c-.4-.6-.7-1.2-1.3-1.6a6.2 6.2 0 00-4.3-1.4zm.7 2a4.5 4.5 0 014.2 2.6c.8 1.8 1 3.9.3 5.7-.3 1-.9 1.7-1.6 2.3-1 .9-2.6 1-4 .8-.9-.1-1.6-.7-2.2-1.3-1-1.2-1.4-3-1.4-4.5a7 7 0 011.2-4c.6-.6 1.3-1.2 2.2-1.4a4 4 0 011.3-.2z"/>
      <path d="M613 5.9c-1.6 0-3.3.5-4.6 1.5l-.8.8c-.8 1-1.2 2.4-1.1 3.8 0 1 .4 1.9 1 2.6l.9.8c1.7 1.4 4 1.6 6 2.2 1.3.4 2.8.7 3.6 1.8.7.9.7 2.2.3 3.2-.3.9-1 1.5-1.8 1.9-1.6.7-3.5.7-5.2.2a6.4 6.4 0 01-3.1-2.2c-.3-.4-.4-.6-.8-.2l-1.5 1c.4.7 1 1.3 1.5 1.7a9 9 0 003.2 1.7c2.2.7 4.6.6 6.8-.3.8-.4 1.6-.9 2.3-1.6.7-1 1.3-2.3 1.3-3.6a4.9 4.9 0 00-1.9-4l-1.3-1c-2.2-1-4.7-1.3-7-2.2-.6-.4-1.3-.9-1.7-1.6a3 3 0 011-3.4c.9-.8 2.1-1 3.3-1 2 0 4 .9 5.2 2.5l1.8-1.4a7.4 7.4 0 00-1.9-1.8 9 9 0 00-5.4-1.4zM640.8 21.6c0 1.3.3 2.6 1 3.7.4.6 1 1 1.7 1.4a6 6 0 005-.1c.7-.4 1.4-1 1.9-1.5l.5-.8v2.5h2.2V12H651V21a4.7 4.7 0 01-1.7 3.2c-1.2 1-3 1.2-4.4.6-1-.5-1.6-1.6-1.7-2.7v-5.7-4.5h-2.3v9.7z"/>
      <path fill-rule="nonzero" d="M662.2 11.6c-2 0-3.8.7-5.4 1.8l1 1.6a8 8 0 014.6-1.5c1.1 0 2.5.2 3.2 1.3.4.7.3 1.7-.4 2.2-.5.6-1.5.8-2.3 1-1.5.2-3 .3-4.5 1-.6.2-1.2.7-1.6 1.3-.8 1-.9 2.3-.6 3.5.1.7.5 1.3.9 1.8.2.3.6.6 1 .8 1.4.8 3 .9 4.6.6.9-.2 1.7-.7 2.4-1.3l.7-.8c.2 0 0 .5 0 .8v1.1h2.2V15.2c-.2-1-.8-2.1-1.7-2.7-1.2-.7-2.7-1-4.1-1zm3.6 7c0 1.5.3 3.2-.5 4.7a4 4 0 01-3.2 1.9c-1.1.1-2.5 0-3.3-1-.5-.7-.6-1.7-.4-2.6.3-.7.9-1.1 1.6-1.4 1.6-.5 3.4-.5 5-1.2l.8-.5z"/>
      <path d="M678.2 11.6c-1.2.1-2.4.7-3.2 1.4l-1 1.4V12h-2.2v15h2.2V18c.2-1.4.8-2.8 2-3.7a4 4 0 013.8-.3c.3-.2.2-.6.3-.9 0-.4.2-.7.3-1.1a4 4 0 00-2.2-.5z"/>
      <path fill-rule="nonzero" d="M687.8 11.6c-1.3 0-2.5.5-3.6 1.2l-.7.5c-.6.6-1 1.2-1.4 2a9.8 9.8 0 00-.5 7c.3 1 1 2 1.6 2.8.3.3.6.6.9.7a7 7 0 003.8 1.3 7.4 7.4 0 006.4-2.6l-1.5-1.4a5 5 0 01-3 1.9c-1.8.3-3.8 0-5-1.4-1-1-1.3-2.4-1.3-3.8.2-.3.7 0 1-.1H695c.2-2-.2-4.2-1.5-5.8-.3-.5-.8-.8-1.3-1.1a6.8 6.8 0 00-4.3-1.2zm.8 1.9c1.4 0 2.9.9 3.5 2.2.4.7.6 1.5.6 2.3h-9.2c.2-1.1.4-2.3 1.2-3l.8-.8a5 5 0 013-.7zM590.3.5h-21.4c-2.9 0-5.3 2.5-5.3 5.4v21.6c0 3 2.4 5.3 5.3 5.3h21.4c3 0 5.3-2.4 5.3-5.3V5.9c0-3-2.4-5.4-5.3-5.4zm-.5 24.8c0 .9-.8 1.7-1.7 1.7h-17c-1 0-1.7-.8-1.7-1.7V8c0-1 .8-1.7 1.7-1.7h17c1 0 1.7.8 1.7 1.7v17.2zM584 20c0 .6-.5 1-1 1h-6.8a1 1 0 01-1-1v-6.8c0-.6.5-1 1-1h6.8c.5 0 1 .4 1 1V20z"/>
    </g>
    <g>
      <path fill="#737373" fill-rule="nonzero" d="M412.7 19.6l-1 2.7c-.1-.6-.4-1.6-.9-2.7l-5-12.7H401v20.3h3.2V14.7v-2.8l-.1-1.3.5 1.7 6 14.9h2.2l6-15 .3-1.6h.1l-.1 3.6v13h3.4V6.7h-4.7l-5 12.8zm13-7h3.3V27h-3.3V12.5zm1.7-6.2a2 2 0 00-1.4.6c-.4.3-.6.8-.6 1.4 0 .5.2 1 .6 1.4.4.3.8.5 1.4.5.6 0 1-.2 1.4-.5a2 2 0 000-2.8c-.3-.4-.8-.6-1.4-.6zm13.5 6a9 9 0 00-2-.2c-1.4 0-2.8.3-4 1-1.1.7-2 1.7-2.6 2.9a9.2 9.2 0 000 8c.5 1 1.4 2 2.5 2.5 1 .7 2.2 1 3.6 1 1.6 0 3-.4 4-1v-3.2.1a5.7 5.7 0 01-3.3 1.2c-1.3 0-2.3-.4-3-1.3a5 5 0 01-1.2-3.4 5 5 0 011.1-3.6 4 4 0 013.2-1.3c1 0 2.2.4 3.2 1.1v.1V13c-.4-.2-.9-.5-1.5-.6zm11 0c-.8 0-1.6.2-2.3.7a5 5 0 00-1.3 2v-2.6H445v14.6h3.3v-7.4c0-1.3.3-2.3.8-3.1.6-.8 1.3-1.2 2.2-1.2l1 .2c.3 0 .6.2.8.3l.1.1v-3.4c-.3-.2-.8-.3-1.3-.3zm23.6 6.2a8 8 0 01-2-1c-.3-.3-.5-.7-.5-1.2 0-.4.2-.8.6-1 .4-.3.8-.4 1.4-.4.6 0 1.2 0 1.8.2l1.5.7v.2-3.3a9 9 0 00-3.2-.6c-1.5 0-2.9.4-3.9 1.3a4 4 0 00-1.5 3.2c0 .7.1 1.3.3 1.8.3.5.6 1 1 1.3l2.1 1.2 1.7.8.8.7.2.8c0 1-.7 1.4-2.2 1.4-.5 0-1.1 0-1.8-.3a7 7 0 01-1.9-1h-.1v3.3a9.8 9.8 0 003.8.8c1.7 0 3.1-.4 4.1-1.2a4 4 0 001.6-3.4c0-1-.3-1.8-.8-2.5-.8-.6-1.7-1.3-3-1.8zm30.8 4.3c0 3 1.4 4.6 4.2 4.6l1.4-.1 1-.4v-2.8l-.7.4-.7.1c-.7 0-1.1-.2-1.5-.6-.3-.3-.4-1-.4-1.8V8.2l-3.3 1V23zm-5-12.2c0-.8.1-1.5.5-2 .3-.3.9-.6 1.6-.6.4 0 .9.1 1.4.4h.2v-3h-.1l-1.9-.2c-1 0-1.9.2-2.7.6-.7.5-1.3 1-1.8 1.9-.4.8-.6 1.7-.6 2.7v16.6h3.3V10.7zm-2.2 4.7H513v-2.9h-17.5v2.8h3.6zM461 12.2c-2.4 0-4.3.7-5.6 2.1a8 8 0 00-2 5.8c0 2.3.7 4.1 2 5.4a7 7 0 005.2 2 7 7 0 005.4-2 8 8 0 002-5.8c0-2.3-.6-4.1-1.9-5.5-1.2-1.3-3-2-5.1-2m2.6 11.3c-.6.8-1.6 1.2-2.8 1.2-1.2 0-2.2-.4-2.8-1.3-.7-.8-1-2-1-3.5 0-1.6.3-2.7 1-3.6.6-.8 1.6-1.3 2.8-1.3 1.2 0 2.1.4 2.8 1.3.6.8 1 2 1 3.5 0 1.6-.3 2.8-1 3.7M488 12.2c-2.3 0-4.1.7-5.4 2.1a8 8 0 00-2 5.8c0 2.3.7 4.1 2 5.4a7 7 0 005.1 2 7 7 0 005.5-2 8 8 0 002-5.8c0-2.3-.7-4.1-2-5.5-1.1-1.3-3-2-5.1-2m2.7 11.3c-.7.8-1.6 1.2-2.8 1.2-1.3 0-2.2-.4-3-1.3-.6-.8-1-2-1-3.5 0-1.6.4-2.7 1-3.6.8-.8 1.7-1.3 3-1.3 1.1 0 2 .4 2.7 1.3.7.8 1 2 1 3.5 0 1.6-.3 2.8-1 3.7"/>
      <path fill="#F25022" d="M358 0h15.7v16.2H358z"/>
      <path fill="#7FBA00" d="M375.4 0h15.7v16.2h-15.7z"/>
      <path fill="#00A4EF" d="M358 17.8h15.7V34H358z"/>
      <path fill="#FFB900" d="M375.4 17.8h15.7V34h-15.7z"/>
    </g>
    <path fill="#D8232A" fill-opacity=".8" d="M75.8 3H71v26.3c4.4.1 8.8.4 13 .6v-4.6l-8.2-.4V3zM114 3h-5.3l-3.4 7.9L102 3H97l5.6 14.1-6 13.8 5 .6 3.5-8 3.5 8.8 5.5.7-6.3-15.8L114 3zM54.6 29h4.8V18.5h6.5v-4.7h-6.5v-6H68V3H54.6v26zm-18-21.3h5v21.6l4.9-.1V7.7h5V3H36.6v4.7zm-16.4 23l13.4-1v-4.6c-2.9.1-5.7.3-8.6.6v-7l6.5-.1V14H25V7.7h8.6V3H20.2v27.7zM10.8 20L4.6 3H0v30l4.8-.6V16l5.6 15.7 5.2-.6V3h-4.8v17zM88 30.2l4.8.4V3H88v27.2z" style="mix-blend-mode:luminosity"/>
    <g fill="#000" opacity=".5">
      <path d="M195.5 19.2c0 .7-.5 1.2-1.1 1.2-.7 0-1.2-.5-1.2-1.2V8.8c0-.7.5-1.2 1.2-1.2.6 0 1.1.5 1.1 1.2v10.4zm-.4 7.3a20 20 0 01-12.5 3.8 20 20 0 01-12.4-3.8c-.5-.4-.6-1.1-.2-1.6.4-.5 1.2-.5 1.7-.1 0 0 4 3.2 11 3.2s10.9-3.2 10.9-3.2c.5-.4 1.2-.4 1.7.1.4.5.3 1.2-.2 1.6zM169.7 8.7c0-.6.6-1.1 1.2-1.1.7 0 1.2.5 1.2 1.2v10.4c0 .7-.5 1.2-1.2 1.2-.6 0-1.2-.5-1.2-1.2V8.8zm5.9-2.3a1.2 1.2 0 012.3 0V22c0 .6-.5 1.2-1.1 1.2-.7 0-1.2-.6-1.2-1.2V6.4zm5.9-.6c0-.6.5-1.1 1.1-1.1.7 0 1.2.5 1.2 1.1v17c0 .6-.5 1.1-1.2 1.1-.6 0-1.1-.5-1.1-1.2V5.8zm5.8.6c0-.6.6-1.2 1.2-1.2s1.2.6 1.2 1.2V22a1.2 1.2 0 01-2.4 0V6.4zm8.5-6.4h-26.4c-2.4 0-4.3 2-4.3 4.4v26.2c0 2.4 2 4.4 4.3 4.4h26.4c2.5 0 4.4-2 4.4-4.4V4.4c0-2.4-2-4.4-4.4-4.4zM214.2 22.6c0 .5-.5 1-1.1 1a1 1 0 01-1-1V12.4c0-.6.4-1 1-1s1 .4 1 1v10.2M228.1 12.4v9.3c0 1.2-.7 2-1.7 2h-.1c-1 0-1.5-.6-2-1.5l-2.1-4.2-2-4.4.1 4.3v4.6c0 .6-.4 1.1-1 1.1a1 1 0 01-1.1-1v-9.3c0-1.2.6-2 1.8-2h.1c1 0 1.5.6 2 1.5l2.1 4.1 1.8 4v-8.5c0-.6.4-1 1-1 .7 0 1.1.4 1.1 1M236.8 22.5c0 .6-.5 1.1-1.1 1.1a1 1 0 01-1-1v-9.2h-2.8a1 1 0 01-1-1c0-.6.5-1 1-1h7.5c.6 0 1 .4 1 1 0 .5-.4 1-1 1h-2.6v9.1M243.3 22.2v-9.5c0-1 .5-1.4 1.4-1.4h6.2c.5 0 1 .4 1 1s-.5 1-1 1h-5.5v3h4.8c.6 0 1 .4 1 1 0 .5-.4.9-1 .9h-4.8v3.4h5.5c.5 0 1 .4 1 1s-.5 1-1 1h-6.3c-.9 0-1.4-.5-1.3-1.4M257.4 16.9h3.5c1.1 0 1.7-.8 1.7-1.8s-.6-1.8-1.8-1.8h-3.4V17zm6.7 5.3c.3.5.1 1.2-.5 1.5-.6.2-1.2 0-1.5-.5l-2.4-4.4h-2.3v3.8c0 .5-.4 1-1 1a1 1 0 01-1.1-1v-10c0-.8.5-1.3 1.4-1.3h4.1c2.8 0 4 1.8 4 3.7 0 1.8-1 3-2.8 3.4l2.1 3.8zM269.2 22.7c-1.3-1.2-1.8-3-1.8-5.2 0-2.3.5-4 1.8-5.2a5 5 0 013.4-1.2c1.4 0 2.4.3 3.2 1 .7.6 1.2 1.3 1.5 2.4.2.6-.2 1.1-.9 1.3-.6 0-1.1-.3-1.3-.9-.2-.5-.5-1-.8-1.2-.5-.4-1-.6-1.7-.6-.8 0-1.5.2-2 .7-.7.8-1 2-1 3.7 0 1.6.3 2.9 1 3.6.5.5 1.2.7 2 .7a2.6 2.6 0 002.5-1.6c.2-.5.7-.9 1.3-.7.6 0 1 .7.8 1.2-.3 1-.9 1.7-1.6 2.3a5 5 0 01-3 .8c-1.6 0-2.6-.4-3.4-1.1M288.2 17.5c0-3-1-4.4-3.1-4.4-2 0-3.1 1.5-3.1 4.4 0 2.9 1 4.3 3 4.3 2.1 0 3.2-1.4 3.2-4.3zm-8.5 0c0-3.9 1.6-6.4 5.4-6.4 3.7 0 5.3 2.5 5.3 6.4 0 4-1.6 6.3-5.3 6.3-3.8 0-5.4-2.4-5.4-6.3zM307.1 22.5c0 .6-.4 1.1-1 1.1a1 1 0 01-1.1-1V13.4l-1.5 4.5-1.5 4.5c-.3.8-.8 1-1.5 1s-1.2-.2-1.5-1l-1.5-4.5-1.4-4.5v9c0 .6-.4 1.1-1 1.1a1 1 0 01-1.1-1v-9.2c0-1.3.6-2 1.8-2 1.2 0 1.8.5 2.2 1.6l1.6 4.7 1 3.2 1-3.2L303 13c.4-1 1-1.7 2.1-1.7 1.2 0 2 .8 2 2v9.2"/>
    </g>
    <g opacity=".6" id="heoku-logo">
      <path fill="#000" fill-rule="nonzero" d="M425.5 122l4.5-4-4.5-4v8zm16.3-16.2a6.4 6.4 0 00-4.8-1.8c-2.7 0-5.5.7-7.5 1.4V94h-4v17.3l2.8-1.2s4.6-2.1 8.7-2.1c2 0 2.5 1.1 2.5 2v12h4v-12c0-.3 0-2.5-1.7-4.2zm-5.3-5.3h4c1.8-2 2.7-4.2 3-6.5h-4c-.4 2.3-1.4 4.4-3 6.5z"/>
      <path fill="#000" fill-rule="nonzero" d="M448.4 88h-28.8c-2 0-3.6 1.6-3.6 3.6v32.8c0 2 1.6 3.6 3.6 3.6h28.8c2 0 3.6-1.6 3.6-3.6V91.6c0-2-1.6-3.6-3.6-3.6zm1.6 36.4c0 .9-.7 1.6-1.6 1.6h-28.8c-.9 0-1.6-.7-1.6-1.6V91.6c0-.9.7-1.6 1.6-1.6h28.8c.9 0 1.6.7 1.6 1.6v32.8z"/>
      <g fill="#430098">
        <path d="M448.4 88h-28.8c-2 0-3.6 1.6-3.6 3.6v32.8c0 2 1.6 3.6 3.6 3.6h28.8c2 0 3.6-1.6 3.6-3.6V91.6c0-2-1.6-3.6-3.6-3.6zm1.6 36.4c0 .9-.7 1.6-1.6 1.6h-28.8c-.9 0-1.6-.7-1.6-1.6V91.6c0-.9.7-1.6 1.6-1.6h28.8c.9 0 1.6.7 1.6 1.6v32.8z"/>
        <path d="M425.5 122l4.5-4-4.5-4v8zm16.3-16.2a6.4 6.4 0 00-4.8-1.8c-2.7 0-5.5.7-7.5 1.4V94h-4v17.3l2.8-1.2s4.6-2.1 8.7-2.1c2 0 2.5 1.1 2.5 2v12h4v-12c0-.3 0-2.5-1.7-4.2zm-5.3-5.3h4c1.8-2 2.7-4.2 3-6.5h-4c-.4 2.3-1.4 4.4-3 6.5zM538.3 109v-8.2h3.7v8.1c0 1.9.6 2.7 2 2.7 1.6 0 2.1-.8 2.1-2.7v-8.1h3.6v8.1c0 3.6-1.7 5.7-5.7 5.7s-5.7-2-5.7-5.7zm-15.5-8.2h3.7v4.9l3.7-5h4.3l-4.6 5.4 5 8.3h-4.2l-3.2-5.5-1 1.3v4.2h-3.7v-13.6zm-17.5 6.8c0-5 3.4-7.1 6.7-7.1 3.3 0 6.7 2 6.7 7s-3.4 7.2-6.7 7.2c-3.3 0-6.7-2.1-6.7-7.1zm9.7 0c0-2.5-1-4-3-4s-3 1.5-3 4 1 4.1 3 4.1 3-1.6 3-4.1zm-24.5-6.8h5.3c3.5 0 5.6 1.1 5.6 4.4 0 2.1-.9 3.4-2.6 4l2.8 5.2h-3.9l-2.6-4.7h-1v4.7h-3.6v-13.6zm5.2 6c1.5 0 2.2-.4 2.2-1.5 0-1.2-.7-1.6-2.2-1.6H494v3.2h1.6zm-19.3-6h9.7v3h-6v2.2h4.3v2.9H480v2.5h6.3v3h-10v-13.6zm-16.7 0h3.7v5h4.6v-5h3.7v13.6H468v-5.5h-4.6v5.5h-3.7v-13.6z"/>
      </g>
    </g>
    <g opacity=".6" id="linkedin-logo">
      <path fill="#1A1919" d="M277.232765 117.5991111h-.375919v-.7528889h.476644c.247315 0 .527007.04.527007.3582222 0 .3653334-.28239.3946667-.627732.3946667zm.374121.224c.380416-.0462222.579168-.2533333.579168-.6008889 0-.424-.260806-.6293333-.793208-.6293333h-.858859v2.2284444h.322859v-.9706666h.398402l.008994.0124444.618738.9582222h.344443l-.663705-.992.043168-.0062222z"/>
      <path fill="#1A1919" d="M277.270537 119.5413333c-1.021638 0-1.82294-.7964444-1.82294-1.8311111 0-1.0337778.801302-1.832 1.82294-1.832 1.020738 0 1.819342.7982222 1.819342 1.832 0 1.0346667-.798604 1.8311111-1.819342 1.8311111zm0-3.9386666c-1.197906 0-2.135906.9253333-2.135906 2.1075555 0 1.1831111.938 2.1075556 2.135906 2.1075556 1.194309 0 2.133208-.9244445 2.133208-2.1075556 0-1.1822222-.938899-2.1075555-2.133208-2.1075555zM146 96.73244444h4.99307383V114.712h9.24689937v4.5555556H146V96.73244444M164.8463356 96.39822222c1.536953 0 2.7843221 1.23288889 2.7843221 2.75288889 0 1.51911111-1.2473691 2.74844445-2.7843221 2.74844445-1.5351544 0-2.7834228-1.22933334-2.7834228-2.74844445 0-1.52 1.2482684-2.75288889 2.7834228-2.75288889zm-2.4003088 22.86222218h4.7997182v-15.2711111h-4.7997182v15.2711111zM187.3124698 96.73244444h4.7970201V110.2l5.4373423-6.2177778h5.8816108l-6.2944027 7.0711111 6.1631006 8.2142223h-6.0308993l-5.094698-7.5493334h-.0620537v7.5493334h-4.7970201V96.73244444M169.9014631 103.9928889h4.6072617v2.0862222h.0638524c.6394228-1.2008889 2.2078523-2.4666667 4.5443087-2.4666667 4.8635705 0 5.7602013 3.1635556 5.7602013 7.2746667v8.3733333h-4.8006174v-7.4248888c0-1.7706667-.0323758-4.0471112-2.4965369-4.0471112-2.4956376 0-2.8787517 1.9288889-2.8787517 3.9208889v7.5511111h-4.7997181v-15.2675555"/>
      <path fill="#1A1919" d="M217.5964698 116.616c-1.5387517 1.9306667-4.0640671 3.0382222-6.560604 3.0382222-4.7997181 0-8.6398524-3.1626666-8.6398524-8.0666666 0-4.9004445 3.8401343-8.064 8.6398524-8.064 4.482255 0 7.2953557 3.1635555 7.2953557 8.064v1.4862222h-11.13549c.3813155 1.8035555 1.7608859 2.9742222 3.6153021 2.9742222 1.5702281 0 2.6233422-.7902222 3.4237449-1.8657778l3.3616913 2.4337778zm-4.0640671-6.7653333c.0305772-1.5822223-1.216792-2.9102223-2.9471007-2.9102223-2.1098255 0-3.2609664 1.424-3.3895705 2.9102223h6.3366712z"/>
      <g transform="translate(218.845638 92)">
        <mask id="b" fill="#fff">
          <use xlink:href="#a"/>
        </mask>
        <path fill="#1A1919" d="M17.7437584 27.2586667h-4.4184027v-2.0257778h-.0620537c-.7392483 1.1084444-2.5936644 2.4044444-4.76914093 2.4044444-4.60995973 0-7.64969127-3.288-7.64969127-7.9368889 0-4.272 2.68989262-8.192 7.10559731-8.192 1.98571812 0 3.83923489.536 4.92832219 2.0222223h.062953V4.73244444h4.8024161V27.2586667zm-8.25853692-11.576c-2.39851007 0-3.84103356 1.5822222-3.84103356 3.8897777 0 2.3102223 1.44252349 3.8906667 3.84103356 3.8906667 2.40210742 0 3.84013422-1.5804444 3.84013422-3.8906667 0-2.3075555-1.4380268-3.8897777-3.84013422-3.8897777z" mask="url(#b)"/>
        <path fill="#0071A1" d="M52.5235034 0H24.932094c-1.3175168 0-2.3886175 1.03288889-2.3886175 2.30755556V29.6906667C22.5434765 30.9653333 23.6145772 32 24.932094 32h27.5914094c1.321114 0 2.3949127-1.0346667 2.3949127-2.3093333V2.30755556C54.9184161 1.03288889 53.8446174 0 52.5235034 0" mask="url(#b)"/>
      </g>
      <path fill="#FFFFFE" d="M248.59094 96.40533333c1.536053 0 2.783422 1.23288889 2.783422 2.752 0 1.52-1.247369 2.75288889-2.783422 2.75288889-1.542349 0-2.7852219-1.23288889-2.7852219-2.75288889 0-1.51911111 1.2428729-2.752 2.7852219-2.752zm-2.403906 22.86222227h4.806013v-15.2711112h-4.806013v15.2711112zM254.005799 103.9964444h4.602765v2.088h.065651c.640322-1.2008888 2.207852-2.4666666 4.544308-2.4666666 4.860873 0 5.759303 3.1617778 5.759303 7.2746666v8.3751112h-4.800618v-7.4266667c0-1.7706667-.031476-4.0488889-2.495638-4.0488889-2.498335 0-2.879651 1.9297778-2.879651 3.9226667v7.5528889h-4.79612v-15.2711112"/>
    </g>
  </g>
</svg>
