<?xml version="1.0" encoding="UTF-8"?>
<svg width="695px" height="128px" viewBox="0 0 695 128" version="1.1" xmlns="http://www.w3.org/2000/svg" xmlns:xlink="http://www.w3.org/1999/xlink">
    <!-- Generator: Sketch 57 (83077) - https://sketch.com -->
    <title>Logos</title>
    <desc>Created with Sketch.</desc>
    <defs>
        <polygon id="path-1" points="0.844469799 0 54.9184161 0 54.9184161 31.9466667 0.844469799 31.9466667"></polygon>
    </defs>
    <g id="Page-1" stroke="none" stroke-width="1" fill="none" fill-rule="evenodd">
        <g id="Wide" transform="translate(-252.000000, -973.000000)">
            <g id="Logos" transform="translate(252.000000, 973.000000)">
                <g id="Apple_logo_black" opacity="0.5" transform="translate(330.000000, 84.000000)" fill="#000000" fill-rule="nonzero">
                    <path d="M35.0530435,33.3643293 C34.413913,34.8483537 33.6573913,36.2143902 32.7808696,37.4703049 C31.586087,39.182439 30.6078261,40.367561 29.853913,41.0256707 C28.6852174,42.1059146 27.4330435,42.6591463 26.0921739,42.6906098 C25.1295652,42.6906098 23.9686957,42.4153049 22.6173913,41.8568293 C21.2616522,41.3009756 20.0157391,41.0256707 18.8765217,41.0256707 C17.6817391,41.0256707 16.4003478,41.3009756 15.0297391,41.8568293 C13.6570435,42.4153049 12.5512174,42.7063415 11.7057391,42.7351829 C10.419913,42.7902439 9.13826087,42.2212805 7.85895652,41.0256707 C7.04243478,40.309878 6.02113043,39.0828049 4.79765217,37.3444512 C3.48495652,35.4881098 2.40573913,33.3354878 1.56026087,30.8813415 C0.654782609,28.2305488 0.200869565,25.6636585 0.200869565,23.1785732 C0.200869565,20.3319207 0.812869565,17.8767256 2.03869565,15.8192805 C3.00208696,14.1666646 4.28373913,12.8630305 5.88782609,11.9060183 C7.49191304,10.9490061 9.22513043,10.4613232 11.0916522,10.430122 C12.1129565,10.430122 13.4522609,10.7476402 15.1166087,11.3716646 C16.7762609,11.9977866 17.841913,12.3153049 18.3091304,12.3153049 C18.6584348,12.3153049 19.8422609,11.9440366 21.8491304,11.2038598 C23.7469565,10.5174329 25.3486957,10.2332134 26.6608696,10.3451707 C30.2165217,10.6335854 32.8878261,12.0423598 34.6643478,14.5804085 C31.4843478,16.5169817 29.9113043,19.2293902 29.9426087,22.7089817 C29.9713043,25.4192927 30.9495652,27.6746951 32.8721739,29.4654878 C33.7434783,30.2966463 34.7165217,30.9390244 35.7991304,31.3952439 C35.5643478,32.0795732 35.3165217,32.735061 35.0530435,33.3643293 L35.0530435,33.3643293 Z M26.8982609,1.11170732 C26.8982609,3.23603841 26.126087,5.21951829 24.5869565,7.05540854 C22.7295652,9.23792073 20.4829565,10.4990793 18.0466957,10.3000732 C18.0156522,10.0452195 17.9976522,9.7769939 17.9976522,9.49513415 C17.9976522,7.45578049 18.8809565,5.27326829 20.4495652,3.48876829 C21.2326957,2.5852439 22.2286957,1.83397622 23.4365217,1.23467683 C24.6417391,0.644318293 25.7817391,0.317832927 26.853913,0.261932927 C26.8852174,0.545916463 26.8982609,0.82992622 26.8982609,1.1116811 L26.8982609,1.11170732 Z" id="Shape" style="mix-blend-mode: luminosity;"></path>
                </g>
                <g id="Square,_Inc._logo" opacity="0.5" transform="translate(563.000000, 0.000000)" fill="#000000">
                    <g id="layer3" transform="translate(0.601810, 0.000000)">
                        <g id="g3486">
                            <g id="g3478" transform="translate(42.126697, 5.464286)">
                                <path d="M23.528356,6.109375 C22.2293552,6.14703 20.9906438,6.67796004 19.9739159,7.47544643 C19.6103084,7.73742129 19.1675508,8.17034754 18.9281147,8.56248714 C18.4073324,9.28284514 17.9655437,10.0524473 17.7162319,10.912314 C16.9950313,13.3146605 17.1231602,16.0347685 18.276866,18.277564 C18.7261051,19.0752574 19.2072883,19.7672357 19.9174962,20.3582589 C20.4935307,20.7201835 21.1628757,21.1967323 21.8767427,21.3839442 C23.8287976,22.0090354 26.0906702,21.6878089 27.7222191,20.4151786 C28.1304328,20.1593699 28.5025078,19.6671312 28.8318062,19.2578125 C28.8079745,19.1503009 29.144278,18.7094811 29.1703243,19.0529018 C29.1691207,21.4950599 29.1715279,23.9594388 29.1703243,26.4107143 C29.9037802,26.4107143 30.6372361,26.4107143 31.3706919,26.4107143 C31.3706919,19.7574407 31.3706919,13.1041665 31.3706919,6.45089286 C30.6372361,6.45089286 29.9037802,6.45089286 29.1703243,6.45089286 C29.1703243,7.33630932 29.1703243,8.22172639 29.1703243,9.10714286 C28.7762772,8.52473379 28.4281362,7.88622168 27.8726716,7.51339286 C26.6581529,6.53038304 25.0909976,5.98589246 23.528356,6.109375 Z M24.299425,8.12053571 C25.3096051,8.117925 26.455704,8.40554679 27.1768288,9.05022321 C27.7517439,9.52018336 28.1819778,10.0166775 28.4925659,10.707096 C29.3152943,12.4913438 29.3884082,14.6130318 28.745952,16.4661581 C28.4575526,17.3623678 27.9031653,18.1195295 27.1768288,18.7075893 C26.1076171,19.6302588 24.5589676,19.7845271 23.2066825,19.5466583 C22.3114421,19.3916608 21.551663,18.8749215 20.9766457,18.1876194 C19.9059415,17.0015525 19.6005169,15.2854413 19.6201239,13.7139443 C19.6740461,12.3499979 19.9337511,10.9191176 20.7637915,9.80915179 C21.3226623,9.1119915 22.0535725,8.50936943 22.9490236,8.29587614 C23.3839637,8.15409675 23.8438729,8.10752161 24.299425,8.12053571 L24.299425,8.12053571 Z" id="path3299" fill-rule="nonzero"></path>
                                <path d="M7.36479075,0.3984375 C5.69071192,0.466055304 3.98618332,0.908908643 2.64434391,1.95424107 C2.36894485,2.13871354 2.06448137,2.47169375 1.87394051,2.76109446 C1.05531348,3.80441725 0.636604199,5.16040282 0.767221633,6.49252889 C0.814078557,7.46168796 1.16862707,8.40388564 1.81685523,9.12611607 C2.00664984,9.41459696 2.37300165,9.74219182 2.67096979,9.93133625 C4.40355477,11.289805 6.65665241,11.5421233 8.70141066,12.1598571 C9.97824556,12.552052 11.4564196,12.8182429 12.2921098,13.9642857 C12.9998714,14.8361969 12.9799845,16.1466607 12.5930147,17.1707589 C12.2619464,18.009644 11.5394303,18.609308 10.7687783,19.0301339 C9.15491899,19.7344955 7.28561783,19.6887273 5.61603032,19.2170441 C4.35823608,18.8286621 3.24253458,18.074675 2.42599583,17.0290056 C2.21710157,16.6854818 2.03132645,16.4641837 1.70453582,16.8611282 C1.20912346,17.21099 0.713710498,17.5608525 0.218297534,17.9107143 C0.616185389,18.5411435 1.08605032,19.1463004 1.64759618,19.5803571 C2.60818356,20.3215219 3.64994548,20.9770365 4.83147475,21.2845598 C7.042217,21.9490752 9.49618255,21.8798785 11.6338801,20.984375 C12.4967263,20.529741 13.3208196,20.0704107 13.9311494,19.3077536 C14.7206097,18.3663805 15.2278512,17.0460336 15.252248,15.759388 C15.3168794,14.5241382 14.9218375,13.2712607 14.1163462,12.3325893 C13.9627462,12.0884456 13.685514,11.8388097 13.419443,11.6827892 C13.0169501,11.3222325 12.5616893,11.0961204 12.0683977,10.8268264 C9.86849228,9.71660986 7.35992391,9.47699364 5.1128185,8.50670893 C4.42455433,8.16166418 3.73551202,7.68365514 3.3777998,6.98214286 C2.8427757,5.78433986 3.25963562,4.26829625 4.30740781,3.50854439 C5.22263979,2.76862061 6.47913532,2.55094229 7.63936654,2.54241071 C9.65402045,2.52164036 11.696744,3.40798757 12.9127263,5.046875 C13.5145362,4.59151786 14.1163462,4.13616071 14.7181561,3.68080357 C14.1902864,2.93928361 13.5303446,2.36491493 12.8080667,1.87376793 C11.2136428,0.815813607 9.27193311,0.299328046 7.36479075,0.3984375 Z" id="path3297"></path>
                                <path d="M35.0843167,16.1272321 C35.086724,17.4310022 35.3490168,18.7855974 36.1374842,19.8459821 C36.4822731,20.4114355 37.1623906,20.8608743 37.7667883,21.19373 C39.3460761,21.9310164 41.2420603,21.8183276 42.8058815,21.0956024 C43.5181717,20.7066399 44.2022551,20.2227647 44.6568563,19.5993304 C44.8652631,19.4053567 45.1001676,18.8546156 45.2210532,18.8252232 C45.2210532,19.665104 45.2210532,20.5049853 45.2210532,21.3448661 C45.954509,21.3448661 46.6879649,21.3448661 47.4214208,21.3448661 C47.4214208,16.3802085 47.4214208,11.4155504 47.4214208,6.45089286 C46.6879649,6.45089286 45.954509,6.45089286 45.2210532,6.45089286 C45.2057672,9.49274111 45.2566201,12.5363258 45.18344,15.5770089 C45.0056533,16.8013429 44.4541908,17.9836856 43.4532364,18.7265625 C42.2400357,19.659177 40.4819201,19.8858083 39.0525011,19.3147321 C38.0513542,18.8608066 37.4809286,17.7524006 37.4094938,16.6636586 C37.2372437,14.7591316 37.3588815,12.8422475 37.3222975,10.9323661 C37.3222975,9.43854146 37.3222975,7.94471746 37.3222975,6.45089286 C36.5763059,6.45089286 35.8303083,6.45089286 35.0843167,6.45089286 C35.0843167,9.67633929 35.0843167,12.9017857 35.0843167,16.1272321 Z" id="path3301"></path>
                                <path d="M56.4572964,6.109375 C54.5474224,6.17193743 52.6551213,6.79843782 51.0974265,7.91183036 C51.417138,8.45572896 51.7368495,8.99962818 52.0565611,9.54352679 C53.353269,8.53955171 55.0216727,8.12898654 56.6340781,8.06361607 C57.8084921,8.047375 59.1914695,8.27397832 59.8667905,9.32510654 C60.2524123,10.0383415 60.1644096,11.0620257 59.5039593,11.5736607 C58.9507455,12.1095639 58.0112539,12.3299573 57.2095588,12.484375 C55.6883518,12.7663522 54.0935554,12.8269044 52.6661464,13.476546 C52.024268,13.7796384 51.4288252,14.2253499 51.0598133,14.7991071 C50.270997,15.78567 50.2156906,17.1552622 50.4495841,18.3510623 C50.5834206,19.0259058 50.9262236,19.6146206 51.3419118,20.1495536 C51.560122,20.4769226 51.9928956,20.6959208 52.3574661,20.9654018 C53.7330471,21.7580134 55.4212866,21.8224513 56.9501968,21.5241208 C57.8512026,21.3170662 58.6826512,20.8507708 59.330626,20.2586128 C59.6703958,20.0368272 59.736282,19.6654464 60.030543,19.4475446 C60.3125933,19.5248849 60.0931132,19.9817551 60.1621889,20.2064732 C60.1621889,20.5859375 60.1621889,20.9654018 60.1621889,21.3448661 C60.8705674,21.3448661 61.5789519,21.3448661 62.2873303,21.3448661 C62.2715629,17.4808505 62.3237398,13.6151057 62.2497172,9.75223214 C62.0777861,8.69231189 61.5191259,7.59656657 60.6015704,7.08055889 C59.4003276,6.286396 57.8769901,6.02824918 56.4572964,6.109375 L56.4572964,6.109375 Z M60.0869627,13.1294643 C60.0257706,14.6841853 60.3365995,16.3635995 59.5664512,17.7916633 C58.9327032,18.9511295 57.674794,19.6357808 56.3785195,19.7371852 C55.2293573,19.8336723 53.8890844,19.6880491 53.1097285,18.7455357 C52.5554796,18.0619851 52.4491578,17.023831 52.7183354,16.1846994 C52.9249548,15.4567388 53.5708293,15.0063875 54.2570671,14.7783586 C55.8773321,14.2170259 57.6421819,14.2132568 59.2406674,13.5848214 C59.5573699,13.4074707 59.8484895,13.2398775 60.0869627,12.9966518 C60.0869627,13.0409246 60.0869627,13.0851932 60.0869627,13.1294643 L60.0869627,13.1294643 Z" id="path3303" fill-rule="nonzero"></path>
                                <path d="M72.432799,6.16629464 C71.2585173,6.25867386 70.1098848,6.79941714 69.2955517,7.57438096 C68.9387446,7.97114882 68.6049447,8.46832354 68.2953556,8.95535714 C68.2953556,8.12053571 68.2953556,7.28571429 68.2953556,6.45089286 C67.5618997,6.45089286 66.8284438,6.45089286 66.0949879,6.45089286 C66.0949879,11.4155504 66.0949879,16.3802085 66.0949879,21.3448661 C66.8284438,21.3448661 67.5618997,21.3448661 68.2953556,21.3448661 C68.3156967,18.441291 68.2493171,15.5343656 68.3414542,12.6329762 C68.5121275,11.2279712 69.0943726,9.79769925 70.2793545,8.97438561 C71.3362411,8.17198257 72.8503468,8.11048871 74.0689457,8.59486607 C74.3302998,8.46032321 74.2250793,8.00498064 74.363971,7.74740879 C74.4599657,7.37848086 74.5559544,7.00955293 74.6519491,6.640625 C73.9868589,6.25270443 73.192241,6.1206035 72.4327749,6.16629464 L72.432799,6.16629464 Z" id="path3305"></path>
                                <path d="M82.051678,6.109375 C80.7648338,6.13162679 79.5247622,6.59401889 78.4596248,7.3046875 C78.2455068,7.46905321 77.9902431,7.65839193 77.7588412,7.85989596 C77.2082392,8.39771525 76.7925089,9.05969768 76.3909031,9.75223214 C75.3027645,11.9182076 75.1797064,14.5186071 75.8647707,16.8305993 C76.1637319,17.8902099 76.7982923,18.8733672 77.4771159,19.6615886 C77.7543637,19.9485777 78.0579347,20.1861752 78.3279789,20.3772321 C79.4494758,21.1937828 80.8122263,21.6338934 82.1943852,21.6765063 C84.0334201,21.7798141 85.9587726,21.3417775 87.3940533,20.1325311 C87.8451399,19.8245609 88.2164386,19.458724 88.5775547,19.0111607 C88.0823132,18.5558036 87.5870778,18.1004464 87.0918363,17.6450893 C86.3283562,18.6339635 85.21641,19.319177 83.9863285,19.536159 C82.2828512,19.8690311 80.3055143,19.5036465 79.1267793,18.1473962 C78.1362362,17.186419 77.8138526,15.7152954 77.7825886,14.3627232 C77.9913384,14.0202558 78.5147386,14.307625 78.8583239,14.2109375 C82.2924019,14.2109375 85.72648,14.2109375 89.1605581,14.2109375 C89.4088107,12.1935293 88.9508152,10.052222 87.6823624,8.446875 C87.3779187,7.97162786 86.8858067,7.62735479 86.4148001,7.28571429 C85.1717496,6.39307282 83.5658679,6.01566857 82.051678,6.109375 Z M82.8415535,8.00669643 C84.3100781,8.09548561 85.7306385,8.92637761 86.4118693,10.2444963 C86.7351857,10.9470073 86.9254419,11.7253056 86.9413838,12.5033482 C83.894721,12.5033482 80.8480581,12.5033482 77.8013952,12.5033482 C77.9442889,11.4122579 78.2021043,10.2382889 79.0050151,9.44866071 C79.1487514,9.1989805 79.5487143,8.95413254 79.7821985,8.71724179 C80.6773547,8.12875582 81.7848595,7.93165296 82.8415535,8.00669643 Z" id="path3307" fill-rule="nonzero"></path>
                            </g>
                            <path d="M26.6803176,0.54704433 L5.33662482,0.54704433 C2.40227832,0.54704433 -3.40624434e-06,2.9696654 -3.40624434e-06,5.93096279 L-3.40624434e-06,27.4637914 C-3.40624434e-06,30.4236663 2.40227832,32.8458129 5.33662482,32.8458129 L26.6803176,32.8458129 C29.6146641,32.8458129 32.0169462,30.4236663 32.0169462,27.4637914 L32.0169462,5.93096279 C32.0169462,2.9696654 29.6146641,0.54704433 26.6803176,0.54704433 L26.6803176,0.54704433 Z M26.1952551,25.2630898 C26.1952551,26.2038771 25.4314698,26.9720597 24.498006,26.9720597 L7.5175265,26.9720597 C6.58453271,26.9720597 5.82074741,26.2038771 5.82074741,25.2630898 L5.82074741,8.132613 C5.82074741,7.19135154 6.58453271,6.420798 7.5175265,6.420798 L24.498006,6.420798 C25.4314698,6.420798 26.1952551,7.19135154 26.1952551,8.132613 L26.1952551,25.2630898 Z M20.3754441,20.1219553 C20.3754441,20.6620544 19.9387943,21.101151 19.4062593,21.101151 L12.6153834,21.101151 C12.0814384,21.101151 11.6461986,20.6620544 11.6461986,20.1219553 L11.6461986,13.2713766 C11.6461986,12.7331742 12.0814384,12.2931286 12.6153834,12.2931286 L19.4062593,12.2931286 C19.9387943,12.2931286 20.3754441,12.7331742 20.3754441,13.2713766 L20.3754441,20.1219553 Z" id="path3010" fill-rule="nonzero"></path>
                        </g>
                    </g>
                </g>
                <g id="Microsoft_logo_(2012)" style="mix-blend-mode: luminosity;" transform="translate(358.000000, 0.000000)">
                    <path d="M54.7119205,19.5829457 L53.7880795,22.2713178 L53.7110927,22.2713178 C53.5571192,21.6651163 53.2748344,20.7426357 52.8129139,19.6356589 L47.8600993,6.85271318 L43.0099338,6.85271318 L43.0099338,27.2263566 L46.2177152,27.2263566 L46.2177152,14.6542636 C46.2177152,13.8635659 46.2177152,12.9674419 46.192053,11.8604651 C46.1663907,11.3069767 46.1150662,10.8852713 46.089404,10.5689922 L46.1663907,10.5689922 C46.3203642,11.3596899 46.5,11.9395349 46.6283113,12.3085271 L52.5819536,27.1736434 L54.8402318,27.1736434 L60.7425497,12.1767442 C60.8708609,11.8341085 60.9991722,11.1488372 61.1274834,10.5689922 L61.2044702,10.5689922 C61.1274834,12.0713178 61.0761589,13.4155039 61.0504967,14.2325581 L61.0504967,27.1472868 L64.4635762,27.1472868 L64.4635762,6.8 L59.7930464,6.8 L54.7119205,19.5829457 Z M67.6970199,12.5457364 L71.0331126,12.5457364 L71.0331126,27.1472868 L67.6970199,27.1472868 L67.6970199,12.5457364 Z M69.3907285,6.37829457 C68.8261589,6.37829457 68.3642384,6.58914729 67.9793046,6.95813953 C67.5943709,7.32713178 67.3890728,7.80155039 67.3890728,8.38139535 C67.3890728,8.93488372 67.5943709,9.40930233 67.9793046,9.77829457 C68.3642384,10.1472868 68.8261589,10.3317829 69.3907285,10.3317829 C69.955298,10.3317829 70.4428808,10.1209302 70.8021523,9.77829457 C71.1870861,9.40930233 71.3923841,8.93488372 71.3923841,8.38139535 C71.3923841,7.82790698 71.1870861,7.35348837 70.8021523,6.95813953 C70.468543,6.58914729 69.9809603,6.37829457 69.3907285,6.37829457 L69.3907285,6.37829457 Z M82.8634106,12.4139535 C82.2475166,12.2821705 81.6059603,12.2031008 80.9900662,12.2031008 C79.4759934,12.2031008 78.0902318,12.5457364 76.9354305,13.2310078 C75.7806291,13.9162791 74.8567881,14.8651163 74.2665563,16.0511628 C73.6506623,17.2635659 73.3427152,18.6604651 73.3427152,20.2682171 C73.3427152,21.6651163 73.6506623,22.903876 74.240894,24.0372093 C74.8311258,25.144186 75.6523179,26.0403101 76.7557947,26.6465116 C77.807947,27.2527132 79.0397351,27.5689922 80.4254967,27.5689922 C82.0165563,27.5689922 83.3766556,27.2263566 84.4544702,26.5937984 L84.4801325,26.5674419 L84.4801325,23.4046512 L84.3518212,23.5100775 C83.8642384,23.8790698 83.2996689,24.1953488 82.7350993,24.379845 C82.1448675,24.5906977 81.6059603,24.696124 81.1440397,24.696124 C79.8096026,24.696124 78.7574503,24.3007752 78.013245,23.4310078 C77.2433775,22.5875969 76.8584437,21.427907 76.8584437,19.9782946 C76.8584437,18.475969 77.2433775,17.2899225 78.0389073,16.420155 C78.8344371,15.5503876 79.8865894,15.1023256 81.169702,15.1023256 C82.2475166,15.1023256 83.3509934,15.4713178 84.3518212,16.2093023 L84.4801325,16.3147287 L84.4801325,12.9674419 L84.4544702,12.9410853 C84.0182119,12.7565891 83.5306291,12.5457364 82.8634106,12.4139535 L82.8634106,12.4139535 Z M93.8725166,12.3085271 C93.0513245,12.3085271 92.281457,12.572093 91.6142384,13.1255814 C91.0496689,13.6 90.6647351,14.2852713 90.3311258,15.1023256 L90.3054636,15.1023256 L90.3054636,12.5457364 L86.9693709,12.5457364 L86.9693709,27.1472868 L90.3054636,27.1472868 L90.3054636,19.6883721 C90.3054636,18.4232558 90.5620861,17.3689922 91.1266556,16.6046512 C91.6912252,15.8139535 92.4097682,15.4186047 93.2822848,15.4186047 C93.5902318,15.4186047 93.8981788,15.4976744 94.2831126,15.5503876 C94.6423841,15.655814 94.8990066,15.7612403 95.0786424,15.8930233 L95.2069536,15.9984496 L95.2069536,12.572093 L95.1299669,12.5457364 C94.8990066,12.3875969 94.4370861,12.3085271 93.8725166,12.3085271 L93.8725166,12.3085271 Z M117.456126,18.6077519 C116.403974,18.1596899 115.736755,17.8170543 115.428808,17.5271318 C115.172185,17.2635659 115.043874,16.8945736 115.043874,16.420155 C115.043874,16.0248062 115.197848,15.6294574 115.582781,15.3658915 C115.967715,15.1023256 116.403974,14.9705426 117.04553,14.9705426 C117.610099,14.9705426 118.200331,15.075969 118.764901,15.2341085 C119.32947,15.3922481 119.842715,15.6294574 120.253311,15.9457364 L120.381623,16.0511628 L120.381623,12.8356589 L120.304636,12.8093023 C119.919702,12.6511628 119.406457,12.4930233 118.790563,12.3612403 C118.174669,12.255814 117.610099,12.2031008 117.148179,12.2031008 C115.557119,12.2031008 114.248344,12.5984496 113.221854,13.4682171 C112.195364,14.2852713 111.707781,15.3922481 111.707781,16.6837209 C111.707781,17.3689922 111.81043,17.9751938 112.041391,18.475969 C112.272351,18.9767442 112.60596,19.4511628 113.067881,19.8465116 C113.529801,20.2155039 114.19702,20.6372093 115.120861,21.0325581 C115.890728,21.3751938 116.48096,21.6387597 116.840232,21.8496124 C117.199503,22.0604651 117.430464,22.2976744 117.610099,22.4821705 C117.738411,22.6930233 117.815397,22.9565891 117.815397,23.2992248 C117.815397,24.2744186 117.096854,24.7488372 115.634106,24.7488372 C115.069536,24.7488372 114.479305,24.6434109 113.786424,24.4062016 C113.093543,24.1689922 112.451987,23.8263566 111.913079,23.4310078 L111.784768,23.3255814 L111.784768,26.6728682 L111.861755,26.6992248 C112.349338,26.9364341 112.93957,27.0945736 113.658113,27.2790698 C114.376656,27.4108527 115.018212,27.5162791 115.582781,27.5162791 C117.302152,27.5162791 118.713576,27.1209302 119.714404,26.2511628 C120.740894,25.4077519 121.279801,24.3271318 121.279801,22.9302326 C121.279801,21.9550388 121.023179,21.0852713 120.458609,20.4263566 C119.714404,19.7937984 118.790563,19.1348837 117.456126,18.6077519 L117.456126,18.6077519 Z M148.250828,22.8775194 C148.250828,25.9612403 149.662252,27.5162791 152.485099,27.5162791 C152.94702,27.5162791 153.434603,27.4372093 153.896523,27.3581395 C154.384106,27.2527132 154.743377,27.1209302 154.948675,27.0155039 L154.974338,26.9891473 L154.974338,24.1689922 L154.846026,24.2744186 C154.640728,24.4062016 154.461093,24.5116279 154.153146,24.5906977 C153.896523,24.6697674 153.665563,24.696124 153.485927,24.696124 C152.818709,24.696124 152.356788,24.5379845 152.023179,24.1426357 C151.715232,23.7736434 151.561258,23.1674419 151.561258,22.2713178 L151.561258,14.496124 L151.612583,14.496124 L151.612583,8.22325581 L151.509934,8.2496124 L148.327815,9.2248062 L148.250828,9.25116279 L148.250828,22.8775194 Z M143.221026,10.7007752 C143.221026,9.85736434 143.426325,9.19844961 143.785596,8.77674419 C144.144868,8.35503876 144.683775,8.14418605 145.350993,8.14418605 C145.812914,8.14418605 146.300497,8.2496124 146.839404,8.48682171 L146.967715,8.56589147 L146.967715,5.5875969 L146.890728,5.56124031 C146.428808,5.40310078 145.812914,5.29767442 145.017384,5.29767442 C144.016556,5.29767442 143.14404,5.53488372 142.34851,5.93023256 C141.55298,6.37829457 140.962748,6.98449612 140.52649,7.80155039 C140.090232,8.59224806 139.859272,9.48837209 139.859272,10.5162791 L139.859272,27.1472868 L143.221026,27.1472868 L143.221026,10.7007752 Z M141.142384,15.3658915 L154.974338,15.3658915 L154.974338,12.5457364 L137.524007,12.5457364 L137.524007,15.3395349 L141.142384,15.3395349 L141.142384,15.3658915 Z" id="Shape" fill="#737373" fill-rule="nonzero"></path>
                    <path d="M102.956954,12.2294574 C100.621689,12.2294574 98.7483444,12.9410853 97.4395695,14.3379845 C96.1051325,15.7348837 95.4635762,17.6589147 95.4635762,20.0837209 C95.4635762,22.3503876 96.1307947,24.1953488 97.4139073,25.5395349 C98.6970199,26.8573643 100.442053,27.5426357 102.623344,27.5426357 C104.907285,27.5426357 106.729305,26.8310078 108.038079,25.4077519 C109.372517,23.9844961 110.014073,22.0868217 110.014073,19.7410853 C110.014073,17.4217054 109.398179,15.5767442 108.140728,14.2325581 C106.934603,12.8883721 105.163907,12.2294574 102.956954,12.2294574 M105.625828,23.4573643 C105.009934,24.2744186 104.034768,24.6697674 102.828642,24.6697674 C101.622517,24.6697674 100.647351,24.2744186 99.9544702,23.4046512 C99.2615894,22.5875969 98.9279801,21.4015504 98.9279801,19.8992248 C98.9279801,18.344186 99.2872517,17.1581395 99.9544702,16.3147287 C100.647351,15.4713178 101.596854,15.0496124 102.80298,15.0496124 C103.983444,15.0496124 104.907285,15.4449612 105.574503,16.2620155 C106.241722,17.0790698 106.600993,18.2651163 106.600993,19.820155 C106.549669,21.4015504 106.267384,22.6403101 105.625828,23.4573643" id="o" fill="#737373" fill-rule="nonzero"></path>
                    <g id="o-link" transform="translate(122.588576, 12.124031)" fill="#737373" fill-rule="nonzero">
                        <path d="M7.49337748,0.105426357 C5.15811258,0.105426357 3.28476821,0.817054264 1.97599338,2.21395349 C0.641556291,3.61085271 0,5.53488372 0,7.95968992 C0,10.2263566 0.667218543,12.0713178 1.95033113,13.4155039 C3.23344371,14.7333333 4.97847682,15.4186047 7.15976821,15.4186047 C9.44370861,15.4186047 11.2657285,14.7069767 12.5745033,13.2837209 C13.9089404,11.8604651 14.5504967,9.9627907 14.5504967,7.61705426 C14.5504967,5.29767442 13.9346026,3.45271318 12.6771523,2.10852713 C11.4710265,0.764341085 9.70033113,0.105426357 7.49337748,0.105426357 M10.1622517,11.3333333 C9.54635762,12.1503876 8.57119205,12.5457364 7.36506623,12.5457364 C6.1589404,12.5457364 5.18377483,12.1503876 4.49089404,11.2806202 C3.79801325,10.4635659 3.46440397,9.27751938 3.46440397,7.7751938 C3.46440397,6.22015504 3.8236755,5.03410853 4.49089404,4.19069767 C5.18377483,3.34728682 6.13327815,2.9255814 7.33940397,2.9255814 C8.51986755,2.9255814 9.44370861,3.32093023 10.1109272,4.1379845 C10.7781457,4.95503876 11.1374172,6.14108527 11.1374172,7.69612403 C11.0860927,9.27751938 10.8038079,10.5162791 10.1622517,11.3333333" id="o"></path>
                    </g>
                    <polygon id="Path" fill="#F25022" points="0 0 15.7309603 0 15.7309603 16.1565891 0 16.1565891"></polygon>
                    <polygon id="Path" fill="#7FBA00" points="17.3733444 0 33.1043046 0 33.1043046 16.1565891 17.3733444 16.1565891"></polygon>
                    <polygon id="Path" fill="#00A4EF" points="0 17.8434109 15.7309603 17.8434109 15.7309603 34 0 34"></polygon>
                    <polygon id="Path" fill="#FFB900" points="17.3733444 17.8434109 33.1043046 17.8434109 33.1043046 34 17.3733444 34"></polygon>
                </g>
                <path d="M75.8496247,3 L71.0491723,3 L71.0491723,29.2968315 C75.4118401,29.4438596 79.7561337,29.6594331 84.082852,29.9419869 L84.082852,25.3089964 C81.3458991,25.1301996 78.6017563,24.9786331 75.8496247,24.8531231 L75.8496247,3 Z M114,3.00266043 L108.726612,3.00266043 L105.250698,10.8940573 L102.127888,3.00266043 L96.9335888,3.00266043 L102.515343,17.1035118 L96.4223075,30.9369112 C98.1079381,31.0979457 99.7887755,31.2697785 101.468015,31.451314 L105.011834,23.4081159 L108.521301,32.2745621 C110.349132,32.5047679 112.172169,32.7449895 113.992011,32.999374 L114,32.9963223 L107.74639,17.1987397 L114,3.00266043 Z M54.5704949,29.0670169 L59.371187,29.0659996 L59.371187,18.3691744 L65.8788398,18.3691744 L65.8788398,13.736184 L59.371187,13.736184 L59.371187,7.67759184 L67.9718977,7.67759184 L67.9718977,3.00289518 L54.5704949,3.00289518 L54.5704949,29.0670169 Z M36.643773,7.67727884 L41.6681507,7.67727884 L41.6681507,29.3424501 C43.2655853,29.2833728 44.8662953,29.2347025 46.468683,29.1936223 L46.468683,7.67727884 L51.492821,7.67727884 L51.492821,3.00266043 L36.643773,3.00266043 L36.643773,7.67727884 Z M20.2316421,30.6890213 C24.6562229,30.2951987 29.101175,29.9706257 33.5663387,29.7187451 L33.5663387,25.0852069 C30.7134687,25.246711 27.8686674,25.4379493 25.0321744,25.6564179 L25.0321744,18.642182 C26.8933184,18.6240284 29.3440336,18.568394 31.5151419,18.5948419 L31.5151419,13.9614602 C29.7806199,13.9573131 26.9928585,13.9851694 25.0321744,14.0097393 L25.0321744,7.67759184 L33.5663387,7.67759184 L33.5663387,3.00289518 L20.2316421,3.00289518 L20.2316421,30.6890213 Z M10.8147986,19.9781897 L4.56238704,3.00266043 L0,3.00266043 L0,33 C1.59711507,32.777306 3.19726588,32.56408 4.8005323,32.3595395 L4.8005323,16.0470845 L10.3599978,31.6897359 C12.10858,31.4911423 13.8602778,31.3030339 15.6154108,31.1261933 L15.6154108,3.00266043 L10.8147986,3.00266043 L10.8147986,19.9781897 Z M88.0404891,30.2209413 C89.6430365,30.3410521 91.2431873,30.4699267 92.8417403,30.6092082 L92.8417403,3.00266043 L88.0404891,3.00266043 L88.0404891,30.2209413 L88.0404891,30.2209413 Z" id="Netflix_Logo_RGB" fill-opacity="0.8" fill="#D8232A" style="mix-blend-mode: luminosity;"></path>
                <g id="Intercom_Logo_Horizontal_Black" opacity="0.5" transform="translate(165.000000, 0.000000)" fill="#000000">
                    <path d="M30.536,19.2434375 C30.536,19.8876562 30.0105649,20.409375 29.3631145,20.409375 C28.7156641,20.409375 28.1913282,19.8876562 28.1913282,19.2434375 L28.1913282,8.75 C28.1913282,8.10578125 28.7156641,7.5840625 29.3631145,7.5840625 C30.0105649,7.5840625 30.536,8.10578125 30.536,8.75 L30.536,19.2434375 Z M30.127084,26.5453125 C29.9457099,26.700625 25.602626,30.3264062 17.6386565,30.3264062 C9.67468702,30.3264062 5.33270229,26.700625 5.15022901,26.5453125 C4.65887023,26.1264062 4.60170992,25.3903125 5.02271756,24.9003125 C5.44372519,24.4125 6.18241221,24.3545312 6.67377099,24.77125 C6.74192366,24.8292187 10.6211298,27.9934375 17.6386565,27.9934375 C24.7441221,27.9934375 28.5628702,24.80625 28.6002443,24.7734375 C29.0916031,24.3545312 29.8335878,24.4114062 30.2534962,24.9003125 C30.6745038,25.3903125 30.6184427,26.1264062 30.127084,26.5453125 Z M4.74131298,8.75 C4.74131298,8.10578125 5.26564885,7.5840625 5.91309924,7.5840625 C6.56054962,7.5840625 7.08598473,8.10578125 7.08598473,8.75 L7.08598473,19.2434375 C7.08598473,19.8876562 6.56054962,20.409375 5.91309924,20.409375 C5.26564885,20.409375 4.74131298,19.8876562 4.74131298,19.2434375 L4.74131298,8.75 Z M10.603542,6.4159375 C10.603542,5.7728125 11.1289771,5.25 11.7764275,5.25 C12.4238779,5.25 12.9482137,5.7728125 12.9482137,6.4159375 L12.9482137,22.0029688 C12.9482137,22.6471875 12.4238779,23.17 11.7764275,23.17 C11.1289771,23.17 10.603542,22.6471875 10.603542,22.0029688 L10.603542,6.4159375 Z M16.465771,5.82640625 C16.465771,5.1821875 16.9912061,4.66046875 17.6386565,4.66046875 C18.2861069,4.66046875 18.811542,5.1821875 18.811542,5.82640625 L18.811542,22.7434375 C18.811542,23.3876562 18.2861069,23.909375 17.6386565,23.909375 C16.9912061,23.909375 16.465771,23.3876562 16.465771,22.7434375 L16.465771,5.82640625 Z M22.328,6.4159375 C22.328,5.7728125 22.8534351,5.25 23.5008855,5.25 C24.1483359,5.25 24.673771,5.7728125 24.673771,6.4159375 L24.673771,22.0029688 C24.673771,22.6471875 24.1483359,23.17 23.5008855,23.17 C22.8534351,23.17 22.328,22.6471875 22.328,22.0029688 L22.328,6.4159375 Z M30.8294962,0 L4.44781679,0 C2.02070229,0 0.050870229,1.95890625 0.050870229,4.375 L0.050870229,30.625 C0.050870229,33.0410938 2.02070229,35 4.44781679,35 L30.8294962,35 C33.2577099,35 35.2264427,33.0410938 35.2264427,30.625 L35.2264427,4.375 C35.2264427,1.95890625 33.2577099,0 30.8294962,0 L30.8294962,0 Z" id="Fill-1"></path>
                    <path d="M49.1801527,22.5596875 C49.1801527,23.14375 48.7316641,23.625 48.0930076,23.625 C47.4719389,23.625 47.0223511,23.14375 47.0223511,22.5596875 L47.0223511,12.4129688 C47.0223511,11.8289063 47.4719389,11.34875 48.1105954,11.34875 C48.7316641,11.34875 49.1801527,11.8289063 49.1801527,12.4129688 L49.1801527,22.5596875" id="Fill-2"></path>
                    <path d="M63.1228702,12.4129687 L63.1228702,21.6835937 C63.1228702,22.938125 62.4490382,23.6414062 61.3794809,23.6414062 L61.2926412,23.6414062 C60.2747481,23.6414062 59.7921832,23.0573437 59.3601832,22.1998437 L57.1869924,17.9932812 L55.2534351,13.6489062 L55.3061985,17.8554687 L55.322687,22.5421875 C55.322687,23.1273437 54.8741985,23.6075 54.235542,23.6075 C53.6144733,23.6075 53.1659847,23.1273437 53.1659847,22.5421875 L53.1659847,13.2715625 C53.1659847,12.1209375 53.8387176,11.3148437 55.0127023,11.3148437 L55.0984427,11.3148437 C56.1855878,11.3148437 56.6340763,11.8978125 57.0660763,12.7564062 L59.2051908,16.9290625 L61.0343206,20.9803125 L60.9826565,17.1007812 L60.9650687,12.4129687 C60.9650687,11.8289062 61.4135573,11.34875 62.0522137,11.34875 C62.6732824,11.34875 63.1228702,11.8289062 63.1228702,12.4129687" id="Fill-3"></path>
                    <path d="M71.7672672,22.5421875 C71.7672672,23.1273438 71.3176794,23.6075 70.6801221,23.6075 C70.0590534,23.6075 69.6105649,23.1273438 69.6105649,22.5421875 L69.6105649,13.356875 L66.9361221,13.356875 C66.3832061,13.356875 65.9347176,12.945625 65.9347176,12.3440625 C65.9347176,11.7610938 66.3832061,11.34875 66.9361221,11.34875 L74.4417099,11.34875 C74.994626,11.34875 75.4420153,11.7610938 75.4420153,12.3615625 C75.4420153,12.945625 74.994626,13.356875 74.4417099,13.356875 L71.7672672,13.356875 L71.7672672,22.5421875" id="Fill-4"></path>
                    <path d="M78.2549618,22.1998438 L78.2549618,12.67 C78.2549618,11.7785938 78.7562137,11.2798438 79.6707786,11.3148438 L85.8814656,11.3148438 C86.4343817,11.3148438 86.8828702,11.7425 86.8828702,12.3276563 C86.8828702,12.9117188 86.4343817,13.3229688 85.8814656,13.3229688 L80.3951756,13.3229688 L80.3951756,16.2760938 L85.2439084,16.2760938 C85.7781374,16.2760938 86.2101374,16.6709375 86.2101374,17.2375 C86.2101374,17.8040625 85.7781374,18.1989063 85.2439084,18.1989063 L80.3951756,18.1989063 L80.3951756,21.5982813 L85.8814656,21.5982813 C86.4343817,21.5982813 86.8828702,22.028125 86.8828702,22.6110938 C86.8828702,23.1951563 86.4343817,23.6075 85.8814656,23.6075 L79.6180153,23.6075 C78.7199389,23.6075 78.2197863,23.1098438 78.2549618,22.1998438" id="Fill-5"></path>
                    <path d="M92.4384122,16.8776563 L95.8548397,16.8776563 C97.0112366,16.8776563 97.6158168,16.1382813 97.6158168,15.0915625 C97.6158168,14.04375 96.9771603,13.3229688 95.8383511,13.3229688 L92.4384122,13.3229688 L92.4384122,16.8776563 Z M99.1338626,22.2173438 C99.4262595,22.715 99.2371908,23.3504688 98.6337099,23.6589063 C98.0467176,23.9498438 97.4080611,23.7267188 97.1156641,23.2290625 L94.7160305,18.816875 L92.4384122,18.816875 L92.456,22.5596875 C92.456,23.14375 92.0075115,23.625 91.368855,23.625 C90.7477863,23.625 90.2992977,23.14375 90.2992977,22.5596875 L90.2992977,12.67 C90.2992977,11.7785938 90.7994504,11.2798438 91.7140153,11.3148438 L95.8031756,11.3148438 C98.6161221,11.3148438 99.7890076,13.13375 99.7890076,14.98875 C99.7890076,16.75625 98.754626,18.0621875 96.9771603,18.4045313 L99.1338626,22.2173438 L99.1338626,22.2173438 Z" id="Fill-6"></path>
                    <path d="M104.240916,22.6975 C102.947115,21.546875 102.360122,19.744375 102.360122,17.478125 C102.360122,15.194375 102.930626,13.409375 104.20684,12.27625 C105.000489,11.589375 106.070046,11.125625 107.623267,11.125625 C108.98742,11.125625 110.039389,11.4340625 110.833038,12.1034375 C111.52226,12.6525 112.023511,13.4257812 112.317008,14.5075 C112.473099,15.0740625 112.075176,15.640625 111.420031,15.7609375 C110.797863,15.86375 110.29771,15.47 110.107542,14.9023437 C109.901985,14.3532812 109.624977,13.9584375 109.297405,13.6839062 C108.848916,13.2879687 108.297099,13.11625 107.571603,13.11625 C106.794443,13.11625 106.12171,13.339375 105.621557,13.838125 C104.89716,14.56 104.587176,15.84625 104.587176,17.478125 C104.587176,19.0914062 104.879573,20.3798437 105.639145,21.100625 C106.139298,21.5982812 106.794443,21.8214062 107.554015,21.8214062 C108.348763,21.8214062 108.951145,21.6157812 109.452397,21.1520312 C109.711817,20.9114062 109.936061,20.6029687 110.091053,20.2420312 C110.315298,19.7104687 110.780275,19.3145312 111.384855,19.4523437 C111.988336,19.5890625 112.368672,20.173125 112.178504,20.7396875 C111.868519,21.6835937 111.333191,22.4404687 110.608794,22.9545312 C109.815145,23.5210937 108.831328,23.8142187 107.589191,23.8142187 C106.001893,23.8142187 105.000489,23.3504687 104.240916,22.6975" id="Fill-7"></path>
                    <path d="M123.188458,17.478125 C123.188458,14.56 122.117802,13.13375 120.064427,13.13375 C118.04513,13.13375 116.975573,14.56 116.975573,17.478125 C116.975573,20.39625 118.011053,21.8214062 120.064427,21.8214062 C122.100214,21.8214062 123.188458,20.39625 123.188458,17.478125 Z M114.749618,17.478125 C114.749618,13.6325 116.336916,11.125625 120.080916,11.125625 C123.79084,11.125625 125.395725,13.5625 125.395725,17.478125 C125.395725,21.4429687 123.774351,23.830625 120.080916,23.830625 C116.320427,23.830625 114.749618,21.4429687 114.749618,17.478125 L114.749618,17.478125 Z" id="Fill-8"></path>
                    <path d="M142.133802,22.5421875 C142.133802,23.1273438 141.685313,23.6075 141.046656,23.6075 C140.425588,23.6075 139.977099,23.1273438 139.977099,22.5421875 L139.977099,17.9407813 L140.028763,13.4607813 L138.527206,18.0107813 L137.00916,22.4907813 C136.74974,23.2804688 136.215511,23.59 135.542779,23.59 C134.83487,23.59 134.31713,23.2640625 134.041221,22.474375 L132.488,18.0107813 L131.055695,13.5285938 L131.108458,17.9407813 L131.108458,22.5421875 C131.108458,23.1273438 130.65887,23.6075 130.020214,23.6075 C129.399145,23.6075 128.950656,23.1273438 128.950656,22.5421875 L128.950656,13.356875 C128.950656,12.0870313 129.640977,11.34875 130.847939,11.34875 C131.986748,11.34875 132.625405,11.9492188 132.989252,13.0484375 L134.57545,17.7351563 L135.542779,20.9289063 L136.525496,17.7351563 L138.113893,13.0484375 C138.475542,11.9492188 139.096611,11.34875 140.23542,11.34875 C141.443481,11.34875 142.116214,12.0695313 142.116214,13.356875 L142.133802,22.5421875" id="Fill-9"></path>
                </g>
                <g id="heroku-logotype-horizontal-purple" opacity="0.6" style="mix-blend-mode: luminosity;" transform="translate(416.000000, 88.000000)">
                    <g id="heroku-h" transform="translate(9.500000, 6.000000)" fill="#000000" fill-rule="nonzero">
                        <path d="M0,28 L4.5,24 L0,20 L0,28 Z M16.2585,11.7875 C15.4525,10.972 13.9725,10 11.5,10 C8.7885,10 5.997,10.7055 4,11.3555 L4,0 L0,0 L0,17.346 L2.8255,16.066 C2.871,16.0455 7.433,14 11.5,14 C13.531,14 13.9805,15.1215 14,16.055 L14,28 L18.0001129,28 L18.0001129,16 C18.0025,15.744 17.979,13.5275 16.2585,11.7875 Z M11,6.5 L15,6.5 C16.809,4.45 17.73,2.272 18,0 L14,0 C13.559,2.267 12.572,4.4375 11,6.5 Z" id="Shape"></path>
                    </g>
                    <g id="heroku-border" fill="#000000" fill-rule="nonzero">
                        <path d="M32.4,0 L3.6,0 C1.612,0 0,1.612 0,3.6 L0,36.4 C0,38.388 1.612,40 3.6,40 L32.4,40 C34.388,40 36,38.388 36,36.4 L36,3.6 C36,1.612 34.388,0 32.4,0 L32.4,0 Z M34,36.4 C34,37.282 33.2825,38 32.4,38 L3.6,38 C2.718,38 2,37.282 2,36.4 L2,3.6 C2,2.7175 2.718,2 3.6,2 L32.4,2 C33.2825,2 34,2.7175 34,3.6 L34,36.4 L34,36.4 Z" id="Shape"></path>
                    </g>
                    <g id="heroku-logotype" fill="#430098">
                        <g id="heroku-border">
                            <path d="M32.4,0 L3.6,0 C1.612,0 0,1.612 0,3.6 L0,36.4 C0,38.388 1.612,40 3.6,40 L32.4,40 C34.388,40 36,38.388 36,36.4 L36,3.6 C36,1.612 34.388,0 32.4,0 L32.4,0 Z M34,36.4 C34,37.282 33.2825,38 32.4,38 L3.6,38 C2.718,38 2,37.282 2,36.4 L2,3.6 C2,2.7175 2.718,2 3.6,2 L32.4,2 C33.2825,2 34,2.7175 34,3.6 L34,36.4 L34,36.4 Z" id="Shape"></path>
                        </g>
                        <g id="heroku-h" transform="translate(9.500000, 6.000000)">
                            <path d="M0,28 L4.5,24 L0,20 L0,28 Z M16.2585,11.7875 C15.4525,10.972 13.9725,10 11.5,10 C8.7885,10 5.997,10.7055 4,11.3555 L4,0 L0,0 L0,17.346 L2.8255,16.066 C2.871,16.0455 7.433,14 11.5,14 C13.531,14 13.9805,15.1215 14,16.055 L14,28 L18.0001129,28 L18.0001129,16 C18.0025,15.744 17.979,13.5275 16.2585,11.7875 Z M11,6.5 L15,6.5 C16.809,4.45 17.73,2.272 18,0 L14,0 C13.559,2.267 12.572,4.4375 11,6.5 Z" id="Shape"></path>
                        </g>
                        <g id="heroku-text-link" transform="translate(43.750000, 12.500000)">
                            <g id="heroku-text">
                                <path d="M78.56,8.42 L78.56,0.25875 L82.245,0.25875 L82.245,8.4025 C82.245,10.28125 82.8525,11.12875 84.3275,11.12875 C85.80125,11.12875 86.39,10.28125 86.39,8.4025 L86.39,0.25875 L90,0.25875 L90,8.42 C90,12.03125 88.26875,14.09375 84.28875,14.09375 C80.30875,14.09375 78.56,12.03125 78.56,8.42 Z M63.035,0.25875 L66.72,0.25875 L66.72,5.19625 L70.47875,0.25875 L74.7525,0.25875 L70.165,5.63875 L75.1575,13.8925 L70.99375,13.8925 L67.77,8.43875 L66.72,9.655 L66.72,13.8925 L63.035,13.8925 L63.035,0.25875 Z M45.54125,7.075 C45.54125,2.08375 48.94875,0 52.2475,0 C55.52625,0 58.935,2.0825 58.935,7.075 C58.935,12.0675 55.52625,14.15 52.2475,14.15 C48.94875,14.14875 45.54125,12.0675 45.54125,7.075 Z M55.24875,7.075 C55.24875,4.57 54.16125,3.04125 52.24625,3.04125 C50.31125,3.04125 49.225,4.57 49.225,7.075 C49.225,9.58125 50.3125,11.2025 52.24625,11.2025 C54.1625,11.20125 55.24875,9.58125 55.24875,7.075 Z M30.735,0.25875 L36.05875,0.25875 C39.55875,0.25875 41.69625,1.42 41.69625,4.69875 C41.69625,6.835 40.79375,8.07125 39.00625,8.6775 L41.89875,13.89125 L37.99375,13.89125 L35.35875,9.1575 L34.345,9.1575 L34.345,13.89125 L30.73375,13.89125 L30.73375,0.25875 L30.735,0.25875 Z M35.93,6.35625 C37.44125,6.35625 38.10375,5.9325 38.10375,4.79 C38.10375,3.6475 37.44,3.2425 35.93,3.2425 L34.34625,3.2425 L34.34625,6.35625 L35.93,6.35625 Z M16.6475,0.25875 L26.375,0.25875 L26.375,3.3175 L20.3325,3.3175 L20.3325,5.52875 L24.64375,5.52875 L24.64375,8.4025 L20.3325,8.4025 L20.3325,10.92625 L26.68875,10.92625 L26.68875,13.8925 L16.64875,13.8925 L16.64875,0.25875 L16.6475,0.25875 Z M0,0.25875 L3.685,0.25875 L3.685,5.325 L8.2175,5.325 L8.2175,0.25875 L11.9025,0.25875 L11.9025,13.89125 L8.2175,13.89125 L8.2175,8.3825 L3.685,8.3825 L3.685,13.89125 L0,13.89125 L0,0.25875 Z" id="Shape"></path>
                            </g>
                        </g>
                    </g>
                </g>
                <g id="Logo-2C-CMYK-0p5in-R" opacity="0.6" style="mix-blend-mode: luminosity;" transform="translate(146.000000, 92.000000)">
                    <path d="M131.232765,25.5991111 L130.856846,25.5991111 L130.856846,24.8462222 L131.33349,24.8462222 C131.580805,24.8462222 131.860497,24.8862222 131.860497,25.2044444 C131.860497,25.5697778 131.578107,25.5991111 131.232765,25.5991111 Z M131.606886,25.8231111 C131.987302,25.7768889 132.186054,25.5697778 132.186054,25.2222222 C132.186054,24.7982222 131.925248,24.5928889 131.392846,24.5928889 L130.533987,24.5928889 L130.533987,26.8213333 L130.856846,26.8213333 L130.856846,25.8506667 L131.255248,25.8506667 L131.264242,25.8631111 L131.88298,26.8213333 L132.227423,26.8213333 L131.563718,25.8293333 L131.606886,25.8231111 L131.606886,25.8231111 Z" id="Fill-1" fill="#1A1919"></path>
                    <path d="M131.270537,27.5413333 C130.248899,27.5413333 129.447597,26.7448889 129.447597,25.7102222 C129.447597,24.6764444 130.248899,23.8782222 131.270537,23.8782222 C132.291275,23.8782222 133.089879,24.6764444 133.089879,25.7102222 C133.089879,26.7448889 132.291275,27.5413333 131.270537,27.5413333 Z M131.270537,23.6026667 C130.072631,23.6026667 129.134631,24.528 129.134631,25.7102222 C129.134631,26.8933333 130.072631,27.8177778 131.270537,27.8177778 C132.464846,27.8177778 133.403745,26.8933333 133.403745,25.7102222 C133.403745,24.528 132.464846,23.6026667 131.270537,23.6026667 L131.270537,23.6026667 Z" id="Fill-2" fill="#1A1919"></path>
                    <polyline id="Fill-3" fill="#1A1919" points="0 4.73244444 4.99307383 4.73244444 4.99307383 22.712 14.2399732 22.712 14.2399732 27.2675556 0 27.2675556 0 4.73244444"></polyline>
                    <path d="M18.8463356,4.39822222 C20.3832886,4.39822222 21.6306577,5.63111111 21.6306577,7.15111111 C21.6306577,8.67022222 20.3832886,9.89955556 18.8463356,9.89955556 C17.3111812,9.89955556 16.0629128,8.67022222 16.0629128,7.15111111 C16.0629128,5.63111111 17.3111812,4.39822222 18.8463356,4.39822222 L18.8463356,4.39822222 Z M16.4460268,27.2604444 L21.245745,27.2604444 L21.245745,11.9893333 L16.4460268,11.9893333 L16.4460268,27.2604444 Z" id="Fill-4" fill="#1A1919"></path>
                    <polyline id="Fill-5" fill="#1A1919" points="41.3124698 4.73244444 46.1094899 4.73244444 46.1094899 18.2 51.5468322 11.9822222 57.428443 11.9822222 51.1340403 19.0533333 57.2971409 27.2675556 51.2662416 27.2675556 46.1715436 19.7182222 46.1094899 19.7182222 46.1094899 27.2675556 41.3124698 27.2675556 41.3124698 4.73244444"></polyline>
                    <path d="M23.9014631,11.9928889 L28.5087248,11.9928889 L28.5087248,14.0791111 L28.5725772,14.0791111 C29.212,12.8782222 30.7804295,11.6124444 33.1168859,11.6124444 C37.9804564,11.6124444 38.8770872,14.776 38.8770872,18.8871111 L38.8770872,27.2604444 L34.0764698,27.2604444 L34.0764698,19.8355556 C34.0764698,18.0648889 34.044094,15.7884444 31.5799329,15.7884444 C29.0842953,15.7884444 28.7011812,17.7173333 28.7011812,19.7093333 L28.7011812,27.2604444 L23.9014631,27.2604444 L23.9014631,11.9928889" id="Fill-6" fill="#1A1919"></path>
                    <path d="M71.5964698,24.616 C70.0577181,26.5466667 67.5324027,27.6542222 65.0358658,27.6542222 C60.2361477,27.6542222 56.3960134,24.4915556 56.3960134,19.5875556 C56.3960134,14.6871111 60.2361477,11.5235556 65.0358658,11.5235556 C69.5181208,11.5235556 72.3312215,14.6871111 72.3312215,19.5875556 L72.3312215,21.0737778 L61.1957315,21.0737778 C61.577047,22.8773333 62.9566174,24.048 64.8110336,24.048 C66.3812617,24.048 67.4343758,23.2577778 68.2347785,22.1822222 L71.5964698,24.616 Z M67.5324027,17.8506667 C67.5629799,16.2684444 66.3156107,14.9404444 64.585302,14.9404444 C62.4754765,14.9404444 61.3243356,16.3644444 61.1957315,17.8506667 L67.5324027,17.8506667 L67.5324027,17.8506667 Z" id="Fill-7" fill="#1A1919"></path>
                    <g id="Group-11" transform="translate(72.845638, 0.000000)">
                        <mask id="mask-2" fill="white">
                            <use xlink:href="#path-1"></use>
                        </mask>
                        <g id="Clip-9"></g>
                        <path d="M17.7437584,27.2586667 L13.3253557,27.2586667 L13.3253557,25.2328889 L13.263302,25.2328889 C12.5240537,26.3413333 10.6696376,27.6373333 8.49416107,27.6373333 C3.88420134,27.6373333 0.844469799,24.3493333 0.844469799,19.7004444 C0.844469799,15.4284444 3.53436242,11.5084444 7.95006711,11.5084444 C9.93578523,11.5084444 11.789302,12.0444444 12.8783893,13.5306667 L12.9413423,13.5306667 L12.9413423,4.73244444 L17.7437584,4.73244444 L17.7437584,27.2586667 Z M9.48522148,15.6826667 C7.08671141,15.6826667 5.64418792,17.2648889 5.64418792,19.5724444 C5.64418792,21.8826667 7.08671141,23.4631111 9.48522148,23.4631111 C11.8873289,23.4631111 13.3253557,21.8826667 13.3253557,19.5724444 C13.3253557,17.2648889 11.8873289,15.6826667 9.48522148,15.6826667 L9.48522148,15.6826667 Z" id="Fill-8" fill="#1A1919" mask="url(#mask-2)"></path>
                        <path d="M52.5235034,0 L24.932094,0 C23.6145772,0 22.5434765,1.03288889 22.5434765,2.30755556 L22.5434765,29.6906667 C22.5434765,30.9653333 23.6145772,32 24.932094,32 L52.5235034,32 C53.8446174,32 54.9184161,30.9653333 54.9184161,29.6906667 L54.9184161,2.30755556 C54.9184161,1.03288889 53.8446174,0 52.5235034,0" id="Fill-10" fill="#0071A1" mask="url(#mask-2)"></path>
                    </g>
                    <path d="M102.59094,4.40533333 C104.126993,4.40533333 105.374362,5.63822222 105.374362,7.15733333 C105.374362,8.67733333 104.126993,9.91022222 102.59094,9.91022222 C101.048591,9.91022222 99.8057181,8.67733333 99.8057181,7.15733333 C99.8057181,5.63822222 101.048591,4.40533333 102.59094,4.40533333 L102.59094,4.40533333 Z M100.187034,27.2675556 L104.993047,27.2675556 L104.993047,11.9964444 L100.187034,11.9964444 L100.187034,27.2675556 Z" id="Fill-12" fill="#FFFFFE"></path>
                    <path d="M108.005799,11.9964444 L112.608564,11.9964444 L112.608564,14.0844444 L112.674215,14.0844444 C113.314537,12.8835556 114.882067,11.6177778 117.218523,11.6177778 C122.079396,11.6177778 122.977826,14.7795556 122.977826,18.8924444 L122.977826,27.2675556 L118.177208,27.2675556 L118.177208,19.8408889 C118.177208,18.0702222 118.145732,15.792 115.68157,15.792 C113.183235,15.792 112.801919,17.7217778 112.801919,19.7146667 L112.801919,27.2675556 L108.005799,27.2675556 L108.005799,11.9964444" id="Fill-13" fill="#FFFFFE"></path>
                </g>
            </g>
        </g>
    </g>
</svg>