<svg width="64" height="64" xmlns="http://www.w3.org/2000/svg"><g fill="currentColor" fill-rule="nonzero"><path d="M20.001 50C18.201 50 17 48.8 17 47s1.5-3 3.001-3h29.95c-.182 1.523-.166 4.536.049 6H20.001z" opacity=".4"/><path d="M20 44h30.75A2.25 2.25 0 0 0 53 41.75V11a3 3 0 0 0-3-3H20a9 9 0 0 0-9 9v30a9 9 0 0 0 9 9h30.75A2.25 2.25 0 0 0 53 53.75v-1.5A2.25 2.25 0 0 0 50.75 50H20c-1.8 0-3-1.2-3-3s1.5-3 3-3zm5.044-25.772c2.25-1.875 5.597-1.537 7.65.544l.806.816.806-.816c2.063-2.081 5.41-2.419 7.65-.544a5.686 5.686 0 0 1 .403 8.353l-7.94 8.025a1.307 1.307 0 0 1-1.856 0l-7.941-8.025a5.694 5.694 0 0 1 .422-8.353z"/></g></svg>