<svg width="42" height="48" xmlns="http://www.w3.org/2000/svg"><g fill-rule="nonzero" fill="#FFF"><path d="M9.001 42C7.201 42 6 40.8 6 39s1.5-3 3.001-3h29.95c-.182 1.523-.166 4.536.049 6H9.001z" opacity=".4"/><path d="M21 9.123c-.72.698-1.947 3.227-2.197 7.377h4.395c-.25-4.15-1.477-6.679-2.198-7.377zM29.848 19.5h-3.665c-.14 2.531-.613 4.814-1.332 6.6a8.986 8.986 0 0 0 4.997-6.6zm0-3a8.988 8.988 0 0 0-4.997-6.6c.72 1.786 1.193 4.069 1.332 6.6h3.665zm-12.7 9.6c-.72-1.786-1.192-4.069-1.331-6.6h-3.665a8.986 8.986 0 0 0 4.997 6.6zm6.049-6.6h-4.395c.25 4.15 1.476 6.679 2.197 7.377.722-.698 1.948-3.228 2.198-7.377zM9 36h30.75A2.25 2.25 0 0 0 42 33.75V3a3 3 0 0 0-3-3H9a9 9 0 0 0-9 9v30a9 9 0 0 0 9 9h30.75A2.25 2.25 0 0 0 42 45.75v-1.5A2.25 2.25 0 0 0 39.75 42H9c-1.8 0-3-1.2-3-3s1.5-3 3-3zM21 6c6.627 0 12 5.373 12 12s-5.373 12-12 12S9 24.627 9 18 14.373 6 21 6zm-3.851 3.9a8.986 8.986 0 0 0-4.997 6.6h3.665c.14-2.531.612-4.814 1.332-6.6z"/></g></svg>