<svg width="64" height="64" xmlns="http://www.w3.org/2000/svg"><path d="M48.0202 16.6511C44.7059 15.1032 41.1518 13.9628 37.4358 13.3097C37.3681 13.2971 37.3005 13.3286 37.2656 13.3916C36.8086 14.2191 36.3023 15.2985 35.9477 16.147C31.9509 15.538 27.9746 15.538 24.0597 16.147C23.7051 15.2797 23.1804 14.2191 22.7212 13.3916C22.6864 13.3307 22.6188 13.2992 22.5511 13.3097C18.8371 13.9608 15.283 15.1011 11.9667 16.6511C11.938 16.6637 11.9134 16.6847 11.897 16.712C5.15568 26.963 3.30894 36.9621 4.21489 46.8372C4.21899 46.8855 4.24563 46.9318 4.28253 46.9611C8.73029 50.2857 13.0387 52.304 17.2671 53.6418C17.3348 53.6628 17.4065 53.6376 17.4495 53.5809C18.4498 52.1906 19.3414 50.7247 20.1059 49.1831C20.151 49.0928 20.1079 48.9857 20.0157 48.95C18.6015 48.404 17.2548 47.7382 15.9594 46.9822C15.857 46.9213 15.8487 46.7721 15.943 46.7007C16.2156 46.4928 16.4883 46.2764 16.7486 46.058C16.7957 46.0181 16.8613 46.0097 16.9167 46.0349C25.4268 49.9896 34.64 49.9896 43.0497 46.0349C43.1051 46.0076 43.1707 46.016 43.2199 46.0559C43.4802 46.2743 43.7528 46.4928 44.0275 46.7007C44.1217 46.7721 44.1156 46.9213 44.0131 46.9822C42.7177 47.7529 41.3711 48.404 39.9548 48.9479C39.8626 48.9836 39.8216 49.0928 39.8667 49.1831C40.6475 50.7225 41.5392 52.1885 42.5209 53.5788C42.562 53.6376 42.6357 53.6628 42.7034 53.6418C46.9523 52.304 51.2607 50.2857 55.7084 46.9611C55.7474 46.9318 55.772 46.8876 55.7761 46.8393C56.8603 35.4226 53.9601 25.5055 48.0878 16.7141C48.0734 16.6847 48.0489 16.6637 48.0202 16.6511ZM21.3767 40.8243C18.8146 40.8243 16.7035 38.4301 16.7035 35.4899C16.7035 32.5496 18.7736 30.1554 21.3767 30.1554C24.0002 30.1554 26.0909 32.5706 26.0499 35.4899C26.0499 38.4301 23.9797 40.8243 21.3767 40.8243ZM38.6553 40.8243C36.0932 40.8243 33.9821 38.4301 33.9821 35.4899C33.9821 32.5496 36.0522 30.1554 38.6553 30.1554C41.2789 30.1554 43.3695 32.5706 43.3286 35.4899C43.3286 38.4301 41.2789 40.8243 38.6553 40.8243Z" fill="#5865F2" fill-rule="nonzero"/></svg>
