<?xml version="1.0" encoding="UTF-8"?>
<svg width="64px" height="64px" viewBox="0 0 64 64" version="1.1" xmlns="http://www.w3.org/2000/svg" xmlns:xlink="http://www.w3.org/1999/xlink">
    <!-- Generator: Sketch 62 (91390) - https://sketch.com -->
    <title>icons/discourse</title>
    <desc>Created with Sketch.</desc>
    <g id="icons/discourse" stroke="none" stroke-width="1" fill="none" fill-rule="evenodd">
        <path d="M33.1866071,9 C21.1455357,9 11,18.6741071 11,30.6169643 C11,31 11.0098214,53 11.0098214,53 L33.1866071,52.9803571 C45.2375,52.9803571 55,42.9330357 55,30.9901786 C55,19.0473214 45.2375,9 33.1866071,9 Z M33,43.5714286 C31.0946429,43.5714286 29.2776786,43.1491071 27.6571429,42.3830357 L19.6919643,44.3571429 L21.9410714,36.9910714 C20.9785714,35.2133929 20.4285714,33.1705357 20.4285714,31 C20.4285714,24.05625 26.05625,18.4285714 33,18.4285714 C39.94375,18.4285714 45.5714286,24.05625 45.5714286,31 C45.5714286,37.94375 39.94375,43.5714286 33,43.5714286 Z" id="Shape" fill="#221E1F" fill-rule="nonzero"></path>
    </g>
</svg>