<svg width="64" height="64" xmlns="http://www.w3.org/2000/svg"><path d="M48.08 11c2.712 0 4.92 2.254 4.92 5.047V60L42 50l1 4H16c-2.712 0-5-2.207-5-5V16.047C11 13.254 13.208 11 15.92 11zM28.328 22.417s-3.288-.074-6.744 2.572c0 0-3.456 6.395-3.456 14.284 0 0 2.016 3.552 7.32 3.724 0 0 .888-1.102 1.608-2.033-3.048-.931-4.2-2.892-4.2-2.892s.24.172.672.417a.332.332 0 0 0 .096.074c.072.048.144.073.216.122.6.343 1.2.612 1.752.833.984.392 2.16.784 3.528 1.053 1.8.343 3.912.466 6.216.025a15.554 15.554 0 0 0 3.48-1.053 13.63 13.63 0 0 0 2.76-1.446s-1.2 2.009-4.344 2.916c.72.93 1.584 1.984 1.584 1.984 5.304-.172 7.344-3.724 7.344-3.724 0-7.889-3.456-14.284-3.456-14.284-3.226-2.47-6.305-2.57-6.701-2.572h-.043l-.336.392c4.08 1.274 5.976 3.111 5.976 3.111a19.28 19.28 0 0 0-7.224-2.352 19.896 19.896 0 0 0-4.848.05c-.144 0-.264.024-.408.049-.84.073-2.88.391-5.448 1.543-.888.416-1.416.71-1.416.71s1.992-1.935 6.312-3.209zm-.482 8.397c1.465 0 2.648 1.3 2.623 2.886 0 1.586-1.158 2.886-2.623 2.886-1.44 0-2.623-1.3-2.623-2.886s1.157-2.886 2.623-2.886zm9.385 0c1.466 0 2.623 1.3 2.623 2.886s-1.157 2.886-2.623 2.886c-1.44 0-2.622-1.3-2.622-2.886s1.157-2.886 2.622-2.886z" fill="#7289DA" fill-rule="nonzero"/></svg>