<svg width="60" height="64" viewBox="0 0 60 64" fill="none" xmlns="http://www.w3.org/2000/svg"><path d="M45.5179 27.9844C43.5947 27.9844 42.0357 29.5584 42.0357 31.5H41.3393V28.6875C41.3393 26.7459 39.7803 25.1719 37.8571 25.1719C35.9339 25.1719 34.375 26.7459 34.375 28.6875V31.5H33.6786V13.2188C33.6786 10.8888 31.8078 9 29.5 9C27.1922 9 25.3214 10.8888 25.3214 13.2188V31.5H24.1399L18.0688 15.8949C17.2249 13.7262 14.7996 12.6589 12.6517 13.5109C10.5038 14.3628 9.44667 16.8115 10.2905 18.9801L16.799 35.7093L14.0925 37.8954C12.7536 38.9769 12.3937 40.8817 13.2446 42.3849L18.816 52.2287C19.1205 52.7668 19.5606 53.214 20.0915 53.5251C20.6225 53.8362 21.2254 54 21.8393 54H42.7321C44.348 54 45.7517 52.8776 46.1217 51.2896L48.9075 39.3365C48.969 39.0726 49 38.8024 49 38.5312V31.5C49 29.5584 47.441 27.9844 45.5179 27.9844Z" fill="black"/></svg>
