<svg width="64" height="64" xmlns="http://www.w3.org/2000/svg"><g fill="currentColor" fill-rule="nonzero"><path d="M30.88 17.313H20.068v-5.875c0-1.623 1.35-2.938 3.014-2.938h6.027c.59 0 1.167.168 1.66.486-1.149.36-1.803 1.536-1.489 2.67l1.6 5.657zM5 52.563C5 54.184 6.35 55.5 8.014 55.5h6.027c1.664 0 3.013-1.315 3.013-2.938v-5.874H5v5.874zm36.429-40.906a2.286 2.286 0 0 1-.048-.22h-5.933l11.571 40.906c.02.074.036.146.048.22H53L41.429 11.656zM14.04 8.5H8.014C6.349 8.5 5 9.815 5 11.438v5.875h12.054v-5.875c0-1.623-1.349-2.938-3.013-2.938zm6.027 44.062c0 1.623 1.35 2.938 3.014 2.938h6.027c1.664 0 3.013-1.315 3.013-2.938v-5.874H20.068v5.874zM5 43.75h12.054v-23.5H5v23.5zm26.71-23.5H20.069v23.5h12.054V21.703l-.411-1.453z" opacity=".4"/><path d="M5 20.25h12v-2.938H5v2.937zm15 26.435h12v-2.937H20v2.937zm-15 0h12v-2.937H5v2.937zm29.941-36.55a2.2 2.2 0 0 0-1.04-1.338 2.281 2.281 0 0 0-1.704-.223l-1.442.385c-1.2.318-1.908 1.526-1.585 2.7l1.594 5.656H20v2.937h11.59l9.469 33.613a2.2 2.2 0 0 0 1.04 1.338 2.281 2.281 0 0 0 1.704.223l1.441-.388c1.2-.317 1.908-1.526 1.585-2.7L34.94 10.135zM58.922 52.34L47.035 10.135a2.2 2.2 0 0 0-1.041-1.338 2.281 2.281 0 0 0-1.703-.223l-1.443.385c-1.199.318-1.908 1.526-1.584 2.7L53.15 53.865a2.2 2.2 0 0 0 1.041 1.338 2.281 2.281 0 0 0 1.703.223l1.443-.388c1.197-.317 1.906-1.524 1.584-2.697z"/></g></svg>