<svg width="54" height="48" xmlns="http://www.w3.org/2000/svg"><g fill-rule="nonzero" fill="#676A75"><path d="M25.88 9.313H15.068V3.438c0-1.623 1.35-2.938 3.014-2.938h6.027c.59 0 1.167.168 1.66.486-1.149.36-1.803 1.536-1.489 2.67l1.6 5.657zM0 44.563C0 46.184 1.35 47.5 3.014 47.5H9.04c1.664 0 3.013-1.315 3.013-2.938v-5.874H0v5.874zM36.429 3.656a2.286 2.286 0 0 1-.048-.22h-5.933l11.571 40.906c.02.074.036.146.048.22H48L36.429 3.656zM9.04.5H3.014C1.349.5 0 1.815 0 3.438v5.875h12.054V3.438C12.054 1.815 10.705.5 9.041.5zm6.027 44.062c0 1.623 1.35 2.938 3.014 2.938h6.027c1.664 0 3.013-1.315 3.013-2.938v-5.874H15.068v5.874zM0 35.75h12.054v-23.5H0v23.5zm26.71-23.5H15.069v23.5h12.054V13.703l-.411-1.453z" opacity=".4"/><path d="M0 12.25h12V9.311H0v2.937zm15 26.435h12v-2.937H15v2.937zm-15 0h12v-2.937H0v2.937zm29.941-36.55a2.2 2.2 0 0 0-1.04-1.338 2.281 2.281 0 0 0-1.704-.223L25.755.96c-1.2.318-1.908 1.526-1.585 2.7l1.594 5.656H15v2.937h11.59l9.469 33.613a2.2 2.2 0 0 0 1.04 1.338 2.281 2.281 0 0 0 1.704.223l1.441-.388c1.2-.317 1.908-1.526 1.585-2.7L29.94 2.135zM53.922 44.34L42.035 2.135A2.2 2.2 0 0 0 40.994.797a2.281 2.281 0 0 0-1.703-.223L37.848.96c-1.199.318-1.908 1.526-1.584 2.7L48.15 45.865a2.2 2.2 0 0 0 1.041 1.338 2.281 2.281 0 0 0 1.703.223l1.443-.388c1.197-.317 1.906-1.524 1.584-2.697z"/></g></svg>