<?xml version="1.0" encoding="UTF-8"?>
<svg width="64px" height="64px" viewBox="0 0 64 64" version="1.1" xmlns="http://www.w3.org/2000/svg" xmlns:xlink="http://www.w3.org/1999/xlink">
    <!-- Generator: Sketch 62 (91390) - https://sketch.com -->
    <title>icons/guides copy</title>
    <desc>Created with Sketch.</desc>
    <g id="icons/guides-copy" stroke="none" stroke-width="1" fill="none" fill-rule="evenodd">
        <path d="M30.8802017,17.3125045 L20.0679825,17.3125045 L20.0679825,11.4375054 C20.0679825,9.81516914 21.4172156,8.50000288 23.081579,8.50000288 L29.108772,8.50000288 C29.698863,8.499195 30.2760823,8.66811587 30.7681336,8.98561119 C29.6204862,9.34654231 28.96566,10.522129 29.2801703,11.6568999 L30.8802017,17.3125045 Z M5,52.5624993 C5,54.1848356 6.34923311,55.4999989 8.0135965,55.4999989 L14.0407895,55.4999989 C15.7051529,55.4999989 17.054386,54.1848356 17.054386,52.5624993 L17.054386,46.6875002 L5,46.6875002 L5,52.5624993 Z M41.4287312,11.6568999 C41.4089545,11.5834624 41.3929447,11.5109428 41.380702,11.4375054 L35.4476839,11.4375054 L47.0189527,52.3431048 C47.0387294,52.4165423 47.0547392,52.4890619 47.0669819,52.5624993 L53,52.5624993 L41.4287312,11.6568999 Z M14.0407895,8.50000579 L8.0135965,8.50000579 C6.34923311,8.50000579 5,9.81516914 5,11.4375054 L5,17.3125045 L17.054386,17.3125045 L17.054386,11.4375054 C17.054386,9.81516914 15.7051529,8.50000579 14.0407895,8.50000579 Z M20.0679825,52.5624993 C20.0679825,54.1848356 21.4172156,55.4999989 23.081579,55.4999989 L29.108772,55.4999989 C30.7731354,55.4999989 32.1223685,54.1848356 32.1223685,52.5624993 L32.1223685,46.6875002 L20.0679825,46.6875002 L20.0679825,52.5624993 Z M5,43.7500041 L17.054386,43.7500041 L17.054386,20.2500041 L5,20.2500041 L5,43.7500041 Z M31.7108242,20.2500041 L20.0679825,20.2500041 L20.0679825,43.7500041 L32.1223685,43.7500041 L32.1223685,21.7031484 L31.7108242,20.2500041 Z" id="Shape" fill="currentColor" fill-rule="nonzero" opacity="0.4"></path>
        <path d="M5,20.2492974 L16.999844,20.2492974 L16.999844,17.3119659 L5,17.3119659 L5,20.2492974 Z M19.999805,46.6852803 L31.999649,46.6852803 L31.999649,43.7479489 L19.999805,43.7479489 L19.999805,46.6852803 Z M5,46.6852803 L16.999844,46.6852803 L16.999844,43.7479489 L5,43.7479489 L5,46.6852803 Z M34.9414858,10.1347801 C34.7899357,9.57096489 34.415318,9.08944785 33.9004177,8.79663732 C33.3855174,8.50382678 32.772725,8.42382917 32.1974589,8.5743228 L30.7546652,8.95892963 C29.5558366,9.2766672 28.8466868,10.4854027 29.1703108,11.6594387 L30.7640401,17.3147197 L19.999805,17.3147197 L19.999805,20.2520511 L31.5899668,20.2520511 L41.0585938,53.8652199 C41.2101438,54.4290351 41.5847616,54.9105522 42.0996619,55.2033627 C42.6145622,55.4961732 43.2273545,55.5761708 43.8026206,55.4256772 L45.2444768,55.0383166 C46.4433054,54.720579 47.1524552,53.5118435 46.8288312,52.3378075 L34.9414858,10.1347801 Z M58.922424,52.3405613 L47.0350786,10.1347801 C46.8835285,9.57096489 46.5089108,9.08944785 45.9940105,8.79663732 C45.4791101,8.50382678 44.8663178,8.42382917 44.2910517,8.5743228 L42.848258,8.95892963 C41.6494294,9.2766672 40.9402796,10.4854027 41.2639036,11.6594387 L53.1512491,53.8652199 C53.3027991,54.4290351 53.6774169,54.9105522 54.1923172,55.2033627 C54.7072175,55.4961732 55.3200098,55.5761708 55.8952759,55.4256772 L57.3380696,55.0383166 C58.5354942,54.7205422 59.2442521,53.5137066 58.922424,52.3405613 L58.922424,52.3405613 Z" id="Shape" fill="currentColor" fill-rule="nonzero"></path>
    </g>
</svg>
