<?xml version="1.0" encoding="UTF-8"?>
<svg width="54px" height="48px" viewBox="0 0 54 48" version="1.1" xmlns="http://www.w3.org/2000/svg" xmlns:xlink="http://www.w3.org/1999/xlink">
    <!-- Generator: Sketch 57.1 (83088) - https://sketch.com -->
    <title>icons/guides</title>
    <desc>Created with Sketch.</desc>
    <g id="Page-1" stroke="none" stroke-width="1" fill="none" fill-rule="evenodd">
        <g id="Wide" transform="translate(-161.000000, -7536.000000)" fill="#676A75">
            <g id="section-shipping" transform="translate(0.000000, 7080.000000)">
                <g id="icons/guides" transform="translate(156.000000, 448.000000)">
                    <g id="books" transform="translate(4.500000, 8.000000)">
                        <path d="M26.3802017,9.3125045 L15.5679825,9.3125045 L15.5679825,3.43750536 C15.5679825,1.81516914 16.9172156,0.500002884 18.581579,0.500002884 L24.608772,0.500002884 C25.198863,0.499194998 25.7760823,0.668115869 26.2681336,0.985611187 C25.1204862,1.34654231 24.46566,2.52212902 24.7801703,3.65689986 L26.3802017,9.3125045 Z M0.5,44.5624993 C0.5,46.1848356 1.84923311,47.4999989 3.5135965,47.4999989 L9.5407895,47.4999989 C11.2051529,47.4999989 12.554386,46.1848356 12.554386,44.5624993 L12.554386,38.6875002 L0.5,38.6875002 L0.5,44.5624993 Z M36.9287312,3.65689986 C36.9089545,3.58346237 36.8929447,3.51094285 36.880702,3.43750536 L30.9476839,3.43750536 L42.5189527,44.3431048 C42.5387294,44.4165423 42.5547392,44.4890619 42.5669819,44.5624993 L48.5,44.5624993 L36.9287312,3.65689986 Z M9.5407895,0.500005789 L3.5135965,0.500005789 C1.84923311,0.500005789 0.5,1.81516914 0.5,3.43750536 L0.5,9.3125045 L12.554386,9.3125045 L12.554386,3.43750536 C12.554386,1.81516914 11.2051529,0.500005789 9.5407895,0.500005789 Z M15.5679825,44.5624993 C15.5679825,46.1848356 16.9172156,47.4999989 18.581579,47.4999989 L24.608772,47.4999989 C26.2731354,47.4999989 27.6223685,46.1848356 27.6223685,44.5624993 L27.6223685,38.6875002 L15.5679825,38.6875002 L15.5679825,44.5624993 Z M0.5,35.7500041 L12.554386,35.7500041 L12.554386,12.2500041 L0.5,12.2500041 L0.5,35.7500041 Z M27.2108242,12.2500041 L15.5679825,12.2500041 L15.5679825,35.7500041 L27.6223685,35.7500041 L27.6223685,13.7031484 L27.2108242,12.2500041 Z" id="Shape" fill-rule="nonzero" opacity="0.4"></path>
                        <path d="M0.5,12.2492974 L12.499844,12.2492974 L12.499844,9.31196592 L0.5,9.31196592 L0.5,12.2492974 Z M15.499805,38.6852803 L27.499649,38.6852803 L27.499649,35.7479489 L15.499805,35.7479489 L15.499805,38.6852803 Z M0.5,38.6852803 L12.499844,38.6852803 L12.499844,35.7479489 L0.5,35.7479489 L0.5,38.6852803 Z M30.4414858,2.13478013 C30.2899357,1.57096489 29.915318,1.08944785 29.4004177,0.796637315 C28.8855174,0.503826785 28.272725,0.423829172 27.6974589,0.574322797 L26.2546652,0.958929633 C25.0558366,1.2766672 24.3466868,2.48540274 24.6703108,3.65943873 L26.2640401,9.31471967 L15.499805,9.31471967 L15.499805,12.2520511 L27.0899668,12.2520511 L36.5585938,45.8652199 C36.7101438,46.4290351 37.0847616,46.9105522 37.5996619,47.2033627 C38.1145622,47.4961732 38.7273545,47.5761708 39.3026206,47.4256772 L40.7444768,47.0383166 C41.9433054,46.720579 42.6524552,45.5118435 42.3288312,44.3378075 L30.4414858,2.13478013 Z M54.422424,44.3405613 L42.5350786,2.13478013 C42.3835285,1.57096489 42.0089108,1.08944785 41.4940105,0.796637315 C40.9791101,0.503826785 40.3663178,0.423829172 39.7910517,0.574322797 L38.348258,0.958929633 C37.1494294,1.2766672 36.4402796,2.48540274 36.7639036,3.65943873 L48.6512491,45.8652199 C48.8027991,46.4290351 49.1774169,46.9105522 49.6923172,47.2033627 C50.2072175,47.4961732 50.8200098,47.5761708 51.3952759,47.4256772 L52.8380696,47.0383166 C54.0354942,46.7205422 54.7442521,45.5137066 54.422424,44.3405613 L54.422424,44.3405613 Z" id="Shape" fill-rule="nonzero"></path>
                    </g>
                </g>
            </g>
        </g>
    </g>
</svg>