<svg width="64" height="64" xmlns="http://www.w3.org/2000/svg"><g fill="none" fill-rule="nonzero"><circle fill="#E04E39" cx="32" cy="32" r="30"/><g fill="#FFF"><path d="M25.468 31.919V21.344c0-3.503 2.805-6.344 6.264-6.344s6.263 2.84 6.263 6.344V31.92c0 3.504-2.804 6.344-6.263 6.344-3.46 0-6.264-2.84-6.264-6.344z" opacity=".4"/><path d="M43.363 31.821c0 5.966-4.38 10.903-10.045 11.692v2.266h3.7c.585 0 1.058.48 1.058 1.074v1.073c0 .593-.473 1.074-1.057 1.074H26.444c-.583 0-1.057-.48-1.057-1.074v-1.073c0-.593.474-1.074 1.057-1.074h3.701v-2.292C24.33 42.673 20.1 37.31 20.1 31.295V28.6c0-.593.473-1.074 1.057-1.074h1.058c.28 0 .55.113.748.315.198.201.31.474.31.759v2.839c0 4.483 3.218 8.494 7.613 8.93a8.388 8.388 0 0 0 6.518-2.18 8.66 8.66 0 0 0 2.787-6.368V28.6c0-.593.473-1.074 1.057-1.074h1.058c.584 0 1.057.481 1.057 1.074v3.221z"/></g></g></svg>