<?xml version="1.0" encoding="UTF-8"?>
<svg width="64px" height="64px" viewBox="0 0 64 64" version="1.1" xmlns="http://www.w3.org/2000/svg" xmlns:xlink="http://www.w3.org/1999/xlink">
    <!-- Generator: Sketch 62 (91390) - https://sketch.com -->
    <title>icons/podcasts</title>
    <desc>Created with Sketch.</desc>
    <g id="icons/podcasts" stroke="none" stroke-width="1" fill="none" fill-rule="evenodd">
        <circle id="Oval" fill="#E04E39" fill-rule="nonzero" cx="32" cy="32" r="30"></circle>
        <g id="microphone" transform="translate(20.100000, 15.000000)" fill="#FFFFFF" fill-rule="nonzero">
            <path d="M5.36842105,16.9186603 L5.36842105,6.34449756 C5.36842105,2.8405283 8.17253239,0 11.6315789,0 C15.0906255,0 17.8947368,2.8405283 17.8947368,6.34449756 L17.8947368,16.9186603 C17.8947368,20.4226296 15.0906255,23.2631579 11.6315789,23.2631579 C8.17253239,23.2631579 5.36842105,20.4226296 5.36842105,16.9186603 Z" id="Path" opacity="0.4"></path>
            <path d="M23.2631579,16.8210526 C23.2631579,22.7867105 18.8821501,27.7236447 13.2177033,28.5128026 L13.2177033,30.7789474 L16.9186603,30.7789474 C17.5026552,30.7789474 17.9760766,31.2596522 17.9760766,31.8526316 L17.9760766,32.9263158 C17.9760766,33.5192952 17.5026552,34 16.9186603,34 L6.34449761,34 C5.76050273,34 5.28708134,33.5192952 5.28708134,32.9263158 L5.28708134,31.8526316 C5.28708134,31.2596522 5.76050273,30.7789474 6.34449761,30.7789474 L10.0454545,30.7789474 L10.0454545,28.4873026 C4.22966507,27.6726447 0,22.3102632 0,16.2949474 L0,13.6 C0,13.0070206 0.473421389,12.5263158 1.05741627,12.5263158 L2.11483254,12.5263158 C2.39527677,12.5263158 2.66423473,12.6394358 2.86253875,12.8407906 C3.06084277,13.0421455 3.1722488,13.3152412 3.1722488,13.6 L3.1722488,16.4385526 C3.1722488,20.9218553 6.39142045,24.9334079 10.7863068,25.3689211 C13.1645025,25.6082705 15.5315966,24.8162533 17.3037643,23.1882141 C19.0759321,21.560175 20.0882032,19.2476673 20.0909091,16.8210526 L20.0909091,13.6 C20.0909091,13.0070206 20.5643305,12.5263158 21.1483254,12.5263158 L22.2057416,12.5263158 C22.7897365,12.5263158 23.2631579,13.0070206 23.2631579,13.6 L23.2631579,16.8210526 Z" id="Path"></path>
        </g>
    </g>
</svg>