<?xml version="1.0" encoding="UTF-8"?>
<svg width="64px" height="64px" viewBox="0 0 64 64" version="1.1" xmlns="http://www.w3.org/2000/svg" xmlns:xlink="http://www.w3.org/1999/xlink">
    <!-- Generator: Sketch 62 (91390) - https://sketch.com -->
    <title>icons/videos</title>
    <desc>Created with Sketch.</desc>
    <g id="icons/videos" stroke="none" stroke-width="1" fill="none" fill-rule="evenodd">
        <circle id="Oval" fill="#E04E39" fill-rule="nonzero" cx="32" cy="32" r="30"></circle>
        <g id="tv-retro" transform="translate(16.000000, 15.000000)" fill="#FFFFFF" fill-rule="nonzero">
            <path d="M24.4046693,10.5257588 C24.4046693,10.5257588 24.4046693,10.0277043 13.9455253,10.0277043 C4.48249027,10.0277043 4.48249027,10.5257588 4.48249027,10.5257588 C4.48249027,10.5257588 3.9844358,10.5257588 3.9844358,17.9965759 C3.9844358,25.467393 4.48249027,25.467393 4.48249027,25.467393 C4.48249027,25.467393 4.48249027,25.9654475 13.9455253,25.9654475 C24.4046693,25.9654475 24.4046693,25.467393 24.4046693,25.467393 C24.4046693,25.467393 24.9027237,25.467393 24.9027237,17.9965759 C24.9027237,10.5257588 24.4046693,10.5257588 24.4046693,10.5257588 Z M10.779144,6.03891051 L21.0963424,6.03891051 L23.3151751,3.46645914 C24.0939611,2.68767318 24.0939611,1.42501165 23.3151751,0.646225681 C22.5363891,-0.132560285 21.2737276,-0.132560285 20.4949416,0.646225681 L15.9377432,5.93120623 L11.3805447,0.652451362 C10.6019307,-0.126334604 9.33940853,-0.126473971 8.56062257,0.652140078 C7.7818366,1.43075413 7.78169724,2.69327629 8.56031128,3.47206226 L10.779144,6.03891051 Z" id="Shape" opacity="0.4"></path>
            <path d="M28.8871595,6.04326743 L2.98832685,6.04326743 C1.3379195,6.04326743 0,7.38118798 0,9.03159533 L0,26.9615564 C0,28.6119638 1.3379195,29.9498833 2.98832685,29.9498833 L3.9844358,29.9498833 L3.9844358,31.9421012 L6.97276265,31.9421012 L8.29883268,29.9498833 L23.570428,29.9498833 L24.8964981,31.9421012 L27.8848249,31.9421012 L27.8848249,29.9498833 L28.8809339,29.9498833 C30.5313412,29.9498833 31.8692735,28.6119638 31.8692735,26.9615564 L31.8692735,9.03159533 C31.8715783,8.2394126 31.5583372,7.47891736 30.9987615,6.91817338 C30.4391857,6.3574294 29.6793454,6.04260301 28.8871595,6.04326743 Z M24.4046693,25.467393 C24.4046693,25.467393 24.4046693,25.9654475 13.9455253,25.9654475 C4.48249027,25.9654475 4.48249027,25.467393 4.48249027,25.467393 C4.48249027,25.467393 3.9844358,25.467393 3.9844358,17.9965759 C3.9844358,10.5257588 4.48249027,10.5257588 4.48249027,10.5257588 C4.48249027,10.5257588 4.48249027,10.0277043 13.9455253,10.0277043 C24.4046693,10.0277043 24.4046693,10.5257588 24.4046693,10.5257588 C24.4046693,10.5257588 24.9027237,10.5257588 24.9027237,17.9965759 C24.9027237,25.467393 24.4046693,25.467393 24.4046693,25.467393 Z M28.8871595,19.2417121 C28.8871595,19.6543139 28.5526797,19.9887938 28.1400778,19.9887938 L27.6420233,19.9887938 C27.2294215,19.9887938 26.8949416,19.6543139 26.8949416,19.2417121 L26.8949416,18.7436576 C26.8949416,18.3310558 27.2294215,17.9965759 27.6420233,17.9965759 L28.1400778,17.9965759 C28.5526797,17.9965759 28.8871595,18.3310558 28.8871595,18.7436576 L28.8871595,19.2417121 Z M28.8871595,15.2572763 C28.8871595,15.6698781 28.5526797,16.004358 28.1400778,16.004358 L27.6420233,16.004358 C27.2294215,16.004358 26.8949416,15.6698781 26.8949416,15.2572763 L26.8949416,14.7592218 C26.8949416,14.34662 27.2294215,14.0121401 27.6420233,14.0121401 L28.1400778,14.0121401 C28.5526797,14.0121401 28.8871595,14.34662 28.8871595,14.7592218 L28.8871595,15.2572763 Z" id="Shape"></path>
        </g>
    </g>
</svg>