<svg width="64" height="64" xmlns="http://www.w3.org/2000/svg"><g fill="none" fill-rule="nonzero"><circle fill="#E04E39" cx="32" cy="32" r="30"/><g fill="#FFF"><path d="M40.405 25.526s0-.498-10.46-.498c-9.463 0-9.463.498-9.463.498s-.498 0-.498 7.47c0 7.471.498 7.471.498 7.471s0 .498 9.464.498c10.459 0 10.459-.498 10.459-.498s.498 0 .498-7.47c0-7.471-.498-7.471-.498-7.471zm-13.626-4.487h10.317l2.22-2.573a1.994 1.994 0 1 0-2.821-2.82l-4.557 5.285-4.557-5.279a1.994 1.994 0 1 0-2.82 2.82l2.218 2.567z" opacity=".4"/><path d="M44.887 21.043H18.988A2.988 2.988 0 0 0 16 24.032v17.93a2.988 2.988 0 0 0 2.988 2.988h.996v1.992h2.989l1.326-1.992H39.57l1.326 1.992h2.989V44.95h.996a2.988 2.988 0 0 0 2.988-2.988v-17.93a2.98 2.98 0 0 0-2.982-2.989zm-4.482 19.424s0 .498-10.46.498c-9.463 0-9.463-.498-9.463-.498s-.498 0-.498-7.47c0-7.471.498-7.471.498-7.471s0-.498 9.464-.498c10.459 0 10.459.498 10.459.498s.498 0 .498 7.47c0 7.471-.498 7.471-.498 7.471zm4.482-6.225a.747.747 0 0 1-.747.747h-.498a.747.747 0 0 1-.747-.747v-.498c0-.413.334-.747.747-.747h.498c.413 0 .747.334.747.747v.498zm0-3.985a.747.747 0 0 1-.747.747h-.498a.747.747 0 0 1-.747-.747v-.498c0-.412.334-.747.747-.747h.498c.413 0 .747.335.747.747v.498z"/></g></g></svg>