<svg xmlns="http://www.w3.org/2000/svg" viewBox="0 0 1000 1000" class="icon"><path d="M100 850 c15 -20 300 -430 305 -435 l2 -3 -150 -175 c-82 -96 -150 -175 -152 -177 l-2 -2 35 0 35 0 133 155 c73 85 133 155 134 155 1 0 48 -70 105 -155 l104 -155 115 0 115 0 -2 3 c-1 2 -72 104 -157 228 -85 124 -155 226 -155 227 0 1 64 75 143 165 79 90 143 164 143 164 0 0 -16 0 -35 0 l-35 0 -125 -145 c-69 -80 -125 -145 -125 -145 0 0 -45 65 -100 145 l-100 145 -115 0 -115 0 2 -3z m215 -77 c90 -128 462 -662 464 -665 1 -2 -10 -3 -52 -3 l-52 0 -110 157 c-60 86 -170 243 -243 349 -73 106 -132 194 -132 196 0 1 22 2 52 2 l52 0 21 -36z"/></svg>