<svg width="1019" height="322" viewBox="0 0 1019 322" xmlns="http://www.w3.org/2000/svg">
  <g transform="translate(63 43)" fill="#212121" fill-rule="evenodd">
    <path d="M856.792 35.226c3.639 0 5.094.364 6.367.91l.364.182h.182c1.637.91 2.729 2 3.639 3.638v.364c.727 1.273 1.091 2.729 1.091 6.003v151.904c0 3.639-.364 5.094-.91 6.367l-.181.364v.182c-.91 1.637-2.002 2.729-3.639 3.639h-.364c-1.273.727-2.547 1.091-5.457 1.091h-388.22c-2.728 0-4.184-.364-5.457-.91l-.182-.181h-.182c-1.637-.91-2.729-2.002-3.638-3.639v-.364c-.728-1.273-1.092-2.547-1.092-5.457v-43.661a79.414 79.414 0 0 0 8.732-4.73l.91-.728.364-.182.91-.546 1.09-.727.365-.182.363-.364a16.413 16.413 0 0 0 3.82-3.82c2.912-3.82 4.367-9.097 3.64-14.918-.728-7.095-4.913-12.007-11.098-13.28a15.827 15.827 0 0 0-9.096.727V45.96c0-2.728.364-4.184.91-5.457l.182-.182v-.182c.91-1.637 2-2.729 3.638-3.639h.364c1.273-.727 2.729-1.091 6.003-1.091h386.582v-.182zM540.25 82.162h-14.918l-3.274 17.828h-10.916l-2.183 12.37h10.916l-6.731 36.02-.546 4.367c0 10.006 6.913 14.917 17.1 14.917 4.73 0 8.914-.91 11.643-2.365l2.547-13.644c-2.547 1.638-6.185 2.73-9.096 2.73-4.184 0-6.731-1.638-6.731-5.458l.364-3.093 6.185-33.474h14.554l2.365-12.37h-14.554l3.275-17.828zm193.927 16.372c-22.194 0-35.838 20.012-35.838 39.66 0 17.646 10.551 29.47 28.562 29.47 15.645 0 26.742-8.914 30.562-22.012h-14.917c-2.547 6.367-8.187 9.46-14.736 9.46-10.005 0-14.917-6.55-14.917-16.919v-1.819h45.48c.91-3.638 1.455-8.186 1.455-11.097 0-16.373-9.096-26.743-25.65-26.743zm64.037 0c-14.554 0-25.833 9.46-25.833 21.831 0 10.188 6.003 14.736 14.553 17.282l12.007 3.275c4.73 1.273 6.367 3.093 6.367 6.55 0 5.457-5.093 8.004-12.188 8.004-6.004 0-11.643-2.183-12.735-8.732h-14.553c.91 12.006 10.37 20.92 27.106 20.92 14.735 0 26.924-8.368 26.924-22.558 0-8.368-4.912-14.008-15.463-17.1l-12.007-3.639c-4.002-1.091-5.458-2.91-5.458-5.821 0-4.912 4.73-7.823 11.28-7.823 7.094 0 10.551 3.457 11.46 7.823h14.19c-1.091-11.643-9.096-20.012-25.469-20.012h-.181zM582.819 99.99h-14.917l-11.643 66.219h14.917l11.643-66.22zm85.503-1.456c-8.004 0-15.1 3.82-19.647 8.915a18.186 18.186 0 0 0-16.01-9.096c-8.186 0-13.644 3.82-17.646 8.186l1.274-6.55h-14.918l-11.643 66.22h14.918l7.64-43.48c2.73-6.184 8.005-10.732 13.826-10.732 6.186 0 8.733 3.638 8.733 9.278 0 1.455-.182 2.91-.728 5.275l-6.731 39.659h14.917l7.641-43.48c2.729-6.184 8.005-10.732 13.826-10.732 6.003 0 8.55 3.638 8.55 9.278 0 1.455 0 2.91-.545 5.275l-6.913 39.659h14.917l7.459-43.115.546-5.276c0-10.551-6.186-19.284-19.466-19.284zm65.31 12.553c7.458 0 11.824 5.458 11.824 12.734v1.82h-30.38c2.91-8.187 9.096-14.554 18.556-14.554zM578.999 70.882a9.096 9.096 0 0 0-9.46 9.097c0 2.46.977 4.82 2.718 6.56a9.274 9.274 0 0 0 13.12 0 9.274 9.274 0 0 0 2.718-6.56 9.1 9.1 0 0 0-2.663-6.432 9.1 9.1 0 0 0-6.433-2.665z"/>
    <path d="M462.388 125.459s-11.461 8.914-21.467 7.822c-10.006-.91-6.913-23.467-6.913-23.467s2.183-20.558-3.639-22.195c-6.003-1.819-13.28 5.458-13.28 5.458s-9.096 9.824-13.462 22.74l-1.091.364s1.273-22.376-.182-27.652c-1.274-2.547-12.007-2.365-13.826 2.183-1.82 4.548-10.552 36.202-10.916 49.3 0 0-17.1 14.554-31.836 16.737-14.917 2.365-18.374-6.913-18.374-6.913s40.205-11.097 38.75-43.297c-1.274-32.2-32.383-20.193-35.839-17.646-3.457 2.547-21.649 13.462-26.924 43.843l-.364 5.457s-15.645 10.552-24.378 13.28c0 0 24.378-40.75-5.275-59.306-8.369-5.094-15.464-.364-20.012 3.639-2.546 2.728 36.02-39.295 27.107-76.953C276.282.843 267.368-1.158 259 1.934c-12.37 4.912-17.1 12.19-17.1 12.19s-16.373 23.467-20.012 58.214c-3.638 34.929-9.096 77.134-9.096 77.134s-7.823 7.46-14.917 8.005c-7.095.364-4.003-21.103-4.003-21.103s5.458-32.746 5.276-38.203c-.546-5.64-.91-8.55-7.277-10.552-6.549-1.819-13.644 6.367-13.644 6.367s-18.738 28.38-20.375 32.746l-.91 1.82-1.091-1.274s13.28-38.75.546-39.295c-12.553-.546-20.74 13.826-20.74 13.826s-14.553 24.014-15.099 26.742l-.91-1.091s5.822-28.016 4.73-34.929c-1.273-6.913-7.64-5.458-7.64-5.458s-8.369-1.091-10.552 4.367c-2.183 5.275-10.005 40.568-10.915 51.847 0 0-20.739 14.554-34.565 14.918-13.462 0-12.007-8.733-12.007-8.733s49.847-16.918 36.385-50.756c-6.186-8.55-13.28-11.279-23.468-11.097-10.006 0-22.558 6.367-30.563 24.378a80.409 80.409 0 0 0-6.003 23.285s-8.732 1.82-13.462-2.183c-4.73-3.82-7.277 0-7.277 0s-8.005 10.37 0 13.463a103.766 103.766 0 0 0 20.739 4.73c1.091 5.457 4.548 14.917 14.371 22.376 14.736 11.279 43.116-1.092 43.116-1.092l11.643-6.549s.364 10.733 8.914 12.37c8.368 1.456 12.007 0 26.742-36.02 8.732-18.192 9.278-17.282 9.278-17.282.91-.182-5.64 34.929-3.093 44.389 2.547 9.46 13.826 8.368 13.826 8.368s6.004 1.273 10.916-16.191c4.912-17.282 14.553-36.384 14.553-36.384 1.092 0-3.092 35.838 3.275 47.3 6.185 11.46 22.558 3.82 22.558 3.82s11.461-5.822 13.28-7.46c0 0 13.644 11.462 32.746 9.46 42.752-8.55 58.033-20.01 58.033-20.01s7.277 18.737 30.017 20.557c26.015 1.819 40.204-14.554 40.204-14.554s0 10.733 9.096 14.554c8.915 3.638 14.918-17.465 14.918-17.465l15.281-41.842c1.456 0 2.183 27.288 17.1 31.655 15.1 4.366 34.566-10.188 34.566-10.188s4.73-2.547 4.002-10.551c-.91-7.823-8.004-4.912-8.004-4.912v-.182zM67.619 105.81c5.276 5.094 3.275 16.01-6.73 22.922-10.007 6.913-14.555 5.458-14.555 5.458.546-23.286 16.01-33.655 21.285-28.38zm196.11-81.136c3.276 17.828-29.47 70.585-29.47 70.585.546-11.825 12.188-51.848 12.188-51.848s13.826-36.384 17.283-18.737zm-32.381 134.621s-2.547-8.55 4.73-32.746c7.277-24.377 24.56-14.917 24.56-14.917s11.824 9.096 2.546 33.291c-9.278 24.378-31.836 14.554-31.836 14.554v-.182zm99.693-47.3c8.186-14.917 14.553-6.912 14.553-6.912s6.913 7.64-1.091 18.737c-7.823 11.28-19.284 10.552-19.284 10.552s-2.183-7.823 5.822-22.558v.182z" fill-rule="nonzero"/>
    <path d="M411.814 171.667v-2.73h3.274l.546.547.182.727c0 .728-.182 1.092-.546 1.274l-1.637.182h-1.82zm-2.183-4.548v10.915h2.183v-4.73h1.273l2.729 4.73h2.183l-2.91-4.73c.363 0 .727 0 1.09-.364l.91-.364.728-.91v-1.273c0-1.091-.182-2-.91-2.547a7.035 7.035 0 0 0-3.092-.727h-4.184zm-3.457 5.457c0-1.091.182-2 .728-3.092a7.275 7.275 0 0 1 3.638-3.82 7.257 7.257 0 0 1 2.91-.546 7.09 7.09 0 0 1 5.095 2 7.644 7.644 0 0 1 2.183 5.458 8.005 8.005 0 0 1-2.183 5.458 6.953 6.953 0 0 1-2.318 1.624 6.934 6.934 0 0 1-2.776.559 7.276 7.276 0 0 1-5.094-2.183 7.447 7.447 0 0 1-2.183-5.458zm-2.547 0a9.467 9.467 0 0 0 2.91 7.095c.91.728 2.002 1.456 3.275 1.82a10.556 10.556 0 0 0 10.551-1.82 9.462 9.462 0 0 0 2.184-10.915 9.293 9.293 0 0 0-5.458-5.094 10.373 10.373 0 0 0-7.277 0 9.645 9.645 0 0 0-5.457 4.912c-.546 1.273-.728 2.547-.728 4.002zM119.65 60.695l4.73-27.288h10.915l1.091-6.186h-28.743l-.91 6.004h10.734l-4.912 27.47h7.095zm23.285 0l2.73-15.463a5.643 5.643 0 0 1 4.912-3.456c2.364 0 3.456 1.273 3.456 3.274l-.182 1.091-2.547 14.554h6.913l2.729-15.827v-1.82c0-4.366-2.547-7.276-7.277-7.276-3.093 0-5.458 1.273-6.913 2.91l2.365-13.462h-6.731l-6.186 35.475h6.731zm33.474.546c6.003 0 10.187-3.275 11.643-8.55h-6.55a4.91 4.91 0 0 1-4.73 3.093c-3.092 0-4.73-2.002-4.73-5.459v-.363h16.374l.364-4.185c0-6.185-3.639-10.005-9.824-10.005-8.369 0-13.462 7.277-13.462 14.553 0 6.55 4.184 10.916 10.915 10.916zm6.003-15.464h-9.642c1.092-2.546 2.911-4.548 5.822-4.548 2.365 0 3.82 1.82 3.82 4.003v.545z" fill-rule="nonzero"/>
  </g>
</svg>
