<svg width="83" height="37" xmlns="http://www.w3.org/2000/svg"><path d="M57.094 8.405l.004.02.075-.009c-.004-.013.004-.034.018-.06l-.01-.037c-.03.003-.06.033-.087.086zm-2.39-4.328l-.012-.087-.093.019.012.087.093-.019zM50.25 14.33c-.024-.16-.577-.747-1.662-1.774-.032-.201.293-.528.975-.975l1.907-1.87c.416-.595.62-1.528.61-2.803l-.045-.29c-.14-.873-.84-1.533-2.11-1.987-.762-.43-2.092-.606-3.99-.52-1.556.24-3.564.929-6.016 2.072a25.324 25.324 0 0 1-2.265 1.626l.022.147a.572.572 0 0 0 .23-.117c.102-.02.166.024.18.119l.145-.088.073-.011.01.065c.012.077-.505.536-1.557 1.367l.096.149-.073.01-.186-.052c.01.053-.067.094-.218.117l.01.065.192.2c-.055.01-.141-.007-.26-.04-.253.041-.493.189-.724.456l.072-.447c.262-1.587.42-2.988.47-4.196l-.024-.076a3.062 3.062 0 0 1-.781-.62 2.329 2.329 0 0 0-.022-.314l-.023-.064-.072.023c-.719 1.231-2.12 3.345-4.211 6.343-1.601 2.14-2.421 3.324-2.46 3.554-.66.768-.97 1.225-.923 1.37-.18.132-.25.257-.211.385-.054.016-.092 0-.107-.052-.27.502-.698.842-1.29 1.02l-.62.187c-.085.024-.123.086-.11.187l.024.075.233-.07.023.065-.52.239-.933.28-.495.064c-.068.076.394-.033.215.02l-.61.187c-.37.109-.579.094-.626-.052l-.071.023a.341.341 0 0 1 .017.154l-.047-.146-.49.147c-.052-.223-.783-.995-2.187-2.316-.044-.271.39-.701 1.295-1.283l2.499-2.471c.543-.79.81-2.014.81-3.672l-.063-.383c-.184-1.156-1.112-2.034-2.783-2.644-1.004-.568-2.752-.786-5.245-.666-2.052.317-4.697 1.224-7.924 2.708a31.044 31.044 0 0 1-2.98 2.14l.033.201a.831.831 0 0 0 .3-.14c.134-.021.21.033.231.15l.199-.126.102-.014.013.095c.013.094-.671.697-2.064 1.808l.128.17-.103.013-.23-.061c.01.059-.09.108-.3.14l.019.106.26.245a.906.906 0 0 1-.332-.043c-.47.075-.908.44-1.32 1.1l.128.17c.37-.383.588-.577.654-.588l.045.29c-.066.01-.167.058-.301.14l.274.35a8.204 8.204 0 0 1 1.494-1.41c.29.05.448.13.461.224l.217-.033c1.487-1.244 2.978-2.171 4.479-2.783l.032.2c-.256.436-.436.663-.538.682.022.142.08.263.178.364.042.253-.536 2.023-1.728 5.304C5.062 24.069 2.75 29.73.805 33.42c.011.07.06.163.147.276.532-.163.863-.317 1-.452l.114-.02.033.2.199-.031.198-.127c.01.059.08.084.218.062l.033.2c.031.195-.063.5-.277.927-.202.258-.403.785-.598 1.58l.013.095.2-.032c.807-1.017 1.403-2 1.794-2.947 2.499-.908 4.391-1.762 5.69-2.563 1.346-.207 2.353-.63 3.017-1.255l-.02-.106-.5.184-.114.02-.02-.106c.986-.218 1.657-.48 2.019-.803 1.834-1.595 3.225-2.73 4.172-3.411 1.932-1.602 3.155-3.12 3.66-4.544.107-.032.215-.063.334-.101.285-.032.442-.05.484-.064-.016-.053.006-.084.06-.1.452-.079.239.013.526-.072l.753-.226.125-.038-.058.04a.765.765 0 0 0 .278-.038l.07.216-3.1 5.65-.706.998-.29 1.261.072-.023.365-.18-.087.489.046.14.112.117c-.048.015-.064.046-.048.099l.024.076.155-.047c.217-.212.302-.397.254-.554.252.024.417.03.5 0l.024.076c-.15.046-.22.17-.218.373l.024.076.083-.024c1.169-1.435 3.942-6.264 6.207-9.565-.103-.333 1.157-.892 3.786-1.685l.084-.023c.126.402-.011 1.408-.411 3.017-.262.972-.383 1.506-.353 1.587-.337 1.294-.49 1.99-.457 2.096l-.735 3.099a27.28 27.28 0 0 0-1.065 5.007.63.63 0 0 1 .262.006l.126-.122c.016.052.053.067.107.052l-.07-.216.412-.04c.12-.039.212-.195.278-.474-.047-.408.023-.633.208-.694.187-.991.31-1.49.364-1.51.17-.985.307-1.55.412-1.694.27-1.283.486-1.948.653-2.002l.048.152-.215.677c-.317 2.009-.67 3.602-1.057 4.78l.173.56.084-.023c.963-2.453 2.262-7.268 3.889-14.444.017-.621.287-1.123.804-1.5l-.13-.116-.023-.064c.24-.07.403-.177.49-.314-.015-.053-.233-.115-.653-.193l.746-4.502c.217-.218.343-.334.385-.337l.034.224a.572.572 0 0 0-.23.118l.22.265a6.477 6.477 0 0 1 1.12-1.08c.223.043.338.107.355.177l.157-.023c1.142-.944 2.276-1.644 3.41-2.099l.022.148c-.19.329-.325.5-.403.51.02.107.056.2.117.279.032.195-.4 1.537-1.298 4.033-2.049 5.78-3.804 10.072-5.28 12.883.01.053.052.122.125.212.4-.123.654-.242.751-.345l.072-.01.023.147.17-.024.145-.088c.01.041.065.055.168.042l.023.16c.023.141-.047.373-.213.695-.163.196-.319.594-.472 1.196l.012.076.157-.022c.61-.77 1.065-1.518 1.362-2.243 1.897-.693 3.335-1.337 4.317-1.942 1.032-.162 1.797-.478 2.3-.954l-.01-.077-.387.14-.085.012-.011-.077c.745-.159 1.261-.362 1.531-.602 1.392-1.206 2.448-2.074 3.168-2.59 2.227-1.83 3.208-3.51 2.967-5.038zm-.869.28l.059.584c-.013.146-.033.224-.056.231l-.098-.996c.058.055.088.11.095.18zm-46.207-1.7l-.024.004-.01-.084.097-.023.004.043c-.015.004-.038.022-.067.06zm.231 20.12c-.204-.093-.383-.121-.534-.093l-.04-.286c-.017-.111.031-.191.147-.229.107-.02.178.07.2.257.256-.436.398-.658.427-.666l.188.075c-.018.59-.149.9-.388.941zM23.914 9.146c-.164.023-.513-.237-1.027-.763l-.04-.163c.308-.038.647.217 1.026.763l.04.163zm-.807-2.19l-.072.167-2.979-.794c1.943-.082 2.962.127 3.051.627zM10.576 18.83l-.094.023-.01-.084.094-.022.01.083zm-.297-6.157l.025-.01.034.407c-.023.01-.041.211-.054.596l-.024-.282a4.56 4.56 0 0 0 .019-.711zm-1.226 1.805l.033.096-.073.007-.033-.097.073-.006zm-.152 1.074l.051-.039c.04.627.038.965-.003.991l-.027.014c.005-.42-.002-.746-.02-.966zm-.102.962l.03-.004.002.022-.042.076-.05.008-.004-.022c.05-.008.072-.034.064-.08zM5.503 27.194c.016.655.006.99-.027 1.004l-.008-.093c-.03-.32-.02-.626.035-.911zm-.12.945l.005.03c.01.042-.02.07-.09.076l-.005-.03c-.009-.036.021-.062.09-.076zm-.11 3.032l.615-.055.027.042a6.346 6.346 0 0 0-.6.09l-.391.036c-.027-.04.101-.08.35-.113zm9.268-3.934c-1.745.922-2.769 1.538-3.064 1.842-1.907.745-2.849 1.188-2.82 1.336-1.69.735-2.8 1.268-3.33 1.588-.129.02-.317-.01-.57-.093-.053-.313.09-.578.414-.807.301-.043.594-.025.879.061.31-.172.86-.377 1.643-.61l-.031-.186-.638.095c.073-.105.672-.408 1.802-.91l.319-.05.012.088c-.546.083-.838.248-.888.512.02.116.098.16.233.14.397-.261.591-.414.583-.452.774-.188 2.868-1.356 6.283-3.5l.03.17c.013.082-.274.336-.857.776zM9.278 29.64a2.74 2.74 0 0 0 1.645-.867c.187-.029.294.032.313.188-.32.053-.923.35-1.792.908l-.133.017-.033-.246zm8.61-7.42l-2.626 2.225c-1.972 1.392-3.032 2.096-3.195 2.119-3.16 1.895-5.14 2.903-5.926 3.022l-.118.02c.076-.35 1.34-3.21 3.801-8.596 1.236-.186 3.157-.857 5.757-2.019l.649-.098c1.342-.204 2.37-.031 3.075.503l.064.375c-.403 1.364-.9 2.18-1.481 2.448zm-6.545-2.324l.096-.034.007.072-.097.034-.006-.072zm6.19-1.21l.404-.035c.377.003.573.016.59.038l.01.02c-.358.03-.696.022-1.004-.023zm.943-4.898c-.258.342-.989.947-2.192 1.808-.412.064-1.916.747-4.51 2.059a.88.88 0 0 0-.433-.04l-.03-.181c-.057-.367.081-.842.42-1.431.134-1.07.318-1.689.558-1.853l1.89-4.967c-.045-.297.416-.559 1.381-.786l.315-.051.044.274c.948-.208 1.54-.332 1.771-.366 1.76-.27 2.706.011 2.837.833l.2-.032-.077-.483.219-.033c.538.239.842.553.906.943.043.268-.086.613-.382 1.034-.133.021-.219-.067-.244-.254l-.219.033-.008.59c-.807 1.352-1.413 2.06-1.814 2.123-.332.512-.54.768-.632.78zm1.014 3.053c-.282-.005-.508 0-.677.013l-.041-.059.309-.025.687.006c.03.026-.063.048-.278.065zm2.023 2.242c.06.015.095.034.104.053l-.029.008.002.002a.076.076 0 0 0-.018.004l-.041.032-.018-.1zm.015.088l-.01-.056.09-.05.01.056-.09.05zm.879 1.194c.28-.035.418-.05.94-.125l.022.026-.992.143c.012-.016.024-.031.03-.044zm.754.007c-.326.031-.256.015-.775.085l-.017-.018.65-.106.311-.042.034.033c-.143.019-.04.011-.203.048zm2.575-2.671l-.008-.046.088-.06.014.085-.094.02zm3.255 14.484a.257.257 0 0 0 0-.09l.026-.01c.033-.01.053.002.064.037l.008.03-.098.033zm1.247-13.554l-.216-.04c-.328.225-.606.39-.835.485l-.193.08c-.11.053-.206-.007-.264-.183l1.355-.567.433-.345.17.247c-.215.082-.368.194-.45.323zm.582-1.202l-.019-.018c.054-.007.124-.023.2-.048l.774-.1.02.018c-.411.055-.738.104-.975.148zm-.182-1.26c-.055.02-.124.096-.209.209-.018-.079-.129-.071-.334.014-.052-.218.519-.568 1.718-1.06l.17-.065.051.209c-.838.422-1.306.66-1.396.692zm2.437-2.44c-.042.848-.412 1.352-1.117 1.523l-.026-.067-.622.224-.278.067a.958.958 0 0 1-.39.022l-.07-.181c-.026-.067.824-1.061 2.558-2.978l.218.012c.097.237.005.695-.273 1.378zm3.707-3.766l-.022.005-.01-.083.097-.023.005.043a.264.264 0 0 0-.07.058zm-1.26 15.867c-.204-.093-.385-.127-.535-.101l-.04-.29c-.013-.1.034-.172.143-.219.11-.023.183.065.21.263.252-.441.395-.667.428-.67l.183.072c-.025.588-.155.906-.39.945zM50.427 7.51c-.015.009-.066-.264-.154-.818l-.015-.171c.03-.016.082.25.153.797l.016.193zm-.022-1.187l-.05.172-2.003-.862c1.294-.04 1.981.19 2.053.69zm-9.075 8.202l-.095.024-.01-.083.095-.023.01.082zm-.422-5.159l.027-.012.035.411c-.025.013-.043.21-.055.592l-.023-.27c.024-.318.03-.558.016-.72zm-.387 2.968l.055-.007c-.002.063-.023.098-.063.103l-.03.004c.03-.044.042-.078.038-.1zm-.093.993l.024-.004.004.024-.041.076-.052.007-.004-.024c.054-.007.076-.034.07-.08zm.03-.031l-.028.1-.046.005-.026-.095.1-.01zm-2.965 7.73c.015.652.006.987-.027 1.004l-.008-.085a3.441 3.441 0 0 1 .035-.919zm-.123.959l.006.027c.011.044-.018.071-.089.079l-.006-.033c-.006-.032.023-.056.09-.073zm-.306 2.044l.06-.014.005.043c-.013.004-.034.023-.056.054l-.04.01c-.004-.047.006-.078.031-.093zm6.644-2.422c-1.257.726-2.001 1.21-2.228 1.449-1.386.589-2.068.94-2.048 1.062-1.225.583-2.028.996-2.402 1.25-.094.013-.233-.012-.416-.081-.041-.25.063-.461.3-.63.224-.033.44-.019.64.049.228-.133.627-.29 1.197-.476l-.022-.145-.476.075c.053-.086.494-.328 1.316-.725l.235-.034.01.064c-.4.063-.616.195-.648.408.012.093.074.136.174.117.282-.213.417-.334.414-.369.56-.138 2.077-1.064 4.555-2.77l.022.144c.004.059-.202.26-.623.612zm-3.426 1.7c.33-.084.596-.355.801-.815.087-.016.143.05.16.211-.152.041-.438.314-.862.83l-.071.015-.028-.241zm5.735-5.321l-1.851 1.775c-1.4 1.098-2.162 1.655-2.286 1.676-2.244 1.495-3.648 2.287-4.217 2.376l-.082.012c.052-.28.942-2.559 2.671-6.842.874-.141 2.237-.672 4.095-1.588l.475-.076c.956-.153 1.69-.008 2.195.43l.044.297c-.286 1.076-.633 1.72-1.044 1.94zm1.279-3.742l.406-.034c.38.005.574.018.586.04l.012.018a4.31 4.31 0 0 1-1.004-.024zm-.477-3.361c-.187.267-.714.738-1.58 1.402-.303.051-1.397.574-3.282 1.575a.754.754 0 0 0-.313-.02l-.023-.15c-.043-.286.055-.655.294-1.112.094-.84.232-1.314.4-1.434l1.373-3.861c-.033-.221.3-.426.994-.613l.233-.034.033.227a30.421 30.421 0 0 1 1.287-.29c1.282-.204 1.974.013 2.072.658l.152-.022-.055-.359.152-.022c.39.184.606.422.65.72.033.215-.054.487-.255.809-.099.019-.162-.05-.185-.205l-.151.023-.016.454c-.58 1.06-1.017 1.615-1.315 1.66-.238.385-.389.583-.465.594zm1.601 2.532l-.008-.062.031-.006.072.051c.003.026-.005.042-.026.046-.03-.022-.053-.032-.069-.03zM20.306 29.043l.014.03c.068-.015.094-.04.076-.076l-.014-.03c-.064.014-.09.04-.076.076zm4.075-8.544l.093-.092c-.02.001-.037-.005-.053-.01-.035.016-.048.053-.04.102zm-.735-2.088l.082-.027-.023-.078-.081.027.022.078zm43.366 2.61l-.336.01-.055.047.006.022 1.986-.197-.013-.041-1.588.158zm2.656-.104l.027.098.04-.003-.027-.098-.04.003zm10.267-1.724l.01.075.096.018-.01-.075-.096-.018zm-1.04-.09c-1.434.894-1.63.768-1.94.848l.03.289.136-.033.073-.017-.022-.033.151-.162c1.448-.486 1.63-.359 1.587-.752l-.015-.14zm-11.76-1.408l-.051-.075c-.001.514.001.82.009.906l.008.095c.035-.011.045-.326.034-.926zM65.27 16.39l-.004-.032-.035.005-.059.043.039.056c.047-.008.067-.031.06-.072zm15.416 1.555l.116-.02c.067-.011.094-.067.08-.163l-.077-.14c-.42.065-.614.097-.944.308l-.011-.078-.505.084c-.022-.15-.07-.226-.138-.215l-.261.043c-.304.045-.452.043-.597.169-.01-.054-.03-.077-.06-.075l-.293.045-.164.108c-.01-.054-.03-.076-.06-.074l-.098.097-.012-.078-.412-.001-.097.013.022.15.212.04.195-.026a.36.36 0 0 0 .23.032l.165-.096.011.066c-.944.302-.941.26-1.594.414-.077-.043-.134-.063-.17-.055l-.012.013c-.073 0-.12-.046-.131-.124l.34-.066c.024-.002.044.021.236.044.266-.152.275-.207.42-.23l-.022-.15c-.93.248-.559.1-1.732.286l-.055.01-.023-.15c1.505-.287 1.004-.15 1.514-.33.01.053.03.076.06.074a.36.36 0 0 1 .202-.117l.103-.013c.53-.08.714.01 1.746-.353l.011.066.166-.096.158-.023c-.023-.15.208-.19.287-.202l-.024-.162c-1.822.497-2.312.428-2.816.609l-.01-.066c-.478.118-.5.083-.621.098a.325.325 0 0 0-.146.107c-.01-.054-.03-.077-.067-.074-.019.001-.024.008-.03.008l-1.55.363c-.008-.042-.028-.065-.064-.056-.802.226-.58.24-1.662.413a.516.516 0 0 0-.197.098c-.009-.041-.035-.064-.09-.054l-.663.101-.439.14c-.009-.042-.035-.064-.09-.055a3.618 3.618 0 0 1-.64.166l-.012.001c-.11.02.053-.034-.035-.064l-.13.088c-.194.032-.092-.006-.765.047-1.17.228-1.04.237-1.169.252h-.442c.009.042-.014.074-.063.077-.506-.03-.768-.091-.78-.181.033-.475.133-.725.297-.748l.085-.012-.062.162.085-.012c.153-.096.221-.18.21-.251l-.023-.162-.159.023-.022-.15a.536.536 0 0 1 .027-.305l.321-.598.023.15.17-.024-.022-.15-.108-.132c.121-.117.215-.184.294-.196l-.012-.078-.23.034-.035-.227c.398-.986.58-1.556.556-1.712l.17.055c.104-.013.149-.077.135-.185l-.158.023-.011-.066a.569.569 0 0 1 .039-.324c.233-.277.33-.544.287-.814.049-.009.075.013.085.067.206-.135.348-.466.434-1.006.332-.702.776-2.09 1.338-4.159 1.097-3.664 1.015-4.04 1.146-4.897l-.158.023a.538.538 0 0 1-.04.312.64.64 0 0 0-.261-.043l-.011-.065c-.046-.306.057-.683.32-1.138l.073-.01.17.508.16-.023c-.01-.036.019-.244.078-.63-.011-.078-.076-.121-.199-.119l-.146.107c-.02-.107-.034-.391-.047-.845l-.079.012c-.144-.123-.219-.227-.231-.317l-.87.145a.791.791 0 0 0-.116-.258c-.011-.078.179-.17.577-.277l.182.054.159-.108c.01.054.042.076.103.066l.158-.108c.01.053.043.075.103.065l.08-.012-.025-.174c-.122.021-.446.044-.961.062l-.158.12-.013-.096c-4.082.618-6.4.968-6.953 1.062-.073.01-.361.025-.87.048.01.066-.048.107-.17.127l-.183-.066-.589.193c-.14.022-.379.032-.712.02a.617.617 0 0 1-.327.15c-.073.01.871-.11 1.748-.232-.086.079-.224.131-.419.163a.596.596 0 0 1-.353-.036c-.13.07-.558.196-1.276.392l-.182-.054-2.833.635a.726.726 0 0 0-.39-.034c-.152.023-.405.095-.753.217l-1.344.663.116.162a.772.772 0 0 0 .274-.129l.493.008-.03.457c-.439.23-.681.544-.729.923-.658.343-.98.578-.971.704l.011.078.104-.013.177-.11.232.24.055.347c.02.107-.959 2.557-2.924 7.348-1.67 4.6-2.54 7.115-2.607 7.562-.666.235-1.038.534-1.13.903.02.114.228.178.622.181l.03.174-.157.302.055.347c.031.18.537.284 1.516.312-.01-.06.018-.098.085-.109.034.216.002.643-.095 1.28l.104-.014c.366-.57.53-.958.496-1.162l.086-.012c.097-.012.209.089.348.315-.12.057-.48 1.046-1.084 2.972l.116.162.104-.013c.742-2.306 1.218-3.588 1.434-3.84 1.174-.184 3.203-.532 6.082-1.043l.176-.12c.01.059.05.087.116.076l.189-.032.176-.12c.01.059.049.087.116.076l2.183-.34c.578-.09.841-.284.796-.577-.011-.078.325-.193 1.01-.338.067-.01.166 0 .303.034-.01-.054.335-.133 1.029-.242-.007-.363.096-.564.302-.597l-.03-.173a3.085 3.085 0 0 0-.663.198c-.46.007-.757-.008-.882-.042a.814.814 0 0 1-.274.128l-1.526.156-.177.109c-.01-.054-.048-.075-.115-.065l-.085.012-.19.11c-.01-.053-.171-.084-.493-.104l-.187.128-.378.057-.013-.097c1.956-.348 2.91-.682 2.864-.994.128-.02.2.035.22.16l.565-.184-.03-.174-4.71.457c.011.06-.017.098-.084.109l-.578-.008a.703.703 0 0 0-.359.152l-.22-.063c-.59.09-1.025.192-1.312.303a8.507 8.507 0 0 0-1.345.113l-1.052.164-.494-.02c-.046-.306.454-1.862 1.513-4.662.297-.942.587-1.538.89-1.777.067-.01.167.006.305.051l.735-.306.39.034c.644-.1 1.384-.333 2.225-.707.213-.033.373-.033.493.008l.566-.173 1.703-.265a11.54 11.54 0 0 0 2.34-.642l-.03-.174c-.316.053-.485.01-.506-.116-.035-.234-.274-.314-.718-.247l-.031-.173.462-.166 1.229-.189-.03-.173c-.05.01-.3.02-.767.035l-.031-.185.474-.076c.128-.021.178-.085.158-.205-.641.063-.968.056-.98-.028-4.464.53-6.706.73-6.728.591-.067.011-.156.06-.273.14l-.13-.172c1.014-2.567 1.624-3.87 1.825-3.903.012.096-.026.257-.115.475l.012.078.188-.031c.394-1.143.751-1.744 1.08-1.79 1.4-.22-.21-.198 2.768-.873.126.046.213.064.274.054 1.164-.318 2.793-.68 4.886-1.081l-.024-.174-1.119.18-.024-.173a.617.617 0 0 0 .327-.15l.013.096c.061-.01.144-.059.249-.139.194-.032.343-.024.45.023.385-.13.699-.212.93-.253l.699-.115c.163-.12.236-.223.224-.313l-.012-.078c-.176.03-.379.033-.62.007-.013-.096.031-.165.145-.204l1.301-.212.59-.193c.01.066.042.088.091.085.061-.01.144-.059.249-.139.03.004.068.002.099.006-.069.168-.144.41-.214.723l-.17.025a.732.732 0 0 0-.12-.301l-.085.012C68.62 6.92 68.052 9 66.818 12.457c-.21.875-.402 1.367-.59 1.483.012.096.077.14.18.12.066.42-.003.843-.213 1.27-.544 1.977-.923 3.064-1.142 3.273l.217.9c.012.096-.033.153-.136.173l-.158.023c-.042-.252-.143-.366-.306-.336l-.086.012a3.57 3.57 0 0 0-.393 1.148l.158-.023c.205-.153.291-.323.26-.509l.316-.052.188.053c-.13.24-.185.425-.163.563l.095.139-.174.497.012.078c.182-.031.388.015.611.127.146-.023.3-.1.47-.227.182-.031.867-.085 2.048-.168l.58-.24c.721-.057.839-.047 1.46-.145l.255-.042.128-.1.012.078c.65-.1.696-.06 1.214-.036l.012.078-.359.055.023.15a.524.524 0 0 0 .28-.128c.091-.013.15.032.163.14-.146.022-.308.07-.488.143l-.163-.043c-.246.084-.19.098-.36.122l-.254-.03c.009.04-.013.073-.056.076.013.096.071.14.162.128l.256-.042 1.332-.209.5-.144c.01.042.03.065.072.056l.238-.108.456-.068c.353-.055.345-.079 1.108-.253-.01-.048.007-.067.044-.076l.01.066c1.24-.299 1.319-.316 1.516-.397l.021.035c.307-.094.13-.064.212-.13.01.054.03.077.06.075l.22-.034-.024-.162-.447.025-.007-.011c-.018.007-.03.008-.048.015l-.061.005v.012c-.295.08-.304.04-.499.07l-1.115.14-.012-.078.619-.128.225-.034.122-.1.011.078c.877-.134 1.204.061 5.22-1.08.218-.033.187-.213.302-.597a.387.387 0 0 1-.218-.033c-.328.15-.51.102-1.15.25-.055.01-.101-.035-.127-.13l-.01-.066.625-.026c.115-.02.34-.054.664-.264.004.054-.123.093-.05.082zm-29.52 2.7l-.44.05c-.025-.086.187-.434.636-1.033l.29-.035c.019.133-.137.472-.486 1.018zm-.368-1.926l-.006-.029c-.005-.035.024-.061.092-.077l.005.028c.006.042-.024.069-.091.078zm3.686 3.413l.005.064-.096.042-.005-.065.096-.041zm-.112-.04c.007.03-.107.073-.358.125l-.468.02-.15.016-.019-.055.995-.106zm2.276-17.734l-.06.012-.004-.032c-.004-.033.006-.056.032-.068l.021-.004.044.024c.004.039-.006.062-.033.068zm4.21-1.625l.035-.006.01.087-.098.02c-.006-.049.01-.083.053-.101zm-.73.15l-.336.008-.006-.023c.436-.045.58-.074.847-.121.006.02.054.023.138.014l.013.052-.131.014c-.103.011-.193.012-.27 0a1.261 1.261 0 0 1-.256.055zm.431 2.019l-.012-.054.986-.114.012.053-.986.115zm1.116-.938l-.007-.076.097-.03.007.075-.097.03zm.214-.904l-.106.01.087-.08.897-.09.01.037c-.232.023-.532.065-.888.123zm.674 2.05l-.029-.083.649-.06c.22-.02.338-.003.353.055l-.973.088zm1.315-2.997l-.328.111-.06.009a3.614 3.614 0 0 1-.604.029c.43-.057.84-.116.992-.149zm-.237 1.853l.014.059-.985.11-.014-.059.985-.11zm.32.394c-.007-.023-.106-.03-.307-.024l-.505.088-.39.033c-.09-.016-.137-.028-.143-.04l.453-.021 1.014-.132.52-.029.007.03c-.256.027-.471.06-.65.095zm6.387-1.882c.054.002.09 0 .103-.001a1.75 1.75 0 0 1 .495-.492c-.096.91-.298 1.592-.61 2.048l-.261-.176c.16-.691.254-1.149.273-1.379zm-.545 1.36l.026-.003c-.031.067-.06.103-.087.106l-.01-.067c.017-.001.04-.014.07-.035zm-.788 2.1c.184-.703.38-1.106.58-1.222l.014.082c-.076.644-.241.994-.489 1.037l.071.397c-.191.23-.274.402-.257.529l-.12.014-.107-.548c.137-.022.242-.119.308-.29zm-.543.745c.012.142.014.476.006.992l-.03.012-.031-.36c.012-.422.032-.633.055-.644zm-2.79 13.795l-.006-.029.09-.011.017.098c-.048.006-.084-.012-.101-.058zm6.555-.078c-.008-.028-.034-.039-.09-.032l-.4.047-.01-.04.037-.003.952-.107.009.04c-.279.026-.444.06-.498.095zm-.796-.983l-.582.055-.009-.026.528-.052.46-.067c.007.016.035.02.096.014.547-.068.493-.072.757-.097.088-.008.143.005.152.037l-1.402.136zm2.506-.995c-.537.016-.571.002-.95.04l-.014-.044.857-.09.014.046c-.089.01.235-.004.093.048zm.042.135l-.007-.073.095-.033.008.073-.096.033zm.991.132l-.007-.076.096-.03.007.076-.096.03zm-.004-.018c-.005-.044.004-.071.027-.079l.034.062c-.003-.02.002-.032.012-.036l.028.07-.1-.017zm6.275-1.322c.016-.01.024-.02-.016-.024-.018.021.023.024-.02.029l.004.017c.003-.004.014-.01.022-.017l-.022.019v.002l-.041.055.087-.035.01-.001-.007-.048-.017.003zm.924.118l-.013.005.01.095.095-.026c-.006-.06-.071-.076-.092-.074z" fill="#F9DC3E" fill-rule="nonzero"/></svg>