<svg width="82" height="82" xmlns="http://www.w3.org/2000/svg"><g transform="rotate(-9 67.401 13.456)" fill-rule="nonzero" fill="none"><rect fill="#56B3B4" x="52.169" y="14.834" width="7" height="3" rx="1.4"/><rect fill="#EA5E5E" x="1.363" y="68.664" width="20" height="3" rx="1.4"/><rect fill="#BF85BF" x="41.326" y="41.763" width="14" height="3" rx="1.4"/><rect fill="#EA5E5E" x="21.426" y="42.233" width="17" height="3" rx="1.4"/><rect fill="#56B3B4" x=".823" y="41.526" width="17" height="3" rx="1.4"/><rect fill="#BF85BF" x="1.102" y="55.065" width="20" height="3" rx="1.4"/><rect fill="#BF85BF" x=".578" y="27.867" width="20" height="3" rx="1.4"/><rect fill="#F7BA3E" x="17.854" y="7.527" width="37" height="3" rx="1.4"/><rect fill="#EA5E5E" x="1.25" y="7.384" width="14" height="3" rx="1.4"/><rect fill="#F7BA3E" x="14.624" y="62.325" width="7" height="3" rx="1.4"/><rect fill="#56B3B4" x="14.8" y="21.804" width="7" height="3" rx="1.4"/><rect fill="#56B3B4" x="1.043" y="62.526" width="10" height="3" rx="1.4"/><rect fill="#F7BA3E" x="1.494" y="21.044" width="10" height="3" rx="1.4"/><rect fill="#D0D4D8" opacity=".5" x="44.982" y="61.667" width="7" height="3" rx="1.4"/><rect fill="#D0D4D8" opacity=".5" x="25.116" y="62.016" width="17" height="3" rx="1.4"/><rect fill="#D0D4D8" opacity=".5" x="55.198" y="62.32" width="17" height="3" rx="1.4"/><rect fill="#56B3B4" x="28.782" y="34.718" width="31" height="3" rx="1.4"/><rect fill="#F7BA3E" x="10.976" y="35.14" width="14" height="3" rx="1.4"/><rect fill="#EA5E5E" x=".778" y="34.427" width="7" height="3" rx="1.4"/><rect fill="#BF85BF" x="31.342" y="14.907" width="17" height="3" rx="1.4"/><rect fill="#56B3B4" x="1.312" y="14.423" width="27" height="3" rx="1.4"/><rect fill="#F7BA3E" x="11.342" y="48.377" width="34" height="3" rx="1.4"/><rect fill="#BF85BF" x=".764" y="48.988" width="7" height="3" rx="1.4"/><rect fill="#EA5E5E" x="42.068" y="21.038" width="20" height="3" rx="1.4"/><rect fill="#F7BA3E" x="42.061" y="28.319" width="20" height="3" rx="1.4"/><rect fill="#56B3B4" x="1.137" y=".522" width="44" height="3" rx="1.4"/><rect fill="#D0D4D8" opacity=".5" x="48.834" y="1.067" width="24" height="3" rx="1.4"/><rect fill="#D0D4D8" opacity=".5" x="48.582" y="49.11" width="10" height="3" rx="1.4"/><rect fill="#D0D4D8" opacity=".5" x="62.181" y="48.848" width="10" height="3" rx="1.4"/><rect fill="#D0D4D8" opacity=".5" x="59.046" y="41.642" width="14" height="3" rx="1.4"/><rect fill="#D0D4D8" opacity=".5" x="58.254" y="8.125" width="14" height="3" rx="1.4"/><rect fill="#D0D4D8" opacity=".5" x="61.919" y="35.249" width="10" height="3" rx="1.4"/><rect fill="#D0D4D8" opacity=".5" x="62.626" y="14.646" width="10" height="3" rx="1.4"/><rect fill="#D0D4D8" opacity=".5" x="65.761" y="21.852" width="7" height="3" rx="1.4"/><rect fill="#D0D4D8" opacity=".5" x="66.03" y="28.171" width="7" height="3" rx="1.4"/><rect fill="#D0D4D8" opacity=".5" x="38.533" y="55.134" width="34" height="3" rx="1.4"/><rect fill="#D0D4D8" opacity=".5" x="24.813" y="55.818" width="10" height="3" rx="1.4"/><rect fill="#D0D4D8" opacity=".5" x="52.324" y="68.712" width="20" height="3" rx="1.4"/><rect fill="#D0D4D8" opacity=".5" x="25.144" y="69.176" width="24" height="3" rx="1.4"/><rect fill="#D0D4D8" opacity=".5" x="25.275" y="21.555" width="14" height="3" rx="1.4"/><rect fill="#D0D4D8" opacity=".5" x="24.306" y="28.56" width="14" height="3" rx="1.4"/></g></svg>