<svg width="54" height="61" xmlns="http://www.w3.org/2000/svg"><path d="M52.787 35.614c-.88-2.272-3.256-3.4-5.779-2.735-3.767.992-6.45 3.748-8.227 5.577a20.27 20.27 0 0 1-1.844 1.706c-.347-1.949-1.088-4.431-2.761-6.944-2.024-3.004-4.14-4.635-5.584-5.52.845-2.282 1.961-5.578 1.72-10.184-.195-3.934-1.879-9.708-4.387-12.557a2.698 2.698 0 0 0-1.977-.928c-.317-.009-.916-.035-1.94.554-2.52-3.039-3.186-3.259-3.704-3.445-1.068-.366-2.186-.227-3.11.407-1.24.835-2.078 2.448-2.594 5.068-.078.388-.143.755-.192 1.118-2.05.67-5.148 2.248-7.171 5.964-.25.466-.855.915-1.495 1.355l.016-.004c-1.318.873-1.68 2.226-1.95 4.574-.367 3.285 1.52 5.955 3.132 7.588-1.199 1.773-2.701 4.499-3.14 7.362-.548 3.54.087 6.716.56 8.405-.845 1.51-2.048 4.248-1.602 6.874.635 3.667 2.542 5.788 3.34 6.536.23.224.464.393.715.559.046.462.149.945.37 1.416.503 1.103 1.46 1.865 2.71 2.185 2.458.615 5.605.357 7.646-1.398 1.06.683 2.803 1.161 5.58.469l.165-.041c.707-.177 9.56-2.893 12.012-4.189 1.097-.571 1.779-1.268 2.194-1.845 1.544-.946 5.783-3.688 9.446-7.619 2.587-2.785 3.549-3.481 5.71-4.616 2.098-1.103 2.985-3.5 2.14-5.692zm-3.457 3.149c-2.477 1.286-3.666 2.198-6.393 5.147-4.261 4.581-9.441 7.509-9.441 7.509s-.288.81-1.543 1.457c-2.164 1.138-10.72 3.782-11.506 3.996-2.12.545-3.56.306-4.142-.481-1.763-2.375.631-4.204.631-4.204s-.683-.216-1.112-.461c-.39-.237-.877-.784-.918-.528-.16 1.113.242 3.634-.585 5.019-1.13 1.918-4.123 2.119-6.041 1.647-2.108-.53-.699-3.362-.699-3.362s-.855.847-1.967-.178c-1.006-.945-2.16-2.698-2.569-5.112-.476-2.749 1.868-6.113 1.868-6.113s-1.522-3.86-.813-8.382c.635-4.116 4.101-8.165 4.101-8.165S3.68 23.493 4.113 19.62c.277-2.532.627-2.601.882-2.77.893-.628 1.745-1.28 2.259-2.235 2.58-4.725 7.273-5.12 7.273-5.12s.51-7.076 2.803-6.294c.708.246 4.12 4.603 4.12 4.603s1.995-1.958 2.386-1.51c2.105 2.413 3.587 7.655 3.763 11.024.268 5.563-1.656 9.068-2.264 11.12-.143.475 3.261 1.016 6.554 5.948 3.03 4.504 2.469 9.06 2.865 9.454.07.07.094.1.094.1s2.1-.348 5.591-3.946c1.864-1.924 4.097-4.117 7.068-4.893 2.869-.768 3.864 2.59 1.823 3.662z" fill="#FFF" fill-rule="nonzero"/></svg>