<svg xmlns="http://www.w3.org/2000/svg" width="624" height="159" viewBox="0 0 624 159">
  <g fill="none" fill-rule="evenodd">
    <path fill="#0073B1" fill-rule="nonzero" d="M439.8,11.5 C439.8,5.2 445,0.2 451.4,0.2 L585.3,0.2 C591.7,0.2 596.9,5.3 596.9,11.5 L596.9,147 C596.9,153.3 591.7,158.3 585.3,158.3 L451.4,158.3 C445,158.3 439.8,153.2 439.8,147 L439.8,11.5 L439.8,11.5 Z"/>
    <polygon fill="#000" fill-rule="nonzero" points="0 132.6 65.5 132.6 65.5 111.1 23.7 111.1 23.7 31.1 0 31.1"/>
    <path fill="#000" fill-rule="nonzero" d="M86.9 51.5C95.2 51.5 100.3 46 100.3 39.2 100.1 32.2 95.1 26.9 87 26.9 78.9 26.9 73.6 32.2 73.6 39.2 73.6 46.1 78.7 51.5 86.7 51.5L86.9 51.5zM98.7 61.3L75 61.3 75 132.7 98.7 132.7 98.7 61.3zM109.8 132.6L133.5 132.6 133.5 92.7C133.5 90.6 133.7 88.4 134.3 86.9 136 82.6 139.9 78.2 146.5 78.2 155.1 78.2 158.5 84.7 158.5 94.3L158.5 132.5 182.2 132.5 182.2 91.6C182.2 69.7 170.5 59.5 154.9 59.5 142.1 59.5 136.5 66.7 133.4 71.5L133.6 71.5 133.6 61.1 109.9 61.1C110.1 68 109.8 132.6 109.8 132.6M215.7 31.1L192 31.1 192 132.6 215.7 132.6 215.7 109.5 221.6 102 240.2 132.6 269.4 132.6 238.2 88.3 265.5 58.1 236.9 58.1C236.9 58.1 217.4 85.1 215.7 88.3L215.7 31.1 215.7 31.1z"/>
    <path fill="#000" fill-rule="nonzero" d="M283.5 86.8C284.1 80.7 288.2 71.7 298.3 71.7 309.1 71.7 311.6 81.3 311.6 86.8L283.5 86.8zM332.8 102.9C333.1 101.1 333.6 97.5 333.6 93.6 333.6 75.1 324.2 56.4 299.6 56.4 273.2 56.4 261 77.3 261 96.2 261 119.6 275.8 134.2 301.7 134.2 312 134.2 321.5 132.7 329.3 129.5L326.2 113.8C319.8 115.9 313.2 117 305.1 117 294 117 284.3 112.5 283.6 102.7L332.8 102.9zM392.2 99.6C392.2 101.4 392 103.3 391.7 104.8 390.3 111.3 384.7 115.9 377.8 115.9 368 115.9 361.6 108 361.6 95.5 361.6 83.8 367.1 74.3 378 74.3 385.3 74.3 390.5 79.3 391.9 85.6 392.2 87 392.2 88.5 392.2 89.9L392.2 99.6zM392.2 31.1L392.2 64.9 391.9 64.9C388.5 59.9 381.3 56.5 371.8 56.5 353.5 56.5 337.5 71.1 337.6 96.1 337.6 119.3 352.1 134.3 370.2 134.3 380 134.3 389.4 130 394.1 121.8L394.6 121.8 395.5 132.6 416.6 132.6C416.3 127.6 416 118.9 416 110.4L416 31.1 392.2 31.1 392.2 31.1z"/>
    <path fill="#FFF" d="M475.6 51.4C483.9 51.4 489 45.9 489 39.1 488.8 32.1 483.8 26.8 475.7 26.8 467.6 26.8 462.3 32.1 462.3 39.1 462.3 46 467.5 51.4 475.4 51.4L475.6 51.4zM487.4 61.2L463.7 61.2 463.7 132.6 487.4 132.6 487.4 61.2zM500.5 132.6L524.2 132.6 524.2 92.7C524.2 90.6 524.4 88.4 525 86.9 526.7 82.6 530.6 78.2 537.2 78.2 545.8 78.2 549.2 84.8 549.2 94.3L549.2 132.5 573 132.5 573 91.6C573 69.7 561.3 59.5 545.7 59.5 532.9 59.5 527.3 66.7 524.2 71.5L524.4 71.5 524.4 61.1 500.7 61.1C500.9 67.9 500.5 132.6 500.5 132.6"/>
    <path fill="#000" fill-rule="nonzero" d="M607.7,126.4 C607.7,122.4 610.9,119.2 614.9,119.2 C618.9,119.2 622.1,122.4 622.1,126.4 C622.1,130.4 618.9,133.6 614.9,133.6 C610.9,133.6 607.7,130.4 607.7,126.4 L607.7,126.4 Z M606.2,126.4 C606.2,131.2 610.1,135.1 614.9,135.1 C619.7,135.1 623.6,131.2 623.6,126.4 C623.6,121.6 619.7,117.7 614.9,117.7 C610.1,117.7 606.2,121.6 606.2,126.4 L606.2,126.4 Z M613.4,122.9 L614.7,122.9 C615.8,122.9 617.1,122.9 617.1,124.3 C617.1,125.6 615.9,125.7 614.7,125.7 L613.4,125.7 L613.4,122.9 Z M611.6,131.3 L613.4,131.3 L613.4,127.2 L614.7,127.2 L617.2,131.3 L619.1,131.3 L616.5,127.1 C617.9,126.9 618.9,126.1 618.9,124.4 C618.9,122.5 617.8,121.4 615.4,121.4 L611.6,121.4 L611.6,131.3 L611.6,131.3 Z"/>
  </g>
</svg>
