<svg width="1054" height="323" viewBox="0 0 1054 323" xmlns="http://www.w3.org/2000/svg">
  <g transform="translate(63 44.21)" fill="none" fill-rule="evenodd">
    <path d="M469.686 35.07h421.573c3.995 0 5.447.362 6.9 1.27 1.634.726 2.723 1.816 3.63 3.45.727 1.452 1.09 2.905 1.09 6.899v151.055c0 3.994-.363 5.446-1.27 6.899-.727 1.634-1.816 2.723-3.45 3.63-1.453.727-2.905 1.09-6.9 1.09H469.686c-3.994 0-5.447-.363-6.9-1.27-1.633-.727-2.723-1.816-3.63-3.45-.727-1.453-1.09-2.905-1.09-6.9V46.69c0-3.994.363-5.447 1.271-6.9.726-1.633 1.816-2.723 3.45-3.63 1.452-.727 2.905-1.09 6.899-1.09z" fill="#DCE0E6"/>
    <path d="M524.879 165.79l9.44-53.741h14.525l1.997-12.346h-14.524l1.816-9.078c1.089-6.899 5.446-10.167 11.8-10.167 2.36 0 4.903.545 6.537 1.816l2.36-12.89c-2.542-1.272-5.81-1.816-9.623-1.816-12.345 0-23.057 7.625-25.417 21.786l-1.816 10.35h-11.62l-2.178 12.345h11.438l-9.26 53.74h14.525zm57.009 1.452c18.881 0 34.495-16.885 34.495-39.942 0-17.067-10.167-29.05-28.322-29.05-19.064 0-34.496 16.885-34.496 39.943 0 17.066 10.167 29.05 28.323 29.05zm0-12.709c-8.715 0-13.617-6.717-13.617-16.34 0-15.614 8.17-27.233 19.608-27.233 8.715 0 13.617 6.717 13.617 16.34 0 15.614-7.989 27.233-19.427 27.233h-.181zm57.734 11.257l7.444-42.666c2.905-7.262 9.078-10.712 15.251-10.712a14.52 14.52 0 0 1 8.17 2.542l2.542-15.432a16.341 16.341 0 0 0-6.9-1.09c-6.354 0-12.89 3.45-16.34 8.352l1.272-6.9h-14.888l-11.62 66.087h14.888l.181-.181zm57.372 1.452a27.231 27.231 0 0 0 19.245-7.625l-1.27 6.173h14.887l11.62-66.087h-14.888l-7.625 43.574c-2.724 6.173-9.441 11.256-15.977 11.256-7.263 0-9.986-3.631-9.986-9.26 0-1.452 0-2.904.363-4.357l7.262-41.213h-14.887l-7.444 43.029-.545 5.265c0 11.075 6.718 19.245 19.245 19.245zm66.45-1.452l7.625-43.392c2.905-6.173 7.989-10.712 13.798-10.712 6.173 0 8.715 3.631 8.715 9.26 0 1.452 0 2.904-.545 5.264l-6.899 39.58h14.888l7.625-43.392c2.724-6.173 7.989-10.712 13.799-10.712 6.172 0 8.714 3.631 8.714 9.26 0 1.452-.181 2.904-.726 5.264l-6.718 39.58h14.888l7.262-43.03.545-5.264c0-10.53-5.991-19.245-19.245-19.245-8.17 0-15.25 3.812-19.79 8.896a18.162 18.162 0 0 0-15.795-9.078c-8.352 0-13.798 3.813-17.61 8.17l1.088-6.536h-14.887l-11.62 66.087h14.888z" fill="#42474F" fill-rule="nonzero"/>
    <path d="M461.334 125.121s-11.438 8.896-21.423 7.807c-9.986-.908-6.9-23.42-6.9-23.42s2.18-20.517-3.63-22.15c-5.992-1.816-13.254 5.446-13.254 5.446s-9.078 9.804-13.435 22.695l-1.09.363s1.271-22.332-.181-27.597c-1.271-2.542-11.983-2.36-13.799 2.179-1.815 4.539-10.53 36.13-10.893 49.202 0 0-17.066 14.524-31.772 16.703-14.888 2.36-18.337-6.9-18.337-6.9s40.124-11.074 38.671-43.21c-1.27-32.135-32.317-20.153-35.767-17.61-3.45 2.541-21.605 13.434-26.87 43.754l-.363 5.447s-15.614 10.53-24.328 13.254c0 0 24.328-40.669-5.266-59.188-8.351-5.083-15.432-.363-19.97 3.631-2.543 2.724 35.947-39.216 27.051-76.798C275.602.755 266.706-1.242 258.354 1.844a37.224 37.224 0 0 0-17.066 12.165s-16.34 23.42-19.971 58.098c-3.631 34.858-9.078 76.98-9.078 76.98s-7.807 7.443-14.887 7.988c-7.081.363-3.995-21.06-3.995-21.06s5.447-32.68 5.265-38.127c-.544-5.629-.907-8.534-7.262-10.53-6.536-1.816-13.616 6.354-13.616 6.354s-18.7 28.323-20.335 32.68l-.908 1.815-1.089-1.27s13.254-38.672.545-39.217c-12.528-.544-20.698 13.799-20.698 13.799s-14.524 23.965-15.069 26.688l-.908-1.089s5.81-27.96 4.72-34.859c-1.27-6.899-7.624-5.446-7.624-5.446s-8.352-1.09-10.53 4.357c-2.18 5.265-9.986 40.487-10.894 51.744 0 0-20.698 14.524-34.496 14.887-13.435 0-11.982-8.715-11.982-8.715s49.746-16.884 36.31-50.654c-6.172-8.533-13.253-11.256-23.42-11.075-9.986 0-22.513 6.355-30.501 24.329a80.247 80.247 0 0 0-5.992 23.24s-8.714 1.815-13.435-2.18c-4.72-3.812-7.262 0-7.262 0s-7.989 10.35 0 13.436a103.558 103.558 0 0 0 20.697 4.72c1.09 5.447 4.54 14.888 14.343 22.331 14.706 11.257 43.029-1.089 43.029-1.089l11.62-6.536s.363 10.712 8.896 12.346c8.351 1.452 11.983 0 26.689-35.948 8.714-18.156 9.259-17.248 9.259-17.248.908-.182-5.628 34.859-3.087 44.3 2.542 9.44 13.799 8.351 13.799 8.351s5.991 1.271 10.893-16.158c4.902-17.248 14.525-36.312 14.525-36.312 1.089 0-3.087 35.767 3.268 47.205 6.173 11.438 22.513 3.813 22.513 3.813s11.438-5.81 13.253-7.444c0 0 13.617 11.438 32.68 9.44 42.666-8.532 57.917-19.97 57.917-19.97s7.262 18.7 29.957 20.516c25.962 1.815 40.123-14.525 40.123-14.525s0 10.712 9.078 14.525c8.896 3.63 14.888-17.43 14.888-17.43l15.25-41.758c1.453 0 2.18 27.234 17.067 31.591 15.069 4.357 34.496-10.167 34.496-10.167s4.72-2.542 3.994-10.53c-.908-7.807-7.989-4.902-7.989-4.902v-.182zM67.357 105.513c5.265 5.084 3.268 15.977-6.717 22.876-9.986 6.9-14.525 5.447-14.525 5.447.545-23.24 15.977-33.588 21.242-28.323zm195.718-80.974c3.268 17.792-29.412 70.444-29.412 70.444.544-11.801 12.164-51.744 12.164-51.744s13.798-36.311 17.248-18.7zM230.758 158.89s-2.542-8.533 4.72-32.68c7.263-24.328 24.51-14.887 24.51-14.887s11.802 9.078 2.542 33.225c-9.26 24.328-31.772 14.524-31.772 14.524v-.182zm99.493-47.204c8.17-14.888 14.524-6.9 14.524-6.9s6.9 7.626-1.09 18.701c-7.806 11.257-19.244 10.53-19.244 10.53s-2.179-7.807 5.81-22.513v.182z" fill="#E04E39" fill-rule="nonzero"/>
    <path d="M410.862 171.236v-2.723h3.268l.544.545.182.726c0 .726-.182 1.09-.545 1.27l-1.634.182h-1.815zm-2.179-4.539v10.894h2.179v-4.72h1.27l2.724 4.72h2.179l-2.905-4.72c.363 0 .726 0 1.089-.364l.908-.363.726-.908v-1.27c0-1.09-.182-1.998-.908-2.542a7.021 7.021 0 0 0-3.086-.727h-4.176zm-3.45 5.447c0-1.09.182-1.997.727-3.086a7.254 7.254 0 0 1 3.63-3.813 7.236 7.236 0 0 1 2.906-.545 7.075 7.075 0 0 1 5.083 1.997 7.628 7.628 0 0 1 2.179 5.447 7.989 7.989 0 0 1-2.179 5.447 6.905 6.905 0 0 1-5.084 2.179 7.261 7.261 0 0 1-5.083-2.18 7.432 7.432 0 0 1-2.179-5.446zm-2.541 0a9.43 9.43 0 0 0 2.905 7.08c.907.727 1.997 1.453 3.268 1.816 1.757.665 3.66.846 5.512.527a10.518 10.518 0 0 0 5.018-2.342 9.443 9.443 0 0 0 2.178-10.894 9.274 9.274 0 0 0-5.446-5.083 10.353 10.353 0 0 0-7.262 0 9.626 9.626 0 0 0-5.447 4.902c-.545 1.27-.726 2.542-.726 3.994z" fill="#E04E39" fill-rule="nonzero"/>
  </g>
</svg>
