<svg width="1054" height="322" viewBox="0 0 1054 322" xmlns="http://www.w3.org/2000/svg">
  <g transform="translate(62 43)" fill="#212121" fill-rule="evenodd">
    <path d="M893.176 35.226h1.092c2.729 0 4.184.364 5.457.91l.182.182h.182c1.638.91 2.73 2 3.639 3.638v.364c.727 1.273 1.091 2.729 1.091 6.003v151.904c0 3.639-.364 5.094-.91 6.367l-.181.364v.182c-.91 1.637-2.001 2.729-3.639 3.639h-.364c-1.273.727-2.728 1.091-6.003 1.091H470.756c-3.638 0-5.094-.364-6.367-.91l-.364-.181h-.182c-1.637-.91-2.729-2.002-3.638-3.639v-.364c-.728-1.273-1.092-2.547-1.092-5.457v-43.661a79.414 79.414 0 0 0 8.732-4.73l.91-.728.364-.182.91-.546 1.09-.727.365-.182.363-.364a16.413 16.413 0 0 0 3.82-3.82c2.912-3.82 4.367-9.097 3.64-14.918-.728-7.095-4.913-12.007-11.098-13.28a15.827 15.827 0 0 0-9.096.727V45.96c0-2.728.364-4.184.91-5.457l.182-.182v-.182c.91-1.637 2-2.729 3.638-3.639h.364c1.273-.727 2.547-1.091 5.457-1.091h423.512v-.182zM589.368 98.534c-19.101 0-34.565 16.92-34.565 40.023 0 17.1 10.188 29.107 28.38 29.107 18.92 0 34.565-16.918 34.565-40.022 0-17.1-10.188-29.108-28.38-29.108zM702.16 99.99h-14.917l-7.459 43.115-.546 5.276c0 11.097 6.731 19.283 19.284 19.283a27.286 27.286 0 0 0 19.284-7.64l-1.274 6.185h14.918l11.643-66.22h-14.918l-7.64 43.662c-2.73 6.185-9.46 11.279-16.01 11.279-7.277 0-10.005-3.638-10.005-9.278 0-1.455 0-2.91.363-4.366l7.277-41.296zm-151.722-32.2c-12.37 0-23.104 7.64-25.469 21.83l-1.819 10.37h-11.643l-2.183 12.37h11.461l-9.278 53.849h14.554l9.46-53.849h14.553l2.002-12.37H537.52l1.82-9.096c1.09-6.913 5.457-10.188 11.824-10.188 2.365 0 4.912.546 6.55 1.82l2.364-12.917c-2.547-1.273-5.821-1.82-9.642-1.82zm117.34 30.744c-6.368 0-12.917 3.457-16.374 8.369l1.274-6.913H637.76l-11.643 66.219h14.918l7.459-42.751c2.91-7.277 9.096-10.734 15.281-10.734a14.55 14.55 0 0 1 8.186 2.547l2.547-15.463a16.377 16.377 0 0 0-6.913-1.092l.182-.182zm161.181 0c-8.186 0-15.281 3.82-19.83 8.915a18.199 18.199 0 0 0-15.827-9.096c-8.368 0-13.825 3.82-17.646 8.186l1.092-6.55H761.83l-11.643 66.22h14.918l7.64-43.48c2.911-6.184 8.005-10.732 13.827-10.732 6.185 0 8.732 3.638 8.732 9.278 0 1.455 0 2.91-.546 5.275l-6.913 39.659h14.918l7.64-43.48c2.73-6.184 8.005-10.732 13.826-10.732 6.186 0 8.732 3.638 8.732 9.278 0 1.455-.181 2.91-.727 5.275l-6.731 39.659h14.917l7.277-43.115.546-5.276c0-10.551-6.004-19.284-19.284-19.284zM589.186 111.27c8.733 0 13.645 6.731 13.645 16.373 0 15.645-8.005 27.288-19.466 27.288-8.914 0-13.826-6.731-13.826-16.373 0-15.645 8.186-27.288 19.647-27.288z"/>
    <path d="M462.388 125.459s-11.461 8.914-21.467 7.822c-10.006-.91-6.913-23.467-6.913-23.467s2.183-20.558-3.639-22.195c-6.003-1.819-13.28 5.458-13.28 5.458s-9.096 9.824-13.462 22.74l-1.091.364s1.273-22.376-.182-27.652c-1.274-2.547-12.007-2.365-13.826 2.183-1.82 4.548-10.552 36.202-10.916 49.3 0 0-17.1 14.554-31.836 16.737-14.917 2.365-18.374-6.913-18.374-6.913s40.205-11.097 38.75-43.297c-1.274-32.2-32.383-20.193-35.839-17.646-3.457 2.547-21.649 13.462-26.924 43.843l-.364 5.457s-15.645 10.552-24.378 13.28c0 0 24.378-40.75-5.275-59.306-8.369-5.094-15.464-.364-20.012 3.639-2.546 2.728 36.02-39.295 27.107-76.953C276.282.843 267.368-1.158 259 1.934c-12.37 4.912-17.1 12.19-17.1 12.19s-16.373 23.467-20.012 58.214c-3.638 34.929-9.096 77.134-9.096 77.134s-7.823 7.46-14.917 8.005c-7.095.364-4.003-21.103-4.003-21.103s5.458-32.746 5.276-38.203c-.546-5.64-.91-8.55-7.277-10.552-6.549-1.819-13.644 6.367-13.644 6.367s-18.738 28.38-20.375 32.746l-.91 1.82-1.091-1.274s13.28-38.75.546-39.295c-12.553-.546-20.74 13.826-20.74 13.826s-14.553 24.014-15.099 26.742l-.91-1.091s5.822-28.016 4.73-34.929c-1.273-6.913-7.64-5.458-7.64-5.458s-8.369-1.091-10.552 4.367c-2.183 5.275-10.005 40.568-10.915 51.847 0 0-20.739 14.554-34.565 14.918-13.462 0-12.007-8.733-12.007-8.733s49.847-16.918 36.385-50.756c-6.186-8.55-13.28-11.279-23.468-11.097-10.006 0-22.558 6.367-30.563 24.378a80.409 80.409 0 0 0-6.003 23.285s-8.732 1.82-13.462-2.183c-4.73-3.82-7.277 0-7.277 0s-8.005 10.37 0 13.463a103.766 103.766 0 0 0 20.739 4.73c1.091 5.457 4.548 14.917 14.371 22.376 14.736 11.279 43.116-1.092 43.116-1.092l11.643-6.549s.364 10.733 8.914 12.37c8.368 1.456 12.007 0 26.742-36.02 8.732-18.192 9.278-17.282 9.278-17.282.91-.182-5.64 34.929-3.093 44.389 2.547 9.46 13.826 8.368 13.826 8.368s6.004 1.273 10.916-16.191c4.912-17.282 14.553-36.384 14.553-36.384 1.092 0-3.092 35.838 3.275 47.3 6.185 11.46 22.558 3.82 22.558 3.82s11.461-5.822 13.28-7.46c0 0 13.644 11.462 32.746 9.46 42.752-8.55 58.033-20.01 58.033-20.01s7.277 18.737 30.017 20.557c26.015 1.819 40.204-14.554 40.204-14.554s0 10.733 9.096 14.554c8.915 3.638 14.918-17.465 14.918-17.465l15.281-41.842c1.456 0 2.183 27.288 17.1 31.655 15.1 4.366 34.566-10.188 34.566-10.188s4.73-2.547 4.002-10.551c-.91-7.823-8.004-4.912-8.004-4.912v-.182zM67.619 105.81c5.276 5.094 3.275 16.01-6.73 22.922-10.007 6.913-14.555 5.458-14.555 5.458.546-23.286 16.01-33.655 21.285-28.38zm196.11-81.136c3.276 17.828-29.47 70.585-29.47 70.585.546-11.825 12.188-51.848 12.188-51.848s13.826-36.384 17.283-18.737zm-32.381 134.621s-2.547-8.55 4.73-32.746c7.277-24.377 24.56-14.917 24.56-14.917s11.824 9.096 2.546 33.291c-9.278 24.378-31.836 14.554-31.836 14.554v-.182zm99.693-47.3c8.186-14.917 14.553-6.912 14.553-6.912s6.913 7.64-1.091 18.737c-7.823 11.28-19.284 10.552-19.284 10.552s-2.183-7.823 5.822-22.558v.182z" fill-rule="nonzero"/>
    <path d="M411.814 171.667v-2.73h3.274l.546.547.182.727c0 .728-.182 1.092-.546 1.274l-1.637.182h-1.82zm-2.183-4.548v10.915h2.183v-4.73h1.273l2.729 4.73h2.183l-2.91-4.73c.363 0 .727 0 1.09-.364l.91-.364.728-.91v-1.273c0-1.091-.182-2-.91-2.547a7.035 7.035 0 0 0-3.092-.727h-4.184zm-3.457 5.457c0-1.091.182-2 .728-3.092a7.268 7.268 0 0 1 3.638-3.82 7.257 7.257 0 0 1 2.91-.546 7.09 7.09 0 0 1 5.095 2 7.644 7.644 0 0 1 2.183 5.458 8.005 8.005 0 0 1-2.183 5.458 6.953 6.953 0 0 1-2.318 1.624 6.934 6.934 0 0 1-2.776.559 7.276 7.276 0 0 1-5.094-2.183 7.447 7.447 0 0 1-2.183-5.458zm-2.547 0a9.467 9.467 0 0 0 2.91 7.095c.91.728 2.002 1.456 3.275 1.82 1.761.665 3.668.847 5.524.527a10.54 10.54 0 0 0 5.028-2.347 9.462 9.462 0 0 0 2.183-10.915 9.293 9.293 0 0 0-5.458-5.094 10.373 10.373 0 0 0-7.277 0 9.645 9.645 0 0 0-5.457 4.912c-.546 1.273-.728 2.547-.728 4.002z" fill-rule="nonzero"/>
  </g>
</svg>
