<svg width="128" height="128" viewBox="0 0 128 128" xmlns="http://www.w3.org/2000/svg">
  <path d="M64 0c35.346 0 64 28.654 64 64 0 35.346-28.654 64-64 64-35.346 0-64-28.654-64-64C0 28.654 28.654 0 64 0zm.617 82.065c-11.208.282-10.028-7.08-10.028-7.08S95.51 60.98 84.352 33.317c-5.014-7.117-10.84-9.353-19.087-9.19-8.25.16-18.406 5.19-25.038 20.074-3.164 7.103-4.238 13.832-4.884 18.931 0 0-7.247 1.456-11.13-1.772-3.88-3.233-5.92 0-5.92 0s-6.684 7.82-.049 10.411c6.633 2.59 16.962 3.114 16.962 3.114H35.2c.95 6.887 3.29 13.508 11.794 19.039 14.259 9.277 35.42-.521 35.42-.521 12.681-5.3 21.106-13.506 24.696-17.503a3.291 3.291 0 0 0-.085-4.49l-4.13-4.291a3.293 3.293 0 0 0-4.467-.264c-5.517 4.518-20.018 15.21-33.81 15.21zm-11.97-19.572c.487-19.248 13.102-27.66 17.471-23.45 4.369 4.202 2.748 13.259-5.5 18.92-8.247 5.664-11.971 4.53-11.971 4.53z" fill="#FFFFFF"/>
</svg>
