<svg width="902" height="298" viewBox="0 0 902 298" xmlns="http://www.w3.org/2000/svg">
  <g transform="translate(48 47)" fill="none" fill-rule="evenodd">
    <g transform="translate(.466 .534)">
      <ellipse fill="#E04E39" transform="rotate(-90 100.435 100.901)" cx="100.435" cy="100.901" rx="100.435" ry="99.901"/>
      <path d="M94.712 135.457a8.823 8.823 0 0 1 12.526 0c3.46 3.478 3.46 9.115 0 12.597L86.115 169.29a8.834 8.834 0 0 1-12.534 0c-3.455-3.478-3.455-9.115 0-12.593zm20.204 20.69a8.831 8.831 0 0 1 12.539 0c3.46 3.482 3.46 9.124 0 12.606a8.84 8.84 0 0 1-12.54 0l-.199-.207c-3.258-3.495-3.191-8.985.2-12.399zm-61.918-20.16a8.84 8.84 0 0 1 12.54 0c3.458 3.483 3.458 9.125 0 12.607a8.831 8.831 0 0 1-12.54 0l-.2-.208c-3.258-3.495-3.191-8.984.2-12.398zm61.758-20.692a8.831 8.831 0 0 1 12.526 0l20.41 20.519c3.459 3.478 3.459 9.115 0 12.593a8.828 8.828 0 0 1-12.53 0l-20.406-20.515c-3.46-3.477-3.46-9.115 0-12.597zm.839-42.226a8.823 8.823 0 0 1 12.526 0c3.459 3.477 3.459 9.115 0 12.592l-42.844 43.073a8.823 8.823 0 0 1-12.525 0c-3.46-3.478-3.46-9.115 0-12.593zm39.793 42.39a8.84 8.84 0 0 1 12.54 0c3.459 3.481 3.459 9.123 0 12.605a8.831 8.831 0 0 1-12.54 0l-.2-.207c-3.258-3.495-3.191-8.985.2-12.399zM53.54 94.063a8.823 8.823 0 0 1 12.526 0c3.459 3.477 3.459 9.115 0 12.597l-21.123 21.235a8.828 8.828 0 0 1-12.53 0c-3.46-3.477-3.46-9.115 0-12.592zm102.394-20.158a8.823 8.823 0 0 1 12.526 0c3.459 3.478 3.459 9.115 0 12.597l-20.76 20.87a8.823 8.823 0 0 1-12.525 0c-3.464-3.477-3.464-9.119 0-12.597zM53.184 53.393a8.831 8.831 0 0 1 12.526 0l20.405 20.514c3.455 3.478 3.455 9.115 0 12.593a8.834 8.834 0 0 1-12.534 0L53.184 65.99c-3.459-3.478-3.459-9.115 0-12.597zM32.946 73.739a8.831 8.831 0 0 1 12.54 0c3.458 3.482 3.458 9.124 0 12.606a8.84 8.84 0 0 1-12.54 0l-.2-.207c-3.258-3.496-3.191-8.985.2-12.399zm81.814-41.226a8.828 8.828 0 0 1 12.53 0c3.455 3.477 3.455 9.115 0 12.597l-20.76 20.87a8.828 8.828 0 0 1-12.53 0c-3.463-3.477-3.463-9.115 0-12.597zm20.576 20.694a8.84 8.84 0 0 1 12.54 0c3.458 3.482 3.458 9.129 0 12.606a8.831 8.831 0 0 1-12.54 0l-.2-.207c-3.258-3.49-3.191-8.985.2-12.399zM73.42 33.05a8.84 8.84 0 0 1 12.539 0c3.459 3.482 3.459 9.124 0 12.606a8.831 8.831 0 0 1-12.54 0l-.199-.207c-3.258-3.495-3.192-8.985.2-12.399z" fill="#FFFFFF"/>
    </g>
    <path d="M278.887 137.202c5.494.084 10.55-.994 15.17-3.232 4.62-2.239 8.345-5.388 11.176-9.446l-7.492-7.909c-5.37 5.775-11.238 8.557-17.605 8.348-4.454-.084-7.95-1.778-10.489-5.084-2.539-3.306-3.62-7.657-3.246-13.055h42.515l.874-6.527c1.04-9.875-.551-17.888-4.776-24.04-4.224-6.15-10.561-9.31-19.01-9.477-5.702-.125-10.988 1.235-15.857 4.08-4.87 2.845-8.938 7.02-12.205 12.522-3.268 5.502-5.276 11.705-6.025 18.61l-.187 2.573c-.5 6.067.28 11.57 2.34 16.507 2.061 4.937 5.245 8.828 9.553 11.674 4.307 2.845 9.396 4.33 15.264 4.456zm16.731-41.487l-28.03-.063c3.911-11.381 9.78-16.946 17.604-16.695 2.955.125 5.37 1.046 7.242 2.761 1.873 1.716 3.039 4.06 3.496 7.03.25 1.841.23 3.724-.062 5.649l-.25 1.318zm31.883 40.232l8.553-49.27c3.704-5.063 8.324-7.553 13.86-7.47 5.493.126 8.573 2.72 9.239 7.784.166 1.548.146 3.221-.062 5.02l-7.367 43.936h14.858l7.742-45.253.187-1.381c3.538-6.904 8.366-10.273 14.484-10.105 5.494.125 8.574 2.636 9.24 7.531.166 1.549.145 3.243-.063 5.084l-7.367 44.124h14.796l7.305-43.998c.79-7.867-.406-13.986-3.59-18.359-3.184-4.372-8.064-6.642-14.64-6.81-8.074-.167-15.233 3.306-21.476 10.42-.999-3.097-2.903-5.587-5.713-7.47-2.809-1.883-6.336-2.866-10.581-2.95-7.742-.167-14.401 2.637-19.978 8.41l1.31-7.217-13.859.063-11.674 67.91H327.5zm123.967 1.318c5.286.125 10.041-1.151 14.265-3.829 4.225-2.678 7.763-6.81 10.614-12.396 2.85-5.586 4.692-11.83 5.525-18.735.333-3.64.478-6.716.437-9.226-.208-8.076-2.154-14.436-5.838-19.08-3.683-4.645-8.792-7.051-15.326-7.219-6.91-.167-12.882 2.448-17.918 7.846l6.743-35.085h-14.86l-16.606 96.406h13.547l2.373-7.407c3.829 5.65 9.51 8.557 17.043 8.725zm-2.934-12.428c-6.035-.209-9.968-3.159-11.8-8.85l4.87-28.118c4.12-5.941 9.157-8.829 15.108-8.661 3.538.083 6.243 1.412 8.116 3.985 1.873 2.574 2.81 6.14 2.81 10.702-.042 2.008-.23 4.79-.562 8.347-.916 7.24-2.987 12.846-6.212 16.821-3.226 3.975-7.336 5.9-12.33 5.774zm52.422 11.11l8.116-46.509c3.829-5.565 8.99-8.264 15.483-8.096 1.956 0 3.891.209 5.806.627l1.685-14.373c-2.414-.627-4.307-.941-5.68-.941-6.036-.126-11.363 2.887-15.983 9.038l1.498-7.72-14.047.063-11.674 67.91h14.796zm53.983 1.255c6.118.167 11.685-1.224 16.7-4.174 5.015-2.95 9.136-7.186 12.361-12.71 3.226-5.523 5.171-11.883 5.837-19.08.583-6.402-.093-12.218-2.029-17.448-1.935-5.23-5.004-9.352-9.208-12.365-4.204-3.013-9.198-4.56-14.983-4.645-6.077-.167-11.612 1.235-16.607 4.206-4.994 2.97-9.083 7.176-12.267 12.615-3.184 5.44-5.13 11.486-5.838 18.14l-.187 1.317c-.541 6.277.167 12.02 2.123 17.229 1.956 5.21 5.025 9.31 9.208 12.302 4.183 2.992 9.146 4.53 14.89 4.613zm.749-12.114c-3.746-.125-6.67-1.516-8.772-4.173-2.101-2.657-3.256-6.183-3.464-10.576-.167-2.218-.084-5.084.25-8.599.582-5.063 1.976-9.54 4.182-13.431 3.663-6.402 8.657-9.52 14.983-9.352 4.038.167 7.118 1.778 9.24 4.833 2.123 3.054 3.184 7.26 3.184 12.615l-.374 6.151c-.874 7.03-3.028 12.574-6.462 16.633-3.434 4.058-7.69 6.025-12.767 5.9zm61.35-66.592c2.414-.084 4.4-.9 5.962-2.448 1.56-1.548 2.34-3.515 2.34-5.9 0-2.26-.8-4.174-2.403-5.743-1.602-1.57-3.61-2.312-6.024-2.228-2.54.084-4.558.941-6.056 2.573-1.498 1.632-2.248 3.599-2.248 5.9 0 2.26.812 4.153 2.435 5.68 1.623 1.527 3.621 2.25 5.994 2.166zm-7.492 77.45l11.737-67.91h-14.796l-11.737 67.91h14.796zm37.813 1.319c7.076.167 13.236-2.615 18.48-8.348l-1 7.03h13.236l16.669-96.406h-14.858l-6.493 34.897c-3.87-4.98-9.24-7.553-16.107-7.72-5.244-.126-10.01 1.182-14.297 3.922-4.287 2.741-7.887 6.894-10.8 12.46-2.914 5.564-4.787 11.84-5.619 18.828l-.187 1.318a51.1 51.1 0 0 0-.188 7.595c.292 7.95 2.32 14.32 6.087 19.112 3.767 4.79 8.793 7.228 15.077 7.312zm5.376-12.427h-.943c-3.746-.084-6.566-1.653-8.46-4.708-1.893-3.054-2.694-7.176-2.403-12.364.333-8.83 2.227-15.838 5.681-21.027 3.455-5.188 8.012-7.699 13.672-7.531 5.62.167 9.407 2.866 11.363 8.096l-5.057 29.186c-4.162 5.732-9.094 8.515-14.796 8.347l.943.001zm69.022 12.364c5.494.084 10.55-.994 15.17-3.232 4.62-2.239 8.345-5.388 11.176-9.446l-7.492-7.909c-5.37 5.775-11.238 8.557-17.606 8.348-4.453-.084-7.949-1.778-10.488-5.084-2.539-3.306-3.62-7.657-3.246-13.055h42.515l.874-6.527c1.04-9.875-.552-17.888-4.776-24.04-4.224-6.15-10.561-9.31-19.01-9.477-5.702-.125-10.988 1.235-15.857 4.08-4.87 2.845-8.938 7.02-12.206 12.522-3.267 5.502-5.275 11.705-6.024 18.61l-.187 2.573c-.5 6.067.28 11.57 2.34 16.507 2.061 4.937 5.245 8.828 9.553 11.674 4.307 2.845 9.395 4.33 15.264 4.456zm16.731-41.487l-28.031-.063c3.912-11.381 9.78-16.946 17.605-16.695 2.955.125 5.37 1.046 7.242 2.761 1.873 1.716 3.039 4.06 3.496 7.03.25 1.841.23 3.724-.062 5.649l-.25 1.318zm31.883 40.232l8.116-46.509c3.829-5.565 8.99-8.264 15.482-8.096 1.957 0 3.892.209 5.806.627l1.686-14.373c-2.414-.627-4.308-.941-5.681-.941-6.035-.126-11.362 2.887-15.982 9.038l1.498-7.72-14.047.063-11.674 67.91h14.796z" fill="#FFFFFF" fill-rule="nonzero"/>
  </g>
</svg>
