<svg width="560" height="177" xmlns="http://www.w3.org/2000/svg">
  <g fill="none" fill-rule="evenodd">
    <path d="M505.6 43c2 0 2.8.2 3.5.5l.2.1h.1c.9.5 1.5 1.1 2 2v.2c.4.7.6 1.5.6 3.3v83.5c0 2-.2 2.8-.5 3.5l-.1.2v.1c-.5.9-1.1 1.5-2 2h-.2c-.7.4-1.4.6-3 .6H292.8c-1.5 0-2.3-.2-3-.5l-.1-.1h-.1c-.9-.5-1.5-1.1-2-2v-.2c-.4-.7-.6-1.4-.6-3v-24a43.7 43.7 0 004.8-2.6l.5-.4.2-.1.5-.3.6-.4.2-.1.2-.2a9 9 0 002.1-2.1c1.6-2.1 2.4-5 2-8.2-.4-3.9-2.7-6.6-6.1-7.3a8.7 8.7 0 00-5 .4V48.9c0-1.5.2-2.3.5-3l.1-.1v-.1c.5-.9 1.1-1.5 2-2h.2c.7-.4 1.5-.6 3.3-.6h212.5zm-174 25.8h-8.2l-1.8 9.8h-6l-1.2 6.8h6l-3.7 19.8-.3 2.4c0 5.5 3.8 8.2 9.4 8.2 2.6 0 4.9-.5 6.4-1.3l1.4-7.5c-1.4.9-3.4 1.5-5 1.5-2.3 0-3.7-.9-3.7-3l.2-1.7 3.4-18.4h8l1.3-6.8h-8l1.8-9.8zm106.6 9c-12.2 0-19.7 11-19.7 21.8 0 9.7 5.8 16.2 15.7 16.2 8.6 0 14.7-4.9 16.8-12.1h-8.2c-1.4 3.5-4.5 5.2-8.1 5.2-5.5 0-8.2-3.6-8.2-9.3v-1h25c.5-2 .8-4.5.8-6.1 0-9-5-14.7-14.1-14.7zm35.2 0c-8 0-14.2 5.2-14.2 12 0 5.6 3.3 8.1 8 9.5l6.6 1.8c2.6.7 3.5 1.7 3.5 3.6 0 3-2.8 4.4-6.7 4.4-3.3 0-6.4-1.2-7-4.8h-8c.5 6.6 5.7 11.5 14.9 11.5 8.1 0 14.8-4.6 14.8-12.4 0-4.6-2.7-7.7-8.5-9.4l-6.6-2c-2.2-.6-3-1.6-3-3.2 0-2.7 2.6-4.3 6.2-4.3 3.9 0 5.8 1.9 6.3 4.3h7.8c-.6-6.4-5-11-14-11zm-118.4.8h-8.2l-6.4 36.4h8.2l6.4-36.4zm47-.8c-4.4 0-8.3 2.1-10.8 4.9a10 10 0 00-8.8-5c-4.5 0-7.5 2.1-9.7 4.5l.7-3.6h-8.2l-6.4 36.4h8.2l4.2-23.9c1.5-3.4 4.4-5.9 7.6-5.9 3.4 0 4.8 2 4.8 5.1 0 .8-.1 1.6-.4 2.9l-3.7 21.8h8.2l4.2-23.9c1.5-3.4 4.4-5.9 7.6-5.9 3.3 0 4.7 2 4.7 5.1 0 .8 0 1.6-.3 2.9l-3.8 21.8h8.2l4.1-23.7.3-2.9c0-5.8-3.4-10.6-10.7-10.6zm35.9 6.9c4.1 0 6.5 3 6.5 7v1h-16.7c1.6-4.5 5-8 10.2-8zm-85-22.1a5 5 0 00-5.2 5 5 5 0 0010.2 0 5 5 0 00-5-5z" fill="#000"/>
    <path d="M288.8 92.6s-6.3 4.9-11.8 4.3c-5.5-.5-3.8-12.9-3.8-12.9s1.2-11.3-2-12.2c-3.3-1-7.3 3-7.3 3s-5 5.4-7.4 12.5l-.6.2s.7-12.3-.1-15.2c-.7-1.4-6.6-1.3-7.6 1.2s-5.8 19.9-6 27.1c0 0-9.4 8-17.5 9.2-8.2 1.3-10.1-3.8-10.1-3.8s22.1-6.1 21.3-23.8c-.7-17.7-17.8-11.1-19.7-9.7-1.9 1.4-11.9 7.4-14.8 24.1l-.2 3s-8.6 5.8-13.4 7.3c0 0 13.4-22.4-2.9-32.6-4.6-2.8-8.5-.2-11 2-1.4 1.5 19.8-21.6 14.9-42.3-2.3-9.9-7.2-11-11.8-9.3-6.8 2.7-9.4 6.7-9.4 6.7s-9 12.9-11 32c-2 19.2-5 42.4-5 42.4s-4.3 4.1-8.2 4.4c-3.9.2-2.2-11.6-2.2-11.6s3-18 2.9-21c-.3-3.1-.5-4.7-4-5.8-3.6-1-7.5 3.5-7.5 3.5s-10.3 15.6-11.2 18l-.5 1-.6-.7s7.3-21.3.3-21.6c-6.9-.3-11.4 7.6-11.4 7.6s-8 13.2-8.3 14.7l-.5-.6s3.2-15.4 2.6-19.2c-.7-3.8-4.2-3-4.2-3s-4.6-.6-5.8 2.4c-1.2 2.9-5.5 22.3-6 28.5 0 0-11.4 8-19 8.2-7.4 0-6.6-4.8-6.6-4.8s27.4-9.3 20-27.9c-3.4-4.7-7.3-6.2-12.9-6.1-5.5 0-12.4 3.5-16.8 13.4A44.2 44.2 0 0048.4 98s-4.8 1-7.4-1.2c-2.6-2.1-4 0-4 0s-4.4 5.7 0 7.4a57 57 0 0011.4 2.6c.6 3 2.5 8.2 7.9 12.3 8.1 6.2 23.7-.6 23.7-.6l6.4-3.6s.2 5.9 4.9 6.8c4.6.8 6.6 0 14.7-19.8 4.8-10 5.1-9.5 5.1-9.5.5-.1-3.1 19.2-1.7 24.4 1.4 5.2 7.6 4.6 7.6 4.6s3.3.7 6-8.9c2.7-9.5 8-20 8-20 .6 0-1.7 19.7 1.8 26 3.4 6.3 12.4 2.1 12.4 2.1s6.3-3.2 7.3-4.1c0 0 7.5 6.3 18 5.2 23.5-4.7 31.9-11 31.9-11s4 10.3 16.5 11.3c14.3 1 22.1-8 22.1-8s0 5.9 5 8c4.9 2 8.2-9.6 8.2-9.6l8.4-23c.8 0 1.2 15 9.4 17.4 8.3 2.4 19-5.6 19-5.6s2.6-1.4 2.2-5.8c-.5-4.3-4.4-2.7-4.4-2.7zm-217-10.8c2.9 2.8 1.8 8.8-3.7 12.6-5.5 3.8-8 3-8 3 .3-12.8 8.8-18.5 11.7-15.6zm107.8-44.6C181.4 47 163.4 76 163.4 76c.3-6.5 6.7-28.5 6.7-28.5s7.6-20 9.5-10.3zm-17.8 74s-1.4-4.7 2.6-18c4-13.4 13.5-8.2 13.5-8.2s6.5 5 1.4 18.3c-5.1 13.4-17.5 8-17.5 8zm54.8-26c4.5-8.2 8-3.8 8-3.8s3.8 4.2-.6 10.3c-4.3 6.2-10.6 5.8-10.6 5.8s-1.2-4.3 3.2-12.4z" fill="#000" fill-rule="nonzero"/>
    <path d="M261 118v-1.5H262.8l.3.3.1.4c0 .4-.1.6-.3.7l-.9.1h-1zm-1.2-2.5v6h1.2v-2.6h.7l1.5 2.6h1.2l-1.6-2.6c.2 0 .4 0 .6-.2l.5-.2.4-.5v-.7c0-.6-.1-1.1-.5-1.4-.4-.2-1-.4-1.7-.4h-2.3zm-1.9 3c0-.6.1-1.1.4-1.7a4 4 0 012-2.1 4 4 0 011.6-.3 3.9 3.9 0 012.8 1.1 4.2 4.2 0 011.2 3 4.4 4.4 0 01-1.2 3 3.8 3.8 0 01-2.8 1.2 4 4 0 01-2.8-1.2 4.1 4.1 0 01-1.2-3zm-1.4 0a5.2 5.2 0 001.6 3.9c.5.4 1.1.8 1.8 1a5.8 5.8 0 005.8-1 5.2 5.2 0 001.2-6 5.1 5.1 0 00-3-2.8 5.7 5.7 0 00-4 0 5.3 5.3 0 00-3 2.7c-.3.7-.4 1.4-.4 2.2zM100.4 57l2.6-15h6l.6-3.4H93.8l-.5 3.3h5.9L96.5 57h3.9zm12.8 0l1.5-8.5a3.1 3.1 0 012.7-1.9c1.3 0 1.9.7 1.9 1.8l-.1.6-1.4 8h3.8l1.5-8.7v-1c0-2.4-1.4-4-4-4-1.7 0-3 .7-3.8 1.6l1.3-7.4h-3.7L109.5 57h3.7zm18.4.3c3.3 0 5.6-1.8 6.4-4.7h-3.6a2.7 2.7 0 01-2.6 1.7c-1.7 0-2.6-1.1-2.6-3v-.2h9l.2-2.3c0-3.4-2-5.5-5.4-5.5-4.6 0-7.4 4-7.4 8 0 3.6 2.3 6 6 6zm3.3-8.5h-5.3c.6-1.4 1.6-2.5 3.2-2.5 1.3 0 2.1 1 2.1 2.2v.3z" fill="#000" fill-rule="nonzero"/>
  </g>
</svg>
