<svg width="319" height="209" viewBox="0 0 319 209" xmlns="http://www.w3.org/2000/svg">
  <g transform="translate(-20.485 -12.545)" fill="none" fill-rule="evenodd">
    <g transform="rotate(-13 176.573 17.815)">
      <path d="M98.564 70.823c1.498 3.923 7.526 9.511 8.037 9.951.31-.13 8.06-3.27 7.585-11.152-4.506.987-9.69-1.058-11.27-2.532" fill="#EE9A37"/>
      <path d="M99.682 63.916c1.034-.856 1.926-2.913 2.663-2.319 2.223 1.807.713 8.548-2.164 11.045-.25.214-.511.428-.773.618a353.724 353.724 0 0 1-1.7-9.713c.761.487 1.462.797 1.974.369z" fill="#EE9A37" fill-rule="nonzero"/>
      <g transform="rotate(15 7.42 75.325)" opacity=".9" fill-rule="nonzero">
        <path d="M73.534 5.021S56.622 9.267 36.4 23.43 2.672 40.147 2.672 40.147l14.5 12.046 1.087 19.4s12.77-1.967 33.728-16.719c20.96-14.752 37.13-18.41 37.13-18.41L73.534 5.021z" fill="#FBCA4F"/>
        <path d="M30.03 40.442l.63 13.156-3.055 1.664-6.207-10.11 2.78-1.514 3.77 7.023-.893-8.599 2.974-1.62zm2.89-1.952l4.063 11.407-2.638 1.617-4.036-11.421 2.611-1.603zm9.314-1.11c.526 1.282.71 2.914-.339 3.841l3.625 3.072-2.842 1.907-3.307-3.597 1.846 4.576-2.565 1.725-4.5-11.245 2.997-2.013c3.256-2.187 4.507.34 5.085 1.735zm5.523-8.378l.985 2.76-1.85 1.126 3.04 8.658-2.613 1.587-3.04-8.658-1.829 1.116-.971-2.767 6.278-3.822zm-9.397 9.244l-.585.392 1.004 2.492.37-.248c.66-.445.84-1.01.45-1.95-.403-1.002-.748-1.017-1.24-.686zm18.223-13.91l1.978 6.873c.982 3.42.584 5.393-2.159 6.852-2.778 1.473-4.479.372-5.469-3.063l-1.915-6.635 2.744-1.46 1.877 6.76c.448 1.627.93 2.02 1.626 1.671.742-.376.954-1.022.569-2.509l-1.997-7.015 2.746-1.474zm7.162-3.142l5.357 10.581-2.822 1.245-.826-1.754-2.316 1.046-.018 2.137-2.99 1.337.42-13.163 3.195-1.43zm6.985-2.679l1.316 9.18 2.674-.985.388 2.815-5.504 2.03-1.758-11.977 2.884-1.063zm-7.976 6.583l.208 4.386 1.576-.627-1.784-3.759z" fill="#110A22"/>
        <path d="M72.017.336a1.983 1.983 0 0 1 2.625.84l.03.06 25.908 52.421a1.983 1.983 0 0 1-3.525 1.816l-.03-.059L71.118 2.992a1.983 1.983 0 0 1 .899-2.656z" fill="#B48984"/>
      </g>
      <path d="M95.925 73.38a1.653 1.653 0 0 0 2.841 0c.678-.869-.404-2.379-.452-2.77-.118-1.011 1.059-1.19.868-2.7-.13-1.105-1.724-1.355-1.783-1.605a14.8 14.8 0 0 0 .487-2.556c-.13-.76-.642-1.462-1.32-1.248-2.639.784-5.302 5.243-.641 10.878z" fill="#EE9A37" fill-rule="nonzero"/>
      <path d="M115.827 69.432a48.745 48.745 0 0 0-7.217 0c.951 5.683-1.26 7.573-3.685 9.713l3.388 4.899 5.41-9.654 2.104-4.958z" fill="#46858F"/>
      <path fill="#EE9A37" d="M152.659 69.432h-30.436v17.097h30.436z"/>
      <path d="M172.657 83.152c0 3.662-5.553 5.16-5.553 5.16s-.618-5.6-3.959-7.894c-3.34-2.295-4.755-11.711-4.755-11.711 9.428 2.663 13.708 7.728 14.267 14.445" fill="#46858F"/>
      <path d="M171.325 77.957a14.92 14.92 0 0 1 1.332 5.195c0 3.662-5.553 6.55-5.553 6.55s.654-4.505-1.628-7.133l5.85-4.612z" fill="#EE9A37"/>
      <path d="M120.476 66.721l15.8 17.418L156.702 66.4c6.634 4.09 14.694 30.912 13.743 43.645a340.11 340.11 0 0 1-35.322 1.998 196.261 196.261 0 0 1-32.707-2.687c-1.878-12.698 4.958-37.843 18.06-42.635z" fill="#46858F"/>
      <path d="M136.276 85.744a1.62 1.62 0 0 0 1.058-.392l20.414-17.739a1.605 1.605 0 1 0-2.105-2.378l-19.236 16.669-15.1-16.265a1.611 1.611 0 1 0-2.377 2.176l16.17 17.418a1.64 1.64 0 0 0 1.176.51z" fill="#1D2946" fill-rule="nonzero"/>
      <path d="M153.29 21.46c7.751.832 12.851-7.633 18.356-4.09-3.495 1.308-4.946 6.955-10.57 12.495-1.307 1.296-9.903-8.643-7.787-8.405" fill="#EE9A37"/>
      <path d="M158.996 27.547c5.231.915 10.094-12.602 12.65-10.225 7.395 6.837-3.876 20.652-11.437 18.726-4.22-1.07-2.26-8.739-1.19-8.549" fill="#E54D3A"/>
      <path d="M107.267 18.119c3.9-2.77 9.963-.69 14.766 1.819 2.735 1.427 6.563 1.07 6.753 1.688.428 1.486-3.662 3.828-6.717 3.353-3.056-.476-7.395-6.872-14.802-6.86" fill="#EE9A37"/>
      <path d="M122.64 24.23c-3.032.868-11.818-11.176-17.026-4.85-3.424 4.148 3.947 14.456 9.975 16.251 6.028 1.796 8.667-11.889 7.062-11.401" fill="#E54D3A"/>
      <path d="M141.745 12.71c24.86.594 22.97 17.833 22.958 22.398 0 7.134 4.91 18.726 4.898 22.007 0 13.078-20.699 17.18-30.376 17.168-17.204-.024-34.336-7.36-34.336-18.916 0-2.615 8.691-15.051 10.2-26.274.762-5.458 7.871-16.835 26.656-16.384" fill="#EE9A37"/>
      <path d="M138.357 48.08c9.773 0 19.7 15.93 29.473 1.188a32.861 32.861 0 0 1 1.795 7.87c0 13.079-20.699 17.18-30.377 17.169-17.227-.048-34.359-7.384-34.359-18.94a9.94 9.94 0 0 1 1.082-3.008c7.478 11.164 20.627-4.351 32.362-4.327" fill="#FDF7F0"/>
      <path d="M136.704 48.662a7.264 7.264 0 0 1 4.138.13c.404.405 1.284 2.093.261 2.783-.345.237-.368-.761-1.189-.595-.963.19-.452 1.439-1.189 1.415-1.189 0 0-1.343-1.058-1.522-.749-.13-.927.595-1.189.535-1.117-.202-.594-2.2.238-2.746" fill="#E54D3A"/>
      <path d="M150.828 54.975a.511.511 0 0 1 .726.119.535.535 0 0 1-.131.737 17.62 17.62 0 0 1-5.826 2.164c-.463 1.45-1.676 5.659-1.95 6.051-.51.714-7.882 1.534-8.714 1.19-.63-.25-3.4-4.328-4.257-6.04a17.168 17.168 0 0 1-6.182-1.19.523.523 0 0 1-.238-.7.523.523 0 0 1 .702-.227c1.9.714 3.914 1.077 5.944 1.07a.464.464 0 0 1 .179 0 70.015 70.015 0 0 0 11.211-.618c3.65-.523 6.908-1.415 8.536-2.556zm-6.408 3.305c-.654.119-1.379.238-2.164.333a61.823 61.823 0 0 1-10.367.666 35.31 35.31 0 0 0 3.412 5.005 40.91 40.91 0 0 0 7.502-.856c.131-.19 1.058-3.305 1.617-5.148z" fill="#1D2946" fill-rule="nonzero"/>
      <path d="M138.25 60.242l1.438 4.173c.084.238-.095.475-.392.535a.594.594 0 0 1-.701-.31l-.738-4.256c0-.1.078-.183.179-.19a.214.214 0 0 1 .226.12l-.012-.072z" fill="#1D2946"/>
      <path d="M159.448 19.926c-5.35-5.516.368-9.404-.297-10.926 2.104 1.83 4.351 5.861 3.566 8.929-.784 3.067-2.912 2.377-3.305 1.997" fill="#46858F"/>
      <path d="M159.793 18.999c1.248-7.621 7.763-5.243 8.584-6.694-.226 2.782-2.129 6.99-5.03 8.192-2.9 1.2-3.65-.94-3.566-1.498" fill="#6EA952"/>
      <path d="M160.946 18.94c7.133-4.46 9.285.867 10.7.915-1.189 3.566-9.713 3.887-10.26 3.364-.547-.523-1.415-3.697-.476-4.28" fill="#2F3E4A"/>
      <path d="M161.338 19.985c4.554-.665 5.457 7.788 6.111 8.323-3.257.404-6.206-3.091-6.693-3.793-1.82-2.687 0-4.434.582-4.518" fill="#FDF7F0"/>
      <path d="M136.99 40.875a1.962 1.962 0 0 1 3.043-.524c1.498 1.974 1.974 4.602 5.124 8.014 3.567 3.864 14.434 3.245 18.357-1.784 2.378-3.103 4.542-8.62 4.958-9.368a3.103 3.103 0 0 0-1.76-3.412c-1.331-.31-11.021-1.677-25.8 3.673a8.87 8.87 0 0 1-4.386.06c-1.07-.19-10.213-6.123-26.156-2.782a2.818 2.818 0 0 0-1.629 3.471c.75.88 2.937 6.516 5.279 9.179 5.374 6.146 16.157 3.852 18.38 1.189a31.233 31.233 0 0 0 4.59-7.716" fill="#1D2946"/>
      <path d="M116.861 46.7c1.641 1.64 8.323 3.341 12.924.702 2.592-1.475 4.173-6.551 2.615-8.12-3.043-3.08-9.844-4.114-16.133-1.927-.75.262-5.552 3.21.594 9.345m43.288 0c-1.605 1.665-8.227 3.472-12.911.916-2.604-1.427-4.28-6.48-2.747-8.073 2.985-3.127 9.761-4.28 16.086-2.211.761.25 5.612 3.115-.428 9.368" fill="#FDF7F0"/>
      <path d="M124.898 42.575c-.13 1.545-.82 2.758-1.569 2.699-.749-.06-1.248-1.368-1.189-2.913.06-1.546.82-2.759 1.57-2.7.748.06 1.248 1.356 1.129 2.914m29.723-.405c.261 1.534-.131 2.878-.868 2.997-.737.118-1.534-1.011-1.796-2.545-.261-1.533.131-2.865.868-2.996.737-.13 1.534 1.01 1.796 2.544" fill="#1D2946"/>
      <path d="M124.554 40.613a.392.392 0 1 0-.785.012.393.393 0 1 0 .785-.06m29.413-.309a.392.392 0 1 0-.785 0 .38.38 0 0 0 .417.369.392.392 0 0 0 .368-.416" fill="#FDF7F0"/>
      <path d="M161.386 27.618c.19 1.403 2.235 3.84 5.944 4.316-2.496-1.534-3.329-7.585-4.256-8.667" fill="#1D2946"/>
      <path d="M163.906 25.276l-.891-.13c-1.19 7.311-18.571 6.324-32.683 9.998a24.408 24.408 0 0 0 7.62-5.433c-6.479 3.067-12.852 6.467-23.183 6.467.927-.19 12.507-1.961 16.074-7.49.119-.404-7.728 5.945-17.418 5.945 2.045-.63 10.45-4.09 10.784-6.301-4.756 3.233-11.354 5.421-11.319 5.136.797-6.634 5.362-12.912 6.789-14.398 9.238-9.476 38.485-12.614 44.227 6.206z" fill="#1D2946"/>
    </g>
    <g transform="translate(65.485 55.545)" fill-rule="nonzero">
      <path fill="#E15D44" d="M165.76 0L0 64.693l6.427 65.537 184.224 35.637 82.484-40.306-15.381-53.973z"/>
      <path d="M199.688 125.354h50.261l-50.26 11.07v-11.07zm-75.82 0v11.337l-51.47-11.337h51.47zm21.736 3.805c-.137.722-.557 1.142-1.261 1.258h-1.553c-.744-.076-1.162-.488-1.26-1.23v-1.17c-.137-1.467-.938-2.29-2.404-2.464-1.543.175-2.383.997-2.52 2.464v9.405c.137 1.525.977 2.356 2.52 2.493 1.466-.137 2.267-.968 2.404-2.493v-1.259c.098-.742.538-1.152 1.32-1.233h1.436c.741.1 1.181.51 1.318 1.233v1.259c-.45 3.909-2.61 6.04-6.478 6.39-3.947-.313-6.077-2.443-6.39-6.39v-9.496c.295-3.947 2.424-6.124 6.39-6.536 3.91.412 6.068 2.589 6.478 6.536v1.233zm15.715-1.29v9.553c-.41 3.908-2.57 6.039-6.478 6.39-3.907-.371-6.046-2.5-6.418-6.39v-9.552c.332-3.93 2.472-6.088 6.418-6.48 3.929.392 6.088 2.55 6.478 6.48zm-3.957.117c-.158-1.525-.996-2.356-2.521-2.493-1.523.157-2.354.988-2.49 2.493v9.464c.136 1.525.967 2.339 2.49 2.437 1.525-.098 2.363-.912 2.521-2.437v-9.464zm19.737 14.536c-.019.686-.37 1.027-1.054 1.027h-1.875c-.803.04-1.359-.302-1.673-1.027a1177.11 1177.11 0 0 1-4.336-10.316v10.112c-.078.76-.488 1.172-1.232 1.231h-1.495c-.703-.06-1.093-.431-1.172-1.114v-19.987c.04-.59.372-.853.997-.793h1.847c.782-.06 1.358.284 1.729 1.024 1.406 3.5 2.843 6.977 4.307 10.437v-10.23c.08-.723.49-1.133 1.233-1.231h1.524c.683.057 1.093.429 1.23 1.114v14.36c-.018 1.759-.03 3.508-.03 5.247v.146zm14.588-20.898c.722.12 1.142.54 1.26 1.262v1.524c-.118.781-.547 1.192-1.29 1.23h-6.975c-.39.038-.607.256-.646.645v3.782c.039.39.255.594.646.617h4.426c.721.097 1.124.497 1.202 1.197v1.585c-.078.764-.49 1.153-1.232 1.173h-4.396c-.39.057-.607.285-.646.674v7.062c-.057.742-.458 1.156-1.202 1.233h-1.494c-.702-.038-1.094-.4-1.171-1.086v-19.664c.017-.684.36-1.097 1.025-1.234h10.493zm41.423-33.397s3.193-1.325 3.553 2.229c.354 3.553-1.776 4.727-1.776 4.727s-8.792 6.53-15.538 4.576c-6.753-1.954-7.107-14.207-7.107-14.207h-.623l-6.838 18.842s-2.747 9.487-6.838 7.802c-4.084-1.692-3.992-6.484-3.992-6.484s-6.4 7.369-18.115 6.484c-10.26-.78-13.57-9.172-13.57-9.172s-6.859 5.127-26.133 8.923c-8.622.944-14.732-4.262-14.732-4.262-.8.8-5.953 3.396-5.953 3.396s-7.369 3.422-10.214-1.73c-2.839-5.154-.977-21.314-.977-21.314h-.525s-4.268 8.614-6.483 16.43c-2.223 7.814-4.977 7.283-4.977 7.283s-5.06.446-6.215-3.822c-1.154-4.262 1.862-20.068 1.862-20.068l-.439.091s-.269-.445-4.176 7.815c-6.661 16.161-8.26 16.876-12.077 16.174-3.822-.701-3.999-5.507-3.999-5.507l-5.238 2.937s-12.778 5.527-19.439.466c-4.438-3.364-5.953-7.592-6.477-10.077 0 0-5.678-.662-9.323-2.085-3.639-1.416.02-6.084.02-6.084s1.095-1.777 3.232 0c2.13 1.777 6.058.97 6.058.97.36-2.793.99-6.497 2.734-10.391C42.433 74 48.052 71.24 52.582 71.149c4.53-.086 7.723 1.14 10.477 5.047C69.189 91.38 46.72 99.07 46.72 99.07s-.623 3.973 5.5 3.882c6.13-.086 15.453-6.747 15.453-6.747.446-5.06 4-20.953 4.976-23.352.977-2.4 4.707-1.954 4.707-1.954s2.924-.623 3.462 2.485c.531 3.114-2.13 15.721-2.13 15.721l.439.531c.268-1.239 6.752-12.076 6.752-12.076s3.73-6.484 9.415-6.215c5.677.262-.269 17.668-.269 17.668l.44.538.452-.806c.708-1.954 9.139-14.738 9.139-14.738s3.2-3.73 6.13-2.84c2.93.886 3.107 2.217 3.29 4.702.171 2.49-2.313 17.229-2.313 17.229s-1.423 9.677 1.776 9.506c3.193-.177 6.661-3.553 6.661-3.553s2.485-19.006 4.17-34.721c1.691-15.722 8.975-26.29 8.975-26.29s2.13-3.285 7.756-5.5c3.704-1.312 7.743-.446 9.644 7.63 2.828 11.997-5.242 25.556-10.395 32.451-.747 1-1.84 2.723-1.668 2.833.174.111 4.517-4.994 8.87-2.247 13.316 8.346 2.393 26.729 2.393 26.729 3.908-1.246 10.923-5.946 10.923-5.946s.144-2.033.222-2.492c2.387-13.656 10.562-18.586 12.096-19.74 1.58-1.187 15.571-6.543 16.187 7.933.623 14.476-17.491 19.537-17.491 19.537s1.6 4.176 8.26 3.107c6.655-1.062 14.293-7.546 14.293-7.546.268-5.953 4.176-20.16 4.976-22.205.8-2.039 5.684-2.13 6.215-.977.708 2.308.085 12.437.085 12.437l.538-.177c1.953-5.776 6.038-10.306 6.038-10.306s3.284-3.193 5.946-2.42c2.669.78 1.692 10.064 1.692 10.064s-1.423 10.123 3.107 10.569c4.53.445 9.677-3.547 9.677-3.547zm-177.866-8.89c-2.393-2.315-9.323 2.307-9.592 12.876 0 0 2.046.623 6.57-2.491 4.53-3.108 5.415-8.078 3.022-10.385zM143.6 42.839c-1.514-7.992-7.815 8.438-7.815 8.438s-5.238 18.022-5.415 23.352c0 0 14.738-23.798 13.23-31.79zm-14.568 60.65s10.13 4.439 14.3-6.484c4.175-10.922-1.155-15.007-1.155-15.007s-7.723-4.261-11.014 6.661c-3.285 10.923-2.13 14.83-2.13 14.83zm44.936-21.399c-3.639 6.655-2.662 10.123-2.662 10.123s5.146.354 8.7-4.707c3.553-5.062.446-8.438.446-8.438s-2.846-3.639-6.484 3.022zm-58.295-33.15v7.377c-.303 3.042-1.975 4.69-5.017 4.949-3.056-.273-4.72-1.922-4.992-4.949v-7.376c.272-3.042 1.936-4.72 4.992-5.038 3.042.317 4.714 1.996 5.017 5.038zm-3.064.137c-.122-1.195-.772-1.853-1.953-1.975-1.195.137-1.846.794-1.951 1.975v7.263c.12 1.18.771 1.824 1.951 1.929 1.181-.105 1.831-.749 1.953-1.929v-7.263zm-9.69 8.988c.56.076.893.379 1 .908v1.18c-.107.576-.447.893-1.022.954h-7.99c-.576-.06-.893-.378-.953-.954v-1.18a.8.8 0 0 1 .136-.454 204.424 204.424 0 0 0 6.582-8.784c0-.332.008-.657.023-.976-.227-1.028-.855-1.58-1.884-1.656-1.196.106-1.84.757-1.929 1.952v.863c-.076.574-.4.892-.976.953h-1.157c-.591-.077-.893-.4-.908-.976v-.954c.241-3.056 1.898-4.736 4.97-5.04 3.04.32 4.705 1.999 4.994 5.04-.016.424-.046.84-.092 1.248a4.954 4.954 0 0 1-.908 1.543 613.155 613.155 0 0 1-4.63 6.333h4.744zm-10.824-9.124v7.376c-.303 3.042-1.975 4.69-5.016 4.949-3.057-.273-4.721-1.922-4.993-4.949v-7.376c.272-3.042 1.936-4.72 4.993-5.038 3.041.317 4.713 1.996 5.016 5.038zm-3.064.136c-.121-1.195-.771-1.853-1.952-1.975-1.195.137-1.847.794-1.952 1.975v7.263c.12 1.18.772 1.824 1.952 1.929 1.18-.105 1.83-.749 1.952-1.929v-7.263zm-9.689 8.988c.56.076.892.379.998.908v1.18c-.106.576-.445.893-1.022.954H71.33c-.576-.06-.893-.378-.954-.954v-1.18a.8.8 0 0 1 .137-.454 204.424 204.424 0 0 0 6.582-8.784c0-.332.008-.657.022-.976-.226-1.028-.855-1.58-1.883-1.656-1.195.106-1.84.757-1.929 1.952v.863c-.077.574-.402.892-.976.953H71.17c-.59-.077-.892-.4-.908-.976v-.954c.243-3.056 1.9-4.736 4.972-5.04 3.041.32 4.705 1.999 4.992 5.04-.015.424-.044.84-.09 1.248a4.954 4.954 0 0 1-.908 1.543 632.587 632.587 0 0 1-4.63 6.333h4.744z" fill="#F0F6F8"/>
    </g>
  </g>
</svg>
