<svg width="322" height="213" viewBox="0 0 322 213" xmlns="http://www.w3.org/2000/svg">
  <g transform="translate(0 .15)" fill="none" fill-rule="evenodd">
    <g transform="translate(.559 .112)" fill-rule="nonzero">
      <path d="M93.87 75.205c2.342 3.485 9.472 7.574 10.07 7.888.272-.196 7.117-5 4.881-12.572-4.168 1.975-9.68 1.148-11.55.068" fill="#EE9A37"/>
      <path d="M93.405 68.223c.815-1.066 1.222-3.271 2.073-2.858 2.573 1.26 2.618 8.168.376 11.249a12.31 12.31 0 0 1-.614.776 353.724 353.724 0 0 1-3.841-9.082c.85.303 1.604.448 2.006-.085z" fill="#EE9A37"/>
      <g opacity=".9" transform="rotate(2 -703.774 106.456)">
        <path d="M71.534 5.021S54.622 9.267 34.4 23.43C14.178 37.593.672 40.147.672 40.147l14.5 12.046 1.087 19.4s12.77-1.967 33.728-16.719c20.96-14.752 37.13-18.41 37.13-18.41L71.534 5.021z" fill="#FBCA4F"/>
        <path d="M28.03 40.442l.63 13.156-3.055 1.664-6.207-10.11 2.78-1.514 3.77 7.023-.893-8.599 2.974-1.62h.001zm2.89-1.952l4.063 11.407-2.638 1.617-4.036-11.421 2.611-1.603zm9.314-1.11c.526 1.282.71 2.914-.339 3.841l3.625 3.072-2.842 1.907-3.307-3.597 1.846 4.576-2.565 1.725-4.5-11.245 2.997-2.013c3.256-2.187 4.507.34 5.085 1.735v-.001zm5.523-8.378l.985 2.76-1.85 1.126 3.04 8.658-2.613 1.587-3.04-8.658-1.829 1.116-.971-2.767 6.278-3.822zm-9.397 9.244l-.585.392 1.004 2.492.37-.248c.66-.445.84-1.01.45-1.95-.403-1.002-.748-1.017-1.24-.686h.001zm18.223-13.91l1.978 6.873c.982 3.42.584 5.393-2.159 6.852-2.778 1.473-4.479.372-5.469-3.063l-1.915-6.635 2.744-1.46 1.877 6.76c.448 1.627.93 2.02 1.626 1.671.742-.376.954-1.022.569-2.509l-1.997-7.015 2.746-1.474zm7.162-3.142l5.357 10.581-2.822 1.245-.826-1.754-2.316 1.046-.018 2.137-2.99 1.337.42-13.163 3.195-1.43v.001zm6.985-2.679l1.316 9.18 2.674-.985.388 2.815-5.504 2.03-1.758-11.977 2.884-1.063zm-7.976 6.583l.208 4.386 1.576-.627-1.784-3.759z" fill="#110A22"/>
        <path d="M70.017.336a1.983 1.983 0 0 1 2.625.84l.03.06L98.58 53.657a1.983 1.983 0 0 1-3.525 1.816l-.03-.059L69.118 2.992a1.983 1.983 0 0 1 .899-2.656z" fill="#B48984"/>
      </g>
      <path d="M91.874 78.29a1.653 1.653 0 0 0 2.768-.64c.465-.998-.93-2.226-1.064-2.596-.342-.959.764-1.398.239-2.826-.376-1.048-1.985-.933-2.099-1.163a14.8 14.8 0 0 0-.1-2.6c-.298-.712-.955-1.28-1.567-.92-2.395 1.358-3.987 6.302 1.822 10.744v.001z" fill="#EE9A37"/>
      <path d="M110.377 69.966c-2.38.367-4.731.91-7.032 1.624 2.205 5.323.476 7.662-1.405 10.293l4.403 4.011 3.1-10.624.934-5.304z" fill="#46858F"/>
      <path fill="#EE9A37" d="M146.265 61.68l-29.656 6.847 3.846 16.66 29.656-6.847z"/>
      <path d="M168.837 70.55c.824 3.569-4.25 6.278-4.25 6.278s-1.862-5.318-5.633-6.802c-3.77-1.484-7.268-10.34-7.268-10.34 9.786.473 15.095 4.446 17.151 10.865" fill="#46858F"/>
      <path d="M166.37 65.788a14.92 14.92 0 0 1 2.467 4.763c.824 3.568-3.937 7.63-3.937 7.63s-.376-4.536-3.191-6.583l4.663-5.81h-.001z" fill="#EE9A37"/>
      <path d="M114.297 66.279l19.314 13.417 15.912-21.879c7.384 2.493 21.27 26.814 23.208 39.435a340.192 340.192 0 0 1-33.967 9.893 196.293 196.293 0 0 1-32.473 4.739c-4.686-11.95-3.682-37.989 8.006-45.605z" fill="#46858F"/>
      <path d="M133.972 81.26a1.62 1.62 0 0 0 .942-.62l15.9-21.876a1.605 1.605 0 1 0-2.585-1.844l-14.994 20.57-18.371-12.452a1.611 1.611 0 0 0-1.827 2.655l19.674 13.334c.371.245.826.329 1.26.232v.001z" fill="#1D2946"/>
      <path d="M136.089 14.796c7.74-.933 10.804-10.328 16.965-8.114-3.11 2.06-3.254 7.89-7.488 14.553-.982 1.556-11.593-6.194-9.478-6.438" fill="#EE9A37"/>
      <path d="M143.018 19.444c5.303-.285 7-14.55 10.025-12.809 8.744 4.999.87 20.995-6.93 20.82-4.353-.094-4.169-8.008-3.084-8.063" fill="#E54D3A"/>
      <path d="M90.494 21.894c3.177-3.576 9.552-2.914 14.797-1.55 2.985.776 6.635-.433 6.96.126.75 1.352-2.708 4.554-5.791 4.778-3.085.224-8.752-5.032-15.966-3.354" fill="#EE9A37"/>
      <path d="M106.847 24.39c-2.759 1.528-14.029-8.23-17.68-.896-2.403 4.812 7.098 13.198 13.375 13.591 6.277.394 5.77-13.534 4.316-12.697" fill="#E54D3A"/>
      <path d="M122.871 8.868c24.357-5.014 26.393 12.209 27.408 16.66 1.605 6.95 8.997 17.14 9.723 20.34 2.942 12.743-16.303 21.396-25.735 23.562-16.769 3.846-35.112.552-37.711-10.708-.589-2.548 5.082-16.62 4.028-27.895-.485-5.49 3.882-18.174 22.287-21.96" fill="#EE9A37"/>
      <path d="M127.527 44.093c9.522-2.198 22.778 11.09 28.985-5.472a32.86 32.86 0 0 1 3.519 7.264c2.942 12.744-16.304 21.396-25.736 23.563-16.797 3.828-35.14.534-37.74-10.726a9.94 9.94 0 0 1 .378-3.174c9.798 9.196 19.12-8.88 30.56-11.496" fill="#FDF7F0"/>
      <path d="M126.047 45.032a7.264 7.264 0 0 1 4.061-.804c.485.304 1.722 1.75.88 2.653-.282.309-.53-.659-1.292-.312-.895.402-.117 1.504-.84 1.646-1.159.267-.302-1.309-1.373-1.245-.76.042-.77.788-1.038.789-1.134.054-1.074-2.01-.386-2.73" fill="#E54D3A"/>
      <path d="M141.23 48.006a.511.511 0 0 1 .733-.047c.214.197.231.53.038.747a17.62 17.62 0 0 1-5.19 3.42c-.124 1.517-.36 5.89-.538 6.334-.337.81-7.335 3.268-8.223 3.12-.67-.102-4.287-3.452-5.507-4.928a17.168 17.168 0 0 1-6.291.231.523.523 0 0 1-.39-.628.523.523 0 0 1 .633-.38c2.012.27 4.056.17 6.033-.294a.464.464 0 0 1 .174-.04 70.015 70.015 0 0 0 10.785-3.124c3.439-1.33 6.413-2.933 7.742-4.41zm-5.501 4.662c-.61.263-1.29.542-2.034.811a61.823 61.823 0 0 1-9.951 2.981 35.31 35.31 0 0 0 4.45 4.11 40.91 40.91 0 0 0 7.117-2.522c.085-.215.288-3.458.418-5.38z" fill="#1D2946"/>
      <path d="M130.158 55.968l2.34 3.742c.136.213.014.484-.261.61a.594.594 0 0 1-.753-.145l-1.677-3.98a.191.191 0 0 1 .132-.226.214.214 0 0 1 .247.066l-.028-.067z" fill="#1D2946"/>
      <path d="M141.744 11.916c-6.454-4.17-1.757-9.245-2.747-10.579 2.461 1.31 5.558 4.732 5.483 7.898-.074 3.165-2.303 2.971-2.771 2.69" fill="#46858F"/>
      <path d="M141.872 10.936c-.499-7.707 6.384-6.855 6.858-8.454.405 2.762-.502 7.29-3.059 9.114-2.555 1.821-3.767-.095-3.811-.658" fill="#6EA952"/>
      <path d="M142.982 10.619c5.947-5.95 9.242-1.244 10.631-1.516-.356 3.742-8.59 5.973-9.24 5.586-.65-.386-2.21-3.284-1.427-4.063" fill="#2F3E4A"/>
      <path d="M143.599 11.549c4.287-1.673 7.069 6.36 7.826 6.735-3.082 1.126-6.742-1.616-7.374-2.19-2.378-2.21-.998-4.32-.45-4.533" fill="#FDF7F0"/>
      <path d="M124.574 37.38a1.962 1.962 0 0 1 2.847-1.195c1.904 1.587 2.959 4.04 6.796 6.656 4.344 2.963 14.794-.085 17.485-5.867 1.619-3.559 2.486-9.421 2.723-10.244a3.103 3.103 0 0 0-2.482-2.928c-1.367-.003-11.116.845-24.313 9.382a8.87 8.87 0 0 1-4.26 1.046c-1.085.055-11.328-3.67-26.111 3.173a2.818 2.818 0 0 0-.807 3.748c.93.689 4.328 5.688 7.209 7.756 6.619 4.78 16.61.12 18.176-2.976a31.233 31.233 0 0 0 2.737-8.55" fill="#1D2946"/>
      <path d="M106.271 47.584c1.968 1.23 8.861 1.383 12.75-2.223 2.195-2.02 2.593-7.322.722-8.5-3.658-2.317-10.517-1.794-16.153 1.751-.672.424-4.687 4.377 2.681 8.972m42.179-9.737c-1.19 1.983-7.235 5.233-12.374 3.796-2.859-.804-5.628-5.35-4.493-7.248 2.205-3.718 8.548-6.366 15.176-5.773.798.073 6.17 1.773 1.69 9.225" fill="#FDF7F0"/>
      <path d="M113.174 41.757c.221 1.535-.178 2.872-.921 2.983-.744.11-1.524-1.052-1.814-2.571-.29-1.52.178-2.873.922-2.984.743-.11 1.521 1.04 1.756 2.585m28.87-7.08c.6 1.435.52 2.833-.172 3.115-.691.28-1.722-.64-2.322-2.076-.6-1.435-.517-2.82.172-3.114.689-.293 1.722.639 2.322 2.074" fill="#1D2946"/>
      <path d="M112.398 39.923a.393.393 0 1 0-.762.188.394.394 0 0 0 .751-.235m28.59-6.918a.392.392 0 1 0-.765.177.38.38 0 0 0 .49.266.392.392 0 0 0 .264-.488" fill="#FDF7F0"/>
      <path d="M145.363 18.975c.5 1.325 3.041 3.24 6.762 2.869-2.777-.934-4.95-6.642-6.096-7.488" fill="#1D2946"/>
      <path d="M147.291 16.127l-.897.073c.485 7.392-16.673 10.34-29.597 17.094A24.408 24.408 0 0 0 123 26.286c-5.623 4.446-11.068 9.193-21.134 11.517.86-.394 11.745-4.725 13.977-10.914.025-.42-6.193 7.53-15.634 9.71 1.85-1.073 9.262-6.335 9.09-8.565-3.907 4.22-9.844 7.836-9.874 7.55-.715-6.643 2.32-13.787 3.377-15.555 6.87-11.312 34.66-20.948 44.49-3.902z" fill="#1D2946"/>
    </g>
    <g transform="translate(47.426 43.85)">
      <path fill="#E15D44" d="M166.272 0L0 64.892l6.448 65.74 184.791 35.746 82.738-40.428-15.426-54.14z"/>
      <path d="M141.924 122.875c3.921.414 6.087 2.597 6.498 6.556v1.237c-.137.724-.559 1.145-1.265 1.262h-1.558c-.746-.076-1.166-.49-1.263-1.234v-1.174c-.139-1.471-.942-2.296-2.412-2.47-1.547.174-2.39.999-2.528 2.47v9.434c.137 1.53.98 2.364 2.528 2.502 1.47-.138 2.273-.972 2.412-2.502v-1.262c.097-.744.539-1.155 1.323-1.237h1.44c.744.1 1.186.512 1.323 1.237v1.262c-.452 3.921-2.617 6.059-6.498 6.41-3.959-.313-6.096-2.45-6.41-6.41v-9.525c.296-3.959 2.432-6.142 6.41-6.556zm15.763.001c3.942.392 6.107 2.558 6.499 6.499v9.582c-.411 3.92-2.578 6.057-6.499 6.409-3.918-.372-6.065-2.507-6.437-6.409v-9.582c.333-3.941 2.48-6.107 6.437-6.499zm36.96.234c.724.12 1.145.542 1.265 1.266v1.529c-.12.783-.55 1.196-1.294 1.234h-6.997c-.392.038-.61.256-.649.647v3.793c.04.392.257.596.649.619h4.44c.722.097 1.127.498 1.205 1.2v1.59c-.078.767-.491 1.157-1.236 1.178h-4.41c-.391.057-.608.285-.648.676v7.083c-.057.745-.459 1.16-1.205 1.237h-1.5c-.703-.038-1.096-.402-1.174-1.09v-19.724c.018-.686.362-1.101 1.029-1.238h10.525zm-26.51.03h1.854c.784-.059 1.362.286 1.734 1.028a615.873 615.873 0 0 0 4.32 10.47v-10.262c.08-.725.491-1.136 1.237-1.235h1.529c.685.057 1.096.43 1.233 1.117v14.405c-.018 1.764-.03 3.518-.03 5.263v.147c-.019.687-.371 1.03-1.057 1.03h-1.88c-.806.04-1.364-.303-1.679-1.03a1186.05 1186.05 0 0 1-4.35-10.349v10.145c-.078.762-.49 1.174-1.235 1.234h-1.5c-.705-.06-1.097-.433-1.175-1.118v-20.049c.039-.59.373-.855 1-.795zm-10.45 3.851c-1.527.158-2.36.991-2.497 2.5v9.494c.137 1.53.97 2.346 2.497 2.445 1.53-.1 2.371-.915 2.53-2.445v-9.493c-.159-1.53-1-2.364-2.53-2.5zm-31.068-.14v11.372l-51.63-11.372h51.63zm126.47 0l-50.416 11.105V126.85h50.416zM143.987 33.482c3.731-1.314 7.798-.439 9.71 7.689 3.177 13.483-7.478 28.92-12.093 34.81l-.146.183.067-.064c1.915-1.858 5.07-3.84 8.696-1.833l.26.15c11.126 6.97 5.445 20.902 3.192 25.438l-.157.311a22.507 22.507 0 0 1-.622 1.153c3.932-1.252 10.991-5.989 10.991-5.989s.144-2.042.225-2.51c1.97-11.288 7.875-16.65 10.775-18.85l.244-.182c.513-.38.911-.651 1.15-.83 1.594-1.198 15.669-6.586 16.294 7.982.544 12.674-13.183 18.177-16.762 19.394l-.23.077c-.392.13-.613.191-.613.191s1.611 4.203 8.312 3.128c6.701-1.07 14.387-7.596 14.387-7.596.111-2.487.855-6.408 1.745-10.29l.2-.862c1.21-5.158 2.616-10.053 3.06-11.191.805-2.055 5.72-2.145 6.258-.985.307.997.366 3.438.334 5.902l-.01.615c-.057 3.073-.237 5.997-.237 5.997l.536-.18c1.969-5.807 6.078-10.364 6.078-10.364.16-.154 3.372-3.199 5.988-2.437 2.68.786 1.7 10.123 1.7 10.123s-.038.274-.082.734l-.027.298c-.221 2.601-.423 9.249 3.235 9.609 4.558.445 9.742-3.571 9.742-3.571s3.216-1.334 3.575 2.245c.359 3.573-1.788 4.796-1.788 4.796-.248.185-8.944 6.588-15.638 4.648-6.793-1.966-7.15-14.226-7.15-14.226h-.628l-6.88 18.89-.021.069-.037.117c-.413 1.314-3.053 9.135-6.823 7.579-3.79-1.566-4.01-5.79-4.022-6.444v-.085s-.091.104-.27.286l-.132.132c-1.573 1.553-7.74 6.861-17.831 6.098-10.32-.781-13.656-9.242-13.656-9.242s-6.898 5.12-26.297 8.94c-8.678.944-14.83-4.356-14.83-4.356-.806.807-5.99 3.283-5.99 3.283l-.044.019c-.62.253-7.502 2.92-10.233-2.027-2.86-5.18-.983-21.99-.983-21.99h-.537s-4.29 9.211-6.525 17.076c-2.13 7.502-4.75 7.845-4.988 7.86h-.017s-.12.011-.33.014h-.171c-1.312-.017-4.815-.394-5.753-3.858-1.162-4.29 1.878-20.202 1.878-20.202l-.449.074-.008-.004c-.02.002-.04.01-.074.042l-.028.027c-.197.202-.73.967-2.142 3.775l-.23.46c-.475.956-1.041 2.123-1.715 3.549-5.9 14.312-7.853 16.549-10.857 16.4l-.206-.015a11.279 11.279 0 0 1-1.093-.156c-3.845-.708-4.022-5.636-4.022-5.636l-5.271 2.773s-12.87 5.204-19.57.112c-4.464-3.392-5.991-7.07-6.518-10.875h-.174c-.99-.003-5.912-.083-9.195-1.365-3.666-1.432.028-5.399.028-5.399s1.126-1.785 3.27 0c2.147 1.785 6.15.98 6.15.98.357-2.817.951-6.535 2.698-10.46 3.665-8.225 9.277-11.003 13.835-11.093 4.556-.089 7.776 1.147 10.546 5.08 6.166 15.284-16.444 23.02-16.444 23.02s-.626 4.001 5.54 3.913c6.167-.087 15.55-6.793 15.55-6.793.194-2.194.967-6.412 1.863-10.695l.194-.918c1.139-5.354 2.42-10.591 2.948-11.89.983-2.414 4.738-1.967 4.738-1.967h.005l.04-.008c.374-.063 2.943-.39 3.44 2.509.238 1.396-.163 4.695-.68 7.921l-.109.666a190.22 190.22 0 0 1-1.348 7.197l-.007.035.445.54c.123-.574 1.556-3.169 3.074-5.814l.339-.588c1.693-2.936 3.38-5.755 3.38-5.755s3.753-6.524 9.474-6.257c4.241.198 2.044 9.885.626 14.878l-.127.44a61.494 61.494 0 0 1-.767 2.47l.446.535.448-.805c.299-.823 1.955-3.55 3.783-6.444l.394-.623.396-.623a602.229 602.229 0 0 1 4.631-7.146s3.218-3.754 6.167-2.861c2.948.894 3.128 2.234 3.308 4.739.074 1.045-.32 4.244-.803 7.614l-.105.724a474.245 474.245 0 0 1-1.376 8.76l-.034.197-.006.04s-1.431 9.741 1.786 9.563c3.218-.175 6.703-3.573 6.703-3.573s1.602-12.24 3.112-25.236l.113-.975.28-2.445.056-.49.11-.975.109-.974.107-.97.107-.966c.07-.642.14-1.28.207-1.912 1.699-15.82 9.027-26.455 9.027-26.455s2.142-3.307 7.806-5.544zm.684 49.78s-7.776-4.286-11.082 6.705c-3.216 10.692-2.205 14.704-2.147 14.916.002.01 10.19 4.48 14.391-6.516 4.2-10.99-1.162-15.104-1.162-15.104zm-87.495-2.677c-2.414-2.325-9.384 2.322-9.653 12.958 0 0 2.057.625 6.614-2.503 4.558-3.128 5.453-8.133 3.04-10.455zm126.016-.27s-2.863-3.665-6.526 3.039c-3.664 6.703-2.682 10.189-2.682 10.189s.056.004.159.005h.12c1.12-.01 5.399-.352 8.481-4.74 3.574-5.096.448-8.493.448-8.493zm-41.734-4.15l-.067.067c-1.149 1.145-1.814 2.205-1.814 2.205s.725-.808 1.854-2.237l.027-.036zm4.644-32.311c-.865-4.587-3.3-1.187-5.234 2.585l-.201.398a70.52 70.52 0 0 0-2.424 5.485l-.007.02-.033.111c-.228.793-1.629 5.67-2.95 10.898l-.183.731c-.122.489-.243.98-.361 1.468l-.176.731c-.928 3.892-1.683 7.594-1.75 9.566 0 0 14.835-23.952 13.319-31.993zm-54.421-.551c3.05.318 4.728 2.003 5.032 5.054v7.399c-.304 3.05-1.981 4.705-5.032 4.964-3.066-.274-4.736-1.928-5.008-4.964v-7.4c.272-3.05 1.942-4.735 5.008-5.053zm-12.408-.001c3.05.32 4.72 2.004 5.009 5.055-.015.425-.046.842-.091 1.252a4.97 4.97 0 0 1-.911 1.548 615.052 615.052 0 0 1-4.644 6.352h4.758c.56.077.896.38 1.002.911v1.184c-.106.577-.448.895-1.025.956h-8.014c-.578-.06-.896-.38-.956-.956V58.42c0-.167.045-.32.136-.455a205.055 205.055 0 0 0 6.603-8.811c0-.334.007-.66.023-.98-.227-1.03-.858-1.585-1.89-1.661-1.2.106-1.845.76-1.935 1.958v.865c-.076.576-.402.896-.98.957h-1.16c-.592-.078-.896-.402-.91-.98v-.956c.242-3.066 1.903-4.75 4.985-5.055zm24.702 0c3.05.32 4.72 2.004 5.009 5.055-.015.425-.046.842-.091 1.252a4.97 4.97 0 0 1-.911 1.548 615.058 615.058 0 0 1-4.644 6.352h4.758c.56.077.896.38 1.002.911v1.184c-.106.577-.448.895-1.025.956h-8.014c-.577-.06-.896-.38-.955-.956V58.42c0-.167.044-.32.135-.455a205.055 205.055 0 0 0 6.603-8.811c0-.334.007-.66.023-.98-.227-1.03-.858-1.585-1.89-1.661-1.2.106-1.845.76-1.935 1.958v.865c-.076.576-.402.896-.98.957H99.9c-.592-.078-.895-.402-.91-.98v-.956c.242-3.066 1.903-4.75 4.985-5.055zm13.205.024c.547.09.865.417.956.978v.934c-.03 2.49-.045 4.978-.045 7.467v6.898c-.061.562-.364.88-.911.957h-1.206c-.547-.06-.858-.356-.934-.888V47.446c-.728.47-1.473.926-2.231 1.366a1.427 1.427 0 0 1-.729.319c-.41-.106-.615-.38-.615-.82v-1.457c-.06-.607.197-1.055.775-1.342.273-.168.546-.343.82-.524.56-.335 1.115-.684 1.662-1.048a6.79 6.79 0 0 1 .636-.364.971.971 0 0 1 .684-.25h1.138zm-25.5 3.186c-1.198.137-1.851.797-1.957 1.982v7.285c.121 1.183.774 1.829 1.958 1.934 1.185-.105 1.837-.75 1.958-1.934v-7.285c-.121-1.2-.773-1.86-1.958-1.982z" fill="#FEFEFE"/>
    </g>
  </g>
</svg>
