<svg xmlns="http://www.w3.org/2000/svg" width="324" height="214" viewBox="0 0 324 214"><g fill="none" fill-rule="evenodd" transform="translate(.659 .34)"><g fill-rule="nonzero"><path fill="#EE9A37" d="M94.4889859,73.554074 C96.001118,77.5140835 102.085986,83.1548004 102.601807,83.5989514 C102.914731,83.467725 110.737844,80.2981023 110.258363,72.3417438 C105.709854,73.3380552 100.476948,71.2737627 98.8820425,69.7858571" transform="rotate(-13 102.384 76.692)"/><path fill="#EE9A37" d="M94.279448,68.0744332 C95.3232028,67.2103577 96.2236179,65.133952 96.9675707,65.7335558 C99.2115424,67.557603 97.6872971,74.3621973 94.7831556,76.8827539 C94.5307971,77.0987728 94.2673348,77.3147916 94.0028631,77.5065841 C93.3853227,74.2465054 92.8132546,70.9779773 92.2868254,67.701952 C93.0550047,68.1935464 93.7626179,68.5064709 94.279448,68.0744332 L94.279448,68.0744332 Z" transform="rotate(-13 95.165 71.567)"/><g transform="rotate(2 -696.366 85.155)"><path fill="#FBCA4F" d="M72.2088491,5.06836792 C72.2088491,5.06836792 55.1373019,9.35442453 34.7245283,23.6510377 C14.3117547,37.9476509 0.678339623,40.5257453 0.678339623,40.5257453 L15.3151321,52.6853868 L16.4123868,72.2684057 C16.4123868,72.2684057 29.3028585,70.2828491 50.4585755,55.3916792 C71.6163113,40.5005094 87.9388585,36.808 87.9388585,36.808 L72.2088491,5.06836792 Z"/><path fill="#110A22" d="M28.294434,40.8235283 L28.9303774,54.1036415 L25.8465566,55.7833396 L19.581,45.5779623 L22.3872264,44.0496792 L26.1927925,51.138934 L25.2913679,42.4588113 L28.2934245,40.8235283 L28.294434,40.8235283 Z M31.2116981,38.8531132 L35.3130283,50.3677264 L32.6501415,51.9999811 L28.576066,40.4712358 L31.2116981,38.8531132 Z M40.613566,37.7326415 C41.1445283,39.0267358 41.3302642,40.6741321 40.2713679,41.6098774 L43.930566,44.7108585 L41.0617547,46.6358491 L37.7235566,43.0049151 L39.5869717,47.6240849 L36.9977736,49.3653585 L32.4553208,38.0142736 L35.4805943,35.982283 C38.7673113,33.7746509 40.0301132,36.3254906 40.613566,37.7336509 L40.613566,37.7326415 Z M46.1886698,29.2756038 L47.1829623,32.0616415 L45.3155094,33.1982642 L48.3841887,41.9379434 L45.7465377,43.5399151 L42.6778585,34.8002358 L40.8316038,35.9267642 L39.8514434,33.1336604 L46.1886698,29.2756038 L46.1886698,29.2756038 Z M36.7030189,38.6068113 L36.1125,39.0025094 L37.1259717,41.5180189 L37.4994623,41.2676792 C38.1656887,40.8184811 38.3473868,40.2481509 37.9537075,39.299283 C37.5469057,38.2878302 37.1986509,38.2726887 36.7020094,38.6068113 L36.7030189,38.6068113 Z M55.097934,24.5655849 L57.0945943,31.5034245 C58.0858585,34.9556887 57.6841038,36.9473019 54.9152264,38.420066 C52.1110189,39.9069623 50.3939717,38.7955755 49.3946321,35.3281698 L47.461566,28.6305755 L50.2314528,27.1568019 L52.1261604,33.9805755 C52.5783868,35.6229245 53.064934,36.0196321 53.7675,35.6673396 C54.5165,35.2877925 54.7305,34.6356981 54.3418679,33.1346698 L52.3260283,26.0534906 L55.097934,24.5655849 L55.097934,24.5655849 Z M62.3275,21.3939434 L67.7350377,32.0747642 L64.8864151,33.3315094 L64.0526226,31.5609623 L61.7147736,32.6168302 L61.6966038,34.7739906 L58.6783962,36.1236038 L59.1023585,22.8364245 L62.3275,21.392934 L62.3275,21.3939434 Z M69.3783962,18.6896698 L70.7068113,27.9562736 L73.4060377,26.9619811 L73.7976981,29.8035377 L68.2417736,31.8526887 L66.4671887,19.7626981 L69.3783962,18.6896698 L69.3783962,18.6896698 Z M61.3271509,25.3347736 L61.5371132,29.7621509 L63.1279811,29.1292358 L61.3271509,25.3347736 L61.3271509,25.3347736 Z"/><path fill="#B48984" d="M70.6775377,0.339169811 C71.644968,-0.138493954 72.8169059,0.236526181 73.3273019,1.18709434 L73.3575849,1.24766038 L99.51,54.1631981 C99.9910025,55.1420987 99.5997787,56.3259031 98.6301911,56.8254126 C97.6606036,57.3249221 96.4695816,56.9562548 95.9517453,55.9963302 L95.9214623,55.9367736 L69.7700566,3.02022642 C69.2804522,2.0292688 69.6867072,0.829031407 70.6775377,0.339169811 Z"/></g><path fill="#EE9A37" d="M90.8130412,78.5726806 C91.1138762,79.0782043 91.6586769,79.3879666 92.2469421,79.3879666 C92.8352074,79.3879666 93.380008,79.0782043 93.680843,78.5726806 C94.3652393,77.6954825 93.2730317,76.1712372 93.2245789,75.7765485 C93.1054657,74.7560108 94.2935695,74.5753221 94.1007676,73.0510768 C93.9695412,71.9356523 92.3605034,71.6832938 92.3009468,71.4309353 C92.5402418,70.5869979 92.7047422,69.7236244 92.7925412,68.8508221 C92.6613147,68.0836523 92.1444846,67.3750296 91.4600883,67.5910485 C88.7961921,68.3824447 86.1080695,72.8835108 90.8130412,78.5716711 L90.8130412,78.5726806 Z" transform="rotate(-13 91.181 73.47)"/><path fill="#46858F" d="M112.433585,71.172946 C110.008559,70.9929321 107.573526,70.9929321 105.1485,71.172946 C106.108472,76.9095592 103.876613,78.8173894 101.428736,80.9775781 L104.848698,85.9227951 L110.309736,76.1777196 L112.433585,71.172946 Z" transform="rotate(-13 106.931 78.48)"/><polygon fill="#EE9A37" points="149.21 64.993 118.487 64.993 118.487 82.252 149.21 82.252" transform="rotate(-13 133.849 73.622)"/><path fill="#46858F" d="M168.790402,72.4522969 C168.790402,76.1488441 163.185015,77.6609761 163.185015,77.6609761 C163.185015,77.6609761 162.561185,72.008146 159.188666,69.6925044 C155.817156,67.3758535 154.388807,57.8710233 154.388807,57.8710233 C163.905751,60.559146 168.226128,65.671929 168.790402,72.4522969" transform="rotate(-13 161.59 67.766)"/><path fill="#EE9A37" d="M168.562202,66.2661294 C169.323453,67.9185713 169.779,69.6952716 169.906768,71.5101388 C169.906768,75.206686 164.301381,78.1219313 164.301381,78.1219313 C164.301381,78.1219313 164.961551,73.5744313 162.658022,70.9216388 L168.563211,66.2661294 L168.562202,66.2661294 Z" transform="rotate(-13 166.282 72.194)"/><path fill="#46858F" d="M135.254285,79.8036871 L155.872984,61.8974503 C162.569568,66.0260093 170.705606,93.1008773 169.745635,105.953919 C157.903597,107.244304 146.002425,107.917494 134.090408,107.970756 C123.028799,107.989938 111.985016,107.082656 101.074851,105.258424 C99.1791345,92.4407116 106.079625,67.0586538 119.305229,62.2214765 L135.254285,79.8036871 Z" transform="rotate(-13 135.294 84.934)"/><path fill="#090513" d="M132.014978,81.2925533 C132.406887,81.2928898 132.785883,81.1524677 133.08296,80.8968546 L153.689544,62.9905061 C154.221669,62.642983 154.501455,62.0164283 154.405034,61.3882307 C154.308613,60.7600332 153.853797,60.246231 153.241941,60.0742951 C152.630086,59.9023592 151.974211,60.104049 151.564686,60.5900722 L132.147214,77.4163264 L116.904761,60.9978835 C116.298207,60.3353007 115.269368,60.2898808 114.606785,60.8964354 C113.944202,61.5029899 113.898782,62.5318289 114.505337,63.1944117 L130.827884,80.776732 C131.137357,81.1022722 131.565826,81.2880878 132.014978,81.2915433 L132.014978,81.2925533 Z" transform="rotate(-13 134.251 70.653)"/><path fill="#EE9A37" d="M136.773914,12.34 C144.598037,13.1798491 149.74615,4.63499056 155.303084,8.21141509 C151.775112,9.53175471 150.310423,15.2320283 144.633367,20.8242924 C143.314037,22.1325189 134.636942,12.0997547 136.772904,12.34" transform="rotate(-13 145.87 14.137)"/><path fill="#E54D3A" d="M143.213207,17.5930796 C148.493556,18.5167117 153.402433,4.87219281 155.982547,7.27161733 C163.447311,14.1731173 152.069981,28.1184475 144.43765,26.1742777 C140.177839,25.0941834 142.15633,17.3528343 143.236424,17.5446268" transform="rotate(-13 150.121 16.673)"/><path fill="#EE9A37" d="M90.9352754,19.0774508 C94.8720679,16.2813188 100.992266,18.3809414 105.840577,20.9136112 C108.601379,22.3540735 112.465492,21.9937056 112.657285,22.6175357 C113.089323,24.1175546 108.960738,26.481649 105.876917,26.0021678 C102.792087,25.5216773 98.4121528,19.0653376 90.9352754,19.0774508" transform="rotate(-13 101.812 21.907)"/><path fill="#E54D3A" d="M107.86379,26.031787 C104.803186,26.9079757 95.934299,14.750353 90.6771669,21.1360323 C87.220865,25.3231643 94.6614028,35.7284096 100.746271,37.5403436 C106.831139,39.353287 109.495035,25.5391832 107.874893,26.031787" transform="rotate(-13 99.07 28.49)"/><path fill="#EE9A37" d="M130.366273,8.67306834 C155.460793,9.27267186 153.552963,26.6742966 153.54085,31.2823606 C153.54085,38.4836595 158.497169,50.185013 158.485078,53.4969644 C158.485078,66.6983362 137.590789,70.8390325 127.8225,70.8269458 C110.456204,70.8026929 93.1625872,63.3974885 93.1625872,51.7324746 C93.1625872,49.0928059 101.935575,36.5394905 103.45881,25.2106179 C104.227999,19.7011297 111.404062,8.21680438 130.366273,8.67205891" transform="rotate(-13 125.824 39.743)"/><path fill="#FDF7F0" d="M130.96067,43.9166382 C140.825868,43.9166382 150.846519,59.9968908 160.711717,45.1158435 C161.639879,47.6793939 162.248447,50.3475962 162.523651,53.0600737 C162.523651,66.2624355 141.629378,70.4021164 131.860076,70.3910349 C114.470557,70.3425599 97.1769341,62.9373664 97.1769341,51.2723696 C97.3748044,50.2079489 97.7436421,49.1825682 98.2691417,48.235998 C105.817689,59.5052974 119.090736,43.8439591 130.936444,43.8681574" transform="rotate(-13 129.85 57.13)"/><path fill="#E54D3A" d="M126.811038,44.4526266 C128.186636,44.0902662 129.637936,44.1358604 130.988076,44.5838531 C131.395887,44.9926738 132.284189,46.6965983 131.251538,47.3931078 C130.903283,47.6323436 130.880066,46.6249285 130.051321,46.7924946 C129.079236,46.984287 129.595057,48.24507 128.851104,48.2208436 C127.650887,48.2208436 128.851104,46.8651738 127.783123,46.6844851 C127.027057,46.5532587 126.847378,47.2850983 126.582906,47.2245323 C125.455368,47.0206266 125.983302,45.0037776 126.823151,44.4526266" transform="rotate(-13 128.836 46.216)"/><path fill="#090513" d="M143.28811,50.7528445 C143.400357,50.6690763 143.541841,50.6345536 143.680055,50.6572085 C143.818269,50.6798634 143.941329,50.7577481 144.020959,50.8729671 C144.186587,51.1156362 144.127831,51.4461917 143.888723,51.61692 C142.073316,52.6877592 140.082026,53.4274007 138.007761,53.8013351 C137.540393,55.2650143 136.31595,59.5137219 136.039365,59.90942 C135.524554,60.6301558 128.083006,61.4578917 127.243157,61.1106464 C126.607214,60.8582879 123.811082,56.7418162 122.945997,55.0136653 C120.80963,55.0013265 118.693959,54.5940718 116.705676,53.8124388 C116.444301,53.6835788 116.336769,53.367308 116.465431,53.1058351 C116.598344,52.8474754 116.915035,52.7450695 117.174054,52.8766936 C119.091978,53.5974294 121.124978,53.9638539 123.174129,53.9567879 C123.233788,53.9450602 123.295159,53.9450602 123.354818,53.9567879 C127.13769,54.0521381 130.92211,53.8435241 134.671582,53.3329577 C138.356016,52.8050237 141.644752,51.9046087 143.28811,50.7528445 L143.28811,50.7528445 Z M136.819657,54.0890237 C136.159488,54.2091464 135.427648,54.329269 134.635242,54.4251653 C131.172014,54.9424556 127.671391,55.1673437 124.17044,55.0974483 C125.171667,56.8770676 126.323969,58.5673579 127.614629,60.1496653 C130.160127,60.0957027 132.695179,59.8064458 135.187403,59.2855898 C135.319639,59.0937973 136.255384,55.9494105 136.819657,54.0890237 L136.819657,54.0890237 Z" transform="rotate(-13 130.263 55.921)"/><path fill="#1D2946" d="M131.134097,55.8102967 L132.585663,60.0226646 C132.670456,60.2629099 132.489767,60.5021457 132.189965,60.5627118 C131.909346,60.6448967 131.610369,60.5126813 131.482352,60.2497872 L130.73739,55.9536363 C130.73739,55.8526929 130.816126,55.7689099 130.918079,55.7618438 C131.012547,55.7473047 131.105339,55.796575 131.146211,55.8829759 L131.134097,55.8102967 L131.134097,55.8102967 Z" transform="rotate(-13 131.672 58.173)"/><path fill="#46858F" d="M141.095374,11.534668 C135.694902,5.96663023 141.466845,2.04195098 140.795572,0.505592493 C142.919421,2.35285664 145.187619,6.42188495 144.395213,9.51882834 C143.603817,12.6147623 141.455741,11.9182529 141.059034,11.534668" transform="rotate(-13 141.661 6.194)"/><path fill="#6EA952" d="M141.780164,9.62498986 C143.039937,1.93209364 149.616399,4.3325276 150.445145,2.86783892 C150.217013,5.6760842 148.29606,9.92378232 145.367692,11.1371219 C142.440333,12.3484427 141.683258,10.188254 141.76805,9.62498986" transform="rotate(-13 146.103 7.184)"/><path fill="#2F3E4A" d="M143.734466,9.01669941 C150.934758,4.51462394 153.10706,9.89187866 154.535409,9.94033149 C153.335192,13.539973 144.730777,13.8640013 144.178617,13.3360673 C143.626456,12.8081334 142.750268,9.60418998 143.698126,9.01568998" transform="rotate(-13 148.907 10.378)"/><path fill="#FDF7F0" d="M145.066654,10.5081461 C149.663616,9.83687249 150.575135,18.3696178 151.235305,18.9096649 C147.947578,19.3174763 144.970758,15.7895046 144.479163,15.0808819 C142.641994,12.3685329 144.479163,10.6050517 145.066654,10.5202593" transform="rotate(-13 147.46 14.706)"/><path fill="#090513" d="M125.276741,36.8325588 C125.565482,36.2970487 126.08433,35.9239619 126.683899,35.8207171 C127.283467,35.7174722 127.897221,35.8955267 128.348448,36.3036154 C129.86058,38.296238 130.341071,40.9490305 133.520788,44.3932192 C137.121439,48.293672 148.090958,47.6688324 152.050967,42.592389 C154.451401,39.4601154 156.635816,33.8910682 157.055741,33.1360116 C157.330073,31.7154174 156.595723,30.2917795 155.279137,29.6918229 C153.93558,29.3788984 144.154165,27.9990022 129.235741,33.3994739 C127.788293,33.7900048 126.265953,33.8108303 124.808363,33.4600399 C123.728269,33.2682475 114.499014,27.2792758 98.4056087,30.6517946 C97.0249572,31.2093428 96.3078802,32.7372584 96.7612408,34.1555399 C97.5183162,35.0438418 99.7259483,40.7330116 102.090043,43.4211343 C107.514741,49.6251154 118.399467,47.3094739 120.643439,44.6213512 C122.554912,42.2617697 124.115465,39.638409 125.276741,36.8325588" transform="rotate(-13 126.87 38.336)"/><path fill="#FDF7F0" d="M105.000663,42.7331184 C106.657144,44.3885901 113.402182,46.1056373 118.046588,43.441741 C120.66304,41.9528259 122.258956,36.8289391 120.686257,35.2451373 C117.61455,32.1360807 110.749389,31.0923259 104.401059,33.299958 C103.643984,33.5644297 98.7966819,36.540241 105.000663,42.7331184 M148.69704,42.7331184 C147.076899,44.4138259 140.392427,46.2378731 135.664239,43.6577599 C133.035672,42.2172976 131.343861,37.1166278 132.891323,35.5085995 C135.904484,32.3520995 142.744408,31.1882222 149.129078,33.276741 C149.897257,33.5290995 154.794022,36.4211278 148.69704,42.7331184" transform="rotate(-13 126.8 38.534)"/><path fill="#090513" d="M113.093799,38.5870204 C112.962573,40.1465959 112.266064,41.3710393 111.509998,41.3114827 C110.753932,41.2509166 110.250224,39.930577 110.309781,38.3710015 C110.370347,36.8104166 111.137516,35.5859732 111.894592,35.6455298 C112.649649,35.7060959 113.154366,37.0143223 113.034243,38.5870204 M143.037649,38.1781997 C143.301111,39.7266714 142.905413,41.0833506 142.16146,41.2034732 C141.417507,41.3225865 140.612988,40.1829355 140.348516,38.6344638 C140.085054,37.0870015 140.480752,35.7424355 141.224705,35.6101997 C141.968658,35.4789732 142.773177,36.629728 143.037649,38.1781997" transform="rotate(-13 126.712 38.457)"/><path fill="#FDF7F0" d="M112.275489,36.5499368 C112.273325,36.4083871 112.19581,36.2787442 112.072143,36.2098433 C111.948475,36.1409424 111.797443,36.1432512 111.67594,36.2158999 C111.554436,36.2885487 111.48092,36.4205003 111.483083,36.56205 C111.499808,36.7808667 111.690753,36.9446946 111.909569,36.9279698 C112.128386,36.9112449 112.292214,36.7203007 112.275489,36.5014839 M141.96597,36.1895688 C141.96597,35.9707521 141.788584,35.793366 141.569767,35.793366 C141.350951,35.793366 141.173565,35.9707521 141.173565,36.1895688 C141.176142,36.2961744 141.22298,36.3968959 141.30284,36.467563 C141.382699,36.5382301 141.488372,36.5724642 141.594499,36.56205 C141.699516,36.5558178 141.79773,36.5080225 141.867434,36.429226 C141.937139,36.3504296 141.972596,36.2471193 141.96597,36.1421254" transform="rotate(-13 126.725 36.361)"/><path fill="#090513" d="M145.883154,17.9761488 C146.074946,19.3923847 148.139239,21.8523753 151.883229,22.3328658 C149.363682,20.7843941 148.522823,14.6763092 147.587078,13.5841017" transform="rotate(-13 148.883 17.958)"/><path fill="#090513" d="M148.247884,21.6037978 L147.34848,21.4725714 C146.147257,28.8525431 128.602333,27.8562318 114.357239,31.5648921 C117.250935,30.2500587 119.862893,28.3877483 122.049105,26.0806374 C115.509,29.1765714 109.075895,32.6086469 98.6474608,32.6086469 C99.5832036,32.4168544 111.272417,30.6291469 114.873059,25.0479865 C114.993181,24.6401752 107.072174,31.0490714 97.2907852,31.0490714 C99.3550721,30.413128 107.839342,26.9204865 108.176492,24.688628 C103.375637,27.952128 96.7154094,30.1607695 96.7505995,29.8730808 C97.5552562,23.1764959 102.16331,16.8392695 103.603768,15.3392506 C112.928894,5.7738544 142.451729,2.60625063 148.247884,21.6037978 Z" transform="rotate(-13 122.5 20.169)"/></g><g transform="translate(46.54 43.646)"><polygon fill="#E15D44" points="167.841 0 0 65.505 6.509 131.864 193.043 167.947 276.562 127.138 260.99 72.487"/><path fill="#FEFEFE" d="M134.321311 129.031755 134.321311 139.810674 91.1833869 129.031755 134.321311 129.031755ZM244.471475 129.031755 202.347851 139.556981 202.347851 129.031755 244.471475 129.031755ZM175.625397 96.8581132C175.625397 96.8581132 174.634301 93.3393386 178.332344 86.5732523 182.030386 79.8058855 184.920442 83.5052086 184.920442 83.5052086 184.920442 83.5052086 188.075559 86.9343493 184.468431 92.0780602 180.858742 97.2166492 175.625397 96.8581132 175.625397 96.8581132M147.208859 101.7278C142.96789 112.828331 132.68431 108.314619 132.68431 108.314619 132.68431 108.314619 131.511385 104.345113 134.849611 93.2484241 138.186557 82.1542962 146.035934 86.4810573 146.035934 86.4810573 146.035934 86.4810573 151.448547 90.6336724 147.208859 101.7278M139.54003 55.2679385C139.54003 55.2679385 145.94758 38.5780883 147.480322 46.7002089 149.010502 54.8172076 134.036503 78.9953381 134.036503 78.9953381 134.217051 73.5827251 139.54003 55.2679385 139.54003 55.2679385M47.971219 96.8581132C48.2426819 86.1225213 55.2789507 81.4308218 57.7157149 83.7779521 60.1524792 86.1225213 59.2484563 91.1740373 54.6476713 94.331715 50.0481667 97.4893927 47.971219 96.8581132 47.971219 96.8581132M242.023701 95.0756772C241.661324 91.4634271 238.415292 92.8092175 238.415292 92.8092175 238.415292 92.8092175 233.181947 96.8632352 228.581162 96.4137847 223.984219 95.9617733 225.426046 85.6730709 225.426046 85.6730709 225.426046 85.6730709 226.415861 76.2474158 223.710195 75.4547952 221.003248 74.666016 217.665022 77.9146082 217.665022 77.9146082 217.665022 77.9146082 213.517529 82.5141127 211.530215 88.3761761L210.98857 88.5580051C210.98857 88.5580051 211.62241 78.2731442 210.901497 75.9260139 210.358571 74.7543695 205.396689 74.845284 204.584861 76.9196708 203.774313 78.9953381 199.802247 93.4302531 199.532064 99.4741455 199.532064 99.4741455 191.773602 106.060964 185.008796 107.141694 178.245271 108.226265 176.619054 103.984016 176.619054 103.984016 176.619054 103.984016 195.020913 98.8415855 194.389634 84.1364881 193.758354 69.4313906 179.551366 74.8696132 177.941795 76.0783917 176.387286 77.2500361 168.079495 82.2567351 165.658096 96.1282364 165.576145 96.6007356 165.43145 98.6623175 165.43145 98.6623175 165.43145 98.6623175 158.305548 103.443651 154.336042 104.70749 154.336042 104.70749 165.43145 86.0290459 151.900558 77.5522307 146.637682 74.3405774 142.821449 79.2810299 142.84017 79.2572491 147.443309 73.4098833 158.377353 57.7005678 155.146589 43.9919817 153.216898 35.78791 149.11166 34.9043749 145.345752 36.230958 139.628384 38.4884543 137.465643 41.8266804 137.465643 41.8266804 137.465643 41.8266804 130.068277 52.5622723 128.353707 68.5312091 126.639137 84.497585 124.112739 103.804748 124.112739 103.804748 124.112739 103.804748 120.595244 107.233889 117.346652 107.410596 114.099341 107.591144 115.543728 97.7570142 115.543728 97.7570142 115.543728 97.7570142 118.068846 82.7830147 117.889578 80.2591774 117.707749 77.7302182 117.52592 76.3780254 114.550072 75.475283 111.574223 74.573821 108.325631 78.3640586 108.325631 78.3640586 108.325631 78.3640586 99.7566206 91.3507443 99.0344267 93.3393386L98.5824152 94.152447 98.1316843 93.612082C98.1316843 93.612082 104.175577 75.9260139 98.4031472 75.6558314 92.6281569 75.3869294 88.8391997 81.9724673 88.8391997 81.9724673 88.8391997 81.9724673 82.2536619 92.9782416 81.982199 94.2433615L81.5327485 93.6991551C81.5327485 93.6991551 84.2371342 80.8891764 83.6967693 77.7302182 83.1564043 74.573821 80.1792751 75.206381 80.1792751 75.206381 80.1792751 75.206381 76.3890375 74.7543695 75.3966611 77.1924142 74.4055652 79.625337 70.7971566 95.7748224 70.3451452 100.915972 70.3451452 100.915972 60.8733926 107.6859 54.6476713 107.772973 48.4232304 107.862607 49.0557903 103.823955 49.0557903 103.823955 49.0557903 103.823955 71.879167 96.0142732 65.6547261 80.5857013 62.8581454 76.6161957 59.6082728 75.3690026 55.0087682 75.4586366 50.4079832 75.5495511 44.7431146 78.3538148 41.0437915 86.6552034 39.2805627 90.6183065 38.6800149 94.3714101 38.3201984 97.2153687 38.3201984 97.2153687 34.2789856 98.0271967 32.1124039 96.2255533 29.9483831 94.42391 28.8113118 96.2255533 28.8113118 96.2255533 28.8113118 96.2255533 25.0825375 100.229632 28.7831411 101.6753 32.4824642 103.119688 38.2433693 103.053103 38.2433693 103.053103L38.2408083 103.053103C38.7722099 106.89456 40.3139146 110.606688 44.8199437 114.030707 51.5834691 119.170576 64.5739962 113.918024 64.5739962 113.918024L69.8956947 111.118882C69.8956947 111.118882 70.0736822 116.093569 73.9548343 116.80808 77.8347059 117.52003 79.4583617 116.842653 86.2257285 100.425546 90.1926731 92.0319627 90.4628556 92.5031815 90.4628556 92.5031815L90.9161475 92.4276328C90.9161475 92.4276328 87.8468233 108.490045 89.0197482 112.820648 90.1926731 117.14997 95.3325426 116.7018 95.3325426 116.7018 95.3325426 116.7018 98.1316843 116.705641 100.385339 108.76663 102.641555 100.827619 106.972157 91.5287319 106.972157 91.5287319L107.513803 91.5287319C107.513803 91.5287319 105.619965 108.499008 108.506179 113.727232 111.393674 118.958015 118.880674 115.75424 118.880674 115.75424 118.880674 115.75424 124.112739 113.254732 124.925847 112.440343 124.925847 112.440343 131.136203 117.790213 139.896005 116.836251 159.478472 112.981989 166.441754 107.812668 166.441754 107.812668 166.441754 107.812668 169.80815 116.353508 180.226182 117.142287 192.13726 118.042468 198.630602 110.564432 198.630602 110.564432 198.630602 110.564432 198.540968 115.439241 202.691023 117.155092 206.842357 118.868381 209.636377 109.317239 209.636377 109.317239L216.581731 90.2482462 217.215572 90.2482462C217.215572 90.2482462 217.576668 102.62414 224.433669 104.608893 231.286829 106.594926 240.219497 99.9171935 240.219497 99.9171935 240.219497 99.9171935 242.386078 98.6828053 242.023701 95.0756772"/><path fill="#FEFEFE" d="M87.8507454 46.2725076C91.3047097 46.6329837 93.2033129 48.5402039 93.5479913 51.9941682L93.5479913 60.3712884C93.2033129 63.8252527 91.3047097 65.6980051 87.8507454 65.9909817 84.3795471 65.6807711 82.4895608 63.8080188 82.1807865 60.3712884L82.1807865 51.9941682C82.4895608 48.5402039 84.3795471 46.6329837 87.8507454 46.2725076ZM74.1606491 46.2715023C77.6146134 46.6334145 79.5045997 48.5406348 79.8320442 51.9945991 79.8148102 52.4757126 79.7803424 52.9482092 79.7286407 53.4120888 79.4873658 54.0655415 79.1441236 54.6486224 78.6974779 55.1642038 76.9625969 57.5697714 75.2090458 59.9681583 73.4396969 62.3564921L78.8267323 62.3564921C79.4615149 62.4426616 79.8406611 62.7859038 79.9612985 63.3876548L79.9612985 64.7275919C79.8406611 65.3810446 79.4543341 65.7415207 78.8008814 65.8104564L69.7272238 65.8104564C69.0737711 65.7415207 68.713295 65.3810446 68.6457955 64.7275919L68.6457955 63.3876548C68.6457955 63.1980817 68.6960611 63.0257425 68.7994646 62.8720734 71.3601375 59.6407139 73.8518747 56.3160039 76.2746763 52.8965074 76.2746763 52.5187974 76.2832933 52.1497043 76.3005272 51.7877921 76.0434546 50.6201942 75.3296832 49.9925923 74.1606491 49.9064227 72.8034781 50.0270602 72.0724728 50.7666825 71.9705054 52.1238535L71.9705054 53.1033145C71.8843358 53.755331 71.5152427 54.1172433 70.86179 54.1861789L69.5477038 54.1861789C68.8770172 54.0985732 68.533775 53.7309163 68.5165411 53.0774636L68.5165411 51.9945991C68.7908476 48.5234008 70.6722169 46.6161806 74.1606491 46.2715023ZM101.486684 46.2715023C104.940649 46.6334145 106.830635 48.5406348 107.158079 51.9945991 107.140845 52.4757126 107.106378 52.9482092 107.054676 53.4120888 106.813401 54.0655415 106.470159 54.6486224 106.023513 55.1642038 104.288632 57.5697714 102.535081 59.9681583 100.765732 62.3564921L106.152768 62.3564921C106.78755 62.4426616 107.166696 62.7859038 107.287334 63.3876548L107.287334 64.7275919C107.166696 65.3810446 106.780369 65.7415207 106.126917 65.8104564L97.0532591 65.8104564C96.3998063 65.7415207 96.0393302 65.3810446 95.9718307 64.7275919L95.9718307 63.3876548C95.9718307 63.1980817 96.0220963 63.0257425 96.1254998 62.8720734 98.6861727 59.6407139 101.17791 56.3160039 103.600712 52.8965074 103.600712 52.5187974 103.609329 52.1497043 103.626562 51.7877921 103.36949 50.6201942 102.655718 49.9925923 101.486684 49.9064227 100.129513 50.0270602 99.398508 50.7666825 99.2965407 52.1238535L99.2965407 53.1033145C99.2103711 53.755331 98.841278 54.1172433 98.1878253 54.1861789L96.8737391 54.1861789C96.2030525 54.0985732 95.8598103 53.7309163 95.8425763 53.0774636L95.8425763 51.9945991C96.1168829 48.5234008 97.9982522 46.6161806 101.486684 46.2715023ZM115.139773 46.2715023C118.593737 46.6334145 120.483724 48.5406348 120.811168 51.9945991 120.793934 52.4757126 120.759466 52.9482092 120.707765 53.4120888 120.46649 54.0655415 120.123248 54.6486224 119.676602 55.1642038 117.941721 57.5697714 116.18817 59.9681583 114.418821 62.3564921L119.805856 62.3564921C120.440639 62.4426616 120.819785 62.7859038 120.940423 63.3876548L120.940423 64.7275919C120.819785 65.3810446 120.433458 65.7415207 119.780005 65.8104564L110.706348 65.8104564C110.052895 65.7415207 109.692419 65.3810446 109.624919 64.7275919L109.624919 63.3876548C109.624919 63.1980817 109.675185 63.0257425 109.778589 62.8720734 112.339262 59.6407139 114.830999 56.3160039 117.2538 52.8965074 117.2538 52.5187974 117.262417 52.1497043 117.279651 51.7877921 117.022579 50.6201942 116.308807 49.9925923 115.139773 49.9064227 113.782602 50.0270602 113.051597 50.7666825 112.949629 52.1238535L112.949629 53.1033145C112.86346 53.755331 112.494367 54.1172433 111.840914 54.1861789L110.526828 54.1861789C109.856141 54.0985732 109.512899 53.7309163 109.495665 53.0774636L109.495665 51.9945991C109.769972 48.5234008 111.651341 46.6161806 115.139773 46.2715023ZM87.8507454 49.9059919C86.4935743 50.0610971 85.753952 50.8079002 85.6347508 52.1492735L85.6347508 60.3971392C85.771186 61.7370763 86.5108083 62.4680817 87.8507454 62.5872829 89.1921186 62.4680817 89.9303047 61.7370763 90.0681761 60.3971392L90.0681761 52.1492735C89.9303047 50.7921025 89.1921186 50.0438632 87.8507454 49.9059919ZM148.474655 124.668139C151.912496 125.03072 153.811038 126.944833 154.171394 130.416039L154.171394 131.500444C154.051275 132.135516 153.682022 132.504769 153.062521 132.607093L151.696727 132.607093C151.042748 132.54036 150.674606 132.17778 150.588966 131.524913L150.588966 130.496119C150.467735 129.205955 149.763707 128.483019 148.474655 128.329534 147.117759 128.483019 146.37814 129.205955 146.258021 130.496119L146.258021 138.767623C146.37814 140.108948 147.117759 140.83967 148.474655 140.9609 149.763707 140.83967 150.467735 140.108948 150.588966 138.767623L150.588966 137.660974C150.674606 137.008107 151.061655 136.647751 151.749001 136.576569L153.012471 136.576569C153.664226 136.664434 154.051275 137.02479 154.171394 137.660974L154.171394 138.767623C153.775447 142.205463 151.876905 144.079537 148.474655 144.387619 145.003449 144.112903 143.129375 142.238829 142.854659 138.767623L142.854659 130.416039C143.113804 126.944833 144.986765 125.03072 148.474655 124.668139ZM162.110385 124.668807C165.566021 125.012479 167.464563 126.911022 167.808236 130.366657L167.808236 138.76829C167.44788 142.205018 165.548225 144.079092 162.110385 144.387174 158.674769 144.061296 156.79291 142.189447 156.46592 138.76829L156.46592 130.366657C156.758431 126.911022 158.64029 125.012479 162.110385 124.668807ZM194.708771 124.873787C195.343843 124.979447 195.713097 125.3487 195.817645 125.983772L195.817645 127.323985C195.713097 128.011331 195.336058 128.372799 194.683191 128.406165L188.548241 128.406165C188.204569 128.439531 188.014381 128.630832 187.979902 128.973392L187.979902 132.298899C188.014381 132.642572 188.204569 132.821638 188.548241 132.841658L192.440976 132.841658C193.074935 132.927298 193.42973 133.278756 193.497575 133.89492L193.497575 135.288519C193.42973 135.960294 193.06715 136.302855 192.414283 136.32065L188.548241 136.32065C188.204569 136.370699 188.014381 136.570897 187.979902 136.913458L187.979902 143.124037C187.929853 143.776904 187.577282 144.140597 186.923303 144.208442L185.608671 144.208442C184.991395 144.175075 184.64661 143.855871 184.578765 143.253054L184.578765 125.959304C184.594336 125.357598 184.895745 124.993906 185.480767 124.873787L194.708771 124.873787ZM171.170213 124.900925 172.795151 124.900925C173.482497 124.848651 173.989664 125.151172 174.315542 125.801815 175.552319 128.880411 176.815789 131.937876 178.103728 134.980882L178.103728 125.984217C178.173798 125.348033 178.534154 124.987677 179.188133 124.900925L180.528346 124.900925C181.128939 124.950974 181.489295 125.277964 181.609414 125.880782L181.609414 138.509924C181.593843 140.057007 181.583833 141.595194 181.583833 143.124482L181.583833 143.253498C181.56715 143.856316 181.257955 144.156613 180.65625 144.156613L179.007955 144.156613C178.301702 144.191091 177.812329 143.890795 177.536501 143.253498 176.248562 140.2294 174.977307 137.205302 173.722734 134.180091L173.722734 143.074433C173.653777 143.742871 173.293421 144.104339 172.639442 144.156613L171.32481 144.156613C170.706421 144.104339 170.362748 143.777349 170.293791 143.176756L170.293791 125.59828C170.32827 125.079991 170.620781 124.848651 171.170213 124.900925ZM162.110385 128.276815C160.771284 128.414729 160.040562 129.145451 159.920444 130.468981L159.920444 138.792759C160.040562 140.134084 160.771284 140.849235 162.110385 140.935987 163.45171 140.849235 164.189105 140.134084 164.328131 138.792759L164.328131 130.468981C164.189105 129.127656 163.45171 128.396934 162.110385 128.276815Z"/></g></g></svg>